<?xml version="1.0" encoding="utf-8" standalone="no"?>
<!DOCTYPE svg PUBLIC "-//W3C//DTD SVG 1.1//EN"
  "http://www.w3.org/Graphics/SVG/1.1/DTD/svg11.dtd">
<!-- Created with matplotlib (https://matplotlib.org/) -->
<svg height="720pt" version="1.1" viewBox="0 0 1080 720" width="1080pt" xmlns="http://www.w3.org/2000/svg" xmlns:xlink="http://www.w3.org/1999/xlink">
 <defs>
  <style type="text/css">
*{stroke-linecap:butt;stroke-linejoin:round;}
  </style>
 </defs>
 <g id="figure_1">
  <g id="patch_1">
   <path d="M 0 720 
L 1080 720 
L 1080 0 
L 0 0 
z
" style="fill:#ffffff;"/>
  </g>
  <g id="axes_1">
   <g id="patch_2">
    <path d="M 24.19 337.52 
L 354.828401 337.52 
L 354.828401 26.88 
L 24.19 26.88 
z
" style="fill:#ffffff;"/>
   </g>
   <g id="PolyCollection_1">
    <defs>
     <path d="M 24.559994 -513.075592 
L 24.559994 -264.563592 
L 24.598941 -297.0873 
L 25.74787 -319.068234 
L 28.844136 -336.20098 
L 31.219888 -350.771476 
L 31.395148 -363.996248 
L 34.666675 -376.774367 
L 37.081373 -390.29883 
L 41.618669 -386.393473 
L 50.070113 -386.932344 
L 50.206426 -399.808218 
L 51.121675 -401.786865 
L 53.010592 -405.116872 
L 53.40006 -409.317605 
L 53.5169 -414.173997 
L 53.536373 -412.965748 
L 54.276361 -418.826993 
L 55.30845 -425.0972 
L 56.98316 -426.22932 
L 59.261545 -424.470765 
L 60.722048 -431.082629 
L 64.071468 -434.288124 
L 64.246728 -441.38383 
L 64.460935 -445.054206 
L 65.590391 -449.044289 
L 66.875634 -453.330664 
L 75.210237 -457.921143 
L 79.513853 -459.407668 
L 102.356119 -464.476145 
L 105.783433 -469.951108 
L 106.562368 -476.147469 
L 137.739238 -478.455803 
L 191.018387 -478.132163 
L 191.057333 -481.51522 
L 199.041416 -485.145138 
L 199.275097 -489.010738 
L 200.891387 -490.697419 
L 201.611902 -494.950861 
L 202.196103 -499.448537 
L 206.538665 -501.834413 
L 227.686748 -506.736 
L 228.037269 -512.160149 
L 269.165033 -515.033661 
L 269.165033 -528.868379 
L 269.165033 -528.868379 
L 228.037269 -525.4023 
L 227.686748 -524.486857 
L 206.538665 -523.048852 
L 202.196103 -519.095136 
L 201.611902 -517.25322 
L 200.891387 -515.167071 
L 199.275097 -510.51416 
L 199.041416 -508.040168 
L 191.057333 -505.330494 
L 191.018387 -502.373959 
L 137.739238 -495.710728 
L 106.562368 -491.679469 
L 105.783433 -491.536239 
L 102.356119 -490.67161 
L 79.513853 -489.400495 
L 75.210237 -484.547429 
L 66.875634 -482.798316 
L 65.590391 -480.745099 
L 64.460935 -478.39559 
L 64.246728 -475.726374 
L 64.071468 -476.482488 
L 60.722048 -473.348391 
L 59.261545 -473.620663 
L 56.98316 -465.522517 
L 55.30845 -460.315045 
L 54.276361 -460.24566 
L 53.536373 -459.767313 
L 53.5169 -452.219472 
L 53.40006 -450.736272 
L 53.010592 -448.597414 
L 51.121675 -445.587829 
L 50.206426 -441.226884 
L 50.070113 -447.763166 
L 41.618669 -441.962445 
L 37.081373 -431.717497 
L 34.666675 -438.902367 
L 31.395148 -445.340895 
L 31.219888 -452.226075 
L 28.844136 -460.45698 
L 25.74787 -471.250133 
L 24.598941 -486.891475 
L 24.559994 -513.075592 
z
" id="mfa0981d743" style="stroke:#0000ff;stroke-opacity:0.1;"/>
    </defs>
    <g clip-path="url(#pb13a220de7)">
     <use style="fill:#0000ff;fill-opacity:0.1;stroke:#0000ff;stroke-opacity:0.1;" x="0" xlink:href="#mfa0981d743" y="720"/>
    </g>
   </g>
   <g id="matplotlib.axis_1">
    <g id="xtick_1">
     <g id="line2d_1">
      <defs>
       <path d="M 0 0 
L 0 3.5 
" id="m34df91ce03" style="stroke:#000000;stroke-width:0.8;"/>
      </defs>
      <g>
       <use style="stroke:#000000;stroke-width:0.8;" x="63.097799" xlink:href="#m34df91ce03" y="337.52"/>
      </g>
     </g>
     <g id="text_1">
      <!-- 10000 -->
      <defs>
       <path d="M 12.40625 8.296875 
L 28.515625 8.296875 
L 28.515625 63.921875 
L 10.984375 60.40625 
L 10.984375 69.390625 
L 28.421875 72.90625 
L 38.28125 72.90625 
L 38.28125 8.296875 
L 54.390625 8.296875 
L 54.390625 0 
L 12.40625 0 
z
" id="DejaVuSans-49"/>
       <path d="M 31.78125 66.40625 
Q 24.171875 66.40625 20.328125 58.90625 
Q 16.5 51.421875 16.5 36.375 
Q 16.5 21.390625 20.328125 13.890625 
Q 24.171875 6.390625 31.78125 6.390625 
Q 39.453125 6.390625 43.28125 13.890625 
Q 47.125 21.390625 47.125 36.375 
Q 47.125 51.421875 43.28125 58.90625 
Q 39.453125 66.40625 31.78125 66.40625 
z
M 31.78125 74.21875 
Q 44.046875 74.21875 50.515625 64.515625 
Q 56.984375 54.828125 56.984375 36.375 
Q 56.984375 17.96875 50.515625 8.265625 
Q 44.046875 -1.421875 31.78125 -1.421875 
Q 19.53125 -1.421875 13.0625 8.265625 
Q 6.59375 17.96875 6.59375 36.375 
Q 6.59375 54.828125 13.0625 64.515625 
Q 19.53125 74.21875 31.78125 74.21875 
z
" id="DejaVuSans-48"/>
      </defs>
      <g transform="translate(47.191549 352.118438)scale(0.1 -0.1)">
       <use xlink:href="#DejaVuSans-49"/>
       <use x="63.623047" xlink:href="#DejaVuSans-48"/>
       <use x="127.246094" xlink:href="#DejaVuSans-48"/>
       <use x="190.869141" xlink:href="#DejaVuSans-48"/>
       <use x="254.492188" xlink:href="#DejaVuSans-48"/>
      </g>
     </g>
    </g>
    <g id="xtick_2">
     <g id="line2d_2">
      <g>
       <use style="stroke:#000000;stroke-width:0.8;" x="102.044545" xlink:href="#m34df91ce03" y="337.52"/>
      </g>
     </g>
     <g id="text_2">
      <!-- 20000 -->
      <defs>
       <path d="M 19.1875 8.296875 
L 53.609375 8.296875 
L 53.609375 0 
L 7.328125 0 
L 7.328125 8.296875 
Q 12.9375 14.109375 22.625 23.890625 
Q 32.328125 33.6875 34.8125 36.53125 
Q 39.546875 41.84375 41.421875 45.53125 
Q 43.3125 49.21875 43.3125 52.78125 
Q 43.3125 58.59375 39.234375 62.25 
Q 35.15625 65.921875 28.609375 65.921875 
Q 23.96875 65.921875 18.8125 64.3125 
Q 13.671875 62.703125 7.8125 59.421875 
L 7.8125 69.390625 
Q 13.765625 71.78125 18.9375 73 
Q 24.125 74.21875 28.421875 74.21875 
Q 39.75 74.21875 46.484375 68.546875 
Q 53.21875 62.890625 53.21875 53.421875 
Q 53.21875 48.921875 51.53125 44.890625 
Q 49.859375 40.875 45.40625 35.40625 
Q 44.1875 33.984375 37.640625 27.21875 
Q 31.109375 20.453125 19.1875 8.296875 
z
" id="DejaVuSans-50"/>
      </defs>
      <g transform="translate(86.138295 352.118438)scale(0.1 -0.1)">
       <use xlink:href="#DejaVuSans-50"/>
       <use x="63.623047" xlink:href="#DejaVuSans-48"/>
       <use x="127.246094" xlink:href="#DejaVuSans-48"/>
       <use x="190.869141" xlink:href="#DejaVuSans-48"/>
       <use x="254.492188" xlink:href="#DejaVuSans-48"/>
      </g>
     </g>
    </g>
    <g id="xtick_3">
     <g id="line2d_3">
      <g>
       <use style="stroke:#000000;stroke-width:0.8;" x="140.991291" xlink:href="#m34df91ce03" y="337.52"/>
      </g>
     </g>
     <g id="text_3">
      <!-- 30000 -->
      <defs>
       <path d="M 40.578125 39.3125 
Q 47.65625 37.796875 51.625 33 
Q 55.609375 28.21875 55.609375 21.1875 
Q 55.609375 10.40625 48.1875 4.484375 
Q 40.765625 -1.421875 27.09375 -1.421875 
Q 22.515625 -1.421875 17.65625 -0.515625 
Q 12.796875 0.390625 7.625 2.203125 
L 7.625 11.71875 
Q 11.71875 9.328125 16.59375 8.109375 
Q 21.484375 6.890625 26.8125 6.890625 
Q 36.078125 6.890625 40.9375 10.546875 
Q 45.796875 14.203125 45.796875 21.1875 
Q 45.796875 27.640625 41.28125 31.265625 
Q 36.765625 34.90625 28.71875 34.90625 
L 20.21875 34.90625 
L 20.21875 43.015625 
L 29.109375 43.015625 
Q 36.375 43.015625 40.234375 45.921875 
Q 44.09375 48.828125 44.09375 54.296875 
Q 44.09375 59.90625 40.109375 62.90625 
Q 36.140625 65.921875 28.71875 65.921875 
Q 24.65625 65.921875 20.015625 65.03125 
Q 15.375 64.15625 9.8125 62.3125 
L 9.8125 71.09375 
Q 15.4375 72.65625 20.34375 73.4375 
Q 25.25 74.21875 29.59375 74.21875 
Q 40.828125 74.21875 47.359375 69.109375 
Q 53.90625 64.015625 53.90625 55.328125 
Q 53.90625 49.265625 50.4375 45.09375 
Q 46.96875 40.921875 40.578125 39.3125 
z
" id="DejaVuSans-51"/>
      </defs>
      <g transform="translate(125.085041 352.118438)scale(0.1 -0.1)">
       <use xlink:href="#DejaVuSans-51"/>
       <use x="63.623047" xlink:href="#DejaVuSans-48"/>
       <use x="127.246094" xlink:href="#DejaVuSans-48"/>
       <use x="190.869141" xlink:href="#DejaVuSans-48"/>
       <use x="254.492188" xlink:href="#DejaVuSans-48"/>
      </g>
     </g>
    </g>
    <g id="xtick_4">
     <g id="line2d_4">
      <g>
       <use style="stroke:#000000;stroke-width:0.8;" x="179.938037" xlink:href="#m34df91ce03" y="337.52"/>
      </g>
     </g>
     <g id="text_4">
      <!-- 40000 -->
      <defs>
       <path d="M 37.796875 64.3125 
L 12.890625 25.390625 
L 37.796875 25.390625 
z
M 35.203125 72.90625 
L 47.609375 72.90625 
L 47.609375 25.390625 
L 58.015625 25.390625 
L 58.015625 17.1875 
L 47.609375 17.1875 
L 47.609375 0 
L 37.796875 0 
L 37.796875 17.1875 
L 4.890625 17.1875 
L 4.890625 26.703125 
z
" id="DejaVuSans-52"/>
      </defs>
      <g transform="translate(164.031787 352.118438)scale(0.1 -0.1)">
       <use xlink:href="#DejaVuSans-52"/>
       <use x="63.623047" xlink:href="#DejaVuSans-48"/>
       <use x="127.246094" xlink:href="#DejaVuSans-48"/>
       <use x="190.869141" xlink:href="#DejaVuSans-48"/>
       <use x="254.492188" xlink:href="#DejaVuSans-48"/>
      </g>
     </g>
    </g>
    <g id="xtick_5">
     <g id="line2d_5">
      <g>
       <use style="stroke:#000000;stroke-width:0.8;" x="218.884783" xlink:href="#m34df91ce03" y="337.52"/>
      </g>
     </g>
     <g id="text_5">
      <!-- 50000 -->
      <defs>
       <path d="M 10.796875 72.90625 
L 49.515625 72.90625 
L 49.515625 64.59375 
L 19.828125 64.59375 
L 19.828125 46.734375 
Q 21.96875 47.46875 24.109375 47.828125 
Q 26.265625 48.1875 28.421875 48.1875 
Q 40.625 48.1875 47.75 41.5 
Q 54.890625 34.8125 54.890625 23.390625 
Q 54.890625 11.625 47.5625 5.09375 
Q 40.234375 -1.421875 26.90625 -1.421875 
Q 22.3125 -1.421875 17.546875 -0.640625 
Q 12.796875 0.140625 7.71875 1.703125 
L 7.71875 11.625 
Q 12.109375 9.234375 16.796875 8.0625 
Q 21.484375 6.890625 26.703125 6.890625 
Q 35.15625 6.890625 40.078125 11.328125 
Q 45.015625 15.765625 45.015625 23.390625 
Q 45.015625 31 40.078125 35.4375 
Q 35.15625 39.890625 26.703125 39.890625 
Q 22.75 39.890625 18.8125 39.015625 
Q 14.890625 38.140625 10.796875 36.28125 
z
" id="DejaVuSans-53"/>
      </defs>
      <g transform="translate(202.978533 352.118438)scale(0.1 -0.1)">
       <use xlink:href="#DejaVuSans-53"/>
       <use x="63.623047" xlink:href="#DejaVuSans-48"/>
       <use x="127.246094" xlink:href="#DejaVuSans-48"/>
       <use x="190.869141" xlink:href="#DejaVuSans-48"/>
       <use x="254.492188" xlink:href="#DejaVuSans-48"/>
      </g>
     </g>
    </g>
    <g id="xtick_6">
     <g id="line2d_6">
      <g>
       <use style="stroke:#000000;stroke-width:0.8;" x="257.83153" xlink:href="#m34df91ce03" y="337.52"/>
      </g>
     </g>
     <g id="text_6">
      <!-- 60000 -->
      <defs>
       <path d="M 33.015625 40.375 
Q 26.375 40.375 22.484375 35.828125 
Q 18.609375 31.296875 18.609375 23.390625 
Q 18.609375 15.53125 22.484375 10.953125 
Q 26.375 6.390625 33.015625 6.390625 
Q 39.65625 6.390625 43.53125 10.953125 
Q 47.40625 15.53125 47.40625 23.390625 
Q 47.40625 31.296875 43.53125 35.828125 
Q 39.65625 40.375 33.015625 40.375 
z
M 52.59375 71.296875 
L 52.59375 62.3125 
Q 48.875 64.0625 45.09375 64.984375 
Q 41.3125 65.921875 37.59375 65.921875 
Q 27.828125 65.921875 22.671875 59.328125 
Q 17.53125 52.734375 16.796875 39.40625 
Q 19.671875 43.65625 24.015625 45.921875 
Q 28.375 48.1875 33.59375 48.1875 
Q 44.578125 48.1875 50.953125 41.515625 
Q 57.328125 34.859375 57.328125 23.390625 
Q 57.328125 12.15625 50.6875 5.359375 
Q 44.046875 -1.421875 33.015625 -1.421875 
Q 20.359375 -1.421875 13.671875 8.265625 
Q 6.984375 17.96875 6.984375 36.375 
Q 6.984375 53.65625 15.1875 63.9375 
Q 23.390625 74.21875 37.203125 74.21875 
Q 40.921875 74.21875 44.703125 73.484375 
Q 48.484375 72.75 52.59375 71.296875 
z
" id="DejaVuSans-54"/>
      </defs>
      <g transform="translate(241.92528 352.118438)scale(0.1 -0.1)">
       <use xlink:href="#DejaVuSans-54"/>
       <use x="63.623047" xlink:href="#DejaVuSans-48"/>
       <use x="127.246094" xlink:href="#DejaVuSans-48"/>
       <use x="190.869141" xlink:href="#DejaVuSans-48"/>
       <use x="254.492188" xlink:href="#DejaVuSans-48"/>
      </g>
     </g>
    </g>
    <g id="xtick_7">
     <g id="line2d_7">
      <g>
       <use style="stroke:#000000;stroke-width:0.8;" x="296.778276" xlink:href="#m34df91ce03" y="337.52"/>
      </g>
     </g>
     <g id="text_7">
      <!-- 70000 -->
      <defs>
       <path d="M 8.203125 72.90625 
L 55.078125 72.90625 
L 55.078125 68.703125 
L 28.609375 0 
L 18.3125 0 
L 43.21875 64.59375 
L 8.203125 64.59375 
z
" id="DejaVuSans-55"/>
      </defs>
      <g transform="translate(280.872026 352.118438)scale(0.1 -0.1)">
       <use xlink:href="#DejaVuSans-55"/>
       <use x="63.623047" xlink:href="#DejaVuSans-48"/>
       <use x="127.246094" xlink:href="#DejaVuSans-48"/>
       <use x="190.869141" xlink:href="#DejaVuSans-48"/>
       <use x="254.492188" xlink:href="#DejaVuSans-48"/>
      </g>
     </g>
    </g>
    <g id="xtick_8">
     <g id="line2d_8">
      <g>
       <use style="stroke:#000000;stroke-width:0.8;" x="335.725022" xlink:href="#m34df91ce03" y="337.52"/>
      </g>
     </g>
     <g id="text_8">
      <!-- 80000 -->
      <defs>
       <path d="M 31.78125 34.625 
Q 24.75 34.625 20.71875 30.859375 
Q 16.703125 27.09375 16.703125 20.515625 
Q 16.703125 13.921875 20.71875 10.15625 
Q 24.75 6.390625 31.78125 6.390625 
Q 38.8125 6.390625 42.859375 10.171875 
Q 46.921875 13.96875 46.921875 20.515625 
Q 46.921875 27.09375 42.890625 30.859375 
Q 38.875 34.625 31.78125 34.625 
z
M 21.921875 38.8125 
Q 15.578125 40.375 12.03125 44.71875 
Q 8.5 49.078125 8.5 55.328125 
Q 8.5 64.0625 14.71875 69.140625 
Q 20.953125 74.21875 31.78125 74.21875 
Q 42.671875 74.21875 48.875 69.140625 
Q 55.078125 64.0625 55.078125 55.328125 
Q 55.078125 49.078125 51.53125 44.71875 
Q 48 40.375 41.703125 38.8125 
Q 48.828125 37.15625 52.796875 32.3125 
Q 56.78125 27.484375 56.78125 20.515625 
Q 56.78125 9.90625 50.3125 4.234375 
Q 43.84375 -1.421875 31.78125 -1.421875 
Q 19.734375 -1.421875 13.25 4.234375 
Q 6.78125 9.90625 6.78125 20.515625 
Q 6.78125 27.484375 10.78125 32.3125 
Q 14.796875 37.15625 21.921875 38.8125 
z
M 18.3125 54.390625 
Q 18.3125 48.734375 21.84375 45.5625 
Q 25.390625 42.390625 31.78125 42.390625 
Q 38.140625 42.390625 41.71875 45.5625 
Q 45.3125 48.734375 45.3125 54.390625 
Q 45.3125 60.0625 41.71875 63.234375 
Q 38.140625 66.40625 31.78125 66.40625 
Q 25.390625 66.40625 21.84375 63.234375 
Q 18.3125 60.0625 18.3125 54.390625 
z
" id="DejaVuSans-56"/>
      </defs>
      <g transform="translate(319.818772 352.118438)scale(0.1 -0.1)">
       <use xlink:href="#DejaVuSans-56"/>
       <use x="63.623047" xlink:href="#DejaVuSans-48"/>
       <use x="127.246094" xlink:href="#DejaVuSans-48"/>
       <use x="190.869141" xlink:href="#DejaVuSans-48"/>
       <use x="254.492188" xlink:href="#DejaVuSans-48"/>
      </g>
     </g>
    </g>
   </g>
   <g id="matplotlib.axis_2">
    <g id="ytick_1">
     <g id="line2d_9">
      <defs>
       <path d="M 0 0 
L -3.5 0 
" id="m501a1b78f6" style="stroke:#000000;stroke-width:0.8;"/>
      </defs>
      <g>
       <use style="stroke:#000000;stroke-width:0.8;" x="24.19" xlink:href="#m501a1b78f6" y="337.52"/>
      </g>
     </g>
     <g id="text_9">
      <!-- 0 -->
      <g transform="translate(10.8275 341.319219)scale(0.1 -0.1)">
       <use xlink:href="#DejaVuSans-48"/>
      </g>
     </g>
    </g>
    <g id="ytick_2">
     <g id="line2d_10">
      <g>
       <use style="stroke:#000000;stroke-width:0.8;" x="24.19" xlink:href="#m501a1b78f6" y="274.124082"/>
      </g>
     </g>
     <g id="text_10">
      <!-- 2 -->
      <g transform="translate(10.8275 277.9233)scale(0.1 -0.1)">
       <use xlink:href="#DejaVuSans-50"/>
      </g>
     </g>
    </g>
    <g id="ytick_3">
     <g id="line2d_11">
      <g>
       <use style="stroke:#000000;stroke-width:0.8;" x="24.19" xlink:href="#m501a1b78f6" y="210.728163"/>
      </g>
     </g>
     <g id="text_11">
      <!-- 4 -->
      <g transform="translate(10.8275 214.527382)scale(0.1 -0.1)">
       <use xlink:href="#DejaVuSans-52"/>
      </g>
     </g>
    </g>
    <g id="ytick_4">
     <g id="line2d_12">
      <g>
       <use style="stroke:#000000;stroke-width:0.8;" x="24.19" xlink:href="#m501a1b78f6" y="147.332245"/>
      </g>
     </g>
     <g id="text_12">
      <!-- 6 -->
      <g transform="translate(10.8275 151.131464)scale(0.1 -0.1)">
       <use xlink:href="#DejaVuSans-54"/>
      </g>
     </g>
    </g>
    <g id="ytick_5">
     <g id="line2d_13">
      <g>
       <use style="stroke:#000000;stroke-width:0.8;" x="24.19" xlink:href="#m501a1b78f6" y="83.936327"/>
      </g>
     </g>
     <g id="text_13">
      <!-- 8 -->
      <g transform="translate(10.8275 87.735545)scale(0.1 -0.1)">
       <use xlink:href="#DejaVuSans-56"/>
      </g>
     </g>
    </g>
   </g>
   <g id="line2d_14">
    <path clip-path="url(#pb13a220de7)" d="M 24.559994 331.180408 
L 24.559994 328.010612 
L 24.598941 328.010612 
L 24.598941 324.840816 
L 25.74787 324.840816 
L 25.74787 321.67102 
L 28.844136 321.67102 
L 28.844136 318.501224 
L 31.219888 318.501224 
L 31.219888 315.331429 
L 31.395148 315.331429 
L 31.395148 312.161633 
L 34.666675 312.161633 
L 34.666675 308.991837 
L 37.081373 308.991837 
L 37.081373 305.822041 
L 41.618669 305.822041 
L 41.618669 302.652245 
L 50.070113 302.652245 
L 50.070113 299.482449 
L 50.206426 299.482449 
L 50.206426 296.312653 
L 51.121675 296.312653 
L 51.121675 293.142857 
L 53.010592 293.142857 
L 53.010592 289.973061 
L 53.40006 289.973061 
L 53.40006 286.803265 
L 53.5169 286.803265 
L 53.5169 283.633469 
L 53.536373 283.633469 
L 53.536373 280.463673 
L 54.276361 280.463673 
L 54.276361 277.293878 
L 55.30845 277.293878 
L 55.30845 274.124082 
L 56.98316 274.124082 
L 56.98316 270.954286 
L 59.261545 270.954286 
L 59.261545 267.78449 
L 60.722048 267.78449 
L 60.722048 264.614694 
L 64.071468 264.614694 
L 64.071468 261.444898 
L 64.246728 261.444898 
L 64.246728 258.275102 
L 64.460935 258.275102 
L 64.460935 255.105306 
L 65.590391 255.105306 
L 65.590391 251.93551 
L 66.875634 251.93551 
L 66.875634 248.765714 
L 75.210237 248.765714 
L 75.210237 245.595918 
L 79.513853 245.595918 
L 79.513853 242.426122 
L 102.356119 242.426122 
L 102.356119 239.256327 
L 105.783433 239.256327 
L 105.783433 236.086531 
L 106.562368 236.086531 
L 106.562368 232.916735 
L 137.739238 232.916735 
L 137.739238 229.746939 
L 191.018387 229.746939 
L 191.018387 226.577143 
L 191.057333 226.577143 
L 191.057333 223.407347 
L 199.041416 223.407347 
L 199.041416 220.237551 
L 199.275097 220.237551 
L 199.275097 217.067755 
L 200.891387 217.067755 
L 200.891387 213.897959 
L 201.611902 213.897959 
L 201.611902 210.728163 
L 202.196103 210.728163 
L 202.196103 207.558367 
L 206.538665 207.558367 
L 206.538665 204.388571 
L 227.686748 204.388571 
L 227.686748 201.218776 
L 228.037269 201.218776 
L 228.037269 198.04898 
L 269.165033 198.04898 
" style="fill:none;stroke:#1f77b4;stroke-linecap:square;stroke-width:1.5;"/>
   </g>
   <g id="patch_3">
    <path d="M 24.19 337.52 
L 24.19 26.88 
" style="fill:none;stroke:#000000;stroke-linecap:square;stroke-linejoin:miter;stroke-width:0.8;"/>
   </g>
   <g id="patch_4">
    <path d="M 354.828401 337.52 
L 354.828401 26.88 
" style="fill:none;stroke:#000000;stroke-linecap:square;stroke-linejoin:miter;stroke-width:0.8;"/>
   </g>
   <g id="patch_5">
    <path d="M 24.19 337.52 
L 354.828401 337.52 
" style="fill:none;stroke:#000000;stroke-linecap:square;stroke-linejoin:miter;stroke-width:0.8;"/>
   </g>
   <g id="patch_6">
    <path d="M 24.19 26.88 
L 354.828401 26.88 
" style="fill:none;stroke:#000000;stroke-linecap:square;stroke-linejoin:miter;stroke-width:0.8;"/>
   </g>
   <g id="text_14">
    <!-- moptafl -->
    <defs>
     <path d="M 52 44.1875 
Q 55.375 50.25 60.0625 53.125 
Q 64.75 56 71.09375 56 
Q 79.640625 56 84.28125 50.015625 
Q 88.921875 44.046875 88.921875 33.015625 
L 88.921875 0 
L 79.890625 0 
L 79.890625 32.71875 
Q 79.890625 40.578125 77.09375 44.375 
Q 74.3125 48.1875 68.609375 48.1875 
Q 61.625 48.1875 57.5625 43.546875 
Q 53.515625 38.921875 53.515625 30.90625 
L 53.515625 0 
L 44.484375 0 
L 44.484375 32.71875 
Q 44.484375 40.625 41.703125 44.40625 
Q 38.921875 48.1875 33.109375 48.1875 
Q 26.21875 48.1875 22.15625 43.53125 
Q 18.109375 38.875 18.109375 30.90625 
L 18.109375 0 
L 9.078125 0 
L 9.078125 54.6875 
L 18.109375 54.6875 
L 18.109375 46.1875 
Q 21.1875 51.21875 25.484375 53.609375 
Q 29.78125 56 35.6875 56 
Q 41.65625 56 45.828125 52.96875 
Q 50 49.953125 52 44.1875 
z
" id="DejaVuSans-109"/>
     <path d="M 30.609375 48.390625 
Q 23.390625 48.390625 19.1875 42.75 
Q 14.984375 37.109375 14.984375 27.296875 
Q 14.984375 17.484375 19.15625 11.84375 
Q 23.34375 6.203125 30.609375 6.203125 
Q 37.796875 6.203125 41.984375 11.859375 
Q 46.1875 17.53125 46.1875 27.296875 
Q 46.1875 37.015625 41.984375 42.703125 
Q 37.796875 48.390625 30.609375 48.390625 
z
M 30.609375 56 
Q 42.328125 56 49.015625 48.375 
Q 55.71875 40.765625 55.71875 27.296875 
Q 55.71875 13.875 49.015625 6.21875 
Q 42.328125 -1.421875 30.609375 -1.421875 
Q 18.84375 -1.421875 12.171875 6.21875 
Q 5.515625 13.875 5.515625 27.296875 
Q 5.515625 40.765625 12.171875 48.375 
Q 18.84375 56 30.609375 56 
z
" id="DejaVuSans-111"/>
     <path d="M 18.109375 8.203125 
L 18.109375 -20.796875 
L 9.078125 -20.796875 
L 9.078125 54.6875 
L 18.109375 54.6875 
L 18.109375 46.390625 
Q 20.953125 51.265625 25.265625 53.625 
Q 29.59375 56 35.59375 56 
Q 45.5625 56 51.78125 48.09375 
Q 58.015625 40.1875 58.015625 27.296875 
Q 58.015625 14.40625 51.78125 6.484375 
Q 45.5625 -1.421875 35.59375 -1.421875 
Q 29.59375 -1.421875 25.265625 0.953125 
Q 20.953125 3.328125 18.109375 8.203125 
z
M 48.6875 27.296875 
Q 48.6875 37.203125 44.609375 42.84375 
Q 40.53125 48.484375 33.40625 48.484375 
Q 26.265625 48.484375 22.1875 42.84375 
Q 18.109375 37.203125 18.109375 27.296875 
Q 18.109375 17.390625 22.1875 11.75 
Q 26.265625 6.109375 33.40625 6.109375 
Q 40.53125 6.109375 44.609375 11.75 
Q 48.6875 17.390625 48.6875 27.296875 
z
" id="DejaVuSans-112"/>
     <path d="M 18.3125 70.21875 
L 18.3125 54.6875 
L 36.8125 54.6875 
L 36.8125 47.703125 
L 18.3125 47.703125 
L 18.3125 18.015625 
Q 18.3125 11.328125 20.140625 9.421875 
Q 21.96875 7.515625 27.59375 7.515625 
L 36.8125 7.515625 
L 36.8125 0 
L 27.59375 0 
Q 17.1875 0 13.234375 3.875 
Q 9.28125 7.765625 9.28125 18.015625 
L 9.28125 47.703125 
L 2.6875 47.703125 
L 2.6875 54.6875 
L 9.28125 54.6875 
L 9.28125 70.21875 
z
" id="DejaVuSans-116"/>
     <path d="M 34.28125 27.484375 
Q 23.390625 27.484375 19.1875 25 
Q 14.984375 22.515625 14.984375 16.5 
Q 14.984375 11.71875 18.140625 8.90625 
Q 21.296875 6.109375 26.703125 6.109375 
Q 34.1875 6.109375 38.703125 11.40625 
Q 43.21875 16.703125 43.21875 25.484375 
L 43.21875 27.484375 
z
M 52.203125 31.203125 
L 52.203125 0 
L 43.21875 0 
L 43.21875 8.296875 
Q 40.140625 3.328125 35.546875 0.953125 
Q 30.953125 -1.421875 24.3125 -1.421875 
Q 15.921875 -1.421875 10.953125 3.296875 
Q 6 8.015625 6 15.921875 
Q 6 25.140625 12.171875 29.828125 
Q 18.359375 34.515625 30.609375 34.515625 
L 43.21875 34.515625 
L 43.21875 35.40625 
Q 43.21875 41.609375 39.140625 45 
Q 35.0625 48.390625 27.6875 48.390625 
Q 23 48.390625 18.546875 47.265625 
Q 14.109375 46.140625 10.015625 43.890625 
L 10.015625 52.203125 
Q 14.9375 54.109375 19.578125 55.046875 
Q 24.21875 56 28.609375 56 
Q 40.484375 56 46.34375 49.84375 
Q 52.203125 43.703125 52.203125 31.203125 
z
" id="DejaVuSans-97"/>
     <path d="M 37.109375 75.984375 
L 37.109375 68.5 
L 28.515625 68.5 
Q 23.6875 68.5 21.796875 66.546875 
Q 19.921875 64.59375 19.921875 59.515625 
L 19.921875 54.6875 
L 34.71875 54.6875 
L 34.71875 47.703125 
L 19.921875 47.703125 
L 19.921875 0 
L 10.890625 0 
L 10.890625 47.703125 
L 2.296875 47.703125 
L 2.296875 54.6875 
L 10.890625 54.6875 
L 10.890625 58.5 
Q 10.890625 67.625 15.140625 71.796875 
Q 19.390625 75.984375 28.609375 75.984375 
z
" id="DejaVuSans-102"/>
     <path d="M 9.421875 75.984375 
L 18.40625 75.984375 
L 18.40625 0 
L 9.421875 0 
z
" id="DejaVuSans-108"/>
    </defs>
    <g transform="translate(166.376388 20.88)scale(0.12 -0.12)">
     <use xlink:href="#DejaVuSans-109"/>
     <use x="97.412109" xlink:href="#DejaVuSans-111"/>
     <use x="158.59375" xlink:href="#DejaVuSans-112"/>
     <use x="222.070312" xlink:href="#DejaVuSans-116"/>
     <use x="261.279297" xlink:href="#DejaVuSans-97"/>
     <use x="322.558594" xlink:href="#DejaVuSans-102"/>
     <use x="357.763672" xlink:href="#DejaVuSans-108"/>
    </g>
   </g>
  </g>
  <g id="axes_2">
   <g id="patch_7">
    <path d="M 380.59 337.52 
L 711.228401 337.52 
L 711.228401 26.88 
L 380.59 26.88 
z
" style="fill:#ffffff;"/>
   </g>
   <g id="PolyCollection_2">
    <defs>
     <path d="M 380.979467 -572.033796 
L 380.979467 -199.265796 
L 381.018414 -264.563592 
L 382.790491 -297.0873 
L 383.160485 -319.068234 
L 383.335746 -336.20098 
L 383.569426 -350.771476 
L 383.666793 -363.996248 
L 383.70574 -376.774367 
L 384.017314 -390.29883 
L 384.601515 -414.177959 
L 385.49729 -400.403755 
L 388.535136 -399.808218 
L 389.684065 -401.786865 
L 389.723012 -397.420676 
L 390.093006 -402.242453 
L 390.482473 -407.439827 
L 390.716154 -412.965748 
L 390.813521 -418.826993 
L 392.449284 -425.0972 
L 392.507704 -426.22932 
L 392.682965 -428.336381 
L 392.936118 -435.27151 
L 395.117136 -443.006773 
L 397.083947 -445.873277 
L 397.746042 -449.299298 
L 398.408136 -453.188394 
L 416.61574 -457.519813 
L 418.796758 -462.358857 
L 430.617095 -467.977047 
L 440.275888 -468.312382 
L 472.309587 -469.951108 
L 473.964824 -472.264469 
L 475.016386 -475.028317 
L 475.230593 -478.132163 
L 482.883628 -481.51522 
L 491.568753 -488.138103 
L 498.734954 -492.067685 
L 512.327368 -493.122561 
L 515.929942 -497.523335 
L 533.748079 -499.448537 
L 549.618878 -504.2814 
L 617.58095 -509.694476 
L 617.58095 -521.528381 
L 617.58095 -521.528381 
L 549.618878 -520.601865 
L 533.748079 -519.095136 
L 515.929942 -514.680746 
L 512.327368 -512.741929 
L 498.734954 -507.457213 
L 491.568753 -505.047203 
L 482.883628 -505.330494 
L 475.230593 -502.373959 
L 475.016386 -499.138214 
L 473.964824 -495.562469 
L 472.309587 -491.536239 
L 440.275888 -486.835373 
L 430.617095 -480.831116 
L 418.796758 -480.109714 
L 416.61574 -478.609166 
L 398.408136 -476.600994 
L 397.746042 -474.150498 
L 397.083947 -471.236927 
L 395.117136 -467.763839 
L 392.936118 -469.15951 
L 392.682965 -469.755048 
L 392.507704 -465.522517 
L 392.449284 -460.315045 
L 390.813521 -460.24566 
L 390.716154 -459.767313 
L 390.482473 -458.953643 
L 390.093006 -457.811425 
L 389.723012 -456.293609 
L 389.684065 -445.587829 
L 388.535136 -441.226884 
L 385.49729 -434.291755 
L 384.601515 -414.177959 
L 384.017314 -431.717497 
L 383.70574 -438.902367 
L 383.666793 -445.340895 
L 383.569426 -452.226075 
L 383.335746 -460.45698 
L 383.160485 -471.250133 
L 382.790491 -486.891475 
L 381.018414 -513.075592 
L 380.979467 -572.033796 
z
" id="m5f18b59664" style="stroke:#0000ff;stroke-opacity:0.1;"/>
    </defs>
    <g clip-path="url(#p4cf98dde04)">
     <use style="fill:#0000ff;fill-opacity:0.1;stroke:#0000ff;stroke-opacity:0.1;" x="0" xlink:href="#m5f18b59664" y="720"/>
    </g>
   </g>
   <g id="matplotlib.axis_3">
    <g id="xtick_9">
     <g id="line2d_15">
      <g>
       <use style="stroke:#000000;stroke-width:0.8;" x="419.497799" xlink:href="#m34df91ce03" y="337.52"/>
      </g>
     </g>
     <g id="text_15">
      <!-- 10000 -->
      <g transform="translate(403.591549 352.118438)scale(0.1 -0.1)">
       <use xlink:href="#DejaVuSans-49"/>
       <use x="63.623047" xlink:href="#DejaVuSans-48"/>
       <use x="127.246094" xlink:href="#DejaVuSans-48"/>
       <use x="190.869141" xlink:href="#DejaVuSans-48"/>
       <use x="254.492188" xlink:href="#DejaVuSans-48"/>
      </g>
     </g>
    </g>
    <g id="xtick_10">
     <g id="line2d_16">
      <g>
       <use style="stroke:#000000;stroke-width:0.8;" x="458.444545" xlink:href="#m34df91ce03" y="337.52"/>
      </g>
     </g>
     <g id="text_16">
      <!-- 20000 -->
      <g transform="translate(442.538295 352.118438)scale(0.1 -0.1)">
       <use xlink:href="#DejaVuSans-50"/>
       <use x="63.623047" xlink:href="#DejaVuSans-48"/>
       <use x="127.246094" xlink:href="#DejaVuSans-48"/>
       <use x="190.869141" xlink:href="#DejaVuSans-48"/>
       <use x="254.492188" xlink:href="#DejaVuSans-48"/>
      </g>
     </g>
    </g>
    <g id="xtick_11">
     <g id="line2d_17">
      <g>
       <use style="stroke:#000000;stroke-width:0.8;" x="497.391291" xlink:href="#m34df91ce03" y="337.52"/>
      </g>
     </g>
     <g id="text_17">
      <!-- 30000 -->
      <g transform="translate(481.485041 352.118438)scale(0.1 -0.1)">
       <use xlink:href="#DejaVuSans-51"/>
       <use x="63.623047" xlink:href="#DejaVuSans-48"/>
       <use x="127.246094" xlink:href="#DejaVuSans-48"/>
       <use x="190.869141" xlink:href="#DejaVuSans-48"/>
       <use x="254.492188" xlink:href="#DejaVuSans-48"/>
      </g>
     </g>
    </g>
    <g id="xtick_12">
     <g id="line2d_18">
      <g>
       <use style="stroke:#000000;stroke-width:0.8;" x="536.338037" xlink:href="#m34df91ce03" y="337.52"/>
      </g>
     </g>
     <g id="text_18">
      <!-- 40000 -->
      <g transform="translate(520.431787 352.118438)scale(0.1 -0.1)">
       <use xlink:href="#DejaVuSans-52"/>
       <use x="63.623047" xlink:href="#DejaVuSans-48"/>
       <use x="127.246094" xlink:href="#DejaVuSans-48"/>
       <use x="190.869141" xlink:href="#DejaVuSans-48"/>
       <use x="254.492188" xlink:href="#DejaVuSans-48"/>
      </g>
     </g>
    </g>
    <g id="xtick_13">
     <g id="line2d_19">
      <g>
       <use style="stroke:#000000;stroke-width:0.8;" x="575.284783" xlink:href="#m34df91ce03" y="337.52"/>
      </g>
     </g>
     <g id="text_19">
      <!-- 50000 -->
      <g transform="translate(559.378533 352.118438)scale(0.1 -0.1)">
       <use xlink:href="#DejaVuSans-53"/>
       <use x="63.623047" xlink:href="#DejaVuSans-48"/>
       <use x="127.246094" xlink:href="#DejaVuSans-48"/>
       <use x="190.869141" xlink:href="#DejaVuSans-48"/>
       <use x="254.492188" xlink:href="#DejaVuSans-48"/>
      </g>
     </g>
    </g>
    <g id="xtick_14">
     <g id="line2d_20">
      <g>
       <use style="stroke:#000000;stroke-width:0.8;" x="614.23153" xlink:href="#m34df91ce03" y="337.52"/>
      </g>
     </g>
     <g id="text_20">
      <!-- 60000 -->
      <g transform="translate(598.32528 352.118438)scale(0.1 -0.1)">
       <use xlink:href="#DejaVuSans-54"/>
       <use x="63.623047" xlink:href="#DejaVuSans-48"/>
       <use x="127.246094" xlink:href="#DejaVuSans-48"/>
       <use x="190.869141" xlink:href="#DejaVuSans-48"/>
       <use x="254.492188" xlink:href="#DejaVuSans-48"/>
      </g>
     </g>
    </g>
    <g id="xtick_15">
     <g id="line2d_21">
      <g>
       <use style="stroke:#000000;stroke-width:0.8;" x="653.178276" xlink:href="#m34df91ce03" y="337.52"/>
      </g>
     </g>
     <g id="text_21">
      <!-- 70000 -->
      <g transform="translate(637.272026 352.118438)scale(0.1 -0.1)">
       <use xlink:href="#DejaVuSans-55"/>
       <use x="63.623047" xlink:href="#DejaVuSans-48"/>
       <use x="127.246094" xlink:href="#DejaVuSans-48"/>
       <use x="190.869141" xlink:href="#DejaVuSans-48"/>
       <use x="254.492188" xlink:href="#DejaVuSans-48"/>
      </g>
     </g>
    </g>
    <g id="xtick_16">
     <g id="line2d_22">
      <g>
       <use style="stroke:#000000;stroke-width:0.8;" x="692.125022" xlink:href="#m34df91ce03" y="337.52"/>
      </g>
     </g>
     <g id="text_22">
      <!-- 80000 -->
      <g transform="translate(676.218772 352.118438)scale(0.1 -0.1)">
       <use xlink:href="#DejaVuSans-56"/>
       <use x="63.623047" xlink:href="#DejaVuSans-48"/>
       <use x="127.246094" xlink:href="#DejaVuSans-48"/>
       <use x="190.869141" xlink:href="#DejaVuSans-48"/>
       <use x="254.492188" xlink:href="#DejaVuSans-48"/>
      </g>
     </g>
    </g>
   </g>
   <g id="matplotlib.axis_4">
    <g id="ytick_6">
     <g id="line2d_23">
      <g>
       <use style="stroke:#000000;stroke-width:0.8;" x="380.59" xlink:href="#m501a1b78f6" y="337.52"/>
      </g>
     </g>
     <g id="text_23">
      <!-- 0 -->
      <g transform="translate(367.2275 341.319219)scale(0.1 -0.1)">
       <use xlink:href="#DejaVuSans-48"/>
      </g>
     </g>
    </g>
    <g id="ytick_7">
     <g id="line2d_24">
      <g>
       <use style="stroke:#000000;stroke-width:0.8;" x="380.59" xlink:href="#m501a1b78f6" y="274.124082"/>
      </g>
     </g>
     <g id="text_24">
      <!-- 2 -->
      <g transform="translate(367.2275 277.9233)scale(0.1 -0.1)">
       <use xlink:href="#DejaVuSans-50"/>
      </g>
     </g>
    </g>
    <g id="ytick_8">
     <g id="line2d_25">
      <g>
       <use style="stroke:#000000;stroke-width:0.8;" x="380.59" xlink:href="#m501a1b78f6" y="210.728163"/>
      </g>
     </g>
     <g id="text_25">
      <!-- 4 -->
      <g transform="translate(367.2275 214.527382)scale(0.1 -0.1)">
       <use xlink:href="#DejaVuSans-52"/>
      </g>
     </g>
    </g>
    <g id="ytick_9">
     <g id="line2d_26">
      <g>
       <use style="stroke:#000000;stroke-width:0.8;" x="380.59" xlink:href="#m501a1b78f6" y="147.332245"/>
      </g>
     </g>
     <g id="text_26">
      <!-- 6 -->
      <g transform="translate(367.2275 151.131464)scale(0.1 -0.1)">
       <use xlink:href="#DejaVuSans-54"/>
      </g>
     </g>
    </g>
    <g id="ytick_10">
     <g id="line2d_27">
      <g>
       <use style="stroke:#000000;stroke-width:0.8;" x="380.59" xlink:href="#m501a1b78f6" y="83.936327"/>
      </g>
     </g>
     <g id="text_27">
      <!-- 8 -->
      <g transform="translate(367.2275 87.735545)scale(0.1 -0.1)">
       <use xlink:href="#DejaVuSans-56"/>
      </g>
     </g>
    </g>
   </g>
   <g id="line2d_28">
    <path clip-path="url(#p4cf98dde04)" d="M 380.979467 334.350204 
L 380.979467 331.180408 
L 381.018414 331.180408 
L 381.018414 328.010612 
L 382.790491 328.010612 
L 382.790491 324.840816 
L 383.160485 324.840816 
L 383.160485 321.67102 
L 383.335746 321.67102 
L 383.335746 318.501224 
L 383.569426 318.501224 
L 383.569426 315.331429 
L 383.666793 315.331429 
L 383.666793 312.161633 
L 383.70574 312.161633 
L 383.70574 308.991837 
L 384.017314 308.991837 
L 384.017314 305.822041 
L 384.601515 305.822041 
L 384.601515 302.652245 
L 385.49729 302.652245 
L 385.49729 299.482449 
L 388.535136 299.482449 
L 388.535136 296.312653 
L 389.684065 296.312653 
L 389.684065 293.142857 
L 389.723012 293.142857 
L 389.723012 289.973061 
L 390.093006 289.973061 
L 390.093006 286.803265 
L 390.482473 286.803265 
L 390.482473 283.633469 
L 390.716154 283.633469 
L 390.716154 280.463673 
L 390.813521 280.463673 
L 390.813521 277.293878 
L 392.449284 277.293878 
L 392.449284 274.124082 
L 392.507704 274.124082 
L 392.507704 270.954286 
L 392.682965 270.954286 
L 392.682965 267.78449 
L 392.936118 267.78449 
L 392.936118 264.614694 
L 395.117136 264.614694 
L 395.117136 261.444898 
L 397.083947 261.444898 
L 397.083947 258.275102 
L 397.746042 258.275102 
L 397.746042 255.105306 
L 398.408136 255.105306 
L 398.408136 251.93551 
L 416.61574 251.93551 
L 416.61574 248.765714 
L 418.796758 248.765714 
L 418.796758 245.595918 
L 430.617095 245.595918 
L 430.617095 242.426122 
L 440.275888 242.426122 
L 440.275888 239.256327 
L 472.309587 239.256327 
L 472.309587 236.086531 
L 473.964824 236.086531 
L 473.964824 232.916735 
L 475.016386 232.916735 
L 475.016386 229.746939 
L 475.230593 229.746939 
L 475.230593 226.577143 
L 482.883628 226.577143 
L 482.883628 223.407347 
L 491.568753 223.407347 
L 491.568753 220.237551 
L 498.734954 220.237551 
L 498.734954 217.067755 
L 512.327368 217.067755 
L 512.327368 213.897959 
L 515.929942 213.897959 
L 515.929942 210.728163 
L 533.748079 210.728163 
L 533.748079 207.558367 
L 549.618878 207.558367 
L 549.618878 204.388571 
L 617.58095 204.388571 
" style="fill:none;stroke:#1f77b4;stroke-linecap:square;stroke-width:1.5;"/>
   </g>
   <g id="patch_8">
    <path d="M 380.59 337.52 
L 380.59 26.88 
" style="fill:none;stroke:#000000;stroke-linecap:square;stroke-linejoin:miter;stroke-width:0.8;"/>
   </g>
   <g id="patch_9">
    <path d="M 711.228401 337.52 
L 711.228401 26.88 
" style="fill:none;stroke:#000000;stroke-linecap:square;stroke-linejoin:miter;stroke-width:0.8;"/>
   </g>
   <g id="patch_10">
    <path d="M 380.59 337.52 
L 711.228401 337.52 
" style="fill:none;stroke:#000000;stroke-linecap:square;stroke-linejoin:miter;stroke-width:0.8;"/>
   </g>
   <g id="patch_11">
    <path d="M 380.59 26.88 
L 711.228401 26.88 
" style="fill:none;stroke:#000000;stroke-linecap:square;stroke-linejoin:miter;stroke-width:0.8;"/>
   </g>
   <g id="text_28">
    <!-- aflfast -->
    <defs>
     <path d="M 44.28125 53.078125 
L 44.28125 44.578125 
Q 40.484375 46.53125 36.375 47.5 
Q 32.28125 48.484375 27.875 48.484375 
Q 21.1875 48.484375 17.84375 46.4375 
Q 14.5 44.390625 14.5 40.28125 
Q 14.5 37.15625 16.890625 35.375 
Q 19.28125 33.59375 26.515625 31.984375 
L 29.59375 31.296875 
Q 39.15625 29.25 43.1875 25.515625 
Q 47.21875 21.78125 47.21875 15.09375 
Q 47.21875 7.46875 41.1875 3.015625 
Q 35.15625 -1.421875 24.609375 -1.421875 
Q 20.21875 -1.421875 15.453125 -0.5625 
Q 10.6875 0.296875 5.421875 2 
L 5.421875 11.28125 
Q 10.40625 8.6875 15.234375 7.390625 
Q 20.0625 6.109375 24.8125 6.109375 
Q 31.15625 6.109375 34.5625 8.28125 
Q 37.984375 10.453125 37.984375 14.40625 
Q 37.984375 18.0625 35.515625 20.015625 
Q 33.0625 21.96875 24.703125 23.78125 
L 21.578125 24.515625 
Q 13.234375 26.265625 9.515625 29.90625 
Q 5.8125 33.546875 5.8125 39.890625 
Q 5.8125 47.609375 11.28125 51.796875 
Q 16.75 56 26.8125 56 
Q 31.78125 56 36.171875 55.265625 
Q 40.578125 54.546875 44.28125 53.078125 
z
" id="DejaVuSans-115"/>
    </defs>
    <g transform="translate(527.186388 20.88)scale(0.12 -0.12)">
     <use xlink:href="#DejaVuSans-97"/>
     <use x="61.279297" xlink:href="#DejaVuSans-102"/>
     <use x="96.484375" xlink:href="#DejaVuSans-108"/>
     <use x="124.267578" xlink:href="#DejaVuSans-102"/>
     <use x="159.472656" xlink:href="#DejaVuSans-97"/>
     <use x="220.751953" xlink:href="#DejaVuSans-115"/>
     <use x="272.851562" xlink:href="#DejaVuSans-116"/>
    </g>
   </g>
  </g>
  <g id="axes_3">
   <g id="patch_12">
    <path d="M 736.99 337.52 
L 1067.628401 337.52 
L 1067.628401 26.88 
L 736.99 26.88 
z
" style="fill:#ffffff;"/>
   </g>
   <g id="PolyCollection_3">
    <defs>
     <path d="M 738.119456 -572.033796 
L 738.119456 -199.265796 
L 738.469976 -297.0873 
L 745.714071 -319.068234 
L 748.674024 -336.20098 
L 750.699255 -350.771476 
L 751.147142 -363.996248 
L 751.341876 -376.774367 
L 751.906604 -390.29883 
L 754.048675 -414.177959 
L 763.804835 -400.403755 
L 766.784261 -389.453551 
L 769.062645 -393.086324 
L 769.160012 -397.420676 
L 770.231048 -402.242453 
L 770.425781 -407.439827 
L 771.10735 -407.823284 
L 773.307841 -409.446363 
L 774.74887 -415.544337 
L 774.885184 -421.813847 
L 775.586225 -424.470765 
L 776.598841 -431.082629 
L 779.188799 -438.089076 
L 781.233504 -441.38383 
L 781.700864 -445.054206 
L 786.549734 -453.188394 
L 790.230202 -457.519813 
L 829.624835 -462.358857 
L 845.164587 -467.977047 
L 857.335445 -477.573878 
L 889.23283 -474.731286 
L 921.694943 -476.147469 
L 958.012784 -478.455803 
L 960.349589 -481.301185 
L 960.349589 -499.204938 
L 960.349589 -499.204938 
L 958.012784 -495.710728 
L 921.694943 -491.679469 
L 889.23283 -486.756061 
L 857.335445 -477.573878 
L 845.164587 -480.831116 
L 829.624835 -480.109714 
L 790.230202 -478.609166 
L 786.549734 -476.600994 
L 781.700864 -478.39559 
L 781.233504 -475.726374 
L 779.188799 -472.681537 
L 776.598841 -473.348391 
L 775.586225 -473.620663 
L 774.885184 -469.937989 
L 774.74887 -469.867908 
L 773.307841 -469.62629 
L 771.10735 -464.909777 
L 770.425781 -458.953643 
L 770.231048 -457.811425 
L 769.160012 -456.293609 
L 769.062645 -454.28837 
L 766.784261 -451.581551 
L 763.804835 -434.291755 
L 754.048675 -414.177959 
L 751.906604 -431.717497 
L 751.341876 -438.902367 
L 751.147142 -445.340895 
L 750.699255 -452.226075 
L 748.674024 -460.45698 
L 745.714071 -471.250133 
L 738.469976 -486.891475 
L 738.119456 -572.033796 
z
" id="md026d2d256" style="stroke:#0000ff;stroke-opacity:0.1;"/>
    </defs>
    <g clip-path="url(#p054f3fbc4f)">
     <use style="fill:#0000ff;fill-opacity:0.1;stroke:#0000ff;stroke-opacity:0.1;" x="0" xlink:href="#md026d2d256" y="720"/>
    </g>
   </g>
   <g id="matplotlib.axis_5">
    <g id="xtick_17">
     <g id="line2d_29">
      <g>
       <use style="stroke:#000000;stroke-width:0.8;" x="775.897799" xlink:href="#m34df91ce03" y="337.52"/>
      </g>
     </g>
     <g id="text_29">
      <!-- 10000 -->
      <g transform="translate(759.991549 352.118438)scale(0.1 -0.1)">
       <use xlink:href="#DejaVuSans-49"/>
       <use x="63.623047" xlink:href="#DejaVuSans-48"/>
       <use x="127.246094" xlink:href="#DejaVuSans-48"/>
       <use x="190.869141" xlink:href="#DejaVuSans-48"/>
       <use x="254.492188" xlink:href="#DejaVuSans-48"/>
      </g>
     </g>
    </g>
    <g id="xtick_18">
     <g id="line2d_30">
      <g>
       <use style="stroke:#000000;stroke-width:0.8;" x="814.844545" xlink:href="#m34df91ce03" y="337.52"/>
      </g>
     </g>
     <g id="text_30">
      <!-- 20000 -->
      <g transform="translate(798.938295 352.118438)scale(0.1 -0.1)">
       <use xlink:href="#DejaVuSans-50"/>
       <use x="63.623047" xlink:href="#DejaVuSans-48"/>
       <use x="127.246094" xlink:href="#DejaVuSans-48"/>
       <use x="190.869141" xlink:href="#DejaVuSans-48"/>
       <use x="254.492188" xlink:href="#DejaVuSans-48"/>
      </g>
     </g>
    </g>
    <g id="xtick_19">
     <g id="line2d_31">
      <g>
       <use style="stroke:#000000;stroke-width:0.8;" x="853.791291" xlink:href="#m34df91ce03" y="337.52"/>
      </g>
     </g>
     <g id="text_31">
      <!-- 30000 -->
      <g transform="translate(837.885041 352.118438)scale(0.1 -0.1)">
       <use xlink:href="#DejaVuSans-51"/>
       <use x="63.623047" xlink:href="#DejaVuSans-48"/>
       <use x="127.246094" xlink:href="#DejaVuSans-48"/>
       <use x="190.869141" xlink:href="#DejaVuSans-48"/>
       <use x="254.492188" xlink:href="#DejaVuSans-48"/>
      </g>
     </g>
    </g>
    <g id="xtick_20">
     <g id="line2d_32">
      <g>
       <use style="stroke:#000000;stroke-width:0.8;" x="892.738037" xlink:href="#m34df91ce03" y="337.52"/>
      </g>
     </g>
     <g id="text_32">
      <!-- 40000 -->
      <g transform="translate(876.831787 352.118438)scale(0.1 -0.1)">
       <use xlink:href="#DejaVuSans-52"/>
       <use x="63.623047" xlink:href="#DejaVuSans-48"/>
       <use x="127.246094" xlink:href="#DejaVuSans-48"/>
       <use x="190.869141" xlink:href="#DejaVuSans-48"/>
       <use x="254.492188" xlink:href="#DejaVuSans-48"/>
      </g>
     </g>
    </g>
    <g id="xtick_21">
     <g id="line2d_33">
      <g>
       <use style="stroke:#000000;stroke-width:0.8;" x="931.684783" xlink:href="#m34df91ce03" y="337.52"/>
      </g>
     </g>
     <g id="text_33">
      <!-- 50000 -->
      <g transform="translate(915.778533 352.118438)scale(0.1 -0.1)">
       <use xlink:href="#DejaVuSans-53"/>
       <use x="63.623047" xlink:href="#DejaVuSans-48"/>
       <use x="127.246094" xlink:href="#DejaVuSans-48"/>
       <use x="190.869141" xlink:href="#DejaVuSans-48"/>
       <use x="254.492188" xlink:href="#DejaVuSans-48"/>
      </g>
     </g>
    </g>
    <g id="xtick_22">
     <g id="line2d_34">
      <g>
       <use style="stroke:#000000;stroke-width:0.8;" x="970.63153" xlink:href="#m34df91ce03" y="337.52"/>
      </g>
     </g>
     <g id="text_34">
      <!-- 60000 -->
      <g transform="translate(954.72528 352.118438)scale(0.1 -0.1)">
       <use xlink:href="#DejaVuSans-54"/>
       <use x="63.623047" xlink:href="#DejaVuSans-48"/>
       <use x="127.246094" xlink:href="#DejaVuSans-48"/>
       <use x="190.869141" xlink:href="#DejaVuSans-48"/>
       <use x="254.492188" xlink:href="#DejaVuSans-48"/>
      </g>
     </g>
    </g>
    <g id="xtick_23">
     <g id="line2d_35">
      <g>
       <use style="stroke:#000000;stroke-width:0.8;" x="1009.578276" xlink:href="#m34df91ce03" y="337.52"/>
      </g>
     </g>
     <g id="text_35">
      <!-- 70000 -->
      <g transform="translate(993.672026 352.118438)scale(0.1 -0.1)">
       <use xlink:href="#DejaVuSans-55"/>
       <use x="63.623047" xlink:href="#DejaVuSans-48"/>
       <use x="127.246094" xlink:href="#DejaVuSans-48"/>
       <use x="190.869141" xlink:href="#DejaVuSans-48"/>
       <use x="254.492188" xlink:href="#DejaVuSans-48"/>
      </g>
     </g>
    </g>
    <g id="xtick_24">
     <g id="line2d_36">
      <g>
       <use style="stroke:#000000;stroke-width:0.8;" x="1048.525022" xlink:href="#m34df91ce03" y="337.52"/>
      </g>
     </g>
     <g id="text_36">
      <!-- 80000 -->
      <g transform="translate(1032.618772 352.118438)scale(0.1 -0.1)">
       <use xlink:href="#DejaVuSans-56"/>
       <use x="63.623047" xlink:href="#DejaVuSans-48"/>
       <use x="127.246094" xlink:href="#DejaVuSans-48"/>
       <use x="190.869141" xlink:href="#DejaVuSans-48"/>
       <use x="254.492188" xlink:href="#DejaVuSans-48"/>
      </g>
     </g>
    </g>
   </g>
   <g id="matplotlib.axis_6">
    <g id="ytick_11">
     <g id="line2d_37">
      <g>
       <use style="stroke:#000000;stroke-width:0.8;" x="736.99" xlink:href="#m501a1b78f6" y="337.52"/>
      </g>
     </g>
     <g id="text_37">
      <!-- 0 -->
      <g transform="translate(723.6275 341.319219)scale(0.1 -0.1)">
       <use xlink:href="#DejaVuSans-48"/>
      </g>
     </g>
    </g>
    <g id="ytick_12">
     <g id="line2d_38">
      <g>
       <use style="stroke:#000000;stroke-width:0.8;" x="736.99" xlink:href="#m501a1b78f6" y="274.124082"/>
      </g>
     </g>
     <g id="text_38">
      <!-- 2 -->
      <g transform="translate(723.6275 277.9233)scale(0.1 -0.1)">
       <use xlink:href="#DejaVuSans-50"/>
      </g>
     </g>
    </g>
    <g id="ytick_13">
     <g id="line2d_39">
      <g>
       <use style="stroke:#000000;stroke-width:0.8;" x="736.99" xlink:href="#m501a1b78f6" y="210.728163"/>
      </g>
     </g>
     <g id="text_39">
      <!-- 4 -->
      <g transform="translate(723.6275 214.527382)scale(0.1 -0.1)">
       <use xlink:href="#DejaVuSans-52"/>
      </g>
     </g>
    </g>
    <g id="ytick_14">
     <g id="line2d_40">
      <g>
       <use style="stroke:#000000;stroke-width:0.8;" x="736.99" xlink:href="#m501a1b78f6" y="147.332245"/>
      </g>
     </g>
     <g id="text_40">
      <!-- 6 -->
      <g transform="translate(723.6275 151.131464)scale(0.1 -0.1)">
       <use xlink:href="#DejaVuSans-54"/>
      </g>
     </g>
    </g>
    <g id="ytick_15">
     <g id="line2d_41">
      <g>
       <use style="stroke:#000000;stroke-width:0.8;" x="736.99" xlink:href="#m501a1b78f6" y="83.936327"/>
      </g>
     </g>
     <g id="text_41">
      <!-- 8 -->
      <g transform="translate(723.6275 87.735545)scale(0.1 -0.1)">
       <use xlink:href="#DejaVuSans-56"/>
      </g>
     </g>
    </g>
   </g>
   <g id="line2d_42">
    <path clip-path="url(#p054f3fbc4f)" d="M 738.119456 334.350204 
L 738.119456 328.010612 
L 738.469976 328.010612 
L 738.469976 324.840816 
L 745.714071 324.840816 
L 745.714071 321.67102 
L 748.674024 321.67102 
L 748.674024 318.501224 
L 750.699255 318.501224 
L 750.699255 315.331429 
L 751.147142 315.331429 
L 751.147142 312.161633 
L 751.341876 312.161633 
L 751.341876 308.991837 
L 751.906604 308.991837 
L 751.906604 305.822041 
L 754.048675 305.822041 
L 754.048675 302.652245 
L 763.804835 302.652245 
L 763.804835 299.482449 
L 766.784261 299.482449 
L 766.784261 296.312653 
L 769.062645 296.312653 
L 769.062645 293.142857 
L 769.160012 293.142857 
L 769.160012 289.973061 
L 770.231048 289.973061 
L 770.231048 286.803265 
L 770.425781 286.803265 
L 770.425781 283.633469 
L 771.10735 283.633469 
L 771.10735 280.463673 
L 773.307841 280.463673 
L 773.307841 277.293878 
L 774.74887 277.293878 
L 774.74887 274.124082 
L 774.885184 274.124082 
L 774.885184 270.954286 
L 775.586225 270.954286 
L 775.586225 267.78449 
L 776.598841 267.78449 
L 776.598841 264.614694 
L 779.188799 264.614694 
L 779.188799 261.444898 
L 781.233504 261.444898 
L 781.233504 258.275102 
L 781.700864 258.275102 
L 781.700864 255.105306 
L 786.549734 255.105306 
L 786.549734 251.93551 
L 790.230202 251.93551 
L 790.230202 248.765714 
L 829.624835 248.765714 
L 829.624835 245.595918 
L 845.164587 245.595918 
L 845.164587 242.426122 
L 857.335445 242.426122 
L 857.335445 239.256327 
L 889.23283 239.256327 
L 889.23283 236.086531 
L 921.694943 236.086531 
L 921.694943 232.916735 
L 958.012784 232.916735 
L 958.012784 229.746939 
L 960.349589 229.746939 
" style="fill:none;stroke:#1f77b4;stroke-linecap:square;stroke-width:1.5;"/>
   </g>
   <g id="patch_13">
    <path d="M 736.99 337.52 
L 736.99 26.88 
" style="fill:none;stroke:#000000;stroke-linecap:square;stroke-linejoin:miter;stroke-width:0.8;"/>
   </g>
   <g id="patch_14">
    <path d="M 1067.628401 337.52 
L 1067.628401 26.88 
" style="fill:none;stroke:#000000;stroke-linecap:square;stroke-linejoin:miter;stroke-width:0.8;"/>
   </g>
   <g id="patch_15">
    <path d="M 736.99 337.52 
L 1067.628401 337.52 
" style="fill:none;stroke:#000000;stroke-linecap:square;stroke-linejoin:miter;stroke-width:0.8;"/>
   </g>
   <g id="patch_16">
    <path d="M 736.99 26.88 
L 1067.628401 26.88 
" style="fill:none;stroke:#000000;stroke-linecap:square;stroke-linejoin:miter;stroke-width:0.8;"/>
   </g>
   <g id="text_42">
    <!-- aflplusplus -->
    <defs>
     <path d="M 8.5 21.578125 
L 8.5 54.6875 
L 17.484375 54.6875 
L 17.484375 21.921875 
Q 17.484375 14.15625 20.5 10.265625 
Q 23.53125 6.390625 29.59375 6.390625 
Q 36.859375 6.390625 41.078125 11.03125 
Q 45.3125 15.671875 45.3125 23.6875 
L 45.3125 54.6875 
L 54.296875 54.6875 
L 54.296875 0 
L 45.3125 0 
L 45.3125 8.40625 
Q 42.046875 3.421875 37.71875 1 
Q 33.40625 -1.421875 27.6875 -1.421875 
Q 18.265625 -1.421875 13.375 4.4375 
Q 8.5 10.296875 8.5 21.578125 
z
M 31.109375 56 
z
" id="DejaVuSans-117"/>
    </defs>
    <g transform="translate(870.045138 20.88)scale(0.12 -0.12)">
     <use xlink:href="#DejaVuSans-97"/>
     <use x="61.279297" xlink:href="#DejaVuSans-102"/>
     <use x="96.484375" xlink:href="#DejaVuSans-108"/>
     <use x="124.267578" xlink:href="#DejaVuSans-112"/>
     <use x="187.744141" xlink:href="#DejaVuSans-108"/>
     <use x="215.527344" xlink:href="#DejaVuSans-117"/>
     <use x="278.90625" xlink:href="#DejaVuSans-115"/>
     <use x="331.005859" xlink:href="#DejaVuSans-112"/>
     <use x="394.482422" xlink:href="#DejaVuSans-108"/>
     <use x="422.265625" xlink:href="#DejaVuSans-117"/>
     <use x="485.644531" xlink:href="#DejaVuSans-115"/>
    </g>
   </g>
  </g>
  <g id="axes_4">
   <g id="patch_17">
    <path d="M 24.19 692.12 
L 354.828401 692.12 
L 354.828401 381.48 
L 24.19 381.48 
z
" style="fill:#ffffff;"/>
   </g>
   <g id="PolyCollection_4">
    <defs>
     <path d="M 24.19 -105.85698 
L 24.19 18.39902 
L 24.209473 -22.174367 
L 24.228947 -59.577959 
L 24.287367 -45.803755 
L 24.345787 -45.208218 
L 24.676834 -47.186865 
L 25.007882 -50.516872 
L 25.280509 -54.717605 
L 25.377876 -59.573997 
L 25.611556 -58.365748 
L 26.156811 -59.10725 
L 27.130479 -65.216859 
L 27.481 -71.62932 
L 27.812047 -73.736381 
L 28.104148 -76.482629 
L 28.357302 -83.489076 
L 28.883083 -86.78383 
L 29.700965 -94.699298 
L 29.817805 -98.588394 
L 33.069858 -98.730664 
L 34.17984 -100.029879 
L 39.457124 -104.807668 
L 42.300237 -109.876145 
L 44.033367 -112.11477 
L 44.617568 -117.664469 
L 46.370172 -120.428317 
L 57.801042 -123.532163 
L 62.085184 -129.947429 
L 70.867675 -133.538103 
L 78.754391 -137.467685 
L 89.347906 -138.522561 
L 100.350362 -142.923335 
L 104.011356 -144.848537 
L 125.373646 -147.234413 
L 152.130061 -152.136 
L 159.413102 -154.929752 
L 207.3176 -157.984872 
L 235.768198 -159.389884 
L 251.054796 -164.731688 
L 303.029228 -168.396295 
L 303.029228 -185.324521 
L 303.029228 -185.324521 
L 251.054796 -182.649537 
L 235.768198 -181.651749 
L 207.3176 -176.717169 
L 159.413102 -173.432697 
L 152.130061 -169.886857 
L 125.373646 -168.448852 
L 104.011356 -164.495136 
L 100.350362 -160.080746 
L 89.347906 -158.141929 
L 78.754391 -152.857213 
L 70.867675 -150.447203 
L 62.085184 -147.698286 
L 57.801042 -147.773959 
L 46.370172 -144.538214 
L 44.617568 -140.962469 
L 44.033367 -140.172577 
L 42.300237 -136.07161 
L 39.457124 -134.800495 
L 34.17984 -133.238692 
L 33.069858 -128.198316 
L 29.817805 -122.000994 
L 29.700965 -119.550498 
L 28.883083 -121.126374 
L 28.357302 -118.081537 
L 28.104148 -118.748391 
L 27.812047 -115.155048 
L 27.481 -110.922517 
L 27.130479 -110.995386 
L 26.156811 -110.765403 
L 25.611556 -105.167313 
L 25.377876 -97.619472 
L 25.280509 -96.136272 
L 25.007882 -93.997414 
L 24.676834 -90.987829 
L 24.345787 -86.626884 
L 24.287367 -79.691755 
L 24.228947 -59.577959 
L 24.209473 -84.302367 
L 24.19 -105.85698 
z
" id="m7a47331e0f" style="stroke:#0000ff;stroke-opacity:0.1;"/>
    </defs>
    <g clip-path="url(#p6b6f0eef32)">
     <use style="fill:#0000ff;fill-opacity:0.1;stroke:#0000ff;stroke-opacity:0.1;" x="0" xlink:href="#m7a47331e0f" y="720"/>
    </g>
   </g>
   <g id="matplotlib.axis_7">
    <g id="xtick_25">
     <g id="line2d_43">
      <g>
       <use style="stroke:#000000;stroke-width:0.8;" x="63.097799" xlink:href="#m34df91ce03" y="692.12"/>
      </g>
     </g>
     <g id="text_43">
      <!-- 10000 -->
      <g transform="translate(47.191549 706.718438)scale(0.1 -0.1)">
       <use xlink:href="#DejaVuSans-49"/>
       <use x="63.623047" xlink:href="#DejaVuSans-48"/>
       <use x="127.246094" xlink:href="#DejaVuSans-48"/>
       <use x="190.869141" xlink:href="#DejaVuSans-48"/>
       <use x="254.492188" xlink:href="#DejaVuSans-48"/>
      </g>
     </g>
    </g>
    <g id="xtick_26">
     <g id="line2d_44">
      <g>
       <use style="stroke:#000000;stroke-width:0.8;" x="102.044545" xlink:href="#m34df91ce03" y="692.12"/>
      </g>
     </g>
     <g id="text_44">
      <!-- 20000 -->
      <g transform="translate(86.138295 706.718438)scale(0.1 -0.1)">
       <use xlink:href="#DejaVuSans-50"/>
       <use x="63.623047" xlink:href="#DejaVuSans-48"/>
       <use x="127.246094" xlink:href="#DejaVuSans-48"/>
       <use x="190.869141" xlink:href="#DejaVuSans-48"/>
       <use x="254.492188" xlink:href="#DejaVuSans-48"/>
      </g>
     </g>
    </g>
    <g id="xtick_27">
     <g id="line2d_45">
      <g>
       <use style="stroke:#000000;stroke-width:0.8;" x="140.991291" xlink:href="#m34df91ce03" y="692.12"/>
      </g>
     </g>
     <g id="text_45">
      <!-- 30000 -->
      <g transform="translate(125.085041 706.718438)scale(0.1 -0.1)">
       <use xlink:href="#DejaVuSans-51"/>
       <use x="63.623047" xlink:href="#DejaVuSans-48"/>
       <use x="127.246094" xlink:href="#DejaVuSans-48"/>
       <use x="190.869141" xlink:href="#DejaVuSans-48"/>
       <use x="254.492188" xlink:href="#DejaVuSans-48"/>
      </g>
     </g>
    </g>
    <g id="xtick_28">
     <g id="line2d_46">
      <g>
       <use style="stroke:#000000;stroke-width:0.8;" x="179.938037" xlink:href="#m34df91ce03" y="692.12"/>
      </g>
     </g>
     <g id="text_46">
      <!-- 40000 -->
      <g transform="translate(164.031787 706.718438)scale(0.1 -0.1)">
       <use xlink:href="#DejaVuSans-52"/>
       <use x="63.623047" xlink:href="#DejaVuSans-48"/>
       <use x="127.246094" xlink:href="#DejaVuSans-48"/>
       <use x="190.869141" xlink:href="#DejaVuSans-48"/>
       <use x="254.492188" xlink:href="#DejaVuSans-48"/>
      </g>
     </g>
    </g>
    <g id="xtick_29">
     <g id="line2d_47">
      <g>
       <use style="stroke:#000000;stroke-width:0.8;" x="218.884783" xlink:href="#m34df91ce03" y="692.12"/>
      </g>
     </g>
     <g id="text_47">
      <!-- 50000 -->
      <g transform="translate(202.978533 706.718438)scale(0.1 -0.1)">
       <use xlink:href="#DejaVuSans-53"/>
       <use x="63.623047" xlink:href="#DejaVuSans-48"/>
       <use x="127.246094" xlink:href="#DejaVuSans-48"/>
       <use x="190.869141" xlink:href="#DejaVuSans-48"/>
       <use x="254.492188" xlink:href="#DejaVuSans-48"/>
      </g>
     </g>
    </g>
    <g id="xtick_30">
     <g id="line2d_48">
      <g>
       <use style="stroke:#000000;stroke-width:0.8;" x="257.83153" xlink:href="#m34df91ce03" y="692.12"/>
      </g>
     </g>
     <g id="text_48">
      <!-- 60000 -->
      <g transform="translate(241.92528 706.718438)scale(0.1 -0.1)">
       <use xlink:href="#DejaVuSans-54"/>
       <use x="63.623047" xlink:href="#DejaVuSans-48"/>
       <use x="127.246094" xlink:href="#DejaVuSans-48"/>
       <use x="190.869141" xlink:href="#DejaVuSans-48"/>
       <use x="254.492188" xlink:href="#DejaVuSans-48"/>
      </g>
     </g>
    </g>
    <g id="xtick_31">
     <g id="line2d_49">
      <g>
       <use style="stroke:#000000;stroke-width:0.8;" x="296.778276" xlink:href="#m34df91ce03" y="692.12"/>
      </g>
     </g>
     <g id="text_49">
      <!-- 70000 -->
      <g transform="translate(280.872026 706.718438)scale(0.1 -0.1)">
       <use xlink:href="#DejaVuSans-55"/>
       <use x="63.623047" xlink:href="#DejaVuSans-48"/>
       <use x="127.246094" xlink:href="#DejaVuSans-48"/>
       <use x="190.869141" xlink:href="#DejaVuSans-48"/>
       <use x="254.492188" xlink:href="#DejaVuSans-48"/>
      </g>
     </g>
    </g>
    <g id="xtick_32">
     <g id="line2d_50">
      <g>
       <use style="stroke:#000000;stroke-width:0.8;" x="335.725022" xlink:href="#m34df91ce03" y="692.12"/>
      </g>
     </g>
     <g id="text_50">
      <!-- 80000 -->
      <g transform="translate(319.818772 706.718438)scale(0.1 -0.1)">
       <use xlink:href="#DejaVuSans-56"/>
       <use x="63.623047" xlink:href="#DejaVuSans-48"/>
       <use x="127.246094" xlink:href="#DejaVuSans-48"/>
       <use x="190.869141" xlink:href="#DejaVuSans-48"/>
       <use x="254.492188" xlink:href="#DejaVuSans-48"/>
      </g>
     </g>
    </g>
   </g>
   <g id="matplotlib.axis_8">
    <g id="ytick_16">
     <g id="line2d_51">
      <g>
       <use style="stroke:#000000;stroke-width:0.8;" x="24.19" xlink:href="#m501a1b78f6" y="692.12"/>
      </g>
     </g>
     <g id="text_51">
      <!-- 0 -->
      <g transform="translate(10.8275 695.919219)scale(0.1 -0.1)">
       <use xlink:href="#DejaVuSans-48"/>
      </g>
     </g>
    </g>
    <g id="ytick_17">
     <g id="line2d_52">
      <g>
       <use style="stroke:#000000;stroke-width:0.8;" x="24.19" xlink:href="#m501a1b78f6" y="628.724082"/>
      </g>
     </g>
     <g id="text_52">
      <!-- 2 -->
      <g transform="translate(10.8275 632.5233)scale(0.1 -0.1)">
       <use xlink:href="#DejaVuSans-50"/>
      </g>
     </g>
    </g>
    <g id="ytick_18">
     <g id="line2d_53">
      <g>
       <use style="stroke:#000000;stroke-width:0.8;" x="24.19" xlink:href="#m501a1b78f6" y="565.328163"/>
      </g>
     </g>
     <g id="text_53">
      <!-- 4 -->
      <g transform="translate(10.8275 569.127382)scale(0.1 -0.1)">
       <use xlink:href="#DejaVuSans-52"/>
      </g>
     </g>
    </g>
    <g id="ytick_19">
     <g id="line2d_54">
      <g>
       <use style="stroke:#000000;stroke-width:0.8;" x="24.19" xlink:href="#m501a1b78f6" y="501.932245"/>
      </g>
     </g>
     <g id="text_54">
      <!-- 6 -->
      <g transform="translate(10.8275 505.731464)scale(0.1 -0.1)">
       <use xlink:href="#DejaVuSans-54"/>
      </g>
     </g>
    </g>
    <g id="ytick_20">
     <g id="line2d_55">
      <g>
       <use style="stroke:#000000;stroke-width:0.8;" x="24.19" xlink:href="#m501a1b78f6" y="438.536327"/>
      </g>
     </g>
     <g id="text_55">
      <!-- 8 -->
      <g transform="translate(10.8275 442.335545)scale(0.1 -0.1)">
       <use xlink:href="#DejaVuSans-56"/>
      </g>
     </g>
    </g>
   </g>
   <g id="line2d_56">
    <path clip-path="url(#p6b6f0eef32)" d="M 24.19 676.27102 
L 24.19 666.761633 
L 24.209473 666.761633 
L 24.209473 660.422041 
L 24.228947 660.422041 
L 24.228947 657.252245 
L 24.287367 657.252245 
L 24.287367 654.082449 
L 24.345787 654.082449 
L 24.345787 650.912653 
L 24.676834 650.912653 
L 24.676834 647.742857 
L 25.007882 647.742857 
L 25.007882 644.573061 
L 25.280509 644.573061 
L 25.280509 641.403265 
L 25.377876 641.403265 
L 25.377876 638.233469 
L 25.611556 638.233469 
L 25.611556 635.063673 
L 26.156811 635.063673 
L 26.156811 631.893878 
L 27.130479 631.893878 
L 27.130479 628.724082 
L 27.481 628.724082 
L 27.481 625.554286 
L 27.812047 625.554286 
L 27.812047 622.38449 
L 28.104148 622.38449 
L 28.104148 619.214694 
L 28.357302 619.214694 
L 28.357302 616.044898 
L 28.883083 616.044898 
L 28.883083 612.875102 
L 29.700965 612.875102 
L 29.700965 609.705306 
L 29.817805 609.705306 
L 29.817805 606.53551 
L 33.069858 606.53551 
L 33.069858 603.365714 
L 34.17984 603.365714 
L 34.17984 600.195918 
L 39.457124 600.195918 
L 39.457124 597.026122 
L 42.300237 597.026122 
L 42.300237 593.856327 
L 44.033367 593.856327 
L 44.033367 590.686531 
L 44.617568 590.686531 
L 44.617568 587.516735 
L 46.370172 587.516735 
L 46.370172 584.346939 
L 57.801042 584.346939 
L 57.801042 581.177143 
L 62.085184 581.177143 
L 62.085184 578.007347 
L 70.867675 578.007347 
L 70.867675 574.837551 
L 78.754391 574.837551 
L 78.754391 571.667755 
L 89.347906 571.667755 
L 89.347906 568.497959 
L 100.350362 568.497959 
L 100.350362 565.328163 
L 104.011356 565.328163 
L 104.011356 562.158367 
L 125.373646 562.158367 
L 125.373646 558.988571 
L 152.130061 558.988571 
L 152.130061 555.818776 
L 159.413102 555.818776 
L 159.413102 552.64898 
L 207.3176 552.64898 
L 207.3176 549.479184 
L 235.768198 549.479184 
L 235.768198 546.309388 
L 251.054796 546.309388 
L 251.054796 543.139592 
L 303.029228 543.139592 
" style="fill:none;stroke:#1f77b4;stroke-linecap:square;stroke-width:1.5;"/>
   </g>
   <g id="patch_18">
    <path d="M 24.19 692.12 
L 24.19 381.48 
" style="fill:none;stroke:#000000;stroke-linecap:square;stroke-linejoin:miter;stroke-width:0.8;"/>
   </g>
   <g id="patch_19">
    <path d="M 354.828401 692.12 
L 354.828401 381.48 
" style="fill:none;stroke:#000000;stroke-linecap:square;stroke-linejoin:miter;stroke-width:0.8;"/>
   </g>
   <g id="patch_20">
    <path d="M 24.19 692.12 
L 354.828401 692.12 
" style="fill:none;stroke:#000000;stroke-linecap:square;stroke-linejoin:miter;stroke-width:0.8;"/>
   </g>
   <g id="patch_21">
    <path d="M 24.19 381.48 
L 354.828401 381.48 
" style="fill:none;stroke:#000000;stroke-linecap:square;stroke-linejoin:miter;stroke-width:0.8;"/>
   </g>
   <g id="text_56">
    <!-- honggfuzz -->
    <defs>
     <path d="M 54.890625 33.015625 
L 54.890625 0 
L 45.90625 0 
L 45.90625 32.71875 
Q 45.90625 40.484375 42.875 44.328125 
Q 39.84375 48.1875 33.796875 48.1875 
Q 26.515625 48.1875 22.3125 43.546875 
Q 18.109375 38.921875 18.109375 30.90625 
L 18.109375 0 
L 9.078125 0 
L 9.078125 75.984375 
L 18.109375 75.984375 
L 18.109375 46.1875 
Q 21.34375 51.125 25.703125 53.5625 
Q 30.078125 56 35.796875 56 
Q 45.21875 56 50.046875 50.171875 
Q 54.890625 44.34375 54.890625 33.015625 
z
" id="DejaVuSans-104"/>
     <path d="M 54.890625 33.015625 
L 54.890625 0 
L 45.90625 0 
L 45.90625 32.71875 
Q 45.90625 40.484375 42.875 44.328125 
Q 39.84375 48.1875 33.796875 48.1875 
Q 26.515625 48.1875 22.3125 43.546875 
Q 18.109375 38.921875 18.109375 30.90625 
L 18.109375 0 
L 9.078125 0 
L 9.078125 54.6875 
L 18.109375 54.6875 
L 18.109375 46.1875 
Q 21.34375 51.125 25.703125 53.5625 
Q 30.078125 56 35.796875 56 
Q 45.21875 56 50.046875 50.171875 
Q 54.890625 44.34375 54.890625 33.015625 
z
" id="DejaVuSans-110"/>
     <path d="M 45.40625 27.984375 
Q 45.40625 37.75 41.375 43.109375 
Q 37.359375 48.484375 30.078125 48.484375 
Q 22.859375 48.484375 18.828125 43.109375 
Q 14.796875 37.75 14.796875 27.984375 
Q 14.796875 18.265625 18.828125 12.890625 
Q 22.859375 7.515625 30.078125 7.515625 
Q 37.359375 7.515625 41.375 12.890625 
Q 45.40625 18.265625 45.40625 27.984375 
z
M 54.390625 6.78125 
Q 54.390625 -7.171875 48.1875 -13.984375 
Q 42 -20.796875 29.203125 -20.796875 
Q 24.46875 -20.796875 20.265625 -20.09375 
Q 16.0625 -19.390625 12.109375 -17.921875 
L 12.109375 -9.1875 
Q 16.0625 -11.328125 19.921875 -12.34375 
Q 23.78125 -13.375 27.78125 -13.375 
Q 36.625 -13.375 41.015625 -8.765625 
Q 45.40625 -4.15625 45.40625 5.171875 
L 45.40625 9.625 
Q 42.625 4.78125 38.28125 2.390625 
Q 33.9375 0 27.875 0 
Q 17.828125 0 11.671875 7.65625 
Q 5.515625 15.328125 5.515625 27.984375 
Q 5.515625 40.671875 11.671875 48.328125 
Q 17.828125 56 27.875 56 
Q 33.9375 56 38.28125 53.609375 
Q 42.625 51.21875 45.40625 46.390625 
L 45.40625 54.6875 
L 54.390625 54.6875 
z
" id="DejaVuSans-103"/>
     <path d="M 5.515625 54.6875 
L 48.1875 54.6875 
L 48.1875 46.484375 
L 14.40625 7.171875 
L 48.1875 7.171875 
L 48.1875 0 
L 4.296875 0 
L 4.296875 8.203125 
L 38.09375 47.515625 
L 5.515625 47.515625 
z
" id="DejaVuSans-122"/>
    </defs>
    <g transform="translate(158.402013 375.48)scale(0.12 -0.12)">
     <use xlink:href="#DejaVuSans-104"/>
     <use x="63.378906" xlink:href="#DejaVuSans-111"/>
     <use x="124.560547" xlink:href="#DejaVuSans-110"/>
     <use x="187.939453" xlink:href="#DejaVuSans-103"/>
     <use x="251.416016" xlink:href="#DejaVuSans-103"/>
     <use x="314.892578" xlink:href="#DejaVuSans-102"/>
     <use x="350.097656" xlink:href="#DejaVuSans-117"/>
     <use x="413.476562" xlink:href="#DejaVuSans-122"/>
     <use x="465.966797" xlink:href="#DejaVuSans-122"/>
    </g>
   </g>
  </g>
  <g id="axes_5">
   <g id="patch_22">
    <path d="M 380.59 692.12 
L 711.228401 692.12 
L 711.228401 381.48 
L 380.59 381.48 
z
" style="fill:#ffffff;"/>
   </g>
   <g id="PolyCollection_5">
    <defs>
     <path d="M 381.154728 -217.433796 
L 381.154728 155.334204 
L 382.401024 90.036408 
L 382.459444 57.5127 
L 382.887858 35.531766 
L 382.965752 18.39902 
L 383.160485 3.828524 
L 383.413639 -9.396248 
L 383.472059 -22.174367 
L 383.569426 -35.69883 
L 385.010456 -31.793473 
L 385.166243 -32.332344 
L 385.205189 -34.853551 
L 385.399923 -47.186865 
L 385.67255 -50.516872 
L 386.451485 -54.717605 
L 388.067775 -59.573997 
L 388.476716 -65.019103 
L 391.183515 -71.130104 
L 395.584497 -70.4972 
L 404.386462 -77.383675 
L 407.502202 -85.570286 
L 409.371645 -86.31951 
L 410.501101 -88.406773 
L 431.064983 -91.273277 
L 431.824444 -94.699298 
L 436.926468 -98.588394 
L 441.794811 -102.919813 
L 453.089368 -107.758857 
L 461.852386 -108.267202 
L 470.440143 -109.876145 
L 470.53751 -112.11477 
L 473.361149 -114.784614 
L 479.767889 -115.539265 
L 479.884729 -115.305175 
L 486.99251 -120.633641 
L 489.270895 -124.393104 
L 498.053386 -130.050233 
L 503.836978 -132.313098 
L 513.106303 -136.473467 
L 519.649357 -140.779594 
L 521.713534 -145.254464 
L 532.462836 -148.11573 
L 532.988617 -151.17769 
L 535.325422 -156.05502 
L 601.145423 -159.389884 
L 620.98879 -161.312079 
L 695.104448 -163.575756 
L 708.618969 -164.935813 
L 708.618969 -195.124595 
L 708.618969 -195.124595 
L 695.104448 -190.145061 
L 620.98879 -186.069145 
L 601.145423 -181.651749 
L 535.325422 -178.64702 
L 532.988617 -177.184759 
L 532.462836 -173.907127 
L 521.713534 -170.428802 
L 519.649357 -168.56408 
L 513.106303 -166.530615 
L 503.836978 -164.351392 
L 498.053386 -160.274665 
L 489.270895 -159.592202 
L 486.99251 -157.012073 
L 479.884729 -156.000947 
L 479.767889 -149.427265 
L 473.361149 -143.842325 
L 470.53751 -140.172577 
L 470.440143 -136.07161 
L 461.852386 -131.340962 
L 453.089368 -125.509714 
L 441.794811 -124.009166 
L 436.926468 -122.000994 
L 431.824444 -119.550498 
L 431.064983 -116.636927 
L 410.501101 -113.163839 
L 409.371645 -108.91151 
L 407.502202 -103.321143 
L 404.386462 -105.168161 
L 395.584497 -105.715045 
L 391.183515 -98.742549 
L 388.476716 -98.513958 
L 388.067775 -97.619472 
L 386.451485 -96.136272 
L 385.67255 -93.997414 
L 385.399923 -90.987829 
L 385.205189 -96.981551 
L 385.166243 -93.163166 
L 385.010456 -87.362445 
L 383.569426 -77.117497 
L 383.472059 -84.302367 
L 383.413639 -90.740895 
L 383.160485 -97.626075 
L 382.965752 -105.85698 
L 382.887858 -116.650133 
L 382.459444 -132.291475 
L 382.401024 -158.475592 
L 381.154728 -217.433796 
z
" id="m038cee0dbe" style="stroke:#0000ff;stroke-opacity:0.1;"/>
    </defs>
    <g clip-path="url(#p3f20ca2521)">
     <use style="fill:#0000ff;fill-opacity:0.1;stroke:#0000ff;stroke-opacity:0.1;" x="0" xlink:href="#m038cee0dbe" y="720"/>
    </g>
   </g>
   <g id="matplotlib.axis_9">
    <g id="xtick_33">
     <g id="line2d_57">
      <g>
       <use style="stroke:#000000;stroke-width:0.8;" x="419.497799" xlink:href="#m34df91ce03" y="692.12"/>
      </g>
     </g>
     <g id="text_57">
      <!-- 10000 -->
      <g transform="translate(403.591549 706.718438)scale(0.1 -0.1)">
       <use xlink:href="#DejaVuSans-49"/>
       <use x="63.623047" xlink:href="#DejaVuSans-48"/>
       <use x="127.246094" xlink:href="#DejaVuSans-48"/>
       <use x="190.869141" xlink:href="#DejaVuSans-48"/>
       <use x="254.492188" xlink:href="#DejaVuSans-48"/>
      </g>
     </g>
    </g>
    <g id="xtick_34">
     <g id="line2d_58">
      <g>
       <use style="stroke:#000000;stroke-width:0.8;" x="458.444545" xlink:href="#m34df91ce03" y="692.12"/>
      </g>
     </g>
     <g id="text_58">
      <!-- 20000 -->
      <g transform="translate(442.538295 706.718438)scale(0.1 -0.1)">
       <use xlink:href="#DejaVuSans-50"/>
       <use x="63.623047" xlink:href="#DejaVuSans-48"/>
       <use x="127.246094" xlink:href="#DejaVuSans-48"/>
       <use x="190.869141" xlink:href="#DejaVuSans-48"/>
       <use x="254.492188" xlink:href="#DejaVuSans-48"/>
      </g>
     </g>
    </g>
    <g id="xtick_35">
     <g id="line2d_59">
      <g>
       <use style="stroke:#000000;stroke-width:0.8;" x="497.391291" xlink:href="#m34df91ce03" y="692.12"/>
      </g>
     </g>
     <g id="text_59">
      <!-- 30000 -->
      <g transform="translate(481.485041 706.718438)scale(0.1 -0.1)">
       <use xlink:href="#DejaVuSans-51"/>
       <use x="63.623047" xlink:href="#DejaVuSans-48"/>
       <use x="127.246094" xlink:href="#DejaVuSans-48"/>
       <use x="190.869141" xlink:href="#DejaVuSans-48"/>
       <use x="254.492188" xlink:href="#DejaVuSans-48"/>
      </g>
     </g>
    </g>
    <g id="xtick_36">
     <g id="line2d_60">
      <g>
       <use style="stroke:#000000;stroke-width:0.8;" x="536.338037" xlink:href="#m34df91ce03" y="692.12"/>
      </g>
     </g>
     <g id="text_60">
      <!-- 40000 -->
      <g transform="translate(520.431787 706.718438)scale(0.1 -0.1)">
       <use xlink:href="#DejaVuSans-52"/>
       <use x="63.623047" xlink:href="#DejaVuSans-48"/>
       <use x="127.246094" xlink:href="#DejaVuSans-48"/>
       <use x="190.869141" xlink:href="#DejaVuSans-48"/>
       <use x="254.492188" xlink:href="#DejaVuSans-48"/>
      </g>
     </g>
    </g>
    <g id="xtick_37">
     <g id="line2d_61">
      <g>
       <use style="stroke:#000000;stroke-width:0.8;" x="575.284783" xlink:href="#m34df91ce03" y="692.12"/>
      </g>
     </g>
     <g id="text_61">
      <!-- 50000 -->
      <g transform="translate(559.378533 706.718438)scale(0.1 -0.1)">
       <use xlink:href="#DejaVuSans-53"/>
       <use x="63.623047" xlink:href="#DejaVuSans-48"/>
       <use x="127.246094" xlink:href="#DejaVuSans-48"/>
       <use x="190.869141" xlink:href="#DejaVuSans-48"/>
       <use x="254.492188" xlink:href="#DejaVuSans-48"/>
      </g>
     </g>
    </g>
    <g id="xtick_38">
     <g id="line2d_62">
      <g>
       <use style="stroke:#000000;stroke-width:0.8;" x="614.23153" xlink:href="#m34df91ce03" y="692.12"/>
      </g>
     </g>
     <g id="text_62">
      <!-- 60000 -->
      <g transform="translate(598.32528 706.718438)scale(0.1 -0.1)">
       <use xlink:href="#DejaVuSans-54"/>
       <use x="63.623047" xlink:href="#DejaVuSans-48"/>
       <use x="127.246094" xlink:href="#DejaVuSans-48"/>
       <use x="190.869141" xlink:href="#DejaVuSans-48"/>
       <use x="254.492188" xlink:href="#DejaVuSans-48"/>
      </g>
     </g>
    </g>
    <g id="xtick_39">
     <g id="line2d_63">
      <g>
       <use style="stroke:#000000;stroke-width:0.8;" x="653.178276" xlink:href="#m34df91ce03" y="692.12"/>
      </g>
     </g>
     <g id="text_63">
      <!-- 70000 -->
      <g transform="translate(637.272026 706.718438)scale(0.1 -0.1)">
       <use xlink:href="#DejaVuSans-55"/>
       <use x="63.623047" xlink:href="#DejaVuSans-48"/>
       <use x="127.246094" xlink:href="#DejaVuSans-48"/>
       <use x="190.869141" xlink:href="#DejaVuSans-48"/>
       <use x="254.492188" xlink:href="#DejaVuSans-48"/>
      </g>
     </g>
    </g>
    <g id="xtick_40">
     <g id="line2d_64">
      <g>
       <use style="stroke:#000000;stroke-width:0.8;" x="692.125022" xlink:href="#m34df91ce03" y="692.12"/>
      </g>
     </g>
     <g id="text_64">
      <!-- 80000 -->
      <g transform="translate(676.218772 706.718438)scale(0.1 -0.1)">
       <use xlink:href="#DejaVuSans-56"/>
       <use x="63.623047" xlink:href="#DejaVuSans-48"/>
       <use x="127.246094" xlink:href="#DejaVuSans-48"/>
       <use x="190.869141" xlink:href="#DejaVuSans-48"/>
       <use x="254.492188" xlink:href="#DejaVuSans-48"/>
      </g>
     </g>
    </g>
   </g>
   <g id="matplotlib.axis_10">
    <g id="ytick_21">
     <g id="line2d_65">
      <g>
       <use style="stroke:#000000;stroke-width:0.8;" x="380.59" xlink:href="#m501a1b78f6" y="692.12"/>
      </g>
     </g>
     <g id="text_65">
      <!-- 0 -->
      <g transform="translate(367.2275 695.919219)scale(0.1 -0.1)">
       <use xlink:href="#DejaVuSans-48"/>
      </g>
     </g>
    </g>
    <g id="ytick_22">
     <g id="line2d_66">
      <g>
       <use style="stroke:#000000;stroke-width:0.8;" x="380.59" xlink:href="#m501a1b78f6" y="628.724082"/>
      </g>
     </g>
     <g id="text_66">
      <!-- 2 -->
      <g transform="translate(367.2275 632.5233)scale(0.1 -0.1)">
       <use xlink:href="#DejaVuSans-50"/>
      </g>
     </g>
    </g>
    <g id="ytick_23">
     <g id="line2d_67">
      <g>
       <use style="stroke:#000000;stroke-width:0.8;" x="380.59" xlink:href="#m501a1b78f6" y="565.328163"/>
      </g>
     </g>
     <g id="text_67">
      <!-- 4 -->
      <g transform="translate(367.2275 569.127382)scale(0.1 -0.1)">
       <use xlink:href="#DejaVuSans-52"/>
      </g>
     </g>
    </g>
    <g id="ytick_24">
     <g id="line2d_68">
      <g>
       <use style="stroke:#000000;stroke-width:0.8;" x="380.59" xlink:href="#m501a1b78f6" y="501.932245"/>
      </g>
     </g>
     <g id="text_68">
      <!-- 6 -->
      <g transform="translate(367.2275 505.731464)scale(0.1 -0.1)">
       <use xlink:href="#DejaVuSans-54"/>
      </g>
     </g>
    </g>
    <g id="ytick_25">
     <g id="line2d_69">
      <g>
       <use style="stroke:#000000;stroke-width:0.8;" x="380.59" xlink:href="#m501a1b78f6" y="438.536327"/>
      </g>
     </g>
     <g id="text_69">
      <!-- 8 -->
      <g transform="translate(367.2275 442.335545)scale(0.1 -0.1)">
       <use xlink:href="#DejaVuSans-56"/>
      </g>
     </g>
    </g>
   </g>
   <g id="line2d_70">
    <path clip-path="url(#p3f20ca2521)" d="M 381.154728 688.950204 
L 381.154728 685.780408 
L 382.401024 685.780408 
L 382.401024 682.610612 
L 382.459444 682.610612 
L 382.459444 679.440816 
L 382.887858 679.440816 
L 382.887858 676.27102 
L 382.965752 676.27102 
L 382.965752 673.101224 
L 383.160485 673.101224 
L 383.160485 669.931429 
L 383.413639 669.931429 
L 383.413639 666.761633 
L 383.472059 666.761633 
L 383.472059 663.591837 
L 383.569426 663.591837 
L 383.569426 660.422041 
L 385.010456 660.422041 
L 385.010456 657.252245 
L 385.166243 657.252245 
L 385.166243 654.082449 
L 385.205189 654.082449 
L 385.205189 650.912653 
L 385.399923 650.912653 
L 385.399923 647.742857 
L 385.67255 647.742857 
L 385.67255 644.573061 
L 386.451485 644.573061 
L 386.451485 641.403265 
L 388.067775 641.403265 
L 388.067775 638.233469 
L 388.476716 638.233469 
L 388.476716 635.063673 
L 391.183515 635.063673 
L 391.183515 631.893878 
L 395.584497 631.893878 
L 395.584497 628.724082 
L 404.386462 628.724082 
L 404.386462 625.554286 
L 407.502202 625.554286 
L 407.502202 622.38449 
L 409.371645 622.38449 
L 409.371645 619.214694 
L 410.501101 619.214694 
L 410.501101 616.044898 
L 431.064983 616.044898 
L 431.064983 612.875102 
L 431.824444 612.875102 
L 431.824444 609.705306 
L 436.926468 609.705306 
L 436.926468 606.53551 
L 441.794811 606.53551 
L 441.794811 603.365714 
L 453.089368 603.365714 
L 453.089368 600.195918 
L 461.852386 600.195918 
L 461.852386 597.026122 
L 470.440143 597.026122 
L 470.440143 593.856327 
L 470.53751 593.856327 
L 470.53751 590.686531 
L 473.361149 590.686531 
L 473.361149 587.516735 
L 479.767889 587.516735 
L 479.767889 584.346939 
L 479.884729 584.346939 
L 479.884729 581.177143 
L 486.99251 581.177143 
L 486.99251 578.007347 
L 489.270895 578.007347 
L 489.270895 574.837551 
L 498.053386 574.837551 
L 498.053386 571.667755 
L 503.836978 571.667755 
L 503.836978 568.497959 
L 513.106303 568.497959 
L 513.106303 565.328163 
L 519.649357 565.328163 
L 519.649357 562.158367 
L 521.713534 562.158367 
L 521.713534 558.988571 
L 532.462836 558.988571 
L 532.462836 555.818776 
L 532.988617 555.818776 
L 532.988617 552.64898 
L 535.325422 552.64898 
L 535.325422 549.479184 
L 601.145423 549.479184 
L 601.145423 546.309388 
L 620.98879 546.309388 
L 620.98879 543.139592 
L 695.104448 543.139592 
L 695.104448 539.969796 
L 708.618969 539.969796 
" style="fill:none;stroke:#1f77b4;stroke-linecap:square;stroke-width:1.5;"/>
   </g>
   <g id="patch_23">
    <path d="M 380.59 692.12 
L 380.59 381.48 
" style="fill:none;stroke:#000000;stroke-linecap:square;stroke-linejoin:miter;stroke-width:0.8;"/>
   </g>
   <g id="patch_24">
    <path d="M 711.228401 692.12 
L 711.228401 381.48 
" style="fill:none;stroke:#000000;stroke-linecap:square;stroke-linejoin:miter;stroke-width:0.8;"/>
   </g>
   <g id="patch_25">
    <path d="M 380.59 692.12 
L 711.228401 692.12 
" style="fill:none;stroke:#000000;stroke-linecap:square;stroke-linejoin:miter;stroke-width:0.8;"/>
   </g>
   <g id="patch_26">
    <path d="M 380.59 381.48 
L 711.228401 381.48 
" style="fill:none;stroke:#000000;stroke-linecap:square;stroke-linejoin:miter;stroke-width:0.8;"/>
   </g>
   <g id="text_70">
    <!-- fairfuzz -->
    <defs>
     <path d="M 9.421875 54.6875 
L 18.40625 54.6875 
L 18.40625 0 
L 9.421875 0 
z
M 9.421875 75.984375 
L 18.40625 75.984375 
L 18.40625 64.59375 
L 9.421875 64.59375 
z
" id="DejaVuSans-105"/>
     <path d="M 41.109375 46.296875 
Q 39.59375 47.171875 37.8125 47.578125 
Q 36.03125 48 33.890625 48 
Q 26.265625 48 22.1875 43.046875 
Q 18.109375 38.09375 18.109375 28.8125 
L 18.109375 0 
L 9.078125 0 
L 9.078125 54.6875 
L 18.109375 54.6875 
L 18.109375 46.1875 
Q 20.953125 51.171875 25.484375 53.578125 
Q 30.03125 56 36.53125 56 
Q 37.453125 56 38.578125 55.875 
Q 39.703125 55.765625 41.0625 55.515625 
z
" id="DejaVuSans-114"/>
    </defs>
    <g transform="translate(523.773888 375.48)scale(0.12 -0.12)">
     <use xlink:href="#DejaVuSans-102"/>
     <use x="35.205078" xlink:href="#DejaVuSans-97"/>
     <use x="96.484375" xlink:href="#DejaVuSans-105"/>
     <use x="124.267578" xlink:href="#DejaVuSans-114"/>
     <use x="165.380859" xlink:href="#DejaVuSans-102"/>
     <use x="200.585938" xlink:href="#DejaVuSans-117"/>
     <use x="263.964844" xlink:href="#DejaVuSans-122"/>
     <use x="316.455078" xlink:href="#DejaVuSans-122"/>
    </g>
   </g>
  </g>
  <g id="axes_6">
   <g id="patch_27">
    <path d="M 736.99 692.12 
L 1067.628401 692.12 
L 1067.628401 381.48 
L 736.99 381.48 
z
" style="fill:#ffffff;"/>
   </g>
   <g id="PolyCollection_6">
    <defs>
     <path d="M 737.418414 -158.475592 
L 737.418414 90.036408 
L 737.496308 35.531766 
L 737.632621 18.39902 
L 751.400296 3.828524 
L 752.315545 -9.396248 
L 752.919219 -35.69883 
L 753.32816 -59.577959 
L 756.56074 -45.208218 
L 757.398095 -47.186865 
L 761.059089 -47.642453 
L 762.753273 -52.839827 
L 763.162213 -58.365748 
L 763.707468 -70.4972 
L 764.096935 -71.62932 
L 766.25848 -76.482629 
L 767.913716 -86.78383 
L 768.828965 -90.454206 
L 771.477344 -102.919813 
L 772.8989 -107.758857 
L 782.71348 -113.712382 
L 805.555746 -115.351108 
L 808.282019 -117.664469 
L 812.3909 -126.701185 
L 866.994238 -133.538103 
L 948.821352 -137.467685 
L 959.044873 -141.792455 
L 975.071459 -144.848537 
L 994.681145 -155.094476 
L 1003.677844 -157.560149 
L 1003.930997 -163.617705 
L 1065.233176 -167.074008 
L 1067.608927 -174.852871 
L 1067.608927 -185.207537 
L 1067.608927 -185.207537 
L 1065.233176 -180.307217 
L 1003.930997 -177.423927 
L 1003.677844 -170.8023 
L 994.681145 -166.928381 
L 975.071459 -164.495136 
L 959.044873 -154.872034 
L 948.821352 -152.857213 
L 866.994238 -150.447203 
L 812.3909 -144.604938 
L 808.282019 -140.962469 
L 805.555746 -136.936239 
L 782.71348 -132.235373 
L 772.8989 -125.509714 
L 771.477344 -124.009166 
L 768.828965 -123.79559 
L 767.913716 -121.126374 
L 766.25848 -118.748391 
L 764.096935 -110.922517 
L 763.707468 -105.715045 
L 763.162213 -105.167313 
L 762.753273 -104.353643 
L 761.059089 -103.211425 
L 757.398095 -90.987829 
L 756.56074 -86.626884 
L 753.32816 -59.577959 
L 752.919219 -77.117497 
L 752.315545 -90.740895 
L 751.400296 -97.626075 
L 737.632621 -105.85698 
L 737.496308 -116.650133 
L 737.418414 -158.475592 
z
" id="m4fad5c5d99" style="stroke:#0000ff;stroke-opacity:0.1;"/>
    </defs>
    <g clip-path="url(#p9ce9c80e19)">
     <use style="fill:#0000ff;fill-opacity:0.1;stroke:#0000ff;stroke-opacity:0.1;" x="0" xlink:href="#m4fad5c5d99" y="720"/>
    </g>
   </g>
   <g id="matplotlib.axis_11">
    <g id="xtick_41">
     <g id="line2d_71">
      <g>
       <use style="stroke:#000000;stroke-width:0.8;" x="775.897799" xlink:href="#m34df91ce03" y="692.12"/>
      </g>
     </g>
     <g id="text_71">
      <!-- 10000 -->
      <g transform="translate(759.991549 706.718438)scale(0.1 -0.1)">
       <use xlink:href="#DejaVuSans-49"/>
       <use x="63.623047" xlink:href="#DejaVuSans-48"/>
       <use x="127.246094" xlink:href="#DejaVuSans-48"/>
       <use x="190.869141" xlink:href="#DejaVuSans-48"/>
       <use x="254.492188" xlink:href="#DejaVuSans-48"/>
      </g>
     </g>
    </g>
    <g id="xtick_42">
     <g id="line2d_72">
      <g>
       <use style="stroke:#000000;stroke-width:0.8;" x="814.844545" xlink:href="#m34df91ce03" y="692.12"/>
      </g>
     </g>
     <g id="text_72">
      <!-- 20000 -->
      <g transform="translate(798.938295 706.718438)scale(0.1 -0.1)">
       <use xlink:href="#DejaVuSans-50"/>
       <use x="63.623047" xlink:href="#DejaVuSans-48"/>
       <use x="127.246094" xlink:href="#DejaVuSans-48"/>
       <use x="190.869141" xlink:href="#DejaVuSans-48"/>
       <use x="254.492188" xlink:href="#DejaVuSans-48"/>
      </g>
     </g>
    </g>
    <g id="xtick_43">
     <g id="line2d_73">
      <g>
       <use style="stroke:#000000;stroke-width:0.8;" x="853.791291" xlink:href="#m34df91ce03" y="692.12"/>
      </g>
     </g>
     <g id="text_73">
      <!-- 30000 -->
      <g transform="translate(837.885041 706.718438)scale(0.1 -0.1)">
       <use xlink:href="#DejaVuSans-51"/>
       <use x="63.623047" xlink:href="#DejaVuSans-48"/>
       <use x="127.246094" xlink:href="#DejaVuSans-48"/>
       <use x="190.869141" xlink:href="#DejaVuSans-48"/>
       <use x="254.492188" xlink:href="#DejaVuSans-48"/>
      </g>
     </g>
    </g>
    <g id="xtick_44">
     <g id="line2d_74">
      <g>
       <use style="stroke:#000000;stroke-width:0.8;" x="892.738037" xlink:href="#m34df91ce03" y="692.12"/>
      </g>
     </g>
     <g id="text_74">
      <!-- 40000 -->
      <g transform="translate(876.831787 706.718438)scale(0.1 -0.1)">
       <use xlink:href="#DejaVuSans-52"/>
       <use x="63.623047" xlink:href="#DejaVuSans-48"/>
       <use x="127.246094" xlink:href="#DejaVuSans-48"/>
       <use x="190.869141" xlink:href="#DejaVuSans-48"/>
       <use x="254.492188" xlink:href="#DejaVuSans-48"/>
      </g>
     </g>
    </g>
    <g id="xtick_45">
     <g id="line2d_75">
      <g>
       <use style="stroke:#000000;stroke-width:0.8;" x="931.684783" xlink:href="#m34df91ce03" y="692.12"/>
      </g>
     </g>
     <g id="text_75">
      <!-- 50000 -->
      <g transform="translate(915.778533 706.718438)scale(0.1 -0.1)">
       <use xlink:href="#DejaVuSans-53"/>
       <use x="63.623047" xlink:href="#DejaVuSans-48"/>
       <use x="127.246094" xlink:href="#DejaVuSans-48"/>
       <use x="190.869141" xlink:href="#DejaVuSans-48"/>
       <use x="254.492188" xlink:href="#DejaVuSans-48"/>
      </g>
     </g>
    </g>
    <g id="xtick_46">
     <g id="line2d_76">
      <g>
       <use style="stroke:#000000;stroke-width:0.8;" x="970.63153" xlink:href="#m34df91ce03" y="692.12"/>
      </g>
     </g>
     <g id="text_76">
      <!-- 60000 -->
      <g transform="translate(954.72528 706.718438)scale(0.1 -0.1)">
       <use xlink:href="#DejaVuSans-54"/>
       <use x="63.623047" xlink:href="#DejaVuSans-48"/>
       <use x="127.246094" xlink:href="#DejaVuSans-48"/>
       <use x="190.869141" xlink:href="#DejaVuSans-48"/>
       <use x="254.492188" xlink:href="#DejaVuSans-48"/>
      </g>
     </g>
    </g>
    <g id="xtick_47">
     <g id="line2d_77">
      <g>
       <use style="stroke:#000000;stroke-width:0.8;" x="1009.578276" xlink:href="#m34df91ce03" y="692.12"/>
      </g>
     </g>
     <g id="text_77">
      <!-- 70000 -->
      <g transform="translate(993.672026 706.718438)scale(0.1 -0.1)">
       <use xlink:href="#DejaVuSans-55"/>
       <use x="63.623047" xlink:href="#DejaVuSans-48"/>
       <use x="127.246094" xlink:href="#DejaVuSans-48"/>
       <use x="190.869141" xlink:href="#DejaVuSans-48"/>
       <use x="254.492188" xlink:href="#DejaVuSans-48"/>
      </g>
     </g>
    </g>
    <g id="xtick_48">
     <g id="line2d_78">
      <g>
       <use style="stroke:#000000;stroke-width:0.8;" x="1048.525022" xlink:href="#m34df91ce03" y="692.12"/>
      </g>
     </g>
     <g id="text_78">
      <!-- 80000 -->
      <g transform="translate(1032.618772 706.718438)scale(0.1 -0.1)">
       <use xlink:href="#DejaVuSans-56"/>
       <use x="63.623047" xlink:href="#DejaVuSans-48"/>
       <use x="127.246094" xlink:href="#DejaVuSans-48"/>
       <use x="190.869141" xlink:href="#DejaVuSans-48"/>
       <use x="254.492188" xlink:href="#DejaVuSans-48"/>
      </g>
     </g>
    </g>
   </g>
   <g id="matplotlib.axis_12">
    <g id="ytick_26">
     <g id="line2d_79">
      <g>
       <use style="stroke:#000000;stroke-width:0.8;" x="736.99" xlink:href="#m501a1b78f6" y="692.12"/>
      </g>
     </g>
     <g id="text_79">
      <!-- 0 -->
      <g transform="translate(723.6275 695.919219)scale(0.1 -0.1)">
       <use xlink:href="#DejaVuSans-48"/>
      </g>
     </g>
    </g>
    <g id="ytick_27">
     <g id="line2d_80">
      <g>
       <use style="stroke:#000000;stroke-width:0.8;" x="736.99" xlink:href="#m501a1b78f6" y="628.724082"/>
      </g>
     </g>
     <g id="text_80">
      <!-- 2 -->
      <g transform="translate(723.6275 632.5233)scale(0.1 -0.1)">
       <use xlink:href="#DejaVuSans-50"/>
      </g>
     </g>
    </g>
    <g id="ytick_28">
     <g id="line2d_81">
      <g>
       <use style="stroke:#000000;stroke-width:0.8;" x="736.99" xlink:href="#m501a1b78f6" y="565.328163"/>
      </g>
     </g>
     <g id="text_81">
      <!-- 4 -->
      <g transform="translate(723.6275 569.127382)scale(0.1 -0.1)">
       <use xlink:href="#DejaVuSans-52"/>
      </g>
     </g>
    </g>
    <g id="ytick_29">
     <g id="line2d_82">
      <g>
       <use style="stroke:#000000;stroke-width:0.8;" x="736.99" xlink:href="#m501a1b78f6" y="501.932245"/>
      </g>
     </g>
     <g id="text_82">
      <!-- 6 -->
      <g transform="translate(723.6275 505.731464)scale(0.1 -0.1)">
       <use xlink:href="#DejaVuSans-54"/>
      </g>
     </g>
    </g>
    <g id="ytick_30">
     <g id="line2d_83">
      <g>
       <use style="stroke:#000000;stroke-width:0.8;" x="736.99" xlink:href="#m501a1b78f6" y="438.536327"/>
      </g>
     </g>
     <g id="text_83">
      <!-- 8 -->
      <g transform="translate(723.6275 442.335545)scale(0.1 -0.1)">
       <use xlink:href="#DejaVuSans-56"/>
      </g>
     </g>
    </g>
   </g>
   <g id="line2d_84">
    <path clip-path="url(#p9ce9c80e19)" d="M 737.418414 685.780408 
L 737.418414 679.440816 
L 737.496308 679.440816 
L 737.496308 676.27102 
L 737.632621 676.27102 
L 737.632621 673.101224 
L 751.400296 673.101224 
L 751.400296 669.931429 
L 752.315545 669.931429 
L 752.315545 663.591837 
L 752.919219 663.591837 
L 752.919219 660.422041 
L 753.32816 660.422041 
L 753.32816 654.082449 
L 756.56074 654.082449 
L 756.56074 650.912653 
L 757.398095 650.912653 
L 757.398095 644.573061 
L 761.059089 644.573061 
L 761.059089 641.403265 
L 762.753273 641.403265 
L 762.753273 638.233469 
L 763.162213 638.233469 
L 763.162213 631.893878 
L 763.707468 631.893878 
L 763.707468 628.724082 
L 764.096935 628.724082 
L 764.096935 622.38449 
L 766.25848 622.38449 
L 766.25848 616.044898 
L 767.913716 616.044898 
L 767.913716 612.875102 
L 768.828965 612.875102 
L 768.828965 606.53551 
L 771.477344 606.53551 
L 771.477344 603.365714 
L 772.8989 603.365714 
L 772.8989 597.026122 
L 782.71348 597.026122 
L 782.71348 593.856327 
L 805.555746 593.856327 
L 805.555746 590.686531 
L 808.282019 590.686531 
L 808.282019 584.346939 
L 812.3909 584.346939 
L 812.3909 578.007347 
L 866.994238 578.007347 
L 866.994238 574.837551 
L 948.821352 574.837551 
L 948.821352 571.667755 
L 959.044873 571.667755 
L 959.044873 565.328163 
L 975.071459 565.328163 
L 975.071459 558.988571 
L 994.681145 558.988571 
L 994.681145 555.818776 
L 1003.677844 555.818776 
L 1003.677844 549.479184 
L 1003.930997 549.479184 
L 1003.930997 546.309388 
L 1065.233176 546.309388 
L 1065.233176 539.969796 
L 1067.608927 539.969796 
" style="fill:none;stroke:#1f77b4;stroke-linecap:square;stroke-width:1.5;"/>
   </g>
   <g id="patch_28">
    <path d="M 736.99 692.12 
L 736.99 381.48 
" style="fill:none;stroke:#000000;stroke-linecap:square;stroke-linejoin:miter;stroke-width:0.8;"/>
   </g>
   <g id="patch_29">
    <path d="M 1067.628401 692.12 
L 1067.628401 381.48 
" style="fill:none;stroke:#000000;stroke-linecap:square;stroke-linejoin:miter;stroke-width:0.8;"/>
   </g>
   <g id="patch_30">
    <path d="M 736.99 692.12 
L 1067.628401 692.12 
" style="fill:none;stroke:#000000;stroke-linecap:square;stroke-linejoin:miter;stroke-width:0.8;"/>
   </g>
   <g id="patch_31">
    <path d="M 736.99 381.48 
L 1067.628401 381.48 
" style="fill:none;stroke:#000000;stroke-linecap:square;stroke-linejoin:miter;stroke-width:0.8;"/>
   </g>
   <g id="text_84">
    <!-- afl -->
    <g transform="translate(894.853263 375.48)scale(0.12 -0.12)">
     <use xlink:href="#DejaVuSans-97"/>
     <use x="61.279297" xlink:href="#DejaVuSans-102"/>
     <use x="96.484375" xlink:href="#DejaVuSans-108"/>
    </g>
   </g>
  </g>
 </g>
 <defs>
  <clipPath id="pb13a220de7">
   <rect height="310.64" width="330.638401" x="24.19" y="26.88"/>
  </clipPath>
  <clipPath id="p4cf98dde04">
   <rect height="310.64" width="330.638401" x="380.59" y="26.88"/>
  </clipPath>
  <clipPath id="p054f3fbc4f">
   <rect height="310.64" width="330.638401" x="736.99" y="26.88"/>
  </clipPath>
  <clipPath id="p6b6f0eef32">
   <rect height="310.64" width="330.638401" x="24.19" y="381.48"/>
  </clipPath>
  <clipPath id="p3f20ca2521">
   <rect height="310.64" width="330.638401" x="380.59" y="381.48"/>
  </clipPath>
  <clipPath id="p9ce9c80e19">
   <rect height="310.64" width="330.638401" x="736.99" y="381.48"/>
  </clipPath>
 </defs>
</svg>
