<?xml version="1.0" encoding="utf-8" standalone="no"?>
<!DOCTYPE svg PUBLIC "-//W3C//DTD SVG 1.1//EN"
  "http://www.w3.org/Graphics/SVG/1.1/DTD/svg11.dtd">
<!-- Created with matplotlib (https://matplotlib.org/) -->
<svg height="720pt" version="1.1" viewBox="0 0 1080 720" width="1080pt" xmlns="http://www.w3.org/2000/svg" xmlns:xlink="http://www.w3.org/1999/xlink">
 <defs>
  <style type="text/css">
*{stroke-linecap:butt;stroke-linejoin:round;}
  </style>
 </defs>
 <g id="figure_1">
  <g id="patch_1">
   <path d="M 0 720 
L 1080 720 
L 1080 0 
L 0 0 
z
" style="fill:#ffffff;"/>
  </g>
  <g id="axes_1">
   <g id="patch_2">
    <path d="M 30.49 337.52 
L 356.4 337.52 
L 356.4 26.88 
L 30.49 26.88 
z
" style="fill:#ffffff;"/>
   </g>
   <g id="PolyCollection_1">
    <defs>
     <path d="M 30.51541 -458.690347 
L 30.51541 -418.100053 
L 30.56623 -444.608 
L 31.252303 -439.01648 
L 35.521201 -439.75072 
L 36.461375 -441.796237 
L 36.715476 -444.605412 
L 36.791706 -447.962912 
L 36.842526 -451.774226 
L 37.172857 -456.019017 
L 37.249088 -460.76128 
L 39.205666 -466.267106 
L 56.713228 -475.672 
L 56.713228 -475.672 
L 56.713228 -475.672 
L 39.205666 -478.864094 
L 37.249088 -478.15712 
L 37.172857 -476.686583 
L 36.842526 -474.718574 
L 36.791706 -472.317088 
L 36.715476 -469.461788 
L 36.461375 -466.058163 
L 35.521201 -461.89088 
L 31.252303 -456.41232 
L 30.56623 -444.608 
L 30.51541 -458.690347 
z
" id="me4c022d81a" style="stroke:#0000ff;stroke-opacity:0.1;"/>
    </defs>
    <g clip-path="url(#pe27645debd)">
     <use style="fill:#0000ff;fill-opacity:0.1;stroke:#0000ff;stroke-opacity:0.1;" x="0" xlink:href="#me4c022d81a" y="720"/>
    </g>
   </g>
   <g id="matplotlib.axis_1">
    <g id="xtick_1">
     <g id="line2d_1">
      <defs>
       <path d="M 0 0 
L 0 3.5 
" id="mad30e3b244" style="stroke:#000000;stroke-width:0.8;"/>
      </defs>
      <g>
       <use style="stroke:#000000;stroke-width:0.8;" x="81.259389" xlink:href="#mad30e3b244" y="337.52"/>
      </g>
     </g>
     <g id="text_1">
      <!-- 10000 -->
      <defs>
       <path d="M 12.40625 8.296875 
L 28.515625 8.296875 
L 28.515625 63.921875 
L 10.984375 60.40625 
L 10.984375 69.390625 
L 28.421875 72.90625 
L 38.28125 72.90625 
L 38.28125 8.296875 
L 54.390625 8.296875 
L 54.390625 0 
L 12.40625 0 
z
" id="DejaVuSans-49"/>
       <path d="M 31.78125 66.40625 
Q 24.171875 66.40625 20.328125 58.90625 
Q 16.5 51.421875 16.5 36.375 
Q 16.5 21.390625 20.328125 13.890625 
Q 24.171875 6.390625 31.78125 6.390625 
Q 39.453125 6.390625 43.28125 13.890625 
Q 47.125 21.390625 47.125 36.375 
Q 47.125 51.421875 43.28125 58.90625 
Q 39.453125 66.40625 31.78125 66.40625 
z
M 31.78125 74.21875 
Q 44.046875 74.21875 50.515625 64.515625 
Q 56.984375 54.828125 56.984375 36.375 
Q 56.984375 17.96875 50.515625 8.265625 
Q 44.046875 -1.421875 31.78125 -1.421875 
Q 19.53125 -1.421875 13.0625 8.265625 
Q 6.59375 17.96875 6.59375 36.375 
Q 6.59375 54.828125 13.0625 64.515625 
Q 19.53125 74.21875 31.78125 74.21875 
z
" id="DejaVuSans-48"/>
      </defs>
      <g transform="translate(65.353139 352.118438)scale(0.1 -0.1)">
       <use xlink:href="#DejaVuSans-49"/>
       <use x="63.623047" xlink:href="#DejaVuSans-48"/>
       <use x="127.246094" xlink:href="#DejaVuSans-48"/>
       <use x="190.869141" xlink:href="#DejaVuSans-48"/>
       <use x="254.492188" xlink:href="#DejaVuSans-48"/>
      </g>
     </g>
    </g>
    <g id="xtick_2">
     <g id="line2d_2">
      <g>
       <use style="stroke:#000000;stroke-width:0.8;" x="132.079598" xlink:href="#mad30e3b244" y="337.52"/>
      </g>
     </g>
     <g id="text_2">
      <!-- 20000 -->
      <defs>
       <path d="M 19.1875 8.296875 
L 53.609375 8.296875 
L 53.609375 0 
L 7.328125 0 
L 7.328125 8.296875 
Q 12.9375 14.109375 22.625 23.890625 
Q 32.328125 33.6875 34.8125 36.53125 
Q 39.546875 41.84375 41.421875 45.53125 
Q 43.3125 49.21875 43.3125 52.78125 
Q 43.3125 58.59375 39.234375 62.25 
Q 35.15625 65.921875 28.609375 65.921875 
Q 23.96875 65.921875 18.8125 64.3125 
Q 13.671875 62.703125 7.8125 59.421875 
L 7.8125 69.390625 
Q 13.765625 71.78125 18.9375 73 
Q 24.125 74.21875 28.421875 74.21875 
Q 39.75 74.21875 46.484375 68.546875 
Q 53.21875 62.890625 53.21875 53.421875 
Q 53.21875 48.921875 51.53125 44.890625 
Q 49.859375 40.875 45.40625 35.40625 
Q 44.1875 33.984375 37.640625 27.21875 
Q 31.109375 20.453125 19.1875 8.296875 
z
" id="DejaVuSans-50"/>
      </defs>
      <g transform="translate(116.173348 352.118438)scale(0.1 -0.1)">
       <use xlink:href="#DejaVuSans-50"/>
       <use x="63.623047" xlink:href="#DejaVuSans-48"/>
       <use x="127.246094" xlink:href="#DejaVuSans-48"/>
       <use x="190.869141" xlink:href="#DejaVuSans-48"/>
       <use x="254.492188" xlink:href="#DejaVuSans-48"/>
      </g>
     </g>
    </g>
    <g id="xtick_3">
     <g id="line2d_3">
      <g>
       <use style="stroke:#000000;stroke-width:0.8;" x="182.899807" xlink:href="#mad30e3b244" y="337.52"/>
      </g>
     </g>
     <g id="text_3">
      <!-- 30000 -->
      <defs>
       <path d="M 40.578125 39.3125 
Q 47.65625 37.796875 51.625 33 
Q 55.609375 28.21875 55.609375 21.1875 
Q 55.609375 10.40625 48.1875 4.484375 
Q 40.765625 -1.421875 27.09375 -1.421875 
Q 22.515625 -1.421875 17.65625 -0.515625 
Q 12.796875 0.390625 7.625 2.203125 
L 7.625 11.71875 
Q 11.71875 9.328125 16.59375 8.109375 
Q 21.484375 6.890625 26.8125 6.890625 
Q 36.078125 6.890625 40.9375 10.546875 
Q 45.796875 14.203125 45.796875 21.1875 
Q 45.796875 27.640625 41.28125 31.265625 
Q 36.765625 34.90625 28.71875 34.90625 
L 20.21875 34.90625 
L 20.21875 43.015625 
L 29.109375 43.015625 
Q 36.375 43.015625 40.234375 45.921875 
Q 44.09375 48.828125 44.09375 54.296875 
Q 44.09375 59.90625 40.109375 62.90625 
Q 36.140625 65.921875 28.71875 65.921875 
Q 24.65625 65.921875 20.015625 65.03125 
Q 15.375 64.15625 9.8125 62.3125 
L 9.8125 71.09375 
Q 15.4375 72.65625 20.34375 73.4375 
Q 25.25 74.21875 29.59375 74.21875 
Q 40.828125 74.21875 47.359375 69.109375 
Q 53.90625 64.015625 53.90625 55.328125 
Q 53.90625 49.265625 50.4375 45.09375 
Q 46.96875 40.921875 40.578125 39.3125 
z
" id="DejaVuSans-51"/>
      </defs>
      <g transform="translate(166.993557 352.118438)scale(0.1 -0.1)">
       <use xlink:href="#DejaVuSans-51"/>
       <use x="63.623047" xlink:href="#DejaVuSans-48"/>
       <use x="127.246094" xlink:href="#DejaVuSans-48"/>
       <use x="190.869141" xlink:href="#DejaVuSans-48"/>
       <use x="254.492188" xlink:href="#DejaVuSans-48"/>
      </g>
     </g>
    </g>
    <g id="xtick_4">
     <g id="line2d_4">
      <g>
       <use style="stroke:#000000;stroke-width:0.8;" x="233.720016" xlink:href="#mad30e3b244" y="337.52"/>
      </g>
     </g>
     <g id="text_4">
      <!-- 40000 -->
      <defs>
       <path d="M 37.796875 64.3125 
L 12.890625 25.390625 
L 37.796875 25.390625 
z
M 35.203125 72.90625 
L 47.609375 72.90625 
L 47.609375 25.390625 
L 58.015625 25.390625 
L 58.015625 17.1875 
L 47.609375 17.1875 
L 47.609375 0 
L 37.796875 0 
L 37.796875 17.1875 
L 4.890625 17.1875 
L 4.890625 26.703125 
z
" id="DejaVuSans-52"/>
      </defs>
      <g transform="translate(217.813766 352.118438)scale(0.1 -0.1)">
       <use xlink:href="#DejaVuSans-52"/>
       <use x="63.623047" xlink:href="#DejaVuSans-48"/>
       <use x="127.246094" xlink:href="#DejaVuSans-48"/>
       <use x="190.869141" xlink:href="#DejaVuSans-48"/>
       <use x="254.492188" xlink:href="#DejaVuSans-48"/>
      </g>
     </g>
    </g>
    <g id="xtick_5">
     <g id="line2d_5">
      <g>
       <use style="stroke:#000000;stroke-width:0.8;" x="284.540225" xlink:href="#mad30e3b244" y="337.52"/>
      </g>
     </g>
     <g id="text_5">
      <!-- 50000 -->
      <defs>
       <path d="M 10.796875 72.90625 
L 49.515625 72.90625 
L 49.515625 64.59375 
L 19.828125 64.59375 
L 19.828125 46.734375 
Q 21.96875 47.46875 24.109375 47.828125 
Q 26.265625 48.1875 28.421875 48.1875 
Q 40.625 48.1875 47.75 41.5 
Q 54.890625 34.8125 54.890625 23.390625 
Q 54.890625 11.625 47.5625 5.09375 
Q 40.234375 -1.421875 26.90625 -1.421875 
Q 22.3125 -1.421875 17.546875 -0.640625 
Q 12.796875 0.140625 7.71875 1.703125 
L 7.71875 11.625 
Q 12.109375 9.234375 16.796875 8.0625 
Q 21.484375 6.890625 26.703125 6.890625 
Q 35.15625 6.890625 40.078125 11.328125 
Q 45.015625 15.765625 45.015625 23.390625 
Q 45.015625 31 40.078125 35.4375 
Q 35.15625 39.890625 26.703125 39.890625 
Q 22.75 39.890625 18.8125 39.015625 
Q 14.890625 38.140625 10.796875 36.28125 
z
" id="DejaVuSans-53"/>
      </defs>
      <g transform="translate(268.633975 352.118438)scale(0.1 -0.1)">
       <use xlink:href="#DejaVuSans-53"/>
       <use x="63.623047" xlink:href="#DejaVuSans-48"/>
       <use x="127.246094" xlink:href="#DejaVuSans-48"/>
       <use x="190.869141" xlink:href="#DejaVuSans-48"/>
       <use x="254.492188" xlink:href="#DejaVuSans-48"/>
      </g>
     </g>
    </g>
    <g id="xtick_6">
     <g id="line2d_6">
      <g>
       <use style="stroke:#000000;stroke-width:0.8;" x="335.360433" xlink:href="#mad30e3b244" y="337.52"/>
      </g>
     </g>
     <g id="text_6">
      <!-- 60000 -->
      <defs>
       <path d="M 33.015625 40.375 
Q 26.375 40.375 22.484375 35.828125 
Q 18.609375 31.296875 18.609375 23.390625 
Q 18.609375 15.53125 22.484375 10.953125 
Q 26.375 6.390625 33.015625 6.390625 
Q 39.65625 6.390625 43.53125 10.953125 
Q 47.40625 15.53125 47.40625 23.390625 
Q 47.40625 31.296875 43.53125 35.828125 
Q 39.65625 40.375 33.015625 40.375 
z
M 52.59375 71.296875 
L 52.59375 62.3125 
Q 48.875 64.0625 45.09375 64.984375 
Q 41.3125 65.921875 37.59375 65.921875 
Q 27.828125 65.921875 22.671875 59.328125 
Q 17.53125 52.734375 16.796875 39.40625 
Q 19.671875 43.65625 24.015625 45.921875 
Q 28.375 48.1875 33.59375 48.1875 
Q 44.578125 48.1875 50.953125 41.515625 
Q 57.328125 34.859375 57.328125 23.390625 
Q 57.328125 12.15625 50.6875 5.359375 
Q 44.046875 -1.421875 33.015625 -1.421875 
Q 20.359375 -1.421875 13.671875 8.265625 
Q 6.984375 17.96875 6.984375 36.375 
Q 6.984375 53.65625 15.1875 63.9375 
Q 23.390625 74.21875 37.203125 74.21875 
Q 40.921875 74.21875 44.703125 73.484375 
Q 48.484375 72.75 52.59375 71.296875 
z
" id="DejaVuSans-54"/>
      </defs>
      <g transform="translate(319.454183 352.118438)scale(0.1 -0.1)">
       <use xlink:href="#DejaVuSans-54"/>
       <use x="63.623047" xlink:href="#DejaVuSans-48"/>
       <use x="127.246094" xlink:href="#DejaVuSans-48"/>
       <use x="190.869141" xlink:href="#DejaVuSans-48"/>
       <use x="254.492188" xlink:href="#DejaVuSans-48"/>
      </g>
     </g>
    </g>
   </g>
   <g id="matplotlib.axis_2">
    <g id="ytick_1">
     <g id="line2d_7">
      <defs>
       <path d="M 0 0 
L -3.5 0 
" id="ma9e64c480c" style="stroke:#000000;stroke-width:0.8;"/>
      </defs>
      <g>
       <use style="stroke:#000000;stroke-width:0.8;" x="30.49" xlink:href="#ma9e64c480c" y="337.52"/>
      </g>
     </g>
     <g id="text_7">
      <!-- 0 -->
      <g transform="translate(17.1275 341.319219)scale(0.1 -0.1)">
       <use xlink:href="#DejaVuSans-48"/>
      </g>
     </g>
    </g>
    <g id="ytick_2">
     <g id="line2d_8">
      <g>
       <use style="stroke:#000000;stroke-width:0.8;" x="30.49" xlink:href="#ma9e64c480c" y="275.392"/>
      </g>
     </g>
     <g id="text_8">
      <!-- 2 -->
      <g transform="translate(17.1275 279.191219)scale(0.1 -0.1)">
       <use xlink:href="#DejaVuSans-50"/>
      </g>
     </g>
    </g>
    <g id="ytick_3">
     <g id="line2d_9">
      <g>
       <use style="stroke:#000000;stroke-width:0.8;" x="30.49" xlink:href="#ma9e64c480c" y="213.264"/>
      </g>
     </g>
     <g id="text_9">
      <!-- 4 -->
      <g transform="translate(17.1275 217.063219)scale(0.1 -0.1)">
       <use xlink:href="#DejaVuSans-52"/>
      </g>
     </g>
    </g>
    <g id="ytick_4">
     <g id="line2d_10">
      <g>
       <use style="stroke:#000000;stroke-width:0.8;" x="30.49" xlink:href="#ma9e64c480c" y="151.136"/>
      </g>
     </g>
     <g id="text_10">
      <!-- 6 -->
      <g transform="translate(17.1275 154.935219)scale(0.1 -0.1)">
       <use xlink:href="#DejaVuSans-54"/>
      </g>
     </g>
    </g>
    <g id="ytick_5">
     <g id="line2d_11">
      <g>
       <use style="stroke:#000000;stroke-width:0.8;" x="30.49" xlink:href="#ma9e64c480c" y="89.008"/>
      </g>
     </g>
     <g id="text_11">
      <!-- 8 -->
      <defs>
       <path d="M 31.78125 34.625 
Q 24.75 34.625 20.71875 30.859375 
Q 16.703125 27.09375 16.703125 20.515625 
Q 16.703125 13.921875 20.71875 10.15625 
Q 24.75 6.390625 31.78125 6.390625 
Q 38.8125 6.390625 42.859375 10.171875 
Q 46.921875 13.96875 46.921875 20.515625 
Q 46.921875 27.09375 42.890625 30.859375 
Q 38.875 34.625 31.78125 34.625 
z
M 21.921875 38.8125 
Q 15.578125 40.375 12.03125 44.71875 
Q 8.5 49.078125 8.5 55.328125 
Q 8.5 64.0625 14.71875 69.140625 
Q 20.953125 74.21875 31.78125 74.21875 
Q 42.671875 74.21875 48.875 69.140625 
Q 55.078125 64.0625 55.078125 55.328125 
Q 55.078125 49.078125 51.53125 44.71875 
Q 48 40.375 41.703125 38.8125 
Q 48.828125 37.15625 52.796875 32.3125 
Q 56.78125 27.484375 56.78125 20.515625 
Q 56.78125 9.90625 50.3125 4.234375 
Q 43.84375 -1.421875 31.78125 -1.421875 
Q 19.734375 -1.421875 13.25 4.234375 
Q 6.78125 9.90625 6.78125 20.515625 
Q 6.78125 27.484375 10.78125 32.3125 
Q 14.796875 37.15625 21.921875 38.8125 
z
M 18.3125 54.390625 
Q 18.3125 48.734375 21.84375 45.5625 
Q 25.390625 42.390625 31.78125 42.390625 
Q 38.140625 42.390625 41.71875 45.5625 
Q 45.3125 48.734375 45.3125 54.390625 
Q 45.3125 60.0625 41.71875 63.234375 
Q 38.140625 66.40625 31.78125 66.40625 
Q 25.390625 66.40625 21.84375 63.234375 
Q 18.3125 60.0625 18.3125 54.390625 
z
" id="DejaVuSans-56"/>
      </defs>
      <g transform="translate(17.1275 92.807219)scale(0.1 -0.1)">
       <use xlink:href="#DejaVuSans-56"/>
      </g>
     </g>
    </g>
    <g id="ytick_6">
     <g id="line2d_12">
      <g>
       <use style="stroke:#000000;stroke-width:0.8;" x="30.49" xlink:href="#ma9e64c480c" y="26.88"/>
      </g>
     </g>
     <g id="text_12">
      <!-- 10 -->
      <g transform="translate(10.765 30.679219)scale(0.1 -0.1)">
       <use xlink:href="#DejaVuSans-49"/>
       <use x="63.623047" xlink:href="#DejaVuSans-48"/>
      </g>
     </g>
    </g>
   </g>
   <g id="line2d_13">
    <path clip-path="url(#pe27645debd)" d="M 30.51541 281.6048 
L 30.51541 275.392 
L 30.56623 275.392 
L 30.56623 272.2856 
L 31.252303 272.2856 
L 31.252303 269.1792 
L 35.521201 269.1792 
L 35.521201 266.0728 
L 36.461375 266.0728 
L 36.461375 262.9664 
L 36.715476 262.9664 
L 36.715476 259.86 
L 36.791706 259.86 
L 36.791706 256.7536 
L 36.842526 256.7536 
L 36.842526 253.6472 
L 37.172857 253.6472 
L 37.172857 250.5408 
L 37.249088 250.5408 
L 37.249088 247.4344 
L 39.205666 247.4344 
L 39.205666 244.328 
L 56.713228 244.328 
" style="fill:none;stroke:#1f77b4;stroke-linecap:square;stroke-width:1.5;"/>
   </g>
   <g id="patch_3">
    <path d="M 30.49 337.52 
L 30.49 26.88 
" style="fill:none;stroke:#000000;stroke-linecap:square;stroke-linejoin:miter;stroke-width:0.8;"/>
   </g>
   <g id="patch_4">
    <path d="M 356.4 337.52 
L 356.4 26.88 
" style="fill:none;stroke:#000000;stroke-linecap:square;stroke-linejoin:miter;stroke-width:0.8;"/>
   </g>
   <g id="patch_5">
    <path d="M 30.49 337.52 
L 356.4 337.52 
" style="fill:none;stroke:#000000;stroke-linecap:square;stroke-linejoin:miter;stroke-width:0.8;"/>
   </g>
   <g id="patch_6">
    <path d="M 30.49 26.88 
L 356.4 26.88 
" style="fill:none;stroke:#000000;stroke-linecap:square;stroke-linejoin:miter;stroke-width:0.8;"/>
   </g>
   <g id="text_13">
    <!-- moptafl -->
    <defs>
     <path d="M 52 44.1875 
Q 55.375 50.25 60.0625 53.125 
Q 64.75 56 71.09375 56 
Q 79.640625 56 84.28125 50.015625 
Q 88.921875 44.046875 88.921875 33.015625 
L 88.921875 0 
L 79.890625 0 
L 79.890625 32.71875 
Q 79.890625 40.578125 77.09375 44.375 
Q 74.3125 48.1875 68.609375 48.1875 
Q 61.625 48.1875 57.5625 43.546875 
Q 53.515625 38.921875 53.515625 30.90625 
L 53.515625 0 
L 44.484375 0 
L 44.484375 32.71875 
Q 44.484375 40.625 41.703125 44.40625 
Q 38.921875 48.1875 33.109375 48.1875 
Q 26.21875 48.1875 22.15625 43.53125 
Q 18.109375 38.875 18.109375 30.90625 
L 18.109375 0 
L 9.078125 0 
L 9.078125 54.6875 
L 18.109375 54.6875 
L 18.109375 46.1875 
Q 21.1875 51.21875 25.484375 53.609375 
Q 29.78125 56 35.6875 56 
Q 41.65625 56 45.828125 52.96875 
Q 50 49.953125 52 44.1875 
z
" id="DejaVuSans-109"/>
     <path d="M 30.609375 48.390625 
Q 23.390625 48.390625 19.1875 42.75 
Q 14.984375 37.109375 14.984375 27.296875 
Q 14.984375 17.484375 19.15625 11.84375 
Q 23.34375 6.203125 30.609375 6.203125 
Q 37.796875 6.203125 41.984375 11.859375 
Q 46.1875 17.53125 46.1875 27.296875 
Q 46.1875 37.015625 41.984375 42.703125 
Q 37.796875 48.390625 30.609375 48.390625 
z
M 30.609375 56 
Q 42.328125 56 49.015625 48.375 
Q 55.71875 40.765625 55.71875 27.296875 
Q 55.71875 13.875 49.015625 6.21875 
Q 42.328125 -1.421875 30.609375 -1.421875 
Q 18.84375 -1.421875 12.171875 6.21875 
Q 5.515625 13.875 5.515625 27.296875 
Q 5.515625 40.765625 12.171875 48.375 
Q 18.84375 56 30.609375 56 
z
" id="DejaVuSans-111"/>
     <path d="M 18.109375 8.203125 
L 18.109375 -20.796875 
L 9.078125 -20.796875 
L 9.078125 54.6875 
L 18.109375 54.6875 
L 18.109375 46.390625 
Q 20.953125 51.265625 25.265625 53.625 
Q 29.59375 56 35.59375 56 
Q 45.5625 56 51.78125 48.09375 
Q 58.015625 40.1875 58.015625 27.296875 
Q 58.015625 14.40625 51.78125 6.484375 
Q 45.5625 -1.421875 35.59375 -1.421875 
Q 29.59375 -1.421875 25.265625 0.953125 
Q 20.953125 3.328125 18.109375 8.203125 
z
M 48.6875 27.296875 
Q 48.6875 37.203125 44.609375 42.84375 
Q 40.53125 48.484375 33.40625 48.484375 
Q 26.265625 48.484375 22.1875 42.84375 
Q 18.109375 37.203125 18.109375 27.296875 
Q 18.109375 17.390625 22.1875 11.75 
Q 26.265625 6.109375 33.40625 6.109375 
Q 40.53125 6.109375 44.609375 11.75 
Q 48.6875 17.390625 48.6875 27.296875 
z
" id="DejaVuSans-112"/>
     <path d="M 18.3125 70.21875 
L 18.3125 54.6875 
L 36.8125 54.6875 
L 36.8125 47.703125 
L 18.3125 47.703125 
L 18.3125 18.015625 
Q 18.3125 11.328125 20.140625 9.421875 
Q 21.96875 7.515625 27.59375 7.515625 
L 36.8125 7.515625 
L 36.8125 0 
L 27.59375 0 
Q 17.1875 0 13.234375 3.875 
Q 9.28125 7.765625 9.28125 18.015625 
L 9.28125 47.703125 
L 2.6875 47.703125 
L 2.6875 54.6875 
L 9.28125 54.6875 
L 9.28125 70.21875 
z
" id="DejaVuSans-116"/>
     <path d="M 34.28125 27.484375 
Q 23.390625 27.484375 19.1875 25 
Q 14.984375 22.515625 14.984375 16.5 
Q 14.984375 11.71875 18.140625 8.90625 
Q 21.296875 6.109375 26.703125 6.109375 
Q 34.1875 6.109375 38.703125 11.40625 
Q 43.21875 16.703125 43.21875 25.484375 
L 43.21875 27.484375 
z
M 52.203125 31.203125 
L 52.203125 0 
L 43.21875 0 
L 43.21875 8.296875 
Q 40.140625 3.328125 35.546875 0.953125 
Q 30.953125 -1.421875 24.3125 -1.421875 
Q 15.921875 -1.421875 10.953125 3.296875 
Q 6 8.015625 6 15.921875 
Q 6 25.140625 12.171875 29.828125 
Q 18.359375 34.515625 30.609375 34.515625 
L 43.21875 34.515625 
L 43.21875 35.40625 
Q 43.21875 41.609375 39.140625 45 
Q 35.0625 48.390625 27.6875 48.390625 
Q 23 48.390625 18.546875 47.265625 
Q 14.109375 46.140625 10.015625 43.890625 
L 10.015625 52.203125 
Q 14.9375 54.109375 19.578125 55.046875 
Q 24.21875 56 28.609375 56 
Q 40.484375 56 46.34375 49.84375 
Q 52.203125 43.703125 52.203125 31.203125 
z
" id="DejaVuSans-97"/>
     <path d="M 37.109375 75.984375 
L 37.109375 68.5 
L 28.515625 68.5 
Q 23.6875 68.5 21.796875 66.546875 
Q 19.921875 64.59375 19.921875 59.515625 
L 19.921875 54.6875 
L 34.71875 54.6875 
L 34.71875 47.703125 
L 19.921875 47.703125 
L 19.921875 0 
L 10.890625 0 
L 10.890625 47.703125 
L 2.296875 47.703125 
L 2.296875 54.6875 
L 10.890625 54.6875 
L 10.890625 58.5 
Q 10.890625 67.625 15.140625 71.796875 
Q 19.390625 75.984375 28.609375 75.984375 
z
" id="DejaVuSans-102"/>
     <path d="M 9.421875 75.984375 
L 18.40625 75.984375 
L 18.40625 0 
L 9.421875 0 
z
" id="DejaVuSans-108"/>
    </defs>
    <g transform="translate(170.312188 20.88)scale(0.12 -0.12)">
     <use xlink:href="#DejaVuSans-109"/>
     <use x="97.412109" xlink:href="#DejaVuSans-111"/>
     <use x="158.59375" xlink:href="#DejaVuSans-112"/>
     <use x="222.070312" xlink:href="#DejaVuSans-116"/>
     <use x="261.279297" xlink:href="#DejaVuSans-97"/>
     <use x="322.558594" xlink:href="#DejaVuSans-102"/>
     <use x="357.763672" xlink:href="#DejaVuSans-108"/>
    </g>
   </g>
  </g>
  <g id="axes_2">
   <g id="patch_7">
    <path d="M 386.89 337.52 
L 712.8 337.52 
L 712.8 26.88 
L 386.89 26.88 
z
" style="fill:#ffffff;"/>
   </g>
   <g id="PolyCollection_2">
    <defs>
     <path d="M 386.91541 -444.608 
L 386.91541 -444.608 
L 387.321972 -439.01648 
L 390.498235 -439.75072 
L 390.549055 -441.796237 
L 390.828566 -444.605412 
L 391.158898 -447.962912 
L 391.590869 -451.774226 
L 392.251532 -456.019017 
L 397.460603 -460.76128 
L 401.983602 -466.267106 
L 402.339344 -475.672 
L 402.339344 -475.672 
L 402.339344 -475.672 
L 401.983602 -478.864094 
L 397.460603 -478.15712 
L 392.251532 -476.686583 
L 391.590869 -474.718574 
L 391.158898 -472.317088 
L 390.828566 -469.461788 
L 390.549055 -466.058163 
L 390.498235 -461.89088 
L 387.321972 -456.41232 
L 386.91541 -444.608 
z
" id="m38bcbf982b" style="stroke:#0000ff;stroke-opacity:0.1;"/>
    </defs>
    <g clip-path="url(#p3e6c7670f0)">
     <use style="fill:#0000ff;fill-opacity:0.1;stroke:#0000ff;stroke-opacity:0.1;" x="0" xlink:href="#m38bcbf982b" y="720"/>
    </g>
   </g>
   <g id="matplotlib.axis_3">
    <g id="xtick_7">
     <g id="line2d_14">
      <g>
       <use style="stroke:#000000;stroke-width:0.8;" x="437.659389" xlink:href="#mad30e3b244" y="337.52"/>
      </g>
     </g>
     <g id="text_14">
      <!-- 10000 -->
      <g transform="translate(421.753139 352.118438)scale(0.1 -0.1)">
       <use xlink:href="#DejaVuSans-49"/>
       <use x="63.623047" xlink:href="#DejaVuSans-48"/>
       <use x="127.246094" xlink:href="#DejaVuSans-48"/>
       <use x="190.869141" xlink:href="#DejaVuSans-48"/>
       <use x="254.492188" xlink:href="#DejaVuSans-48"/>
      </g>
     </g>
    </g>
    <g id="xtick_8">
     <g id="line2d_15">
      <g>
       <use style="stroke:#000000;stroke-width:0.8;" x="488.479598" xlink:href="#mad30e3b244" y="337.52"/>
      </g>
     </g>
     <g id="text_15">
      <!-- 20000 -->
      <g transform="translate(472.573348 352.118438)scale(0.1 -0.1)">
       <use xlink:href="#DejaVuSans-50"/>
       <use x="63.623047" xlink:href="#DejaVuSans-48"/>
       <use x="127.246094" xlink:href="#DejaVuSans-48"/>
       <use x="190.869141" xlink:href="#DejaVuSans-48"/>
       <use x="254.492188" xlink:href="#DejaVuSans-48"/>
      </g>
     </g>
    </g>
    <g id="xtick_9">
     <g id="line2d_16">
      <g>
       <use style="stroke:#000000;stroke-width:0.8;" x="539.299807" xlink:href="#mad30e3b244" y="337.52"/>
      </g>
     </g>
     <g id="text_16">
      <!-- 30000 -->
      <g transform="translate(523.393557 352.118438)scale(0.1 -0.1)">
       <use xlink:href="#DejaVuSans-51"/>
       <use x="63.623047" xlink:href="#DejaVuSans-48"/>
       <use x="127.246094" xlink:href="#DejaVuSans-48"/>
       <use x="190.869141" xlink:href="#DejaVuSans-48"/>
       <use x="254.492188" xlink:href="#DejaVuSans-48"/>
      </g>
     </g>
    </g>
    <g id="xtick_10">
     <g id="line2d_17">
      <g>
       <use style="stroke:#000000;stroke-width:0.8;" x="590.120016" xlink:href="#mad30e3b244" y="337.52"/>
      </g>
     </g>
     <g id="text_17">
      <!-- 40000 -->
      <g transform="translate(574.213766 352.118438)scale(0.1 -0.1)">
       <use xlink:href="#DejaVuSans-52"/>
       <use x="63.623047" xlink:href="#DejaVuSans-48"/>
       <use x="127.246094" xlink:href="#DejaVuSans-48"/>
       <use x="190.869141" xlink:href="#DejaVuSans-48"/>
       <use x="254.492188" xlink:href="#DejaVuSans-48"/>
      </g>
     </g>
    </g>
    <g id="xtick_11">
     <g id="line2d_18">
      <g>
       <use style="stroke:#000000;stroke-width:0.8;" x="640.940225" xlink:href="#mad30e3b244" y="337.52"/>
      </g>
     </g>
     <g id="text_18">
      <!-- 50000 -->
      <g transform="translate(625.033975 352.118438)scale(0.1 -0.1)">
       <use xlink:href="#DejaVuSans-53"/>
       <use x="63.623047" xlink:href="#DejaVuSans-48"/>
       <use x="127.246094" xlink:href="#DejaVuSans-48"/>
       <use x="190.869141" xlink:href="#DejaVuSans-48"/>
       <use x="254.492188" xlink:href="#DejaVuSans-48"/>
      </g>
     </g>
    </g>
    <g id="xtick_12">
     <g id="line2d_19">
      <g>
       <use style="stroke:#000000;stroke-width:0.8;" x="691.760433" xlink:href="#mad30e3b244" y="337.52"/>
      </g>
     </g>
     <g id="text_19">
      <!-- 60000 -->
      <g transform="translate(675.854183 352.118438)scale(0.1 -0.1)">
       <use xlink:href="#DejaVuSans-54"/>
       <use x="63.623047" xlink:href="#DejaVuSans-48"/>
       <use x="127.246094" xlink:href="#DejaVuSans-48"/>
       <use x="190.869141" xlink:href="#DejaVuSans-48"/>
       <use x="254.492188" xlink:href="#DejaVuSans-48"/>
      </g>
     </g>
    </g>
   </g>
   <g id="matplotlib.axis_4">
    <g id="ytick_7">
     <g id="line2d_20">
      <g>
       <use style="stroke:#000000;stroke-width:0.8;" x="386.89" xlink:href="#ma9e64c480c" y="337.52"/>
      </g>
     </g>
     <g id="text_20">
      <!-- 0 -->
      <g transform="translate(373.5275 341.319219)scale(0.1 -0.1)">
       <use xlink:href="#DejaVuSans-48"/>
      </g>
     </g>
    </g>
    <g id="ytick_8">
     <g id="line2d_21">
      <g>
       <use style="stroke:#000000;stroke-width:0.8;" x="386.89" xlink:href="#ma9e64c480c" y="275.392"/>
      </g>
     </g>
     <g id="text_21">
      <!-- 2 -->
      <g transform="translate(373.5275 279.191219)scale(0.1 -0.1)">
       <use xlink:href="#DejaVuSans-50"/>
      </g>
     </g>
    </g>
    <g id="ytick_9">
     <g id="line2d_22">
      <g>
       <use style="stroke:#000000;stroke-width:0.8;" x="386.89" xlink:href="#ma9e64c480c" y="213.264"/>
      </g>
     </g>
     <g id="text_22">
      <!-- 4 -->
      <g transform="translate(373.5275 217.063219)scale(0.1 -0.1)">
       <use xlink:href="#DejaVuSans-52"/>
      </g>
     </g>
    </g>
    <g id="ytick_10">
     <g id="line2d_23">
      <g>
       <use style="stroke:#000000;stroke-width:0.8;" x="386.89" xlink:href="#ma9e64c480c" y="151.136"/>
      </g>
     </g>
     <g id="text_23">
      <!-- 6 -->
      <g transform="translate(373.5275 154.935219)scale(0.1 -0.1)">
       <use xlink:href="#DejaVuSans-54"/>
      </g>
     </g>
    </g>
    <g id="ytick_11">
     <g id="line2d_24">
      <g>
       <use style="stroke:#000000;stroke-width:0.8;" x="386.89" xlink:href="#ma9e64c480c" y="89.008"/>
      </g>
     </g>
     <g id="text_24">
      <!-- 8 -->
      <g transform="translate(373.5275 92.807219)scale(0.1 -0.1)">
       <use xlink:href="#DejaVuSans-56"/>
      </g>
     </g>
    </g>
    <g id="ytick_12">
     <g id="line2d_25">
      <g>
       <use style="stroke:#000000;stroke-width:0.8;" x="386.89" xlink:href="#ma9e64c480c" y="26.88"/>
      </g>
     </g>
     <g id="text_25">
      <!-- 10 -->
      <g transform="translate(367.165 30.679219)scale(0.1 -0.1)">
       <use xlink:href="#DejaVuSans-49"/>
       <use x="63.623047" xlink:href="#DejaVuSans-48"/>
      </g>
     </g>
    </g>
   </g>
   <g id="line2d_26">
    <path clip-path="url(#p3e6c7670f0)" d="M 386.91541 275.392 
L 386.91541 272.2856 
L 387.321972 272.2856 
L 387.321972 269.1792 
L 390.498235 269.1792 
L 390.498235 266.0728 
L 390.549055 266.0728 
L 390.549055 262.9664 
L 390.828566 262.9664 
L 390.828566 259.86 
L 391.158898 259.86 
L 391.158898 256.7536 
L 391.590869 256.7536 
L 391.590869 253.6472 
L 392.251532 253.6472 
L 392.251532 250.5408 
L 397.460603 250.5408 
L 397.460603 247.4344 
L 401.983602 247.4344 
L 401.983602 244.328 
L 402.339344 244.328 
" style="fill:none;stroke:#1f77b4;stroke-linecap:square;stroke-width:1.5;"/>
   </g>
   <g id="patch_8">
    <path d="M 386.89 337.52 
L 386.89 26.88 
" style="fill:none;stroke:#000000;stroke-linecap:square;stroke-linejoin:miter;stroke-width:0.8;"/>
   </g>
   <g id="patch_9">
    <path d="M 712.8 337.52 
L 712.8 26.88 
" style="fill:none;stroke:#000000;stroke-linecap:square;stroke-linejoin:miter;stroke-width:0.8;"/>
   </g>
   <g id="patch_10">
    <path d="M 386.89 337.52 
L 712.8 337.52 
" style="fill:none;stroke:#000000;stroke-linecap:square;stroke-linejoin:miter;stroke-width:0.8;"/>
   </g>
   <g id="patch_11">
    <path d="M 386.89 26.88 
L 712.8 26.88 
" style="fill:none;stroke:#000000;stroke-linecap:square;stroke-linejoin:miter;stroke-width:0.8;"/>
   </g>
   <g id="text_26">
    <!-- aflfast -->
    <defs>
     <path d="M 44.28125 53.078125 
L 44.28125 44.578125 
Q 40.484375 46.53125 36.375 47.5 
Q 32.28125 48.484375 27.875 48.484375 
Q 21.1875 48.484375 17.84375 46.4375 
Q 14.5 44.390625 14.5 40.28125 
Q 14.5 37.15625 16.890625 35.375 
Q 19.28125 33.59375 26.515625 31.984375 
L 29.59375 31.296875 
Q 39.15625 29.25 43.1875 25.515625 
Q 47.21875 21.78125 47.21875 15.09375 
Q 47.21875 7.46875 41.1875 3.015625 
Q 35.15625 -1.421875 24.609375 -1.421875 
Q 20.21875 -1.421875 15.453125 -0.5625 
Q 10.6875 0.296875 5.421875 2 
L 5.421875 11.28125 
Q 10.40625 8.6875 15.234375 7.390625 
Q 20.0625 6.109375 24.8125 6.109375 
Q 31.15625 6.109375 34.5625 8.28125 
Q 37.984375 10.453125 37.984375 14.40625 
Q 37.984375 18.0625 35.515625 20.015625 
Q 33.0625 21.96875 24.703125 23.78125 
L 21.578125 24.515625 
Q 13.234375 26.265625 9.515625 29.90625 
Q 5.8125 33.546875 5.8125 39.890625 
Q 5.8125 47.609375 11.28125 51.796875 
Q 16.75 56 26.8125 56 
Q 31.78125 56 36.171875 55.265625 
Q 40.578125 54.546875 44.28125 53.078125 
z
" id="DejaVuSans-115"/>
    </defs>
    <g transform="translate(531.122187 20.88)scale(0.12 -0.12)">
     <use xlink:href="#DejaVuSans-97"/>
     <use x="61.279297" xlink:href="#DejaVuSans-102"/>
     <use x="96.484375" xlink:href="#DejaVuSans-108"/>
     <use x="124.267578" xlink:href="#DejaVuSans-102"/>
     <use x="159.472656" xlink:href="#DejaVuSans-97"/>
     <use x="220.751953" xlink:href="#DejaVuSans-115"/>
     <use x="272.851562" xlink:href="#DejaVuSans-116"/>
    </g>
   </g>
  </g>
  <g id="axes_3">
   <g id="patch_12">
    <path d="M 743.29 337.52 
L 1069.2 337.52 
L 1069.2 26.88 
L 743.29 26.88 
z
" style="fill:#ffffff;"/>
   </g>
   <g id="PolyCollection_3">
    <defs>
     <path d="M 743.417051 -494.122446 
L 743.417051 -308.114354 
L 743.442461 -444.608 
L 744.153944 -439.01648 
L 746.796594 -439.75072 
L 747.609718 -441.796237 
L 748.16874 -444.605412 
L 749.744167 -447.962912 
L 750.68434 -451.774226 
L 753.276171 -456.019017 
L 760.111489 -460.76128 
L 765.549252 -466.267106 
L 766.946807 -475.672 
L 766.946807 -475.672 
L 766.946807 -475.672 
L 765.549252 -478.864094 
L 760.111489 -478.15712 
L 753.276171 -476.686583 
L 750.68434 -474.718574 
L 749.744167 -472.317088 
L 748.16874 -469.461788 
L 747.609718 -466.058163 
L 746.796594 -461.89088 
L 744.153944 -456.41232 
L 743.442461 -444.608 
L 743.417051 -494.122446 
z
" id="m4659d0c99f" style="stroke:#0000ff;stroke-opacity:0.1;"/>
    </defs>
    <g clip-path="url(#p2c69835dc5)">
     <use style="fill:#0000ff;fill-opacity:0.1;stroke:#0000ff;stroke-opacity:0.1;" x="0" xlink:href="#m4659d0c99f" y="720"/>
    </g>
   </g>
   <g id="matplotlib.axis_5">
    <g id="xtick_13">
     <g id="line2d_27">
      <g>
       <use style="stroke:#000000;stroke-width:0.8;" x="794.059389" xlink:href="#mad30e3b244" y="337.52"/>
      </g>
     </g>
     <g id="text_27">
      <!-- 10000 -->
      <g transform="translate(778.153139 352.118438)scale(0.1 -0.1)">
       <use xlink:href="#DejaVuSans-49"/>
       <use x="63.623047" xlink:href="#DejaVuSans-48"/>
       <use x="127.246094" xlink:href="#DejaVuSans-48"/>
       <use x="190.869141" xlink:href="#DejaVuSans-48"/>
       <use x="254.492188" xlink:href="#DejaVuSans-48"/>
      </g>
     </g>
    </g>
    <g id="xtick_14">
     <g id="line2d_28">
      <g>
       <use style="stroke:#000000;stroke-width:0.8;" x="844.879598" xlink:href="#mad30e3b244" y="337.52"/>
      </g>
     </g>
     <g id="text_28">
      <!-- 20000 -->
      <g transform="translate(828.973348 352.118438)scale(0.1 -0.1)">
       <use xlink:href="#DejaVuSans-50"/>
       <use x="63.623047" xlink:href="#DejaVuSans-48"/>
       <use x="127.246094" xlink:href="#DejaVuSans-48"/>
       <use x="190.869141" xlink:href="#DejaVuSans-48"/>
       <use x="254.492188" xlink:href="#DejaVuSans-48"/>
      </g>
     </g>
    </g>
    <g id="xtick_15">
     <g id="line2d_29">
      <g>
       <use style="stroke:#000000;stroke-width:0.8;" x="895.699807" xlink:href="#mad30e3b244" y="337.52"/>
      </g>
     </g>
     <g id="text_29">
      <!-- 30000 -->
      <g transform="translate(879.793557 352.118438)scale(0.1 -0.1)">
       <use xlink:href="#DejaVuSans-51"/>
       <use x="63.623047" xlink:href="#DejaVuSans-48"/>
       <use x="127.246094" xlink:href="#DejaVuSans-48"/>
       <use x="190.869141" xlink:href="#DejaVuSans-48"/>
       <use x="254.492188" xlink:href="#DejaVuSans-48"/>
      </g>
     </g>
    </g>
    <g id="xtick_16">
     <g id="line2d_30">
      <g>
       <use style="stroke:#000000;stroke-width:0.8;" x="946.520016" xlink:href="#mad30e3b244" y="337.52"/>
      </g>
     </g>
     <g id="text_30">
      <!-- 40000 -->
      <g transform="translate(930.613766 352.118438)scale(0.1 -0.1)">
       <use xlink:href="#DejaVuSans-52"/>
       <use x="63.623047" xlink:href="#DejaVuSans-48"/>
       <use x="127.246094" xlink:href="#DejaVuSans-48"/>
       <use x="190.869141" xlink:href="#DejaVuSans-48"/>
       <use x="254.492188" xlink:href="#DejaVuSans-48"/>
      </g>
     </g>
    </g>
    <g id="xtick_17">
     <g id="line2d_31">
      <g>
       <use style="stroke:#000000;stroke-width:0.8;" x="997.340225" xlink:href="#mad30e3b244" y="337.52"/>
      </g>
     </g>
     <g id="text_31">
      <!-- 50000 -->
      <g transform="translate(981.433975 352.118438)scale(0.1 -0.1)">
       <use xlink:href="#DejaVuSans-53"/>
       <use x="63.623047" xlink:href="#DejaVuSans-48"/>
       <use x="127.246094" xlink:href="#DejaVuSans-48"/>
       <use x="190.869141" xlink:href="#DejaVuSans-48"/>
       <use x="254.492188" xlink:href="#DejaVuSans-48"/>
      </g>
     </g>
    </g>
    <g id="xtick_18">
     <g id="line2d_32">
      <g>
       <use style="stroke:#000000;stroke-width:0.8;" x="1048.160433" xlink:href="#mad30e3b244" y="337.52"/>
      </g>
     </g>
     <g id="text_32">
      <!-- 60000 -->
      <g transform="translate(1032.254183 352.118438)scale(0.1 -0.1)">
       <use xlink:href="#DejaVuSans-54"/>
       <use x="63.623047" xlink:href="#DejaVuSans-48"/>
       <use x="127.246094" xlink:href="#DejaVuSans-48"/>
       <use x="190.869141" xlink:href="#DejaVuSans-48"/>
       <use x="254.492188" xlink:href="#DejaVuSans-48"/>
      </g>
     </g>
    </g>
   </g>
   <g id="matplotlib.axis_6">
    <g id="ytick_13">
     <g id="line2d_33">
      <g>
       <use style="stroke:#000000;stroke-width:0.8;" x="743.29" xlink:href="#ma9e64c480c" y="337.52"/>
      </g>
     </g>
     <g id="text_33">
      <!-- 0 -->
      <g transform="translate(729.9275 341.319219)scale(0.1 -0.1)">
       <use xlink:href="#DejaVuSans-48"/>
      </g>
     </g>
    </g>
    <g id="ytick_14">
     <g id="line2d_34">
      <g>
       <use style="stroke:#000000;stroke-width:0.8;" x="743.29" xlink:href="#ma9e64c480c" y="275.392"/>
      </g>
     </g>
     <g id="text_34">
      <!-- 2 -->
      <g transform="translate(729.9275 279.191219)scale(0.1 -0.1)">
       <use xlink:href="#DejaVuSans-50"/>
      </g>
     </g>
    </g>
    <g id="ytick_15">
     <g id="line2d_35">
      <g>
       <use style="stroke:#000000;stroke-width:0.8;" x="743.29" xlink:href="#ma9e64c480c" y="213.264"/>
      </g>
     </g>
     <g id="text_35">
      <!-- 4 -->
      <g transform="translate(729.9275 217.063219)scale(0.1 -0.1)">
       <use xlink:href="#DejaVuSans-52"/>
      </g>
     </g>
    </g>
    <g id="ytick_16">
     <g id="line2d_36">
      <g>
       <use style="stroke:#000000;stroke-width:0.8;" x="743.29" xlink:href="#ma9e64c480c" y="151.136"/>
      </g>
     </g>
     <g id="text_36">
      <!-- 6 -->
      <g transform="translate(729.9275 154.935219)scale(0.1 -0.1)">
       <use xlink:href="#DejaVuSans-54"/>
      </g>
     </g>
    </g>
    <g id="ytick_17">
     <g id="line2d_37">
      <g>
       <use style="stroke:#000000;stroke-width:0.8;" x="743.29" xlink:href="#ma9e64c480c" y="89.008"/>
      </g>
     </g>
     <g id="text_37">
      <!-- 8 -->
      <g transform="translate(729.9275 92.807219)scale(0.1 -0.1)">
       <use xlink:href="#DejaVuSans-56"/>
      </g>
     </g>
    </g>
    <g id="ytick_18">
     <g id="line2d_38">
      <g>
       <use style="stroke:#000000;stroke-width:0.8;" x="743.29" xlink:href="#ma9e64c480c" y="26.88"/>
      </g>
     </g>
     <g id="text_38">
      <!-- 10 -->
      <g transform="translate(723.565 30.679219)scale(0.1 -0.1)">
       <use xlink:href="#DejaVuSans-49"/>
       <use x="63.623047" xlink:href="#DejaVuSans-48"/>
      </g>
     </g>
    </g>
   </g>
   <g id="line2d_39">
    <path clip-path="url(#p2c69835dc5)" d="M 743.417051 318.8816 
L 743.417051 275.392 
L 743.442461 275.392 
L 743.442461 272.2856 
L 744.153944 272.2856 
L 744.153944 269.1792 
L 746.796594 269.1792 
L 746.796594 266.0728 
L 747.609718 266.0728 
L 747.609718 262.9664 
L 748.16874 262.9664 
L 748.16874 259.86 
L 749.744167 259.86 
L 749.744167 256.7536 
L 750.68434 256.7536 
L 750.68434 253.6472 
L 753.276171 253.6472 
L 753.276171 250.5408 
L 760.111489 250.5408 
L 760.111489 247.4344 
L 765.549252 247.4344 
L 765.549252 244.328 
L 766.946807 244.328 
" style="fill:none;stroke:#1f77b4;stroke-linecap:square;stroke-width:1.5;"/>
   </g>
   <g id="patch_13">
    <path d="M 743.29 337.52 
L 743.29 26.88 
" style="fill:none;stroke:#000000;stroke-linecap:square;stroke-linejoin:miter;stroke-width:0.8;"/>
   </g>
   <g id="patch_14">
    <path d="M 1069.2 337.52 
L 1069.2 26.88 
" style="fill:none;stroke:#000000;stroke-linecap:square;stroke-linejoin:miter;stroke-width:0.8;"/>
   </g>
   <g id="patch_15">
    <path d="M 743.29 337.52 
L 1069.2 337.52 
" style="fill:none;stroke:#000000;stroke-linecap:square;stroke-linejoin:miter;stroke-width:0.8;"/>
   </g>
   <g id="patch_16">
    <path d="M 743.29 26.88 
L 1069.2 26.88 
" style="fill:none;stroke:#000000;stroke-linecap:square;stroke-linejoin:miter;stroke-width:0.8;"/>
   </g>
   <g id="text_39">
    <!-- aflplusplus -->
    <defs>
     <path d="M 8.5 21.578125 
L 8.5 54.6875 
L 17.484375 54.6875 
L 17.484375 21.921875 
Q 17.484375 14.15625 20.5 10.265625 
Q 23.53125 6.390625 29.59375 6.390625 
Q 36.859375 6.390625 41.078125 11.03125 
Q 45.3125 15.671875 45.3125 23.6875 
L 45.3125 54.6875 
L 54.296875 54.6875 
L 54.296875 0 
L 45.3125 0 
L 45.3125 8.40625 
Q 42.046875 3.421875 37.71875 1 
Q 33.40625 -1.421875 27.6875 -1.421875 
Q 18.265625 -1.421875 13.375 4.4375 
Q 8.5 10.296875 8.5 21.578125 
z
M 31.109375 56 
z
" id="DejaVuSans-117"/>
    </defs>
    <g transform="translate(873.980937 20.88)scale(0.12 -0.12)">
     <use xlink:href="#DejaVuSans-97"/>
     <use x="61.279297" xlink:href="#DejaVuSans-102"/>
     <use x="96.484375" xlink:href="#DejaVuSans-108"/>
     <use x="124.267578" xlink:href="#DejaVuSans-112"/>
     <use x="187.744141" xlink:href="#DejaVuSans-108"/>
     <use x="215.527344" xlink:href="#DejaVuSans-117"/>
     <use x="278.90625" xlink:href="#DejaVuSans-115"/>
     <use x="331.005859" xlink:href="#DejaVuSans-112"/>
     <use x="394.482422" xlink:href="#DejaVuSans-108"/>
     <use x="422.265625" xlink:href="#DejaVuSans-117"/>
     <use x="485.644531" xlink:href="#DejaVuSans-115"/>
    </g>
   </g>
  </g>
  <g id="axes_4">
   <g id="patch_17">
    <path d="M 30.49 692.12 
L 356.4 692.12 
L 356.4 381.48 
L 30.49 381.48 
z
" style="fill:#ffffff;"/>
   </g>
   <g id="PolyCollection_4">
    <defs>
     <path d="M 30.49 -90.008 
L 30.49 -90.008 
L 30.54082 -85.15072 
L 30.642461 -87.196237 
L 30.667871 -90.005412 
L 30.693281 -97.174226 
L 30.845741 -101.419017 
L 31.023612 -106.16128 
L 31.074432 -111.667106 
L 31.735095 -121.072 
L 35.038409 -118.286261 
L 74.525711 -119.67412 
L 74.957683 -121.936287 
L 80.395445 -124.724761 
L 94.498053 -127.90608 
L 104.967016 -131.424941 
L 109.617065 -132.280123 
L 114.317935 -136.309709 
L 118.637652 -138.101444 
L 133.426333 -140.345585 
L 134.442737 -142.906974 
L 152.839653 -145.711015 
L 171.5669 -148.711736 
L 173.90463 -153.49152 
L 179.240752 -158.591734 
L 183.331778 -161.994654 
L 192.174495 -163.76313 
L 273.410599 -167.495014 
L 354.621293 -171.39568 
L 356.37459 -177.754241 
L 356.37459 -188.645759 
L 356.37459 -188.645759 
L 354.621293 -188.79152 
L 273.410599 -186.479386 
L 192.174495 -183.99847 
L 183.331778 -179.554146 
L 179.240752 -176.744266 
L 173.90463 -175.63168 
L 171.5669 -174.198664 
L 152.839653 -170.986585 
L 134.442737 -167.577826 
L 133.426333 -163.926415 
L 118.637652 -159.957756 
L 114.317935 -155.536691 
L 109.617065 -153.353477 
L 104.967016 -147.995859 
L 94.498053 -145.30192 
L 80.395445 -142.270439 
L 74.957683 -138.846113 
L 74.525711 -134.89548 
L 35.038409 -130.070539 
L 31.735095 -121.072 
L 31.074432 -124.264094 
L 31.023612 -123.55712 
L 30.845741 -122.086583 
L 30.693281 -120.118574 
L 30.667871 -114.861788 
L 30.642461 -111.458163 
L 30.54082 -107.29088 
L 30.49 -90.008 
z
" id="mc73abf339f" style="stroke:#0000ff;stroke-opacity:0.1;"/>
    </defs>
    <g clip-path="url(#p0e858ae1d3)">
     <use style="fill:#0000ff;fill-opacity:0.1;stroke:#0000ff;stroke-opacity:0.1;" x="0" xlink:href="#mc73abf339f" y="720"/>
    </g>
   </g>
   <g id="matplotlib.axis_7">
    <g id="xtick_19">
     <g id="line2d_40">
      <g>
       <use style="stroke:#000000;stroke-width:0.8;" x="81.259389" xlink:href="#mad30e3b244" y="692.12"/>
      </g>
     </g>
     <g id="text_40">
      <!-- 10000 -->
      <g transform="translate(65.353139 706.718438)scale(0.1 -0.1)">
       <use xlink:href="#DejaVuSans-49"/>
       <use x="63.623047" xlink:href="#DejaVuSans-48"/>
       <use x="127.246094" xlink:href="#DejaVuSans-48"/>
       <use x="190.869141" xlink:href="#DejaVuSans-48"/>
       <use x="254.492188" xlink:href="#DejaVuSans-48"/>
      </g>
     </g>
    </g>
    <g id="xtick_20">
     <g id="line2d_41">
      <g>
       <use style="stroke:#000000;stroke-width:0.8;" x="132.079598" xlink:href="#mad30e3b244" y="692.12"/>
      </g>
     </g>
     <g id="text_41">
      <!-- 20000 -->
      <g transform="translate(116.173348 706.718438)scale(0.1 -0.1)">
       <use xlink:href="#DejaVuSans-50"/>
       <use x="63.623047" xlink:href="#DejaVuSans-48"/>
       <use x="127.246094" xlink:href="#DejaVuSans-48"/>
       <use x="190.869141" xlink:href="#DejaVuSans-48"/>
       <use x="254.492188" xlink:href="#DejaVuSans-48"/>
      </g>
     </g>
    </g>
    <g id="xtick_21">
     <g id="line2d_42">
      <g>
       <use style="stroke:#000000;stroke-width:0.8;" x="182.899807" xlink:href="#mad30e3b244" y="692.12"/>
      </g>
     </g>
     <g id="text_42">
      <!-- 30000 -->
      <g transform="translate(166.993557 706.718438)scale(0.1 -0.1)">
       <use xlink:href="#DejaVuSans-51"/>
       <use x="63.623047" xlink:href="#DejaVuSans-48"/>
       <use x="127.246094" xlink:href="#DejaVuSans-48"/>
       <use x="190.869141" xlink:href="#DejaVuSans-48"/>
       <use x="254.492188" xlink:href="#DejaVuSans-48"/>
      </g>
     </g>
    </g>
    <g id="xtick_22">
     <g id="line2d_43">
      <g>
       <use style="stroke:#000000;stroke-width:0.8;" x="233.720016" xlink:href="#mad30e3b244" y="692.12"/>
      </g>
     </g>
     <g id="text_43">
      <!-- 40000 -->
      <g transform="translate(217.813766 706.718438)scale(0.1 -0.1)">
       <use xlink:href="#DejaVuSans-52"/>
       <use x="63.623047" xlink:href="#DejaVuSans-48"/>
       <use x="127.246094" xlink:href="#DejaVuSans-48"/>
       <use x="190.869141" xlink:href="#DejaVuSans-48"/>
       <use x="254.492188" xlink:href="#DejaVuSans-48"/>
      </g>
     </g>
    </g>
    <g id="xtick_23">
     <g id="line2d_44">
      <g>
       <use style="stroke:#000000;stroke-width:0.8;" x="284.540225" xlink:href="#mad30e3b244" y="692.12"/>
      </g>
     </g>
     <g id="text_44">
      <!-- 50000 -->
      <g transform="translate(268.633975 706.718438)scale(0.1 -0.1)">
       <use xlink:href="#DejaVuSans-53"/>
       <use x="63.623047" xlink:href="#DejaVuSans-48"/>
       <use x="127.246094" xlink:href="#DejaVuSans-48"/>
       <use x="190.869141" xlink:href="#DejaVuSans-48"/>
       <use x="254.492188" xlink:href="#DejaVuSans-48"/>
      </g>
     </g>
    </g>
    <g id="xtick_24">
     <g id="line2d_45">
      <g>
       <use style="stroke:#000000;stroke-width:0.8;" x="335.360433" xlink:href="#mad30e3b244" y="692.12"/>
      </g>
     </g>
     <g id="text_45">
      <!-- 60000 -->
      <g transform="translate(319.454183 706.718438)scale(0.1 -0.1)">
       <use xlink:href="#DejaVuSans-54"/>
       <use x="63.623047" xlink:href="#DejaVuSans-48"/>
       <use x="127.246094" xlink:href="#DejaVuSans-48"/>
       <use x="190.869141" xlink:href="#DejaVuSans-48"/>
       <use x="254.492188" xlink:href="#DejaVuSans-48"/>
      </g>
     </g>
    </g>
   </g>
   <g id="matplotlib.axis_8">
    <g id="ytick_19">
     <g id="line2d_46">
      <g>
       <use style="stroke:#000000;stroke-width:0.8;" x="30.49" xlink:href="#ma9e64c480c" y="692.12"/>
      </g>
     </g>
     <g id="text_46">
      <!-- 0 -->
      <g transform="translate(17.1275 695.919219)scale(0.1 -0.1)">
       <use xlink:href="#DejaVuSans-48"/>
      </g>
     </g>
    </g>
    <g id="ytick_20">
     <g id="line2d_47">
      <g>
       <use style="stroke:#000000;stroke-width:0.8;" x="30.49" xlink:href="#ma9e64c480c" y="629.992"/>
      </g>
     </g>
     <g id="text_47">
      <!-- 2 -->
      <g transform="translate(17.1275 633.791219)scale(0.1 -0.1)">
       <use xlink:href="#DejaVuSans-50"/>
      </g>
     </g>
    </g>
    <g id="ytick_21">
     <g id="line2d_48">
      <g>
       <use style="stroke:#000000;stroke-width:0.8;" x="30.49" xlink:href="#ma9e64c480c" y="567.864"/>
      </g>
     </g>
     <g id="text_48">
      <!-- 4 -->
      <g transform="translate(17.1275 571.663219)scale(0.1 -0.1)">
       <use xlink:href="#DejaVuSans-52"/>
      </g>
     </g>
    </g>
    <g id="ytick_22">
     <g id="line2d_49">
      <g>
       <use style="stroke:#000000;stroke-width:0.8;" x="30.49" xlink:href="#ma9e64c480c" y="505.736"/>
      </g>
     </g>
     <g id="text_49">
      <!-- 6 -->
      <g transform="translate(17.1275 509.535219)scale(0.1 -0.1)">
       <use xlink:href="#DejaVuSans-54"/>
      </g>
     </g>
    </g>
    <g id="ytick_23">
     <g id="line2d_50">
      <g>
       <use style="stroke:#000000;stroke-width:0.8;" x="30.49" xlink:href="#ma9e64c480c" y="443.608"/>
      </g>
     </g>
     <g id="text_50">
      <!-- 8 -->
      <g transform="translate(17.1275 447.407219)scale(0.1 -0.1)">
       <use xlink:href="#DejaVuSans-56"/>
      </g>
     </g>
    </g>
    <g id="ytick_24">
     <g id="line2d_51">
      <g>
       <use style="stroke:#000000;stroke-width:0.8;" x="30.49" xlink:href="#ma9e64c480c" y="381.48"/>
      </g>
     </g>
     <g id="text_51">
      <!-- 10 -->
      <g transform="translate(10.765 385.279219)scale(0.1 -0.1)">
       <use xlink:href="#DejaVuSans-49"/>
       <use x="63.623047" xlink:href="#DejaVuSans-48"/>
      </g>
     </g>
    </g>
   </g>
   <g id="line2d_52">
    <path clip-path="url(#p0e858ae1d3)" d="M 30.49 629.992 
L 30.49 623.7792 
L 30.54082 623.7792 
L 30.54082 620.6728 
L 30.642461 620.6728 
L 30.642461 617.5664 
L 30.667871 617.5664 
L 30.667871 611.3536 
L 30.693281 611.3536 
L 30.693281 608.2472 
L 30.845741 608.2472 
L 30.845741 605.1408 
L 31.023612 605.1408 
L 31.023612 602.0344 
L 31.074432 602.0344 
L 31.074432 598.928 
L 31.735095 598.928 
L 31.735095 595.8216 
L 35.038409 595.8216 
L 35.038409 592.7152 
L 74.525711 592.7152 
L 74.525711 589.6088 
L 74.957683 589.6088 
L 74.957683 586.5024 
L 80.395445 586.5024 
L 80.395445 583.396 
L 94.498053 583.396 
L 94.498053 580.2896 
L 104.967016 580.2896 
L 104.967016 577.1832 
L 109.617065 577.1832 
L 109.617065 574.0768 
L 114.317935 574.0768 
L 114.317935 570.9704 
L 118.637652 570.9704 
L 118.637652 567.864 
L 133.426333 567.864 
L 133.426333 564.7576 
L 134.442737 564.7576 
L 134.442737 561.6512 
L 152.839653 561.6512 
L 152.839653 558.5448 
L 171.5669 558.5448 
L 171.5669 555.4384 
L 173.90463 555.4384 
L 173.90463 552.332 
L 179.240752 552.332 
L 179.240752 549.2256 
L 183.331778 549.2256 
L 183.331778 546.1192 
L 192.174495 546.1192 
L 192.174495 543.0128 
L 273.410599 543.0128 
L 273.410599 539.9064 
L 354.621293 539.9064 
L 354.621293 536.8 
L 356.37459 536.8 
" style="fill:none;stroke:#1f77b4;stroke-linecap:square;stroke-width:1.5;"/>
   </g>
   <g id="patch_18">
    <path d="M 30.49 692.12 
L 30.49 381.48 
" style="fill:none;stroke:#000000;stroke-linecap:square;stroke-linejoin:miter;stroke-width:0.8;"/>
   </g>
   <g id="patch_19">
    <path d="M 356.4 692.12 
L 356.4 381.48 
" style="fill:none;stroke:#000000;stroke-linecap:square;stroke-linejoin:miter;stroke-width:0.8;"/>
   </g>
   <g id="patch_20">
    <path d="M 30.49 692.12 
L 356.4 692.12 
" style="fill:none;stroke:#000000;stroke-linecap:square;stroke-linejoin:miter;stroke-width:0.8;"/>
   </g>
   <g id="patch_21">
    <path d="M 30.49 381.48 
L 356.4 381.48 
" style="fill:none;stroke:#000000;stroke-linecap:square;stroke-linejoin:miter;stroke-width:0.8;"/>
   </g>
   <g id="text_52">
    <!-- honggfuzz -->
    <defs>
     <path d="M 54.890625 33.015625 
L 54.890625 0 
L 45.90625 0 
L 45.90625 32.71875 
Q 45.90625 40.484375 42.875 44.328125 
Q 39.84375 48.1875 33.796875 48.1875 
Q 26.515625 48.1875 22.3125 43.546875 
Q 18.109375 38.921875 18.109375 30.90625 
L 18.109375 0 
L 9.078125 0 
L 9.078125 75.984375 
L 18.109375 75.984375 
L 18.109375 46.1875 
Q 21.34375 51.125 25.703125 53.5625 
Q 30.078125 56 35.796875 56 
Q 45.21875 56 50.046875 50.171875 
Q 54.890625 44.34375 54.890625 33.015625 
z
" id="DejaVuSans-104"/>
     <path d="M 54.890625 33.015625 
L 54.890625 0 
L 45.90625 0 
L 45.90625 32.71875 
Q 45.90625 40.484375 42.875 44.328125 
Q 39.84375 48.1875 33.796875 48.1875 
Q 26.515625 48.1875 22.3125 43.546875 
Q 18.109375 38.921875 18.109375 30.90625 
L 18.109375 0 
L 9.078125 0 
L 9.078125 54.6875 
L 18.109375 54.6875 
L 18.109375 46.1875 
Q 21.34375 51.125 25.703125 53.5625 
Q 30.078125 56 35.796875 56 
Q 45.21875 56 50.046875 50.171875 
Q 54.890625 44.34375 54.890625 33.015625 
z
" id="DejaVuSans-110"/>
     <path d="M 45.40625 27.984375 
Q 45.40625 37.75 41.375 43.109375 
Q 37.359375 48.484375 30.078125 48.484375 
Q 22.859375 48.484375 18.828125 43.109375 
Q 14.796875 37.75 14.796875 27.984375 
Q 14.796875 18.265625 18.828125 12.890625 
Q 22.859375 7.515625 30.078125 7.515625 
Q 37.359375 7.515625 41.375 12.890625 
Q 45.40625 18.265625 45.40625 27.984375 
z
M 54.390625 6.78125 
Q 54.390625 -7.171875 48.1875 -13.984375 
Q 42 -20.796875 29.203125 -20.796875 
Q 24.46875 -20.796875 20.265625 -20.09375 
Q 16.0625 -19.390625 12.109375 -17.921875 
L 12.109375 -9.1875 
Q 16.0625 -11.328125 19.921875 -12.34375 
Q 23.78125 -13.375 27.78125 -13.375 
Q 36.625 -13.375 41.015625 -8.765625 
Q 45.40625 -4.15625 45.40625 5.171875 
L 45.40625 9.625 
Q 42.625 4.78125 38.28125 2.390625 
Q 33.9375 0 27.875 0 
Q 17.828125 0 11.671875 7.65625 
Q 5.515625 15.328125 5.515625 27.984375 
Q 5.515625 40.671875 11.671875 48.328125 
Q 17.828125 56 27.875 56 
Q 33.9375 56 38.28125 53.609375 
Q 42.625 51.21875 45.40625 46.390625 
L 45.40625 54.6875 
L 54.390625 54.6875 
z
" id="DejaVuSans-103"/>
     <path d="M 5.515625 54.6875 
L 48.1875 54.6875 
L 48.1875 46.484375 
L 14.40625 7.171875 
L 48.1875 7.171875 
L 48.1875 0 
L 4.296875 0 
L 4.296875 8.203125 
L 38.09375 47.515625 
L 5.515625 47.515625 
z
" id="DejaVuSans-122"/>
    </defs>
    <g transform="translate(162.337813 375.48)scale(0.12 -0.12)">
     <use xlink:href="#DejaVuSans-104"/>
     <use x="63.378906" xlink:href="#DejaVuSans-111"/>
     <use x="124.560547" xlink:href="#DejaVuSans-110"/>
     <use x="187.939453" xlink:href="#DejaVuSans-103"/>
     <use x="251.416016" xlink:href="#DejaVuSans-103"/>
     <use x="314.892578" xlink:href="#DejaVuSans-102"/>
     <use x="350.097656" xlink:href="#DejaVuSans-117"/>
     <use x="413.476562" xlink:href="#DejaVuSans-122"/>
     <use x="465.966797" xlink:href="#DejaVuSans-122"/>
    </g>
   </g>
  </g>
  <g id="axes_5">
   <g id="patch_22">
    <path d="M 386.89 692.12 
L 712.8 692.12 
L 712.8 381.48 
L 386.89 381.48 
z
" style="fill:#ffffff;"/>
   </g>
   <g id="PolyCollection_5">
    <defs>
     <path d="M 386.91541 -90.008 
L 386.91541 -90.008 
L 387.499843 -84.41648 
L 387.576073 -85.15072 
L 387.753944 -87.196237 
L 387.779354 -90.005412 
L 387.906404 -93.362912 
L 395.732716 -97.174226 
L 395.732716 -120.118574 
L 395.732716 -120.118574 
L 387.906404 -117.717088 
L 387.779354 -114.861788 
L 387.753944 -111.458163 
L 387.576073 -107.29088 
L 387.499843 -101.81232 
L 386.91541 -90.008 
z
" id="m8d84c126b5" style="stroke:#0000ff;stroke-opacity:0.1;"/>
    </defs>
    <g clip-path="url(#pfe8214451f)">
     <use style="fill:#0000ff;fill-opacity:0.1;stroke:#0000ff;stroke-opacity:0.1;" x="0" xlink:href="#m8d84c126b5" y="720"/>
    </g>
   </g>
   <g id="matplotlib.axis_9">
    <g id="xtick_25">
     <g id="line2d_53">
      <g>
       <use style="stroke:#000000;stroke-width:0.8;" x="437.659389" xlink:href="#mad30e3b244" y="692.12"/>
      </g>
     </g>
     <g id="text_53">
      <!-- 10000 -->
      <g transform="translate(421.753139 706.718438)scale(0.1 -0.1)">
       <use xlink:href="#DejaVuSans-49"/>
       <use x="63.623047" xlink:href="#DejaVuSans-48"/>
       <use x="127.246094" xlink:href="#DejaVuSans-48"/>
       <use x="190.869141" xlink:href="#DejaVuSans-48"/>
       <use x="254.492188" xlink:href="#DejaVuSans-48"/>
      </g>
     </g>
    </g>
    <g id="xtick_26">
     <g id="line2d_54">
      <g>
       <use style="stroke:#000000;stroke-width:0.8;" x="488.479598" xlink:href="#mad30e3b244" y="692.12"/>
      </g>
     </g>
     <g id="text_54">
      <!-- 20000 -->
      <g transform="translate(472.573348 706.718438)scale(0.1 -0.1)">
       <use xlink:href="#DejaVuSans-50"/>
       <use x="63.623047" xlink:href="#DejaVuSans-48"/>
       <use x="127.246094" xlink:href="#DejaVuSans-48"/>
       <use x="190.869141" xlink:href="#DejaVuSans-48"/>
       <use x="254.492188" xlink:href="#DejaVuSans-48"/>
      </g>
     </g>
    </g>
    <g id="xtick_27">
     <g id="line2d_55">
      <g>
       <use style="stroke:#000000;stroke-width:0.8;" x="539.299807" xlink:href="#mad30e3b244" y="692.12"/>
      </g>
     </g>
     <g id="text_55">
      <!-- 30000 -->
      <g transform="translate(523.393557 706.718438)scale(0.1 -0.1)">
       <use xlink:href="#DejaVuSans-51"/>
       <use x="63.623047" xlink:href="#DejaVuSans-48"/>
       <use x="127.246094" xlink:href="#DejaVuSans-48"/>
       <use x="190.869141" xlink:href="#DejaVuSans-48"/>
       <use x="254.492188" xlink:href="#DejaVuSans-48"/>
      </g>
     </g>
    </g>
    <g id="xtick_28">
     <g id="line2d_56">
      <g>
       <use style="stroke:#000000;stroke-width:0.8;" x="590.120016" xlink:href="#mad30e3b244" y="692.12"/>
      </g>
     </g>
     <g id="text_56">
      <!-- 40000 -->
      <g transform="translate(574.213766 706.718438)scale(0.1 -0.1)">
       <use xlink:href="#DejaVuSans-52"/>
       <use x="63.623047" xlink:href="#DejaVuSans-48"/>
       <use x="127.246094" xlink:href="#DejaVuSans-48"/>
       <use x="190.869141" xlink:href="#DejaVuSans-48"/>
       <use x="254.492188" xlink:href="#DejaVuSans-48"/>
      </g>
     </g>
    </g>
    <g id="xtick_29">
     <g id="line2d_57">
      <g>
       <use style="stroke:#000000;stroke-width:0.8;" x="640.940225" xlink:href="#mad30e3b244" y="692.12"/>
      </g>
     </g>
     <g id="text_57">
      <!-- 50000 -->
      <g transform="translate(625.033975 706.718438)scale(0.1 -0.1)">
       <use xlink:href="#DejaVuSans-53"/>
       <use x="63.623047" xlink:href="#DejaVuSans-48"/>
       <use x="127.246094" xlink:href="#DejaVuSans-48"/>
       <use x="190.869141" xlink:href="#DejaVuSans-48"/>
       <use x="254.492188" xlink:href="#DejaVuSans-48"/>
      </g>
     </g>
    </g>
    <g id="xtick_30">
     <g id="line2d_58">
      <g>
       <use style="stroke:#000000;stroke-width:0.8;" x="691.760433" xlink:href="#mad30e3b244" y="692.12"/>
      </g>
     </g>
     <g id="text_58">
      <!-- 60000 -->
      <g transform="translate(675.854183 706.718438)scale(0.1 -0.1)">
       <use xlink:href="#DejaVuSans-54"/>
       <use x="63.623047" xlink:href="#DejaVuSans-48"/>
       <use x="127.246094" xlink:href="#DejaVuSans-48"/>
       <use x="190.869141" xlink:href="#DejaVuSans-48"/>
       <use x="254.492188" xlink:href="#DejaVuSans-48"/>
      </g>
     </g>
    </g>
   </g>
   <g id="matplotlib.axis_10">
    <g id="ytick_25">
     <g id="line2d_59">
      <g>
       <use style="stroke:#000000;stroke-width:0.8;" x="386.89" xlink:href="#ma9e64c480c" y="692.12"/>
      </g>
     </g>
     <g id="text_59">
      <!-- 0 -->
      <g transform="translate(373.5275 695.919219)scale(0.1 -0.1)">
       <use xlink:href="#DejaVuSans-48"/>
      </g>
     </g>
    </g>
    <g id="ytick_26">
     <g id="line2d_60">
      <g>
       <use style="stroke:#000000;stroke-width:0.8;" x="386.89" xlink:href="#ma9e64c480c" y="629.992"/>
      </g>
     </g>
     <g id="text_60">
      <!-- 2 -->
      <g transform="translate(373.5275 633.791219)scale(0.1 -0.1)">
       <use xlink:href="#DejaVuSans-50"/>
      </g>
     </g>
    </g>
    <g id="ytick_27">
     <g id="line2d_61">
      <g>
       <use style="stroke:#000000;stroke-width:0.8;" x="386.89" xlink:href="#ma9e64c480c" y="567.864"/>
      </g>
     </g>
     <g id="text_61">
      <!-- 4 -->
      <g transform="translate(373.5275 571.663219)scale(0.1 -0.1)">
       <use xlink:href="#DejaVuSans-52"/>
      </g>
     </g>
    </g>
    <g id="ytick_28">
     <g id="line2d_62">
      <g>
       <use style="stroke:#000000;stroke-width:0.8;" x="386.89" xlink:href="#ma9e64c480c" y="505.736"/>
      </g>
     </g>
     <g id="text_62">
      <!-- 6 -->
      <g transform="translate(373.5275 509.535219)scale(0.1 -0.1)">
       <use xlink:href="#DejaVuSans-54"/>
      </g>
     </g>
    </g>
    <g id="ytick_29">
     <g id="line2d_63">
      <g>
       <use style="stroke:#000000;stroke-width:0.8;" x="386.89" xlink:href="#ma9e64c480c" y="443.608"/>
      </g>
     </g>
     <g id="text_63">
      <!-- 8 -->
      <g transform="translate(373.5275 447.407219)scale(0.1 -0.1)">
       <use xlink:href="#DejaVuSans-56"/>
      </g>
     </g>
    </g>
    <g id="ytick_30">
     <g id="line2d_64">
      <g>
       <use style="stroke:#000000;stroke-width:0.8;" x="386.89" xlink:href="#ma9e64c480c" y="381.48"/>
      </g>
     </g>
     <g id="text_64">
      <!-- 10 -->
      <g transform="translate(367.165 385.279219)scale(0.1 -0.1)">
       <use xlink:href="#DejaVuSans-49"/>
       <use x="63.623047" xlink:href="#DejaVuSans-48"/>
      </g>
     </g>
    </g>
   </g>
   <g id="line2d_65">
    <path clip-path="url(#pfe8214451f)" d="M 386.91541 629.992 
L 386.91541 626.8856 
L 387.499843 626.8856 
L 387.499843 623.7792 
L 387.576073 623.7792 
L 387.576073 620.6728 
L 387.753944 620.6728 
L 387.753944 617.5664 
L 387.779354 617.5664 
L 387.779354 614.46 
L 387.906404 614.46 
L 387.906404 611.3536 
L 395.732716 611.3536 
" style="fill:none;stroke:#1f77b4;stroke-linecap:square;stroke-width:1.5;"/>
   </g>
   <g id="patch_23">
    <path d="M 386.89 692.12 
L 386.89 381.48 
" style="fill:none;stroke:#000000;stroke-linecap:square;stroke-linejoin:miter;stroke-width:0.8;"/>
   </g>
   <g id="patch_24">
    <path d="M 712.8 692.12 
L 712.8 381.48 
" style="fill:none;stroke:#000000;stroke-linecap:square;stroke-linejoin:miter;stroke-width:0.8;"/>
   </g>
   <g id="patch_25">
    <path d="M 386.89 692.12 
L 712.8 692.12 
" style="fill:none;stroke:#000000;stroke-linecap:square;stroke-linejoin:miter;stroke-width:0.8;"/>
   </g>
   <g id="patch_26">
    <path d="M 386.89 381.48 
L 712.8 381.48 
" style="fill:none;stroke:#000000;stroke-linecap:square;stroke-linejoin:miter;stroke-width:0.8;"/>
   </g>
   <g id="text_65">
    <!-- fairfuzz -->
    <defs>
     <path d="M 9.421875 54.6875 
L 18.40625 54.6875 
L 18.40625 0 
L 9.421875 0 
z
M 9.421875 75.984375 
L 18.40625 75.984375 
L 18.40625 64.59375 
L 9.421875 64.59375 
z
" id="DejaVuSans-105"/>
     <path d="M 41.109375 46.296875 
Q 39.59375 47.171875 37.8125 47.578125 
Q 36.03125 48 33.890625 48 
Q 26.265625 48 22.1875 43.046875 
Q 18.109375 38.09375 18.109375 28.8125 
L 18.109375 0 
L 9.078125 0 
L 9.078125 54.6875 
L 18.109375 54.6875 
L 18.109375 46.1875 
Q 20.953125 51.171875 25.484375 53.578125 
Q 30.03125 56 36.53125 56 
Q 37.453125 56 38.578125 55.875 
Q 39.703125 55.765625 41.0625 55.515625 
z
" id="DejaVuSans-114"/>
    </defs>
    <g transform="translate(527.709687 375.48)scale(0.12 -0.12)">
     <use xlink:href="#DejaVuSans-102"/>
     <use x="35.205078" xlink:href="#DejaVuSans-97"/>
     <use x="96.484375" xlink:href="#DejaVuSans-105"/>
     <use x="124.267578" xlink:href="#DejaVuSans-114"/>
     <use x="165.380859" xlink:href="#DejaVuSans-102"/>
     <use x="200.585938" xlink:href="#DejaVuSans-117"/>
     <use x="263.964844" xlink:href="#DejaVuSans-122"/>
     <use x="316.455078" xlink:href="#DejaVuSans-122"/>
    </g>
   </g>
  </g>
  <g id="axes_6">
   <g id="patch_27">
    <path d="M 743.29 692.12 
L 1069.2 692.12 
L 1069.2 381.48 
L 743.29 381.48 
z
" style="fill:#ffffff;"/>
   </g>
   <g id="PolyCollection_6">
    <defs>
     <path d="M 743.31541 -90.008 
L 743.31541 -90.008 
L 743.823612 -85.15072 
L 743.899843 -87.196237 
L 746.999875 -93.362912 
L 747.762178 -97.174226 
L 755.156519 -101.419017 
L 770.580452 -106.16128 
L 771.190295 -111.667106 
L 771.190295 -124.264094 
L 771.190295 -124.264094 
L 770.580452 -123.55712 
L 755.156519 -122.086583 
L 747.762178 -120.118574 
L 746.999875 -117.717088 
L 743.899843 -111.458163 
L 743.823612 -107.29088 
L 743.31541 -90.008 
z
" id="m664d6f7d63" style="stroke:#0000ff;stroke-opacity:0.1;"/>
    </defs>
    <g clip-path="url(#pc159dba509)">
     <use style="fill:#0000ff;fill-opacity:0.1;stroke:#0000ff;stroke-opacity:0.1;" x="0" xlink:href="#m664d6f7d63" y="720"/>
    </g>
   </g>
   <g id="matplotlib.axis_11">
    <g id="xtick_31">
     <g id="line2d_66">
      <g>
       <use style="stroke:#000000;stroke-width:0.8;" x="794.059389" xlink:href="#mad30e3b244" y="692.12"/>
      </g>
     </g>
     <g id="text_66">
      <!-- 10000 -->
      <g transform="translate(778.153139 706.718438)scale(0.1 -0.1)">
       <use xlink:href="#DejaVuSans-49"/>
       <use x="63.623047" xlink:href="#DejaVuSans-48"/>
       <use x="127.246094" xlink:href="#DejaVuSans-48"/>
       <use x="190.869141" xlink:href="#DejaVuSans-48"/>
       <use x="254.492188" xlink:href="#DejaVuSans-48"/>
      </g>
     </g>
    </g>
    <g id="xtick_32">
     <g id="line2d_67">
      <g>
       <use style="stroke:#000000;stroke-width:0.8;" x="844.879598" xlink:href="#mad30e3b244" y="692.12"/>
      </g>
     </g>
     <g id="text_67">
      <!-- 20000 -->
      <g transform="translate(828.973348 706.718438)scale(0.1 -0.1)">
       <use xlink:href="#DejaVuSans-50"/>
       <use x="63.623047" xlink:href="#DejaVuSans-48"/>
       <use x="127.246094" xlink:href="#DejaVuSans-48"/>
       <use x="190.869141" xlink:href="#DejaVuSans-48"/>
       <use x="254.492188" xlink:href="#DejaVuSans-48"/>
      </g>
     </g>
    </g>
    <g id="xtick_33">
     <g id="line2d_68">
      <g>
       <use style="stroke:#000000;stroke-width:0.8;" x="895.699807" xlink:href="#mad30e3b244" y="692.12"/>
      </g>
     </g>
     <g id="text_68">
      <!-- 30000 -->
      <g transform="translate(879.793557 706.718438)scale(0.1 -0.1)">
       <use xlink:href="#DejaVuSans-51"/>
       <use x="63.623047" xlink:href="#DejaVuSans-48"/>
       <use x="127.246094" xlink:href="#DejaVuSans-48"/>
       <use x="190.869141" xlink:href="#DejaVuSans-48"/>
       <use x="254.492188" xlink:href="#DejaVuSans-48"/>
      </g>
     </g>
    </g>
    <g id="xtick_34">
     <g id="line2d_69">
      <g>
       <use style="stroke:#000000;stroke-width:0.8;" x="946.520016" xlink:href="#mad30e3b244" y="692.12"/>
      </g>
     </g>
     <g id="text_69">
      <!-- 40000 -->
      <g transform="translate(930.613766 706.718438)scale(0.1 -0.1)">
       <use xlink:href="#DejaVuSans-52"/>
       <use x="63.623047" xlink:href="#DejaVuSans-48"/>
       <use x="127.246094" xlink:href="#DejaVuSans-48"/>
       <use x="190.869141" xlink:href="#DejaVuSans-48"/>
       <use x="254.492188" xlink:href="#DejaVuSans-48"/>
      </g>
     </g>
    </g>
    <g id="xtick_35">
     <g id="line2d_70">
      <g>
       <use style="stroke:#000000;stroke-width:0.8;" x="997.340225" xlink:href="#mad30e3b244" y="692.12"/>
      </g>
     </g>
     <g id="text_70">
      <!-- 50000 -->
      <g transform="translate(981.433975 706.718438)scale(0.1 -0.1)">
       <use xlink:href="#DejaVuSans-53"/>
       <use x="63.623047" xlink:href="#DejaVuSans-48"/>
       <use x="127.246094" xlink:href="#DejaVuSans-48"/>
       <use x="190.869141" xlink:href="#DejaVuSans-48"/>
       <use x="254.492188" xlink:href="#DejaVuSans-48"/>
      </g>
     </g>
    </g>
    <g id="xtick_36">
     <g id="line2d_71">
      <g>
       <use style="stroke:#000000;stroke-width:0.8;" x="1048.160433" xlink:href="#mad30e3b244" y="692.12"/>
      </g>
     </g>
     <g id="text_71">
      <!-- 60000 -->
      <g transform="translate(1032.254183 706.718438)scale(0.1 -0.1)">
       <use xlink:href="#DejaVuSans-54"/>
       <use x="63.623047" xlink:href="#DejaVuSans-48"/>
       <use x="127.246094" xlink:href="#DejaVuSans-48"/>
       <use x="190.869141" xlink:href="#DejaVuSans-48"/>
       <use x="254.492188" xlink:href="#DejaVuSans-48"/>
      </g>
     </g>
    </g>
   </g>
   <g id="matplotlib.axis_12">
    <g id="ytick_31">
     <g id="line2d_72">
      <g>
       <use style="stroke:#000000;stroke-width:0.8;" x="743.29" xlink:href="#ma9e64c480c" y="692.12"/>
      </g>
     </g>
     <g id="text_72">
      <!-- 0 -->
      <g transform="translate(729.9275 695.919219)scale(0.1 -0.1)">
       <use xlink:href="#DejaVuSans-48"/>
      </g>
     </g>
    </g>
    <g id="ytick_32">
     <g id="line2d_73">
      <g>
       <use style="stroke:#000000;stroke-width:0.8;" x="743.29" xlink:href="#ma9e64c480c" y="629.992"/>
      </g>
     </g>
     <g id="text_73">
      <!-- 2 -->
      <g transform="translate(729.9275 633.791219)scale(0.1 -0.1)">
       <use xlink:href="#DejaVuSans-50"/>
      </g>
     </g>
    </g>
    <g id="ytick_33">
     <g id="line2d_74">
      <g>
       <use style="stroke:#000000;stroke-width:0.8;" x="743.29" xlink:href="#ma9e64c480c" y="567.864"/>
      </g>
     </g>
     <g id="text_74">
      <!-- 4 -->
      <g transform="translate(729.9275 571.663219)scale(0.1 -0.1)">
       <use xlink:href="#DejaVuSans-52"/>
      </g>
     </g>
    </g>
    <g id="ytick_34">
     <g id="line2d_75">
      <g>
       <use style="stroke:#000000;stroke-width:0.8;" x="743.29" xlink:href="#ma9e64c480c" y="505.736"/>
      </g>
     </g>
     <g id="text_75">
      <!-- 6 -->
      <g transform="translate(729.9275 509.535219)scale(0.1 -0.1)">
       <use xlink:href="#DejaVuSans-54"/>
      </g>
     </g>
    </g>
    <g id="ytick_35">
     <g id="line2d_76">
      <g>
       <use style="stroke:#000000;stroke-width:0.8;" x="743.29" xlink:href="#ma9e64c480c" y="443.608"/>
      </g>
     </g>
     <g id="text_76">
      <!-- 8 -->
      <g transform="translate(729.9275 447.407219)scale(0.1 -0.1)">
       <use xlink:href="#DejaVuSans-56"/>
      </g>
     </g>
    </g>
    <g id="ytick_36">
     <g id="line2d_77">
      <g>
       <use style="stroke:#000000;stroke-width:0.8;" x="743.29" xlink:href="#ma9e64c480c" y="381.48"/>
      </g>
     </g>
     <g id="text_77">
      <!-- 10 -->
      <g transform="translate(723.565 385.279219)scale(0.1 -0.1)">
       <use xlink:href="#DejaVuSans-49"/>
       <use x="63.623047" xlink:href="#DejaVuSans-48"/>
      </g>
     </g>
    </g>
   </g>
   <g id="line2d_78">
    <path clip-path="url(#pc159dba509)" d="M 743.31541 629.992 
L 743.31541 623.7792 
L 743.823612 623.7792 
L 743.823612 620.6728 
L 743.899843 620.6728 
L 743.899843 614.46 
L 746.999875 614.46 
L 746.999875 611.3536 
L 747.762178 611.3536 
L 747.762178 608.2472 
L 755.156519 608.2472 
L 755.156519 605.1408 
L 770.580452 605.1408 
L 770.580452 602.0344 
L 771.190295 602.0344 
" style="fill:none;stroke:#1f77b4;stroke-linecap:square;stroke-width:1.5;"/>
   </g>
   <g id="patch_28">
    <path d="M 743.29 692.12 
L 743.29 381.48 
" style="fill:none;stroke:#000000;stroke-linecap:square;stroke-linejoin:miter;stroke-width:0.8;"/>
   </g>
   <g id="patch_29">
    <path d="M 1069.2 692.12 
L 1069.2 381.48 
" style="fill:none;stroke:#000000;stroke-linecap:square;stroke-linejoin:miter;stroke-width:0.8;"/>
   </g>
   <g id="patch_30">
    <path d="M 743.29 692.12 
L 1069.2 692.12 
" style="fill:none;stroke:#000000;stroke-linecap:square;stroke-linejoin:miter;stroke-width:0.8;"/>
   </g>
   <g id="patch_31">
    <path d="M 743.29 381.48 
L 1069.2 381.48 
" style="fill:none;stroke:#000000;stroke-linecap:square;stroke-linejoin:miter;stroke-width:0.8;"/>
   </g>
   <g id="text_78">
    <!-- afl -->
    <g transform="translate(898.789062 375.48)scale(0.12 -0.12)">
     <use xlink:href="#DejaVuSans-97"/>
     <use x="61.279297" xlink:href="#DejaVuSans-102"/>
     <use x="96.484375" xlink:href="#DejaVuSans-108"/>
    </g>
   </g>
  </g>
 </g>
 <defs>
  <clipPath id="pe27645debd">
   <rect height="310.64" width="325.91" x="30.49" y="26.88"/>
  </clipPath>
  <clipPath id="p3e6c7670f0">
   <rect height="310.64" width="325.91" x="386.89" y="26.88"/>
  </clipPath>
  <clipPath id="p2c69835dc5">
   <rect height="310.64" width="325.91" x="743.29" y="26.88"/>
  </clipPath>
  <clipPath id="p0e858ae1d3">
   <rect height="310.64" width="325.91" x="30.49" y="381.48"/>
  </clipPath>
  <clipPath id="pfe8214451f">
   <rect height="310.64" width="325.91" x="386.89" y="381.48"/>
  </clipPath>
  <clipPath id="pc159dba509">
   <rect height="310.64" width="325.91" x="743.29" y="381.48"/>
  </clipPath>
 </defs>
</svg>
