<?xml version="1.0" encoding="utf-8" standalone="no"?>
<!DOCTYPE svg PUBLIC "-//W3C//DTD SVG 1.1//EN"
  "http://www.w3.org/Graphics/SVG/1.1/DTD/svg11.dtd">
<!-- Created with matplotlib (https://matplotlib.org/) -->
<svg height="720pt" version="1.1" viewBox="0 0 1080 720" width="1080pt" xmlns="http://www.w3.org/2000/svg" xmlns:xlink="http://www.w3.org/1999/xlink">
 <defs>
  <style type="text/css">
*{stroke-linecap:butt;stroke-linejoin:round;}
  </style>
 </defs>
 <g id="figure_1">
  <g id="patch_1">
   <path d="M 0 720 
L 1080 720 
L 1080 0 
L 0 0 
z
" style="fill:#ffffff;"/>
  </g>
  <g id="axes_1">
   <g id="patch_2">
    <path d="M 24.19 337.52 
L 345.463647 337.52 
L 345.463647 26.88 
L 24.19 26.88 
z
" style="fill:#ffffff;"/>
   </g>
   <g id="PolyCollection_1">
    <defs>
     <path d="M 26.710566 -467.918942 
L 26.710566 -343.637058 
L 26.730257 -421.31 
L 81.513174 -404.4366 
L 81.808553 -403.707067 
L 82.08424 -406.13091 
L 82.123624 -410.210168 
L 82.300851 -415.356067 
L 82.478078 -421.305147 
L 82.49777 -427.975402 
L 82.655305 -435.461378 
L 82.793149 -444.240137 
L 86.90876 -460.14 
L 228.789031 -453.1506 
L 238.339611 -454.0684 
L 245.192399 -456.625297 
L 257.283237 -460.136765 
L 261.713918 -464.33364 
L 266.420287 -469.097783 
L 296.548922 -474.403771 
L 330.379637 -480.3316 
L 338.729011 -487.213883 
L 345.18796 -498.97 
L 345.18796 -498.97 
L 345.18796 -498.97 
L 338.729011 -502.960117 
L 330.379637 -502.0764 
L 296.548922 -500.238229 
L 266.420287 -497.778217 
L 261.713918 -494.77636 
L 257.283237 -491.207235 
L 245.192399 -486.952703 
L 238.339611 -481.7436 
L 228.789031 -474.8954 
L 86.90876 -460.14 
L 82.793149 -468.273863 
L 82.655305 -469.286622 
L 82.49777 -469.006598 
L 82.478078 -467.910853 
L 82.300851 -466.093933 
L 82.123624 -463.473832 
L 82.08424 -459.78709 
L 81.808553 -454.444933 
L 81.513174 -445.9494 
L 26.730257 -421.31 
L 26.710566 -467.918942 
z
" id="m9585a4a3e4" style="stroke:#0000ff;stroke-opacity:0.1;"/>
    </defs>
    <g clip-path="url(#pac36ef38e5)">
     <use style="fill:#0000ff;fill-opacity:0.1;stroke:#0000ff;stroke-opacity:0.1;" x="0" xlink:href="#m9585a4a3e4" y="720"/>
    </g>
   </g>
   <g id="matplotlib.axis_1">
    <g id="xtick_1">
     <g id="line2d_1">
      <defs>
       <path d="M 0 0 
L 0 3.5 
" id="m608bbe5ad6" style="stroke:#000000;stroke-width:0.8;"/>
      </defs>
      <g>
       <use style="stroke:#000000;stroke-width:0.8;" x="63.435993" xlink:href="#m608bbe5ad6" y="337.52"/>
      </g>
     </g>
     <g id="text_1">
      <!-- 10000 -->
      <defs>
       <path d="M 12.40625 8.296875 
L 28.515625 8.296875 
L 28.515625 63.921875 
L 10.984375 60.40625 
L 10.984375 69.390625 
L 28.421875 72.90625 
L 38.28125 72.90625 
L 38.28125 8.296875 
L 54.390625 8.296875 
L 54.390625 0 
L 12.40625 0 
z
" id="DejaVuSans-49"/>
       <path d="M 31.78125 66.40625 
Q 24.171875 66.40625 20.328125 58.90625 
Q 16.5 51.421875 16.5 36.375 
Q 16.5 21.390625 20.328125 13.890625 
Q 24.171875 6.390625 31.78125 6.390625 
Q 39.453125 6.390625 43.28125 13.890625 
Q 47.125 21.390625 47.125 36.375 
Q 47.125 51.421875 43.28125 58.90625 
Q 39.453125 66.40625 31.78125 66.40625 
z
M 31.78125 74.21875 
Q 44.046875 74.21875 50.515625 64.515625 
Q 56.984375 54.828125 56.984375 36.375 
Q 56.984375 17.96875 50.515625 8.265625 
Q 44.046875 -1.421875 31.78125 -1.421875 
Q 19.53125 -1.421875 13.0625 8.265625 
Q 6.59375 17.96875 6.59375 36.375 
Q 6.59375 54.828125 13.0625 64.515625 
Q 19.53125 74.21875 31.78125 74.21875 
z
" id="DejaVuSans-48"/>
      </defs>
      <g transform="translate(47.529743 352.118438)scale(0.1 -0.1)">
       <use xlink:href="#DejaVuSans-49"/>
       <use x="63.623047" xlink:href="#DejaVuSans-48"/>
       <use x="127.246094" xlink:href="#DejaVuSans-48"/>
       <use x="190.869141" xlink:href="#DejaVuSans-48"/>
       <use x="254.492188" xlink:href="#DejaVuSans-48"/>
      </g>
     </g>
    </g>
    <g id="xtick_2">
     <g id="line2d_2">
      <g>
       <use style="stroke:#000000;stroke-width:0.8;" x="102.81983" xlink:href="#m608bbe5ad6" y="337.52"/>
      </g>
     </g>
     <g id="text_2">
      <!-- 20000 -->
      <defs>
       <path d="M 19.1875 8.296875 
L 53.609375 8.296875 
L 53.609375 0 
L 7.328125 0 
L 7.328125 8.296875 
Q 12.9375 14.109375 22.625 23.890625 
Q 32.328125 33.6875 34.8125 36.53125 
Q 39.546875 41.84375 41.421875 45.53125 
Q 43.3125 49.21875 43.3125 52.78125 
Q 43.3125 58.59375 39.234375 62.25 
Q 35.15625 65.921875 28.609375 65.921875 
Q 23.96875 65.921875 18.8125 64.3125 
Q 13.671875 62.703125 7.8125 59.421875 
L 7.8125 69.390625 
Q 13.765625 71.78125 18.9375 73 
Q 24.125 74.21875 28.421875 74.21875 
Q 39.75 74.21875 46.484375 68.546875 
Q 53.21875 62.890625 53.21875 53.421875 
Q 53.21875 48.921875 51.53125 44.890625 
Q 49.859375 40.875 45.40625 35.40625 
Q 44.1875 33.984375 37.640625 27.21875 
Q 31.109375 20.453125 19.1875 8.296875 
z
" id="DejaVuSans-50"/>
      </defs>
      <g transform="translate(86.91358 352.118438)scale(0.1 -0.1)">
       <use xlink:href="#DejaVuSans-50"/>
       <use x="63.623047" xlink:href="#DejaVuSans-48"/>
       <use x="127.246094" xlink:href="#DejaVuSans-48"/>
       <use x="190.869141" xlink:href="#DejaVuSans-48"/>
       <use x="254.492188" xlink:href="#DejaVuSans-48"/>
      </g>
     </g>
    </g>
    <g id="xtick_3">
     <g id="line2d_3">
      <g>
       <use style="stroke:#000000;stroke-width:0.8;" x="142.203666" xlink:href="#m608bbe5ad6" y="337.52"/>
      </g>
     </g>
     <g id="text_3">
      <!-- 30000 -->
      <defs>
       <path d="M 40.578125 39.3125 
Q 47.65625 37.796875 51.625 33 
Q 55.609375 28.21875 55.609375 21.1875 
Q 55.609375 10.40625 48.1875 4.484375 
Q 40.765625 -1.421875 27.09375 -1.421875 
Q 22.515625 -1.421875 17.65625 -0.515625 
Q 12.796875 0.390625 7.625 2.203125 
L 7.625 11.71875 
Q 11.71875 9.328125 16.59375 8.109375 
Q 21.484375 6.890625 26.8125 6.890625 
Q 36.078125 6.890625 40.9375 10.546875 
Q 45.796875 14.203125 45.796875 21.1875 
Q 45.796875 27.640625 41.28125 31.265625 
Q 36.765625 34.90625 28.71875 34.90625 
L 20.21875 34.90625 
L 20.21875 43.015625 
L 29.109375 43.015625 
Q 36.375 43.015625 40.234375 45.921875 
Q 44.09375 48.828125 44.09375 54.296875 
Q 44.09375 59.90625 40.109375 62.90625 
Q 36.140625 65.921875 28.71875 65.921875 
Q 24.65625 65.921875 20.015625 65.03125 
Q 15.375 64.15625 9.8125 62.3125 
L 9.8125 71.09375 
Q 15.4375 72.65625 20.34375 73.4375 
Q 25.25 74.21875 29.59375 74.21875 
Q 40.828125 74.21875 47.359375 69.109375 
Q 53.90625 64.015625 53.90625 55.328125 
Q 53.90625 49.265625 50.4375 45.09375 
Q 46.96875 40.921875 40.578125 39.3125 
z
" id="DejaVuSans-51"/>
      </defs>
      <g transform="translate(126.297416 352.118438)scale(0.1 -0.1)">
       <use xlink:href="#DejaVuSans-51"/>
       <use x="63.623047" xlink:href="#DejaVuSans-48"/>
       <use x="127.246094" xlink:href="#DejaVuSans-48"/>
       <use x="190.869141" xlink:href="#DejaVuSans-48"/>
       <use x="254.492188" xlink:href="#DejaVuSans-48"/>
      </g>
     </g>
    </g>
    <g id="xtick_4">
     <g id="line2d_4">
      <g>
       <use style="stroke:#000000;stroke-width:0.8;" x="181.587503" xlink:href="#m608bbe5ad6" y="337.52"/>
      </g>
     </g>
     <g id="text_4">
      <!-- 40000 -->
      <defs>
       <path d="M 37.796875 64.3125 
L 12.890625 25.390625 
L 37.796875 25.390625 
z
M 35.203125 72.90625 
L 47.609375 72.90625 
L 47.609375 25.390625 
L 58.015625 25.390625 
L 58.015625 17.1875 
L 47.609375 17.1875 
L 47.609375 0 
L 37.796875 0 
L 37.796875 17.1875 
L 4.890625 17.1875 
L 4.890625 26.703125 
z
" id="DejaVuSans-52"/>
      </defs>
      <g transform="translate(165.681253 352.118438)scale(0.1 -0.1)">
       <use xlink:href="#DejaVuSans-52"/>
       <use x="63.623047" xlink:href="#DejaVuSans-48"/>
       <use x="127.246094" xlink:href="#DejaVuSans-48"/>
       <use x="190.869141" xlink:href="#DejaVuSans-48"/>
       <use x="254.492188" xlink:href="#DejaVuSans-48"/>
      </g>
     </g>
    </g>
    <g id="xtick_5">
     <g id="line2d_5">
      <g>
       <use style="stroke:#000000;stroke-width:0.8;" x="220.971339" xlink:href="#m608bbe5ad6" y="337.52"/>
      </g>
     </g>
     <g id="text_5">
      <!-- 50000 -->
      <defs>
       <path d="M 10.796875 72.90625 
L 49.515625 72.90625 
L 49.515625 64.59375 
L 19.828125 64.59375 
L 19.828125 46.734375 
Q 21.96875 47.46875 24.109375 47.828125 
Q 26.265625 48.1875 28.421875 48.1875 
Q 40.625 48.1875 47.75 41.5 
Q 54.890625 34.8125 54.890625 23.390625 
Q 54.890625 11.625 47.5625 5.09375 
Q 40.234375 -1.421875 26.90625 -1.421875 
Q 22.3125 -1.421875 17.546875 -0.640625 
Q 12.796875 0.140625 7.71875 1.703125 
L 7.71875 11.625 
Q 12.109375 9.234375 16.796875 8.0625 
Q 21.484375 6.890625 26.703125 6.890625 
Q 35.15625 6.890625 40.078125 11.328125 
Q 45.015625 15.765625 45.015625 23.390625 
Q 45.015625 31 40.078125 35.4375 
Q 35.15625 39.890625 26.703125 39.890625 
Q 22.75 39.890625 18.8125 39.015625 
Q 14.890625 38.140625 10.796875 36.28125 
z
" id="DejaVuSans-53"/>
      </defs>
      <g transform="translate(205.065089 352.118438)scale(0.1 -0.1)">
       <use xlink:href="#DejaVuSans-53"/>
       <use x="63.623047" xlink:href="#DejaVuSans-48"/>
       <use x="127.246094" xlink:href="#DejaVuSans-48"/>
       <use x="190.869141" xlink:href="#DejaVuSans-48"/>
       <use x="254.492188" xlink:href="#DejaVuSans-48"/>
      </g>
     </g>
    </g>
    <g id="xtick_6">
     <g id="line2d_6">
      <g>
       <use style="stroke:#000000;stroke-width:0.8;" x="260.355176" xlink:href="#m608bbe5ad6" y="337.52"/>
      </g>
     </g>
     <g id="text_6">
      <!-- 60000 -->
      <defs>
       <path d="M 33.015625 40.375 
Q 26.375 40.375 22.484375 35.828125 
Q 18.609375 31.296875 18.609375 23.390625 
Q 18.609375 15.53125 22.484375 10.953125 
Q 26.375 6.390625 33.015625 6.390625 
Q 39.65625 6.390625 43.53125 10.953125 
Q 47.40625 15.53125 47.40625 23.390625 
Q 47.40625 31.296875 43.53125 35.828125 
Q 39.65625 40.375 33.015625 40.375 
z
M 52.59375 71.296875 
L 52.59375 62.3125 
Q 48.875 64.0625 45.09375 64.984375 
Q 41.3125 65.921875 37.59375 65.921875 
Q 27.828125 65.921875 22.671875 59.328125 
Q 17.53125 52.734375 16.796875 39.40625 
Q 19.671875 43.65625 24.015625 45.921875 
Q 28.375 48.1875 33.59375 48.1875 
Q 44.578125 48.1875 50.953125 41.515625 
Q 57.328125 34.859375 57.328125 23.390625 
Q 57.328125 12.15625 50.6875 5.359375 
Q 44.046875 -1.421875 33.015625 -1.421875 
Q 20.359375 -1.421875 13.671875 8.265625 
Q 6.984375 17.96875 6.984375 36.375 
Q 6.984375 53.65625 15.1875 63.9375 
Q 23.390625 74.21875 37.203125 74.21875 
Q 40.921875 74.21875 44.703125 73.484375 
Q 48.484375 72.75 52.59375 71.296875 
z
" id="DejaVuSans-54"/>
      </defs>
      <g transform="translate(244.448926 352.118438)scale(0.1 -0.1)">
       <use xlink:href="#DejaVuSans-54"/>
       <use x="63.623047" xlink:href="#DejaVuSans-48"/>
       <use x="127.246094" xlink:href="#DejaVuSans-48"/>
       <use x="190.869141" xlink:href="#DejaVuSans-48"/>
       <use x="254.492188" xlink:href="#DejaVuSans-48"/>
      </g>
     </g>
    </g>
    <g id="xtick_7">
     <g id="line2d_7">
      <g>
       <use style="stroke:#000000;stroke-width:0.8;" x="299.739013" xlink:href="#m608bbe5ad6" y="337.52"/>
      </g>
     </g>
     <g id="text_7">
      <!-- 70000 -->
      <defs>
       <path d="M 8.203125 72.90625 
L 55.078125 72.90625 
L 55.078125 68.703125 
L 28.609375 0 
L 18.3125 0 
L 43.21875 64.59375 
L 8.203125 64.59375 
z
" id="DejaVuSans-55"/>
      </defs>
      <g transform="translate(283.832763 352.118438)scale(0.1 -0.1)">
       <use xlink:href="#DejaVuSans-55"/>
       <use x="63.623047" xlink:href="#DejaVuSans-48"/>
       <use x="127.246094" xlink:href="#DejaVuSans-48"/>
       <use x="190.869141" xlink:href="#DejaVuSans-48"/>
       <use x="254.492188" xlink:href="#DejaVuSans-48"/>
      </g>
     </g>
    </g>
    <g id="xtick_8">
     <g id="line2d_8">
      <g>
       <use style="stroke:#000000;stroke-width:0.8;" x="339.122849" xlink:href="#m608bbe5ad6" y="337.52"/>
      </g>
     </g>
     <g id="text_8">
      <!-- 80000 -->
      <defs>
       <path d="M 31.78125 34.625 
Q 24.75 34.625 20.71875 30.859375 
Q 16.703125 27.09375 16.703125 20.515625 
Q 16.703125 13.921875 20.71875 10.15625 
Q 24.75 6.390625 31.78125 6.390625 
Q 38.8125 6.390625 42.859375 10.171875 
Q 46.921875 13.96875 46.921875 20.515625 
Q 46.921875 27.09375 42.890625 30.859375 
Q 38.875 34.625 31.78125 34.625 
z
M 21.921875 38.8125 
Q 15.578125 40.375 12.03125 44.71875 
Q 8.5 49.078125 8.5 55.328125 
Q 8.5 64.0625 14.71875 69.140625 
Q 20.953125 74.21875 31.78125 74.21875 
Q 42.671875 74.21875 48.875 69.140625 
Q 55.078125 64.0625 55.078125 55.328125 
Q 55.078125 49.078125 51.53125 44.71875 
Q 48 40.375 41.703125 38.8125 
Q 48.828125 37.15625 52.796875 32.3125 
Q 56.78125 27.484375 56.78125 20.515625 
Q 56.78125 9.90625 50.3125 4.234375 
Q 43.84375 -1.421875 31.78125 -1.421875 
Q 19.734375 -1.421875 13.25 4.234375 
Q 6.78125 9.90625 6.78125 20.515625 
Q 6.78125 27.484375 10.78125 32.3125 
Q 14.796875 37.15625 21.921875 38.8125 
z
M 18.3125 54.390625 
Q 18.3125 48.734375 21.84375 45.5625 
Q 25.390625 42.390625 31.78125 42.390625 
Q 38.140625 42.390625 41.71875 45.5625 
Q 45.3125 48.734375 45.3125 54.390625 
Q 45.3125 60.0625 41.71875 63.234375 
Q 38.140625 66.40625 31.78125 66.40625 
Q 25.390625 66.40625 21.84375 63.234375 
Q 18.3125 60.0625 18.3125 54.390625 
z
" id="DejaVuSans-56"/>
      </defs>
      <g transform="translate(323.216599 352.118438)scale(0.1 -0.1)">
       <use xlink:href="#DejaVuSans-56"/>
       <use x="63.623047" xlink:href="#DejaVuSans-48"/>
       <use x="127.246094" xlink:href="#DejaVuSans-48"/>
       <use x="190.869141" xlink:href="#DejaVuSans-48"/>
       <use x="254.492188" xlink:href="#DejaVuSans-48"/>
      </g>
     </g>
    </g>
   </g>
   <g id="matplotlib.axis_2">
    <g id="ytick_1">
     <g id="line2d_9">
      <defs>
       <path d="M 0 0 
L -3.5 0 
" id="ma51466cfe6" style="stroke:#000000;stroke-width:0.8;"/>
      </defs>
      <g>
       <use style="stroke:#000000;stroke-width:0.8;" x="24.19" xlink:href="#ma51466cfe6" y="337.52"/>
      </g>
     </g>
     <g id="text_9">
      <!-- 0 -->
      <g transform="translate(10.8275 341.319219)scale(0.1 -0.1)">
       <use xlink:href="#DejaVuSans-48"/>
      </g>
     </g>
    </g>
    <g id="ytick_2">
     <g id="line2d_10">
      <g>
       <use style="stroke:#000000;stroke-width:0.8;" x="24.19" xlink:href="#ma51466cfe6" y="298.69"/>
      </g>
     </g>
     <g id="text_10">
      <!-- 1 -->
      <g transform="translate(10.8275 302.489219)scale(0.1 -0.1)">
       <use xlink:href="#DejaVuSans-49"/>
      </g>
     </g>
    </g>
    <g id="ytick_3">
     <g id="line2d_11">
      <g>
       <use style="stroke:#000000;stroke-width:0.8;" x="24.19" xlink:href="#ma51466cfe6" y="259.86"/>
      </g>
     </g>
     <g id="text_11">
      <!-- 2 -->
      <g transform="translate(10.8275 263.659219)scale(0.1 -0.1)">
       <use xlink:href="#DejaVuSans-50"/>
      </g>
     </g>
    </g>
    <g id="ytick_4">
     <g id="line2d_12">
      <g>
       <use style="stroke:#000000;stroke-width:0.8;" x="24.19" xlink:href="#ma51466cfe6" y="221.03"/>
      </g>
     </g>
     <g id="text_12">
      <!-- 3 -->
      <g transform="translate(10.8275 224.829219)scale(0.1 -0.1)">
       <use xlink:href="#DejaVuSans-51"/>
      </g>
     </g>
    </g>
    <g id="ytick_5">
     <g id="line2d_13">
      <g>
       <use style="stroke:#000000;stroke-width:0.8;" x="24.19" xlink:href="#ma51466cfe6" y="182.2"/>
      </g>
     </g>
     <g id="text_13">
      <!-- 4 -->
      <g transform="translate(10.8275 185.999219)scale(0.1 -0.1)">
       <use xlink:href="#DejaVuSans-52"/>
      </g>
     </g>
    </g>
    <g id="ytick_6">
     <g id="line2d_14">
      <g>
       <use style="stroke:#000000;stroke-width:0.8;" x="24.19" xlink:href="#ma51466cfe6" y="143.37"/>
      </g>
     </g>
     <g id="text_14">
      <!-- 5 -->
      <g transform="translate(10.8275 147.169219)scale(0.1 -0.1)">
       <use xlink:href="#DejaVuSans-53"/>
      </g>
     </g>
    </g>
    <g id="ytick_7">
     <g id="line2d_15">
      <g>
       <use style="stroke:#000000;stroke-width:0.8;" x="24.19" xlink:href="#ma51466cfe6" y="104.54"/>
      </g>
     </g>
     <g id="text_15">
      <!-- 6 -->
      <g transform="translate(10.8275 108.339219)scale(0.1 -0.1)">
       <use xlink:href="#DejaVuSans-54"/>
      </g>
     </g>
    </g>
    <g id="ytick_8">
     <g id="line2d_16">
      <g>
       <use style="stroke:#000000;stroke-width:0.8;" x="24.19" xlink:href="#ma51466cfe6" y="65.71"/>
      </g>
     </g>
     <g id="text_16">
      <!-- 7 -->
      <g transform="translate(10.8275 69.509219)scale(0.1 -0.1)">
       <use xlink:href="#DejaVuSans-55"/>
      </g>
     </g>
    </g>
    <g id="ytick_9">
     <g id="line2d_17">
      <g>
       <use style="stroke:#000000;stroke-width:0.8;" x="24.19" xlink:href="#ma51466cfe6" y="26.88"/>
      </g>
     </g>
     <g id="text_17">
      <!-- 8 -->
      <g transform="translate(10.8275 30.679219)scale(0.1 -0.1)">
       <use xlink:href="#DejaVuSans-56"/>
      </g>
     </g>
    </g>
   </g>
   <g id="line2d_18">
    <path clip-path="url(#pac36ef38e5)" d="M 26.710566 314.222 
L 26.710566 298.69 
L 26.730257 298.69 
L 26.730257 294.807 
L 81.513174 294.807 
L 81.513174 290.924 
L 81.808553 290.924 
L 81.808553 287.041 
L 82.08424 287.041 
L 82.08424 283.158 
L 82.123624 283.158 
L 82.123624 279.275 
L 82.300851 279.275 
L 82.300851 275.392 
L 82.478078 275.392 
L 82.478078 271.509 
L 82.49777 271.509 
L 82.49777 267.626 
L 82.655305 267.626 
L 82.655305 263.743 
L 82.793149 263.743 
L 82.793149 259.86 
L 86.90876 259.86 
L 86.90876 255.977 
L 228.789031 255.977 
L 228.789031 252.094 
L 238.339611 252.094 
L 238.339611 248.211 
L 245.192399 248.211 
L 245.192399 244.328 
L 257.283237 244.328 
L 257.283237 240.445 
L 261.713918 240.445 
L 261.713918 236.562 
L 266.420287 236.562 
L 266.420287 232.679 
L 296.548922 232.679 
L 296.548922 228.796 
L 330.379637 228.796 
L 330.379637 224.913 
L 338.729011 224.913 
L 338.729011 221.03 
L 345.18796 221.03 
" style="fill:none;stroke:#1f77b4;stroke-linecap:square;stroke-width:1.5;"/>
   </g>
   <g id="patch_3">
    <path d="M 24.19 337.52 
L 24.19 26.88 
" style="fill:none;stroke:#000000;stroke-linecap:square;stroke-linejoin:miter;stroke-width:0.8;"/>
   </g>
   <g id="patch_4">
    <path d="M 345.463647 337.52 
L 345.463647 26.88 
" style="fill:none;stroke:#000000;stroke-linecap:square;stroke-linejoin:miter;stroke-width:0.8;"/>
   </g>
   <g id="patch_5">
    <path d="M 24.19 337.52 
L 345.463647 337.52 
" style="fill:none;stroke:#000000;stroke-linecap:square;stroke-linejoin:miter;stroke-width:0.8;"/>
   </g>
   <g id="patch_6">
    <path d="M 24.19 26.88 
L 345.463647 26.88 
" style="fill:none;stroke:#000000;stroke-linecap:square;stroke-linejoin:miter;stroke-width:0.8;"/>
   </g>
   <g id="text_18">
    <!-- moptafl -->
    <defs>
     <path d="M 52 44.1875 
Q 55.375 50.25 60.0625 53.125 
Q 64.75 56 71.09375 56 
Q 79.640625 56 84.28125 50.015625 
Q 88.921875 44.046875 88.921875 33.015625 
L 88.921875 0 
L 79.890625 0 
L 79.890625 32.71875 
Q 79.890625 40.578125 77.09375 44.375 
Q 74.3125 48.1875 68.609375 48.1875 
Q 61.625 48.1875 57.5625 43.546875 
Q 53.515625 38.921875 53.515625 30.90625 
L 53.515625 0 
L 44.484375 0 
L 44.484375 32.71875 
Q 44.484375 40.625 41.703125 44.40625 
Q 38.921875 48.1875 33.109375 48.1875 
Q 26.21875 48.1875 22.15625 43.53125 
Q 18.109375 38.875 18.109375 30.90625 
L 18.109375 0 
L 9.078125 0 
L 9.078125 54.6875 
L 18.109375 54.6875 
L 18.109375 46.1875 
Q 21.1875 51.21875 25.484375 53.609375 
Q 29.78125 56 35.6875 56 
Q 41.65625 56 45.828125 52.96875 
Q 50 49.953125 52 44.1875 
z
" id="DejaVuSans-109"/>
     <path d="M 30.609375 48.390625 
Q 23.390625 48.390625 19.1875 42.75 
Q 14.984375 37.109375 14.984375 27.296875 
Q 14.984375 17.484375 19.15625 11.84375 
Q 23.34375 6.203125 30.609375 6.203125 
Q 37.796875 6.203125 41.984375 11.859375 
Q 46.1875 17.53125 46.1875 27.296875 
Q 46.1875 37.015625 41.984375 42.703125 
Q 37.796875 48.390625 30.609375 48.390625 
z
M 30.609375 56 
Q 42.328125 56 49.015625 48.375 
Q 55.71875 40.765625 55.71875 27.296875 
Q 55.71875 13.875 49.015625 6.21875 
Q 42.328125 -1.421875 30.609375 -1.421875 
Q 18.84375 -1.421875 12.171875 6.21875 
Q 5.515625 13.875 5.515625 27.296875 
Q 5.515625 40.765625 12.171875 48.375 
Q 18.84375 56 30.609375 56 
z
" id="DejaVuSans-111"/>
     <path d="M 18.109375 8.203125 
L 18.109375 -20.796875 
L 9.078125 -20.796875 
L 9.078125 54.6875 
L 18.109375 54.6875 
L 18.109375 46.390625 
Q 20.953125 51.265625 25.265625 53.625 
Q 29.59375 56 35.59375 56 
Q 45.5625 56 51.78125 48.09375 
Q 58.015625 40.1875 58.015625 27.296875 
Q 58.015625 14.40625 51.78125 6.484375 
Q 45.5625 -1.421875 35.59375 -1.421875 
Q 29.59375 -1.421875 25.265625 0.953125 
Q 20.953125 3.328125 18.109375 8.203125 
z
M 48.6875 27.296875 
Q 48.6875 37.203125 44.609375 42.84375 
Q 40.53125 48.484375 33.40625 48.484375 
Q 26.265625 48.484375 22.1875 42.84375 
Q 18.109375 37.203125 18.109375 27.296875 
Q 18.109375 17.390625 22.1875 11.75 
Q 26.265625 6.109375 33.40625 6.109375 
Q 40.53125 6.109375 44.609375 11.75 
Q 48.6875 17.390625 48.6875 27.296875 
z
" id="DejaVuSans-112"/>
     <path d="M 18.3125 70.21875 
L 18.3125 54.6875 
L 36.8125 54.6875 
L 36.8125 47.703125 
L 18.3125 47.703125 
L 18.3125 18.015625 
Q 18.3125 11.328125 20.140625 9.421875 
Q 21.96875 7.515625 27.59375 7.515625 
L 36.8125 7.515625 
L 36.8125 0 
L 27.59375 0 
Q 17.1875 0 13.234375 3.875 
Q 9.28125 7.765625 9.28125 18.015625 
L 9.28125 47.703125 
L 2.6875 47.703125 
L 2.6875 54.6875 
L 9.28125 54.6875 
L 9.28125 70.21875 
z
" id="DejaVuSans-116"/>
     <path d="M 34.28125 27.484375 
Q 23.390625 27.484375 19.1875 25 
Q 14.984375 22.515625 14.984375 16.5 
Q 14.984375 11.71875 18.140625 8.90625 
Q 21.296875 6.109375 26.703125 6.109375 
Q 34.1875 6.109375 38.703125 11.40625 
Q 43.21875 16.703125 43.21875 25.484375 
L 43.21875 27.484375 
z
M 52.203125 31.203125 
L 52.203125 0 
L 43.21875 0 
L 43.21875 8.296875 
Q 40.140625 3.328125 35.546875 0.953125 
Q 30.953125 -1.421875 24.3125 -1.421875 
Q 15.921875 -1.421875 10.953125 3.296875 
Q 6 8.015625 6 15.921875 
Q 6 25.140625 12.171875 29.828125 
Q 18.359375 34.515625 30.609375 34.515625 
L 43.21875 34.515625 
L 43.21875 35.40625 
Q 43.21875 41.609375 39.140625 45 
Q 35.0625 48.390625 27.6875 48.390625 
Q 23 48.390625 18.546875 47.265625 
Q 14.109375 46.140625 10.015625 43.890625 
L 10.015625 52.203125 
Q 14.9375 54.109375 19.578125 55.046875 
Q 24.21875 56 28.609375 56 
Q 40.484375 56 46.34375 49.84375 
Q 52.203125 43.703125 52.203125 31.203125 
z
" id="DejaVuSans-97"/>
     <path d="M 37.109375 75.984375 
L 37.109375 68.5 
L 28.515625 68.5 
Q 23.6875 68.5 21.796875 66.546875 
Q 19.921875 64.59375 19.921875 59.515625 
L 19.921875 54.6875 
L 34.71875 54.6875 
L 34.71875 47.703125 
L 19.921875 47.703125 
L 19.921875 0 
L 10.890625 0 
L 10.890625 47.703125 
L 2.296875 47.703125 
L 2.296875 54.6875 
L 10.890625 54.6875 
L 10.890625 58.5 
Q 10.890625 67.625 15.140625 71.796875 
Q 19.390625 75.984375 28.609375 75.984375 
z
" id="DejaVuSans-102"/>
     <path d="M 9.421875 75.984375 
L 18.40625 75.984375 
L 18.40625 0 
L 9.421875 0 
z
" id="DejaVuSans-108"/>
    </defs>
    <g transform="translate(161.694011 20.88)scale(0.12 -0.12)">
     <use xlink:href="#DejaVuSans-109"/>
     <use x="97.412109" xlink:href="#DejaVuSans-111"/>
     <use x="158.59375" xlink:href="#DejaVuSans-112"/>
     <use x="222.070312" xlink:href="#DejaVuSans-116"/>
     <use x="261.279297" xlink:href="#DejaVuSans-97"/>
     <use x="322.558594" xlink:href="#DejaVuSans-102"/>
     <use x="357.763672" xlink:href="#DejaVuSans-108"/>
    </g>
   </g>
  </g>
  <g id="axes_2">
   <g id="patch_7">
    <path d="M 380.59 337.52 
L 701.863647 337.52 
L 701.863647 26.88 
L 380.59 26.88 
z
" style="fill:#ffffff;"/>
   </g>
   <g id="PolyCollection_2">
    <defs>
     <path d="M 383.090874 -510.384057 
L 383.090874 -277.873943 
L 383.110566 -343.637058 
L 383.130257 -392.058067 
L 383.149949 -421.31 
L 395.792161 -404.4366 
L 396.520762 -403.707067 
L 399.218555 -406.13091 
L 407.863307 -410.210168 
L 413.534579 -415.356067 
L 414.085953 -421.305147 
L 415.228084 -419.825041 
L 417.945569 -427.005067 
L 418.477251 -434.68607 
L 419.442155 -436.072917 
L 419.954145 -438.654067 
L 429.130579 -456.625297 
L 671.971315 -460.136765 
L 693.47489 -464.33364 
L 701.843955 -469.097783 
L 701.843955 -497.778217 
L 701.843955 -497.778217 
L 693.47489 -494.77636 
L 671.971315 -491.207235 
L 429.130579 -486.952703 
L 419.954145 -489.391933 
L 419.442155 -484.207083 
L 418.477251 -477.82793 
L 417.945569 -477.742933 
L 415.228084 -477.156959 
L 414.085953 -467.910853 
L 413.534579 -466.093933 
L 407.863307 -463.473832 
L 399.218555 -459.78709 
L 396.520762 -454.444933 
L 395.792161 -445.9494 
L 383.149949 -421.31 
L 383.130257 -442.795933 
L 383.110566 -467.918942 
L 383.090874 -510.384057 
z
" id="mcbbcffcdf4" style="stroke:#0000ff;stroke-opacity:0.1;"/>
    </defs>
    <g clip-path="url(#p51c44b5f1a)">
     <use style="fill:#0000ff;fill-opacity:0.1;stroke:#0000ff;stroke-opacity:0.1;" x="0" xlink:href="#mcbbcffcdf4" y="720"/>
    </g>
   </g>
   <g id="matplotlib.axis_3">
    <g id="xtick_9">
     <g id="line2d_19">
      <g>
       <use style="stroke:#000000;stroke-width:0.8;" x="419.835993" xlink:href="#m608bbe5ad6" y="337.52"/>
      </g>
     </g>
     <g id="text_19">
      <!-- 10000 -->
      <g transform="translate(403.929743 352.118438)scale(0.1 -0.1)">
       <use xlink:href="#DejaVuSans-49"/>
       <use x="63.623047" xlink:href="#DejaVuSans-48"/>
       <use x="127.246094" xlink:href="#DejaVuSans-48"/>
       <use x="190.869141" xlink:href="#DejaVuSans-48"/>
       <use x="254.492188" xlink:href="#DejaVuSans-48"/>
      </g>
     </g>
    </g>
    <g id="xtick_10">
     <g id="line2d_20">
      <g>
       <use style="stroke:#000000;stroke-width:0.8;" x="459.21983" xlink:href="#m608bbe5ad6" y="337.52"/>
      </g>
     </g>
     <g id="text_20">
      <!-- 20000 -->
      <g transform="translate(443.31358 352.118438)scale(0.1 -0.1)">
       <use xlink:href="#DejaVuSans-50"/>
       <use x="63.623047" xlink:href="#DejaVuSans-48"/>
       <use x="127.246094" xlink:href="#DejaVuSans-48"/>
       <use x="190.869141" xlink:href="#DejaVuSans-48"/>
       <use x="254.492188" xlink:href="#DejaVuSans-48"/>
      </g>
     </g>
    </g>
    <g id="xtick_11">
     <g id="line2d_21">
      <g>
       <use style="stroke:#000000;stroke-width:0.8;" x="498.603666" xlink:href="#m608bbe5ad6" y="337.52"/>
      </g>
     </g>
     <g id="text_21">
      <!-- 30000 -->
      <g transform="translate(482.697416 352.118438)scale(0.1 -0.1)">
       <use xlink:href="#DejaVuSans-51"/>
       <use x="63.623047" xlink:href="#DejaVuSans-48"/>
       <use x="127.246094" xlink:href="#DejaVuSans-48"/>
       <use x="190.869141" xlink:href="#DejaVuSans-48"/>
       <use x="254.492188" xlink:href="#DejaVuSans-48"/>
      </g>
     </g>
    </g>
    <g id="xtick_12">
     <g id="line2d_22">
      <g>
       <use style="stroke:#000000;stroke-width:0.8;" x="537.987503" xlink:href="#m608bbe5ad6" y="337.52"/>
      </g>
     </g>
     <g id="text_22">
      <!-- 40000 -->
      <g transform="translate(522.081253 352.118438)scale(0.1 -0.1)">
       <use xlink:href="#DejaVuSans-52"/>
       <use x="63.623047" xlink:href="#DejaVuSans-48"/>
       <use x="127.246094" xlink:href="#DejaVuSans-48"/>
       <use x="190.869141" xlink:href="#DejaVuSans-48"/>
       <use x="254.492188" xlink:href="#DejaVuSans-48"/>
      </g>
     </g>
    </g>
    <g id="xtick_13">
     <g id="line2d_23">
      <g>
       <use style="stroke:#000000;stroke-width:0.8;" x="577.371339" xlink:href="#m608bbe5ad6" y="337.52"/>
      </g>
     </g>
     <g id="text_23">
      <!-- 50000 -->
      <g transform="translate(561.465089 352.118438)scale(0.1 -0.1)">
       <use xlink:href="#DejaVuSans-53"/>
       <use x="63.623047" xlink:href="#DejaVuSans-48"/>
       <use x="127.246094" xlink:href="#DejaVuSans-48"/>
       <use x="190.869141" xlink:href="#DejaVuSans-48"/>
       <use x="254.492188" xlink:href="#DejaVuSans-48"/>
      </g>
     </g>
    </g>
    <g id="xtick_14">
     <g id="line2d_24">
      <g>
       <use style="stroke:#000000;stroke-width:0.8;" x="616.755176" xlink:href="#m608bbe5ad6" y="337.52"/>
      </g>
     </g>
     <g id="text_24">
      <!-- 60000 -->
      <g transform="translate(600.848926 352.118438)scale(0.1 -0.1)">
       <use xlink:href="#DejaVuSans-54"/>
       <use x="63.623047" xlink:href="#DejaVuSans-48"/>
       <use x="127.246094" xlink:href="#DejaVuSans-48"/>
       <use x="190.869141" xlink:href="#DejaVuSans-48"/>
       <use x="254.492188" xlink:href="#DejaVuSans-48"/>
      </g>
     </g>
    </g>
    <g id="xtick_15">
     <g id="line2d_25">
      <g>
       <use style="stroke:#000000;stroke-width:0.8;" x="656.139013" xlink:href="#m608bbe5ad6" y="337.52"/>
      </g>
     </g>
     <g id="text_25">
      <!-- 70000 -->
      <g transform="translate(640.232763 352.118438)scale(0.1 -0.1)">
       <use xlink:href="#DejaVuSans-55"/>
       <use x="63.623047" xlink:href="#DejaVuSans-48"/>
       <use x="127.246094" xlink:href="#DejaVuSans-48"/>
       <use x="190.869141" xlink:href="#DejaVuSans-48"/>
       <use x="254.492188" xlink:href="#DejaVuSans-48"/>
      </g>
     </g>
    </g>
    <g id="xtick_16">
     <g id="line2d_26">
      <g>
       <use style="stroke:#000000;stroke-width:0.8;" x="695.522849" xlink:href="#m608bbe5ad6" y="337.52"/>
      </g>
     </g>
     <g id="text_26">
      <!-- 80000 -->
      <g transform="translate(679.616599 352.118438)scale(0.1 -0.1)">
       <use xlink:href="#DejaVuSans-56"/>
       <use x="63.623047" xlink:href="#DejaVuSans-48"/>
       <use x="127.246094" xlink:href="#DejaVuSans-48"/>
       <use x="190.869141" xlink:href="#DejaVuSans-48"/>
       <use x="254.492188" xlink:href="#DejaVuSans-48"/>
      </g>
     </g>
    </g>
   </g>
   <g id="matplotlib.axis_4">
    <g id="ytick_10">
     <g id="line2d_27">
      <g>
       <use style="stroke:#000000;stroke-width:0.8;" x="380.59" xlink:href="#ma51466cfe6" y="337.52"/>
      </g>
     </g>
     <g id="text_27">
      <!-- 0 -->
      <g transform="translate(367.2275 341.319219)scale(0.1 -0.1)">
       <use xlink:href="#DejaVuSans-48"/>
      </g>
     </g>
    </g>
    <g id="ytick_11">
     <g id="line2d_28">
      <g>
       <use style="stroke:#000000;stroke-width:0.8;" x="380.59" xlink:href="#ma51466cfe6" y="298.69"/>
      </g>
     </g>
     <g id="text_28">
      <!-- 1 -->
      <g transform="translate(367.2275 302.489219)scale(0.1 -0.1)">
       <use xlink:href="#DejaVuSans-49"/>
      </g>
     </g>
    </g>
    <g id="ytick_12">
     <g id="line2d_29">
      <g>
       <use style="stroke:#000000;stroke-width:0.8;" x="380.59" xlink:href="#ma51466cfe6" y="259.86"/>
      </g>
     </g>
     <g id="text_29">
      <!-- 2 -->
      <g transform="translate(367.2275 263.659219)scale(0.1 -0.1)">
       <use xlink:href="#DejaVuSans-50"/>
      </g>
     </g>
    </g>
    <g id="ytick_13">
     <g id="line2d_30">
      <g>
       <use style="stroke:#000000;stroke-width:0.8;" x="380.59" xlink:href="#ma51466cfe6" y="221.03"/>
      </g>
     </g>
     <g id="text_30">
      <!-- 3 -->
      <g transform="translate(367.2275 224.829219)scale(0.1 -0.1)">
       <use xlink:href="#DejaVuSans-51"/>
      </g>
     </g>
    </g>
    <g id="ytick_14">
     <g id="line2d_31">
      <g>
       <use style="stroke:#000000;stroke-width:0.8;" x="380.59" xlink:href="#ma51466cfe6" y="182.2"/>
      </g>
     </g>
     <g id="text_31">
      <!-- 4 -->
      <g transform="translate(367.2275 185.999219)scale(0.1 -0.1)">
       <use xlink:href="#DejaVuSans-52"/>
      </g>
     </g>
    </g>
    <g id="ytick_15">
     <g id="line2d_32">
      <g>
       <use style="stroke:#000000;stroke-width:0.8;" x="380.59" xlink:href="#ma51466cfe6" y="143.37"/>
      </g>
     </g>
     <g id="text_32">
      <!-- 5 -->
      <g transform="translate(367.2275 147.169219)scale(0.1 -0.1)">
       <use xlink:href="#DejaVuSans-53"/>
      </g>
     </g>
    </g>
    <g id="ytick_16">
     <g id="line2d_33">
      <g>
       <use style="stroke:#000000;stroke-width:0.8;" x="380.59" xlink:href="#ma51466cfe6" y="104.54"/>
      </g>
     </g>
     <g id="text_33">
      <!-- 6 -->
      <g transform="translate(367.2275 108.339219)scale(0.1 -0.1)">
       <use xlink:href="#DejaVuSans-54"/>
      </g>
     </g>
    </g>
    <g id="ytick_17">
     <g id="line2d_34">
      <g>
       <use style="stroke:#000000;stroke-width:0.8;" x="380.59" xlink:href="#ma51466cfe6" y="65.71"/>
      </g>
     </g>
     <g id="text_34">
      <!-- 7 -->
      <g transform="translate(367.2275 69.509219)scale(0.1 -0.1)">
       <use xlink:href="#DejaVuSans-55"/>
      </g>
     </g>
    </g>
    <g id="ytick_18">
     <g id="line2d_35">
      <g>
       <use style="stroke:#000000;stroke-width:0.8;" x="380.59" xlink:href="#ma51466cfe6" y="26.88"/>
      </g>
     </g>
     <g id="text_35">
      <!-- 8 -->
      <g transform="translate(367.2275 30.679219)scale(0.1 -0.1)">
       <use xlink:href="#DejaVuSans-56"/>
      </g>
     </g>
    </g>
   </g>
   <g id="line2d_36">
    <path clip-path="url(#p51c44b5f1a)" d="M 383.090874 325.871 
L 383.090874 314.222 
L 383.110566 314.222 
L 383.110566 302.573 
L 383.130257 302.573 
L 383.130257 298.69 
L 383.149949 298.69 
L 383.149949 294.807 
L 395.792161 294.807 
L 395.792161 290.924 
L 396.520762 290.924 
L 396.520762 287.041 
L 399.218555 287.041 
L 399.218555 283.158 
L 407.863307 283.158 
L 407.863307 279.275 
L 413.534579 279.275 
L 413.534579 275.392 
L 414.085953 275.392 
L 414.085953 271.509 
L 415.228084 271.509 
L 415.228084 267.626 
L 417.945569 267.626 
L 417.945569 263.743 
L 418.477251 263.743 
L 418.477251 259.86 
L 419.442155 259.86 
L 419.442155 255.977 
L 419.954145 255.977 
L 419.954145 248.211 
L 429.130579 248.211 
L 429.130579 244.328 
L 671.971315 244.328 
L 671.971315 240.445 
L 693.47489 240.445 
L 693.47489 236.562 
L 701.843955 236.562 
" style="fill:none;stroke:#1f77b4;stroke-linecap:square;stroke-width:1.5;"/>
   </g>
   <g id="patch_8">
    <path d="M 380.59 337.52 
L 380.59 26.88 
" style="fill:none;stroke:#000000;stroke-linecap:square;stroke-linejoin:miter;stroke-width:0.8;"/>
   </g>
   <g id="patch_9">
    <path d="M 701.863647 337.52 
L 701.863647 26.88 
" style="fill:none;stroke:#000000;stroke-linecap:square;stroke-linejoin:miter;stroke-width:0.8;"/>
   </g>
   <g id="patch_10">
    <path d="M 380.59 337.52 
L 701.863647 337.52 
" style="fill:none;stroke:#000000;stroke-linecap:square;stroke-linejoin:miter;stroke-width:0.8;"/>
   </g>
   <g id="patch_11">
    <path d="M 380.59 26.88 
L 701.863647 26.88 
" style="fill:none;stroke:#000000;stroke-linecap:square;stroke-linejoin:miter;stroke-width:0.8;"/>
   </g>
   <g id="text_36">
    <!-- aflfast -->
    <defs>
     <path d="M 44.28125 53.078125 
L 44.28125 44.578125 
Q 40.484375 46.53125 36.375 47.5 
Q 32.28125 48.484375 27.875 48.484375 
Q 21.1875 48.484375 17.84375 46.4375 
Q 14.5 44.390625 14.5 40.28125 
Q 14.5 37.15625 16.890625 35.375 
Q 19.28125 33.59375 26.515625 31.984375 
L 29.59375 31.296875 
Q 39.15625 29.25 43.1875 25.515625 
Q 47.21875 21.78125 47.21875 15.09375 
Q 47.21875 7.46875 41.1875 3.015625 
Q 35.15625 -1.421875 24.609375 -1.421875 
Q 20.21875 -1.421875 15.453125 -0.5625 
Q 10.6875 0.296875 5.421875 2 
L 5.421875 11.28125 
Q 10.40625 8.6875 15.234375 7.390625 
Q 20.0625 6.109375 24.8125 6.109375 
Q 31.15625 6.109375 34.5625 8.28125 
Q 37.984375 10.453125 37.984375 14.40625 
Q 37.984375 18.0625 35.515625 20.015625 
Q 33.0625 21.96875 24.703125 23.78125 
L 21.578125 24.515625 
Q 13.234375 26.265625 9.515625 29.90625 
Q 5.8125 33.546875 5.8125 39.890625 
Q 5.8125 47.609375 11.28125 51.796875 
Q 16.75 56 26.8125 56 
Q 31.78125 56 36.171875 55.265625 
Q 40.578125 54.546875 44.28125 53.078125 
z
" id="DejaVuSans-115"/>
    </defs>
    <g transform="translate(522.504011 20.88)scale(0.12 -0.12)">
     <use xlink:href="#DejaVuSans-97"/>
     <use x="61.279297" xlink:href="#DejaVuSans-102"/>
     <use x="96.484375" xlink:href="#DejaVuSans-108"/>
     <use x="124.267578" xlink:href="#DejaVuSans-102"/>
     <use x="159.472656" xlink:href="#DejaVuSans-97"/>
     <use x="220.751953" xlink:href="#DejaVuSans-115"/>
     <use x="272.851562" xlink:href="#DejaVuSans-116"/>
    </g>
   </g>
  </g>
  <g id="axes_3">
   <g id="patch_12">
    <path d="M 736.99 337.52 
L 1058.263647 337.52 
L 1058.263647 26.88 
L 736.99 26.88 
z
" style="fill:#ffffff;"/>
   </g>
   <g id="PolyCollection_3">
    <defs>
     <path d="M 737.245995 -614.6834 
L 737.245995 -158.0426 
L 739.215187 -277.873943 
L 739.234879 -304.800587 
L 739.254571 -321.638767 
L 739.274263 -340.043672 
L 739.530257 -387.274004 
L 739.569641 -404.4366 
L 741.322222 -403.707067 
L 749.494368 -406.13091 
L 754.358272 -410.210168 
L 764.243615 -421.305147 
L 764.263307 -427.975402 
L 765.385746 -444.240137 
L 766.783872 -460.14 
L 790.118796 -453.1506 
L 808.491355 -454.0684 
L 941.490571 -456.625297 
L 949.465798 -460.136765 
L 961.379409 -464.33364 
L 978.708297 -469.097783 
L 983.079903 -469.272063 
L 1006.375442 -474.8954 
L 1020.612699 -480.954322 
L 1024.472315 -482.925278 
L 1024.472315 -515.014722 
L 1024.472315 -515.014722 
L 1020.612699 -509.219678 
L 1006.375442 -507.5126 
L 983.079903 -505.369937 
L 978.708297 -497.778217 
L 961.379409 -494.77636 
L 949.465798 -491.207235 
L 941.490571 -486.952703 
L 808.491355 -481.7436 
L 790.118796 -474.8954 
L 766.783872 -460.14 
L 765.385746 -468.273863 
L 764.263307 -469.006598 
L 764.243615 -467.910853 
L 754.358272 -463.473832 
L 749.494368 -459.78709 
L 741.322222 -454.444933 
L 739.569641 -445.9494 
L 739.530257 -455.345996 
L 739.274263 -479.278328 
L 739.254571 -489.917233 
L 739.234879 -491.223413 
L 739.215187 -510.384057 
L 737.245995 -614.6834 
z
" id="mdcb3cf73e1" style="stroke:#0000ff;stroke-opacity:0.1;"/>
    </defs>
    <g clip-path="url(#p73e2222b79)">
     <use style="fill:#0000ff;fill-opacity:0.1;stroke:#0000ff;stroke-opacity:0.1;" x="0" xlink:href="#mdcb3cf73e1" y="720"/>
    </g>
   </g>
   <g id="matplotlib.axis_5">
    <g id="xtick_17">
     <g id="line2d_37">
      <g>
       <use style="stroke:#000000;stroke-width:0.8;" x="776.235993" xlink:href="#m608bbe5ad6" y="337.52"/>
      </g>
     </g>
     <g id="text_37">
      <!-- 10000 -->
      <g transform="translate(760.329743 352.118438)scale(0.1 -0.1)">
       <use xlink:href="#DejaVuSans-49"/>
       <use x="63.623047" xlink:href="#DejaVuSans-48"/>
       <use x="127.246094" xlink:href="#DejaVuSans-48"/>
       <use x="190.869141" xlink:href="#DejaVuSans-48"/>
       <use x="254.492188" xlink:href="#DejaVuSans-48"/>
      </g>
     </g>
    </g>
    <g id="xtick_18">
     <g id="line2d_38">
      <g>
       <use style="stroke:#000000;stroke-width:0.8;" x="815.61983" xlink:href="#m608bbe5ad6" y="337.52"/>
      </g>
     </g>
     <g id="text_38">
      <!-- 20000 -->
      <g transform="translate(799.71358 352.118438)scale(0.1 -0.1)">
       <use xlink:href="#DejaVuSans-50"/>
       <use x="63.623047" xlink:href="#DejaVuSans-48"/>
       <use x="127.246094" xlink:href="#DejaVuSans-48"/>
       <use x="190.869141" xlink:href="#DejaVuSans-48"/>
       <use x="254.492188" xlink:href="#DejaVuSans-48"/>
      </g>
     </g>
    </g>
    <g id="xtick_19">
     <g id="line2d_39">
      <g>
       <use style="stroke:#000000;stroke-width:0.8;" x="855.003666" xlink:href="#m608bbe5ad6" y="337.52"/>
      </g>
     </g>
     <g id="text_39">
      <!-- 30000 -->
      <g transform="translate(839.097416 352.118438)scale(0.1 -0.1)">
       <use xlink:href="#DejaVuSans-51"/>
       <use x="63.623047" xlink:href="#DejaVuSans-48"/>
       <use x="127.246094" xlink:href="#DejaVuSans-48"/>
       <use x="190.869141" xlink:href="#DejaVuSans-48"/>
       <use x="254.492188" xlink:href="#DejaVuSans-48"/>
      </g>
     </g>
    </g>
    <g id="xtick_20">
     <g id="line2d_40">
      <g>
       <use style="stroke:#000000;stroke-width:0.8;" x="894.387503" xlink:href="#m608bbe5ad6" y="337.52"/>
      </g>
     </g>
     <g id="text_40">
      <!-- 40000 -->
      <g transform="translate(878.481253 352.118438)scale(0.1 -0.1)">
       <use xlink:href="#DejaVuSans-52"/>
       <use x="63.623047" xlink:href="#DejaVuSans-48"/>
       <use x="127.246094" xlink:href="#DejaVuSans-48"/>
       <use x="190.869141" xlink:href="#DejaVuSans-48"/>
       <use x="254.492188" xlink:href="#DejaVuSans-48"/>
      </g>
     </g>
    </g>
    <g id="xtick_21">
     <g id="line2d_41">
      <g>
       <use style="stroke:#000000;stroke-width:0.8;" x="933.771339" xlink:href="#m608bbe5ad6" y="337.52"/>
      </g>
     </g>
     <g id="text_41">
      <!-- 50000 -->
      <g transform="translate(917.865089 352.118438)scale(0.1 -0.1)">
       <use xlink:href="#DejaVuSans-53"/>
       <use x="63.623047" xlink:href="#DejaVuSans-48"/>
       <use x="127.246094" xlink:href="#DejaVuSans-48"/>
       <use x="190.869141" xlink:href="#DejaVuSans-48"/>
       <use x="254.492188" xlink:href="#DejaVuSans-48"/>
      </g>
     </g>
    </g>
    <g id="xtick_22">
     <g id="line2d_42">
      <g>
       <use style="stroke:#000000;stroke-width:0.8;" x="973.155176" xlink:href="#m608bbe5ad6" y="337.52"/>
      </g>
     </g>
     <g id="text_42">
      <!-- 60000 -->
      <g transform="translate(957.248926 352.118438)scale(0.1 -0.1)">
       <use xlink:href="#DejaVuSans-54"/>
       <use x="63.623047" xlink:href="#DejaVuSans-48"/>
       <use x="127.246094" xlink:href="#DejaVuSans-48"/>
       <use x="190.869141" xlink:href="#DejaVuSans-48"/>
       <use x="254.492188" xlink:href="#DejaVuSans-48"/>
      </g>
     </g>
    </g>
    <g id="xtick_23">
     <g id="line2d_43">
      <g>
       <use style="stroke:#000000;stroke-width:0.8;" x="1012.539013" xlink:href="#m608bbe5ad6" y="337.52"/>
      </g>
     </g>
     <g id="text_43">
      <!-- 70000 -->
      <g transform="translate(996.632763 352.118438)scale(0.1 -0.1)">
       <use xlink:href="#DejaVuSans-55"/>
       <use x="63.623047" xlink:href="#DejaVuSans-48"/>
       <use x="127.246094" xlink:href="#DejaVuSans-48"/>
       <use x="190.869141" xlink:href="#DejaVuSans-48"/>
       <use x="254.492188" xlink:href="#DejaVuSans-48"/>
      </g>
     </g>
    </g>
    <g id="xtick_24">
     <g id="line2d_44">
      <g>
       <use style="stroke:#000000;stroke-width:0.8;" x="1051.922849" xlink:href="#m608bbe5ad6" y="337.52"/>
      </g>
     </g>
     <g id="text_44">
      <!-- 80000 -->
      <g transform="translate(1036.016599 352.118438)scale(0.1 -0.1)">
       <use xlink:href="#DejaVuSans-56"/>
       <use x="63.623047" xlink:href="#DejaVuSans-48"/>
       <use x="127.246094" xlink:href="#DejaVuSans-48"/>
       <use x="190.869141" xlink:href="#DejaVuSans-48"/>
       <use x="254.492188" xlink:href="#DejaVuSans-48"/>
      </g>
     </g>
    </g>
   </g>
   <g id="matplotlib.axis_6">
    <g id="ytick_19">
     <g id="line2d_45">
      <g>
       <use style="stroke:#000000;stroke-width:0.8;" x="736.99" xlink:href="#ma51466cfe6" y="337.52"/>
      </g>
     </g>
     <g id="text_45">
      <!-- 0 -->
      <g transform="translate(723.6275 341.319219)scale(0.1 -0.1)">
       <use xlink:href="#DejaVuSans-48"/>
      </g>
     </g>
    </g>
    <g id="ytick_20">
     <g id="line2d_46">
      <g>
       <use style="stroke:#000000;stroke-width:0.8;" x="736.99" xlink:href="#ma51466cfe6" y="298.69"/>
      </g>
     </g>
     <g id="text_46">
      <!-- 1 -->
      <g transform="translate(723.6275 302.489219)scale(0.1 -0.1)">
       <use xlink:href="#DejaVuSans-49"/>
      </g>
     </g>
    </g>
    <g id="ytick_21">
     <g id="line2d_47">
      <g>
       <use style="stroke:#000000;stroke-width:0.8;" x="736.99" xlink:href="#ma51466cfe6" y="259.86"/>
      </g>
     </g>
     <g id="text_47">
      <!-- 2 -->
      <g transform="translate(723.6275 263.659219)scale(0.1 -0.1)">
       <use xlink:href="#DejaVuSans-50"/>
      </g>
     </g>
    </g>
    <g id="ytick_22">
     <g id="line2d_48">
      <g>
       <use style="stroke:#000000;stroke-width:0.8;" x="736.99" xlink:href="#ma51466cfe6" y="221.03"/>
      </g>
     </g>
     <g id="text_48">
      <!-- 3 -->
      <g transform="translate(723.6275 224.829219)scale(0.1 -0.1)">
       <use xlink:href="#DejaVuSans-51"/>
      </g>
     </g>
    </g>
    <g id="ytick_23">
     <g id="line2d_49">
      <g>
       <use style="stroke:#000000;stroke-width:0.8;" x="736.99" xlink:href="#ma51466cfe6" y="182.2"/>
      </g>
     </g>
     <g id="text_49">
      <!-- 4 -->
      <g transform="translate(723.6275 185.999219)scale(0.1 -0.1)">
       <use xlink:href="#DejaVuSans-52"/>
      </g>
     </g>
    </g>
    <g id="ytick_24">
     <g id="line2d_50">
      <g>
       <use style="stroke:#000000;stroke-width:0.8;" x="736.99" xlink:href="#ma51466cfe6" y="143.37"/>
      </g>
     </g>
     <g id="text_50">
      <!-- 5 -->
      <g transform="translate(723.6275 147.169219)scale(0.1 -0.1)">
       <use xlink:href="#DejaVuSans-53"/>
      </g>
     </g>
    </g>
    <g id="ytick_25">
     <g id="line2d_51">
      <g>
       <use style="stroke:#000000;stroke-width:0.8;" x="736.99" xlink:href="#ma51466cfe6" y="104.54"/>
      </g>
     </g>
     <g id="text_51">
      <!-- 6 -->
      <g transform="translate(723.6275 108.339219)scale(0.1 -0.1)">
       <use xlink:href="#DejaVuSans-54"/>
      </g>
     </g>
    </g>
    <g id="ytick_26">
     <g id="line2d_52">
      <g>
       <use style="stroke:#000000;stroke-width:0.8;" x="736.99" xlink:href="#ma51466cfe6" y="65.71"/>
      </g>
     </g>
     <g id="text_52">
      <!-- 7 -->
      <g transform="translate(723.6275 69.509219)scale(0.1 -0.1)">
       <use xlink:href="#DejaVuSans-55"/>
      </g>
     </g>
    </g>
    <g id="ytick_27">
     <g id="line2d_53">
      <g>
       <use style="stroke:#000000;stroke-width:0.8;" x="736.99" xlink:href="#ma51466cfe6" y="26.88"/>
      </g>
     </g>
     <g id="text_53">
      <!-- 8 -->
      <g transform="translate(723.6275 30.679219)scale(0.1 -0.1)">
       <use xlink:href="#DejaVuSans-56"/>
      </g>
     </g>
    </g>
   </g>
   <g id="line2d_54">
    <path clip-path="url(#p73e2222b79)" d="M 737.245995 333.637 
L 737.245995 325.871 
L 739.215187 325.871 
L 739.215187 321.988 
L 739.234879 321.988 
L 739.234879 314.222 
L 739.254571 314.222 
L 739.254571 310.339 
L 739.274263 310.339 
L 739.274263 298.69 
L 739.530257 298.69 
L 739.530257 294.807 
L 739.569641 294.807 
L 739.569641 290.924 
L 741.322222 290.924 
L 741.322222 287.041 
L 749.494368 287.041 
L 749.494368 283.158 
L 754.358272 283.158 
L 754.358272 275.392 
L 764.243615 275.392 
L 764.243615 271.509 
L 764.263307 271.509 
L 764.263307 263.743 
L 765.385746 263.743 
L 765.385746 259.86 
L 766.783872 259.86 
L 766.783872 255.977 
L 790.118796 255.977 
L 790.118796 252.094 
L 808.491355 252.094 
L 808.491355 248.211 
L 941.490571 248.211 
L 941.490571 244.328 
L 949.465798 244.328 
L 949.465798 240.445 
L 961.379409 240.445 
L 961.379409 236.562 
L 978.708297 236.562 
L 978.708297 232.679 
L 983.079903 232.679 
L 983.079903 228.796 
L 1006.375442 228.796 
L 1006.375442 224.913 
L 1020.612699 224.913 
L 1020.612699 221.03 
L 1024.472315 221.03 
" style="fill:none;stroke:#1f77b4;stroke-linecap:square;stroke-width:1.5;"/>
   </g>
   <g id="patch_13">
    <path d="M 736.99 337.52 
L 736.99 26.88 
" style="fill:none;stroke:#000000;stroke-linecap:square;stroke-linejoin:miter;stroke-width:0.8;"/>
   </g>
   <g id="patch_14">
    <path d="M 1058.263647 337.52 
L 1058.263647 26.88 
" style="fill:none;stroke:#000000;stroke-linecap:square;stroke-linejoin:miter;stroke-width:0.8;"/>
   </g>
   <g id="patch_15">
    <path d="M 736.99 337.52 
L 1058.263647 337.52 
" style="fill:none;stroke:#000000;stroke-linecap:square;stroke-linejoin:miter;stroke-width:0.8;"/>
   </g>
   <g id="patch_16">
    <path d="M 736.99 26.88 
L 1058.263647 26.88 
" style="fill:none;stroke:#000000;stroke-linecap:square;stroke-linejoin:miter;stroke-width:0.8;"/>
   </g>
   <g id="text_54">
    <!-- aflplusplus -->
    <defs>
     <path d="M 8.5 21.578125 
L 8.5 54.6875 
L 17.484375 54.6875 
L 17.484375 21.921875 
Q 17.484375 14.15625 20.5 10.265625 
Q 23.53125 6.390625 29.59375 6.390625 
Q 36.859375 6.390625 41.078125 11.03125 
Q 45.3125 15.671875 45.3125 23.6875 
L 45.3125 54.6875 
L 54.296875 54.6875 
L 54.296875 0 
L 45.3125 0 
L 45.3125 8.40625 
Q 42.046875 3.421875 37.71875 1 
Q 33.40625 -1.421875 27.6875 -1.421875 
Q 18.265625 -1.421875 13.375 4.4375 
Q 8.5 10.296875 8.5 21.578125 
z
M 31.109375 56 
z
" id="DejaVuSans-117"/>
    </defs>
    <g transform="translate(865.362761 20.88)scale(0.12 -0.12)">
     <use xlink:href="#DejaVuSans-97"/>
     <use x="61.279297" xlink:href="#DejaVuSans-102"/>
     <use x="96.484375" xlink:href="#DejaVuSans-108"/>
     <use x="124.267578" xlink:href="#DejaVuSans-112"/>
     <use x="187.744141" xlink:href="#DejaVuSans-108"/>
     <use x="215.527344" xlink:href="#DejaVuSans-117"/>
     <use x="278.90625" xlink:href="#DejaVuSans-115"/>
     <use x="331.005859" xlink:href="#DejaVuSans-112"/>
     <use x="394.482422" xlink:href="#DejaVuSans-108"/>
     <use x="422.265625" xlink:href="#DejaVuSans-117"/>
     <use x="485.644531" xlink:href="#DejaVuSans-115"/>
    </g>
   </g>
  </g>
  <g id="axes_4">
   <g id="patch_17">
    <path d="M 24.19 692.12 
L 345.463647 692.12 
L 345.463647 381.48 
L 24.19 381.48 
z
" style="fill:#ffffff;"/>
   </g>
   <g id="PolyCollection_4">
    <defs>
     <path d="M 24.19 -260.0834 
L 24.19 196.5574 
L 24.229384 116.5676 
L 24.249076 76.726057 
L 24.308152 28.8118 
L 24.327843 -5.237404 
L 24.367227 -20.8906 
L 25.863813 -37.458067 
L 26.23796 -66.71 
L 27.183172 -49.8366 
L 27.242247 -49.107067 
L 27.419475 -51.53091 
L 27.439167 -60.756067 
L 27.458858 -66.705147 
L 27.47855 -80.861378 
L 27.498242 -89.640137 
L 27.517934 -105.54 
L 126.627359 -98.5506 
L 239.462051 -99.4684 
L 255.018666 -102.025297 
L 260.630863 -105.536765 
L 306.473649 -109.73364 
L 317.304204 -114.497783 
L 327.32739 -114.672063 
L 338.315481 -120.2954 
L 338.315481 -152.9126 
L 338.315481 -152.9126 
L 327.32739 -150.769937 
L 317.304204 -143.178217 
L 306.473649 -140.17636 
L 260.630863 -136.607235 
L 255.018666 -132.352703 
L 239.462051 -127.1436 
L 126.627359 -120.2954 
L 27.517934 -105.54 
L 27.498242 -113.673863 
L 27.47855 -114.686622 
L 27.458858 -113.310853 
L 27.439167 -111.493933 
L 27.419475 -105.18709 
L 27.242247 -99.844933 
L 27.183172 -91.3494 
L 26.23796 -66.71 
L 25.863813 -88.195933 
L 24.367227 -96.9974 
L 24.327843 -104.884596 
L 24.308152 -123.4018 
L 24.249076 -155.784057 
L 24.229384 -187.8596 
L 24.19 -260.0834 
z
" id="me84a3d80ec" style="stroke:#0000ff;stroke-opacity:0.1;"/>
    </defs>
    <g clip-path="url(#p09780b31dd)">
     <use style="fill:#0000ff;fill-opacity:0.1;stroke:#0000ff;stroke-opacity:0.1;" x="0" xlink:href="#me84a3d80ec" y="720"/>
    </g>
   </g>
   <g id="matplotlib.axis_7">
    <g id="xtick_25">
     <g id="line2d_55">
      <g>
       <use style="stroke:#000000;stroke-width:0.8;" x="63.435993" xlink:href="#m608bbe5ad6" y="692.12"/>
      </g>
     </g>
     <g id="text_55">
      <!-- 10000 -->
      <g transform="translate(47.529743 706.718438)scale(0.1 -0.1)">
       <use xlink:href="#DejaVuSans-49"/>
       <use x="63.623047" xlink:href="#DejaVuSans-48"/>
       <use x="127.246094" xlink:href="#DejaVuSans-48"/>
       <use x="190.869141" xlink:href="#DejaVuSans-48"/>
       <use x="254.492188" xlink:href="#DejaVuSans-48"/>
      </g>
     </g>
    </g>
    <g id="xtick_26">
     <g id="line2d_56">
      <g>
       <use style="stroke:#000000;stroke-width:0.8;" x="102.81983" xlink:href="#m608bbe5ad6" y="692.12"/>
      </g>
     </g>
     <g id="text_56">
      <!-- 20000 -->
      <g transform="translate(86.91358 706.718438)scale(0.1 -0.1)">
       <use xlink:href="#DejaVuSans-50"/>
       <use x="63.623047" xlink:href="#DejaVuSans-48"/>
       <use x="127.246094" xlink:href="#DejaVuSans-48"/>
       <use x="190.869141" xlink:href="#DejaVuSans-48"/>
       <use x="254.492188" xlink:href="#DejaVuSans-48"/>
      </g>
     </g>
    </g>
    <g id="xtick_27">
     <g id="line2d_57">
      <g>
       <use style="stroke:#000000;stroke-width:0.8;" x="142.203666" xlink:href="#m608bbe5ad6" y="692.12"/>
      </g>
     </g>
     <g id="text_57">
      <!-- 30000 -->
      <g transform="translate(126.297416 706.718438)scale(0.1 -0.1)">
       <use xlink:href="#DejaVuSans-51"/>
       <use x="63.623047" xlink:href="#DejaVuSans-48"/>
       <use x="127.246094" xlink:href="#DejaVuSans-48"/>
       <use x="190.869141" xlink:href="#DejaVuSans-48"/>
       <use x="254.492188" xlink:href="#DejaVuSans-48"/>
      </g>
     </g>
    </g>
    <g id="xtick_28">
     <g id="line2d_58">
      <g>
       <use style="stroke:#000000;stroke-width:0.8;" x="181.587503" xlink:href="#m608bbe5ad6" y="692.12"/>
      </g>
     </g>
     <g id="text_58">
      <!-- 40000 -->
      <g transform="translate(165.681253 706.718438)scale(0.1 -0.1)">
       <use xlink:href="#DejaVuSans-52"/>
       <use x="63.623047" xlink:href="#DejaVuSans-48"/>
       <use x="127.246094" xlink:href="#DejaVuSans-48"/>
       <use x="190.869141" xlink:href="#DejaVuSans-48"/>
       <use x="254.492188" xlink:href="#DejaVuSans-48"/>
      </g>
     </g>
    </g>
    <g id="xtick_29">
     <g id="line2d_59">
      <g>
       <use style="stroke:#000000;stroke-width:0.8;" x="220.971339" xlink:href="#m608bbe5ad6" y="692.12"/>
      </g>
     </g>
     <g id="text_59">
      <!-- 50000 -->
      <g transform="translate(205.065089 706.718438)scale(0.1 -0.1)">
       <use xlink:href="#DejaVuSans-53"/>
       <use x="63.623047" xlink:href="#DejaVuSans-48"/>
       <use x="127.246094" xlink:href="#DejaVuSans-48"/>
       <use x="190.869141" xlink:href="#DejaVuSans-48"/>
       <use x="254.492188" xlink:href="#DejaVuSans-48"/>
      </g>
     </g>
    </g>
    <g id="xtick_30">
     <g id="line2d_60">
      <g>
       <use style="stroke:#000000;stroke-width:0.8;" x="260.355176" xlink:href="#m608bbe5ad6" y="692.12"/>
      </g>
     </g>
     <g id="text_60">
      <!-- 60000 -->
      <g transform="translate(244.448926 706.718438)scale(0.1 -0.1)">
       <use xlink:href="#DejaVuSans-54"/>
       <use x="63.623047" xlink:href="#DejaVuSans-48"/>
       <use x="127.246094" xlink:href="#DejaVuSans-48"/>
       <use x="190.869141" xlink:href="#DejaVuSans-48"/>
       <use x="254.492188" xlink:href="#DejaVuSans-48"/>
      </g>
     </g>
    </g>
    <g id="xtick_31">
     <g id="line2d_61">
      <g>
       <use style="stroke:#000000;stroke-width:0.8;" x="299.739013" xlink:href="#m608bbe5ad6" y="692.12"/>
      </g>
     </g>
     <g id="text_61">
      <!-- 70000 -->
      <g transform="translate(283.832763 706.718438)scale(0.1 -0.1)">
       <use xlink:href="#DejaVuSans-55"/>
       <use x="63.623047" xlink:href="#DejaVuSans-48"/>
       <use x="127.246094" xlink:href="#DejaVuSans-48"/>
       <use x="190.869141" xlink:href="#DejaVuSans-48"/>
       <use x="254.492188" xlink:href="#DejaVuSans-48"/>
      </g>
     </g>
    </g>
    <g id="xtick_32">
     <g id="line2d_62">
      <g>
       <use style="stroke:#000000;stroke-width:0.8;" x="339.122849" xlink:href="#m608bbe5ad6" y="692.12"/>
      </g>
     </g>
     <g id="text_62">
      <!-- 80000 -->
      <g transform="translate(323.216599 706.718438)scale(0.1 -0.1)">
       <use xlink:href="#DejaVuSans-56"/>
       <use x="63.623047" xlink:href="#DejaVuSans-48"/>
       <use x="127.246094" xlink:href="#DejaVuSans-48"/>
       <use x="190.869141" xlink:href="#DejaVuSans-48"/>
       <use x="254.492188" xlink:href="#DejaVuSans-48"/>
      </g>
     </g>
    </g>
   </g>
   <g id="matplotlib.axis_8">
    <g id="ytick_28">
     <g id="line2d_63">
      <g>
       <use style="stroke:#000000;stroke-width:0.8;" x="24.19" xlink:href="#ma51466cfe6" y="692.12"/>
      </g>
     </g>
     <g id="text_63">
      <!-- 0 -->
      <g transform="translate(10.8275 695.919219)scale(0.1 -0.1)">
       <use xlink:href="#DejaVuSans-48"/>
      </g>
     </g>
    </g>
    <g id="ytick_29">
     <g id="line2d_64">
      <g>
       <use style="stroke:#000000;stroke-width:0.8;" x="24.19" xlink:href="#ma51466cfe6" y="653.29"/>
      </g>
     </g>
     <g id="text_64">
      <!-- 1 -->
      <g transform="translate(10.8275 657.089219)scale(0.1 -0.1)">
       <use xlink:href="#DejaVuSans-49"/>
      </g>
     </g>
    </g>
    <g id="ytick_30">
     <g id="line2d_65">
      <g>
       <use style="stroke:#000000;stroke-width:0.8;" x="24.19" xlink:href="#ma51466cfe6" y="614.46"/>
      </g>
     </g>
     <g id="text_65">
      <!-- 2 -->
      <g transform="translate(10.8275 618.259219)scale(0.1 -0.1)">
       <use xlink:href="#DejaVuSans-50"/>
      </g>
     </g>
    </g>
    <g id="ytick_31">
     <g id="line2d_66">
      <g>
       <use style="stroke:#000000;stroke-width:0.8;" x="24.19" xlink:href="#ma51466cfe6" y="575.63"/>
      </g>
     </g>
     <g id="text_66">
      <!-- 3 -->
      <g transform="translate(10.8275 579.429219)scale(0.1 -0.1)">
       <use xlink:href="#DejaVuSans-51"/>
      </g>
     </g>
    </g>
    <g id="ytick_32">
     <g id="line2d_67">
      <g>
       <use style="stroke:#000000;stroke-width:0.8;" x="24.19" xlink:href="#ma51466cfe6" y="536.8"/>
      </g>
     </g>
     <g id="text_67">
      <!-- 4 -->
      <g transform="translate(10.8275 540.599219)scale(0.1 -0.1)">
       <use xlink:href="#DejaVuSans-52"/>
      </g>
     </g>
    </g>
    <g id="ytick_33">
     <g id="line2d_68">
      <g>
       <use style="stroke:#000000;stroke-width:0.8;" x="24.19" xlink:href="#ma51466cfe6" y="497.97"/>
      </g>
     </g>
     <g id="text_68">
      <!-- 5 -->
      <g transform="translate(10.8275 501.769219)scale(0.1 -0.1)">
       <use xlink:href="#DejaVuSans-53"/>
      </g>
     </g>
    </g>
    <g id="ytick_34">
     <g id="line2d_69">
      <g>
       <use style="stroke:#000000;stroke-width:0.8;" x="24.19" xlink:href="#ma51466cfe6" y="459.14"/>
      </g>
     </g>
     <g id="text_69">
      <!-- 6 -->
      <g transform="translate(10.8275 462.939219)scale(0.1 -0.1)">
       <use xlink:href="#DejaVuSans-54"/>
      </g>
     </g>
    </g>
    <g id="ytick_35">
     <g id="line2d_70">
      <g>
       <use style="stroke:#000000;stroke-width:0.8;" x="24.19" xlink:href="#ma51466cfe6" y="420.31"/>
      </g>
     </g>
     <g id="text_70">
      <!-- 7 -->
      <g transform="translate(10.8275 424.109219)scale(0.1 -0.1)">
       <use xlink:href="#DejaVuSans-55"/>
      </g>
     </g>
    </g>
    <g id="ytick_36">
     <g id="line2d_71">
      <g>
       <use style="stroke:#000000;stroke-width:0.8;" x="24.19" xlink:href="#ma51466cfe6" y="381.48"/>
      </g>
     </g>
     <g id="text_71">
      <!-- 8 -->
      <g transform="translate(10.8275 385.279219)scale(0.1 -0.1)">
       <use xlink:href="#DejaVuSans-56"/>
      </g>
     </g>
    </g>
   </g>
   <g id="line2d_72">
    <path clip-path="url(#p09780b31dd)" d="M 24.19 688.237 
L 24.19 684.354 
L 24.229384 684.354 
L 24.229384 680.471 
L 24.249076 680.471 
L 24.249076 672.705 
L 24.308152 672.705 
L 24.308152 664.939 
L 24.327843 664.939 
L 24.327843 661.056 
L 24.367227 661.056 
L 24.367227 657.173 
L 25.863813 657.173 
L 25.863813 653.29 
L 26.23796 653.29 
L 26.23796 649.407 
L 27.183172 649.407 
L 27.183172 645.524 
L 27.242247 645.524 
L 27.242247 641.641 
L 27.419475 641.641 
L 27.419475 633.875 
L 27.439167 633.875 
L 27.439167 629.992 
L 27.458858 629.992 
L 27.458858 622.226 
L 27.47855 622.226 
L 27.47855 618.343 
L 27.498242 618.343 
L 27.498242 614.46 
L 27.517934 614.46 
L 27.517934 610.577 
L 126.627359 610.577 
L 126.627359 606.694 
L 239.462051 606.694 
L 239.462051 602.811 
L 255.018666 602.811 
L 255.018666 598.928 
L 260.630863 598.928 
L 260.630863 595.045 
L 306.473649 595.045 
L 306.473649 591.162 
L 317.304204 591.162 
L 317.304204 587.279 
L 327.32739 587.279 
L 327.32739 583.396 
L 338.315481 583.396 
" style="fill:none;stroke:#1f77b4;stroke-linecap:square;stroke-width:1.5;"/>
   </g>
   <g id="patch_18">
    <path d="M 24.19 692.12 
L 24.19 381.48 
" style="fill:none;stroke:#000000;stroke-linecap:square;stroke-linejoin:miter;stroke-width:0.8;"/>
   </g>
   <g id="patch_19">
    <path d="M 345.463647 692.12 
L 345.463647 381.48 
" style="fill:none;stroke:#000000;stroke-linecap:square;stroke-linejoin:miter;stroke-width:0.8;"/>
   </g>
   <g id="patch_20">
    <path d="M 24.19 692.12 
L 345.463647 692.12 
" style="fill:none;stroke:#000000;stroke-linecap:square;stroke-linejoin:miter;stroke-width:0.8;"/>
   </g>
   <g id="patch_21">
    <path d="M 24.19 381.48 
L 345.463647 381.48 
" style="fill:none;stroke:#000000;stroke-linecap:square;stroke-linejoin:miter;stroke-width:0.8;"/>
   </g>
   <g id="text_72">
    <!-- honggfuzz -->
    <defs>
     <path d="M 54.890625 33.015625 
L 54.890625 0 
L 45.90625 0 
L 45.90625 32.71875 
Q 45.90625 40.484375 42.875 44.328125 
Q 39.84375 48.1875 33.796875 48.1875 
Q 26.515625 48.1875 22.3125 43.546875 
Q 18.109375 38.921875 18.109375 30.90625 
L 18.109375 0 
L 9.078125 0 
L 9.078125 75.984375 
L 18.109375 75.984375 
L 18.109375 46.1875 
Q 21.34375 51.125 25.703125 53.5625 
Q 30.078125 56 35.796875 56 
Q 45.21875 56 50.046875 50.171875 
Q 54.890625 44.34375 54.890625 33.015625 
z
" id="DejaVuSans-104"/>
     <path d="M 54.890625 33.015625 
L 54.890625 0 
L 45.90625 0 
L 45.90625 32.71875 
Q 45.90625 40.484375 42.875 44.328125 
Q 39.84375 48.1875 33.796875 48.1875 
Q 26.515625 48.1875 22.3125 43.546875 
Q 18.109375 38.921875 18.109375 30.90625 
L 18.109375 0 
L 9.078125 0 
L 9.078125 54.6875 
L 18.109375 54.6875 
L 18.109375 46.1875 
Q 21.34375 51.125 25.703125 53.5625 
Q 30.078125 56 35.796875 56 
Q 45.21875 56 50.046875 50.171875 
Q 54.890625 44.34375 54.890625 33.015625 
z
" id="DejaVuSans-110"/>
     <path d="M 45.40625 27.984375 
Q 45.40625 37.75 41.375 43.109375 
Q 37.359375 48.484375 30.078125 48.484375 
Q 22.859375 48.484375 18.828125 43.109375 
Q 14.796875 37.75 14.796875 27.984375 
Q 14.796875 18.265625 18.828125 12.890625 
Q 22.859375 7.515625 30.078125 7.515625 
Q 37.359375 7.515625 41.375 12.890625 
Q 45.40625 18.265625 45.40625 27.984375 
z
M 54.390625 6.78125 
Q 54.390625 -7.171875 48.1875 -13.984375 
Q 42 -20.796875 29.203125 -20.796875 
Q 24.46875 -20.796875 20.265625 -20.09375 
Q 16.0625 -19.390625 12.109375 -17.921875 
L 12.109375 -9.1875 
Q 16.0625 -11.328125 19.921875 -12.34375 
Q 23.78125 -13.375 27.78125 -13.375 
Q 36.625 -13.375 41.015625 -8.765625 
Q 45.40625 -4.15625 45.40625 5.171875 
L 45.40625 9.625 
Q 42.625 4.78125 38.28125 2.390625 
Q 33.9375 0 27.875 0 
Q 17.828125 0 11.671875 7.65625 
Q 5.515625 15.328125 5.515625 27.984375 
Q 5.515625 40.671875 11.671875 48.328125 
Q 17.828125 56 27.875 56 
Q 33.9375 56 38.28125 53.609375 
Q 42.625 51.21875 45.40625 46.390625 
L 45.40625 54.6875 
L 54.390625 54.6875 
z
" id="DejaVuSans-103"/>
     <path d="M 5.515625 54.6875 
L 48.1875 54.6875 
L 48.1875 46.484375 
L 14.40625 7.171875 
L 48.1875 7.171875 
L 48.1875 0 
L 4.296875 0 
L 4.296875 8.203125 
L 38.09375 47.515625 
L 5.515625 47.515625 
z
" id="DejaVuSans-122"/>
    </defs>
    <g transform="translate(153.719636 375.48)scale(0.12 -0.12)">
     <use xlink:href="#DejaVuSans-104"/>
     <use x="63.378906" xlink:href="#DejaVuSans-111"/>
     <use x="124.560547" xlink:href="#DejaVuSans-110"/>
     <use x="187.939453" xlink:href="#DejaVuSans-103"/>
     <use x="251.416016" xlink:href="#DejaVuSans-103"/>
     <use x="314.892578" xlink:href="#DejaVuSans-102"/>
     <use x="350.097656" xlink:href="#DejaVuSans-117"/>
     <use x="413.476562" xlink:href="#DejaVuSans-122"/>
     <use x="465.966797" xlink:href="#DejaVuSans-122"/>
    </g>
   </g>
  </g>
  <g id="axes_5">
   <g id="patch_22">
    <path d="M 380.59 692.12 
L 701.863647 692.12 
L 701.863647 381.48 
L 380.59 381.48 
z
" style="fill:#ffffff;"/>
   </g>
   <g id="PolyCollection_5">
    <defs>
     <path d="M 382.342581 -260.0834 
L 382.342581 196.5574 
L 382.362273 49.799413 
L 382.381965 28.8118 
L 382.401656 -66.71 
L 391.637166 -49.8366 
L 401.640661 -49.107067 
L 407.508852 -51.53091 
L 407.567928 -55.610168 
L 407.68608 -60.756067 
L 407.725463 -66.705147 
L 408.079918 -73.375402 
L 408.966054 -80.861378 
L 433.580952 -80.08607 
L 647.789639 -88.522002 
L 647.789639 -122.557998 
L 647.789639 -122.557998 
L 433.580952 -123.22793 
L 408.966054 -114.686622 
L 408.079918 -114.406598 
L 407.725463 -113.310853 
L 407.68608 -111.493933 
L 407.567928 -108.873832 
L 407.508852 -105.18709 
L 401.640661 -99.844933 
L 391.637166 -91.3494 
L 382.401656 -66.71 
L 382.381965 -123.4018 
L 382.362273 -136.623413 
L 382.342581 -260.0834 
z
" id="m9751f52200" style="stroke:#0000ff;stroke-opacity:0.1;"/>
    </defs>
    <g clip-path="url(#pb552aa64ce)">
     <use style="fill:#0000ff;fill-opacity:0.1;stroke:#0000ff;stroke-opacity:0.1;" x="0" xlink:href="#m9751f52200" y="720"/>
    </g>
   </g>
   <g id="matplotlib.axis_9">
    <g id="xtick_33">
     <g id="line2d_73">
      <g>
       <use style="stroke:#000000;stroke-width:0.8;" x="419.835993" xlink:href="#m608bbe5ad6" y="692.12"/>
      </g>
     </g>
     <g id="text_73">
      <!-- 10000 -->
      <g transform="translate(403.929743 706.718438)scale(0.1 -0.1)">
       <use xlink:href="#DejaVuSans-49"/>
       <use x="63.623047" xlink:href="#DejaVuSans-48"/>
       <use x="127.246094" xlink:href="#DejaVuSans-48"/>
       <use x="190.869141" xlink:href="#DejaVuSans-48"/>
       <use x="254.492188" xlink:href="#DejaVuSans-48"/>
      </g>
     </g>
    </g>
    <g id="xtick_34">
     <g id="line2d_74">
      <g>
       <use style="stroke:#000000;stroke-width:0.8;" x="459.21983" xlink:href="#m608bbe5ad6" y="692.12"/>
      </g>
     </g>
     <g id="text_74">
      <!-- 20000 -->
      <g transform="translate(443.31358 706.718438)scale(0.1 -0.1)">
       <use xlink:href="#DejaVuSans-50"/>
       <use x="63.623047" xlink:href="#DejaVuSans-48"/>
       <use x="127.246094" xlink:href="#DejaVuSans-48"/>
       <use x="190.869141" xlink:href="#DejaVuSans-48"/>
       <use x="254.492188" xlink:href="#DejaVuSans-48"/>
      </g>
     </g>
    </g>
    <g id="xtick_35">
     <g id="line2d_75">
      <g>
       <use style="stroke:#000000;stroke-width:0.8;" x="498.603666" xlink:href="#m608bbe5ad6" y="692.12"/>
      </g>
     </g>
     <g id="text_75">
      <!-- 30000 -->
      <g transform="translate(482.697416 706.718438)scale(0.1 -0.1)">
       <use xlink:href="#DejaVuSans-51"/>
       <use x="63.623047" xlink:href="#DejaVuSans-48"/>
       <use x="127.246094" xlink:href="#DejaVuSans-48"/>
       <use x="190.869141" xlink:href="#DejaVuSans-48"/>
       <use x="254.492188" xlink:href="#DejaVuSans-48"/>
      </g>
     </g>
    </g>
    <g id="xtick_36">
     <g id="line2d_76">
      <g>
       <use style="stroke:#000000;stroke-width:0.8;" x="537.987503" xlink:href="#m608bbe5ad6" y="692.12"/>
      </g>
     </g>
     <g id="text_76">
      <!-- 40000 -->
      <g transform="translate(522.081253 706.718438)scale(0.1 -0.1)">
       <use xlink:href="#DejaVuSans-52"/>
       <use x="63.623047" xlink:href="#DejaVuSans-48"/>
       <use x="127.246094" xlink:href="#DejaVuSans-48"/>
       <use x="190.869141" xlink:href="#DejaVuSans-48"/>
       <use x="254.492188" xlink:href="#DejaVuSans-48"/>
      </g>
     </g>
    </g>
    <g id="xtick_37">
     <g id="line2d_77">
      <g>
       <use style="stroke:#000000;stroke-width:0.8;" x="577.371339" xlink:href="#m608bbe5ad6" y="692.12"/>
      </g>
     </g>
     <g id="text_77">
      <!-- 50000 -->
      <g transform="translate(561.465089 706.718438)scale(0.1 -0.1)">
       <use xlink:href="#DejaVuSans-53"/>
       <use x="63.623047" xlink:href="#DejaVuSans-48"/>
       <use x="127.246094" xlink:href="#DejaVuSans-48"/>
       <use x="190.869141" xlink:href="#DejaVuSans-48"/>
       <use x="254.492188" xlink:href="#DejaVuSans-48"/>
      </g>
     </g>
    </g>
    <g id="xtick_38">
     <g id="line2d_78">
      <g>
       <use style="stroke:#000000;stroke-width:0.8;" x="616.755176" xlink:href="#m608bbe5ad6" y="692.12"/>
      </g>
     </g>
     <g id="text_78">
      <!-- 60000 -->
      <g transform="translate(600.848926 706.718438)scale(0.1 -0.1)">
       <use xlink:href="#DejaVuSans-54"/>
       <use x="63.623047" xlink:href="#DejaVuSans-48"/>
       <use x="127.246094" xlink:href="#DejaVuSans-48"/>
       <use x="190.869141" xlink:href="#DejaVuSans-48"/>
       <use x="254.492188" xlink:href="#DejaVuSans-48"/>
      </g>
     </g>
    </g>
    <g id="xtick_39">
     <g id="line2d_79">
      <g>
       <use style="stroke:#000000;stroke-width:0.8;" x="656.139013" xlink:href="#m608bbe5ad6" y="692.12"/>
      </g>
     </g>
     <g id="text_79">
      <!-- 70000 -->
      <g transform="translate(640.232763 706.718438)scale(0.1 -0.1)">
       <use xlink:href="#DejaVuSans-55"/>
       <use x="63.623047" xlink:href="#DejaVuSans-48"/>
       <use x="127.246094" xlink:href="#DejaVuSans-48"/>
       <use x="190.869141" xlink:href="#DejaVuSans-48"/>
       <use x="254.492188" xlink:href="#DejaVuSans-48"/>
      </g>
     </g>
    </g>
    <g id="xtick_40">
     <g id="line2d_80">
      <g>
       <use style="stroke:#000000;stroke-width:0.8;" x="695.522849" xlink:href="#m608bbe5ad6" y="692.12"/>
      </g>
     </g>
     <g id="text_80">
      <!-- 80000 -->
      <g transform="translate(679.616599 706.718438)scale(0.1 -0.1)">
       <use xlink:href="#DejaVuSans-56"/>
       <use x="63.623047" xlink:href="#DejaVuSans-48"/>
       <use x="127.246094" xlink:href="#DejaVuSans-48"/>
       <use x="190.869141" xlink:href="#DejaVuSans-48"/>
       <use x="254.492188" xlink:href="#DejaVuSans-48"/>
      </g>
     </g>
    </g>
   </g>
   <g id="matplotlib.axis_10">
    <g id="ytick_37">
     <g id="line2d_81">
      <g>
       <use style="stroke:#000000;stroke-width:0.8;" x="380.59" xlink:href="#ma51466cfe6" y="692.12"/>
      </g>
     </g>
     <g id="text_81">
      <!-- 0 -->
      <g transform="translate(367.2275 695.919219)scale(0.1 -0.1)">
       <use xlink:href="#DejaVuSans-48"/>
      </g>
     </g>
    </g>
    <g id="ytick_38">
     <g id="line2d_82">
      <g>
       <use style="stroke:#000000;stroke-width:0.8;" x="380.59" xlink:href="#ma51466cfe6" y="653.29"/>
      </g>
     </g>
     <g id="text_82">
      <!-- 1 -->
      <g transform="translate(367.2275 657.089219)scale(0.1 -0.1)">
       <use xlink:href="#DejaVuSans-49"/>
      </g>
     </g>
    </g>
    <g id="ytick_39">
     <g id="line2d_83">
      <g>
       <use style="stroke:#000000;stroke-width:0.8;" x="380.59" xlink:href="#ma51466cfe6" y="614.46"/>
      </g>
     </g>
     <g id="text_83">
      <!-- 2 -->
      <g transform="translate(367.2275 618.259219)scale(0.1 -0.1)">
       <use xlink:href="#DejaVuSans-50"/>
      </g>
     </g>
    </g>
    <g id="ytick_40">
     <g id="line2d_84">
      <g>
       <use style="stroke:#000000;stroke-width:0.8;" x="380.59" xlink:href="#ma51466cfe6" y="575.63"/>
      </g>
     </g>
     <g id="text_84">
      <!-- 3 -->
      <g transform="translate(367.2275 579.429219)scale(0.1 -0.1)">
       <use xlink:href="#DejaVuSans-51"/>
      </g>
     </g>
    </g>
    <g id="ytick_41">
     <g id="line2d_85">
      <g>
       <use style="stroke:#000000;stroke-width:0.8;" x="380.59" xlink:href="#ma51466cfe6" y="536.8"/>
      </g>
     </g>
     <g id="text_85">
      <!-- 4 -->
      <g transform="translate(367.2275 540.599219)scale(0.1 -0.1)">
       <use xlink:href="#DejaVuSans-52"/>
      </g>
     </g>
    </g>
    <g id="ytick_42">
     <g id="line2d_86">
      <g>
       <use style="stroke:#000000;stroke-width:0.8;" x="380.59" xlink:href="#ma51466cfe6" y="497.97"/>
      </g>
     </g>
     <g id="text_86">
      <!-- 5 -->
      <g transform="translate(367.2275 501.769219)scale(0.1 -0.1)">
       <use xlink:href="#DejaVuSans-53"/>
      </g>
     </g>
    </g>
    <g id="ytick_43">
     <g id="line2d_87">
      <g>
       <use style="stroke:#000000;stroke-width:0.8;" x="380.59" xlink:href="#ma51466cfe6" y="459.14"/>
      </g>
     </g>
     <g id="text_87">
      <!-- 6 -->
      <g transform="translate(367.2275 462.939219)scale(0.1 -0.1)">
       <use xlink:href="#DejaVuSans-54"/>
      </g>
     </g>
    </g>
    <g id="ytick_44">
     <g id="line2d_88">
      <g>
       <use style="stroke:#000000;stroke-width:0.8;" x="380.59" xlink:href="#ma51466cfe6" y="420.31"/>
      </g>
     </g>
     <g id="text_88">
      <!-- 7 -->
      <g transform="translate(367.2275 424.109219)scale(0.1 -0.1)">
       <use xlink:href="#DejaVuSans-55"/>
      </g>
     </g>
    </g>
    <g id="ytick_45">
     <g id="line2d_89">
      <g>
       <use style="stroke:#000000;stroke-width:0.8;" x="380.59" xlink:href="#ma51466cfe6" y="381.48"/>
      </g>
     </g>
     <g id="text_89">
      <!-- 8 -->
      <g transform="translate(367.2275 385.279219)scale(0.1 -0.1)">
       <use xlink:href="#DejaVuSans-56"/>
      </g>
     </g>
    </g>
   </g>
   <g id="line2d_90">
    <path clip-path="url(#pb552aa64ce)" d="M 382.342581 688.237 
L 382.342581 676.588 
L 382.362273 676.588 
L 382.362273 672.705 
L 382.381965 672.705 
L 382.381965 653.29 
L 382.401656 653.29 
L 382.401656 649.407 
L 391.637166 649.407 
L 391.637166 645.524 
L 401.640661 645.524 
L 401.640661 641.641 
L 407.508852 641.641 
L 407.508852 637.758 
L 407.567928 637.758 
L 407.567928 633.875 
L 407.68608 633.875 
L 407.68608 629.992 
L 407.725463 629.992 
L 407.725463 626.109 
L 408.079918 626.109 
L 408.079918 622.226 
L 408.966054 622.226 
L 408.966054 618.343 
L 433.580952 618.343 
L 433.580952 614.46 
L 647.789639 614.46 
" style="fill:none;stroke:#1f77b4;stroke-linecap:square;stroke-width:1.5;"/>
   </g>
   <g id="patch_23">
    <path d="M 380.59 692.12 
L 380.59 381.48 
" style="fill:none;stroke:#000000;stroke-linecap:square;stroke-linejoin:miter;stroke-width:0.8;"/>
   </g>
   <g id="patch_24">
    <path d="M 701.863647 692.12 
L 701.863647 381.48 
" style="fill:none;stroke:#000000;stroke-linecap:square;stroke-linejoin:miter;stroke-width:0.8;"/>
   </g>
   <g id="patch_25">
    <path d="M 380.59 692.12 
L 701.863647 692.12 
" style="fill:none;stroke:#000000;stroke-linecap:square;stroke-linejoin:miter;stroke-width:0.8;"/>
   </g>
   <g id="patch_26">
    <path d="M 380.59 381.48 
L 701.863647 381.48 
" style="fill:none;stroke:#000000;stroke-linecap:square;stroke-linejoin:miter;stroke-width:0.8;"/>
   </g>
   <g id="text_90">
    <!-- fairfuzz -->
    <defs>
     <path d="M 9.421875 54.6875 
L 18.40625 54.6875 
L 18.40625 0 
L 9.421875 0 
z
M 9.421875 75.984375 
L 18.40625 75.984375 
L 18.40625 64.59375 
L 9.421875 64.59375 
z
" id="DejaVuSans-105"/>
     <path d="M 41.109375 46.296875 
Q 39.59375 47.171875 37.8125 47.578125 
Q 36.03125 48 33.890625 48 
Q 26.265625 48 22.1875 43.046875 
Q 18.109375 38.09375 18.109375 28.8125 
L 18.109375 0 
L 9.078125 0 
L 9.078125 54.6875 
L 18.109375 54.6875 
L 18.109375 46.1875 
Q 20.953125 51.171875 25.484375 53.578125 
Q 30.03125 56 36.53125 56 
Q 37.453125 56 38.578125 55.875 
Q 39.703125 55.765625 41.0625 55.515625 
z
" id="DejaVuSans-114"/>
    </defs>
    <g transform="translate(519.091511 375.48)scale(0.12 -0.12)">
     <use xlink:href="#DejaVuSans-102"/>
     <use x="35.205078" xlink:href="#DejaVuSans-97"/>
     <use x="96.484375" xlink:href="#DejaVuSans-105"/>
     <use x="124.267578" xlink:href="#DejaVuSans-114"/>
     <use x="165.380859" xlink:href="#DejaVuSans-102"/>
     <use x="200.585938" xlink:href="#DejaVuSans-117"/>
     <use x="263.964844" xlink:href="#DejaVuSans-122"/>
     <use x="316.455078" xlink:href="#DejaVuSans-122"/>
    </g>
   </g>
  </g>
  <g id="axes_6">
   <g id="patch_27">
    <path d="M 736.99 692.12 
L 1058.263647 692.12 
L 1058.263647 381.48 
L 736.99 381.48 
z
" style="fill:#ffffff;"/>
   </g>
   <g id="PolyCollection_6">
    <defs>
     <path d="M 739.884712 -187.8596 
L 739.884712 116.5676 
L 739.904404 76.726057 
L 739.96348 -66.71 
L 740.022555 -51.53091 
L 740.081631 -66.705147 
L 740.101323 -89.640137 
L 760.994448 -105.54 
L 766.586953 -98.5506 
L 1002.96874 -102.025297 
L 1026.992881 -105.536765 
L 1033.156451 -114.497783 
L 1036.425309 -119.803771 
L 1049.520435 -125.7316 
L 1051.450243 -126.354322 
L 1051.450243 -154.619678 
L 1051.450243 -154.619678 
L 1049.520435 -147.4764 
L 1036.425309 -145.638229 
L 1033.156451 -143.178217 
L 1026.992881 -136.607235 
L 1002.96874 -132.352703 
L 766.586953 -120.2954 
L 760.994448 -105.54 
L 740.101323 -113.673863 
L 740.081631 -113.310853 
L 740.022555 -105.18709 
L 739.96348 -66.71 
L 739.904404 -155.784057 
L 739.884712 -187.8596 
z
" id="m3cdc34e87e" style="stroke:#0000ff;stroke-opacity:0.1;"/>
    </defs>
    <g clip-path="url(#p8dbfbb2968)">
     <use style="fill:#0000ff;fill-opacity:0.1;stroke:#0000ff;stroke-opacity:0.1;" x="0" xlink:href="#m3cdc34e87e" y="720"/>
    </g>
   </g>
   <g id="matplotlib.axis_11">
    <g id="xtick_41">
     <g id="line2d_91">
      <g>
       <use style="stroke:#000000;stroke-width:0.8;" x="776.235993" xlink:href="#m608bbe5ad6" y="692.12"/>
      </g>
     </g>
     <g id="text_91">
      <!-- 10000 -->
      <g transform="translate(760.329743 706.718438)scale(0.1 -0.1)">
       <use xlink:href="#DejaVuSans-49"/>
       <use x="63.623047" xlink:href="#DejaVuSans-48"/>
       <use x="127.246094" xlink:href="#DejaVuSans-48"/>
       <use x="190.869141" xlink:href="#DejaVuSans-48"/>
       <use x="254.492188" xlink:href="#DejaVuSans-48"/>
      </g>
     </g>
    </g>
    <g id="xtick_42">
     <g id="line2d_92">
      <g>
       <use style="stroke:#000000;stroke-width:0.8;" x="815.61983" xlink:href="#m608bbe5ad6" y="692.12"/>
      </g>
     </g>
     <g id="text_92">
      <!-- 20000 -->
      <g transform="translate(799.71358 706.718438)scale(0.1 -0.1)">
       <use xlink:href="#DejaVuSans-50"/>
       <use x="63.623047" xlink:href="#DejaVuSans-48"/>
       <use x="127.246094" xlink:href="#DejaVuSans-48"/>
       <use x="190.869141" xlink:href="#DejaVuSans-48"/>
       <use x="254.492188" xlink:href="#DejaVuSans-48"/>
      </g>
     </g>
    </g>
    <g id="xtick_43">
     <g id="line2d_93">
      <g>
       <use style="stroke:#000000;stroke-width:0.8;" x="855.003666" xlink:href="#m608bbe5ad6" y="692.12"/>
      </g>
     </g>
     <g id="text_93">
      <!-- 30000 -->
      <g transform="translate(839.097416 706.718438)scale(0.1 -0.1)">
       <use xlink:href="#DejaVuSans-51"/>
       <use x="63.623047" xlink:href="#DejaVuSans-48"/>
       <use x="127.246094" xlink:href="#DejaVuSans-48"/>
       <use x="190.869141" xlink:href="#DejaVuSans-48"/>
       <use x="254.492188" xlink:href="#DejaVuSans-48"/>
      </g>
     </g>
    </g>
    <g id="xtick_44">
     <g id="line2d_94">
      <g>
       <use style="stroke:#000000;stroke-width:0.8;" x="894.387503" xlink:href="#m608bbe5ad6" y="692.12"/>
      </g>
     </g>
     <g id="text_94">
      <!-- 40000 -->
      <g transform="translate(878.481253 706.718438)scale(0.1 -0.1)">
       <use xlink:href="#DejaVuSans-52"/>
       <use x="63.623047" xlink:href="#DejaVuSans-48"/>
       <use x="127.246094" xlink:href="#DejaVuSans-48"/>
       <use x="190.869141" xlink:href="#DejaVuSans-48"/>
       <use x="254.492188" xlink:href="#DejaVuSans-48"/>
      </g>
     </g>
    </g>
    <g id="xtick_45">
     <g id="line2d_95">
      <g>
       <use style="stroke:#000000;stroke-width:0.8;" x="933.771339" xlink:href="#m608bbe5ad6" y="692.12"/>
      </g>
     </g>
     <g id="text_95">
      <!-- 50000 -->
      <g transform="translate(917.865089 706.718438)scale(0.1 -0.1)">
       <use xlink:href="#DejaVuSans-53"/>
       <use x="63.623047" xlink:href="#DejaVuSans-48"/>
       <use x="127.246094" xlink:href="#DejaVuSans-48"/>
       <use x="190.869141" xlink:href="#DejaVuSans-48"/>
       <use x="254.492188" xlink:href="#DejaVuSans-48"/>
      </g>
     </g>
    </g>
    <g id="xtick_46">
     <g id="line2d_96">
      <g>
       <use style="stroke:#000000;stroke-width:0.8;" x="973.155176" xlink:href="#m608bbe5ad6" y="692.12"/>
      </g>
     </g>
     <g id="text_96">
      <!-- 60000 -->
      <g transform="translate(957.248926 706.718438)scale(0.1 -0.1)">
       <use xlink:href="#DejaVuSans-54"/>
       <use x="63.623047" xlink:href="#DejaVuSans-48"/>
       <use x="127.246094" xlink:href="#DejaVuSans-48"/>
       <use x="190.869141" xlink:href="#DejaVuSans-48"/>
       <use x="254.492188" xlink:href="#DejaVuSans-48"/>
      </g>
     </g>
    </g>
    <g id="xtick_47">
     <g id="line2d_97">
      <g>
       <use style="stroke:#000000;stroke-width:0.8;" x="1012.539013" xlink:href="#m608bbe5ad6" y="692.12"/>
      </g>
     </g>
     <g id="text_97">
      <!-- 70000 -->
      <g transform="translate(996.632763 706.718438)scale(0.1 -0.1)">
       <use xlink:href="#DejaVuSans-55"/>
       <use x="63.623047" xlink:href="#DejaVuSans-48"/>
       <use x="127.246094" xlink:href="#DejaVuSans-48"/>
       <use x="190.869141" xlink:href="#DejaVuSans-48"/>
       <use x="254.492188" xlink:href="#DejaVuSans-48"/>
      </g>
     </g>
    </g>
    <g id="xtick_48">
     <g id="line2d_98">
      <g>
       <use style="stroke:#000000;stroke-width:0.8;" x="1051.922849" xlink:href="#m608bbe5ad6" y="692.12"/>
      </g>
     </g>
     <g id="text_98">
      <!-- 80000 -->
      <g transform="translate(1036.016599 706.718438)scale(0.1 -0.1)">
       <use xlink:href="#DejaVuSans-56"/>
       <use x="63.623047" xlink:href="#DejaVuSans-48"/>
       <use x="127.246094" xlink:href="#DejaVuSans-48"/>
       <use x="190.869141" xlink:href="#DejaVuSans-48"/>
       <use x="254.492188" xlink:href="#DejaVuSans-48"/>
      </g>
     </g>
    </g>
   </g>
   <g id="matplotlib.axis_12">
    <g id="ytick_46">
     <g id="line2d_99">
      <g>
       <use style="stroke:#000000;stroke-width:0.8;" x="736.99" xlink:href="#ma51466cfe6" y="692.12"/>
      </g>
     </g>
     <g id="text_99">
      <!-- 0 -->
      <g transform="translate(723.6275 695.919219)scale(0.1 -0.1)">
       <use xlink:href="#DejaVuSans-48"/>
      </g>
     </g>
    </g>
    <g id="ytick_47">
     <g id="line2d_100">
      <g>
       <use style="stroke:#000000;stroke-width:0.8;" x="736.99" xlink:href="#ma51466cfe6" y="653.29"/>
      </g>
     </g>
     <g id="text_100">
      <!-- 1 -->
      <g transform="translate(723.6275 657.089219)scale(0.1 -0.1)">
       <use xlink:href="#DejaVuSans-49"/>
      </g>
     </g>
    </g>
    <g id="ytick_48">
     <g id="line2d_101">
      <g>
       <use style="stroke:#000000;stroke-width:0.8;" x="736.99" xlink:href="#ma51466cfe6" y="614.46"/>
      </g>
     </g>
     <g id="text_101">
      <!-- 2 -->
      <g transform="translate(723.6275 618.259219)scale(0.1 -0.1)">
       <use xlink:href="#DejaVuSans-50"/>
      </g>
     </g>
    </g>
    <g id="ytick_49">
     <g id="line2d_102">
      <g>
       <use style="stroke:#000000;stroke-width:0.8;" x="736.99" xlink:href="#ma51466cfe6" y="575.63"/>
      </g>
     </g>
     <g id="text_102">
      <!-- 3 -->
      <g transform="translate(723.6275 579.429219)scale(0.1 -0.1)">
       <use xlink:href="#DejaVuSans-51"/>
      </g>
     </g>
    </g>
    <g id="ytick_50">
     <g id="line2d_103">
      <g>
       <use style="stroke:#000000;stroke-width:0.8;" x="736.99" xlink:href="#ma51466cfe6" y="536.8"/>
      </g>
     </g>
     <g id="text_103">
      <!-- 4 -->
      <g transform="translate(723.6275 540.599219)scale(0.1 -0.1)">
       <use xlink:href="#DejaVuSans-52"/>
      </g>
     </g>
    </g>
    <g id="ytick_51">
     <g id="line2d_104">
      <g>
       <use style="stroke:#000000;stroke-width:0.8;" x="736.99" xlink:href="#ma51466cfe6" y="497.97"/>
      </g>
     </g>
     <g id="text_104">
      <!-- 5 -->
      <g transform="translate(723.6275 501.769219)scale(0.1 -0.1)">
       <use xlink:href="#DejaVuSans-53"/>
      </g>
     </g>
    </g>
    <g id="ytick_52">
     <g id="line2d_105">
      <g>
       <use style="stroke:#000000;stroke-width:0.8;" x="736.99" xlink:href="#ma51466cfe6" y="459.14"/>
      </g>
     </g>
     <g id="text_105">
      <!-- 6 -->
      <g transform="translate(723.6275 462.939219)scale(0.1 -0.1)">
       <use xlink:href="#DejaVuSans-54"/>
      </g>
     </g>
    </g>
    <g id="ytick_53">
     <g id="line2d_106">
      <g>
       <use style="stroke:#000000;stroke-width:0.8;" x="736.99" xlink:href="#ma51466cfe6" y="420.31"/>
      </g>
     </g>
     <g id="text_106">
      <!-- 7 -->
      <g transform="translate(723.6275 424.109219)scale(0.1 -0.1)">
       <use xlink:href="#DejaVuSans-55"/>
      </g>
     </g>
    </g>
    <g id="ytick_54">
     <g id="line2d_107">
      <g>
       <use style="stroke:#000000;stroke-width:0.8;" x="736.99" xlink:href="#ma51466cfe6" y="381.48"/>
      </g>
     </g>
     <g id="text_107">
      <!-- 8 -->
      <g transform="translate(723.6275 385.279219)scale(0.1 -0.1)">
       <use xlink:href="#DejaVuSans-56"/>
      </g>
     </g>
    </g>
   </g>
   <g id="line2d_108">
    <path clip-path="url(#p8dbfbb2968)" d="M 739.884712 684.354 
L 739.884712 680.471 
L 739.904404 680.471 
L 739.904404 653.29 
L 739.96348 653.29 
L 739.96348 641.641 
L 740.022555 641.641 
L 740.022555 629.992 
L 740.081631 629.992 
L 740.081631 618.343 
L 740.101323 618.343 
L 740.101323 614.46 
L 760.994448 614.46 
L 760.994448 610.577 
L 766.586953 610.577 
L 766.586953 602.811 
L 1002.96874 602.811 
L 1002.96874 598.928 
L 1026.992881 598.928 
L 1026.992881 591.162 
L 1033.156451 591.162 
L 1033.156451 587.279 
L 1036.425309 587.279 
L 1036.425309 583.396 
L 1049.520435 583.396 
L 1049.520435 579.513 
L 1051.450243 579.513 
" style="fill:none;stroke:#1f77b4;stroke-linecap:square;stroke-width:1.5;"/>
   </g>
   <g id="patch_28">
    <path d="M 736.99 692.12 
L 736.99 381.48 
" style="fill:none;stroke:#000000;stroke-linecap:square;stroke-linejoin:miter;stroke-width:0.8;"/>
   </g>
   <g id="patch_29">
    <path d="M 1058.263647 692.12 
L 1058.263647 381.48 
" style="fill:none;stroke:#000000;stroke-linecap:square;stroke-linejoin:miter;stroke-width:0.8;"/>
   </g>
   <g id="patch_30">
    <path d="M 736.99 692.12 
L 1058.263647 692.12 
" style="fill:none;stroke:#000000;stroke-linecap:square;stroke-linejoin:miter;stroke-width:0.8;"/>
   </g>
   <g id="patch_31">
    <path d="M 736.99 381.48 
L 1058.263647 381.48 
" style="fill:none;stroke:#000000;stroke-linecap:square;stroke-linejoin:miter;stroke-width:0.8;"/>
   </g>
   <g id="text_108">
    <!-- afl -->
    <g transform="translate(890.170886 375.48)scale(0.12 -0.12)">
     <use xlink:href="#DejaVuSans-97"/>
     <use x="61.279297" xlink:href="#DejaVuSans-102"/>
     <use x="96.484375" xlink:href="#DejaVuSans-108"/>
    </g>
   </g>
  </g>
 </g>
 <defs>
  <clipPath id="pac36ef38e5">
   <rect height="310.64" width="321.273647" x="24.19" y="26.88"/>
  </clipPath>
  <clipPath id="p51c44b5f1a">
   <rect height="310.64" width="321.273647" x="380.59" y="26.88"/>
  </clipPath>
  <clipPath id="p73e2222b79">
   <rect height="310.64" width="321.273647" x="736.99" y="26.88"/>
  </clipPath>
  <clipPath id="p09780b31dd">
   <rect height="310.64" width="321.273647" x="24.19" y="381.48"/>
  </clipPath>
  <clipPath id="pb552aa64ce">
   <rect height="310.64" width="321.273647" x="380.59" y="381.48"/>
  </clipPath>
  <clipPath id="p8dbfbb2968">
   <rect height="310.64" width="321.273647" x="736.99" y="381.48"/>
  </clipPath>
 </defs>
</svg>
