<?xml version="1.0" encoding="utf-8" standalone="no"?>
<!DOCTYPE svg PUBLIC "-//W3C//DTD SVG 1.1//EN"
  "http://www.w3.org/Graphics/SVG/1.1/DTD/svg11.dtd">
<!-- Created with matplotlib (https://matplotlib.org/) -->
<svg height="720pt" version="1.1" viewBox="0 0 1080 720" width="1080pt" xmlns="http://www.w3.org/2000/svg" xmlns:xlink="http://www.w3.org/1999/xlink">
 <defs>
  <style type="text/css">
*{stroke-linecap:butt;stroke-linejoin:round;}
  </style>
 </defs>
 <g id="figure_1">
  <g id="patch_1">
   <path d="M 0 720 
L 1080 720 
L 1080 0 
L 0 0 
z
" style="fill:#ffffff;"/>
  </g>
  <g id="axes_1">
   <g id="patch_2">
    <path d="M 24.19 337.52 
L 347.439306 337.52 
L 347.439306 26.88 
L 24.19 26.88 
z
" style="fill:#ffffff;"/>
   </g>
   <g id="PolyCollection_1">
    <defs>
     <path d="M 24.481924 -542.4596 
L 24.481924 -238.0324 
L 24.571746 -343.637058 
L 24.594202 -421.31 
L 25.065771 -403.707067 
L 25.088227 -406.13091 
L 25.245416 -410.210168 
L 25.335239 -415.356067 
L 25.357695 -421.305147 
L 25.38015 -435.461378 
L 25.402606 -444.240137 
L 25.761897 -443.122002 
L 25.784352 -444.506445 
L 26.031365 -454.0684 
L 26.21101 -456.625297 
L 26.233466 -460.136765 
L 26.255921 -464.33364 
L 26.300833 -474.403771 
L 26.862224 -480.3316 
L 26.88468 -487.213883 
L 26.907136 -498.97 
L 26.907136 -498.97 
L 26.907136 -498.97 
L 26.88468 -502.960117 
L 26.862224 -502.0764 
L 26.300833 -500.238229 
L 26.255921 -494.77636 
L 26.233466 -491.207235 
L 26.21101 -486.952703 
L 26.031365 -481.7436 
L 25.784352 -483.539555 
L 25.761897 -477.157998 
L 25.402606 -468.273863 
L 25.38015 -469.286622 
L 25.357695 -467.910853 
L 25.335239 -466.093933 
L 25.245416 -463.473832 
L 25.088227 -459.78709 
L 25.065771 -454.444933 
L 24.594202 -421.31 
L 24.571746 -467.918942 
L 24.481924 -542.4596 
z
" id="m0ccdf4493a" style="stroke:#0000ff;stroke-opacity:0.1;"/>
    </defs>
    <g clip-path="url(#p21bff7109a)">
     <use style="fill:#0000ff;fill-opacity:0.1;stroke:#0000ff;stroke-opacity:0.1;" x="0" xlink:href="#m0ccdf4493a" y="720"/>
    </g>
   </g>
   <g id="matplotlib.axis_1">
    <g id="xtick_1">
     <g id="line2d_1">
      <defs>
       <path d="M 0 0 
L 0 3.5 
" id="mbeabc10497" style="stroke:#000000;stroke-width:0.8;"/>
      </defs>
      <g>
       <use style="stroke:#000000;stroke-width:0.8;" x="69.05642" xlink:href="#mbeabc10497" y="337.52"/>
      </g>
     </g>
     <g id="text_1">
      <!-- 10000 -->
      <defs>
       <path d="M 12.40625 8.296875 
L 28.515625 8.296875 
L 28.515625 63.921875 
L 10.984375 60.40625 
L 10.984375 69.390625 
L 28.421875 72.90625 
L 38.28125 72.90625 
L 38.28125 8.296875 
L 54.390625 8.296875 
L 54.390625 0 
L 12.40625 0 
z
" id="DejaVuSans-49"/>
       <path d="M 31.78125 66.40625 
Q 24.171875 66.40625 20.328125 58.90625 
Q 16.5 51.421875 16.5 36.375 
Q 16.5 21.390625 20.328125 13.890625 
Q 24.171875 6.390625 31.78125 6.390625 
Q 39.453125 6.390625 43.28125 13.890625 
Q 47.125 21.390625 47.125 36.375 
Q 47.125 51.421875 43.28125 58.90625 
Q 39.453125 66.40625 31.78125 66.40625 
z
M 31.78125 74.21875 
Q 44.046875 74.21875 50.515625 64.515625 
Q 56.984375 54.828125 56.984375 36.375 
Q 56.984375 17.96875 50.515625 8.265625 
Q 44.046875 -1.421875 31.78125 -1.421875 
Q 19.53125 -1.421875 13.0625 8.265625 
Q 6.59375 17.96875 6.59375 36.375 
Q 6.59375 54.828125 13.0625 64.515625 
Q 19.53125 74.21875 31.78125 74.21875 
z
" id="DejaVuSans-48"/>
      </defs>
      <g transform="translate(53.15017 352.118438)scale(0.1 -0.1)">
       <use xlink:href="#DejaVuSans-49"/>
       <use x="63.623047" xlink:href="#DejaVuSans-48"/>
       <use x="127.246094" xlink:href="#DejaVuSans-48"/>
       <use x="190.869141" xlink:href="#DejaVuSans-48"/>
       <use x="254.492188" xlink:href="#DejaVuSans-48"/>
      </g>
     </g>
    </g>
    <g id="xtick_2">
     <g id="line2d_2">
      <g>
       <use style="stroke:#000000;stroke-width:0.8;" x="113.967751" xlink:href="#mbeabc10497" y="337.52"/>
      </g>
     </g>
     <g id="text_2">
      <!-- 20000 -->
      <defs>
       <path d="M 19.1875 8.296875 
L 53.609375 8.296875 
L 53.609375 0 
L 7.328125 0 
L 7.328125 8.296875 
Q 12.9375 14.109375 22.625 23.890625 
Q 32.328125 33.6875 34.8125 36.53125 
Q 39.546875 41.84375 41.421875 45.53125 
Q 43.3125 49.21875 43.3125 52.78125 
Q 43.3125 58.59375 39.234375 62.25 
Q 35.15625 65.921875 28.609375 65.921875 
Q 23.96875 65.921875 18.8125 64.3125 
Q 13.671875 62.703125 7.8125 59.421875 
L 7.8125 69.390625 
Q 13.765625 71.78125 18.9375 73 
Q 24.125 74.21875 28.421875 74.21875 
Q 39.75 74.21875 46.484375 68.546875 
Q 53.21875 62.890625 53.21875 53.421875 
Q 53.21875 48.921875 51.53125 44.890625 
Q 49.859375 40.875 45.40625 35.40625 
Q 44.1875 33.984375 37.640625 27.21875 
Q 31.109375 20.453125 19.1875 8.296875 
z
" id="DejaVuSans-50"/>
      </defs>
      <g transform="translate(98.061501 352.118438)scale(0.1 -0.1)">
       <use xlink:href="#DejaVuSans-50"/>
       <use x="63.623047" xlink:href="#DejaVuSans-48"/>
       <use x="127.246094" xlink:href="#DejaVuSans-48"/>
       <use x="190.869141" xlink:href="#DejaVuSans-48"/>
       <use x="254.492188" xlink:href="#DejaVuSans-48"/>
      </g>
     </g>
    </g>
    <g id="xtick_3">
     <g id="line2d_3">
      <g>
       <use style="stroke:#000000;stroke-width:0.8;" x="158.879082" xlink:href="#mbeabc10497" y="337.52"/>
      </g>
     </g>
     <g id="text_3">
      <!-- 30000 -->
      <defs>
       <path d="M 40.578125 39.3125 
Q 47.65625 37.796875 51.625 33 
Q 55.609375 28.21875 55.609375 21.1875 
Q 55.609375 10.40625 48.1875 4.484375 
Q 40.765625 -1.421875 27.09375 -1.421875 
Q 22.515625 -1.421875 17.65625 -0.515625 
Q 12.796875 0.390625 7.625 2.203125 
L 7.625 11.71875 
Q 11.71875 9.328125 16.59375 8.109375 
Q 21.484375 6.890625 26.8125 6.890625 
Q 36.078125 6.890625 40.9375 10.546875 
Q 45.796875 14.203125 45.796875 21.1875 
Q 45.796875 27.640625 41.28125 31.265625 
Q 36.765625 34.90625 28.71875 34.90625 
L 20.21875 34.90625 
L 20.21875 43.015625 
L 29.109375 43.015625 
Q 36.375 43.015625 40.234375 45.921875 
Q 44.09375 48.828125 44.09375 54.296875 
Q 44.09375 59.90625 40.109375 62.90625 
Q 36.140625 65.921875 28.71875 65.921875 
Q 24.65625 65.921875 20.015625 65.03125 
Q 15.375 64.15625 9.8125 62.3125 
L 9.8125 71.09375 
Q 15.4375 72.65625 20.34375 73.4375 
Q 25.25 74.21875 29.59375 74.21875 
Q 40.828125 74.21875 47.359375 69.109375 
Q 53.90625 64.015625 53.90625 55.328125 
Q 53.90625 49.265625 50.4375 45.09375 
Q 46.96875 40.921875 40.578125 39.3125 
z
" id="DejaVuSans-51"/>
      </defs>
      <g transform="translate(142.972832 352.118438)scale(0.1 -0.1)">
       <use xlink:href="#DejaVuSans-51"/>
       <use x="63.623047" xlink:href="#DejaVuSans-48"/>
       <use x="127.246094" xlink:href="#DejaVuSans-48"/>
       <use x="190.869141" xlink:href="#DejaVuSans-48"/>
       <use x="254.492188" xlink:href="#DejaVuSans-48"/>
      </g>
     </g>
    </g>
    <g id="xtick_4">
     <g id="line2d_4">
      <g>
       <use style="stroke:#000000;stroke-width:0.8;" x="203.790413" xlink:href="#mbeabc10497" y="337.52"/>
      </g>
     </g>
     <g id="text_4">
      <!-- 40000 -->
      <defs>
       <path d="M 37.796875 64.3125 
L 12.890625 25.390625 
L 37.796875 25.390625 
z
M 35.203125 72.90625 
L 47.609375 72.90625 
L 47.609375 25.390625 
L 58.015625 25.390625 
L 58.015625 17.1875 
L 47.609375 17.1875 
L 47.609375 0 
L 37.796875 0 
L 37.796875 17.1875 
L 4.890625 17.1875 
L 4.890625 26.703125 
z
" id="DejaVuSans-52"/>
      </defs>
      <g transform="translate(187.884163 352.118438)scale(0.1 -0.1)">
       <use xlink:href="#DejaVuSans-52"/>
       <use x="63.623047" xlink:href="#DejaVuSans-48"/>
       <use x="127.246094" xlink:href="#DejaVuSans-48"/>
       <use x="190.869141" xlink:href="#DejaVuSans-48"/>
       <use x="254.492188" xlink:href="#DejaVuSans-48"/>
      </g>
     </g>
    </g>
    <g id="xtick_5">
     <g id="line2d_5">
      <g>
       <use style="stroke:#000000;stroke-width:0.8;" x="248.701744" xlink:href="#mbeabc10497" y="337.52"/>
      </g>
     </g>
     <g id="text_5">
      <!-- 50000 -->
      <defs>
       <path d="M 10.796875 72.90625 
L 49.515625 72.90625 
L 49.515625 64.59375 
L 19.828125 64.59375 
L 19.828125 46.734375 
Q 21.96875 47.46875 24.109375 47.828125 
Q 26.265625 48.1875 28.421875 48.1875 
Q 40.625 48.1875 47.75 41.5 
Q 54.890625 34.8125 54.890625 23.390625 
Q 54.890625 11.625 47.5625 5.09375 
Q 40.234375 -1.421875 26.90625 -1.421875 
Q 22.3125 -1.421875 17.546875 -0.640625 
Q 12.796875 0.140625 7.71875 1.703125 
L 7.71875 11.625 
Q 12.109375 9.234375 16.796875 8.0625 
Q 21.484375 6.890625 26.703125 6.890625 
Q 35.15625 6.890625 40.078125 11.328125 
Q 45.015625 15.765625 45.015625 23.390625 
Q 45.015625 31 40.078125 35.4375 
Q 35.15625 39.890625 26.703125 39.890625 
Q 22.75 39.890625 18.8125 39.015625 
Q 14.890625 38.140625 10.796875 36.28125 
z
" id="DejaVuSans-53"/>
      </defs>
      <g transform="translate(232.795494 352.118438)scale(0.1 -0.1)">
       <use xlink:href="#DejaVuSans-53"/>
       <use x="63.623047" xlink:href="#DejaVuSans-48"/>
       <use x="127.246094" xlink:href="#DejaVuSans-48"/>
       <use x="190.869141" xlink:href="#DejaVuSans-48"/>
       <use x="254.492188" xlink:href="#DejaVuSans-48"/>
      </g>
     </g>
    </g>
    <g id="xtick_6">
     <g id="line2d_6">
      <g>
       <use style="stroke:#000000;stroke-width:0.8;" x="293.613076" xlink:href="#mbeabc10497" y="337.52"/>
      </g>
     </g>
     <g id="text_6">
      <!-- 60000 -->
      <defs>
       <path d="M 33.015625 40.375 
Q 26.375 40.375 22.484375 35.828125 
Q 18.609375 31.296875 18.609375 23.390625 
Q 18.609375 15.53125 22.484375 10.953125 
Q 26.375 6.390625 33.015625 6.390625 
Q 39.65625 6.390625 43.53125 10.953125 
Q 47.40625 15.53125 47.40625 23.390625 
Q 47.40625 31.296875 43.53125 35.828125 
Q 39.65625 40.375 33.015625 40.375 
z
M 52.59375 71.296875 
L 52.59375 62.3125 
Q 48.875 64.0625 45.09375 64.984375 
Q 41.3125 65.921875 37.59375 65.921875 
Q 27.828125 65.921875 22.671875 59.328125 
Q 17.53125 52.734375 16.796875 39.40625 
Q 19.671875 43.65625 24.015625 45.921875 
Q 28.375 48.1875 33.59375 48.1875 
Q 44.578125 48.1875 50.953125 41.515625 
Q 57.328125 34.859375 57.328125 23.390625 
Q 57.328125 12.15625 50.6875 5.359375 
Q 44.046875 -1.421875 33.015625 -1.421875 
Q 20.359375 -1.421875 13.671875 8.265625 
Q 6.984375 17.96875 6.984375 36.375 
Q 6.984375 53.65625 15.1875 63.9375 
Q 23.390625 74.21875 37.203125 74.21875 
Q 40.921875 74.21875 44.703125 73.484375 
Q 48.484375 72.75 52.59375 71.296875 
z
" id="DejaVuSans-54"/>
      </defs>
      <g transform="translate(277.706826 352.118438)scale(0.1 -0.1)">
       <use xlink:href="#DejaVuSans-54"/>
       <use x="63.623047" xlink:href="#DejaVuSans-48"/>
       <use x="127.246094" xlink:href="#DejaVuSans-48"/>
       <use x="190.869141" xlink:href="#DejaVuSans-48"/>
       <use x="254.492188" xlink:href="#DejaVuSans-48"/>
      </g>
     </g>
    </g>
    <g id="xtick_7">
     <g id="line2d_7">
      <g>
       <use style="stroke:#000000;stroke-width:0.8;" x="338.524407" xlink:href="#mbeabc10497" y="337.52"/>
      </g>
     </g>
     <g id="text_7">
      <!-- 70000 -->
      <defs>
       <path d="M 8.203125 72.90625 
L 55.078125 72.90625 
L 55.078125 68.703125 
L 28.609375 0 
L 18.3125 0 
L 43.21875 64.59375 
L 8.203125 64.59375 
z
" id="DejaVuSans-55"/>
      </defs>
      <g transform="translate(322.618157 352.118438)scale(0.1 -0.1)">
       <use xlink:href="#DejaVuSans-55"/>
       <use x="63.623047" xlink:href="#DejaVuSans-48"/>
       <use x="127.246094" xlink:href="#DejaVuSans-48"/>
       <use x="190.869141" xlink:href="#DejaVuSans-48"/>
       <use x="254.492188" xlink:href="#DejaVuSans-48"/>
      </g>
     </g>
    </g>
   </g>
   <g id="matplotlib.axis_2">
    <g id="ytick_1">
     <g id="line2d_8">
      <defs>
       <path d="M 0 0 
L -3.5 0 
" id="mc8ab7ea365" style="stroke:#000000;stroke-width:0.8;"/>
      </defs>
      <g>
       <use style="stroke:#000000;stroke-width:0.8;" x="24.19" xlink:href="#mc8ab7ea365" y="337.52"/>
      </g>
     </g>
     <g id="text_8">
      <!-- 0 -->
      <g transform="translate(10.8275 341.319219)scale(0.1 -0.1)">
       <use xlink:href="#DejaVuSans-48"/>
      </g>
     </g>
    </g>
    <g id="ytick_2">
     <g id="line2d_9">
      <g>
       <use style="stroke:#000000;stroke-width:0.8;" x="24.19" xlink:href="#mc8ab7ea365" y="298.69"/>
      </g>
     </g>
     <g id="text_9">
      <!-- 1 -->
      <g transform="translate(10.8275 302.489219)scale(0.1 -0.1)">
       <use xlink:href="#DejaVuSans-49"/>
      </g>
     </g>
    </g>
    <g id="ytick_3">
     <g id="line2d_10">
      <g>
       <use style="stroke:#000000;stroke-width:0.8;" x="24.19" xlink:href="#mc8ab7ea365" y="259.86"/>
      </g>
     </g>
     <g id="text_10">
      <!-- 2 -->
      <g transform="translate(10.8275 263.659219)scale(0.1 -0.1)">
       <use xlink:href="#DejaVuSans-50"/>
      </g>
     </g>
    </g>
    <g id="ytick_4">
     <g id="line2d_11">
      <g>
       <use style="stroke:#000000;stroke-width:0.8;" x="24.19" xlink:href="#mc8ab7ea365" y="221.03"/>
      </g>
     </g>
     <g id="text_11">
      <!-- 3 -->
      <g transform="translate(10.8275 224.829219)scale(0.1 -0.1)">
       <use xlink:href="#DejaVuSans-51"/>
      </g>
     </g>
    </g>
    <g id="ytick_5">
     <g id="line2d_12">
      <g>
       <use style="stroke:#000000;stroke-width:0.8;" x="24.19" xlink:href="#mc8ab7ea365" y="182.2"/>
      </g>
     </g>
     <g id="text_12">
      <!-- 4 -->
      <g transform="translate(10.8275 185.999219)scale(0.1 -0.1)">
       <use xlink:href="#DejaVuSans-52"/>
      </g>
     </g>
    </g>
    <g id="ytick_6">
     <g id="line2d_13">
      <g>
       <use style="stroke:#000000;stroke-width:0.8;" x="24.19" xlink:href="#mc8ab7ea365" y="143.37"/>
      </g>
     </g>
     <g id="text_13">
      <!-- 5 -->
      <g transform="translate(10.8275 147.169219)scale(0.1 -0.1)">
       <use xlink:href="#DejaVuSans-53"/>
      </g>
     </g>
    </g>
    <g id="ytick_7">
     <g id="line2d_14">
      <g>
       <use style="stroke:#000000;stroke-width:0.8;" x="24.19" xlink:href="#mc8ab7ea365" y="104.54"/>
      </g>
     </g>
     <g id="text_14">
      <!-- 6 -->
      <g transform="translate(10.8275 108.339219)scale(0.1 -0.1)">
       <use xlink:href="#DejaVuSans-54"/>
      </g>
     </g>
    </g>
    <g id="ytick_8">
     <g id="line2d_15">
      <g>
       <use style="stroke:#000000;stroke-width:0.8;" x="24.19" xlink:href="#mc8ab7ea365" y="65.71"/>
      </g>
     </g>
     <g id="text_15">
      <!-- 7 -->
      <g transform="translate(10.8275 69.509219)scale(0.1 -0.1)">
       <use xlink:href="#DejaVuSans-55"/>
      </g>
     </g>
    </g>
    <g id="ytick_9">
     <g id="line2d_16">
      <g>
       <use style="stroke:#000000;stroke-width:0.8;" x="24.19" xlink:href="#mc8ab7ea365" y="26.88"/>
      </g>
     </g>
     <g id="text_16">
      <!-- 8 -->
      <defs>
       <path d="M 31.78125 34.625 
Q 24.75 34.625 20.71875 30.859375 
Q 16.703125 27.09375 16.703125 20.515625 
Q 16.703125 13.921875 20.71875 10.15625 
Q 24.75 6.390625 31.78125 6.390625 
Q 38.8125 6.390625 42.859375 10.171875 
Q 46.921875 13.96875 46.921875 20.515625 
Q 46.921875 27.09375 42.890625 30.859375 
Q 38.875 34.625 31.78125 34.625 
z
M 21.921875 38.8125 
Q 15.578125 40.375 12.03125 44.71875 
Q 8.5 49.078125 8.5 55.328125 
Q 8.5 64.0625 14.71875 69.140625 
Q 20.953125 74.21875 31.78125 74.21875 
Q 42.671875 74.21875 48.875 69.140625 
Q 55.078125 64.0625 55.078125 55.328125 
Q 55.078125 49.078125 51.53125 44.71875 
Q 48 40.375 41.703125 38.8125 
Q 48.828125 37.15625 52.796875 32.3125 
Q 56.78125 27.484375 56.78125 20.515625 
Q 56.78125 9.90625 50.3125 4.234375 
Q 43.84375 -1.421875 31.78125 -1.421875 
Q 19.734375 -1.421875 13.25 4.234375 
Q 6.78125 9.90625 6.78125 20.515625 
Q 6.78125 27.484375 10.78125 32.3125 
Q 14.796875 37.15625 21.921875 38.8125 
z
M 18.3125 54.390625 
Q 18.3125 48.734375 21.84375 45.5625 
Q 25.390625 42.390625 31.78125 42.390625 
Q 38.140625 42.390625 41.71875 45.5625 
Q 45.3125 48.734375 45.3125 54.390625 
Q 45.3125 60.0625 41.71875 63.234375 
Q 38.140625 66.40625 31.78125 66.40625 
Q 25.390625 66.40625 21.84375 63.234375 
Q 18.3125 60.0625 18.3125 54.390625 
z
" id="DejaVuSans-56"/>
      </defs>
      <g transform="translate(10.8275 30.679219)scale(0.1 -0.1)">
       <use xlink:href="#DejaVuSans-56"/>
      </g>
     </g>
    </g>
   </g>
   <g id="line2d_17">
    <path clip-path="url(#p21bff7109a)" d="M 24.481924 329.754 
L 24.481924 314.222 
L 24.571746 314.222 
L 24.571746 298.69 
L 24.594202 298.69 
L 24.594202 290.924 
L 25.065771 290.924 
L 25.065771 287.041 
L 25.088227 287.041 
L 25.088227 283.158 
L 25.245416 283.158 
L 25.245416 279.275 
L 25.335239 279.275 
L 25.335239 275.392 
L 25.357695 275.392 
L 25.357695 267.626 
L 25.38015 267.626 
L 25.38015 263.743 
L 25.402606 263.743 
L 25.402606 259.86 
L 25.761897 259.86 
L 25.761897 255.977 
L 25.784352 255.977 
L 25.784352 252.094 
L 26.031365 252.094 
L 26.031365 248.211 
L 26.21101 248.211 
L 26.21101 244.328 
L 26.233466 244.328 
L 26.233466 240.445 
L 26.255921 240.445 
L 26.255921 232.679 
L 26.300833 232.679 
L 26.300833 228.796 
L 26.862224 228.796 
L 26.862224 224.913 
L 26.88468 224.913 
L 26.88468 221.03 
L 26.907136 221.03 
" style="fill:none;stroke:#1f77b4;stroke-linecap:square;stroke-width:1.5;"/>
   </g>
   <g id="patch_3">
    <path d="M 24.19 337.52 
L 24.19 26.88 
" style="fill:none;stroke:#000000;stroke-linecap:square;stroke-linejoin:miter;stroke-width:0.8;"/>
   </g>
   <g id="patch_4">
    <path d="M 347.439306 337.52 
L 347.439306 26.88 
" style="fill:none;stroke:#000000;stroke-linecap:square;stroke-linejoin:miter;stroke-width:0.8;"/>
   </g>
   <g id="patch_5">
    <path d="M 24.19 337.52 
L 347.439306 337.52 
" style="fill:none;stroke:#000000;stroke-linecap:square;stroke-linejoin:miter;stroke-width:0.8;"/>
   </g>
   <g id="patch_6">
    <path d="M 24.19 26.88 
L 347.439306 26.88 
" style="fill:none;stroke:#000000;stroke-linecap:square;stroke-linejoin:miter;stroke-width:0.8;"/>
   </g>
   <g id="text_17">
    <!-- moptafl -->
    <defs>
     <path d="M 52 44.1875 
Q 55.375 50.25 60.0625 53.125 
Q 64.75 56 71.09375 56 
Q 79.640625 56 84.28125 50.015625 
Q 88.921875 44.046875 88.921875 33.015625 
L 88.921875 0 
L 79.890625 0 
L 79.890625 32.71875 
Q 79.890625 40.578125 77.09375 44.375 
Q 74.3125 48.1875 68.609375 48.1875 
Q 61.625 48.1875 57.5625 43.546875 
Q 53.515625 38.921875 53.515625 30.90625 
L 53.515625 0 
L 44.484375 0 
L 44.484375 32.71875 
Q 44.484375 40.625 41.703125 44.40625 
Q 38.921875 48.1875 33.109375 48.1875 
Q 26.21875 48.1875 22.15625 43.53125 
Q 18.109375 38.875 18.109375 30.90625 
L 18.109375 0 
L 9.078125 0 
L 9.078125 54.6875 
L 18.109375 54.6875 
L 18.109375 46.1875 
Q 21.1875 51.21875 25.484375 53.609375 
Q 29.78125 56 35.6875 56 
Q 41.65625 56 45.828125 52.96875 
Q 50 49.953125 52 44.1875 
z
" id="DejaVuSans-109"/>
     <path d="M 30.609375 48.390625 
Q 23.390625 48.390625 19.1875 42.75 
Q 14.984375 37.109375 14.984375 27.296875 
Q 14.984375 17.484375 19.15625 11.84375 
Q 23.34375 6.203125 30.609375 6.203125 
Q 37.796875 6.203125 41.984375 11.859375 
Q 46.1875 17.53125 46.1875 27.296875 
Q 46.1875 37.015625 41.984375 42.703125 
Q 37.796875 48.390625 30.609375 48.390625 
z
M 30.609375 56 
Q 42.328125 56 49.015625 48.375 
Q 55.71875 40.765625 55.71875 27.296875 
Q 55.71875 13.875 49.015625 6.21875 
Q 42.328125 -1.421875 30.609375 -1.421875 
Q 18.84375 -1.421875 12.171875 6.21875 
Q 5.515625 13.875 5.515625 27.296875 
Q 5.515625 40.765625 12.171875 48.375 
Q 18.84375 56 30.609375 56 
z
" id="DejaVuSans-111"/>
     <path d="M 18.109375 8.203125 
L 18.109375 -20.796875 
L 9.078125 -20.796875 
L 9.078125 54.6875 
L 18.109375 54.6875 
L 18.109375 46.390625 
Q 20.953125 51.265625 25.265625 53.625 
Q 29.59375 56 35.59375 56 
Q 45.5625 56 51.78125 48.09375 
Q 58.015625 40.1875 58.015625 27.296875 
Q 58.015625 14.40625 51.78125 6.484375 
Q 45.5625 -1.421875 35.59375 -1.421875 
Q 29.59375 -1.421875 25.265625 0.953125 
Q 20.953125 3.328125 18.109375 8.203125 
z
M 48.6875 27.296875 
Q 48.6875 37.203125 44.609375 42.84375 
Q 40.53125 48.484375 33.40625 48.484375 
Q 26.265625 48.484375 22.1875 42.84375 
Q 18.109375 37.203125 18.109375 27.296875 
Q 18.109375 17.390625 22.1875 11.75 
Q 26.265625 6.109375 33.40625 6.109375 
Q 40.53125 6.109375 44.609375 11.75 
Q 48.6875 17.390625 48.6875 27.296875 
z
" id="DejaVuSans-112"/>
     <path d="M 18.3125 70.21875 
L 18.3125 54.6875 
L 36.8125 54.6875 
L 36.8125 47.703125 
L 18.3125 47.703125 
L 18.3125 18.015625 
Q 18.3125 11.328125 20.140625 9.421875 
Q 21.96875 7.515625 27.59375 7.515625 
L 36.8125 7.515625 
L 36.8125 0 
L 27.59375 0 
Q 17.1875 0 13.234375 3.875 
Q 9.28125 7.765625 9.28125 18.015625 
L 9.28125 47.703125 
L 2.6875 47.703125 
L 2.6875 54.6875 
L 9.28125 54.6875 
L 9.28125 70.21875 
z
" id="DejaVuSans-116"/>
     <path d="M 34.28125 27.484375 
Q 23.390625 27.484375 19.1875 25 
Q 14.984375 22.515625 14.984375 16.5 
Q 14.984375 11.71875 18.140625 8.90625 
Q 21.296875 6.109375 26.703125 6.109375 
Q 34.1875 6.109375 38.703125 11.40625 
Q 43.21875 16.703125 43.21875 25.484375 
L 43.21875 27.484375 
z
M 52.203125 31.203125 
L 52.203125 0 
L 43.21875 0 
L 43.21875 8.296875 
Q 40.140625 3.328125 35.546875 0.953125 
Q 30.953125 -1.421875 24.3125 -1.421875 
Q 15.921875 -1.421875 10.953125 3.296875 
Q 6 8.015625 6 15.921875 
Q 6 25.140625 12.171875 29.828125 
Q 18.359375 34.515625 30.609375 34.515625 
L 43.21875 34.515625 
L 43.21875 35.40625 
Q 43.21875 41.609375 39.140625 45 
Q 35.0625 48.390625 27.6875 48.390625 
Q 23 48.390625 18.546875 47.265625 
Q 14.109375 46.140625 10.015625 43.890625 
L 10.015625 52.203125 
Q 14.9375 54.109375 19.578125 55.046875 
Q 24.21875 56 28.609375 56 
Q 40.484375 56 46.34375 49.84375 
Q 52.203125 43.703125 52.203125 31.203125 
z
" id="DejaVuSans-97"/>
     <path d="M 37.109375 75.984375 
L 37.109375 68.5 
L 28.515625 68.5 
Q 23.6875 68.5 21.796875 66.546875 
Q 19.921875 64.59375 19.921875 59.515625 
L 19.921875 54.6875 
L 34.71875 54.6875 
L 34.71875 47.703125 
L 19.921875 47.703125 
L 19.921875 0 
L 10.890625 0 
L 10.890625 47.703125 
L 2.296875 47.703125 
L 2.296875 54.6875 
L 10.890625 54.6875 
L 10.890625 58.5 
Q 10.890625 67.625 15.140625 71.796875 
Q 19.390625 75.984375 28.609375 75.984375 
z
" id="DejaVuSans-102"/>
     <path d="M 9.421875 75.984375 
L 18.40625 75.984375 
L 18.40625 0 
L 9.421875 0 
z
" id="DejaVuSans-108"/>
    </defs>
    <g transform="translate(162.68184 20.88)scale(0.12 -0.12)">
     <use xlink:href="#DejaVuSans-109"/>
     <use x="97.412109" xlink:href="#DejaVuSans-111"/>
     <use x="158.59375" xlink:href="#DejaVuSans-112"/>
     <use x="222.070312" xlink:href="#DejaVuSans-116"/>
     <use x="261.279297" xlink:href="#DejaVuSans-97"/>
     <use x="322.558594" xlink:href="#DejaVuSans-102"/>
     <use x="357.763672" xlink:href="#DejaVuSans-108"/>
    </g>
   </g>
  </g>
  <g id="axes_2">
   <g id="patch_7">
    <path d="M 380.59 337.52 
L 703.839306 337.52 
L 703.839306 26.88 
L 380.59 26.88 
z
" style="fill:#ffffff;"/>
   </g>
   <g id="PolyCollection_2">
    <defs>
     <path d="M 380.881924 -542.4596 
L 380.881924 -238.0324 
L 380.971746 -359.837404 
L 380.994202 -421.31 
L 381.488227 -403.707067 
L 381.757695 -406.13091 
L 381.78015 -415.356067 
L 381.802606 -427.975402 
L 381.847517 -435.461378 
L 382.184352 -434.68607 
L 382.206808 -436.072917 
L 382.476276 -444.506445 
L 382.521187 -454.0684 
L 382.700833 -460.136765 
L 382.723288 -464.33364 
L 382.745744 -469.097783 
L 382.7682 -474.403771 
L 382.813111 -480.3316 
L 383.419414 -487.213883 
L 383.486781 -498.97 
L 383.486781 -498.97 
L 383.486781 -498.97 
L 383.419414 -502.960117 
L 382.813111 -502.0764 
L 382.7682 -500.238229 
L 382.745744 -497.778217 
L 382.723288 -494.77636 
L 382.700833 -491.207235 
L 382.521187 -481.7436 
L 382.476276 -483.539555 
L 382.206808 -484.207083 
L 382.184352 -477.82793 
L 381.847517 -469.286622 
L 381.802606 -469.006598 
L 381.78015 -466.093933 
L 381.757695 -459.78709 
L 381.488227 -454.444933 
L 380.994202 -421.31 
L 380.971746 -459.484596 
L 380.881924 -542.4596 
z
" id="me57de44ce6" style="stroke:#0000ff;stroke-opacity:0.1;"/>
    </defs>
    <g clip-path="url(#p98dd0e8ebc)">
     <use style="fill:#0000ff;fill-opacity:0.1;stroke:#0000ff;stroke-opacity:0.1;" x="0" xlink:href="#me57de44ce6" y="720"/>
    </g>
   </g>
   <g id="matplotlib.axis_3">
    <g id="xtick_8">
     <g id="line2d_18">
      <g>
       <use style="stroke:#000000;stroke-width:0.8;" x="425.45642" xlink:href="#mbeabc10497" y="337.52"/>
      </g>
     </g>
     <g id="text_18">
      <!-- 10000 -->
      <g transform="translate(409.55017 352.118438)scale(0.1 -0.1)">
       <use xlink:href="#DejaVuSans-49"/>
       <use x="63.623047" xlink:href="#DejaVuSans-48"/>
       <use x="127.246094" xlink:href="#DejaVuSans-48"/>
       <use x="190.869141" xlink:href="#DejaVuSans-48"/>
       <use x="254.492188" xlink:href="#DejaVuSans-48"/>
      </g>
     </g>
    </g>
    <g id="xtick_9">
     <g id="line2d_19">
      <g>
       <use style="stroke:#000000;stroke-width:0.8;" x="470.367751" xlink:href="#mbeabc10497" y="337.52"/>
      </g>
     </g>
     <g id="text_19">
      <!-- 20000 -->
      <g transform="translate(454.461501 352.118438)scale(0.1 -0.1)">
       <use xlink:href="#DejaVuSans-50"/>
       <use x="63.623047" xlink:href="#DejaVuSans-48"/>
       <use x="127.246094" xlink:href="#DejaVuSans-48"/>
       <use x="190.869141" xlink:href="#DejaVuSans-48"/>
       <use x="254.492188" xlink:href="#DejaVuSans-48"/>
      </g>
     </g>
    </g>
    <g id="xtick_10">
     <g id="line2d_20">
      <g>
       <use style="stroke:#000000;stroke-width:0.8;" x="515.279082" xlink:href="#mbeabc10497" y="337.52"/>
      </g>
     </g>
     <g id="text_20">
      <!-- 30000 -->
      <g transform="translate(499.372832 352.118438)scale(0.1 -0.1)">
       <use xlink:href="#DejaVuSans-51"/>
       <use x="63.623047" xlink:href="#DejaVuSans-48"/>
       <use x="127.246094" xlink:href="#DejaVuSans-48"/>
       <use x="190.869141" xlink:href="#DejaVuSans-48"/>
       <use x="254.492188" xlink:href="#DejaVuSans-48"/>
      </g>
     </g>
    </g>
    <g id="xtick_11">
     <g id="line2d_21">
      <g>
       <use style="stroke:#000000;stroke-width:0.8;" x="560.190413" xlink:href="#mbeabc10497" y="337.52"/>
      </g>
     </g>
     <g id="text_21">
      <!-- 40000 -->
      <g transform="translate(544.284163 352.118438)scale(0.1 -0.1)">
       <use xlink:href="#DejaVuSans-52"/>
       <use x="63.623047" xlink:href="#DejaVuSans-48"/>
       <use x="127.246094" xlink:href="#DejaVuSans-48"/>
       <use x="190.869141" xlink:href="#DejaVuSans-48"/>
       <use x="254.492188" xlink:href="#DejaVuSans-48"/>
      </g>
     </g>
    </g>
    <g id="xtick_12">
     <g id="line2d_22">
      <g>
       <use style="stroke:#000000;stroke-width:0.8;" x="605.101744" xlink:href="#mbeabc10497" y="337.52"/>
      </g>
     </g>
     <g id="text_22">
      <!-- 50000 -->
      <g transform="translate(589.195494 352.118438)scale(0.1 -0.1)">
       <use xlink:href="#DejaVuSans-53"/>
       <use x="63.623047" xlink:href="#DejaVuSans-48"/>
       <use x="127.246094" xlink:href="#DejaVuSans-48"/>
       <use x="190.869141" xlink:href="#DejaVuSans-48"/>
       <use x="254.492188" xlink:href="#DejaVuSans-48"/>
      </g>
     </g>
    </g>
    <g id="xtick_13">
     <g id="line2d_23">
      <g>
       <use style="stroke:#000000;stroke-width:0.8;" x="650.013076" xlink:href="#mbeabc10497" y="337.52"/>
      </g>
     </g>
     <g id="text_23">
      <!-- 60000 -->
      <g transform="translate(634.106826 352.118438)scale(0.1 -0.1)">
       <use xlink:href="#DejaVuSans-54"/>
       <use x="63.623047" xlink:href="#DejaVuSans-48"/>
       <use x="127.246094" xlink:href="#DejaVuSans-48"/>
       <use x="190.869141" xlink:href="#DejaVuSans-48"/>
       <use x="254.492188" xlink:href="#DejaVuSans-48"/>
      </g>
     </g>
    </g>
    <g id="xtick_14">
     <g id="line2d_24">
      <g>
       <use style="stroke:#000000;stroke-width:0.8;" x="694.924407" xlink:href="#mbeabc10497" y="337.52"/>
      </g>
     </g>
     <g id="text_24">
      <!-- 70000 -->
      <g transform="translate(679.018157 352.118438)scale(0.1 -0.1)">
       <use xlink:href="#DejaVuSans-55"/>
       <use x="63.623047" xlink:href="#DejaVuSans-48"/>
       <use x="127.246094" xlink:href="#DejaVuSans-48"/>
       <use x="190.869141" xlink:href="#DejaVuSans-48"/>
       <use x="254.492188" xlink:href="#DejaVuSans-48"/>
      </g>
     </g>
    </g>
   </g>
   <g id="matplotlib.axis_4">
    <g id="ytick_10">
     <g id="line2d_25">
      <g>
       <use style="stroke:#000000;stroke-width:0.8;" x="380.59" xlink:href="#mc8ab7ea365" y="337.52"/>
      </g>
     </g>
     <g id="text_25">
      <!-- 0 -->
      <g transform="translate(367.2275 341.319219)scale(0.1 -0.1)">
       <use xlink:href="#DejaVuSans-48"/>
      </g>
     </g>
    </g>
    <g id="ytick_11">
     <g id="line2d_26">
      <g>
       <use style="stroke:#000000;stroke-width:0.8;" x="380.59" xlink:href="#mc8ab7ea365" y="298.69"/>
      </g>
     </g>
     <g id="text_26">
      <!-- 1 -->
      <g transform="translate(367.2275 302.489219)scale(0.1 -0.1)">
       <use xlink:href="#DejaVuSans-49"/>
      </g>
     </g>
    </g>
    <g id="ytick_12">
     <g id="line2d_27">
      <g>
       <use style="stroke:#000000;stroke-width:0.8;" x="380.59" xlink:href="#mc8ab7ea365" y="259.86"/>
      </g>
     </g>
     <g id="text_27">
      <!-- 2 -->
      <g transform="translate(367.2275 263.659219)scale(0.1 -0.1)">
       <use xlink:href="#DejaVuSans-50"/>
      </g>
     </g>
    </g>
    <g id="ytick_13">
     <g id="line2d_28">
      <g>
       <use style="stroke:#000000;stroke-width:0.8;" x="380.59" xlink:href="#mc8ab7ea365" y="221.03"/>
      </g>
     </g>
     <g id="text_28">
      <!-- 3 -->
      <g transform="translate(367.2275 224.829219)scale(0.1 -0.1)">
       <use xlink:href="#DejaVuSans-51"/>
      </g>
     </g>
    </g>
    <g id="ytick_14">
     <g id="line2d_29">
      <g>
       <use style="stroke:#000000;stroke-width:0.8;" x="380.59" xlink:href="#mc8ab7ea365" y="182.2"/>
      </g>
     </g>
     <g id="text_29">
      <!-- 4 -->
      <g transform="translate(367.2275 185.999219)scale(0.1 -0.1)">
       <use xlink:href="#DejaVuSans-52"/>
      </g>
     </g>
    </g>
    <g id="ytick_15">
     <g id="line2d_30">
      <g>
       <use style="stroke:#000000;stroke-width:0.8;" x="380.59" xlink:href="#mc8ab7ea365" y="143.37"/>
      </g>
     </g>
     <g id="text_30">
      <!-- 5 -->
      <g transform="translate(367.2275 147.169219)scale(0.1 -0.1)">
       <use xlink:href="#DejaVuSans-53"/>
      </g>
     </g>
    </g>
    <g id="ytick_16">
     <g id="line2d_31">
      <g>
       <use style="stroke:#000000;stroke-width:0.8;" x="380.59" xlink:href="#mc8ab7ea365" y="104.54"/>
      </g>
     </g>
     <g id="text_31">
      <!-- 6 -->
      <g transform="translate(367.2275 108.339219)scale(0.1 -0.1)">
       <use xlink:href="#DejaVuSans-54"/>
      </g>
     </g>
    </g>
    <g id="ytick_17">
     <g id="line2d_32">
      <g>
       <use style="stroke:#000000;stroke-width:0.8;" x="380.59" xlink:href="#mc8ab7ea365" y="65.71"/>
      </g>
     </g>
     <g id="text_32">
      <!-- 7 -->
      <g transform="translate(367.2275 69.509219)scale(0.1 -0.1)">
       <use xlink:href="#DejaVuSans-55"/>
      </g>
     </g>
    </g>
    <g id="ytick_18">
     <g id="line2d_33">
      <g>
       <use style="stroke:#000000;stroke-width:0.8;" x="380.59" xlink:href="#mc8ab7ea365" y="26.88"/>
      </g>
     </g>
     <g id="text_33">
      <!-- 8 -->
      <g transform="translate(367.2275 30.679219)scale(0.1 -0.1)">
       <use xlink:href="#DejaVuSans-56"/>
      </g>
     </g>
    </g>
   </g>
   <g id="line2d_34">
    <path clip-path="url(#p98dd0e8ebc)" d="M 380.881924 329.754 
L 380.881924 310.339 
L 380.971746 310.339 
L 380.971746 298.69 
L 380.994202 298.69 
L 380.994202 290.924 
L 381.488227 290.924 
L 381.488227 287.041 
L 381.757695 287.041 
L 381.757695 279.275 
L 381.78015 279.275 
L 381.78015 271.509 
L 381.802606 271.509 
L 381.802606 267.626 
L 381.847517 267.626 
L 381.847517 263.743 
L 382.184352 263.743 
L 382.184352 259.86 
L 382.206808 259.86 
L 382.206808 255.977 
L 382.476276 255.977 
L 382.476276 252.094 
L 382.521187 252.094 
L 382.521187 244.328 
L 382.700833 244.328 
L 382.700833 240.445 
L 382.723288 240.445 
L 382.723288 236.562 
L 382.745744 236.562 
L 382.745744 232.679 
L 382.7682 232.679 
L 382.7682 228.796 
L 382.813111 228.796 
L 382.813111 224.913 
L 383.419414 224.913 
L 383.419414 221.03 
L 383.486781 221.03 
" style="fill:none;stroke:#1f77b4;stroke-linecap:square;stroke-width:1.5;"/>
   </g>
   <g id="patch_8">
    <path d="M 380.59 337.52 
L 380.59 26.88 
" style="fill:none;stroke:#000000;stroke-linecap:square;stroke-linejoin:miter;stroke-width:0.8;"/>
   </g>
   <g id="patch_9">
    <path d="M 703.839306 337.52 
L 703.839306 26.88 
" style="fill:none;stroke:#000000;stroke-linecap:square;stroke-linejoin:miter;stroke-width:0.8;"/>
   </g>
   <g id="patch_10">
    <path d="M 380.59 337.52 
L 703.839306 337.52 
" style="fill:none;stroke:#000000;stroke-linecap:square;stroke-linejoin:miter;stroke-width:0.8;"/>
   </g>
   <g id="patch_11">
    <path d="M 380.59 26.88 
L 703.839306 26.88 
" style="fill:none;stroke:#000000;stroke-linecap:square;stroke-linejoin:miter;stroke-width:0.8;"/>
   </g>
   <g id="text_34">
    <!-- aflfast -->
    <defs>
     <path d="M 44.28125 53.078125 
L 44.28125 44.578125 
Q 40.484375 46.53125 36.375 47.5 
Q 32.28125 48.484375 27.875 48.484375 
Q 21.1875 48.484375 17.84375 46.4375 
Q 14.5 44.390625 14.5 40.28125 
Q 14.5 37.15625 16.890625 35.375 
Q 19.28125 33.59375 26.515625 31.984375 
L 29.59375 31.296875 
Q 39.15625 29.25 43.1875 25.515625 
Q 47.21875 21.78125 47.21875 15.09375 
Q 47.21875 7.46875 41.1875 3.015625 
Q 35.15625 -1.421875 24.609375 -1.421875 
Q 20.21875 -1.421875 15.453125 -0.5625 
Q 10.6875 0.296875 5.421875 2 
L 5.421875 11.28125 
Q 10.40625 8.6875 15.234375 7.390625 
Q 20.0625 6.109375 24.8125 6.109375 
Q 31.15625 6.109375 34.5625 8.28125 
Q 37.984375 10.453125 37.984375 14.40625 
Q 37.984375 18.0625 35.515625 20.015625 
Q 33.0625 21.96875 24.703125 23.78125 
L 21.578125 24.515625 
Q 13.234375 26.265625 9.515625 29.90625 
Q 5.8125 33.546875 5.8125 39.890625 
Q 5.8125 47.609375 11.28125 51.796875 
Q 16.75 56 26.8125 56 
Q 31.78125 56 36.171875 55.265625 
Q 40.578125 54.546875 44.28125 53.078125 
z
" id="DejaVuSans-115"/>
    </defs>
    <g transform="translate(523.49184 20.88)scale(0.12 -0.12)">
     <use xlink:href="#DejaVuSans-97"/>
     <use x="61.279297" xlink:href="#DejaVuSans-102"/>
     <use x="96.484375" xlink:href="#DejaVuSans-108"/>
     <use x="124.267578" xlink:href="#DejaVuSans-102"/>
     <use x="159.472656" xlink:href="#DejaVuSans-97"/>
     <use x="220.751953" xlink:href="#DejaVuSans-115"/>
     <use x="272.851562" xlink:href="#DejaVuSans-116"/>
    </g>
   </g>
  </g>
  <g id="axes_3">
   <g id="patch_12">
    <path d="M 736.99 337.52 
L 1060.239306 337.52 
L 1060.239306 26.88 
L 736.99 26.88 
z
" style="fill:#ffffff;"/>
   </g>
   <g id="PolyCollection_3">
    <defs>
     <path d="M 737.349291 -614.6834 
L 737.349291 -158.0426 
L 737.371746 -277.873943 
L 737.394202 -325.7882 
L 737.528936 -421.31 
L 738.112783 -403.707067 
L 738.472074 -410.210168 
L 738.49453 -415.356067 
L 738.516985 -421.305147 
L 738.606808 -427.975402 
L 738.763998 -427.005067 
L 738.808909 -443.122002 
L 739.145744 -453.1506 
L 739.235567 -454.0684 
L 739.302934 -460.136765 
L 739.325389 -464.33364 
L 739.392756 -469.097783 
L 739.68468 -480.3316 
L 739.752047 -487.213883 
L 739.976604 -498.97 
L 739.976604 -498.97 
L 739.976604 -498.97 
L 739.752047 -502.960117 
L 739.68468 -502.0764 
L 739.392756 -497.778217 
L 739.325389 -494.77636 
L 739.302934 -491.207235 
L 739.235567 -481.7436 
L 739.145744 -474.8954 
L 738.808909 -477.157998 
L 738.763998 -477.742933 
L 738.606808 -469.006598 
L 738.516985 -467.910853 
L 738.49453 -466.093933 
L 738.472074 -463.473832 
L 738.112783 -454.444933 
L 737.528936 -421.31 
L 737.394202 -478.0018 
L 737.371746 -510.384057 
L 737.349291 -614.6834 
z
" id="m50d7d98560" style="stroke:#0000ff;stroke-opacity:0.1;"/>
    </defs>
    <g clip-path="url(#pcde0e2cdbe)">
     <use style="fill:#0000ff;fill-opacity:0.1;stroke:#0000ff;stroke-opacity:0.1;" x="0" xlink:href="#m50d7d98560" y="720"/>
    </g>
   </g>
   <g id="matplotlib.axis_5">
    <g id="xtick_15">
     <g id="line2d_35">
      <g>
       <use style="stroke:#000000;stroke-width:0.8;" x="781.85642" xlink:href="#mbeabc10497" y="337.52"/>
      </g>
     </g>
     <g id="text_35">
      <!-- 10000 -->
      <g transform="translate(765.95017 352.118438)scale(0.1 -0.1)">
       <use xlink:href="#DejaVuSans-49"/>
       <use x="63.623047" xlink:href="#DejaVuSans-48"/>
       <use x="127.246094" xlink:href="#DejaVuSans-48"/>
       <use x="190.869141" xlink:href="#DejaVuSans-48"/>
       <use x="254.492188" xlink:href="#DejaVuSans-48"/>
      </g>
     </g>
    </g>
    <g id="xtick_16">
     <g id="line2d_36">
      <g>
       <use style="stroke:#000000;stroke-width:0.8;" x="826.767751" xlink:href="#mbeabc10497" y="337.52"/>
      </g>
     </g>
     <g id="text_36">
      <!-- 20000 -->
      <g transform="translate(810.861501 352.118438)scale(0.1 -0.1)">
       <use xlink:href="#DejaVuSans-50"/>
       <use x="63.623047" xlink:href="#DejaVuSans-48"/>
       <use x="127.246094" xlink:href="#DejaVuSans-48"/>
       <use x="190.869141" xlink:href="#DejaVuSans-48"/>
       <use x="254.492188" xlink:href="#DejaVuSans-48"/>
      </g>
     </g>
    </g>
    <g id="xtick_17">
     <g id="line2d_37">
      <g>
       <use style="stroke:#000000;stroke-width:0.8;" x="871.679082" xlink:href="#mbeabc10497" y="337.52"/>
      </g>
     </g>
     <g id="text_37">
      <!-- 30000 -->
      <g transform="translate(855.772832 352.118438)scale(0.1 -0.1)">
       <use xlink:href="#DejaVuSans-51"/>
       <use x="63.623047" xlink:href="#DejaVuSans-48"/>
       <use x="127.246094" xlink:href="#DejaVuSans-48"/>
       <use x="190.869141" xlink:href="#DejaVuSans-48"/>
       <use x="254.492188" xlink:href="#DejaVuSans-48"/>
      </g>
     </g>
    </g>
    <g id="xtick_18">
     <g id="line2d_38">
      <g>
       <use style="stroke:#000000;stroke-width:0.8;" x="916.590413" xlink:href="#mbeabc10497" y="337.52"/>
      </g>
     </g>
     <g id="text_38">
      <!-- 40000 -->
      <g transform="translate(900.684163 352.118438)scale(0.1 -0.1)">
       <use xlink:href="#DejaVuSans-52"/>
       <use x="63.623047" xlink:href="#DejaVuSans-48"/>
       <use x="127.246094" xlink:href="#DejaVuSans-48"/>
       <use x="190.869141" xlink:href="#DejaVuSans-48"/>
       <use x="254.492188" xlink:href="#DejaVuSans-48"/>
      </g>
     </g>
    </g>
    <g id="xtick_19">
     <g id="line2d_39">
      <g>
       <use style="stroke:#000000;stroke-width:0.8;" x="961.501744" xlink:href="#mbeabc10497" y="337.52"/>
      </g>
     </g>
     <g id="text_39">
      <!-- 50000 -->
      <g transform="translate(945.595494 352.118438)scale(0.1 -0.1)">
       <use xlink:href="#DejaVuSans-53"/>
       <use x="63.623047" xlink:href="#DejaVuSans-48"/>
       <use x="127.246094" xlink:href="#DejaVuSans-48"/>
       <use x="190.869141" xlink:href="#DejaVuSans-48"/>
       <use x="254.492188" xlink:href="#DejaVuSans-48"/>
      </g>
     </g>
    </g>
    <g id="xtick_20">
     <g id="line2d_40">
      <g>
       <use style="stroke:#000000;stroke-width:0.8;" x="1006.413076" xlink:href="#mbeabc10497" y="337.52"/>
      </g>
     </g>
     <g id="text_40">
      <!-- 60000 -->
      <g transform="translate(990.506826 352.118438)scale(0.1 -0.1)">
       <use xlink:href="#DejaVuSans-54"/>
       <use x="63.623047" xlink:href="#DejaVuSans-48"/>
       <use x="127.246094" xlink:href="#DejaVuSans-48"/>
       <use x="190.869141" xlink:href="#DejaVuSans-48"/>
       <use x="254.492188" xlink:href="#DejaVuSans-48"/>
      </g>
     </g>
    </g>
    <g id="xtick_21">
     <g id="line2d_41">
      <g>
       <use style="stroke:#000000;stroke-width:0.8;" x="1051.324407" xlink:href="#mbeabc10497" y="337.52"/>
      </g>
     </g>
     <g id="text_41">
      <!-- 70000 -->
      <g transform="translate(1035.418157 352.118438)scale(0.1 -0.1)">
       <use xlink:href="#DejaVuSans-55"/>
       <use x="63.623047" xlink:href="#DejaVuSans-48"/>
       <use x="127.246094" xlink:href="#DejaVuSans-48"/>
       <use x="190.869141" xlink:href="#DejaVuSans-48"/>
       <use x="254.492188" xlink:href="#DejaVuSans-48"/>
      </g>
     </g>
    </g>
   </g>
   <g id="matplotlib.axis_6">
    <g id="ytick_19">
     <g id="line2d_42">
      <g>
       <use style="stroke:#000000;stroke-width:0.8;" x="736.99" xlink:href="#mc8ab7ea365" y="337.52"/>
      </g>
     </g>
     <g id="text_42">
      <!-- 0 -->
      <g transform="translate(723.6275 341.319219)scale(0.1 -0.1)">
       <use xlink:href="#DejaVuSans-48"/>
      </g>
     </g>
    </g>
    <g id="ytick_20">
     <g id="line2d_43">
      <g>
       <use style="stroke:#000000;stroke-width:0.8;" x="736.99" xlink:href="#mc8ab7ea365" y="298.69"/>
      </g>
     </g>
     <g id="text_43">
      <!-- 1 -->
      <g transform="translate(723.6275 302.489219)scale(0.1 -0.1)">
       <use xlink:href="#DejaVuSans-49"/>
      </g>
     </g>
    </g>
    <g id="ytick_21">
     <g id="line2d_44">
      <g>
       <use style="stroke:#000000;stroke-width:0.8;" x="736.99" xlink:href="#mc8ab7ea365" y="259.86"/>
      </g>
     </g>
     <g id="text_44">
      <!-- 2 -->
      <g transform="translate(723.6275 263.659219)scale(0.1 -0.1)">
       <use xlink:href="#DejaVuSans-50"/>
      </g>
     </g>
    </g>
    <g id="ytick_22">
     <g id="line2d_45">
      <g>
       <use style="stroke:#000000;stroke-width:0.8;" x="736.99" xlink:href="#mc8ab7ea365" y="221.03"/>
      </g>
     </g>
     <g id="text_45">
      <!-- 3 -->
      <g transform="translate(723.6275 224.829219)scale(0.1 -0.1)">
       <use xlink:href="#DejaVuSans-51"/>
      </g>
     </g>
    </g>
    <g id="ytick_23">
     <g id="line2d_46">
      <g>
       <use style="stroke:#000000;stroke-width:0.8;" x="736.99" xlink:href="#mc8ab7ea365" y="182.2"/>
      </g>
     </g>
     <g id="text_46">
      <!-- 4 -->
      <g transform="translate(723.6275 185.999219)scale(0.1 -0.1)">
       <use xlink:href="#DejaVuSans-52"/>
      </g>
     </g>
    </g>
    <g id="ytick_24">
     <g id="line2d_47">
      <g>
       <use style="stroke:#000000;stroke-width:0.8;" x="736.99" xlink:href="#mc8ab7ea365" y="143.37"/>
      </g>
     </g>
     <g id="text_47">
      <!-- 5 -->
      <g transform="translate(723.6275 147.169219)scale(0.1 -0.1)">
       <use xlink:href="#DejaVuSans-53"/>
      </g>
     </g>
    </g>
    <g id="ytick_25">
     <g id="line2d_48">
      <g>
       <use style="stroke:#000000;stroke-width:0.8;" x="736.99" xlink:href="#mc8ab7ea365" y="104.54"/>
      </g>
     </g>
     <g id="text_48">
      <!-- 6 -->
      <g transform="translate(723.6275 108.339219)scale(0.1 -0.1)">
       <use xlink:href="#DejaVuSans-54"/>
      </g>
     </g>
    </g>
    <g id="ytick_26">
     <g id="line2d_49">
      <g>
       <use style="stroke:#000000;stroke-width:0.8;" x="736.99" xlink:href="#mc8ab7ea365" y="65.71"/>
      </g>
     </g>
     <g id="text_49">
      <!-- 7 -->
      <g transform="translate(723.6275 69.509219)scale(0.1 -0.1)">
       <use xlink:href="#DejaVuSans-55"/>
      </g>
     </g>
    </g>
    <g id="ytick_27">
     <g id="line2d_50">
      <g>
       <use style="stroke:#000000;stroke-width:0.8;" x="736.99" xlink:href="#mc8ab7ea365" y="26.88"/>
      </g>
     </g>
     <g id="text_50">
      <!-- 8 -->
      <g transform="translate(723.6275 30.679219)scale(0.1 -0.1)">
       <use xlink:href="#DejaVuSans-56"/>
      </g>
     </g>
    </g>
   </g>
   <g id="line2d_51">
    <path clip-path="url(#pcde0e2cdbe)" d="M 737.349291 333.637 
L 737.349291 325.871 
L 737.371746 325.871 
L 737.371746 318.105 
L 737.394202 318.105 
L 737.394202 298.69 
L 737.528936 298.69 
L 737.528936 290.924 
L 738.112783 290.924 
L 738.112783 283.158 
L 738.472074 283.158 
L 738.472074 279.275 
L 738.49453 279.275 
L 738.49453 275.392 
L 738.516985 275.392 
L 738.516985 271.509 
L 738.606808 271.509 
L 738.606808 267.626 
L 738.763998 267.626 
L 738.763998 259.86 
L 738.808909 259.86 
L 738.808909 255.977 
L 739.145744 255.977 
L 739.145744 252.094 
L 739.235567 252.094 
L 739.235567 244.328 
L 739.302934 244.328 
L 739.302934 240.445 
L 739.325389 240.445 
L 739.325389 236.562 
L 739.392756 236.562 
L 739.392756 228.796 
L 739.68468 228.796 
L 739.68468 224.913 
L 739.752047 224.913 
L 739.752047 221.03 
L 739.976604 221.03 
" style="fill:none;stroke:#1f77b4;stroke-linecap:square;stroke-width:1.5;"/>
   </g>
   <g id="patch_13">
    <path d="M 736.99 337.52 
L 736.99 26.88 
" style="fill:none;stroke:#000000;stroke-linecap:square;stroke-linejoin:miter;stroke-width:0.8;"/>
   </g>
   <g id="patch_14">
    <path d="M 1060.239306 337.52 
L 1060.239306 26.88 
" style="fill:none;stroke:#000000;stroke-linecap:square;stroke-linejoin:miter;stroke-width:0.8;"/>
   </g>
   <g id="patch_15">
    <path d="M 736.99 337.52 
L 1060.239306 337.52 
" style="fill:none;stroke:#000000;stroke-linecap:square;stroke-linejoin:miter;stroke-width:0.8;"/>
   </g>
   <g id="patch_16">
    <path d="M 736.99 26.88 
L 1060.239306 26.88 
" style="fill:none;stroke:#000000;stroke-linecap:square;stroke-linejoin:miter;stroke-width:0.8;"/>
   </g>
   <g id="text_51">
    <!-- aflplusplus -->
    <defs>
     <path d="M 8.5 21.578125 
L 8.5 54.6875 
L 17.484375 54.6875 
L 17.484375 21.921875 
Q 17.484375 14.15625 20.5 10.265625 
Q 23.53125 6.390625 29.59375 6.390625 
Q 36.859375 6.390625 41.078125 11.03125 
Q 45.3125 15.671875 45.3125 23.6875 
L 45.3125 54.6875 
L 54.296875 54.6875 
L 54.296875 0 
L 45.3125 0 
L 45.3125 8.40625 
Q 42.046875 3.421875 37.71875 1 
Q 33.40625 -1.421875 27.6875 -1.421875 
Q 18.265625 -1.421875 13.375 4.4375 
Q 8.5 10.296875 8.5 21.578125 
z
M 31.109375 56 
z
" id="DejaVuSans-117"/>
    </defs>
    <g transform="translate(866.35059 20.88)scale(0.12 -0.12)">
     <use xlink:href="#DejaVuSans-97"/>
     <use x="61.279297" xlink:href="#DejaVuSans-102"/>
     <use x="96.484375" xlink:href="#DejaVuSans-108"/>
     <use x="124.267578" xlink:href="#DejaVuSans-112"/>
     <use x="187.744141" xlink:href="#DejaVuSans-108"/>
     <use x="215.527344" xlink:href="#DejaVuSans-117"/>
     <use x="278.90625" xlink:href="#DejaVuSans-115"/>
     <use x="331.005859" xlink:href="#DejaVuSans-112"/>
     <use x="394.482422" xlink:href="#DejaVuSans-108"/>
     <use x="422.265625" xlink:href="#DejaVuSans-117"/>
     <use x="485.644531" xlink:href="#DejaVuSans-115"/>
    </g>
   </g>
  </g>
  <g id="axes_4">
   <g id="patch_17">
    <path d="M 24.19 692.12 
L 347.439306 692.12 
L 347.439306 381.48 
L 24.19 381.48 
z
" style="fill:#ffffff;"/>
   </g>
   <g id="PolyCollection_4">
    <defs>
     <path d="M 24.19 -66.71 
L 24.19 -66.71 
L 26.547845 -49.8366 
L 28.7485 -49.107067 
L 28.838323 -51.53091 
L 30.410219 -55.610168 
L 34.878897 -52.089004 
L 38.337069 -51.9546 
L 43.546784 -58.925523 
L 43.950986 -66.133381 
L 48.172651 -73.617653 
L 49.452624 -76.063963 
L 68.562395 -79.318688 
L 88.727583 -87.418221 
L 109.521529 -91.344952 
L 170.129371 -100.037192 
L 186.948664 -104.533403 
L 204.68864 -114.497783 
L 346.765636 -119.803771 
L 347.41685 -125.7316 
L 347.41685 -147.4764 
L 347.41685 -147.4764 
L 346.765636 -145.638229 
L 204.68864 -143.178217 
L 186.948664 -145.376597 
L 170.129371 -142.106808 
L 109.521529 -143.033048 
L 88.727583 -139.193779 
L 68.562395 -139.527312 
L 49.452624 -135.016037 
L 48.172651 -129.696347 
L 43.950986 -129.414619 
L 43.546784 -128.856477 
L 38.337069 -128.0614 
L 34.878897 -120.160996 
L 30.410219 -108.873832 
L 28.838323 -105.18709 
L 28.7485 -99.844933 
L 26.547845 -91.3494 
L 24.19 -66.71 
z
" id="m13b381636a" style="stroke:#0000ff;stroke-opacity:0.1;"/>
    </defs>
    <g clip-path="url(#p5410c7a41a)">
     <use style="fill:#0000ff;fill-opacity:0.1;stroke:#0000ff;stroke-opacity:0.1;" x="0" xlink:href="#m13b381636a" y="720"/>
    </g>
   </g>
   <g id="matplotlib.axis_7">
    <g id="xtick_22">
     <g id="line2d_52">
      <g>
       <use style="stroke:#000000;stroke-width:0.8;" x="69.05642" xlink:href="#mbeabc10497" y="692.12"/>
      </g>
     </g>
     <g id="text_52">
      <!-- 10000 -->
      <g transform="translate(53.15017 706.718438)scale(0.1 -0.1)">
       <use xlink:href="#DejaVuSans-49"/>
       <use x="63.623047" xlink:href="#DejaVuSans-48"/>
       <use x="127.246094" xlink:href="#DejaVuSans-48"/>
       <use x="190.869141" xlink:href="#DejaVuSans-48"/>
       <use x="254.492188" xlink:href="#DejaVuSans-48"/>
      </g>
     </g>
    </g>
    <g id="xtick_23">
     <g id="line2d_53">
      <g>
       <use style="stroke:#000000;stroke-width:0.8;" x="113.967751" xlink:href="#mbeabc10497" y="692.12"/>
      </g>
     </g>
     <g id="text_53">
      <!-- 20000 -->
      <g transform="translate(98.061501 706.718438)scale(0.1 -0.1)">
       <use xlink:href="#DejaVuSans-50"/>
       <use x="63.623047" xlink:href="#DejaVuSans-48"/>
       <use x="127.246094" xlink:href="#DejaVuSans-48"/>
       <use x="190.869141" xlink:href="#DejaVuSans-48"/>
       <use x="254.492188" xlink:href="#DejaVuSans-48"/>
      </g>
     </g>
    </g>
    <g id="xtick_24">
     <g id="line2d_54">
      <g>
       <use style="stroke:#000000;stroke-width:0.8;" x="158.879082" xlink:href="#mbeabc10497" y="692.12"/>
      </g>
     </g>
     <g id="text_54">
      <!-- 30000 -->
      <g transform="translate(142.972832 706.718438)scale(0.1 -0.1)">
       <use xlink:href="#DejaVuSans-51"/>
       <use x="63.623047" xlink:href="#DejaVuSans-48"/>
       <use x="127.246094" xlink:href="#DejaVuSans-48"/>
       <use x="190.869141" xlink:href="#DejaVuSans-48"/>
       <use x="254.492188" xlink:href="#DejaVuSans-48"/>
      </g>
     </g>
    </g>
    <g id="xtick_25">
     <g id="line2d_55">
      <g>
       <use style="stroke:#000000;stroke-width:0.8;" x="203.790413" xlink:href="#mbeabc10497" y="692.12"/>
      </g>
     </g>
     <g id="text_55">
      <!-- 40000 -->
      <g transform="translate(187.884163 706.718438)scale(0.1 -0.1)">
       <use xlink:href="#DejaVuSans-52"/>
       <use x="63.623047" xlink:href="#DejaVuSans-48"/>
       <use x="127.246094" xlink:href="#DejaVuSans-48"/>
       <use x="190.869141" xlink:href="#DejaVuSans-48"/>
       <use x="254.492188" xlink:href="#DejaVuSans-48"/>
      </g>
     </g>
    </g>
    <g id="xtick_26">
     <g id="line2d_56">
      <g>
       <use style="stroke:#000000;stroke-width:0.8;" x="248.701744" xlink:href="#mbeabc10497" y="692.12"/>
      </g>
     </g>
     <g id="text_56">
      <!-- 50000 -->
      <g transform="translate(232.795494 706.718438)scale(0.1 -0.1)">
       <use xlink:href="#DejaVuSans-53"/>
       <use x="63.623047" xlink:href="#DejaVuSans-48"/>
       <use x="127.246094" xlink:href="#DejaVuSans-48"/>
       <use x="190.869141" xlink:href="#DejaVuSans-48"/>
       <use x="254.492188" xlink:href="#DejaVuSans-48"/>
      </g>
     </g>
    </g>
    <g id="xtick_27">
     <g id="line2d_57">
      <g>
       <use style="stroke:#000000;stroke-width:0.8;" x="293.613076" xlink:href="#mbeabc10497" y="692.12"/>
      </g>
     </g>
     <g id="text_57">
      <!-- 60000 -->
      <g transform="translate(277.706826 706.718438)scale(0.1 -0.1)">
       <use xlink:href="#DejaVuSans-54"/>
       <use x="63.623047" xlink:href="#DejaVuSans-48"/>
       <use x="127.246094" xlink:href="#DejaVuSans-48"/>
       <use x="190.869141" xlink:href="#DejaVuSans-48"/>
       <use x="254.492188" xlink:href="#DejaVuSans-48"/>
      </g>
     </g>
    </g>
    <g id="xtick_28">
     <g id="line2d_58">
      <g>
       <use style="stroke:#000000;stroke-width:0.8;" x="338.524407" xlink:href="#mbeabc10497" y="692.12"/>
      </g>
     </g>
     <g id="text_58">
      <!-- 70000 -->
      <g transform="translate(322.618157 706.718438)scale(0.1 -0.1)">
       <use xlink:href="#DejaVuSans-55"/>
       <use x="63.623047" xlink:href="#DejaVuSans-48"/>
       <use x="127.246094" xlink:href="#DejaVuSans-48"/>
       <use x="190.869141" xlink:href="#DejaVuSans-48"/>
       <use x="254.492188" xlink:href="#DejaVuSans-48"/>
      </g>
     </g>
    </g>
   </g>
   <g id="matplotlib.axis_8">
    <g id="ytick_28">
     <g id="line2d_59">
      <g>
       <use style="stroke:#000000;stroke-width:0.8;" x="24.19" xlink:href="#mc8ab7ea365" y="692.12"/>
      </g>
     </g>
     <g id="text_59">
      <!-- 0 -->
      <g transform="translate(10.8275 695.919219)scale(0.1 -0.1)">
       <use xlink:href="#DejaVuSans-48"/>
      </g>
     </g>
    </g>
    <g id="ytick_29">
     <g id="line2d_60">
      <g>
       <use style="stroke:#000000;stroke-width:0.8;" x="24.19" xlink:href="#mc8ab7ea365" y="653.29"/>
      </g>
     </g>
     <g id="text_60">
      <!-- 1 -->
      <g transform="translate(10.8275 657.089219)scale(0.1 -0.1)">
       <use xlink:href="#DejaVuSans-49"/>
      </g>
     </g>
    </g>
    <g id="ytick_30">
     <g id="line2d_61">
      <g>
       <use style="stroke:#000000;stroke-width:0.8;" x="24.19" xlink:href="#mc8ab7ea365" y="614.46"/>
      </g>
     </g>
     <g id="text_61">
      <!-- 2 -->
      <g transform="translate(10.8275 618.259219)scale(0.1 -0.1)">
       <use xlink:href="#DejaVuSans-50"/>
      </g>
     </g>
    </g>
    <g id="ytick_31">
     <g id="line2d_62">
      <g>
       <use style="stroke:#000000;stroke-width:0.8;" x="24.19" xlink:href="#mc8ab7ea365" y="575.63"/>
      </g>
     </g>
     <g id="text_62">
      <!-- 3 -->
      <g transform="translate(10.8275 579.429219)scale(0.1 -0.1)">
       <use xlink:href="#DejaVuSans-51"/>
      </g>
     </g>
    </g>
    <g id="ytick_32">
     <g id="line2d_63">
      <g>
       <use style="stroke:#000000;stroke-width:0.8;" x="24.19" xlink:href="#mc8ab7ea365" y="536.8"/>
      </g>
     </g>
     <g id="text_63">
      <!-- 4 -->
      <g transform="translate(10.8275 540.599219)scale(0.1 -0.1)">
       <use xlink:href="#DejaVuSans-52"/>
      </g>
     </g>
    </g>
    <g id="ytick_33">
     <g id="line2d_64">
      <g>
       <use style="stroke:#000000;stroke-width:0.8;" x="24.19" xlink:href="#mc8ab7ea365" y="497.97"/>
      </g>
     </g>
     <g id="text_64">
      <!-- 5 -->
      <g transform="translate(10.8275 501.769219)scale(0.1 -0.1)">
       <use xlink:href="#DejaVuSans-53"/>
      </g>
     </g>
    </g>
    <g id="ytick_34">
     <g id="line2d_65">
      <g>
       <use style="stroke:#000000;stroke-width:0.8;" x="24.19" xlink:href="#mc8ab7ea365" y="459.14"/>
      </g>
     </g>
     <g id="text_65">
      <!-- 6 -->
      <g transform="translate(10.8275 462.939219)scale(0.1 -0.1)">
       <use xlink:href="#DejaVuSans-54"/>
      </g>
     </g>
    </g>
    <g id="ytick_35">
     <g id="line2d_66">
      <g>
       <use style="stroke:#000000;stroke-width:0.8;" x="24.19" xlink:href="#mc8ab7ea365" y="420.31"/>
      </g>
     </g>
     <g id="text_66">
      <!-- 7 -->
      <g transform="translate(10.8275 424.109219)scale(0.1 -0.1)">
       <use xlink:href="#DejaVuSans-55"/>
      </g>
     </g>
    </g>
    <g id="ytick_36">
     <g id="line2d_67">
      <g>
       <use style="stroke:#000000;stroke-width:0.8;" x="24.19" xlink:href="#mc8ab7ea365" y="381.48"/>
      </g>
     </g>
     <g id="text_67">
      <!-- 8 -->
      <g transform="translate(10.8275 385.279219)scale(0.1 -0.1)">
       <use xlink:href="#DejaVuSans-56"/>
      </g>
     </g>
    </g>
   </g>
   <g id="line2d_68">
    <path clip-path="url(#p5410c7a41a)" d="M 24.19 653.29 
L 24.19 649.407 
L 26.547845 649.407 
L 26.547845 645.524 
L 28.7485 645.524 
L 28.7485 641.641 
L 28.838323 641.641 
L 28.838323 637.758 
L 30.410219 637.758 
L 30.410219 633.875 
L 34.878897 633.875 
L 34.878897 629.992 
L 38.337069 629.992 
L 38.337069 626.109 
L 43.546784 626.109 
L 43.546784 622.226 
L 43.950986 622.226 
L 43.950986 618.343 
L 48.172651 618.343 
L 48.172651 614.46 
L 49.452624 614.46 
L 49.452624 610.577 
L 68.562395 610.577 
L 68.562395 606.694 
L 88.727583 606.694 
L 88.727583 602.811 
L 109.521529 602.811 
L 109.521529 598.928 
L 170.129371 598.928 
L 170.129371 595.045 
L 186.948664 595.045 
L 186.948664 591.162 
L 204.68864 591.162 
L 204.68864 587.279 
L 346.765636 587.279 
L 346.765636 583.396 
L 347.41685 583.396 
" style="fill:none;stroke:#1f77b4;stroke-linecap:square;stroke-width:1.5;"/>
   </g>
   <g id="patch_18">
    <path d="M 24.19 692.12 
L 24.19 381.48 
" style="fill:none;stroke:#000000;stroke-linecap:square;stroke-linejoin:miter;stroke-width:0.8;"/>
   </g>
   <g id="patch_19">
    <path d="M 347.439306 692.12 
L 347.439306 381.48 
" style="fill:none;stroke:#000000;stroke-linecap:square;stroke-linejoin:miter;stroke-width:0.8;"/>
   </g>
   <g id="patch_20">
    <path d="M 24.19 692.12 
L 347.439306 692.12 
" style="fill:none;stroke:#000000;stroke-linecap:square;stroke-linejoin:miter;stroke-width:0.8;"/>
   </g>
   <g id="patch_21">
    <path d="M 24.19 381.48 
L 347.439306 381.48 
" style="fill:none;stroke:#000000;stroke-linecap:square;stroke-linejoin:miter;stroke-width:0.8;"/>
   </g>
   <g id="text_68">
    <!-- honggfuzz -->
    <defs>
     <path d="M 54.890625 33.015625 
L 54.890625 0 
L 45.90625 0 
L 45.90625 32.71875 
Q 45.90625 40.484375 42.875 44.328125 
Q 39.84375 48.1875 33.796875 48.1875 
Q 26.515625 48.1875 22.3125 43.546875 
Q 18.109375 38.921875 18.109375 30.90625 
L 18.109375 0 
L 9.078125 0 
L 9.078125 75.984375 
L 18.109375 75.984375 
L 18.109375 46.1875 
Q 21.34375 51.125 25.703125 53.5625 
Q 30.078125 56 35.796875 56 
Q 45.21875 56 50.046875 50.171875 
Q 54.890625 44.34375 54.890625 33.015625 
z
" id="DejaVuSans-104"/>
     <path d="M 54.890625 33.015625 
L 54.890625 0 
L 45.90625 0 
L 45.90625 32.71875 
Q 45.90625 40.484375 42.875 44.328125 
Q 39.84375 48.1875 33.796875 48.1875 
Q 26.515625 48.1875 22.3125 43.546875 
Q 18.109375 38.921875 18.109375 30.90625 
L 18.109375 0 
L 9.078125 0 
L 9.078125 54.6875 
L 18.109375 54.6875 
L 18.109375 46.1875 
Q 21.34375 51.125 25.703125 53.5625 
Q 30.078125 56 35.796875 56 
Q 45.21875 56 50.046875 50.171875 
Q 54.890625 44.34375 54.890625 33.015625 
z
" id="DejaVuSans-110"/>
     <path d="M 45.40625 27.984375 
Q 45.40625 37.75 41.375 43.109375 
Q 37.359375 48.484375 30.078125 48.484375 
Q 22.859375 48.484375 18.828125 43.109375 
Q 14.796875 37.75 14.796875 27.984375 
Q 14.796875 18.265625 18.828125 12.890625 
Q 22.859375 7.515625 30.078125 7.515625 
Q 37.359375 7.515625 41.375 12.890625 
Q 45.40625 18.265625 45.40625 27.984375 
z
M 54.390625 6.78125 
Q 54.390625 -7.171875 48.1875 -13.984375 
Q 42 -20.796875 29.203125 -20.796875 
Q 24.46875 -20.796875 20.265625 -20.09375 
Q 16.0625 -19.390625 12.109375 -17.921875 
L 12.109375 -9.1875 
Q 16.0625 -11.328125 19.921875 -12.34375 
Q 23.78125 -13.375 27.78125 -13.375 
Q 36.625 -13.375 41.015625 -8.765625 
Q 45.40625 -4.15625 45.40625 5.171875 
L 45.40625 9.625 
Q 42.625 4.78125 38.28125 2.390625 
Q 33.9375 0 27.875 0 
Q 17.828125 0 11.671875 7.65625 
Q 5.515625 15.328125 5.515625 27.984375 
Q 5.515625 40.671875 11.671875 48.328125 
Q 17.828125 56 27.875 56 
Q 33.9375 56 38.28125 53.609375 
Q 42.625 51.21875 45.40625 46.390625 
L 45.40625 54.6875 
L 54.390625 54.6875 
z
" id="DejaVuSans-103"/>
     <path d="M 5.515625 54.6875 
L 48.1875 54.6875 
L 48.1875 46.484375 
L 14.40625 7.171875 
L 48.1875 7.171875 
L 48.1875 0 
L 4.296875 0 
L 4.296875 8.203125 
L 38.09375 47.515625 
L 5.515625 47.515625 
z
" id="DejaVuSans-122"/>
    </defs>
    <g transform="translate(154.707465 375.48)scale(0.12 -0.12)">
     <use xlink:href="#DejaVuSans-104"/>
     <use x="63.378906" xlink:href="#DejaVuSans-111"/>
     <use x="124.560547" xlink:href="#DejaVuSans-110"/>
     <use x="187.939453" xlink:href="#DejaVuSans-103"/>
     <use x="251.416016" xlink:href="#DejaVuSans-103"/>
     <use x="314.892578" xlink:href="#DejaVuSans-102"/>
     <use x="350.097656" xlink:href="#DejaVuSans-117"/>
     <use x="413.476562" xlink:href="#DejaVuSans-122"/>
     <use x="465.966797" xlink:href="#DejaVuSans-122"/>
    </g>
   </g>
  </g>
  <g id="axes_5">
   <g id="patch_22">
    <path d="M 380.59 692.12 
L 703.839306 692.12 
L 703.839306 381.48 
L 380.59 381.48 
z
" style="fill:#ffffff;"/>
   </g>
   <g id="PolyCollection_5">
    <defs>
     <path d="M 383.12749 -187.8596 
L 383.12749 116.5676 
L 383.149946 76.726057 
L 383.172402 49.799413 
L 383.307136 28.8118 
L 409.512897 10.962942 
L 410.747959 -5.237404 
L 416.676255 -17.288371 
L 417.01309 -32.674004 
L 417.192735 -33.334122 
L 417.215191 -27.015072 
L 418.472708 -32.634915 
L 418.517619 -38.7524 
L 419.011644 -52.089004 
L 419.55058 -58.455788 
L 419.55058 -121.560212 
L 419.55058 -121.560212 
L 419.011644 -120.160996 
L 418.517619 -125.7316 
L 418.472708 -124.083085 
L 417.215191 -121.936928 
L 417.192735 -107.851878 
L 417.01309 -100.745996 
L 416.676255 -108.365629 
L 410.747959 -104.884596 
L 409.512897 -113.318942 
L 383.307136 -123.4018 
L 383.172402 -136.623413 
L 383.149946 -155.784057 
L 383.12749 -187.8596 
z
" id="mc4ecd28d8f" style="stroke:#0000ff;stroke-opacity:0.1;"/>
    </defs>
    <g clip-path="url(#p33b91b230d)">
     <use style="fill:#0000ff;fill-opacity:0.1;stroke:#0000ff;stroke-opacity:0.1;" x="0" xlink:href="#mc4ecd28d8f" y="720"/>
    </g>
   </g>
   <g id="matplotlib.axis_9">
    <g id="xtick_29">
     <g id="line2d_69">
      <g>
       <use style="stroke:#000000;stroke-width:0.8;" x="425.45642" xlink:href="#mbeabc10497" y="692.12"/>
      </g>
     </g>
     <g id="text_69">
      <!-- 10000 -->
      <g transform="translate(409.55017 706.718438)scale(0.1 -0.1)">
       <use xlink:href="#DejaVuSans-49"/>
       <use x="63.623047" xlink:href="#DejaVuSans-48"/>
       <use x="127.246094" xlink:href="#DejaVuSans-48"/>
       <use x="190.869141" xlink:href="#DejaVuSans-48"/>
       <use x="254.492188" xlink:href="#DejaVuSans-48"/>
      </g>
     </g>
    </g>
    <g id="xtick_30">
     <g id="line2d_70">
      <g>
       <use style="stroke:#000000;stroke-width:0.8;" x="470.367751" xlink:href="#mbeabc10497" y="692.12"/>
      </g>
     </g>
     <g id="text_70">
      <!-- 20000 -->
      <g transform="translate(454.461501 706.718438)scale(0.1 -0.1)">
       <use xlink:href="#DejaVuSans-50"/>
       <use x="63.623047" xlink:href="#DejaVuSans-48"/>
       <use x="127.246094" xlink:href="#DejaVuSans-48"/>
       <use x="190.869141" xlink:href="#DejaVuSans-48"/>
       <use x="254.492188" xlink:href="#DejaVuSans-48"/>
      </g>
     </g>
    </g>
    <g id="xtick_31">
     <g id="line2d_71">
      <g>
       <use style="stroke:#000000;stroke-width:0.8;" x="515.279082" xlink:href="#mbeabc10497" y="692.12"/>
      </g>
     </g>
     <g id="text_71">
      <!-- 30000 -->
      <g transform="translate(499.372832 706.718438)scale(0.1 -0.1)">
       <use xlink:href="#DejaVuSans-51"/>
       <use x="63.623047" xlink:href="#DejaVuSans-48"/>
       <use x="127.246094" xlink:href="#DejaVuSans-48"/>
       <use x="190.869141" xlink:href="#DejaVuSans-48"/>
       <use x="254.492188" xlink:href="#DejaVuSans-48"/>
      </g>
     </g>
    </g>
    <g id="xtick_32">
     <g id="line2d_72">
      <g>
       <use style="stroke:#000000;stroke-width:0.8;" x="560.190413" xlink:href="#mbeabc10497" y="692.12"/>
      </g>
     </g>
     <g id="text_72">
      <!-- 40000 -->
      <g transform="translate(544.284163 706.718438)scale(0.1 -0.1)">
       <use xlink:href="#DejaVuSans-52"/>
       <use x="63.623047" xlink:href="#DejaVuSans-48"/>
       <use x="127.246094" xlink:href="#DejaVuSans-48"/>
       <use x="190.869141" xlink:href="#DejaVuSans-48"/>
       <use x="254.492188" xlink:href="#DejaVuSans-48"/>
      </g>
     </g>
    </g>
    <g id="xtick_33">
     <g id="line2d_73">
      <g>
       <use style="stroke:#000000;stroke-width:0.8;" x="605.101744" xlink:href="#mbeabc10497" y="692.12"/>
      </g>
     </g>
     <g id="text_73">
      <!-- 50000 -->
      <g transform="translate(589.195494 706.718438)scale(0.1 -0.1)">
       <use xlink:href="#DejaVuSans-53"/>
       <use x="63.623047" xlink:href="#DejaVuSans-48"/>
       <use x="127.246094" xlink:href="#DejaVuSans-48"/>
       <use x="190.869141" xlink:href="#DejaVuSans-48"/>
       <use x="254.492188" xlink:href="#DejaVuSans-48"/>
      </g>
     </g>
    </g>
    <g id="xtick_34">
     <g id="line2d_74">
      <g>
       <use style="stroke:#000000;stroke-width:0.8;" x="650.013076" xlink:href="#mbeabc10497" y="692.12"/>
      </g>
     </g>
     <g id="text_74">
      <!-- 60000 -->
      <g transform="translate(634.106826 706.718438)scale(0.1 -0.1)">
       <use xlink:href="#DejaVuSans-54"/>
       <use x="63.623047" xlink:href="#DejaVuSans-48"/>
       <use x="127.246094" xlink:href="#DejaVuSans-48"/>
       <use x="190.869141" xlink:href="#DejaVuSans-48"/>
       <use x="254.492188" xlink:href="#DejaVuSans-48"/>
      </g>
     </g>
    </g>
    <g id="xtick_35">
     <g id="line2d_75">
      <g>
       <use style="stroke:#000000;stroke-width:0.8;" x="694.924407" xlink:href="#mbeabc10497" y="692.12"/>
      </g>
     </g>
     <g id="text_75">
      <!-- 70000 -->
      <g transform="translate(679.018157 706.718438)scale(0.1 -0.1)">
       <use xlink:href="#DejaVuSans-55"/>
       <use x="63.623047" xlink:href="#DejaVuSans-48"/>
       <use x="127.246094" xlink:href="#DejaVuSans-48"/>
       <use x="190.869141" xlink:href="#DejaVuSans-48"/>
       <use x="254.492188" xlink:href="#DejaVuSans-48"/>
      </g>
     </g>
    </g>
   </g>
   <g id="matplotlib.axis_10">
    <g id="ytick_37">
     <g id="line2d_76">
      <g>
       <use style="stroke:#000000;stroke-width:0.8;" x="380.59" xlink:href="#mc8ab7ea365" y="692.12"/>
      </g>
     </g>
     <g id="text_76">
      <!-- 0 -->
      <g transform="translate(367.2275 695.919219)scale(0.1 -0.1)">
       <use xlink:href="#DejaVuSans-48"/>
      </g>
     </g>
    </g>
    <g id="ytick_38">
     <g id="line2d_77">
      <g>
       <use style="stroke:#000000;stroke-width:0.8;" x="380.59" xlink:href="#mc8ab7ea365" y="653.29"/>
      </g>
     </g>
     <g id="text_77">
      <!-- 1 -->
      <g transform="translate(367.2275 657.089219)scale(0.1 -0.1)">
       <use xlink:href="#DejaVuSans-49"/>
      </g>
     </g>
    </g>
    <g id="ytick_39">
     <g id="line2d_78">
      <g>
       <use style="stroke:#000000;stroke-width:0.8;" x="380.59" xlink:href="#mc8ab7ea365" y="614.46"/>
      </g>
     </g>
     <g id="text_78">
      <!-- 2 -->
      <g transform="translate(367.2275 618.259219)scale(0.1 -0.1)">
       <use xlink:href="#DejaVuSans-50"/>
      </g>
     </g>
    </g>
    <g id="ytick_40">
     <g id="line2d_79">
      <g>
       <use style="stroke:#000000;stroke-width:0.8;" x="380.59" xlink:href="#mc8ab7ea365" y="575.63"/>
      </g>
     </g>
     <g id="text_79">
      <!-- 3 -->
      <g transform="translate(367.2275 579.429219)scale(0.1 -0.1)">
       <use xlink:href="#DejaVuSans-51"/>
      </g>
     </g>
    </g>
    <g id="ytick_41">
     <g id="line2d_80">
      <g>
       <use style="stroke:#000000;stroke-width:0.8;" x="380.59" xlink:href="#mc8ab7ea365" y="536.8"/>
      </g>
     </g>
     <g id="text_80">
      <!-- 4 -->
      <g transform="translate(367.2275 540.599219)scale(0.1 -0.1)">
       <use xlink:href="#DejaVuSans-52"/>
      </g>
     </g>
    </g>
    <g id="ytick_42">
     <g id="line2d_81">
      <g>
       <use style="stroke:#000000;stroke-width:0.8;" x="380.59" xlink:href="#mc8ab7ea365" y="497.97"/>
      </g>
     </g>
     <g id="text_81">
      <!-- 5 -->
      <g transform="translate(367.2275 501.769219)scale(0.1 -0.1)">
       <use xlink:href="#DejaVuSans-53"/>
      </g>
     </g>
    </g>
    <g id="ytick_43">
     <g id="line2d_82">
      <g>
       <use style="stroke:#000000;stroke-width:0.8;" x="380.59" xlink:href="#mc8ab7ea365" y="459.14"/>
      </g>
     </g>
     <g id="text_82">
      <!-- 6 -->
      <g transform="translate(367.2275 462.939219)scale(0.1 -0.1)">
       <use xlink:href="#DejaVuSans-54"/>
      </g>
     </g>
    </g>
    <g id="ytick_44">
     <g id="line2d_83">
      <g>
       <use style="stroke:#000000;stroke-width:0.8;" x="380.59" xlink:href="#mc8ab7ea365" y="420.31"/>
      </g>
     </g>
     <g id="text_83">
      <!-- 7 -->
      <g transform="translate(367.2275 424.109219)scale(0.1 -0.1)">
       <use xlink:href="#DejaVuSans-55"/>
      </g>
     </g>
    </g>
    <g id="ytick_45">
     <g id="line2d_84">
      <g>
       <use style="stroke:#000000;stroke-width:0.8;" x="380.59" xlink:href="#mc8ab7ea365" y="381.48"/>
      </g>
     </g>
     <g id="text_84">
      <!-- 8 -->
      <g transform="translate(367.2275 385.279219)scale(0.1 -0.1)">
       <use xlink:href="#DejaVuSans-56"/>
      </g>
     </g>
    </g>
   </g>
   <g id="line2d_85">
    <path clip-path="url(#p33b91b230d)" d="M 383.12749 684.354 
L 383.12749 680.471 
L 383.149946 680.471 
L 383.149946 676.588 
L 383.172402 676.588 
L 383.172402 672.705 
L 383.307136 672.705 
L 383.307136 668.822 
L 409.512897 668.822 
L 409.512897 664.939 
L 410.747959 664.939 
L 410.747959 657.173 
L 416.676255 657.173 
L 416.676255 653.29 
L 417.01309 653.29 
L 417.01309 649.407 
L 417.192735 649.407 
L 417.192735 645.524 
L 417.215191 645.524 
L 417.215191 641.641 
L 418.472708 641.641 
L 418.472708 637.758 
L 418.517619 637.758 
L 418.517619 633.875 
L 419.011644 633.875 
L 419.011644 629.992 
L 419.55058 629.992 
" style="fill:none;stroke:#1f77b4;stroke-linecap:square;stroke-width:1.5;"/>
   </g>
   <g id="patch_23">
    <path d="M 380.59 692.12 
L 380.59 381.48 
" style="fill:none;stroke:#000000;stroke-linecap:square;stroke-linejoin:miter;stroke-width:0.8;"/>
   </g>
   <g id="patch_24">
    <path d="M 703.839306 692.12 
L 703.839306 381.48 
" style="fill:none;stroke:#000000;stroke-linecap:square;stroke-linejoin:miter;stroke-width:0.8;"/>
   </g>
   <g id="patch_25">
    <path d="M 380.59 692.12 
L 703.839306 692.12 
" style="fill:none;stroke:#000000;stroke-linecap:square;stroke-linejoin:miter;stroke-width:0.8;"/>
   </g>
   <g id="patch_26">
    <path d="M 380.59 381.48 
L 703.839306 381.48 
" style="fill:none;stroke:#000000;stroke-linecap:square;stroke-linejoin:miter;stroke-width:0.8;"/>
   </g>
   <g id="text_85">
    <!-- fairfuzz -->
    <defs>
     <path d="M 9.421875 54.6875 
L 18.40625 54.6875 
L 18.40625 0 
L 9.421875 0 
z
M 9.421875 75.984375 
L 18.40625 75.984375 
L 18.40625 64.59375 
L 9.421875 64.59375 
z
" id="DejaVuSans-105"/>
     <path d="M 41.109375 46.296875 
Q 39.59375 47.171875 37.8125 47.578125 
Q 36.03125 48 33.890625 48 
Q 26.265625 48 22.1875 43.046875 
Q 18.109375 38.09375 18.109375 28.8125 
L 18.109375 0 
L 9.078125 0 
L 9.078125 54.6875 
L 18.109375 54.6875 
L 18.109375 46.1875 
Q 20.953125 51.171875 25.484375 53.578125 
Q 30.03125 56 36.53125 56 
Q 37.453125 56 38.578125 55.875 
Q 39.703125 55.765625 41.0625 55.515625 
z
" id="DejaVuSans-114"/>
    </defs>
    <g transform="translate(520.07934 375.48)scale(0.12 -0.12)">
     <use xlink:href="#DejaVuSans-102"/>
     <use x="35.205078" xlink:href="#DejaVuSans-97"/>
     <use x="96.484375" xlink:href="#DejaVuSans-105"/>
     <use x="124.267578" xlink:href="#DejaVuSans-114"/>
     <use x="165.380859" xlink:href="#DejaVuSans-102"/>
     <use x="200.585938" xlink:href="#DejaVuSans-117"/>
     <use x="263.964844" xlink:href="#DejaVuSans-122"/>
     <use x="316.455078" xlink:href="#DejaVuSans-122"/>
    </g>
   </g>
  </g>
  <g id="axes_6">
   <g id="patch_27">
    <path d="M 736.99 692.12 
L 1060.239306 692.12 
L 1060.239306 381.48 
L 736.99 381.48 
z
" style="fill:#ffffff;"/>
   </g>
   <g id="PolyCollection_6">
    <defs>
     <path d="M 737.124734 -187.8596 
L 737.124734 116.5676 
L 737.14719 -37.458067 
L 737.731037 -32.674004 
L 737.888227 -36.4226 
L 737.910682 -40.872746 
L 737.933138 -58.455788 
L 737.955594 -73.375402 
L 738.067872 -72.405067 
L 738.247517 -80.08607 
L 738.33734 -92.5496 
L 738.359796 -100.037192 
L 738.404707 -114.672063 
L 738.629264 -125.7316 
L 738.719086 -132.613883 
L 739.100833 -144.37 
L 739.100833 -144.37 
L 739.100833 -144.37 
L 738.719086 -148.360117 
L 738.629264 -147.4764 
L 738.404707 -150.769937 
L 738.359796 -142.106808 
L 738.33734 -134.0624 
L 738.247517 -123.22793 
L 738.067872 -123.142933 
L 737.955594 -114.406598 
L 737.933138 -121.560212 
L 737.910682 -115.845254 
L 737.888227 -112.5294 
L 737.731037 -100.745996 
L 737.14719 -88.195933 
L 737.124734 -187.8596 
z
" id="m9c9165e919" style="stroke:#0000ff;stroke-opacity:0.1;"/>
    </defs>
    <g clip-path="url(#pe55f28a02f)">
     <use style="fill:#0000ff;fill-opacity:0.1;stroke:#0000ff;stroke-opacity:0.1;" x="0" xlink:href="#m9c9165e919" y="720"/>
    </g>
   </g>
   <g id="matplotlib.axis_11">
    <g id="xtick_36">
     <g id="line2d_86">
      <g>
       <use style="stroke:#000000;stroke-width:0.8;" x="781.85642" xlink:href="#mbeabc10497" y="692.12"/>
      </g>
     </g>
     <g id="text_86">
      <!-- 10000 -->
      <g transform="translate(765.95017 706.718438)scale(0.1 -0.1)">
       <use xlink:href="#DejaVuSans-49"/>
       <use x="63.623047" xlink:href="#DejaVuSans-48"/>
       <use x="127.246094" xlink:href="#DejaVuSans-48"/>
       <use x="190.869141" xlink:href="#DejaVuSans-48"/>
       <use x="254.492188" xlink:href="#DejaVuSans-48"/>
      </g>
     </g>
    </g>
    <g id="xtick_37">
     <g id="line2d_87">
      <g>
       <use style="stroke:#000000;stroke-width:0.8;" x="826.767751" xlink:href="#mbeabc10497" y="692.12"/>
      </g>
     </g>
     <g id="text_87">
      <!-- 20000 -->
      <g transform="translate(810.861501 706.718438)scale(0.1 -0.1)">
       <use xlink:href="#DejaVuSans-50"/>
       <use x="63.623047" xlink:href="#DejaVuSans-48"/>
       <use x="127.246094" xlink:href="#DejaVuSans-48"/>
       <use x="190.869141" xlink:href="#DejaVuSans-48"/>
       <use x="254.492188" xlink:href="#DejaVuSans-48"/>
      </g>
     </g>
    </g>
    <g id="xtick_38">
     <g id="line2d_88">
      <g>
       <use style="stroke:#000000;stroke-width:0.8;" x="871.679082" xlink:href="#mbeabc10497" y="692.12"/>
      </g>
     </g>
     <g id="text_88">
      <!-- 30000 -->
      <g transform="translate(855.772832 706.718438)scale(0.1 -0.1)">
       <use xlink:href="#DejaVuSans-51"/>
       <use x="63.623047" xlink:href="#DejaVuSans-48"/>
       <use x="127.246094" xlink:href="#DejaVuSans-48"/>
       <use x="190.869141" xlink:href="#DejaVuSans-48"/>
       <use x="254.492188" xlink:href="#DejaVuSans-48"/>
      </g>
     </g>
    </g>
    <g id="xtick_39">
     <g id="line2d_89">
      <g>
       <use style="stroke:#000000;stroke-width:0.8;" x="916.590413" xlink:href="#mbeabc10497" y="692.12"/>
      </g>
     </g>
     <g id="text_89">
      <!-- 40000 -->
      <g transform="translate(900.684163 706.718438)scale(0.1 -0.1)">
       <use xlink:href="#DejaVuSans-52"/>
       <use x="63.623047" xlink:href="#DejaVuSans-48"/>
       <use x="127.246094" xlink:href="#DejaVuSans-48"/>
       <use x="190.869141" xlink:href="#DejaVuSans-48"/>
       <use x="254.492188" xlink:href="#DejaVuSans-48"/>
      </g>
     </g>
    </g>
    <g id="xtick_40">
     <g id="line2d_90">
      <g>
       <use style="stroke:#000000;stroke-width:0.8;" x="961.501744" xlink:href="#mbeabc10497" y="692.12"/>
      </g>
     </g>
     <g id="text_90">
      <!-- 50000 -->
      <g transform="translate(945.595494 706.718438)scale(0.1 -0.1)">
       <use xlink:href="#DejaVuSans-53"/>
       <use x="63.623047" xlink:href="#DejaVuSans-48"/>
       <use x="127.246094" xlink:href="#DejaVuSans-48"/>
       <use x="190.869141" xlink:href="#DejaVuSans-48"/>
       <use x="254.492188" xlink:href="#DejaVuSans-48"/>
      </g>
     </g>
    </g>
    <g id="xtick_41">
     <g id="line2d_91">
      <g>
       <use style="stroke:#000000;stroke-width:0.8;" x="1006.413076" xlink:href="#mbeabc10497" y="692.12"/>
      </g>
     </g>
     <g id="text_91">
      <!-- 60000 -->
      <g transform="translate(990.506826 706.718438)scale(0.1 -0.1)">
       <use xlink:href="#DejaVuSans-54"/>
       <use x="63.623047" xlink:href="#DejaVuSans-48"/>
       <use x="127.246094" xlink:href="#DejaVuSans-48"/>
       <use x="190.869141" xlink:href="#DejaVuSans-48"/>
       <use x="254.492188" xlink:href="#DejaVuSans-48"/>
      </g>
     </g>
    </g>
    <g id="xtick_42">
     <g id="line2d_92">
      <g>
       <use style="stroke:#000000;stroke-width:0.8;" x="1051.324407" xlink:href="#mbeabc10497" y="692.12"/>
      </g>
     </g>
     <g id="text_92">
      <!-- 70000 -->
      <g transform="translate(1035.418157 706.718438)scale(0.1 -0.1)">
       <use xlink:href="#DejaVuSans-55"/>
       <use x="63.623047" xlink:href="#DejaVuSans-48"/>
       <use x="127.246094" xlink:href="#DejaVuSans-48"/>
       <use x="190.869141" xlink:href="#DejaVuSans-48"/>
       <use x="254.492188" xlink:href="#DejaVuSans-48"/>
      </g>
     </g>
    </g>
   </g>
   <g id="matplotlib.axis_12">
    <g id="ytick_46">
     <g id="line2d_93">
      <g>
       <use style="stroke:#000000;stroke-width:0.8;" x="736.99" xlink:href="#mc8ab7ea365" y="692.12"/>
      </g>
     </g>
     <g id="text_93">
      <!-- 0 -->
      <g transform="translate(723.6275 695.919219)scale(0.1 -0.1)">
       <use xlink:href="#DejaVuSans-48"/>
      </g>
     </g>
    </g>
    <g id="ytick_47">
     <g id="line2d_94">
      <g>
       <use style="stroke:#000000;stroke-width:0.8;" x="736.99" xlink:href="#mc8ab7ea365" y="653.29"/>
      </g>
     </g>
     <g id="text_94">
      <!-- 1 -->
      <g transform="translate(723.6275 657.089219)scale(0.1 -0.1)">
       <use xlink:href="#DejaVuSans-49"/>
      </g>
     </g>
    </g>
    <g id="ytick_48">
     <g id="line2d_95">
      <g>
       <use style="stroke:#000000;stroke-width:0.8;" x="736.99" xlink:href="#mc8ab7ea365" y="614.46"/>
      </g>
     </g>
     <g id="text_95">
      <!-- 2 -->
      <g transform="translate(723.6275 618.259219)scale(0.1 -0.1)">
       <use xlink:href="#DejaVuSans-50"/>
      </g>
     </g>
    </g>
    <g id="ytick_49">
     <g id="line2d_96">
      <g>
       <use style="stroke:#000000;stroke-width:0.8;" x="736.99" xlink:href="#mc8ab7ea365" y="575.63"/>
      </g>
     </g>
     <g id="text_96">
      <!-- 3 -->
      <g transform="translate(723.6275 579.429219)scale(0.1 -0.1)">
       <use xlink:href="#DejaVuSans-51"/>
      </g>
     </g>
    </g>
    <g id="ytick_50">
     <g id="line2d_97">
      <g>
       <use style="stroke:#000000;stroke-width:0.8;" x="736.99" xlink:href="#mc8ab7ea365" y="536.8"/>
      </g>
     </g>
     <g id="text_97">
      <!-- 4 -->
      <g transform="translate(723.6275 540.599219)scale(0.1 -0.1)">
       <use xlink:href="#DejaVuSans-52"/>
      </g>
     </g>
    </g>
    <g id="ytick_51">
     <g id="line2d_98">
      <g>
       <use style="stroke:#000000;stroke-width:0.8;" x="736.99" xlink:href="#mc8ab7ea365" y="497.97"/>
      </g>
     </g>
     <g id="text_98">
      <!-- 5 -->
      <g transform="translate(723.6275 501.769219)scale(0.1 -0.1)">
       <use xlink:href="#DejaVuSans-53"/>
      </g>
     </g>
    </g>
    <g id="ytick_52">
     <g id="line2d_99">
      <g>
       <use style="stroke:#000000;stroke-width:0.8;" x="736.99" xlink:href="#mc8ab7ea365" y="459.14"/>
      </g>
     </g>
     <g id="text_99">
      <!-- 6 -->
      <g transform="translate(723.6275 462.939219)scale(0.1 -0.1)">
       <use xlink:href="#DejaVuSans-54"/>
      </g>
     </g>
    </g>
    <g id="ytick_53">
     <g id="line2d_100">
      <g>
       <use style="stroke:#000000;stroke-width:0.8;" x="736.99" xlink:href="#mc8ab7ea365" y="420.31"/>
      </g>
     </g>
     <g id="text_100">
      <!-- 7 -->
      <g transform="translate(723.6275 424.109219)scale(0.1 -0.1)">
       <use xlink:href="#DejaVuSans-55"/>
      </g>
     </g>
    </g>
    <g id="ytick_54">
     <g id="line2d_101">
      <g>
       <use style="stroke:#000000;stroke-width:0.8;" x="736.99" xlink:href="#mc8ab7ea365" y="381.48"/>
      </g>
     </g>
     <g id="text_101">
      <!-- 8 -->
      <g transform="translate(723.6275 385.279219)scale(0.1 -0.1)">
       <use xlink:href="#DejaVuSans-56"/>
      </g>
     </g>
    </g>
   </g>
   <g id="line2d_102">
    <path clip-path="url(#pe55f28a02f)" d="M 737.124734 684.354 
L 737.124734 657.173 
L 737.14719 657.173 
L 737.14719 653.29 
L 737.731037 653.29 
L 737.731037 645.524 
L 737.888227 645.524 
L 737.888227 641.641 
L 737.910682 641.641 
L 737.910682 629.992 
L 737.933138 629.992 
L 737.933138 626.109 
L 737.955594 626.109 
L 737.955594 622.226 
L 738.067872 622.226 
L 738.067872 618.343 
L 738.247517 618.343 
L 738.247517 606.694 
L 738.33734 606.694 
L 738.33734 598.928 
L 738.359796 598.928 
L 738.359796 587.279 
L 738.404707 587.279 
L 738.404707 583.396 
L 738.629264 583.396 
L 738.629264 579.513 
L 738.719086 579.513 
L 738.719086 575.63 
L 739.100833 575.63 
" style="fill:none;stroke:#1f77b4;stroke-linecap:square;stroke-width:1.5;"/>
   </g>
   <g id="patch_28">
    <path d="M 736.99 692.12 
L 736.99 381.48 
" style="fill:none;stroke:#000000;stroke-linecap:square;stroke-linejoin:miter;stroke-width:0.8;"/>
   </g>
   <g id="patch_29">
    <path d="M 1060.239306 692.12 
L 1060.239306 381.48 
" style="fill:none;stroke:#000000;stroke-linecap:square;stroke-linejoin:miter;stroke-width:0.8;"/>
   </g>
   <g id="patch_30">
    <path d="M 736.99 692.12 
L 1060.239306 692.12 
" style="fill:none;stroke:#000000;stroke-linecap:square;stroke-linejoin:miter;stroke-width:0.8;"/>
   </g>
   <g id="patch_31">
    <path d="M 736.99 381.48 
L 1060.239306 381.48 
" style="fill:none;stroke:#000000;stroke-linecap:square;stroke-linejoin:miter;stroke-width:0.8;"/>
   </g>
   <g id="text_102">
    <!-- afl -->
    <g transform="translate(891.158715 375.48)scale(0.12 -0.12)">
     <use xlink:href="#DejaVuSans-97"/>
     <use x="61.279297" xlink:href="#DejaVuSans-102"/>
     <use x="96.484375" xlink:href="#DejaVuSans-108"/>
    </g>
   </g>
  </g>
 </g>
 <defs>
  <clipPath id="p21bff7109a">
   <rect height="310.64" width="323.249306" x="24.19" y="26.88"/>
  </clipPath>
  <clipPath id="p98dd0e8ebc">
   <rect height="310.64" width="323.249306" x="380.59" y="26.88"/>
  </clipPath>
  <clipPath id="pcde0e2cdbe">
   <rect height="310.64" width="323.249306" x="736.99" y="26.88"/>
  </clipPath>
  <clipPath id="p5410c7a41a">
   <rect height="310.64" width="323.249306" x="24.19" y="381.48"/>
  </clipPath>
  <clipPath id="p33b91b230d">
   <rect height="310.64" width="323.249306" x="380.59" y="381.48"/>
  </clipPath>
  <clipPath id="pe55f28a02f">
   <rect height="310.64" width="323.249306" x="736.99" y="381.48"/>
  </clipPath>
 </defs>
</svg>
