<?xml version="1.0" encoding="utf-8" standalone="no"?>
<!DOCTYPE svg PUBLIC "-//W3C//DTD SVG 1.1//EN"
  "http://www.w3.org/Graphics/SVG/1.1/DTD/svg11.dtd">
<!-- Created with matplotlib (https://matplotlib.org/) -->
<svg height="720pt" version="1.1" viewBox="0 0 1080 720" width="1080pt" xmlns="http://www.w3.org/2000/svg" xmlns:xlink="http://www.w3.org/1999/xlink">
 <defs>
  <style type="text/css">
*{stroke-linecap:butt;stroke-linejoin:round;}
  </style>
 </defs>
 <g id="figure_1">
  <g id="patch_1">
   <path d="M 0 720 
L 1080 720 
L 1080 0 
L 0 0 
z
" style="fill:#ffffff;"/>
  </g>
  <g id="axes_1">
   <g id="patch_2">
    <path d="M 24.19 337.52 
L 344.245991 337.52 
L 344.245991 26.88 
L 24.19 26.88 
z
" style="fill:#ffffff;"/>
   </g>
   <g id="PolyCollection_1">
    <defs>
     <path d="M 24.308342 -460.151765 
L 24.308342 -347.168235 
L 24.328066 -391.187333 
L 24.40696 -387.438292 
L 24.446408 -430.644889 
L 24.821157 -438.625579 
L 190.322471 -437.609093 
L 190.657773 -438.867677 
L 191.308655 -447.560364 
L 191.486168 -449.884815 
L 191.505891 -453.077059 
L 193.616324 -456.8924 
L 193.872732 -461.223439 
L 218.764003 -466.047065 
L 226.298445 -471.436 
L 231.86052 -477.692621 
L 328.999594 -488.38 
L 328.999594 -488.38 
L 328.999594 -488.38 
L 231.86052 -492.007379 
L 226.298445 -491.204 
L 218.764003 -489.532935 
L 193.872732 -487.296561 
L 193.616324 -484.5676 
L 191.505891 -481.322941 
L 191.486168 -477.455185 
L 191.308655 -472.719636 
L 190.657773 -474.352323 
L 190.322471 -468.550907 
L 24.821157 -460.474421 
L 24.446408 -461.395111 
L 24.40696 -455.181708 
L 24.328066 -437.312667 
L 24.308342 -460.151765 
z
" id="ma088ad9c33" style="stroke:#0000ff;stroke-opacity:0.1;"/>
    </defs>
    <g clip-path="url(#pc81aa672ee)">
     <use style="fill:#0000ff;fill-opacity:0.1;stroke:#0000ff;stroke-opacity:0.1;" x="0" xlink:href="#ma088ad9c33" y="720"/>
    </g>
   </g>
   <g id="matplotlib.axis_1">
    <g id="xtick_1">
     <g id="line2d_1">
      <defs>
       <path d="M 0 0 
L 0 3.5 
" id="m2668267cbc" style="stroke:#000000;stroke-width:0.8;"/>
      </defs>
      <g>
       <use style="stroke:#000000;stroke-width:0.8;" x="63.380932" xlink:href="#m2668267cbc" y="337.52"/>
      </g>
     </g>
     <g id="text_1">
      <!-- 10000 -->
      <defs>
       <path d="M 12.40625 8.296875 
L 28.515625 8.296875 
L 28.515625 63.921875 
L 10.984375 60.40625 
L 10.984375 69.390625 
L 28.421875 72.90625 
L 38.28125 72.90625 
L 38.28125 8.296875 
L 54.390625 8.296875 
L 54.390625 0 
L 12.40625 0 
z
" id="DejaVuSans-49"/>
       <path d="M 31.78125 66.40625 
Q 24.171875 66.40625 20.328125 58.90625 
Q 16.5 51.421875 16.5 36.375 
Q 16.5 21.390625 20.328125 13.890625 
Q 24.171875 6.390625 31.78125 6.390625 
Q 39.453125 6.390625 43.28125 13.890625 
Q 47.125 21.390625 47.125 36.375 
Q 47.125 51.421875 43.28125 58.90625 
Q 39.453125 66.40625 31.78125 66.40625 
z
M 31.78125 74.21875 
Q 44.046875 74.21875 50.515625 64.515625 
Q 56.984375 54.828125 56.984375 36.375 
Q 56.984375 17.96875 50.515625 8.265625 
Q 44.046875 -1.421875 31.78125 -1.421875 
Q 19.53125 -1.421875 13.0625 8.265625 
Q 6.59375 17.96875 6.59375 36.375 
Q 6.59375 54.828125 13.0625 64.515625 
Q 19.53125 74.21875 31.78125 74.21875 
z
" id="DejaVuSans-48"/>
      </defs>
      <g transform="translate(47.474682 352.118438)scale(0.1 -0.1)">
       <use xlink:href="#DejaVuSans-49"/>
       <use x="63.623047" xlink:href="#DejaVuSans-48"/>
       <use x="127.246094" xlink:href="#DejaVuSans-48"/>
       <use x="190.869141" xlink:href="#DejaVuSans-48"/>
       <use x="254.492188" xlink:href="#DejaVuSans-48"/>
      </g>
     </g>
    </g>
    <g id="xtick_2">
     <g id="line2d_2">
      <g>
       <use style="stroke:#000000;stroke-width:0.8;" x="102.828272" xlink:href="#m2668267cbc" y="337.52"/>
      </g>
     </g>
     <g id="text_2">
      <!-- 20000 -->
      <defs>
       <path d="M 19.1875 8.296875 
L 53.609375 8.296875 
L 53.609375 0 
L 7.328125 0 
L 7.328125 8.296875 
Q 12.9375 14.109375 22.625 23.890625 
Q 32.328125 33.6875 34.8125 36.53125 
Q 39.546875 41.84375 41.421875 45.53125 
Q 43.3125 49.21875 43.3125 52.78125 
Q 43.3125 58.59375 39.234375 62.25 
Q 35.15625 65.921875 28.609375 65.921875 
Q 23.96875 65.921875 18.8125 64.3125 
Q 13.671875 62.703125 7.8125 59.421875 
L 7.8125 69.390625 
Q 13.765625 71.78125 18.9375 73 
Q 24.125 74.21875 28.421875 74.21875 
Q 39.75 74.21875 46.484375 68.546875 
Q 53.21875 62.890625 53.21875 53.421875 
Q 53.21875 48.921875 51.53125 44.890625 
Q 49.859375 40.875 45.40625 35.40625 
Q 44.1875 33.984375 37.640625 27.21875 
Q 31.109375 20.453125 19.1875 8.296875 
z
" id="DejaVuSans-50"/>
      </defs>
      <g transform="translate(86.922022 352.118438)scale(0.1 -0.1)">
       <use xlink:href="#DejaVuSans-50"/>
       <use x="63.623047" xlink:href="#DejaVuSans-48"/>
       <use x="127.246094" xlink:href="#DejaVuSans-48"/>
       <use x="190.869141" xlink:href="#DejaVuSans-48"/>
       <use x="254.492188" xlink:href="#DejaVuSans-48"/>
      </g>
     </g>
    </g>
    <g id="xtick_3">
     <g id="line2d_3">
      <g>
       <use style="stroke:#000000;stroke-width:0.8;" x="142.275611" xlink:href="#m2668267cbc" y="337.52"/>
      </g>
     </g>
     <g id="text_3">
      <!-- 30000 -->
      <defs>
       <path d="M 40.578125 39.3125 
Q 47.65625 37.796875 51.625 33 
Q 55.609375 28.21875 55.609375 21.1875 
Q 55.609375 10.40625 48.1875 4.484375 
Q 40.765625 -1.421875 27.09375 -1.421875 
Q 22.515625 -1.421875 17.65625 -0.515625 
Q 12.796875 0.390625 7.625 2.203125 
L 7.625 11.71875 
Q 11.71875 9.328125 16.59375 8.109375 
Q 21.484375 6.890625 26.8125 6.890625 
Q 36.078125 6.890625 40.9375 10.546875 
Q 45.796875 14.203125 45.796875 21.1875 
Q 45.796875 27.640625 41.28125 31.265625 
Q 36.765625 34.90625 28.71875 34.90625 
L 20.21875 34.90625 
L 20.21875 43.015625 
L 29.109375 43.015625 
Q 36.375 43.015625 40.234375 45.921875 
Q 44.09375 48.828125 44.09375 54.296875 
Q 44.09375 59.90625 40.109375 62.90625 
Q 36.140625 65.921875 28.71875 65.921875 
Q 24.65625 65.921875 20.015625 65.03125 
Q 15.375 64.15625 9.8125 62.3125 
L 9.8125 71.09375 
Q 15.4375 72.65625 20.34375 73.4375 
Q 25.25 74.21875 29.59375 74.21875 
Q 40.828125 74.21875 47.359375 69.109375 
Q 53.90625 64.015625 53.90625 55.328125 
Q 53.90625 49.265625 50.4375 45.09375 
Q 46.96875 40.921875 40.578125 39.3125 
z
" id="DejaVuSans-51"/>
      </defs>
      <g transform="translate(126.369361 352.118438)scale(0.1 -0.1)">
       <use xlink:href="#DejaVuSans-51"/>
       <use x="63.623047" xlink:href="#DejaVuSans-48"/>
       <use x="127.246094" xlink:href="#DejaVuSans-48"/>
       <use x="190.869141" xlink:href="#DejaVuSans-48"/>
       <use x="254.492188" xlink:href="#DejaVuSans-48"/>
      </g>
     </g>
    </g>
    <g id="xtick_4">
     <g id="line2d_4">
      <g>
       <use style="stroke:#000000;stroke-width:0.8;" x="181.722951" xlink:href="#m2668267cbc" y="337.52"/>
      </g>
     </g>
     <g id="text_4">
      <!-- 40000 -->
      <defs>
       <path d="M 37.796875 64.3125 
L 12.890625 25.390625 
L 37.796875 25.390625 
z
M 35.203125 72.90625 
L 47.609375 72.90625 
L 47.609375 25.390625 
L 58.015625 25.390625 
L 58.015625 17.1875 
L 47.609375 17.1875 
L 47.609375 0 
L 37.796875 0 
L 37.796875 17.1875 
L 4.890625 17.1875 
L 4.890625 26.703125 
z
" id="DejaVuSans-52"/>
      </defs>
      <g transform="translate(165.816701 352.118438)scale(0.1 -0.1)">
       <use xlink:href="#DejaVuSans-52"/>
       <use x="63.623047" xlink:href="#DejaVuSans-48"/>
       <use x="127.246094" xlink:href="#DejaVuSans-48"/>
       <use x="190.869141" xlink:href="#DejaVuSans-48"/>
       <use x="254.492188" xlink:href="#DejaVuSans-48"/>
      </g>
     </g>
    </g>
    <g id="xtick_5">
     <g id="line2d_5">
      <g>
       <use style="stroke:#000000;stroke-width:0.8;" x="221.170291" xlink:href="#m2668267cbc" y="337.52"/>
      </g>
     </g>
     <g id="text_5">
      <!-- 50000 -->
      <defs>
       <path d="M 10.796875 72.90625 
L 49.515625 72.90625 
L 49.515625 64.59375 
L 19.828125 64.59375 
L 19.828125 46.734375 
Q 21.96875 47.46875 24.109375 47.828125 
Q 26.265625 48.1875 28.421875 48.1875 
Q 40.625 48.1875 47.75 41.5 
Q 54.890625 34.8125 54.890625 23.390625 
Q 54.890625 11.625 47.5625 5.09375 
Q 40.234375 -1.421875 26.90625 -1.421875 
Q 22.3125 -1.421875 17.546875 -0.640625 
Q 12.796875 0.140625 7.71875 1.703125 
L 7.71875 11.625 
Q 12.109375 9.234375 16.796875 8.0625 
Q 21.484375 6.890625 26.703125 6.890625 
Q 35.15625 6.890625 40.078125 11.328125 
Q 45.015625 15.765625 45.015625 23.390625 
Q 45.015625 31 40.078125 35.4375 
Q 35.15625 39.890625 26.703125 39.890625 
Q 22.75 39.890625 18.8125 39.015625 
Q 14.890625 38.140625 10.796875 36.28125 
z
" id="DejaVuSans-53"/>
      </defs>
      <g transform="translate(205.264041 352.118438)scale(0.1 -0.1)">
       <use xlink:href="#DejaVuSans-53"/>
       <use x="63.623047" xlink:href="#DejaVuSans-48"/>
       <use x="127.246094" xlink:href="#DejaVuSans-48"/>
       <use x="190.869141" xlink:href="#DejaVuSans-48"/>
       <use x="254.492188" xlink:href="#DejaVuSans-48"/>
      </g>
     </g>
    </g>
    <g id="xtick_6">
     <g id="line2d_6">
      <g>
       <use style="stroke:#000000;stroke-width:0.8;" x="260.61763" xlink:href="#m2668267cbc" y="337.52"/>
      </g>
     </g>
     <g id="text_6">
      <!-- 60000 -->
      <defs>
       <path d="M 33.015625 40.375 
Q 26.375 40.375 22.484375 35.828125 
Q 18.609375 31.296875 18.609375 23.390625 
Q 18.609375 15.53125 22.484375 10.953125 
Q 26.375 6.390625 33.015625 6.390625 
Q 39.65625 6.390625 43.53125 10.953125 
Q 47.40625 15.53125 47.40625 23.390625 
Q 47.40625 31.296875 43.53125 35.828125 
Q 39.65625 40.375 33.015625 40.375 
z
M 52.59375 71.296875 
L 52.59375 62.3125 
Q 48.875 64.0625 45.09375 64.984375 
Q 41.3125 65.921875 37.59375 65.921875 
Q 27.828125 65.921875 22.671875 59.328125 
Q 17.53125 52.734375 16.796875 39.40625 
Q 19.671875 43.65625 24.015625 45.921875 
Q 28.375 48.1875 33.59375 48.1875 
Q 44.578125 48.1875 50.953125 41.515625 
Q 57.328125 34.859375 57.328125 23.390625 
Q 57.328125 12.15625 50.6875 5.359375 
Q 44.046875 -1.421875 33.015625 -1.421875 
Q 20.359375 -1.421875 13.671875 8.265625 
Q 6.984375 17.96875 6.984375 36.375 
Q 6.984375 53.65625 15.1875 63.9375 
Q 23.390625 74.21875 37.203125 74.21875 
Q 40.921875 74.21875 44.703125 73.484375 
Q 48.484375 72.75 52.59375 71.296875 
z
" id="DejaVuSans-54"/>
      </defs>
      <g transform="translate(244.71138 352.118438)scale(0.1 -0.1)">
       <use xlink:href="#DejaVuSans-54"/>
       <use x="63.623047" xlink:href="#DejaVuSans-48"/>
       <use x="127.246094" xlink:href="#DejaVuSans-48"/>
       <use x="190.869141" xlink:href="#DejaVuSans-48"/>
       <use x="254.492188" xlink:href="#DejaVuSans-48"/>
      </g>
     </g>
    </g>
    <g id="xtick_7">
     <g id="line2d_7">
      <g>
       <use style="stroke:#000000;stroke-width:0.8;" x="300.06497" xlink:href="#m2668267cbc" y="337.52"/>
      </g>
     </g>
     <g id="text_7">
      <!-- 70000 -->
      <defs>
       <path d="M 8.203125 72.90625 
L 55.078125 72.90625 
L 55.078125 68.703125 
L 28.609375 0 
L 18.3125 0 
L 43.21875 64.59375 
L 8.203125 64.59375 
z
" id="DejaVuSans-55"/>
      </defs>
      <g transform="translate(284.15872 352.118438)scale(0.1 -0.1)">
       <use xlink:href="#DejaVuSans-55"/>
       <use x="63.623047" xlink:href="#DejaVuSans-48"/>
       <use x="127.246094" xlink:href="#DejaVuSans-48"/>
       <use x="190.869141" xlink:href="#DejaVuSans-48"/>
       <use x="254.492188" xlink:href="#DejaVuSans-48"/>
      </g>
     </g>
    </g>
    <g id="xtick_8">
     <g id="line2d_8">
      <g>
       <use style="stroke:#000000;stroke-width:0.8;" x="339.51231" xlink:href="#m2668267cbc" y="337.52"/>
      </g>
     </g>
     <g id="text_8">
      <!-- 80000 -->
      <defs>
       <path d="M 31.78125 34.625 
Q 24.75 34.625 20.71875 30.859375 
Q 16.703125 27.09375 16.703125 20.515625 
Q 16.703125 13.921875 20.71875 10.15625 
Q 24.75 6.390625 31.78125 6.390625 
Q 38.8125 6.390625 42.859375 10.171875 
Q 46.921875 13.96875 46.921875 20.515625 
Q 46.921875 27.09375 42.890625 30.859375 
Q 38.875 34.625 31.78125 34.625 
z
M 21.921875 38.8125 
Q 15.578125 40.375 12.03125 44.71875 
Q 8.5 49.078125 8.5 55.328125 
Q 8.5 64.0625 14.71875 69.140625 
Q 20.953125 74.21875 31.78125 74.21875 
Q 42.671875 74.21875 48.875 69.140625 
Q 55.078125 64.0625 55.078125 55.328125 
Q 55.078125 49.078125 51.53125 44.71875 
Q 48 40.375 41.703125 38.8125 
Q 48.828125 37.15625 52.796875 32.3125 
Q 56.78125 27.484375 56.78125 20.515625 
Q 56.78125 9.90625 50.3125 4.234375 
Q 43.84375 -1.421875 31.78125 -1.421875 
Q 19.734375 -1.421875 13.25 4.234375 
Q 6.78125 9.90625 6.78125 20.515625 
Q 6.78125 27.484375 10.78125 32.3125 
Q 14.796875 37.15625 21.921875 38.8125 
z
M 18.3125 54.390625 
Q 18.3125 48.734375 21.84375 45.5625 
Q 25.390625 42.390625 31.78125 42.390625 
Q 38.140625 42.390625 41.71875 45.5625 
Q 45.3125 48.734375 45.3125 54.390625 
Q 45.3125 60.0625 41.71875 63.234375 
Q 38.140625 66.40625 31.78125 66.40625 
Q 25.390625 66.40625 21.84375 63.234375 
Q 18.3125 60.0625 18.3125 54.390625 
z
" id="DejaVuSans-56"/>
      </defs>
      <g transform="translate(323.60606 352.118438)scale(0.1 -0.1)">
       <use xlink:href="#DejaVuSans-56"/>
       <use x="63.623047" xlink:href="#DejaVuSans-48"/>
       <use x="127.246094" xlink:href="#DejaVuSans-48"/>
       <use x="190.869141" xlink:href="#DejaVuSans-48"/>
       <use x="254.492188" xlink:href="#DejaVuSans-48"/>
      </g>
     </g>
    </g>
   </g>
   <g id="matplotlib.axis_2">
    <g id="ytick_1">
     <g id="line2d_9">
      <defs>
       <path d="M 0 0 
L -3.5 0 
" id="m0aa0730cf5" style="stroke:#000000;stroke-width:0.8;"/>
      </defs>
      <g>
       <use style="stroke:#000000;stroke-width:0.8;" x="24.19" xlink:href="#m0aa0730cf5" y="337.52"/>
      </g>
     </g>
     <g id="text_9">
      <!-- 0 -->
      <g transform="translate(10.8275 341.319219)scale(0.1 -0.1)">
       <use xlink:href="#DejaVuSans-48"/>
      </g>
     </g>
    </g>
    <g id="ytick_2">
     <g id="line2d_10">
      <g>
       <use style="stroke:#000000;stroke-width:0.8;" x="24.19" xlink:href="#m0aa0730cf5" y="302.22"/>
      </g>
     </g>
     <g id="text_10">
      <!-- 1 -->
      <g transform="translate(10.8275 306.019219)scale(0.1 -0.1)">
       <use xlink:href="#DejaVuSans-49"/>
      </g>
     </g>
    </g>
    <g id="ytick_3">
     <g id="line2d_11">
      <g>
       <use style="stroke:#000000;stroke-width:0.8;" x="24.19" xlink:href="#m0aa0730cf5" y="266.92"/>
      </g>
     </g>
     <g id="text_11">
      <!-- 2 -->
      <g transform="translate(10.8275 270.719219)scale(0.1 -0.1)">
       <use xlink:href="#DejaVuSans-50"/>
      </g>
     </g>
    </g>
    <g id="ytick_4">
     <g id="line2d_12">
      <g>
       <use style="stroke:#000000;stroke-width:0.8;" x="24.19" xlink:href="#m0aa0730cf5" y="231.62"/>
      </g>
     </g>
     <g id="text_12">
      <!-- 3 -->
      <g transform="translate(10.8275 235.419219)scale(0.1 -0.1)">
       <use xlink:href="#DejaVuSans-51"/>
      </g>
     </g>
    </g>
    <g id="ytick_5">
     <g id="line2d_13">
      <g>
       <use style="stroke:#000000;stroke-width:0.8;" x="24.19" xlink:href="#m0aa0730cf5" y="196.32"/>
      </g>
     </g>
     <g id="text_13">
      <!-- 4 -->
      <g transform="translate(10.8275 200.119219)scale(0.1 -0.1)">
       <use xlink:href="#DejaVuSans-52"/>
      </g>
     </g>
    </g>
    <g id="ytick_6">
     <g id="line2d_14">
      <g>
       <use style="stroke:#000000;stroke-width:0.8;" x="24.19" xlink:href="#m0aa0730cf5" y="161.02"/>
      </g>
     </g>
     <g id="text_14">
      <!-- 5 -->
      <g transform="translate(10.8275 164.819219)scale(0.1 -0.1)">
       <use xlink:href="#DejaVuSans-53"/>
      </g>
     </g>
    </g>
    <g id="ytick_7">
     <g id="line2d_15">
      <g>
       <use style="stroke:#000000;stroke-width:0.8;" x="24.19" xlink:href="#m0aa0730cf5" y="125.72"/>
      </g>
     </g>
     <g id="text_15">
      <!-- 6 -->
      <g transform="translate(10.8275 129.519219)scale(0.1 -0.1)">
       <use xlink:href="#DejaVuSans-54"/>
      </g>
     </g>
    </g>
    <g id="ytick_8">
     <g id="line2d_16">
      <g>
       <use style="stroke:#000000;stroke-width:0.8;" x="24.19" xlink:href="#m0aa0730cf5" y="90.42"/>
      </g>
     </g>
     <g id="text_16">
      <!-- 7 -->
      <g transform="translate(10.8275 94.219219)scale(0.1 -0.1)">
       <use xlink:href="#DejaVuSans-55"/>
      </g>
     </g>
    </g>
    <g id="ytick_9">
     <g id="line2d_17">
      <g>
       <use style="stroke:#000000;stroke-width:0.8;" x="24.19" xlink:href="#m0aa0730cf5" y="55.12"/>
      </g>
     </g>
     <g id="text_17">
      <!-- 8 -->
      <g transform="translate(10.8275 58.919219)scale(0.1 -0.1)">
       <use xlink:href="#DejaVuSans-56"/>
      </g>
     </g>
    </g>
   </g>
   <g id="line2d_18">
    <path clip-path="url(#pc81aa672ee)" d="M 24.308342 316.34 
L 24.308342 305.75 
L 24.328066 305.75 
L 24.328066 298.69 
L 24.40696 298.69 
L 24.40696 273.98 
L 24.446408 273.98 
L 24.446408 270.45 
L 24.821157 270.45 
L 24.821157 266.92 
L 190.322471 266.92 
L 190.322471 263.39 
L 190.657773 263.39 
L 190.657773 259.86 
L 191.308655 259.86 
L 191.308655 256.33 
L 191.486168 256.33 
L 191.486168 252.8 
L 191.505891 252.8 
L 191.505891 249.27 
L 193.616324 249.27 
L 193.616324 245.74 
L 193.872732 245.74 
L 193.872732 242.21 
L 218.764003 242.21 
L 218.764003 238.68 
L 226.298445 238.68 
L 226.298445 235.15 
L 231.86052 235.15 
L 231.86052 231.62 
L 328.999594 231.62 
" style="fill:none;stroke:#1f77b4;stroke-linecap:square;stroke-width:1.5;"/>
   </g>
   <g id="patch_3">
    <path d="M 24.19 337.52 
L 24.19 26.88 
" style="fill:none;stroke:#000000;stroke-linecap:square;stroke-linejoin:miter;stroke-width:0.8;"/>
   </g>
   <g id="patch_4">
    <path d="M 344.245991 337.52 
L 344.245991 26.88 
" style="fill:none;stroke:#000000;stroke-linecap:square;stroke-linejoin:miter;stroke-width:0.8;"/>
   </g>
   <g id="patch_5">
    <path d="M 24.19 337.52 
L 344.245991 337.52 
" style="fill:none;stroke:#000000;stroke-linecap:square;stroke-linejoin:miter;stroke-width:0.8;"/>
   </g>
   <g id="patch_6">
    <path d="M 24.19 26.88 
L 344.245991 26.88 
" style="fill:none;stroke:#000000;stroke-linecap:square;stroke-linejoin:miter;stroke-width:0.8;"/>
   </g>
   <g id="text_18">
    <!-- moptafl -->
    <defs>
     <path d="M 52 44.1875 
Q 55.375 50.25 60.0625 53.125 
Q 64.75 56 71.09375 56 
Q 79.640625 56 84.28125 50.015625 
Q 88.921875 44.046875 88.921875 33.015625 
L 88.921875 0 
L 79.890625 0 
L 79.890625 32.71875 
Q 79.890625 40.578125 77.09375 44.375 
Q 74.3125 48.1875 68.609375 48.1875 
Q 61.625 48.1875 57.5625 43.546875 
Q 53.515625 38.921875 53.515625 30.90625 
L 53.515625 0 
L 44.484375 0 
L 44.484375 32.71875 
Q 44.484375 40.625 41.703125 44.40625 
Q 38.921875 48.1875 33.109375 48.1875 
Q 26.21875 48.1875 22.15625 43.53125 
Q 18.109375 38.875 18.109375 30.90625 
L 18.109375 0 
L 9.078125 0 
L 9.078125 54.6875 
L 18.109375 54.6875 
L 18.109375 46.1875 
Q 21.1875 51.21875 25.484375 53.609375 
Q 29.78125 56 35.6875 56 
Q 41.65625 56 45.828125 52.96875 
Q 50 49.953125 52 44.1875 
z
" id="DejaVuSans-109"/>
     <path d="M 30.609375 48.390625 
Q 23.390625 48.390625 19.1875 42.75 
Q 14.984375 37.109375 14.984375 27.296875 
Q 14.984375 17.484375 19.15625 11.84375 
Q 23.34375 6.203125 30.609375 6.203125 
Q 37.796875 6.203125 41.984375 11.859375 
Q 46.1875 17.53125 46.1875 27.296875 
Q 46.1875 37.015625 41.984375 42.703125 
Q 37.796875 48.390625 30.609375 48.390625 
z
M 30.609375 56 
Q 42.328125 56 49.015625 48.375 
Q 55.71875 40.765625 55.71875 27.296875 
Q 55.71875 13.875 49.015625 6.21875 
Q 42.328125 -1.421875 30.609375 -1.421875 
Q 18.84375 -1.421875 12.171875 6.21875 
Q 5.515625 13.875 5.515625 27.296875 
Q 5.515625 40.765625 12.171875 48.375 
Q 18.84375 56 30.609375 56 
z
" id="DejaVuSans-111"/>
     <path d="M 18.109375 8.203125 
L 18.109375 -20.796875 
L 9.078125 -20.796875 
L 9.078125 54.6875 
L 18.109375 54.6875 
L 18.109375 46.390625 
Q 20.953125 51.265625 25.265625 53.625 
Q 29.59375 56 35.59375 56 
Q 45.5625 56 51.78125 48.09375 
Q 58.015625 40.1875 58.015625 27.296875 
Q 58.015625 14.40625 51.78125 6.484375 
Q 45.5625 -1.421875 35.59375 -1.421875 
Q 29.59375 -1.421875 25.265625 0.953125 
Q 20.953125 3.328125 18.109375 8.203125 
z
M 48.6875 27.296875 
Q 48.6875 37.203125 44.609375 42.84375 
Q 40.53125 48.484375 33.40625 48.484375 
Q 26.265625 48.484375 22.1875 42.84375 
Q 18.109375 37.203125 18.109375 27.296875 
Q 18.109375 17.390625 22.1875 11.75 
Q 26.265625 6.109375 33.40625 6.109375 
Q 40.53125 6.109375 44.609375 11.75 
Q 48.6875 17.390625 48.6875 27.296875 
z
" id="DejaVuSans-112"/>
     <path d="M 18.3125 70.21875 
L 18.3125 54.6875 
L 36.8125 54.6875 
L 36.8125 47.703125 
L 18.3125 47.703125 
L 18.3125 18.015625 
Q 18.3125 11.328125 20.140625 9.421875 
Q 21.96875 7.515625 27.59375 7.515625 
L 36.8125 7.515625 
L 36.8125 0 
L 27.59375 0 
Q 17.1875 0 13.234375 3.875 
Q 9.28125 7.765625 9.28125 18.015625 
L 9.28125 47.703125 
L 2.6875 47.703125 
L 2.6875 54.6875 
L 9.28125 54.6875 
L 9.28125 70.21875 
z
" id="DejaVuSans-116"/>
     <path d="M 34.28125 27.484375 
Q 23.390625 27.484375 19.1875 25 
Q 14.984375 22.515625 14.984375 16.5 
Q 14.984375 11.71875 18.140625 8.90625 
Q 21.296875 6.109375 26.703125 6.109375 
Q 34.1875 6.109375 38.703125 11.40625 
Q 43.21875 16.703125 43.21875 25.484375 
L 43.21875 27.484375 
z
M 52.203125 31.203125 
L 52.203125 0 
L 43.21875 0 
L 43.21875 8.296875 
Q 40.140625 3.328125 35.546875 0.953125 
Q 30.953125 -1.421875 24.3125 -1.421875 
Q 15.921875 -1.421875 10.953125 3.296875 
Q 6 8.015625 6 15.921875 
Q 6 25.140625 12.171875 29.828125 
Q 18.359375 34.515625 30.609375 34.515625 
L 43.21875 34.515625 
L 43.21875 35.40625 
Q 43.21875 41.609375 39.140625 45 
Q 35.0625 48.390625 27.6875 48.390625 
Q 23 48.390625 18.546875 47.265625 
Q 14.109375 46.140625 10.015625 43.890625 
L 10.015625 52.203125 
Q 14.9375 54.109375 19.578125 55.046875 
Q 24.21875 56 28.609375 56 
Q 40.484375 56 46.34375 49.84375 
Q 52.203125 43.703125 52.203125 31.203125 
z
" id="DejaVuSans-97"/>
     <path d="M 37.109375 75.984375 
L 37.109375 68.5 
L 28.515625 68.5 
Q 23.6875 68.5 21.796875 66.546875 
Q 19.921875 64.59375 19.921875 59.515625 
L 19.921875 54.6875 
L 34.71875 54.6875 
L 34.71875 47.703125 
L 19.921875 47.703125 
L 19.921875 0 
L 10.890625 0 
L 10.890625 47.703125 
L 2.296875 47.703125 
L 2.296875 54.6875 
L 10.890625 54.6875 
L 10.890625 58.5 
Q 10.890625 67.625 15.140625 71.796875 
Q 19.390625 75.984375 28.609375 75.984375 
z
" id="DejaVuSans-102"/>
     <path d="M 9.421875 75.984375 
L 18.40625 75.984375 
L 18.40625 0 
L 9.421875 0 
z
" id="DejaVuSans-108"/>
    </defs>
    <g transform="translate(161.085183 20.88)scale(0.12 -0.12)">
     <use xlink:href="#DejaVuSans-109"/>
     <use x="97.412109" xlink:href="#DejaVuSans-111"/>
     <use x="158.59375" xlink:href="#DejaVuSans-112"/>
     <use x="222.070312" xlink:href="#DejaVuSans-116"/>
     <use x="261.279297" xlink:href="#DejaVuSans-97"/>
     <use x="322.558594" xlink:href="#DejaVuSans-102"/>
     <use x="357.763672" xlink:href="#DejaVuSans-108"/>
    </g>
   </g>
  </g>
  <g id="axes_2">
   <g id="patch_7">
    <path d="M 380.59 337.52 
L 700.645991 337.52 
L 700.645991 26.88 
L 380.59 26.88 
z
" style="fill:#ffffff;"/>
   </g>
   <g id="PolyCollection_2">
    <defs>
     <path d="M 380.708342 -445.314 
L 380.708342 -376.126 
L 380.728066 -417.78 
L 380.80696 -402.440545 
L 380.846408 -412.367333 
L 380.984473 -430.644889 
L 562.442236 -429.940064 
L 562.738091 -431.200833 
L 562.797262 -438.867677 
L 562.816986 -441.270545 
L 563.211459 -444.408289 
L 563.27063 -448.077447 
L 567.175917 -452.164911 
L 567.373153 -461.223439 
L 567.471772 -466.047065 
L 567.530943 -471.436 
L 631.909001 -477.692621 
L 682.125465 -488.38 
L 682.125465 -488.38 
L 682.125465 -488.38 
L 631.909001 -492.007379 
L 567.530943 -491.204 
L 567.471772 -489.532935 
L 567.373153 -487.296561 
L 567.175917 -489.295089 
L 563.27063 -486.322553 
L 563.211459 -482.931711 
L 562.816986 -479.009455 
L 562.797262 -474.352323 
L 562.738091 -474.959167 
L 562.442236 -469.159936 
L 380.984473 -461.395111 
L 380.846408 -458.492667 
L 380.80696 -440.179455 
L 380.728066 -417.78 
L 380.708342 -445.314 
z
" id="m70616fda9a" style="stroke:#0000ff;stroke-opacity:0.1;"/>
    </defs>
    <g clip-path="url(#p3ed777aac9)">
     <use style="fill:#0000ff;fill-opacity:0.1;stroke:#0000ff;stroke-opacity:0.1;" x="0" xlink:href="#m70616fda9a" y="720"/>
    </g>
   </g>
   <g id="matplotlib.axis_3">
    <g id="xtick_9">
     <g id="line2d_19">
      <g>
       <use style="stroke:#000000;stroke-width:0.8;" x="419.780932" xlink:href="#m2668267cbc" y="337.52"/>
      </g>
     </g>
     <g id="text_19">
      <!-- 10000 -->
      <g transform="translate(403.874682 352.118438)scale(0.1 -0.1)">
       <use xlink:href="#DejaVuSans-49"/>
       <use x="63.623047" xlink:href="#DejaVuSans-48"/>
       <use x="127.246094" xlink:href="#DejaVuSans-48"/>
       <use x="190.869141" xlink:href="#DejaVuSans-48"/>
       <use x="254.492188" xlink:href="#DejaVuSans-48"/>
      </g>
     </g>
    </g>
    <g id="xtick_10">
     <g id="line2d_20">
      <g>
       <use style="stroke:#000000;stroke-width:0.8;" x="459.228272" xlink:href="#m2668267cbc" y="337.52"/>
      </g>
     </g>
     <g id="text_20">
      <!-- 20000 -->
      <g transform="translate(443.322022 352.118438)scale(0.1 -0.1)">
       <use xlink:href="#DejaVuSans-50"/>
       <use x="63.623047" xlink:href="#DejaVuSans-48"/>
       <use x="127.246094" xlink:href="#DejaVuSans-48"/>
       <use x="190.869141" xlink:href="#DejaVuSans-48"/>
       <use x="254.492188" xlink:href="#DejaVuSans-48"/>
      </g>
     </g>
    </g>
    <g id="xtick_11">
     <g id="line2d_21">
      <g>
       <use style="stroke:#000000;stroke-width:0.8;" x="498.675611" xlink:href="#m2668267cbc" y="337.52"/>
      </g>
     </g>
     <g id="text_21">
      <!-- 30000 -->
      <g transform="translate(482.769361 352.118438)scale(0.1 -0.1)">
       <use xlink:href="#DejaVuSans-51"/>
       <use x="63.623047" xlink:href="#DejaVuSans-48"/>
       <use x="127.246094" xlink:href="#DejaVuSans-48"/>
       <use x="190.869141" xlink:href="#DejaVuSans-48"/>
       <use x="254.492188" xlink:href="#DejaVuSans-48"/>
      </g>
     </g>
    </g>
    <g id="xtick_12">
     <g id="line2d_22">
      <g>
       <use style="stroke:#000000;stroke-width:0.8;" x="538.122951" xlink:href="#m2668267cbc" y="337.52"/>
      </g>
     </g>
     <g id="text_22">
      <!-- 40000 -->
      <g transform="translate(522.216701 352.118438)scale(0.1 -0.1)">
       <use xlink:href="#DejaVuSans-52"/>
       <use x="63.623047" xlink:href="#DejaVuSans-48"/>
       <use x="127.246094" xlink:href="#DejaVuSans-48"/>
       <use x="190.869141" xlink:href="#DejaVuSans-48"/>
       <use x="254.492188" xlink:href="#DejaVuSans-48"/>
      </g>
     </g>
    </g>
    <g id="xtick_13">
     <g id="line2d_23">
      <g>
       <use style="stroke:#000000;stroke-width:0.8;" x="577.570291" xlink:href="#m2668267cbc" y="337.52"/>
      </g>
     </g>
     <g id="text_23">
      <!-- 50000 -->
      <g transform="translate(561.664041 352.118438)scale(0.1 -0.1)">
       <use xlink:href="#DejaVuSans-53"/>
       <use x="63.623047" xlink:href="#DejaVuSans-48"/>
       <use x="127.246094" xlink:href="#DejaVuSans-48"/>
       <use x="190.869141" xlink:href="#DejaVuSans-48"/>
       <use x="254.492188" xlink:href="#DejaVuSans-48"/>
      </g>
     </g>
    </g>
    <g id="xtick_14">
     <g id="line2d_24">
      <g>
       <use style="stroke:#000000;stroke-width:0.8;" x="617.01763" xlink:href="#m2668267cbc" y="337.52"/>
      </g>
     </g>
     <g id="text_24">
      <!-- 60000 -->
      <g transform="translate(601.11138 352.118438)scale(0.1 -0.1)">
       <use xlink:href="#DejaVuSans-54"/>
       <use x="63.623047" xlink:href="#DejaVuSans-48"/>
       <use x="127.246094" xlink:href="#DejaVuSans-48"/>
       <use x="190.869141" xlink:href="#DejaVuSans-48"/>
       <use x="254.492188" xlink:href="#DejaVuSans-48"/>
      </g>
     </g>
    </g>
    <g id="xtick_15">
     <g id="line2d_25">
      <g>
       <use style="stroke:#000000;stroke-width:0.8;" x="656.46497" xlink:href="#m2668267cbc" y="337.52"/>
      </g>
     </g>
     <g id="text_25">
      <!-- 70000 -->
      <g transform="translate(640.55872 352.118438)scale(0.1 -0.1)">
       <use xlink:href="#DejaVuSans-55"/>
       <use x="63.623047" xlink:href="#DejaVuSans-48"/>
       <use x="127.246094" xlink:href="#DejaVuSans-48"/>
       <use x="190.869141" xlink:href="#DejaVuSans-48"/>
       <use x="254.492188" xlink:href="#DejaVuSans-48"/>
      </g>
     </g>
    </g>
    <g id="xtick_16">
     <g id="line2d_26">
      <g>
       <use style="stroke:#000000;stroke-width:0.8;" x="695.91231" xlink:href="#m2668267cbc" y="337.52"/>
      </g>
     </g>
     <g id="text_26">
      <!-- 80000 -->
      <g transform="translate(680.00606 352.118438)scale(0.1 -0.1)">
       <use xlink:href="#DejaVuSans-56"/>
       <use x="63.623047" xlink:href="#DejaVuSans-48"/>
       <use x="127.246094" xlink:href="#DejaVuSans-48"/>
       <use x="190.869141" xlink:href="#DejaVuSans-48"/>
       <use x="254.492188" xlink:href="#DejaVuSans-48"/>
      </g>
     </g>
    </g>
   </g>
   <g id="matplotlib.axis_4">
    <g id="ytick_10">
     <g id="line2d_27">
      <g>
       <use style="stroke:#000000;stroke-width:0.8;" x="380.59" xlink:href="#m0aa0730cf5" y="337.52"/>
      </g>
     </g>
     <g id="text_27">
      <!-- 0 -->
      <g transform="translate(367.2275 341.319219)scale(0.1 -0.1)">
       <use xlink:href="#DejaVuSans-48"/>
      </g>
     </g>
    </g>
    <g id="ytick_11">
     <g id="line2d_28">
      <g>
       <use style="stroke:#000000;stroke-width:0.8;" x="380.59" xlink:href="#m0aa0730cf5" y="302.22"/>
      </g>
     </g>
     <g id="text_28">
      <!-- 1 -->
      <g transform="translate(367.2275 306.019219)scale(0.1 -0.1)">
       <use xlink:href="#DejaVuSans-49"/>
      </g>
     </g>
    </g>
    <g id="ytick_12">
     <g id="line2d_29">
      <g>
       <use style="stroke:#000000;stroke-width:0.8;" x="380.59" xlink:href="#m0aa0730cf5" y="266.92"/>
      </g>
     </g>
     <g id="text_29">
      <!-- 2 -->
      <g transform="translate(367.2275 270.719219)scale(0.1 -0.1)">
       <use xlink:href="#DejaVuSans-50"/>
      </g>
     </g>
    </g>
    <g id="ytick_13">
     <g id="line2d_30">
      <g>
       <use style="stroke:#000000;stroke-width:0.8;" x="380.59" xlink:href="#m0aa0730cf5" y="231.62"/>
      </g>
     </g>
     <g id="text_30">
      <!-- 3 -->
      <g transform="translate(367.2275 235.419219)scale(0.1 -0.1)">
       <use xlink:href="#DejaVuSans-51"/>
      </g>
     </g>
    </g>
    <g id="ytick_14">
     <g id="line2d_31">
      <g>
       <use style="stroke:#000000;stroke-width:0.8;" x="380.59" xlink:href="#m0aa0730cf5" y="196.32"/>
      </g>
     </g>
     <g id="text_31">
      <!-- 4 -->
      <g transform="translate(367.2275 200.119219)scale(0.1 -0.1)">
       <use xlink:href="#DejaVuSans-52"/>
      </g>
     </g>
    </g>
    <g id="ytick_15">
     <g id="line2d_32">
      <g>
       <use style="stroke:#000000;stroke-width:0.8;" x="380.59" xlink:href="#m0aa0730cf5" y="161.02"/>
      </g>
     </g>
     <g id="text_32">
      <!-- 5 -->
      <g transform="translate(367.2275 164.819219)scale(0.1 -0.1)">
       <use xlink:href="#DejaVuSans-53"/>
      </g>
     </g>
    </g>
    <g id="ytick_16">
     <g id="line2d_33">
      <g>
       <use style="stroke:#000000;stroke-width:0.8;" x="380.59" xlink:href="#m0aa0730cf5" y="125.72"/>
      </g>
     </g>
     <g id="text_33">
      <!-- 6 -->
      <g transform="translate(367.2275 129.519219)scale(0.1 -0.1)">
       <use xlink:href="#DejaVuSans-54"/>
      </g>
     </g>
    </g>
    <g id="ytick_17">
     <g id="line2d_34">
      <g>
       <use style="stroke:#000000;stroke-width:0.8;" x="380.59" xlink:href="#m0aa0730cf5" y="90.42"/>
      </g>
     </g>
     <g id="text_34">
      <!-- 7 -->
      <g transform="translate(367.2275 94.219219)scale(0.1 -0.1)">
       <use xlink:href="#DejaVuSans-55"/>
      </g>
     </g>
    </g>
    <g id="ytick_18">
     <g id="line2d_35">
      <g>
       <use style="stroke:#000000;stroke-width:0.8;" x="380.59" xlink:href="#m0aa0730cf5" y="55.12"/>
      </g>
     </g>
     <g id="text_35">
      <!-- 8 -->
      <g transform="translate(367.2275 58.919219)scale(0.1 -0.1)">
       <use xlink:href="#DejaVuSans-56"/>
      </g>
     </g>
    </g>
   </g>
   <g id="line2d_36">
    <path clip-path="url(#p3ed777aac9)" d="M 380.708342 309.28 
L 380.708342 302.22 
L 380.728066 302.22 
L 380.728066 298.69 
L 380.80696 298.69 
L 380.80696 284.57 
L 380.846408 284.57 
L 380.846408 273.98 
L 380.984473 273.98 
L 380.984473 270.45 
L 562.442236 270.45 
L 562.442236 266.92 
L 562.738091 266.92 
L 562.738091 263.39 
L 562.797262 263.39 
L 562.797262 259.86 
L 562.816986 259.86 
L 562.816986 256.33 
L 563.211459 256.33 
L 563.211459 252.8 
L 563.27063 252.8 
L 563.27063 249.27 
L 567.175917 249.27 
L 567.175917 245.74 
L 567.373153 245.74 
L 567.373153 242.21 
L 567.471772 242.21 
L 567.471772 238.68 
L 567.530943 238.68 
L 567.530943 235.15 
L 631.909001 235.15 
L 631.909001 231.62 
L 682.125465 231.62 
" style="fill:none;stroke:#1f77b4;stroke-linecap:square;stroke-width:1.5;"/>
   </g>
   <g id="patch_8">
    <path d="M 380.59 337.52 
L 380.59 26.88 
" style="fill:none;stroke:#000000;stroke-linecap:square;stroke-linejoin:miter;stroke-width:0.8;"/>
   </g>
   <g id="patch_9">
    <path d="M 700.645991 337.52 
L 700.645991 26.88 
" style="fill:none;stroke:#000000;stroke-linecap:square;stroke-linejoin:miter;stroke-width:0.8;"/>
   </g>
   <g id="patch_10">
    <path d="M 380.59 337.52 
L 700.645991 337.52 
" style="fill:none;stroke:#000000;stroke-linecap:square;stroke-linejoin:miter;stroke-width:0.8;"/>
   </g>
   <g id="patch_11">
    <path d="M 380.59 26.88 
L 700.645991 26.88 
" style="fill:none;stroke:#000000;stroke-linecap:square;stroke-linejoin:miter;stroke-width:0.8;"/>
   </g>
   <g id="text_36">
    <!-- aflfast -->
    <defs>
     <path d="M 44.28125 53.078125 
L 44.28125 44.578125 
Q 40.484375 46.53125 36.375 47.5 
Q 32.28125 48.484375 27.875 48.484375 
Q 21.1875 48.484375 17.84375 46.4375 
Q 14.5 44.390625 14.5 40.28125 
Q 14.5 37.15625 16.890625 35.375 
Q 19.28125 33.59375 26.515625 31.984375 
L 29.59375 31.296875 
Q 39.15625 29.25 43.1875 25.515625 
Q 47.21875 21.78125 47.21875 15.09375 
Q 47.21875 7.46875 41.1875 3.015625 
Q 35.15625 -1.421875 24.609375 -1.421875 
Q 20.21875 -1.421875 15.453125 -0.5625 
Q 10.6875 0.296875 5.421875 2 
L 5.421875 11.28125 
Q 10.40625 8.6875 15.234375 7.390625 
Q 20.0625 6.109375 24.8125 6.109375 
Q 31.15625 6.109375 34.5625 8.28125 
Q 37.984375 10.453125 37.984375 14.40625 
Q 37.984375 18.0625 35.515625 20.015625 
Q 33.0625 21.96875 24.703125 23.78125 
L 21.578125 24.515625 
Q 13.234375 26.265625 9.515625 29.90625 
Q 5.8125 33.546875 5.8125 39.890625 
Q 5.8125 47.609375 11.28125 51.796875 
Q 16.75 56 26.8125 56 
Q 31.78125 56 36.171875 55.265625 
Q 40.578125 54.546875 44.28125 53.078125 
z
" id="DejaVuSans-115"/>
    </defs>
    <g transform="translate(521.895183 20.88)scale(0.12 -0.12)">
     <use xlink:href="#DejaVuSans-97"/>
     <use x="61.279297" xlink:href="#DejaVuSans-102"/>
     <use x="96.484375" xlink:href="#DejaVuSans-108"/>
     <use x="124.267578" xlink:href="#DejaVuSans-102"/>
     <use x="159.472656" xlink:href="#DejaVuSans-97"/>
     <use x="220.751953" xlink:href="#DejaVuSans-115"/>
     <use x="272.851562" xlink:href="#DejaVuSans-116"/>
    </g>
   </g>
  </g>
  <g id="axes_3">
   <g id="patch_12">
    <path d="M 736.99 337.52 
L 1057.045991 337.52 
L 1057.045991 26.88 
L 736.99 26.88 
z
" style="fill:#ffffff;"/>
   </g>
   <g id="PolyCollection_3">
    <defs>
     <path d="M 737.029447 -593.574 
L 737.029447 -178.446 
L 737.068895 -391.187333 
L 737.088618 -402.440545 
L 737.187237 -401.777333 
L 737.20696 -403.980827 
L 737.246408 -423.839456 
L 737.266131 -453.08 
L 923.398404 -446.726 
L 928.526558 -447.560364 
L 928.940755 -449.884815 
L 937.24442 -453.077059 
L 943.575718 -456.8924 
L 946.593439 -461.223439 
L 946.790676 -466.047065 
L 949.887292 -471.436 
L 976.040878 -477.692621 
L 1001.504136 -488.38 
L 1001.504136 -488.38 
L 1001.504136 -488.38 
L 976.040878 -492.007379 
L 949.887292 -491.204 
L 946.790676 -489.532935 
L 946.593439 -487.296561 
L 943.575718 -484.5676 
L 937.24442 -481.322941 
L 928.940755 -477.455185 
L 928.526558 -472.719636 
L 923.398404 -466.494 
L 737.266131 -453.08 
L 737.246408 -461.140544 
L 737.20696 -452.759173 
L 737.187237 -447.902667 
L 737.088618 -440.179455 
L 737.068895 -437.312667 
L 737.029447 -593.574 
z
" id="mbb79d1ccf8" style="stroke:#0000ff;stroke-opacity:0.1;"/>
    </defs>
    <g clip-path="url(#pe73937ce75)">
     <use style="fill:#0000ff;fill-opacity:0.1;stroke:#0000ff;stroke-opacity:0.1;" x="0" xlink:href="#mbb79d1ccf8" y="720"/>
    </g>
   </g>
   <g id="matplotlib.axis_5">
    <g id="xtick_17">
     <g id="line2d_37">
      <g>
       <use style="stroke:#000000;stroke-width:0.8;" x="776.180932" xlink:href="#m2668267cbc" y="337.52"/>
      </g>
     </g>
     <g id="text_37">
      <!-- 10000 -->
      <g transform="translate(760.274682 352.118438)scale(0.1 -0.1)">
       <use xlink:href="#DejaVuSans-49"/>
       <use x="63.623047" xlink:href="#DejaVuSans-48"/>
       <use x="127.246094" xlink:href="#DejaVuSans-48"/>
       <use x="190.869141" xlink:href="#DejaVuSans-48"/>
       <use x="254.492188" xlink:href="#DejaVuSans-48"/>
      </g>
     </g>
    </g>
    <g id="xtick_18">
     <g id="line2d_38">
      <g>
       <use style="stroke:#000000;stroke-width:0.8;" x="815.628272" xlink:href="#m2668267cbc" y="337.52"/>
      </g>
     </g>
     <g id="text_38">
      <!-- 20000 -->
      <g transform="translate(799.722022 352.118438)scale(0.1 -0.1)">
       <use xlink:href="#DejaVuSans-50"/>
       <use x="63.623047" xlink:href="#DejaVuSans-48"/>
       <use x="127.246094" xlink:href="#DejaVuSans-48"/>
       <use x="190.869141" xlink:href="#DejaVuSans-48"/>
       <use x="254.492188" xlink:href="#DejaVuSans-48"/>
      </g>
     </g>
    </g>
    <g id="xtick_19">
     <g id="line2d_39">
      <g>
       <use style="stroke:#000000;stroke-width:0.8;" x="855.075611" xlink:href="#m2668267cbc" y="337.52"/>
      </g>
     </g>
     <g id="text_39">
      <!-- 30000 -->
      <g transform="translate(839.169361 352.118438)scale(0.1 -0.1)">
       <use xlink:href="#DejaVuSans-51"/>
       <use x="63.623047" xlink:href="#DejaVuSans-48"/>
       <use x="127.246094" xlink:href="#DejaVuSans-48"/>
       <use x="190.869141" xlink:href="#DejaVuSans-48"/>
       <use x="254.492188" xlink:href="#DejaVuSans-48"/>
      </g>
     </g>
    </g>
    <g id="xtick_20">
     <g id="line2d_40">
      <g>
       <use style="stroke:#000000;stroke-width:0.8;" x="894.522951" xlink:href="#m2668267cbc" y="337.52"/>
      </g>
     </g>
     <g id="text_40">
      <!-- 40000 -->
      <g transform="translate(878.616701 352.118438)scale(0.1 -0.1)">
       <use xlink:href="#DejaVuSans-52"/>
       <use x="63.623047" xlink:href="#DejaVuSans-48"/>
       <use x="127.246094" xlink:href="#DejaVuSans-48"/>
       <use x="190.869141" xlink:href="#DejaVuSans-48"/>
       <use x="254.492188" xlink:href="#DejaVuSans-48"/>
      </g>
     </g>
    </g>
    <g id="xtick_21">
     <g id="line2d_41">
      <g>
       <use style="stroke:#000000;stroke-width:0.8;" x="933.970291" xlink:href="#m2668267cbc" y="337.52"/>
      </g>
     </g>
     <g id="text_41">
      <!-- 50000 -->
      <g transform="translate(918.064041 352.118438)scale(0.1 -0.1)">
       <use xlink:href="#DejaVuSans-53"/>
       <use x="63.623047" xlink:href="#DejaVuSans-48"/>
       <use x="127.246094" xlink:href="#DejaVuSans-48"/>
       <use x="190.869141" xlink:href="#DejaVuSans-48"/>
       <use x="254.492188" xlink:href="#DejaVuSans-48"/>
      </g>
     </g>
    </g>
    <g id="xtick_22">
     <g id="line2d_42">
      <g>
       <use style="stroke:#000000;stroke-width:0.8;" x="973.41763" xlink:href="#m2668267cbc" y="337.52"/>
      </g>
     </g>
     <g id="text_42">
      <!-- 60000 -->
      <g transform="translate(957.51138 352.118438)scale(0.1 -0.1)">
       <use xlink:href="#DejaVuSans-54"/>
       <use x="63.623047" xlink:href="#DejaVuSans-48"/>
       <use x="127.246094" xlink:href="#DejaVuSans-48"/>
       <use x="190.869141" xlink:href="#DejaVuSans-48"/>
       <use x="254.492188" xlink:href="#DejaVuSans-48"/>
      </g>
     </g>
    </g>
    <g id="xtick_23">
     <g id="line2d_43">
      <g>
       <use style="stroke:#000000;stroke-width:0.8;" x="1012.86497" xlink:href="#m2668267cbc" y="337.52"/>
      </g>
     </g>
     <g id="text_43">
      <!-- 70000 -->
      <g transform="translate(996.95872 352.118438)scale(0.1 -0.1)">
       <use xlink:href="#DejaVuSans-55"/>
       <use x="63.623047" xlink:href="#DejaVuSans-48"/>
       <use x="127.246094" xlink:href="#DejaVuSans-48"/>
       <use x="190.869141" xlink:href="#DejaVuSans-48"/>
       <use x="254.492188" xlink:href="#DejaVuSans-48"/>
      </g>
     </g>
    </g>
    <g id="xtick_24">
     <g id="line2d_44">
      <g>
       <use style="stroke:#000000;stroke-width:0.8;" x="1052.31231" xlink:href="#m2668267cbc" y="337.52"/>
      </g>
     </g>
     <g id="text_44">
      <!-- 80000 -->
      <g transform="translate(1036.40606 352.118438)scale(0.1 -0.1)">
       <use xlink:href="#DejaVuSans-56"/>
       <use x="63.623047" xlink:href="#DejaVuSans-48"/>
       <use x="127.246094" xlink:href="#DejaVuSans-48"/>
       <use x="190.869141" xlink:href="#DejaVuSans-48"/>
       <use x="254.492188" xlink:href="#DejaVuSans-48"/>
      </g>
     </g>
    </g>
   </g>
   <g id="matplotlib.axis_6">
    <g id="ytick_19">
     <g id="line2d_45">
      <g>
       <use style="stroke:#000000;stroke-width:0.8;" x="736.99" xlink:href="#m0aa0730cf5" y="337.52"/>
      </g>
     </g>
     <g id="text_45">
      <!-- 0 -->
      <g transform="translate(723.6275 341.319219)scale(0.1 -0.1)">
       <use xlink:href="#DejaVuSans-48"/>
      </g>
     </g>
    </g>
    <g id="ytick_20">
     <g id="line2d_46">
      <g>
       <use style="stroke:#000000;stroke-width:0.8;" x="736.99" xlink:href="#m0aa0730cf5" y="302.22"/>
      </g>
     </g>
     <g id="text_46">
      <!-- 1 -->
      <g transform="translate(723.6275 306.019219)scale(0.1 -0.1)">
       <use xlink:href="#DejaVuSans-49"/>
      </g>
     </g>
    </g>
    <g id="ytick_21">
     <g id="line2d_47">
      <g>
       <use style="stroke:#000000;stroke-width:0.8;" x="736.99" xlink:href="#m0aa0730cf5" y="266.92"/>
      </g>
     </g>
     <g id="text_47">
      <!-- 2 -->
      <g transform="translate(723.6275 270.719219)scale(0.1 -0.1)">
       <use xlink:href="#DejaVuSans-50"/>
      </g>
     </g>
    </g>
    <g id="ytick_22">
     <g id="line2d_48">
      <g>
       <use style="stroke:#000000;stroke-width:0.8;" x="736.99" xlink:href="#m0aa0730cf5" y="231.62"/>
      </g>
     </g>
     <g id="text_48">
      <!-- 3 -->
      <g transform="translate(723.6275 235.419219)scale(0.1 -0.1)">
       <use xlink:href="#DejaVuSans-51"/>
      </g>
     </g>
    </g>
    <g id="ytick_23">
     <g id="line2d_49">
      <g>
       <use style="stroke:#000000;stroke-width:0.8;" x="736.99" xlink:href="#m0aa0730cf5" y="196.32"/>
      </g>
     </g>
     <g id="text_49">
      <!-- 4 -->
      <g transform="translate(723.6275 200.119219)scale(0.1 -0.1)">
       <use xlink:href="#DejaVuSans-52"/>
      </g>
     </g>
    </g>
    <g id="ytick_24">
     <g id="line2d_50">
      <g>
       <use style="stroke:#000000;stroke-width:0.8;" x="736.99" xlink:href="#m0aa0730cf5" y="161.02"/>
      </g>
     </g>
     <g id="text_50">
      <!-- 5 -->
      <g transform="translate(723.6275 164.819219)scale(0.1 -0.1)">
       <use xlink:href="#DejaVuSans-53"/>
      </g>
     </g>
    </g>
    <g id="ytick_25">
     <g id="line2d_51">
      <g>
       <use style="stroke:#000000;stroke-width:0.8;" x="736.99" xlink:href="#m0aa0730cf5" y="125.72"/>
      </g>
     </g>
     <g id="text_51">
      <!-- 6 -->
      <g transform="translate(723.6275 129.519219)scale(0.1 -0.1)">
       <use xlink:href="#DejaVuSans-54"/>
      </g>
     </g>
    </g>
    <g id="ytick_26">
     <g id="line2d_52">
      <g>
       <use style="stroke:#000000;stroke-width:0.8;" x="736.99" xlink:href="#m0aa0730cf5" y="90.42"/>
      </g>
     </g>
     <g id="text_52">
      <!-- 7 -->
      <g transform="translate(723.6275 94.219219)scale(0.1 -0.1)">
       <use xlink:href="#DejaVuSans-55"/>
      </g>
     </g>
    </g>
    <g id="ytick_27">
     <g id="line2d_53">
      <g>
       <use style="stroke:#000000;stroke-width:0.8;" x="736.99" xlink:href="#m0aa0730cf5" y="55.12"/>
      </g>
     </g>
     <g id="text_53">
      <!-- 8 -->
      <g transform="translate(723.6275 58.919219)scale(0.1 -0.1)">
       <use xlink:href="#DejaVuSans-56"/>
      </g>
     </g>
    </g>
   </g>
   <g id="line2d_54">
    <path clip-path="url(#pe73937ce75)" d="M 737.029447 333.99 
L 737.029447 305.75 
L 737.068895 305.75 
L 737.068895 298.69 
L 737.088618 298.69 
L 737.088618 295.16 
L 737.187237 295.16 
L 737.187237 291.63 
L 737.20696 291.63 
L 737.20696 277.51 
L 737.246408 277.51 
L 737.246408 266.92 
L 737.266131 266.92 
L 737.266131 263.39 
L 923.398404 263.39 
L 923.398404 259.86 
L 928.526558 259.86 
L 928.526558 256.33 
L 928.940755 256.33 
L 928.940755 252.8 
L 937.24442 252.8 
L 937.24442 249.27 
L 943.575718 249.27 
L 943.575718 245.74 
L 946.593439 245.74 
L 946.593439 242.21 
L 946.790676 242.21 
L 946.790676 238.68 
L 949.887292 238.68 
L 949.887292 235.15 
L 976.040878 235.15 
L 976.040878 231.62 
L 1001.504136 231.62 
" style="fill:none;stroke:#1f77b4;stroke-linecap:square;stroke-width:1.5;"/>
   </g>
   <g id="patch_13">
    <path d="M 736.99 337.52 
L 736.99 26.88 
" style="fill:none;stroke:#000000;stroke-linecap:square;stroke-linejoin:miter;stroke-width:0.8;"/>
   </g>
   <g id="patch_14">
    <path d="M 1057.045991 337.52 
L 1057.045991 26.88 
" style="fill:none;stroke:#000000;stroke-linecap:square;stroke-linejoin:miter;stroke-width:0.8;"/>
   </g>
   <g id="patch_15">
    <path d="M 736.99 337.52 
L 1057.045991 337.52 
" style="fill:none;stroke:#000000;stroke-linecap:square;stroke-linejoin:miter;stroke-width:0.8;"/>
   </g>
   <g id="patch_16">
    <path d="M 736.99 26.88 
L 1057.045991 26.88 
" style="fill:none;stroke:#000000;stroke-linecap:square;stroke-linejoin:miter;stroke-width:0.8;"/>
   </g>
   <g id="text_54">
    <!-- aflplusplus -->
    <defs>
     <path d="M 8.5 21.578125 
L 8.5 54.6875 
L 17.484375 54.6875 
L 17.484375 21.921875 
Q 17.484375 14.15625 20.5 10.265625 
Q 23.53125 6.390625 29.59375 6.390625 
Q 36.859375 6.390625 41.078125 11.03125 
Q 45.3125 15.671875 45.3125 23.6875 
L 45.3125 54.6875 
L 54.296875 54.6875 
L 54.296875 0 
L 45.3125 0 
L 45.3125 8.40625 
Q 42.046875 3.421875 37.71875 1 
Q 33.40625 -1.421875 27.6875 -1.421875 
Q 18.265625 -1.421875 13.375 4.4375 
Q 8.5 10.296875 8.5 21.578125 
z
M 31.109375 56 
z
" id="DejaVuSans-117"/>
    </defs>
    <g transform="translate(864.753933 20.88)scale(0.12 -0.12)">
     <use xlink:href="#DejaVuSans-97"/>
     <use x="61.279297" xlink:href="#DejaVuSans-102"/>
     <use x="96.484375" xlink:href="#DejaVuSans-108"/>
     <use x="124.267578" xlink:href="#DejaVuSans-112"/>
     <use x="187.744141" xlink:href="#DejaVuSans-108"/>
     <use x="215.527344" xlink:href="#DejaVuSans-117"/>
     <use x="278.90625" xlink:href="#DejaVuSans-115"/>
     <use x="331.005859" xlink:href="#DejaVuSans-112"/>
     <use x="394.482422" xlink:href="#DejaVuSans-108"/>
     <use x="422.265625" xlink:href="#DejaVuSans-117"/>
     <use x="485.644531" xlink:href="#DejaVuSans-115"/>
    </g>
   </g>
  </g>
  <g id="axes_4">
   <g id="patch_17">
    <path d="M 24.19 692.12 
L 344.245991 692.12 
L 344.245991 381.48 
L 24.19 381.48 
z
" style="fill:#ffffff;"/>
   </g>
   <g id="PolyCollection_4">
    <defs>
     <path d="M 24.19 -238.974 
L 24.19 176.154 
L 24.209724 42.737648 
L 24.229447 23.658 
L 24.249171 7.431765 
L 24.268895 -7.295822 
L 24.308342 -21.526 
L 24.347789 -32.238186 
L 24.485855 -47.840545 
L 24.840881 -47.177333 
L 24.900052 -49.380827 
L 25.018394 -57.767333 
L 25.038118 -63.175588 
L 26.300433 -69.239456 
L 26.320156 -76.044889 
L 26.596288 -84.025579 
L 27.543024 -84.267677 
L 28.391142 -92.960364 
L 28.647549 -95.284815 
L 30.343785 -98.477059 
L 34.071559 -102.2924 
L 42.316053 -106.623439 
L 46.891944 -111.447065 
L 51.665072 -116.836 
L 57.227147 -123.092621 
L 60.422381 -133.78 
L 110.283819 -132.1915 
L 183.576976 -134.762144 
L 217.679201 -137.930865 
L 296.061065 -141.546 
L 304.818374 -142.211631 
L 344.226267 -146.147184 
L 344.226267 -177.892816 
L 344.226267 -177.892816 
L 304.818374 -167.708369 
L 296.061065 -161.314 
L 217.679201 -157.869135 
L 183.576976 -153.977856 
L 110.283819 -149.4885 
L 60.422381 -133.78 
L 57.227147 -137.407379 
L 51.665072 -136.604 
L 46.891944 -134.932935 
L 42.316053 -132.696561 
L 34.071559 -129.9676 
L 30.343785 -126.722941 
L 28.647549 -122.855185 
L 28.391142 -118.119636 
L 27.543024 -119.752323 
L 26.596288 -105.874421 
L 26.320156 -106.795111 
L 26.300433 -106.540544 
L 25.038118 -105.544412 
L 25.018394 -103.892667 
L 24.900052 -98.159173 
L 24.840881 -93.302667 
L 24.485855 -85.579455 
L 24.347789 -94.121814 
L 24.308342 -90.714 
L 24.268895 -97.884178 
L 24.249171 -105.551765 
L 24.229447 -114.718 
L 24.209724 -126.737648 
L 24.19 -238.974 
z
" id="mce5fd561da" style="stroke:#0000ff;stroke-opacity:0.1;"/>
    </defs>
    <g clip-path="url(#p3776a7fe25)">
     <use style="fill:#0000ff;fill-opacity:0.1;stroke:#0000ff;stroke-opacity:0.1;" x="0" xlink:href="#mce5fd561da" y="720"/>
    </g>
   </g>
   <g id="matplotlib.axis_7">
    <g id="xtick_25">
     <g id="line2d_55">
      <g>
       <use style="stroke:#000000;stroke-width:0.8;" x="63.380932" xlink:href="#m2668267cbc" y="692.12"/>
      </g>
     </g>
     <g id="text_55">
      <!-- 10000 -->
      <g transform="translate(47.474682 706.718438)scale(0.1 -0.1)">
       <use xlink:href="#DejaVuSans-49"/>
       <use x="63.623047" xlink:href="#DejaVuSans-48"/>
       <use x="127.246094" xlink:href="#DejaVuSans-48"/>
       <use x="190.869141" xlink:href="#DejaVuSans-48"/>
       <use x="254.492188" xlink:href="#DejaVuSans-48"/>
      </g>
     </g>
    </g>
    <g id="xtick_26">
     <g id="line2d_56">
      <g>
       <use style="stroke:#000000;stroke-width:0.8;" x="102.828272" xlink:href="#m2668267cbc" y="692.12"/>
      </g>
     </g>
     <g id="text_56">
      <!-- 20000 -->
      <g transform="translate(86.922022 706.718438)scale(0.1 -0.1)">
       <use xlink:href="#DejaVuSans-50"/>
       <use x="63.623047" xlink:href="#DejaVuSans-48"/>
       <use x="127.246094" xlink:href="#DejaVuSans-48"/>
       <use x="190.869141" xlink:href="#DejaVuSans-48"/>
       <use x="254.492188" xlink:href="#DejaVuSans-48"/>
      </g>
     </g>
    </g>
    <g id="xtick_27">
     <g id="line2d_57">
      <g>
       <use style="stroke:#000000;stroke-width:0.8;" x="142.275611" xlink:href="#m2668267cbc" y="692.12"/>
      </g>
     </g>
     <g id="text_57">
      <!-- 30000 -->
      <g transform="translate(126.369361 706.718438)scale(0.1 -0.1)">
       <use xlink:href="#DejaVuSans-51"/>
       <use x="63.623047" xlink:href="#DejaVuSans-48"/>
       <use x="127.246094" xlink:href="#DejaVuSans-48"/>
       <use x="190.869141" xlink:href="#DejaVuSans-48"/>
       <use x="254.492188" xlink:href="#DejaVuSans-48"/>
      </g>
     </g>
    </g>
    <g id="xtick_28">
     <g id="line2d_58">
      <g>
       <use style="stroke:#000000;stroke-width:0.8;" x="181.722951" xlink:href="#m2668267cbc" y="692.12"/>
      </g>
     </g>
     <g id="text_58">
      <!-- 40000 -->
      <g transform="translate(165.816701 706.718438)scale(0.1 -0.1)">
       <use xlink:href="#DejaVuSans-52"/>
       <use x="63.623047" xlink:href="#DejaVuSans-48"/>
       <use x="127.246094" xlink:href="#DejaVuSans-48"/>
       <use x="190.869141" xlink:href="#DejaVuSans-48"/>
       <use x="254.492188" xlink:href="#DejaVuSans-48"/>
      </g>
     </g>
    </g>
    <g id="xtick_29">
     <g id="line2d_59">
      <g>
       <use style="stroke:#000000;stroke-width:0.8;" x="221.170291" xlink:href="#m2668267cbc" y="692.12"/>
      </g>
     </g>
     <g id="text_59">
      <!-- 50000 -->
      <g transform="translate(205.264041 706.718438)scale(0.1 -0.1)">
       <use xlink:href="#DejaVuSans-53"/>
       <use x="63.623047" xlink:href="#DejaVuSans-48"/>
       <use x="127.246094" xlink:href="#DejaVuSans-48"/>
       <use x="190.869141" xlink:href="#DejaVuSans-48"/>
       <use x="254.492188" xlink:href="#DejaVuSans-48"/>
      </g>
     </g>
    </g>
    <g id="xtick_30">
     <g id="line2d_60">
      <g>
       <use style="stroke:#000000;stroke-width:0.8;" x="260.61763" xlink:href="#m2668267cbc" y="692.12"/>
      </g>
     </g>
     <g id="text_60">
      <!-- 60000 -->
      <g transform="translate(244.71138 706.718438)scale(0.1 -0.1)">
       <use xlink:href="#DejaVuSans-54"/>
       <use x="63.623047" xlink:href="#DejaVuSans-48"/>
       <use x="127.246094" xlink:href="#DejaVuSans-48"/>
       <use x="190.869141" xlink:href="#DejaVuSans-48"/>
       <use x="254.492188" xlink:href="#DejaVuSans-48"/>
      </g>
     </g>
    </g>
    <g id="xtick_31">
     <g id="line2d_61">
      <g>
       <use style="stroke:#000000;stroke-width:0.8;" x="300.06497" xlink:href="#m2668267cbc" y="692.12"/>
      </g>
     </g>
     <g id="text_61">
      <!-- 70000 -->
      <g transform="translate(284.15872 706.718438)scale(0.1 -0.1)">
       <use xlink:href="#DejaVuSans-55"/>
       <use x="63.623047" xlink:href="#DejaVuSans-48"/>
       <use x="127.246094" xlink:href="#DejaVuSans-48"/>
       <use x="190.869141" xlink:href="#DejaVuSans-48"/>
       <use x="254.492188" xlink:href="#DejaVuSans-48"/>
      </g>
     </g>
    </g>
    <g id="xtick_32">
     <g id="line2d_62">
      <g>
       <use style="stroke:#000000;stroke-width:0.8;" x="339.51231" xlink:href="#m2668267cbc" y="692.12"/>
      </g>
     </g>
     <g id="text_62">
      <!-- 80000 -->
      <g transform="translate(323.60606 706.718438)scale(0.1 -0.1)">
       <use xlink:href="#DejaVuSans-56"/>
       <use x="63.623047" xlink:href="#DejaVuSans-48"/>
       <use x="127.246094" xlink:href="#DejaVuSans-48"/>
       <use x="190.869141" xlink:href="#DejaVuSans-48"/>
       <use x="254.492188" xlink:href="#DejaVuSans-48"/>
      </g>
     </g>
    </g>
   </g>
   <g id="matplotlib.axis_8">
    <g id="ytick_28">
     <g id="line2d_63">
      <g>
       <use style="stroke:#000000;stroke-width:0.8;" x="24.19" xlink:href="#m0aa0730cf5" y="692.12"/>
      </g>
     </g>
     <g id="text_63">
      <!-- 0 -->
      <g transform="translate(10.8275 695.919219)scale(0.1 -0.1)">
       <use xlink:href="#DejaVuSans-48"/>
      </g>
     </g>
    </g>
    <g id="ytick_29">
     <g id="line2d_64">
      <g>
       <use style="stroke:#000000;stroke-width:0.8;" x="24.19" xlink:href="#m0aa0730cf5" y="656.82"/>
      </g>
     </g>
     <g id="text_64">
      <!-- 1 -->
      <g transform="translate(10.8275 660.619219)scale(0.1 -0.1)">
       <use xlink:href="#DejaVuSans-49"/>
      </g>
     </g>
    </g>
    <g id="ytick_30">
     <g id="line2d_65">
      <g>
       <use style="stroke:#000000;stroke-width:0.8;" x="24.19" xlink:href="#m0aa0730cf5" y="621.52"/>
      </g>
     </g>
     <g id="text_65">
      <!-- 2 -->
      <g transform="translate(10.8275 625.319219)scale(0.1 -0.1)">
       <use xlink:href="#DejaVuSans-50"/>
      </g>
     </g>
    </g>
    <g id="ytick_31">
     <g id="line2d_66">
      <g>
       <use style="stroke:#000000;stroke-width:0.8;" x="24.19" xlink:href="#m0aa0730cf5" y="586.22"/>
      </g>
     </g>
     <g id="text_66">
      <!-- 3 -->
      <g transform="translate(10.8275 590.019219)scale(0.1 -0.1)">
       <use xlink:href="#DejaVuSans-51"/>
      </g>
     </g>
    </g>
    <g id="ytick_32">
     <g id="line2d_67">
      <g>
       <use style="stroke:#000000;stroke-width:0.8;" x="24.19" xlink:href="#m0aa0730cf5" y="550.92"/>
      </g>
     </g>
     <g id="text_67">
      <!-- 4 -->
      <g transform="translate(10.8275 554.719219)scale(0.1 -0.1)">
       <use xlink:href="#DejaVuSans-52"/>
      </g>
     </g>
    </g>
    <g id="ytick_33">
     <g id="line2d_68">
      <g>
       <use style="stroke:#000000;stroke-width:0.8;" x="24.19" xlink:href="#m0aa0730cf5" y="515.62"/>
      </g>
     </g>
     <g id="text_68">
      <!-- 5 -->
      <g transform="translate(10.8275 519.419219)scale(0.1 -0.1)">
       <use xlink:href="#DejaVuSans-53"/>
      </g>
     </g>
    </g>
    <g id="ytick_34">
     <g id="line2d_69">
      <g>
       <use style="stroke:#000000;stroke-width:0.8;" x="24.19" xlink:href="#m0aa0730cf5" y="480.32"/>
      </g>
     </g>
     <g id="text_69">
      <!-- 6 -->
      <g transform="translate(10.8275 484.119219)scale(0.1 -0.1)">
       <use xlink:href="#DejaVuSans-54"/>
      </g>
     </g>
    </g>
    <g id="ytick_35">
     <g id="line2d_70">
      <g>
       <use style="stroke:#000000;stroke-width:0.8;" x="24.19" xlink:href="#m0aa0730cf5" y="445.02"/>
      </g>
     </g>
     <g id="text_70">
      <!-- 7 -->
      <g transform="translate(10.8275 448.819219)scale(0.1 -0.1)">
       <use xlink:href="#DejaVuSans-55"/>
      </g>
     </g>
    </g>
    <g id="ytick_36">
     <g id="line2d_71">
      <g>
       <use style="stroke:#000000;stroke-width:0.8;" x="24.19" xlink:href="#m0aa0730cf5" y="409.72"/>
      </g>
     </g>
     <g id="text_71">
      <!-- 8 -->
      <g transform="translate(10.8275 413.519219)scale(0.1 -0.1)">
       <use xlink:href="#DejaVuSans-56"/>
      </g>
     </g>
    </g>
   </g>
   <g id="line2d_72">
    <path clip-path="url(#p3776a7fe25)" d="M 24.19 688.59 
L 24.19 678 
L 24.209724 678 
L 24.209724 674.47 
L 24.229447 674.47 
L 24.229447 670.94 
L 24.249171 670.94 
L 24.249171 667.41 
L 24.268895 667.41 
L 24.268895 663.88 
L 24.308342 663.88 
L 24.308342 656.82 
L 24.347789 656.82 
L 24.347789 653.29 
L 24.485855 653.29 
L 24.485855 649.76 
L 24.840881 649.76 
L 24.840881 646.23 
L 24.900052 646.23 
L 24.900052 639.17 
L 25.018394 639.17 
L 25.018394 635.64 
L 25.038118 635.64 
L 25.038118 632.11 
L 26.300433 632.11 
L 26.300433 628.58 
L 26.320156 628.58 
L 26.320156 625.05 
L 26.596288 625.05 
L 26.596288 617.99 
L 27.543024 617.99 
L 27.543024 614.46 
L 28.391142 614.46 
L 28.391142 610.93 
L 28.647549 610.93 
L 28.647549 607.4 
L 30.343785 607.4 
L 30.343785 603.87 
L 34.071559 603.87 
L 34.071559 600.34 
L 42.316053 600.34 
L 42.316053 596.81 
L 46.891944 596.81 
L 46.891944 593.28 
L 51.665072 593.28 
L 51.665072 589.75 
L 57.227147 589.75 
L 57.227147 586.22 
L 60.422381 586.22 
L 60.422381 579.16 
L 110.283819 579.16 
L 110.283819 575.63 
L 183.576976 575.63 
L 183.576976 572.1 
L 217.679201 572.1 
L 217.679201 568.57 
L 296.061065 568.57 
L 296.061065 565.04 
L 304.818374 565.04 
L 304.818374 557.98 
L 344.226267 557.98 
" style="fill:none;stroke:#1f77b4;stroke-linecap:square;stroke-width:1.5;"/>
   </g>
   <g id="patch_18">
    <path d="M 24.19 692.12 
L 24.19 381.48 
" style="fill:none;stroke:#000000;stroke-linecap:square;stroke-linejoin:miter;stroke-width:0.8;"/>
   </g>
   <g id="patch_19">
    <path d="M 344.245991 692.12 
L 344.245991 381.48 
" style="fill:none;stroke:#000000;stroke-linecap:square;stroke-linejoin:miter;stroke-width:0.8;"/>
   </g>
   <g id="patch_20">
    <path d="M 24.19 692.12 
L 344.245991 692.12 
" style="fill:none;stroke:#000000;stroke-linecap:square;stroke-linejoin:miter;stroke-width:0.8;"/>
   </g>
   <g id="patch_21">
    <path d="M 24.19 381.48 
L 344.245991 381.48 
" style="fill:none;stroke:#000000;stroke-linecap:square;stroke-linejoin:miter;stroke-width:0.8;"/>
   </g>
   <g id="text_72">
    <!-- honggfuzz -->
    <defs>
     <path d="M 54.890625 33.015625 
L 54.890625 0 
L 45.90625 0 
L 45.90625 32.71875 
Q 45.90625 40.484375 42.875 44.328125 
Q 39.84375 48.1875 33.796875 48.1875 
Q 26.515625 48.1875 22.3125 43.546875 
Q 18.109375 38.921875 18.109375 30.90625 
L 18.109375 0 
L 9.078125 0 
L 9.078125 75.984375 
L 18.109375 75.984375 
L 18.109375 46.1875 
Q 21.34375 51.125 25.703125 53.5625 
Q 30.078125 56 35.796875 56 
Q 45.21875 56 50.046875 50.171875 
Q 54.890625 44.34375 54.890625 33.015625 
z
" id="DejaVuSans-104"/>
     <path d="M 54.890625 33.015625 
L 54.890625 0 
L 45.90625 0 
L 45.90625 32.71875 
Q 45.90625 40.484375 42.875 44.328125 
Q 39.84375 48.1875 33.796875 48.1875 
Q 26.515625 48.1875 22.3125 43.546875 
Q 18.109375 38.921875 18.109375 30.90625 
L 18.109375 0 
L 9.078125 0 
L 9.078125 54.6875 
L 18.109375 54.6875 
L 18.109375 46.1875 
Q 21.34375 51.125 25.703125 53.5625 
Q 30.078125 56 35.796875 56 
Q 45.21875 56 50.046875 50.171875 
Q 54.890625 44.34375 54.890625 33.015625 
z
" id="DejaVuSans-110"/>
     <path d="M 45.40625 27.984375 
Q 45.40625 37.75 41.375 43.109375 
Q 37.359375 48.484375 30.078125 48.484375 
Q 22.859375 48.484375 18.828125 43.109375 
Q 14.796875 37.75 14.796875 27.984375 
Q 14.796875 18.265625 18.828125 12.890625 
Q 22.859375 7.515625 30.078125 7.515625 
Q 37.359375 7.515625 41.375 12.890625 
Q 45.40625 18.265625 45.40625 27.984375 
z
M 54.390625 6.78125 
Q 54.390625 -7.171875 48.1875 -13.984375 
Q 42 -20.796875 29.203125 -20.796875 
Q 24.46875 -20.796875 20.265625 -20.09375 
Q 16.0625 -19.390625 12.109375 -17.921875 
L 12.109375 -9.1875 
Q 16.0625 -11.328125 19.921875 -12.34375 
Q 23.78125 -13.375 27.78125 -13.375 
Q 36.625 -13.375 41.015625 -8.765625 
Q 45.40625 -4.15625 45.40625 5.171875 
L 45.40625 9.625 
Q 42.625 4.78125 38.28125 2.390625 
Q 33.9375 0 27.875 0 
Q 17.828125 0 11.671875 7.65625 
Q 5.515625 15.328125 5.515625 27.984375 
Q 5.515625 40.671875 11.671875 48.328125 
Q 17.828125 56 27.875 56 
Q 33.9375 56 38.28125 53.609375 
Q 42.625 51.21875 45.40625 46.390625 
L 45.40625 54.6875 
L 54.390625 54.6875 
z
" id="DejaVuSans-103"/>
     <path d="M 5.515625 54.6875 
L 48.1875 54.6875 
L 48.1875 46.484375 
L 14.40625 7.171875 
L 48.1875 7.171875 
L 48.1875 0 
L 4.296875 0 
L 4.296875 8.203125 
L 38.09375 47.515625 
L 5.515625 47.515625 
z
" id="DejaVuSans-122"/>
    </defs>
    <g transform="translate(153.110808 375.48)scale(0.12 -0.12)">
     <use xlink:href="#DejaVuSans-104"/>
     <use x="63.378906" xlink:href="#DejaVuSans-111"/>
     <use x="124.560547" xlink:href="#DejaVuSans-110"/>
     <use x="187.939453" xlink:href="#DejaVuSans-103"/>
     <use x="251.416016" xlink:href="#DejaVuSans-103"/>
     <use x="314.892578" xlink:href="#DejaVuSans-102"/>
     <use x="350.097656" xlink:href="#DejaVuSans-117"/>
     <use x="413.476562" xlink:href="#DejaVuSans-122"/>
     <use x="465.966797" xlink:href="#DejaVuSans-122"/>
    </g>
   </g>
  </g>
  <g id="axes_5">
   <g id="patch_22">
    <path d="M 380.59 692.12 
L 700.645991 692.12 
L 700.645991 381.48 
L 380.59 381.48 
z
" style="fill:#ffffff;"/>
   </g>
   <g id="PolyCollection_5">
    <defs>
     <path d="M 380.649171 -238.974 
L 380.649171 176.154 
L 380.668895 -36.587333 
L 380.688618 -63.18 
L 380.80696 -47.177333 
L 380.826684 -49.380827 
L 380.905579 -53.089243 
L 380.925302 -63.175588 
L 380.96475 -69.239456 
L 565.814983 -68.357333 
L 568.576297 -75.340064 
L 569.818888 -76.600833 
L 573.980583 -78.947333 
L 574.76953 -86.670545 
L 584.414404 -89.808289 
L 586.051469 -93.477447 
L 586.307876 -97.564911 
L 586.485389 -102.008413 
L 598.359039 -111.447065 
L 601.554273 -116.836 
L 656.701654 -123.092621 
L 656.701654 -137.407379 
L 656.701654 -137.407379 
L 601.554273 -136.604 
L 598.359039 -134.932935 
L 586.485389 -137.311587 
L 586.307876 -134.695089 
L 586.051469 -131.722553 
L 584.414404 -128.331711 
L 574.76953 -124.409455 
L 573.980583 -125.072667 
L 569.818888 -120.359167 
L 568.576297 -114.559936 
L 565.814983 -114.482667 
L 380.96475 -106.540544 
L 380.925302 -105.544412 
L 380.905579 -101.510757 
L 380.826684 -98.159173 
L 380.80696 -93.302667 
L 380.688618 -63.18 
L 380.668895 -82.712667 
L 380.649171 -238.974 
z
" id="m7745754455" style="stroke:#0000ff;stroke-opacity:0.1;"/>
    </defs>
    <g clip-path="url(#p8d1663f1a8)">
     <use style="fill:#0000ff;fill-opacity:0.1;stroke:#0000ff;stroke-opacity:0.1;" x="0" xlink:href="#m7745754455" y="720"/>
    </g>
   </g>
   <g id="matplotlib.axis_9">
    <g id="xtick_33">
     <g id="line2d_73">
      <g>
       <use style="stroke:#000000;stroke-width:0.8;" x="419.780932" xlink:href="#m2668267cbc" y="692.12"/>
      </g>
     </g>
     <g id="text_73">
      <!-- 10000 -->
      <g transform="translate(403.874682 706.718438)scale(0.1 -0.1)">
       <use xlink:href="#DejaVuSans-49"/>
       <use x="63.623047" xlink:href="#DejaVuSans-48"/>
       <use x="127.246094" xlink:href="#DejaVuSans-48"/>
       <use x="190.869141" xlink:href="#DejaVuSans-48"/>
       <use x="254.492188" xlink:href="#DejaVuSans-48"/>
      </g>
     </g>
    </g>
    <g id="xtick_34">
     <g id="line2d_74">
      <g>
       <use style="stroke:#000000;stroke-width:0.8;" x="459.228272" xlink:href="#m2668267cbc" y="692.12"/>
      </g>
     </g>
     <g id="text_74">
      <!-- 20000 -->
      <g transform="translate(443.322022 706.718438)scale(0.1 -0.1)">
       <use xlink:href="#DejaVuSans-50"/>
       <use x="63.623047" xlink:href="#DejaVuSans-48"/>
       <use x="127.246094" xlink:href="#DejaVuSans-48"/>
       <use x="190.869141" xlink:href="#DejaVuSans-48"/>
       <use x="254.492188" xlink:href="#DejaVuSans-48"/>
      </g>
     </g>
    </g>
    <g id="xtick_35">
     <g id="line2d_75">
      <g>
       <use style="stroke:#000000;stroke-width:0.8;" x="498.675611" xlink:href="#m2668267cbc" y="692.12"/>
      </g>
     </g>
     <g id="text_75">
      <!-- 30000 -->
      <g transform="translate(482.769361 706.718438)scale(0.1 -0.1)">
       <use xlink:href="#DejaVuSans-51"/>
       <use x="63.623047" xlink:href="#DejaVuSans-48"/>
       <use x="127.246094" xlink:href="#DejaVuSans-48"/>
       <use x="190.869141" xlink:href="#DejaVuSans-48"/>
       <use x="254.492188" xlink:href="#DejaVuSans-48"/>
      </g>
     </g>
    </g>
    <g id="xtick_36">
     <g id="line2d_76">
      <g>
       <use style="stroke:#000000;stroke-width:0.8;" x="538.122951" xlink:href="#m2668267cbc" y="692.12"/>
      </g>
     </g>
     <g id="text_76">
      <!-- 40000 -->
      <g transform="translate(522.216701 706.718438)scale(0.1 -0.1)">
       <use xlink:href="#DejaVuSans-52"/>
       <use x="63.623047" xlink:href="#DejaVuSans-48"/>
       <use x="127.246094" xlink:href="#DejaVuSans-48"/>
       <use x="190.869141" xlink:href="#DejaVuSans-48"/>
       <use x="254.492188" xlink:href="#DejaVuSans-48"/>
      </g>
     </g>
    </g>
    <g id="xtick_37">
     <g id="line2d_77">
      <g>
       <use style="stroke:#000000;stroke-width:0.8;" x="577.570291" xlink:href="#m2668267cbc" y="692.12"/>
      </g>
     </g>
     <g id="text_77">
      <!-- 50000 -->
      <g transform="translate(561.664041 706.718438)scale(0.1 -0.1)">
       <use xlink:href="#DejaVuSans-53"/>
       <use x="63.623047" xlink:href="#DejaVuSans-48"/>
       <use x="127.246094" xlink:href="#DejaVuSans-48"/>
       <use x="190.869141" xlink:href="#DejaVuSans-48"/>
       <use x="254.492188" xlink:href="#DejaVuSans-48"/>
      </g>
     </g>
    </g>
    <g id="xtick_38">
     <g id="line2d_78">
      <g>
       <use style="stroke:#000000;stroke-width:0.8;" x="617.01763" xlink:href="#m2668267cbc" y="692.12"/>
      </g>
     </g>
     <g id="text_78">
      <!-- 60000 -->
      <g transform="translate(601.11138 706.718438)scale(0.1 -0.1)">
       <use xlink:href="#DejaVuSans-54"/>
       <use x="63.623047" xlink:href="#DejaVuSans-48"/>
       <use x="127.246094" xlink:href="#DejaVuSans-48"/>
       <use x="190.869141" xlink:href="#DejaVuSans-48"/>
       <use x="254.492188" xlink:href="#DejaVuSans-48"/>
      </g>
     </g>
    </g>
    <g id="xtick_39">
     <g id="line2d_79">
      <g>
       <use style="stroke:#000000;stroke-width:0.8;" x="656.46497" xlink:href="#m2668267cbc" y="692.12"/>
      </g>
     </g>
     <g id="text_79">
      <!-- 70000 -->
      <g transform="translate(640.55872 706.718438)scale(0.1 -0.1)">
       <use xlink:href="#DejaVuSans-55"/>
       <use x="63.623047" xlink:href="#DejaVuSans-48"/>
       <use x="127.246094" xlink:href="#DejaVuSans-48"/>
       <use x="190.869141" xlink:href="#DejaVuSans-48"/>
       <use x="254.492188" xlink:href="#DejaVuSans-48"/>
      </g>
     </g>
    </g>
    <g id="xtick_40">
     <g id="line2d_80">
      <g>
       <use style="stroke:#000000;stroke-width:0.8;" x="695.91231" xlink:href="#m2668267cbc" y="692.12"/>
      </g>
     </g>
     <g id="text_80">
      <!-- 80000 -->
      <g transform="translate(680.00606 706.718438)scale(0.1 -0.1)">
       <use xlink:href="#DejaVuSans-56"/>
       <use x="63.623047" xlink:href="#DejaVuSans-48"/>
       <use x="127.246094" xlink:href="#DejaVuSans-48"/>
       <use x="190.869141" xlink:href="#DejaVuSans-48"/>
       <use x="254.492188" xlink:href="#DejaVuSans-48"/>
      </g>
     </g>
    </g>
   </g>
   <g id="matplotlib.axis_10">
    <g id="ytick_37">
     <g id="line2d_81">
      <g>
       <use style="stroke:#000000;stroke-width:0.8;" x="380.59" xlink:href="#m0aa0730cf5" y="692.12"/>
      </g>
     </g>
     <g id="text_81">
      <!-- 0 -->
      <g transform="translate(367.2275 695.919219)scale(0.1 -0.1)">
       <use xlink:href="#DejaVuSans-48"/>
      </g>
     </g>
    </g>
    <g id="ytick_38">
     <g id="line2d_82">
      <g>
       <use style="stroke:#000000;stroke-width:0.8;" x="380.59" xlink:href="#m0aa0730cf5" y="656.82"/>
      </g>
     </g>
     <g id="text_82">
      <!-- 1 -->
      <g transform="translate(367.2275 660.619219)scale(0.1 -0.1)">
       <use xlink:href="#DejaVuSans-49"/>
      </g>
     </g>
    </g>
    <g id="ytick_39">
     <g id="line2d_83">
      <g>
       <use style="stroke:#000000;stroke-width:0.8;" x="380.59" xlink:href="#m0aa0730cf5" y="621.52"/>
      </g>
     </g>
     <g id="text_83">
      <!-- 2 -->
      <g transform="translate(367.2275 625.319219)scale(0.1 -0.1)">
       <use xlink:href="#DejaVuSans-50"/>
      </g>
     </g>
    </g>
    <g id="ytick_40">
     <g id="line2d_84">
      <g>
       <use style="stroke:#000000;stroke-width:0.8;" x="380.59" xlink:href="#m0aa0730cf5" y="586.22"/>
      </g>
     </g>
     <g id="text_84">
      <!-- 3 -->
      <g transform="translate(367.2275 590.019219)scale(0.1 -0.1)">
       <use xlink:href="#DejaVuSans-51"/>
      </g>
     </g>
    </g>
    <g id="ytick_41">
     <g id="line2d_85">
      <g>
       <use style="stroke:#000000;stroke-width:0.8;" x="380.59" xlink:href="#m0aa0730cf5" y="550.92"/>
      </g>
     </g>
     <g id="text_85">
      <!-- 4 -->
      <g transform="translate(367.2275 554.719219)scale(0.1 -0.1)">
       <use xlink:href="#DejaVuSans-52"/>
      </g>
     </g>
    </g>
    <g id="ytick_42">
     <g id="line2d_86">
      <g>
       <use style="stroke:#000000;stroke-width:0.8;" x="380.59" xlink:href="#m0aa0730cf5" y="515.62"/>
      </g>
     </g>
     <g id="text_86">
      <!-- 5 -->
      <g transform="translate(367.2275 519.419219)scale(0.1 -0.1)">
       <use xlink:href="#DejaVuSans-53"/>
      </g>
     </g>
    </g>
    <g id="ytick_43">
     <g id="line2d_87">
      <g>
       <use style="stroke:#000000;stroke-width:0.8;" x="380.59" xlink:href="#m0aa0730cf5" y="480.32"/>
      </g>
     </g>
     <g id="text_87">
      <!-- 6 -->
      <g transform="translate(367.2275 484.119219)scale(0.1 -0.1)">
       <use xlink:href="#DejaVuSans-54"/>
      </g>
     </g>
    </g>
    <g id="ytick_44">
     <g id="line2d_88">
      <g>
       <use style="stroke:#000000;stroke-width:0.8;" x="380.59" xlink:href="#m0aa0730cf5" y="445.02"/>
      </g>
     </g>
     <g id="text_88">
      <!-- 7 -->
      <g transform="translate(367.2275 448.819219)scale(0.1 -0.1)">
       <use xlink:href="#DejaVuSans-55"/>
      </g>
     </g>
    </g>
    <g id="ytick_45">
     <g id="line2d_89">
      <g>
       <use style="stroke:#000000;stroke-width:0.8;" x="380.59" xlink:href="#m0aa0730cf5" y="409.72"/>
      </g>
     </g>
     <g id="text_89">
      <!-- 8 -->
      <g transform="translate(367.2275 413.519219)scale(0.1 -0.1)">
       <use xlink:href="#DejaVuSans-56"/>
      </g>
     </g>
    </g>
   </g>
   <g id="line2d_90">
    <path clip-path="url(#p8d1663f1a8)" d="M 380.649171 688.59 
L 380.649171 660.35 
L 380.668895 660.35 
L 380.668895 656.82 
L 380.688618 656.82 
L 380.688618 649.76 
L 380.80696 649.76 
L 380.80696 646.23 
L 380.826684 646.23 
L 380.826684 642.7 
L 380.905579 642.7 
L 380.905579 635.64 
L 380.925302 635.64 
L 380.925302 632.11 
L 380.96475 632.11 
L 380.96475 628.58 
L 565.814983 628.58 
L 565.814983 625.05 
L 568.576297 625.05 
L 568.576297 621.52 
L 569.818888 621.52 
L 569.818888 617.99 
L 573.980583 617.99 
L 573.980583 614.46 
L 574.76953 614.46 
L 574.76953 610.93 
L 584.414404 610.93 
L 584.414404 607.4 
L 586.051469 607.4 
L 586.051469 603.87 
L 586.307876 603.87 
L 586.307876 600.34 
L 586.485389 600.34 
L 586.485389 596.81 
L 598.359039 596.81 
L 598.359039 593.28 
L 601.554273 593.28 
L 601.554273 589.75 
L 656.701654 589.75 
" style="fill:none;stroke:#1f77b4;stroke-linecap:square;stroke-width:1.5;"/>
   </g>
   <g id="patch_23">
    <path d="M 380.59 692.12 
L 380.59 381.48 
" style="fill:none;stroke:#000000;stroke-linecap:square;stroke-linejoin:miter;stroke-width:0.8;"/>
   </g>
   <g id="patch_24">
    <path d="M 700.645991 692.12 
L 700.645991 381.48 
" style="fill:none;stroke:#000000;stroke-linecap:square;stroke-linejoin:miter;stroke-width:0.8;"/>
   </g>
   <g id="patch_25">
    <path d="M 380.59 692.12 
L 700.645991 692.12 
" style="fill:none;stroke:#000000;stroke-linecap:square;stroke-linejoin:miter;stroke-width:0.8;"/>
   </g>
   <g id="patch_26">
    <path d="M 380.59 381.48 
L 700.645991 381.48 
" style="fill:none;stroke:#000000;stroke-linecap:square;stroke-linejoin:miter;stroke-width:0.8;"/>
   </g>
   <g id="text_90">
    <!-- fairfuzz -->
    <defs>
     <path d="M 9.421875 54.6875 
L 18.40625 54.6875 
L 18.40625 0 
L 9.421875 0 
z
M 9.421875 75.984375 
L 18.40625 75.984375 
L 18.40625 64.59375 
L 9.421875 64.59375 
z
" id="DejaVuSans-105"/>
     <path d="M 41.109375 46.296875 
Q 39.59375 47.171875 37.8125 47.578125 
Q 36.03125 48 33.890625 48 
Q 26.265625 48 22.1875 43.046875 
Q 18.109375 38.09375 18.109375 28.8125 
L 18.109375 0 
L 9.078125 0 
L 9.078125 54.6875 
L 18.109375 54.6875 
L 18.109375 46.1875 
Q 20.953125 51.171875 25.484375 53.578125 
Q 30.03125 56 36.53125 56 
Q 37.453125 56 38.578125 55.875 
Q 39.703125 55.765625 41.0625 55.515625 
z
" id="DejaVuSans-114"/>
    </defs>
    <g transform="translate(518.482683 375.48)scale(0.12 -0.12)">
     <use xlink:href="#DejaVuSans-102"/>
     <use x="35.205078" xlink:href="#DejaVuSans-97"/>
     <use x="96.484375" xlink:href="#DejaVuSans-105"/>
     <use x="124.267578" xlink:href="#DejaVuSans-114"/>
     <use x="165.380859" xlink:href="#DejaVuSans-102"/>
     <use x="200.585938" xlink:href="#DejaVuSans-117"/>
     <use x="263.964844" xlink:href="#DejaVuSans-122"/>
     <use x="316.455078" xlink:href="#DejaVuSans-122"/>
    </g>
   </g>
  </g>
  <g id="axes_6">
   <g id="patch_27">
    <path d="M 736.99 692.12 
L 1057.045991 692.12 
L 1057.045991 381.48 
L 736.99 381.48 
z
" style="fill:#ffffff;"/>
   </g>
   <g id="PolyCollection_6">
    <defs>
     <path d="M 737.128066 -144.156416 
L 737.128066 67.216416 
L 737.20696 10.69848 
L 737.226684 -49.380827 
L 737.561986 -76.044889 
L 787.088121 -84.025579 
L 794.326708 -98.48 
L 965.685952 -92.960364 
L 965.824017 -98.477059 
L 971.85946 -102.2924 
L 972.155316 -106.623439 
L 972.293381 -116.836 
L 1002.293083 -133.78 
L 1002.293083 -133.78 
L 1002.293083 -133.78 
L 972.293381 -136.604 
L 972.155316 -132.696561 
L 971.85946 -129.9676 
L 965.824017 -126.722941 
L 965.685952 -118.119636 
L 794.326708 -98.48 
L 787.088121 -105.874421 
L 737.561986 -106.795111 
L 737.226684 -98.159173 
L 737.20696 -115.87848 
L 737.128066 -144.156416 
z
" id="mabbb596344" style="stroke:#0000ff;stroke-opacity:0.1;"/>
    </defs>
    <g clip-path="url(#p355dc1bc21)">
     <use style="fill:#0000ff;fill-opacity:0.1;stroke:#0000ff;stroke-opacity:0.1;" x="0" xlink:href="#mabbb596344" y="720"/>
    </g>
   </g>
   <g id="matplotlib.axis_11">
    <g id="xtick_41">
     <g id="line2d_91">
      <g>
       <use style="stroke:#000000;stroke-width:0.8;" x="776.180932" xlink:href="#m2668267cbc" y="692.12"/>
      </g>
     </g>
     <g id="text_91">
      <!-- 10000 -->
      <g transform="translate(760.274682 706.718438)scale(0.1 -0.1)">
       <use xlink:href="#DejaVuSans-49"/>
       <use x="63.623047" xlink:href="#DejaVuSans-48"/>
       <use x="127.246094" xlink:href="#DejaVuSans-48"/>
       <use x="190.869141" xlink:href="#DejaVuSans-48"/>
       <use x="254.492188" xlink:href="#DejaVuSans-48"/>
      </g>
     </g>
    </g>
    <g id="xtick_42">
     <g id="line2d_92">
      <g>
       <use style="stroke:#000000;stroke-width:0.8;" x="815.628272" xlink:href="#m2668267cbc" y="692.12"/>
      </g>
     </g>
     <g id="text_92">
      <!-- 20000 -->
      <g transform="translate(799.722022 706.718438)scale(0.1 -0.1)">
       <use xlink:href="#DejaVuSans-50"/>
       <use x="63.623047" xlink:href="#DejaVuSans-48"/>
       <use x="127.246094" xlink:href="#DejaVuSans-48"/>
       <use x="190.869141" xlink:href="#DejaVuSans-48"/>
       <use x="254.492188" xlink:href="#DejaVuSans-48"/>
      </g>
     </g>
    </g>
    <g id="xtick_43">
     <g id="line2d_93">
      <g>
       <use style="stroke:#000000;stroke-width:0.8;" x="855.075611" xlink:href="#m2668267cbc" y="692.12"/>
      </g>
     </g>
     <g id="text_93">
      <!-- 30000 -->
      <g transform="translate(839.169361 706.718438)scale(0.1 -0.1)">
       <use xlink:href="#DejaVuSans-51"/>
       <use x="63.623047" xlink:href="#DejaVuSans-48"/>
       <use x="127.246094" xlink:href="#DejaVuSans-48"/>
       <use x="190.869141" xlink:href="#DejaVuSans-48"/>
       <use x="254.492188" xlink:href="#DejaVuSans-48"/>
      </g>
     </g>
    </g>
    <g id="xtick_44">
     <g id="line2d_94">
      <g>
       <use style="stroke:#000000;stroke-width:0.8;" x="894.522951" xlink:href="#m2668267cbc" y="692.12"/>
      </g>
     </g>
     <g id="text_94">
      <!-- 40000 -->
      <g transform="translate(878.616701 706.718438)scale(0.1 -0.1)">
       <use xlink:href="#DejaVuSans-52"/>
       <use x="63.623047" xlink:href="#DejaVuSans-48"/>
       <use x="127.246094" xlink:href="#DejaVuSans-48"/>
       <use x="190.869141" xlink:href="#DejaVuSans-48"/>
       <use x="254.492188" xlink:href="#DejaVuSans-48"/>
      </g>
     </g>
    </g>
    <g id="xtick_45">
     <g id="line2d_95">
      <g>
       <use style="stroke:#000000;stroke-width:0.8;" x="933.970291" xlink:href="#m2668267cbc" y="692.12"/>
      </g>
     </g>
     <g id="text_95">
      <!-- 50000 -->
      <g transform="translate(918.064041 706.718438)scale(0.1 -0.1)">
       <use xlink:href="#DejaVuSans-53"/>
       <use x="63.623047" xlink:href="#DejaVuSans-48"/>
       <use x="127.246094" xlink:href="#DejaVuSans-48"/>
       <use x="190.869141" xlink:href="#DejaVuSans-48"/>
       <use x="254.492188" xlink:href="#DejaVuSans-48"/>
      </g>
     </g>
    </g>
    <g id="xtick_46">
     <g id="line2d_96">
      <g>
       <use style="stroke:#000000;stroke-width:0.8;" x="973.41763" xlink:href="#m2668267cbc" y="692.12"/>
      </g>
     </g>
     <g id="text_96">
      <!-- 60000 -->
      <g transform="translate(957.51138 706.718438)scale(0.1 -0.1)">
       <use xlink:href="#DejaVuSans-54"/>
       <use x="63.623047" xlink:href="#DejaVuSans-48"/>
       <use x="127.246094" xlink:href="#DejaVuSans-48"/>
       <use x="190.869141" xlink:href="#DejaVuSans-48"/>
       <use x="254.492188" xlink:href="#DejaVuSans-48"/>
      </g>
     </g>
    </g>
    <g id="xtick_47">
     <g id="line2d_97">
      <g>
       <use style="stroke:#000000;stroke-width:0.8;" x="1012.86497" xlink:href="#m2668267cbc" y="692.12"/>
      </g>
     </g>
     <g id="text_97">
      <!-- 70000 -->
      <g transform="translate(996.95872 706.718438)scale(0.1 -0.1)">
       <use xlink:href="#DejaVuSans-55"/>
       <use x="63.623047" xlink:href="#DejaVuSans-48"/>
       <use x="127.246094" xlink:href="#DejaVuSans-48"/>
       <use x="190.869141" xlink:href="#DejaVuSans-48"/>
       <use x="254.492188" xlink:href="#DejaVuSans-48"/>
      </g>
     </g>
    </g>
    <g id="xtick_48">
     <g id="line2d_98">
      <g>
       <use style="stroke:#000000;stroke-width:0.8;" x="1052.31231" xlink:href="#m2668267cbc" y="692.12"/>
      </g>
     </g>
     <g id="text_98">
      <!-- 80000 -->
      <g transform="translate(1036.40606 706.718438)scale(0.1 -0.1)">
       <use xlink:href="#DejaVuSans-56"/>
       <use x="63.623047" xlink:href="#DejaVuSans-48"/>
       <use x="127.246094" xlink:href="#DejaVuSans-48"/>
       <use x="190.869141" xlink:href="#DejaVuSans-48"/>
       <use x="254.492188" xlink:href="#DejaVuSans-48"/>
      </g>
     </g>
    </g>
   </g>
   <g id="matplotlib.axis_12">
    <g id="ytick_46">
     <g id="line2d_99">
      <g>
       <use style="stroke:#000000;stroke-width:0.8;" x="736.99" xlink:href="#m0aa0730cf5" y="692.12"/>
      </g>
     </g>
     <g id="text_99">
      <!-- 0 -->
      <g transform="translate(723.6275 695.919219)scale(0.1 -0.1)">
       <use xlink:href="#DejaVuSans-48"/>
      </g>
     </g>
    </g>
    <g id="ytick_47">
     <g id="line2d_100">
      <g>
       <use style="stroke:#000000;stroke-width:0.8;" x="736.99" xlink:href="#m0aa0730cf5" y="656.82"/>
      </g>
     </g>
     <g id="text_100">
      <!-- 1 -->
      <g transform="translate(723.6275 660.619219)scale(0.1 -0.1)">
       <use xlink:href="#DejaVuSans-49"/>
      </g>
     </g>
    </g>
    <g id="ytick_48">
     <g id="line2d_101">
      <g>
       <use style="stroke:#000000;stroke-width:0.8;" x="736.99" xlink:href="#m0aa0730cf5" y="621.52"/>
      </g>
     </g>
     <g id="text_101">
      <!-- 2 -->
      <g transform="translate(723.6275 625.319219)scale(0.1 -0.1)">
       <use xlink:href="#DejaVuSans-50"/>
      </g>
     </g>
    </g>
    <g id="ytick_49">
     <g id="line2d_102">
      <g>
       <use style="stroke:#000000;stroke-width:0.8;" x="736.99" xlink:href="#m0aa0730cf5" y="586.22"/>
      </g>
     </g>
     <g id="text_102">
      <!-- 3 -->
      <g transform="translate(723.6275 590.019219)scale(0.1 -0.1)">
       <use xlink:href="#DejaVuSans-51"/>
      </g>
     </g>
    </g>
    <g id="ytick_50">
     <g id="line2d_103">
      <g>
       <use style="stroke:#000000;stroke-width:0.8;" x="736.99" xlink:href="#m0aa0730cf5" y="550.92"/>
      </g>
     </g>
     <g id="text_103">
      <!-- 4 -->
      <g transform="translate(723.6275 554.719219)scale(0.1 -0.1)">
       <use xlink:href="#DejaVuSans-52"/>
      </g>
     </g>
    </g>
    <g id="ytick_51">
     <g id="line2d_104">
      <g>
       <use style="stroke:#000000;stroke-width:0.8;" x="736.99" xlink:href="#m0aa0730cf5" y="515.62"/>
      </g>
     </g>
     <g id="text_104">
      <!-- 5 -->
      <g transform="translate(723.6275 519.419219)scale(0.1 -0.1)">
       <use xlink:href="#DejaVuSans-53"/>
      </g>
     </g>
    </g>
    <g id="ytick_52">
     <g id="line2d_105">
      <g>
       <use style="stroke:#000000;stroke-width:0.8;" x="736.99" xlink:href="#m0aa0730cf5" y="480.32"/>
      </g>
     </g>
     <g id="text_105">
      <!-- 6 -->
      <g transform="translate(723.6275 484.119219)scale(0.1 -0.1)">
       <use xlink:href="#DejaVuSans-54"/>
      </g>
     </g>
    </g>
    <g id="ytick_53">
     <g id="line2d_106">
      <g>
       <use style="stroke:#000000;stroke-width:0.8;" x="736.99" xlink:href="#m0aa0730cf5" y="445.02"/>
      </g>
     </g>
     <g id="text_106">
      <!-- 7 -->
      <g transform="translate(723.6275 448.819219)scale(0.1 -0.1)">
       <use xlink:href="#DejaVuSans-55"/>
      </g>
     </g>
    </g>
    <g id="ytick_54">
     <g id="line2d_107">
      <g>
       <use style="stroke:#000000;stroke-width:0.8;" x="736.99" xlink:href="#m0aa0730cf5" y="409.72"/>
      </g>
     </g>
     <g id="text_107">
      <!-- 8 -->
      <g transform="translate(723.6275 413.519219)scale(0.1 -0.1)">
       <use xlink:href="#DejaVuSans-56"/>
      </g>
     </g>
    </g>
   </g>
   <g id="line2d_108">
    <path clip-path="url(#p355dc1bc21)" d="M 737.128066 681.53 
L 737.128066 667.41 
L 737.20696 667.41 
L 737.20696 646.23 
L 737.226684 646.23 
L 737.226684 628.58 
L 737.561986 628.58 
L 737.561986 625.05 
L 787.088121 625.05 
L 787.088121 621.52 
L 794.326708 621.52 
L 794.326708 614.46 
L 965.685952 614.46 
L 965.685952 607.4 
L 965.824017 607.4 
L 965.824017 603.87 
L 971.85946 603.87 
L 971.85946 600.34 
L 972.155316 600.34 
L 972.155316 593.28 
L 972.293381 593.28 
L 972.293381 586.22 
L 1002.293083 586.22 
" style="fill:none;stroke:#1f77b4;stroke-linecap:square;stroke-width:1.5;"/>
   </g>
   <g id="patch_28">
    <path d="M 736.99 692.12 
L 736.99 381.48 
" style="fill:none;stroke:#000000;stroke-linecap:square;stroke-linejoin:miter;stroke-width:0.8;"/>
   </g>
   <g id="patch_29">
    <path d="M 1057.045991 692.12 
L 1057.045991 381.48 
" style="fill:none;stroke:#000000;stroke-linecap:square;stroke-linejoin:miter;stroke-width:0.8;"/>
   </g>
   <g id="patch_30">
    <path d="M 736.99 692.12 
L 1057.045991 692.12 
" style="fill:none;stroke:#000000;stroke-linecap:square;stroke-linejoin:miter;stroke-width:0.8;"/>
   </g>
   <g id="patch_31">
    <path d="M 736.99 381.48 
L 1057.045991 381.48 
" style="fill:none;stroke:#000000;stroke-linecap:square;stroke-linejoin:miter;stroke-width:0.8;"/>
   </g>
   <g id="text_108">
    <!-- afl -->
    <g transform="translate(889.562058 375.48)scale(0.12 -0.12)">
     <use xlink:href="#DejaVuSans-97"/>
     <use x="61.279297" xlink:href="#DejaVuSans-102"/>
     <use x="96.484375" xlink:href="#DejaVuSans-108"/>
    </g>
   </g>
  </g>
 </g>
 <defs>
  <clipPath id="pc81aa672ee">
   <rect height="310.64" width="320.055991" x="24.19" y="26.88"/>
  </clipPath>
  <clipPath id="p3ed777aac9">
   <rect height="310.64" width="320.055991" x="380.59" y="26.88"/>
  </clipPath>
  <clipPath id="pe73937ce75">
   <rect height="310.64" width="320.055991" x="736.99" y="26.88"/>
  </clipPath>
  <clipPath id="p3776a7fe25">
   <rect height="310.64" width="320.055991" x="24.19" y="381.48"/>
  </clipPath>
  <clipPath id="p8d1663f1a8">
   <rect height="310.64" width="320.055991" x="380.59" y="381.48"/>
  </clipPath>
  <clipPath id="p355dc1bc21">
   <rect height="310.64" width="320.055991" x="736.99" y="381.48"/>
  </clipPath>
 </defs>
</svg>
