<?xml version="1.0" encoding="UTF-8" standalone="no"?>
<svg
   xmlns:dc="http://purl.org/dc/elements/1.1/"
   xmlns:cc="http://creativecommons.org/ns#"
   xmlns:rdf="http://www.w3.org/1999/02/22-rdf-syntax-ns#"
   xmlns:svg="http://www.w3.org/2000/svg"
   xmlns="http://www.w3.org/2000/svg"
   viewBox="0 0 2864.7732 716.26666"
   height="716.26666"
   width="2864.7732"
   xml:space="preserve"
   id="svg2"
   version="1.1"><metadata
     id="metadata8"><rdf:RDF><cc:Work
         rdf:about=""><dc:format>image/svg+xml</dc:format><dc:type
           rdf:resource="http://purl.org/dc/dcmitype/StillImage" /></cc:Work></rdf:RDF></metadata><defs
     id="defs6" /><g
     transform="matrix(1.3333333,0,0,-1.3333333,0,716.26667)"
     id="g10"><g
       transform="scale(0.1)"
       id="g12"><path
         id="path14"
         style="fill:#74c82c;fill-opacity:1;fill-rule:nonzero;stroke:none"
         d="m 8275.19,1015.36 c 0,-55.001 -45,-100.001 -100,-100.001 H 8037 c -55,0 -100,45 -100,100.001 v 1045.85 c 0,55 -4.8,144.75 -10.66,199.43 0,0 -17.52,163.25 -73.89,237.79 -56.37,74.49 -137.02,111.75 -241.97,111.75 -45.37,0 -87.8,-6.17 -127.32,-18.46 -39.53,-12.34 -80.65,-33.71 -123.41,-64.14 -42.76,-30.46 -89.41,-71.61 -139.94,-123.42 -50.53,-51.84 -108.84,-116.61 -174.93,-194.36 V 1015.36 c 0,-55.001 -45,-100.001 -100,-100.001 H 6806.7 c -55,0 -100,45 -100,100.001 v 2546.31 c 0,55 45,100 100,100 h 138.18 c 55,0 100,-45 100,-100 v -594.93 c 0,-55 -1.71,-144.97 -3.8,-199.93 l -4.06,-107.23 c -2.09,-54.96 26.31,-66.49 63.11,-25.62 0,0 38.36,42.61 89.56,86.04 51.17,43.39 102.34,78.71 153.54,105.92 51.17,27.21 103.31,46.65 156.46,58.31 53.11,11.66 108.17,17.49 165.2,17.49 194.37,0 344.66,-59.28 450.92,-177.83 106.23,-118.57 159.38,-297.08 159.38,-535.47 V 1015.36" /><path
         id="path16"
         style="fill:#74c82c;fill-opacity:1;fill-rule:nonzero;stroke:none"
         d="m 10091.6,2042.64 c 55,0 98.8,44.99 97.2,99.97 0,0 -1.8,66.22 -22.5,138.13 -20.7,71.91 -52.8,133.78 -96.2,185.62 -43.4,51.8 -97.51,92.32 -162.29,121.47 -64.8,29.15 -139.94,43.73 -225.46,43.73 -73.85,0 -141.24,-14.28 -202.14,-42.76 -60.91,-28.52 -113.38,-68.69 -157.43,-120.5 -44.06,-51.84 -79.68,-114.03 -106.89,-186.58 -27.21,-72.59 -44.06,-152.28 -50.54,-239.08 z m 451.8,-48.58 c 0,-47.95 -0.7,-88.13 -2,-120.51 -1.3,-32.4 -3.2,-62.86 -5.8,-91.34 H 9265.35 c -55,0 -92.98,-44.46 -84.4,-98.78 0,0 40.1,-253.99 151.56,-360.88 111.42,-106.91 272.1,-160.35 482.01,-160.35 57,0 114.01,2.24 171.04,6.8 57.04,4.52 112.04,10.69 165.24,18.46 53.1,7.78 103.9,16.52 152.5,26.24 48.6,9.72 93.6,20.41 135.1,32.07 v -177.93 c 0,-55 -43.7,-110.488 -97.2,-123.309 0,0 -98.8,-23.672 -214.7,-39.859 -116,-16.192 -236.18,-24.293 -360.57,-24.293 -167.15,0 -310.98,22.684 -431.48,68.023 -120.5,45.34 -219.32,111.088 -296.4,197.268 -77.1,86.16 -134.1,191.76 -171.04,316.82 -36.92,125.02 -55.39,266.57 -55.39,424.67 0,137.33 19.74,267.24 59.28,389.69 39.51,122.46 97.18,229.98 172.98,322.64 75.8,92.63 168.76,166.18 278.9,220.6 110.12,54.42 235.18,81.63 375.12,81.63 136.06,0 256.56,-21.38 361.5,-64.14 105,-42.76 193.4,-103.34 265.3,-181.72 71.9,-78.42 126.3,-173.65 163.3,-285.72 36.9,-112.08 55.4,-237.45 55.4,-376.08" /><path
         id="path18"
         style="fill:#74c82c;fill-opacity:1;fill-rule:nonzero;stroke:none"
         d="m 12780.9,993.98 c 33.9,-43.238 16.8,-78.621 -38.2,-78.621 h -249 c -55,0 -126,36.743 -157.8,81.633 l -411.2,581.138 c -31.7,44.9 -83.5,44.76 -115.1,-0.3 l -406.2,-580.541 c -31.5,-45.059 -102.3,-81.93 -157.3,-81.93 h -237.3 c -55,0 -72.5,35.621 -38.9,79.161 l 633.8,821.26 c 33.6,43.53 34.3,115.3 1.5,159.46 l -601.9,811.19 c -32.7,44.17 -14.5,80.31 40.5,80.31 h 233.4 c 55,0 125.4,-37.15 156.4,-82.54 l 400.2,-585.16 c 31.1,-45.39 81.6,-45.17 112.2,0.5 l 392,584.16 c 30.6,45.67 100.7,83.04 155.7,83.04 h 217.9 c 55,0 73,-36.04 40.1,-80.08 l -613,-819.43 c -32.9,-44.04 -32.1,-115.45 1.9,-158.7 l 640.3,-814.55" /><path
         id="path20"
         style="fill:#3a3a3c;fill-opacity:1;fill-rule:nonzero;stroke:none"
         d="m 14840.7,1015.36 c 0,-55.001 -45,-100.001 -100,-100.001 h -138.2 c -55,0 -100,45 -100,100.001 v 1045.85 c 0,55 -4.8,144.75 -10.7,199.43 0,0 -17.5,163.25 -73.9,237.79 -56.3,74.49 -137,111.75 -241.9,111.75 -45.4,0 -87.8,-6.17 -127.3,-18.46 -39.6,-12.34 -80.7,-33.71 -123.5,-64.14 -42.7,-30.46 -89.4,-71.61 -139.9,-123.42 -50.5,-51.84 -108.8,-116.61 -174.9,-194.36 V 1015.36 c 0,-55.001 -45,-100.001 -100,-100.001 h -138.2 c -55,0 -100,45 -100,100.001 v 2546.31 c 0,55 45,100 100,100 h 138.2 c 55,0 100,-45 100,-100 v -594.93 c 0,-55 -1.7,-144.97 -3.8,-199.93 l -4.1,-107.23 c -2.1,-54.96 26.3,-66.49 63.1,-25.62 0,0 38.4,42.61 89.6,86.04 51.1,43.39 102.3,78.71 153.5,105.92 51.2,27.21 103.3,46.65 156.5,58.31 53.1,11.66 108.1,17.49 165.2,17.49 194.3,0 344.6,-59.28 450.9,-177.83 106.2,-118.57 159.4,-297.08 159.4,-535.47 V 1015.36" /><g
         transform="scale(1.04593)"
         id="g22"><path
           id="path24"
           style="fill:#3a3a3c;fill-opacity:1;fill-rule:nonzero;stroke:none"
           d="m 15530.7,3523.18 c 35.9,0 69.3,-6.5 100.3,-19.5 31,-13.01 58,-31.3 80.9,-54.82 22.9,-23.55 40.8,-50.49 53.8,-80.84 13,-30.37 19.5,-63.5 19.5,-99.42 0,-34.69 -6.5,-67.53 -19.5,-98.48 -13,-30.99 -30.9,-58.25 -53.8,-81.77 -22.9,-23.54 -49.9,-41.81 -80.9,-54.82 -31,-13 -64.4,-19.51 -100.3,-19.51 -35.9,0 -69.4,6.51 -100.4,19.51 -30.9,13.01 -57.9,31.28 -80.8,54.82 -22.9,23.52 -40.9,50.78 -53.9,81.77 -13,30.95 -19.5,63.79 -19.5,98.48 0,35.92 6.5,69.05 19.5,99.42 13,30.35 31,57.29 53.9,80.84 22.9,23.52 49.9,41.81 80.8,54.82 31,13 64.5,19.5 100.4,19.5 z m -113.4,-1145.53 c 0,52.59 -43,95.61 -95.6,95.61 H 14961 c -52.6,0 -95.6,43.03 -95.6,95.61 v 76.39 c 0,52.58 43,95.6 95.6,95.6 h 687.8 c 52.6,0 95.6,-43.02 95.6,-95.6 V 1240.23 c 0,-52.58 43,-95.61 95.6,-95.61 h 364.4 c 52.6,0 95.6,-43.02 95.6,-95.61 v -78.235 c 0,-52.585 -43,-95.609 -95.6,-95.609 h -1304.7 c -52.6,0 -95.6,43.024 -95.6,95.609 v 78.235 c 0,52.59 43,95.61 95.6,95.61 h 422 c 52.6,0 95.6,43.03 95.6,95.61 v 1137.42" /></g><g
         transform="scale(1.18825)"
         id="g26"><path
           id="path28"
           style="fill:#3a3a3c;fill-opacity:1;fill-rule:nonzero;stroke:none"
           d="m 14730,2334.22 c -16.8,43.09 7.3,78.36 53.6,78.36 h 155.5 c 46.3,0 97.4,-35.51 113.4,-78.91 l 343.9,-928.28 c 16.1,-43.4 41,-114.91 55.4,-158.9 l 34.4,-105.01 c 14.4,-43.99 38,-44.04 52.6,-0.1 l 37,111.76 c 14.6,43.94 39.7,115.41 55.6,158.83 l 340.8,921.67 c 16.1,43.42 67.1,78.94 113.4,78.94 h 144 c 46.3,0 70.4,-35.25 53.5,-78.34 l -583,-1485.552 c -16.9,-43.089 -68.7,-78.343 -114.9,-78.343 h -158.8 c -46.3,0 -98,35.264 -114.8,78.369 L 14730,2334.22" /></g><g
         transform="scale(1.31815)"
         id="g30"><path
           id="path32"
           style="fill:#3a3a3c;fill-opacity:1;fill-rule:nonzero;stroke:none"
           d="m 15957.3,1549.63 c 41.7,0 74.9,34.13 73.8,75.84 0,0 -1.4,50.24 -17.1,104.79 -15.8,54.56 -40.1,101.49 -73,140.82 -32.9,39.3 -74,70.04 -123.1,92.15 -49.2,22.12 -106.1,33.18 -171.1,33.18 -56,0 -107.1,-10.83 -153.3,-32.44 -46.2,-21.64 -86,-52.11 -119.4,-91.42 -33.5,-39.32 -60.5,-86.51 -81.1,-141.55 -20.7,-55.07 -33.5,-115.52 -38.4,-181.37 z m 342.7,-36.85 c 0,-36.38 -0.5,-66.86 -1.4,-91.43 -1,-24.58 -2.5,-47.69 -4.4,-69.29 h -963.7 c -41.8,0 -70.5,-33.73 -64.1,-74.94 0,0 30.4,-192.69 115,-273.78 84.6,-81.106 206.5,-121.649 365.7,-121.649 43.2,0 86.5,1.701 129.7,5.16 43.3,3.429 85.1,8.111 125.4,14.005 40.3,5.903 78.9,12.532 115.7,19.905 36.9,7.376 71,15.484 102.5,24.33 V 810.107 c 0,-41.726 -33.2,-83.821 -73.7,-93.547 0,0 -75,-17.959 -163,-30.239 -87.9,-12.284 -179.1,-18.43 -273.5,-18.43 -126.7,0 -235.9,17.209 -327.3,51.605 -91.4,34.397 -166.4,84.278 -224.9,149.657 -58.5,65.365 -101.7,145.477 -129.7,240.357 -28,94.84 -42,202.23 -42,322.17 0,104.18 14.9,202.74 45,295.63 29.9,92.91 73.7,174.47 131.2,244.77 57.5,70.27 128,126.07 211.6,167.35 83.5,41.29 178.3,61.93 284.5,61.93 103.2,0 194.6,-16.22 274.3,-48.66 79.6,-32.44 146.7,-78.39 201.3,-137.86 54.5,-59.49 95.8,-131.73 123.8,-216.76 28,-85.02 42,-180.13 42,-285.3" /></g><path
         id="path34"
         style="fill:#3a3a3c;fill-opacity:1;fill-rule:nonzero;stroke:none"
         d="m 2149.26,3542.67 c -55,0 -122.5,-38.97 -150,-86.6 l -394.39,-683.11 c -27.5,-47.63 -27.5,-125.58 0,-173.21 l 394.39,-683.12 c 27.5,-47.63 95,-86.6 150,-86.6 l 788.8,0.02 c 55,0 122.5,38.97 150,86.6 l 394.41,683.1 c 27.5,47.63 27.5,125.58 0,173.21 l -394.4,683.13 c -27.5,47.63 -95,86.6 -150,86.6 l -788.81,-0.02" /><path
         id="path36"
         style="fill:#87ce26;fill-opacity:1;fill-rule:nonzero;stroke:none"
         d="m 2149.28,1712.67 c -55,0 -122.5,-38.97 -150,-86.6 L 1604.87,942.961 c -27.5,-47.629 -27.5,-125.578 0,-173.211 L 1999.27,86.6016 C 2026.77,38.9727 2094.27,0 2149.27,0 l 788.81,0.0390625 c 55,0 122.5,38.9726375 150,86.6015375 L 3482.47,769.73 c 27.5,47.629 27.5,125.583 0,173.211 l -394.39,683.109 c -27.5,47.63 -95,86.6 -150,86.6 l -788.8,0.02" /><path
         id="path38"
         style="fill:#37913a;fill-opacity:1;fill-rule:nonzero;stroke:none"
         d="m 2149.26,5372.01 c -55,0 -122.5,-38.97 -150,-86.6 L 1604.85,4602.3 c -27.5,-47.63 -27.5,-125.57 0,-173.2 l 394.41,-683.12 c 27.5,-47.63 95,-86.7 150,-86.84 l 796.66,-1.84 c 55,-0.13 122.5,38.73 150,86.37 l 394.41,683.12 c 27.5,47.63 27.28,125.44 -0.5,172.92 l -401.28,686 c -27.77,47.47 -95.49,86.31 -150.49,86.31 l -788.8,-0.01" /><path
         id="path40"
         style="fill:#55bf35;fill-opacity:1;fill-rule:nonzero;stroke:none"
         d="m 3733.82,2627.84 c -55,0 -122.5,-38.97 -150,-86.6 l -394.41,-683.11 c -27.5,-47.62 -27.5,-125.57 0,-173.2 l 394.41,-683.12 c 27.5,-47.619 95,-86.599 150,-86.599 h 788.79 c 55,0 122.5,38.98 150,86.599 l 394.4,683.12 c 27.5,47.63 27.5,125.58 0,173.2 l -394.4,683.13 c -27.5,47.63 -95,86.6 -150,86.6 l -788.79,-0.02" /><path
         id="path42"
         style="fill:#55bf35;fill-opacity:1;fill-rule:nonzero;stroke:none"
         d="m 565.027,4457.36 c -55,0 -122.5,-38.97 -150,-86.6 L 20.6367,3687.64 c -27.49998,-47.63 -27.49998,-125.57 0,-173.2 L 415.027,2831.32 c 27.5,-47.63 95,-86.6 150,-86.6 h 788.793 c 55,0 122.5,38.97 150,86.6 l 394.4,683.12 c 27.5,47.63 27.5,125.57 0,173.2 l -394.39,683.12 c -27.5,47.63 -95,86.6 -150,86.6 H 565.027" /><path
         id="path44"
         style="fill:#37913a;fill-opacity:1;fill-rule:nonzero;stroke:none"
         d="m 565.051,2628.03 c -55,0 -122.5,-38.98 -150,-86.61 L 20.625,1858.3 c -27.5,-47.63 -27.5,-125.58 0,-173.2 l 394.402,-683.14 c 27.5,-47.628 95,-86.601 150,-86.601 l 788.803,0.02 c 55,0 122.5,38.973 150,86.601 l 394.39,683.14 c 27.5,47.62 27.5,125.57 0,173.2 l -394.39,683.1 c -27.5,47.63 -95,86.61 -150,86.61 H 565.051" /><path
         id="path46"
         style="fill:#ffffff;fill-opacity:1;fill-rule:evenodd;stroke:none"
         d="m 4185.4,4790.83 c 21.33,-3.45 -1.19,-26.94 -50.05,-52.2 l -121.81,-63 c -48.86,-25.26 -52.91,-18.83 -9,14.29 l 62.25,46.96 c 43.9,33.12 97.28,57.4 118.61,53.95" /><g
         transform="scale(1.01663)"
         id="g48"><path
           id="path50"
           style="fill:#3a3a3c;fill-opacity:1;fill-rule:nonzero;stroke:none"
           d="m 15908.2,3657.16 c -54.1,0 -120.5,-38.33 -147.5,-85.19 l -72.4,-125.4 c -27.1,-46.85 -27.1,-123.52 0,-170.37 l 72.4,-125.4 c 27,-46.85 93.4,-85.19 147.5,-85.19 h 144.8 c 54.1,0 120.5,38.34 147.6,85.19 l 72.3,125.4 c 27.1,46.85 27.1,123.52 0,170.37 l -72.3,125.4 c -27.1,46.86 -93.5,85.19 -147.6,85.19 h -144.8" /></g><path
         id="path52"
         style="fill:#505256;fill-opacity:1;fill-rule:nonzero;stroke:none"
         d="m 5233.8,3618.29 c -54.5,7.39 -91.2,-0.24 -81.55,-16.95 9.64,-16.71 -4.96,-69.35 -32.46,-116.98 l -333.75,-578.07 c -27.5,-47.63 -20.24,-52.85 16.14,-11.6 l 549.9,623.61 c 36.38,41.25 21.55,81.05 -32.95,88.43 l -85.33,11.56" /><path
         id="path54"
         style="fill:#505256;fill-opacity:1;fill-rule:evenodd;stroke:none"
         d="m 5417.24,4552.43 c -54.21,9.33 -139.12,36.44 -188.7,60.23 l -273.85,131.47 c -49.58,23.8 -67.81,68.25 -40.52,98.78 27.29,30.53 94.46,51.79 149.28,47.24 l 145.2,-12.04 c 54.82,-4.55 139.97,-28.26 189.25,-52.69 l 743.39,-368.63 c 49.28,-24.43 45.24,-36.79 -8.97,-27.46 l -715.08,123.1" /><path
         id="path56"
         style="fill:#f8af0c;fill-opacity:1;fill-rule:nonzero;stroke:none"
         d="m 5407.84,3884.46 c -7.67,54.46 -58.79,95.05 -113.57,90.19 l -240.54,-21.32 c -54.78,-4.86 -77.11,-47.8 -49.61,-95.44 l 33.12,-57.34 c 27.5,-47.63 94.9,-89.52 149.78,-93.1 l 148.28,-9.64 c 54.89,-3.58 93.5,38.06 85.82,92.52 l -13.28,94.13" /><path
         id="path58"
         style="fill:#f8af0c;fill-opacity:1;fill-rule:nonzero;stroke:none"
         d="m 4836.83,4147.67 c 27.5,-47.63 94.01,-77.23 147.81,-65.78 l 286.01,60.89 c 53.8,11.45 91.53,65.38 83.85,119.84 l -17.13,121.41 c -7.67,54.45 -55.25,81.11 -105.71,59.23 l -360.51,-156.35 c -50.46,-21.88 -69.25,-78.76 -41.75,-126.39 l 7.43,-12.85" /><path
         id="path60"
         style="fill:#f8af0c;fill-opacity:1;fill-rule:nonzero;stroke:none"
         d="m 5199.54,4669.98 c 46.94,28.68 45.91,73.81 -2.29,100.31 l -145.48,79.96 c -48.21,26.49 -126.97,26.3 -175.04,-0.43 l -109.17,-60.7 c -48.08,-26.73 -97.8,-92.37 -110.52,-145.88 l -7.88,-33.2 c -12.71,-53.51 -4.57,-129.41 18.1,-168.67 22.66,-39.26 79.61,-47.92 126.54,-19.24 l 405.74,247.85" /><path
         id="path62"
         style="fill:#3a3a3c;fill-opacity:1;fill-rule:evenodd;stroke:none"
         d="m 5372.09,4395.11 c -50.43,21.94 -117.04,77.08 -148.03,122.52 l -203.33,298.17 c -30.98,45.44 -13.66,68.36 38.51,50.92 l 180.15,-60.2 c 52.17,-17.43 129.38,-60.54 171.6,-95.81 l 754.29,-630.11 c 42.22,-35.26 35.49,-46.15 -14.94,-24.2 l -778.25,338.71" /><path
         id="path64"
         style="fill:#3a3a3c;fill-opacity:1;fill-rule:evenodd;stroke:none"
         d="m 4013.54,4676.59 c -48.86,-25.26 -52.91,-18.83 -9,14.29 l 62.25,46.96 c 43.9,33.12 97.28,57.4 118.61,53.95 21.33,-3.45 -1.19,-26.94 -50.05,-52.2 z m 521.05,215.17 c -38.4,39.37 -114.81,72.64 -169.8,73.94 l -25.62,0.6 c -54.98,1.3 -135.05,30.55 -177.91,65.01 l -146.07,117.41 c -42.87,34.46 -121.96,53.27 -175.75,41.8 l -23.93,-5.11 c -53.79,-11.46 -52.8,-20.78 2.2,-20.69 l 18.41,0.03 c 55,0.09 136.43,-26.27 180.95,-58.56 l 121.44,-88.1 c 44.52,-32.29 62.6,-70.29 40.19,-84.43 -22.41,-14.15 -76.14,2.07 -119.4,36.04 l -109.63,86.08 c -43.26,33.96 -121.48,47.92 -173.81,31.02 l -80.47,-25.99 c -52.33,-16.9 -50.71,-23.7 3.61,-15.12 l 67.51,10.68 c 54.33,8.59 135.79,-9.96 181.05,-41.21 l 90.92,-62.81 c 45.25,-31.26 50.58,-88.79 11.85,-127.83 l -238.85,-240.79 c -38.73,-39.05 -25.42,-71 29.58,-71 l 593.37,0.01 c 55,0.01 110.93,43.66 124.29,97.01 l 26.96,107.73 c 13.36,53.35 -7.14,129.22 -45.53,168.59 l -5.56,5.69" /></g></g></svg>