<svg width="343" height="173" xmlns="http://www.w3.org/2000/svg" xmlns:xlink="http://www.w3.org/1999/xlink" overflow="hidden"><defs><clipPath id="clip0"><path d="M0 0 343 0 343 173 0 173Z" fill-rule="evenodd" clip-rule="evenodd"/></clipPath></defs><g clip-path="url(#clip0)"><rect x="0" y="0" width="342.997" height="173" fill="#FFFFFF" transform="scale(1.00001 1)"/><path d="M206.528 110.137C212.784 107 220.391 109.543 223.518 115.815L248.047 165 342.997 165 264.211 7.01878C262.067 2.7171 257.682 0 252.885 0L212.192 0C208.832 0 205.612 1.33738 203.237 3.7184L171.499 35.5397 139.76 3.7184C137.385 1.33738 134.164 0 130.805 0L90.1124 0C85.3154 0 80.9303 2.7171 78.7859 7.01878L0 165 94.95 165 119.479 115.815C122.606 109.543 130.214 107 136.469 110.137 142.725 113.273 145.26 120.899 142.132 127.172L123.266 165 219.731 165 200.865 127.171C197.737 120.899 200.272 113.273 206.528 110.137Z" fill="#262626" fill-rule="evenodd" transform="matrix(1.00001 0 -0 1 0 8.00004)"/><path d="M0 0 65.9994 0 64.8746 0.852442 32.9998 37 1.12505 0.852442Z" fill="#FFC000" fill-rule="evenodd" transform="matrix(1.00001 0 -0 1 138 7.00002)"/><path d="M64.761 0 107.973 0C111.539 0 114.959 1.66861 117.481 4.63936L151.184 44.3425 184.887 4.63936C187.408 1.66861 190.828 0 194.396 0L237.607 0C242.701 0 247.357 3.39003 249.635 8.75727L300.997 129.771 244.151 16.0615C242.004 11.7642 237.612 9.04988 232.809 9.04988L192.057 9.04988C188.693 9.04988 185.468 10.3859 183.09 12.7645L151.306 44.5535 119.522 12.7645C117.143 10.3859 113.918 9.04988 110.555 9.04988L69.8032 9.04988C64.9993 9.04988 60.608 11.7642 58.4605 16.0615L0 133 52.7335 8.75727C55.0106 3.39003 59.6671 0 64.761 0Z" fill="#FF0000" fill-rule="evenodd" transform="matrix(1.00001 0 -0 1 20 0)"/></g></svg>