<?xml version="1.0" encoding="utf-8" standalone="no"?>
<!DOCTYPE svg PUBLIC "-//W3C//DTD SVG 1.1//EN"
  "http://www.w3.org/Graphics/SVG/1.1/DTD/svg11.dtd">
<!-- Created with matplotlib (https://matplotlib.org/) -->
<svg height="695.52pt" version="1.1" viewBox="0 0 1440 695.52" width="1440pt" xmlns="http://www.w3.org/2000/svg" xmlns:xlink="http://www.w3.org/1999/xlink">
 <defs>
  <style type="text/css">
*{stroke-linecap:butt;stroke-linejoin:round;}
  </style>
 </defs>
 <g id="figure_1">
  <g id="patch_1">
   <path d="M 0 695.52 
L 1440 695.52 
L 1440 0 
L 0 0 
z
" style="fill:#ffffff;"/>
  </g>
  <g id="axes_1">
   <g id="patch_2">
    <path d="M 180 619.0128 
L 1296 619.0128 
L 1296 83.4624 
L 180 83.4624 
z
" style="fill:#ffffff;"/>
   </g>
   <g id="patch_3">
    <path clip-path="url(#p071c0defb0)" d="M 219.857143 619.0128 
L 233.142857 619.0128 
L 233.142857 452.353201 
L 219.857143 452.353201 
z
" style="fill:#1f77b4;"/>
   </g>
   <g id="patch_4">
    <path clip-path="url(#p071c0defb0)" d="M 379.285714 619.0128 
L 392.571429 619.0128 
L 392.571429 249.797689 
L 379.285714 249.797689 
z
" style="fill:#1f77b4;"/>
   </g>
   <g id="patch_5">
    <path clip-path="url(#p071c0defb0)" d="M 538.714286 619.0128 
L 552 619.0128 
L 552 411.3293 
L 538.714286 411.3293 
z
" style="fill:#1f77b4;"/>
   </g>
   <g id="patch_6">
    <path clip-path="url(#p071c0defb0)" d="M 698.142857 619.0128 
L 711.428571 619.0128 
L 711.428571 463.463841 
L 698.142857 463.463841 
z
" style="fill:#1f77b4;"/>
   </g>
   <g id="patch_7">
    <path clip-path="url(#p071c0defb0)" d="M 857.571429 619.0128 
L 870.857143 619.0128 
L 870.857143 319.025522 
L 857.571429 319.025522 
z
" style="fill:#1f77b4;"/>
   </g>
   <g id="patch_8">
    <path clip-path="url(#p071c0defb0)" d="M 1017 619.0128 
L 1030.285714 619.0128 
L 1030.285714 424.284216 
L 1017 424.284216 
z
" style="fill:#1f77b4;"/>
   </g>
   <g id="patch_9">
    <path clip-path="url(#p071c0defb0)" d="M 1176.428571 619.0128 
L 1189.714286 619.0128 
L 1189.714286 469.019161 
L 1176.428571 469.019161 
z
" style="fill:#1f77b4;"/>
   </g>
   <g id="patch_10">
    <path clip-path="url(#p071c0defb0)" d="M 233.142857 619.0128 
L 246.428571 619.0128 
L 246.428571 489.018313 
L 233.142857 489.018313 
z
" style="fill:#ff7f0e;"/>
   </g>
   <g id="patch_11">
    <path clip-path="url(#p071c0defb0)" d="M 392.571429 619.0128 
L 405.857143 619.0128 
L 405.857143 269.027643 
L 392.571429 269.027643 
z
" style="fill:#ff7f0e;"/>
   </g>
   <g id="patch_12">
    <path clip-path="url(#p071c0defb0)" d="M 552 619.0128 
L 565.285714 619.0128 
L 565.285714 319.025522 
L 552 319.025522 
z
" style="fill:#ff7f0e;"/>
   </g>
   <g id="patch_13">
    <path clip-path="url(#p071c0defb0)" d="M 711.428571 619.0128 
L 724.714286 619.0128 
L 724.714286 475.775631 
L 711.428571 475.775631 
z
" style="fill:#ff7f0e;"/>
   </g>
   <g id="patch_14">
    <path clip-path="url(#p071c0defb0)" d="M 870.857143 619.0128 
L 884.142857 619.0128 
L 884.142857 319.025522 
L 870.857143 319.025522 
z
" style="fill:#ff7f0e;"/>
   </g>
   <g id="patch_15">
    <path clip-path="url(#p071c0defb0)" d="M 1030.285714 619.0128 
L 1043.571429 619.0128 
L 1043.571429 435.687241 
L 1030.285714 435.687241 
z
" style="fill:#ff7f0e;"/>
   </g>
   <g id="patch_16">
    <path clip-path="url(#p071c0defb0)" d="M 1189.714286 619.0128 
L 1203 619.0128 
L 1203 469.019161 
L 1189.714286 469.019161 
z
" style="fill:#ff7f0e;"/>
   </g>
   <g id="patch_17">
    <path clip-path="url(#p071c0defb0)" d="M 246.428571 619.0128 
L 259.714286 619.0128 
L 259.714286 499.017889 
L 246.428571 499.017889 
z
" style="fill:#2ca02c;"/>
   </g>
   <g id="patch_18">
    <path clip-path="url(#p071c0defb0)" d="M 405.857143 619.0128 
L 419.142857 619.0128 
L 419.142857 399.02213 
L 405.857143 399.02213 
z
" style="fill:#2ca02c;"/>
   </g>
   <g id="patch_19">
    <path clip-path="url(#p071c0defb0)" d="M 565.285714 619.0128 
L 578.571429 619.0128 
L 578.571429 334.024886 
L 565.285714 334.024886 
z
" style="fill:#2ca02c;"/>
   </g>
   <g id="patch_20">
    <path clip-path="url(#p071c0defb0)" d="M 724.714286 619.0128 
L 738 619.0128 
L 738 464.965279 
L 724.714286 464.965279 
z
" style="fill:#2ca02c;"/>
   </g>
   <g id="patch_21">
    <path clip-path="url(#p071c0defb0)" d="M 884.142857 619.0128 
L 897.428571 619.0128 
L 897.428571 319.025522 
L 884.142857 319.025522 
z
" style="fill:#2ca02c;"/>
   </g>
   <g id="patch_22">
    <path clip-path="url(#p071c0defb0)" d="M 1043.571429 619.0128 
L 1056.857143 619.0128 
L 1056.857143 419.021282 
L 1043.571429 419.021282 
z
" style="fill:#2ca02c;"/>
   </g>
   <g id="patch_23">
    <path clip-path="url(#p071c0defb0)" d="M 1203 619.0128 
L 1216.285714 619.0128 
L 1216.285714 459.019585 
L 1203 459.019585 
z
" style="fill:#2ca02c;"/>
   </g>
   <g id="patch_24">
    <path clip-path="url(#p071c0defb0)" d="M 259.714286 619.0128 
L 273 619.0128 
L 273 469.019161 
L 259.714286 469.019161 
z
" style="fill:#d62728;"/>
   </g>
   <g id="patch_25">
    <path clip-path="url(#p071c0defb0)" d="M 419.142857 619.0128 
L 432.428571 619.0128 
L 432.428571 244.028703 
L 419.142857 244.028703 
z
" style="fill:#d62728;"/>
   </g>
   <g id="patch_26">
    <path clip-path="url(#p071c0defb0)" d="M 578.571429 619.0128 
L 591.857143 619.0128 
L 591.857143 389.022554 
L 578.571429 389.022554 
z
" style="fill:#d62728;"/>
   </g>
   <g id="patch_27">
    <path clip-path="url(#p071c0defb0)" d="M 738 619.0128 
L 751.285714 619.0128 
L 751.285714 486.875547 
L 738 486.875547 
z
" style="fill:#d62728;"/>
   </g>
   <g id="patch_28">
    <path clip-path="url(#p071c0defb0)" d="M 897.428571 619.0128 
L 910.714286 619.0128 
L 910.714286 459.019585 
L 897.428571 459.019585 
z
" style="fill:#d62728;"/>
   </g>
   <g id="patch_29">
    <path clip-path="url(#p071c0defb0)" d="M 1056.857143 619.0128 
L 1070.142857 619.0128 
L 1070.142857 443.158189 
L 1056.857143 443.158189 
z
" style="fill:#d62728;"/>
   </g>
   <g id="patch_30">
    <path clip-path="url(#p071c0defb0)" d="M 1216.285714 619.0128 
L 1229.571429 619.0128 
L 1229.571429 469.019161 
L 1216.285714 469.019161 
z
" style="fill:#d62728;"/>
   </g>
   <g id="patch_31">
    <path clip-path="url(#p071c0defb0)" d="M 273 619.0128 
L 286.285714 619.0128 
L 286.285714 259.028067 
L 273 259.028067 
z
" style="fill:#9467bd;"/>
   </g>
   <g id="patch_32">
    <path clip-path="url(#p071c0defb0)" d="M 432.428571 619.0128 
L 445.714286 619.0128 
L 445.714286 239.028915 
L 432.428571 239.028915 
z
" style="fill:#9467bd;"/>
   </g>
   <g id="patch_33">
    <path clip-path="url(#p071c0defb0)" d="M 591.857143 619.0128 
L 605.142857 619.0128 
L 605.142857 194.030823 
L 591.857143 194.030823 
z
" style="fill:#9467bd;"/>
   </g>
   <g id="patch_34">
    <path clip-path="url(#p071c0defb0)" d="M 751.285714 619.0128 
L 764.571429 619.0128 
L 764.571429 494.018101 
L 751.285714 494.018101 
z
" style="fill:#9467bd;"/>
   </g>
   <g id="patch_35">
    <path clip-path="url(#p071c0defb0)" d="M 910.714286 619.0128 
L 924 619.0128 
L 924 339.024674 
L 910.714286 339.024674 
z
" style="fill:#9467bd;"/>
   </g>
   <g id="patch_36">
    <path clip-path="url(#p071c0defb0)" d="M 1070.142857 619.0128 
L 1083.428571 619.0128 
L 1083.428571 398.332504 
L 1070.142857 398.332504 
z
" style="fill:#9467bd;"/>
   </g>
   <g id="patch_37">
    <path clip-path="url(#p071c0defb0)" d="M 1229.571429 619.0128 
L 1242.857143 619.0128 
L 1242.857143 299.02637 
L 1229.571429 299.02637 
z
" style="fill:#9467bd;"/>
   </g>
   <g id="patch_38">
    <path clip-path="url(#p071c0defb0)" d="M 286.285714 619.0128 
L 299.571429 619.0128 
L 299.571429 519.017041 
L 286.285714 519.017041 
z
" style="fill:#8c564b;"/>
   </g>
   <g id="patch_39">
    <path clip-path="url(#p071c0defb0)" d="M 445.714286 619.0128 
L 459 619.0128 
L 459 254.028279 
L 445.714286 254.028279 
z
" style="fill:#8c564b;"/>
   </g>
   <g id="patch_40">
    <path clip-path="url(#p071c0defb0)" d="M 605.142857 619.0128 
L 618.428571 619.0128 
L 618.428571 419.021282 
L 605.142857 419.021282 
z
" style="fill:#8c564b;"/>
   </g>
   <g id="patch_41">
    <path clip-path="url(#p071c0defb0)" d="M 764.571429 619.0128 
L 777.857143 619.0128 
L 777.857143 435.687241 
L 764.571429 435.687241 
z
" style="fill:#8c564b;"/>
   </g>
   <g id="patch_42">
    <path clip-path="url(#p071c0defb0)" d="M 924 619.0128 
L 937.285714 619.0128 
L 937.285714 319.025522 
L 924 319.025522 
z
" style="fill:#8c564b;"/>
   </g>
   <g id="patch_43">
    <path clip-path="url(#p071c0defb0)" d="M 1083.428571 619.0128 
L 1096.714286 619.0128 
L 1096.714286 435.687241 
L 1083.428571 435.687241 
z
" style="fill:#8c564b;"/>
   </g>
   <g id="patch_44">
    <path clip-path="url(#p071c0defb0)" d="M 1242.857143 619.0128 
L 1256.142857 619.0128 
L 1256.142857 459.019585 
L 1242.857143 459.019585 
z
" style="fill:#8c564b;"/>
   </g>
   <g id="matplotlib.axis_1">
    <g id="xtick_1">
     <g id="line2d_1">
      <defs>
       <path d="M 0 0 
L 0 3.5 
" id="m6c41ef04fd" style="stroke:#000000;stroke-width:0.8;"/>
      </defs>
      <g>
       <use style="stroke:#000000;stroke-width:0.8;" x="259.714286" xlink:href="#m6c41ef04fd" y="619.0128"/>
      </g>
     </g>
     <g id="text_1">
      <!-- libpng -->
      <defs>
       <path d="M 9.421875 75.984375 
L 18.40625 75.984375 
L 18.40625 0 
L 9.421875 0 
z
" id="DejaVuSans-108"/>
       <path d="M 9.421875 54.6875 
L 18.40625 54.6875 
L 18.40625 0 
L 9.421875 0 
z
M 9.421875 75.984375 
L 18.40625 75.984375 
L 18.40625 64.59375 
L 9.421875 64.59375 
z
" id="DejaVuSans-105"/>
       <path d="M 48.6875 27.296875 
Q 48.6875 37.203125 44.609375 42.84375 
Q 40.53125 48.484375 33.40625 48.484375 
Q 26.265625 48.484375 22.1875 42.84375 
Q 18.109375 37.203125 18.109375 27.296875 
Q 18.109375 17.390625 22.1875 11.75 
Q 26.265625 6.109375 33.40625 6.109375 
Q 40.53125 6.109375 44.609375 11.75 
Q 48.6875 17.390625 48.6875 27.296875 
z
M 18.109375 46.390625 
Q 20.953125 51.265625 25.265625 53.625 
Q 29.59375 56 35.59375 56 
Q 45.5625 56 51.78125 48.09375 
Q 58.015625 40.1875 58.015625 27.296875 
Q 58.015625 14.40625 51.78125 6.484375 
Q 45.5625 -1.421875 35.59375 -1.421875 
Q 29.59375 -1.421875 25.265625 0.953125 
Q 20.953125 3.328125 18.109375 8.203125 
L 18.109375 0 
L 9.078125 0 
L 9.078125 75.984375 
L 18.109375 75.984375 
z
" id="DejaVuSans-98"/>
       <path d="M 18.109375 8.203125 
L 18.109375 -20.796875 
L 9.078125 -20.796875 
L 9.078125 54.6875 
L 18.109375 54.6875 
L 18.109375 46.390625 
Q 20.953125 51.265625 25.265625 53.625 
Q 29.59375 56 35.59375 56 
Q 45.5625 56 51.78125 48.09375 
Q 58.015625 40.1875 58.015625 27.296875 
Q 58.015625 14.40625 51.78125 6.484375 
Q 45.5625 -1.421875 35.59375 -1.421875 
Q 29.59375 -1.421875 25.265625 0.953125 
Q 20.953125 3.328125 18.109375 8.203125 
z
M 48.6875 27.296875 
Q 48.6875 37.203125 44.609375 42.84375 
Q 40.53125 48.484375 33.40625 48.484375 
Q 26.265625 48.484375 22.1875 42.84375 
Q 18.109375 37.203125 18.109375 27.296875 
Q 18.109375 17.390625 22.1875 11.75 
Q 26.265625 6.109375 33.40625 6.109375 
Q 40.53125 6.109375 44.609375 11.75 
Q 48.6875 17.390625 48.6875 27.296875 
z
" id="DejaVuSans-112"/>
       <path d="M 54.890625 33.015625 
L 54.890625 0 
L 45.90625 0 
L 45.90625 32.71875 
Q 45.90625 40.484375 42.875 44.328125 
Q 39.84375 48.1875 33.796875 48.1875 
Q 26.515625 48.1875 22.3125 43.546875 
Q 18.109375 38.921875 18.109375 30.90625 
L 18.109375 0 
L 9.078125 0 
L 9.078125 54.6875 
L 18.109375 54.6875 
L 18.109375 46.1875 
Q 21.34375 51.125 25.703125 53.5625 
Q 30.078125 56 35.796875 56 
Q 45.21875 56 50.046875 50.171875 
Q 54.890625 44.34375 54.890625 33.015625 
z
" id="DejaVuSans-110"/>
       <path d="M 45.40625 27.984375 
Q 45.40625 37.75 41.375 43.109375 
Q 37.359375 48.484375 30.078125 48.484375 
Q 22.859375 48.484375 18.828125 43.109375 
Q 14.796875 37.75 14.796875 27.984375 
Q 14.796875 18.265625 18.828125 12.890625 
Q 22.859375 7.515625 30.078125 7.515625 
Q 37.359375 7.515625 41.375 12.890625 
Q 45.40625 18.265625 45.40625 27.984375 
z
M 54.390625 6.78125 
Q 54.390625 -7.171875 48.1875 -13.984375 
Q 42 -20.796875 29.203125 -20.796875 
Q 24.46875 -20.796875 20.265625 -20.09375 
Q 16.0625 -19.390625 12.109375 -17.921875 
L 12.109375 -9.1875 
Q 16.0625 -11.328125 19.921875 -12.34375 
Q 23.78125 -13.375 27.78125 -13.375 
Q 36.625 -13.375 41.015625 -8.765625 
Q 45.40625 -4.15625 45.40625 5.171875 
L 45.40625 9.625 
Q 42.625 4.78125 38.28125 2.390625 
Q 33.9375 0 27.875 0 
Q 17.828125 0 11.671875 7.65625 
Q 5.515625 15.328125 5.515625 27.984375 
Q 5.515625 40.671875 11.671875 48.328125 
Q 17.828125 56 27.875 56 
Q 33.9375 56 38.28125 53.609375 
Q 42.625 51.21875 45.40625 46.390625 
L 45.40625 54.6875 
L 54.390625 54.6875 
z
" id="DejaVuSans-103"/>
      </defs>
      <g transform="translate(263.577411 669.327487)rotate(-90)scale(0.14 -0.14)">
       <use xlink:href="#DejaVuSans-108"/>
       <use x="27.783203" xlink:href="#DejaVuSans-105"/>
       <use x="55.566406" xlink:href="#DejaVuSans-98"/>
       <use x="119.042969" xlink:href="#DejaVuSans-112"/>
       <use x="182.519531" xlink:href="#DejaVuSans-110"/>
       <use x="245.898438" xlink:href="#DejaVuSans-103"/>
      </g>
     </g>
    </g>
    <g id="xtick_2">
     <g id="line2d_2">
      <g>
       <use style="stroke:#000000;stroke-width:0.8;" x="419.142857" xlink:href="#m6c41ef04fd" y="619.0128"/>
      </g>
     </g>
     <g id="text_2">
      <!-- libtiff -->
      <defs>
       <path d="M 18.3125 70.21875 
L 18.3125 54.6875 
L 36.8125 54.6875 
L 36.8125 47.703125 
L 18.3125 47.703125 
L 18.3125 18.015625 
Q 18.3125 11.328125 20.140625 9.421875 
Q 21.96875 7.515625 27.59375 7.515625 
L 36.8125 7.515625 
L 36.8125 0 
L 27.59375 0 
Q 17.1875 0 13.234375 3.875 
Q 9.28125 7.765625 9.28125 18.015625 
L 9.28125 47.703125 
L 2.6875 47.703125 
L 2.6875 54.6875 
L 9.28125 54.6875 
L 9.28125 70.21875 
z
" id="DejaVuSans-116"/>
       <path d="M 37.109375 75.984375 
L 37.109375 68.5 
L 28.515625 68.5 
Q 23.6875 68.5 21.796875 66.546875 
Q 19.921875 64.59375 19.921875 59.515625 
L 19.921875 54.6875 
L 34.71875 54.6875 
L 34.71875 47.703125 
L 19.921875 47.703125 
L 19.921875 0 
L 10.890625 0 
L 10.890625 47.703125 
L 2.296875 47.703125 
L 2.296875 54.6875 
L 10.890625 54.6875 
L 10.890625 58.5 
Q 10.890625 67.625 15.140625 71.796875 
Q 19.390625 75.984375 28.609375 75.984375 
z
" id="DejaVuSans-102"/>
      </defs>
      <g transform="translate(423.005982 661.91405)rotate(-90)scale(0.14 -0.14)">
       <use xlink:href="#DejaVuSans-108"/>
       <use x="27.783203" xlink:href="#DejaVuSans-105"/>
       <use x="55.566406" xlink:href="#DejaVuSans-98"/>
       <use x="119.042969" xlink:href="#DejaVuSans-116"/>
       <use x="158.251953" xlink:href="#DejaVuSans-105"/>
       <use x="186.035156" xlink:href="#DejaVuSans-102"/>
       <use x="221.240234" xlink:href="#DejaVuSans-102"/>
      </g>
     </g>
    </g>
    <g id="xtick_3">
     <g id="line2d_3">
      <g>
       <use style="stroke:#000000;stroke-width:0.8;" x="578.571429" xlink:href="#m6c41ef04fd" y="619.0128"/>
      </g>
     </g>
     <g id="text_3">
      <!-- libxml2 -->
      <defs>
       <path d="M 54.890625 54.6875 
L 35.109375 28.078125 
L 55.90625 0 
L 45.3125 0 
L 29.390625 21.484375 
L 13.484375 0 
L 2.875 0 
L 24.125 28.609375 
L 4.6875 54.6875 
L 15.28125 54.6875 
L 29.78125 35.203125 
L 44.28125 54.6875 
z
" id="DejaVuSans-120"/>
       <path d="M 52 44.1875 
Q 55.375 50.25 60.0625 53.125 
Q 64.75 56 71.09375 56 
Q 79.640625 56 84.28125 50.015625 
Q 88.921875 44.046875 88.921875 33.015625 
L 88.921875 0 
L 79.890625 0 
L 79.890625 32.71875 
Q 79.890625 40.578125 77.09375 44.375 
Q 74.3125 48.1875 68.609375 48.1875 
Q 61.625 48.1875 57.5625 43.546875 
Q 53.515625 38.921875 53.515625 30.90625 
L 53.515625 0 
L 44.484375 0 
L 44.484375 32.71875 
Q 44.484375 40.625 41.703125 44.40625 
Q 38.921875 48.1875 33.109375 48.1875 
Q 26.21875 48.1875 22.15625 43.53125 
Q 18.109375 38.875 18.109375 30.90625 
L 18.109375 0 
L 9.078125 0 
L 9.078125 54.6875 
L 18.109375 54.6875 
L 18.109375 46.1875 
Q 21.1875 51.21875 25.484375 53.609375 
Q 29.78125 56 35.6875 56 
Q 41.65625 56 45.828125 52.96875 
Q 50 49.953125 52 44.1875 
z
" id="DejaVuSans-109"/>
       <path d="M 19.1875 8.296875 
L 53.609375 8.296875 
L 53.609375 0 
L 7.328125 0 
L 7.328125 8.296875 
Q 12.9375 14.109375 22.625 23.890625 
Q 32.328125 33.6875 34.8125 36.53125 
Q 39.546875 41.84375 41.421875 45.53125 
Q 43.3125 49.21875 43.3125 52.78125 
Q 43.3125 58.59375 39.234375 62.25 
Q 35.15625 65.921875 28.609375 65.921875 
Q 23.96875 65.921875 18.8125 64.3125 
Q 13.671875 62.703125 7.8125 59.421875 
L 7.8125 69.390625 
Q 13.765625 71.78125 18.9375 73 
Q 24.125 74.21875 28.421875 74.21875 
Q 39.75 74.21875 46.484375 68.546875 
Q 53.21875 62.890625 53.21875 53.421875 
Q 53.21875 48.921875 51.53125 44.890625 
Q 49.859375 40.875 45.40625 35.40625 
Q 44.1875 33.984375 37.640625 27.21875 
Q 31.109375 20.453125 19.1875 8.296875 
z
" id="DejaVuSans-50"/>
      </defs>
      <g transform="translate(582.434554 677.399363)rotate(-90)scale(0.14 -0.14)">
       <use xlink:href="#DejaVuSans-108"/>
       <use x="27.783203" xlink:href="#DejaVuSans-105"/>
       <use x="55.566406" xlink:href="#DejaVuSans-98"/>
       <use x="119.042969" xlink:href="#DejaVuSans-120"/>
       <use x="178.222656" xlink:href="#DejaVuSans-109"/>
       <use x="275.634766" xlink:href="#DejaVuSans-108"/>
       <use x="303.417969" xlink:href="#DejaVuSans-50"/>
      </g>
     </g>
    </g>
    <g id="xtick_4">
     <g id="line2d_4">
      <g>
       <use style="stroke:#000000;stroke-width:0.8;" x="738" xlink:href="#m6c41ef04fd" y="619.0128"/>
      </g>
     </g>
     <g id="text_4">
      <!-- openssl -->
      <defs>
       <path d="M 30.609375 48.390625 
Q 23.390625 48.390625 19.1875 42.75 
Q 14.984375 37.109375 14.984375 27.296875 
Q 14.984375 17.484375 19.15625 11.84375 
Q 23.34375 6.203125 30.609375 6.203125 
Q 37.796875 6.203125 41.984375 11.859375 
Q 46.1875 17.53125 46.1875 27.296875 
Q 46.1875 37.015625 41.984375 42.703125 
Q 37.796875 48.390625 30.609375 48.390625 
z
M 30.609375 56 
Q 42.328125 56 49.015625 48.375 
Q 55.71875 40.765625 55.71875 27.296875 
Q 55.71875 13.875 49.015625 6.21875 
Q 42.328125 -1.421875 30.609375 -1.421875 
Q 18.84375 -1.421875 12.171875 6.21875 
Q 5.515625 13.875 5.515625 27.296875 
Q 5.515625 40.765625 12.171875 48.375 
Q 18.84375 56 30.609375 56 
z
" id="DejaVuSans-111"/>
       <path d="M 56.203125 29.59375 
L 56.203125 25.203125 
L 14.890625 25.203125 
Q 15.484375 15.921875 20.484375 11.0625 
Q 25.484375 6.203125 34.421875 6.203125 
Q 39.59375 6.203125 44.453125 7.46875 
Q 49.3125 8.734375 54.109375 11.28125 
L 54.109375 2.78125 
Q 49.265625 0.734375 44.1875 -0.34375 
Q 39.109375 -1.421875 33.890625 -1.421875 
Q 20.796875 -1.421875 13.15625 6.1875 
Q 5.515625 13.8125 5.515625 26.8125 
Q 5.515625 40.234375 12.765625 48.109375 
Q 20.015625 56 32.328125 56 
Q 43.359375 56 49.78125 48.890625 
Q 56.203125 41.796875 56.203125 29.59375 
z
M 47.21875 32.234375 
Q 47.125 39.59375 43.09375 43.984375 
Q 39.0625 48.390625 32.421875 48.390625 
Q 24.90625 48.390625 20.390625 44.140625 
Q 15.875 39.890625 15.1875 32.171875 
z
" id="DejaVuSans-101"/>
       <path d="M 44.28125 53.078125 
L 44.28125 44.578125 
Q 40.484375 46.53125 36.375 47.5 
Q 32.28125 48.484375 27.875 48.484375 
Q 21.1875 48.484375 17.84375 46.4375 
Q 14.5 44.390625 14.5 40.28125 
Q 14.5 37.15625 16.890625 35.375 
Q 19.28125 33.59375 26.515625 31.984375 
L 29.59375 31.296875 
Q 39.15625 29.25 43.1875 25.515625 
Q 47.21875 21.78125 47.21875 15.09375 
Q 47.21875 7.46875 41.1875 3.015625 
Q 35.15625 -1.421875 24.609375 -1.421875 
Q 20.21875 -1.421875 15.453125 -0.5625 
Q 10.6875 0.296875 5.421875 2 
L 5.421875 11.28125 
Q 10.40625 8.6875 15.234375 7.390625 
Q 20.0625 6.109375 24.8125 6.109375 
Q 31.15625 6.109375 34.5625 8.28125 
Q 37.984375 10.453125 37.984375 14.40625 
Q 37.984375 18.0625 35.515625 20.015625 
Q 33.0625 21.96875 24.703125 23.78125 
L 21.578125 24.515625 
Q 13.234375 26.265625 9.515625 29.90625 
Q 5.8125 33.546875 5.8125 39.890625 
Q 5.8125 47.609375 11.28125 51.796875 
Q 16.75 56 26.8125 56 
Q 31.78125 56 36.171875 55.265625 
Q 40.578125 54.546875 44.28125 53.078125 
z
" id="DejaVuSans-115"/>
      </defs>
      <g transform="translate(741.863125 679.429363)rotate(-90)scale(0.14 -0.14)">
       <use xlink:href="#DejaVuSans-111"/>
       <use x="61.181641" xlink:href="#DejaVuSans-112"/>
       <use x="124.658203" xlink:href="#DejaVuSans-101"/>
       <use x="186.181641" xlink:href="#DejaVuSans-110"/>
       <use x="249.560547" xlink:href="#DejaVuSans-115"/>
       <use x="301.660156" xlink:href="#DejaVuSans-115"/>
       <use x="353.759766" xlink:href="#DejaVuSans-108"/>
      </g>
     </g>
    </g>
    <g id="xtick_5">
     <g id="line2d_5">
      <g>
       <use style="stroke:#000000;stroke-width:0.8;" x="897.428571" xlink:href="#m6c41ef04fd" y="619.0128"/>
      </g>
     </g>
     <g id="text_5">
      <!-- php -->
      <defs>
       <path d="M 54.890625 33.015625 
L 54.890625 0 
L 45.90625 0 
L 45.90625 32.71875 
Q 45.90625 40.484375 42.875 44.328125 
Q 39.84375 48.1875 33.796875 48.1875 
Q 26.515625 48.1875 22.3125 43.546875 
Q 18.109375 38.921875 18.109375 30.90625 
L 18.109375 0 
L 9.078125 0 
L 9.078125 75.984375 
L 18.109375 75.984375 
L 18.109375 46.1875 
Q 21.34375 51.125 25.703125 53.5625 
Q 30.078125 56 35.796875 56 
Q 45.21875 56 50.046875 50.171875 
Q 54.890625 44.34375 54.890625 33.015625 
z
" id="DejaVuSans-104"/>
      </defs>
      <g transform="translate(901.291696 652.660925)rotate(-90)scale(0.14 -0.14)">
       <use xlink:href="#DejaVuSans-112"/>
       <use x="63.476562" xlink:href="#DejaVuSans-104"/>
       <use x="126.855469" xlink:href="#DejaVuSans-112"/>
      </g>
     </g>
    </g>
    <g id="xtick_6">
     <g id="line2d_6">
      <g>
       <use style="stroke:#000000;stroke-width:0.8;" x="1056.857143" xlink:href="#m6c41ef04fd" y="619.0128"/>
      </g>
     </g>
     <g id="text_6">
      <!-- poppler -->
      <defs>
       <path d="M 41.109375 46.296875 
Q 39.59375 47.171875 37.8125 47.578125 
Q 36.03125 48 33.890625 48 
Q 26.265625 48 22.1875 43.046875 
Q 18.109375 38.09375 18.109375 28.8125 
L 18.109375 0 
L 9.078125 0 
L 9.078125 54.6875 
L 18.109375 54.6875 
L 18.109375 46.1875 
Q 20.953125 51.171875 25.484375 53.578125 
Q 30.03125 56 36.53125 56 
Q 37.453125 56 38.578125 55.875 
Q 39.703125 55.765625 41.0625 55.515625 
z
" id="DejaVuSans-114"/>
      </defs>
      <g transform="translate(1060.720268 679.50155)rotate(-90)scale(0.14 -0.14)">
       <use xlink:href="#DejaVuSans-112"/>
       <use x="63.476562" xlink:href="#DejaVuSans-111"/>
       <use x="124.658203" xlink:href="#DejaVuSans-112"/>
       <use x="188.134766" xlink:href="#DejaVuSans-112"/>
       <use x="251.611328" xlink:href="#DejaVuSans-108"/>
       <use x="279.394531" xlink:href="#DejaVuSans-101"/>
       <use x="340.917969" xlink:href="#DejaVuSans-114"/>
      </g>
     </g>
    </g>
    <g id="xtick_7">
     <g id="line2d_7">
      <g>
       <use style="stroke:#000000;stroke-width:0.8;" x="1216.285714" xlink:href="#m6c41ef04fd" y="619.0128"/>
      </g>
     </g>
     <g id="text_7">
      <!-- sqlite3 -->
      <defs>
       <path d="M 14.796875 27.296875 
Q 14.796875 17.390625 18.875 11.75 
Q 22.953125 6.109375 30.078125 6.109375 
Q 37.203125 6.109375 41.296875 11.75 
Q 45.40625 17.390625 45.40625 27.296875 
Q 45.40625 37.203125 41.296875 42.84375 
Q 37.203125 48.484375 30.078125 48.484375 
Q 22.953125 48.484375 18.875 42.84375 
Q 14.796875 37.203125 14.796875 27.296875 
z
M 45.40625 8.203125 
Q 42.578125 3.328125 38.25 0.953125 
Q 33.9375 -1.421875 27.875 -1.421875 
Q 17.96875 -1.421875 11.734375 6.484375 
Q 5.515625 14.40625 5.515625 27.296875 
Q 5.515625 40.1875 11.734375 48.09375 
Q 17.96875 56 27.875 56 
Q 33.9375 56 38.25 53.625 
Q 42.578125 51.265625 45.40625 46.390625 
L 45.40625 54.6875 
L 54.390625 54.6875 
L 54.390625 -20.796875 
L 45.40625 -20.796875 
z
" id="DejaVuSans-113"/>
       <path d="M 40.578125 39.3125 
Q 47.65625 37.796875 51.625 33 
Q 55.609375 28.21875 55.609375 21.1875 
Q 55.609375 10.40625 48.1875 4.484375 
Q 40.765625 -1.421875 27.09375 -1.421875 
Q 22.515625 -1.421875 17.65625 -0.515625 
Q 12.796875 0.390625 7.625 2.203125 
L 7.625 11.71875 
Q 11.71875 9.328125 16.59375 8.109375 
Q 21.484375 6.890625 26.8125 6.890625 
Q 36.078125 6.890625 40.9375 10.546875 
Q 45.796875 14.203125 45.796875 21.1875 
Q 45.796875 27.640625 41.28125 31.265625 
Q 36.765625 34.90625 28.71875 34.90625 
L 20.21875 34.90625 
L 20.21875 43.015625 
L 29.109375 43.015625 
Q 36.375 43.015625 40.234375 45.921875 
Q 44.09375 48.828125 44.09375 54.296875 
Q 44.09375 59.90625 40.109375 62.90625 
Q 36.140625 65.921875 28.71875 65.921875 
Q 24.65625 65.921875 20.015625 65.03125 
Q 15.375 64.15625 9.8125 62.3125 
L 9.8125 71.09375 
Q 15.4375 72.65625 20.34375 73.4375 
Q 25.25 74.21875 29.59375 74.21875 
Q 40.828125 74.21875 47.359375 69.109375 
Q 53.90625 64.015625 53.90625 55.328125 
Q 53.90625 49.265625 50.4375 45.09375 
Q 46.96875 40.921875 40.578125 39.3125 
z
" id="DejaVuSans-51"/>
      </defs>
      <g transform="translate(1220.148839 672.9828)rotate(-90)scale(0.14 -0.14)">
       <use xlink:href="#DejaVuSans-115"/>
       <use x="52.099609" xlink:href="#DejaVuSans-113"/>
       <use x="115.576172" xlink:href="#DejaVuSans-108"/>
       <use x="143.359375" xlink:href="#DejaVuSans-105"/>
       <use x="171.142578" xlink:href="#DejaVuSans-116"/>
       <use x="210.351562" xlink:href="#DejaVuSans-101"/>
       <use x="271.875" xlink:href="#DejaVuSans-51"/>
      </g>
     </g>
    </g>
    <g id="text_8">
     <!-- Targets -->
     <defs>
      <path d="M -0.296875 72.90625 
L 61.375 72.90625 
L 61.375 64.59375 
L 35.5 64.59375 
L 35.5 0 
L 25.59375 0 
L 25.59375 64.59375 
L -0.296875 64.59375 
z
" id="DejaVuSans-84"/>
      <path d="M 34.28125 27.484375 
Q 23.390625 27.484375 19.1875 25 
Q 14.984375 22.515625 14.984375 16.5 
Q 14.984375 11.71875 18.140625 8.90625 
Q 21.296875 6.109375 26.703125 6.109375 
Q 34.1875 6.109375 38.703125 11.40625 
Q 43.21875 16.703125 43.21875 25.484375 
L 43.21875 27.484375 
z
M 52.203125 31.203125 
L 52.203125 0 
L 43.21875 0 
L 43.21875 8.296875 
Q 40.140625 3.328125 35.546875 0.953125 
Q 30.953125 -1.421875 24.3125 -1.421875 
Q 15.921875 -1.421875 10.953125 3.296875 
Q 6 8.015625 6 15.921875 
Q 6 25.140625 12.171875 29.828125 
Q 18.359375 34.515625 30.609375 34.515625 
L 43.21875 34.515625 
L 43.21875 35.40625 
Q 43.21875 41.609375 39.140625 45 
Q 35.0625 48.390625 27.6875 48.390625 
Q 23 48.390625 18.546875 47.265625 
Q 14.109375 46.140625 10.015625 43.890625 
L 10.015625 52.203125 
Q 14.9375 54.109375 19.578125 55.046875 
Q 24.21875 56 28.609375 56 
Q 40.484375 56 46.34375 49.84375 
Q 52.203125 43.703125 52.203125 31.203125 
z
" id="DejaVuSans-97"/>
     </defs>
     <g transform="translate(711.433906 694.139362)scale(0.14 -0.14)">
      <use xlink:href="#DejaVuSans-84"/>
      <use x="60.833984" xlink:href="#DejaVuSans-97"/>
      <use x="122.113281" xlink:href="#DejaVuSans-114"/>
      <use x="163.210938" xlink:href="#DejaVuSans-103"/>
      <use x="226.6875" xlink:href="#DejaVuSans-101"/>
      <use x="288.210938" xlink:href="#DejaVuSans-116"/>
      <use x="327.419922" xlink:href="#DejaVuSans-115"/>
     </g>
    </g>
   </g>
   <g id="matplotlib.axis_2">
    <g id="ytick_1">
     <g id="line2d_8">
      <defs>
       <path d="M 0 0 
L -3.5 0 
" id="m24a630adcf" style="stroke:#000000;stroke-width:0.8;"/>
      </defs>
      <g>
       <use style="stroke:#000000;stroke-width:0.8;" x="180" xlink:href="#m24a630adcf" y="619.0128"/>
      </g>
     </g>
     <g id="text_9">
      <!-- 0 -->
      <defs>
       <path d="M 31.78125 66.40625 
Q 24.171875 66.40625 20.328125 58.90625 
Q 16.5 51.421875 16.5 36.375 
Q 16.5 21.390625 20.328125 13.890625 
Q 24.171875 6.390625 31.78125 6.390625 
Q 39.453125 6.390625 43.28125 13.890625 
Q 47.125 21.390625 47.125 36.375 
Q 47.125 51.421875 43.28125 58.90625 
Q 39.453125 66.40625 31.78125 66.40625 
z
M 31.78125 74.21875 
Q 44.046875 74.21875 50.515625 64.515625 
Q 56.984375 54.828125 56.984375 36.375 
Q 56.984375 17.96875 50.515625 8.265625 
Q 44.046875 -1.421875 31.78125 -1.421875 
Q 19.53125 -1.421875 13.0625 8.265625 
Q 6.59375 17.96875 6.59375 36.375 
Q 6.59375 54.828125 13.0625 64.515625 
Q 19.53125 74.21875 31.78125 74.21875 
z
" id="DejaVuSans-48"/>
      </defs>
      <g transform="translate(164.0925 624.331706)scale(0.14 -0.14)">
       <use xlink:href="#DejaVuSans-48"/>
      </g>
     </g>
    </g>
    <g id="ytick_2">
     <g id="line2d_9">
      <g>
       <use style="stroke:#000000;stroke-width:0.8;" x="180" xlink:href="#m24a630adcf" y="519.017041"/>
      </g>
     </g>
     <g id="text_10">
      <!-- 1 -->
      <defs>
       <path d="M 12.40625 8.296875 
L 28.515625 8.296875 
L 28.515625 63.921875 
L 10.984375 60.40625 
L 10.984375 69.390625 
L 28.421875 72.90625 
L 38.28125 72.90625 
L 38.28125 8.296875 
L 54.390625 8.296875 
L 54.390625 0 
L 12.40625 0 
z
" id="DejaVuSans-49"/>
      </defs>
      <g transform="translate(164.0925 524.335947)scale(0.14 -0.14)">
       <use xlink:href="#DejaVuSans-49"/>
      </g>
     </g>
    </g>
    <g id="ytick_3">
     <g id="line2d_10">
      <g>
       <use style="stroke:#000000;stroke-width:0.8;" x="180" xlink:href="#m24a630adcf" y="419.021282"/>
      </g>
     </g>
     <g id="text_11">
      <!-- 2 -->
      <g transform="translate(164.0925 424.340188)scale(0.14 -0.14)">
       <use xlink:href="#DejaVuSans-50"/>
      </g>
     </g>
    </g>
    <g id="ytick_4">
     <g id="line2d_11">
      <g>
       <use style="stroke:#000000;stroke-width:0.8;" x="180" xlink:href="#m24a630adcf" y="319.025522"/>
      </g>
     </g>
     <g id="text_12">
      <!-- 3 -->
      <g transform="translate(164.0925 324.344429)scale(0.14 -0.14)">
       <use xlink:href="#DejaVuSans-51"/>
      </g>
     </g>
    </g>
    <g id="ytick_5">
     <g id="line2d_12">
      <g>
       <use style="stroke:#000000;stroke-width:0.8;" x="180" xlink:href="#m24a630adcf" y="219.029763"/>
      </g>
     </g>
     <g id="text_13">
      <!-- 4 -->
      <defs>
       <path d="M 37.796875 64.3125 
L 12.890625 25.390625 
L 37.796875 25.390625 
z
M 35.203125 72.90625 
L 47.609375 72.90625 
L 47.609375 25.390625 
L 58.015625 25.390625 
L 58.015625 17.1875 
L 47.609375 17.1875 
L 47.609375 0 
L 37.796875 0 
L 37.796875 17.1875 
L 4.890625 17.1875 
L 4.890625 26.703125 
z
" id="DejaVuSans-52"/>
      </defs>
      <g transform="translate(164.0925 224.348669)scale(0.14 -0.14)">
       <use xlink:href="#DejaVuSans-52"/>
      </g>
     </g>
    </g>
    <g id="ytick_6">
     <g id="line2d_13">
      <g>
       <use style="stroke:#000000;stroke-width:0.8;" x="180" xlink:href="#m24a630adcf" y="119.034004"/>
      </g>
     </g>
     <g id="text_14">
      <!-- 5 -->
      <defs>
       <path d="M 10.796875 72.90625 
L 49.515625 72.90625 
L 49.515625 64.59375 
L 19.828125 64.59375 
L 19.828125 46.734375 
Q 21.96875 47.46875 24.109375 47.828125 
Q 26.265625 48.1875 28.421875 48.1875 
Q 40.625 48.1875 47.75 41.5 
Q 54.890625 34.8125 54.890625 23.390625 
Q 54.890625 11.625 47.5625 5.09375 
Q 40.234375 -1.421875 26.90625 -1.421875 
Q 22.3125 -1.421875 17.546875 -0.640625 
Q 12.796875 0.140625 7.71875 1.703125 
L 7.71875 11.625 
Q 12.109375 9.234375 16.796875 8.0625 
Q 21.484375 6.890625 26.703125 6.890625 
Q 35.15625 6.890625 40.078125 11.328125 
Q 45.015625 15.765625 45.015625 23.390625 
Q 45.015625 31 40.078125 35.4375 
Q 35.15625 39.890625 26.703125 39.890625 
Q 22.75 39.890625 18.8125 39.015625 
Q 14.890625 38.140625 10.796875 36.28125 
z
" id="DejaVuSans-53"/>
      </defs>
      <g transform="translate(164.0925 124.35291)scale(0.14 -0.14)">
       <use xlink:href="#DejaVuSans-53"/>
      </g>
     </g>
    </g>
    <g id="text_15">
     <!-- Number of Bugs Triggered -->
     <defs>
      <path d="M 9.8125 72.90625 
L 23.09375 72.90625 
L 55.421875 11.921875 
L 55.421875 72.90625 
L 64.984375 72.90625 
L 64.984375 0 
L 51.703125 0 
L 19.390625 60.984375 
L 19.390625 0 
L 9.8125 0 
z
" id="DejaVuSans-78"/>
      <path d="M 8.5 21.578125 
L 8.5 54.6875 
L 17.484375 54.6875 
L 17.484375 21.921875 
Q 17.484375 14.15625 20.5 10.265625 
Q 23.53125 6.390625 29.59375 6.390625 
Q 36.859375 6.390625 41.078125 11.03125 
Q 45.3125 15.671875 45.3125 23.6875 
L 45.3125 54.6875 
L 54.296875 54.6875 
L 54.296875 0 
L 45.3125 0 
L 45.3125 8.40625 
Q 42.046875 3.421875 37.71875 1 
Q 33.40625 -1.421875 27.6875 -1.421875 
Q 18.265625 -1.421875 13.375 4.4375 
Q 8.5 10.296875 8.5 21.578125 
z
M 31.109375 56 
z
" id="DejaVuSans-117"/>
      <path id="DejaVuSans-32"/>
      <path d="M 19.671875 34.8125 
L 19.671875 8.109375 
L 35.5 8.109375 
Q 43.453125 8.109375 47.28125 11.40625 
Q 51.125 14.703125 51.125 21.484375 
Q 51.125 28.328125 47.28125 31.5625 
Q 43.453125 34.8125 35.5 34.8125 
z
M 19.671875 64.796875 
L 19.671875 42.828125 
L 34.28125 42.828125 
Q 41.5 42.828125 45.03125 45.53125 
Q 48.578125 48.25 48.578125 53.8125 
Q 48.578125 59.328125 45.03125 62.0625 
Q 41.5 64.796875 34.28125 64.796875 
z
M 9.8125 72.90625 
L 35.015625 72.90625 
Q 46.296875 72.90625 52.390625 68.21875 
Q 58.5 63.53125 58.5 54.890625 
Q 58.5 48.1875 55.375 44.234375 
Q 52.25 40.28125 46.1875 39.3125 
Q 53.46875 37.75 57.5 32.78125 
Q 61.53125 27.828125 61.53125 20.40625 
Q 61.53125 10.640625 54.890625 5.3125 
Q 48.25 0 35.984375 0 
L 9.8125 0 
z
" id="DejaVuSans-66"/>
      <path d="M 45.40625 46.390625 
L 45.40625 75.984375 
L 54.390625 75.984375 
L 54.390625 0 
L 45.40625 0 
L 45.40625 8.203125 
Q 42.578125 3.328125 38.25 0.953125 
Q 33.9375 -1.421875 27.875 -1.421875 
Q 17.96875 -1.421875 11.734375 6.484375 
Q 5.515625 14.40625 5.515625 27.296875 
Q 5.515625 40.1875 11.734375 48.09375 
Q 17.96875 56 27.875 56 
Q 33.9375 56 38.25 53.625 
Q 42.578125 51.265625 45.40625 46.390625 
z
M 14.796875 27.296875 
Q 14.796875 17.390625 18.875 11.75 
Q 22.953125 6.109375 30.078125 6.109375 
Q 37.203125 6.109375 41.296875 11.75 
Q 45.40625 17.390625 45.40625 27.296875 
Q 45.40625 37.203125 41.296875 42.84375 
Q 37.203125 48.484375 30.078125 48.484375 
Q 22.953125 48.484375 18.875 42.84375 
Q 14.796875 37.203125 14.796875 27.296875 
z
" id="DejaVuSans-100"/>
     </defs>
     <g transform="translate(157.180937 444.012756)rotate(-90)scale(0.14 -0.14)">
      <use xlink:href="#DejaVuSans-78"/>
      <use x="74.804688" xlink:href="#DejaVuSans-117"/>
      <use x="138.183594" xlink:href="#DejaVuSans-109"/>
      <use x="235.595703" xlink:href="#DejaVuSans-98"/>
      <use x="299.072266" xlink:href="#DejaVuSans-101"/>
      <use x="360.595703" xlink:href="#DejaVuSans-114"/>
      <use x="401.708984" xlink:href="#DejaVuSans-32"/>
      <use x="433.496094" xlink:href="#DejaVuSans-111"/>
      <use x="494.677734" xlink:href="#DejaVuSans-102"/>
      <use x="529.882812" xlink:href="#DejaVuSans-32"/>
      <use x="561.669922" xlink:href="#DejaVuSans-66"/>
      <use x="630.273438" xlink:href="#DejaVuSans-117"/>
      <use x="693.652344" xlink:href="#DejaVuSans-103"/>
      <use x="757.128906" xlink:href="#DejaVuSans-115"/>
      <use x="809.228516" xlink:href="#DejaVuSans-32"/>
      <use x="841.015625" xlink:href="#DejaVuSans-84"/>
      <use x="901.880859" xlink:href="#DejaVuSans-114"/>
      <use x="942.994141" xlink:href="#DejaVuSans-105"/>
      <use x="970.777344" xlink:href="#DejaVuSans-103"/>
      <use x="1034.253906" xlink:href="#DejaVuSans-103"/>
      <use x="1097.730469" xlink:href="#DejaVuSans-101"/>
      <use x="1159.253906" xlink:href="#DejaVuSans-114"/>
      <use x="1200.335938" xlink:href="#DejaVuSans-101"/>
      <use x="1261.859375" xlink:href="#DejaVuSans-100"/>
     </g>
    </g>
   </g>
   <g id="LineCollection_1">
    <path clip-path="url(#p071c0defb0)" d="M 226.5 533.999397 
L 226.5 370.707006 
" style="fill:none;stroke:#000000;stroke-width:1.5;"/>
    <path clip-path="url(#p071c0defb0)" d="M 385.928571 368.005869 
L 385.928571 131.589509 
" style="fill:none;stroke:#000000;stroke-width:1.5;"/>
    <path clip-path="url(#p071c0defb0)" d="M 545.357143 460.682019 
L 545.357143 361.976581 
" style="fill:none;stroke:#000000;stroke-width:1.5;"/>
    <path clip-path="url(#p071c0defb0)" d="M 704.785714 548.192102 
L 704.785714 378.73558 
" style="fill:none;stroke:#000000;stroke-width:1.5;"/>
    <path clip-path="url(#p071c0defb0)" d="M 864.214286 319.025522 
L 864.214286 319.025522 
" style="fill:none;stroke:#000000;stroke-width:1.5;"/>
    <path clip-path="url(#p071c0defb0)" d="M 1023.642857 447.224817 
L 1023.642857 401.343616 
" style="fill:none;stroke:#000000;stroke-width:1.5;"/>
    <path clip-path="url(#p071c0defb0)" d="M 1183.071429 526.75174 
L 1183.071429 411.286583 
" style="fill:none;stroke:#000000;stroke-width:1.5;"/>
   </g>
   <g id="LineCollection_2">
    <path clip-path="url(#p071c0defb0)" d="M 239.785714 537.320854 
L 239.785714 440.715772 
" style="fill:none;stroke:#000000;stroke-width:1.5;"/>
    <path clip-path="url(#p071c0defb0)" d="M 399.214286 329.722767 
L 399.214286 208.332519 
" style="fill:none;stroke:#000000;stroke-width:1.5;"/>
    <path clip-path="url(#p071c0defb0)" d="M 558.642857 319.025522 
L 558.642857 319.025522 
" style="fill:none;stroke:#000000;stroke-width:1.5;"/>
    <path clip-path="url(#p071c0defb0)" d="M 718.071429 540.496833 
L 718.071429 411.05443 
" style="fill:none;stroke:#000000;stroke-width:1.5;"/>
    <path clip-path="url(#p071c0defb0)" d="M 877.5 319.025522 
L 877.5 319.025522 
" style="fill:none;stroke:#000000;stroke-width:1.5;"/>
    <path clip-path="url(#p071c0defb0)" d="M 1036.928571 473.590536 
L 1036.928571 397.783947 
" style="fill:none;stroke:#000000;stroke-width:1.5;"/>
    <path clip-path="url(#p071c0defb0)" d="M 1196.357143 522.469143 
L 1196.357143 415.56918 
" style="fill:none;stroke:#000000;stroke-width:1.5;"/>
   </g>
   <g id="LineCollection_3">
    <path clip-path="url(#p071c0defb0)" d="M 253.071429 541.179803 
L 253.071429 456.855975 
" style="fill:none;stroke:#000000;stroke-width:1.5;"/>
    <path clip-path="url(#p071c0defb0)" d="M 412.5 499.542805 
L 412.5 298.501455 
" style="fill:none;stroke:#000000;stroke-width:1.5;"/>
    <path clip-path="url(#p071c0defb0)" d="M 571.928571 370.658087 
L 571.928571 297.391685 
" style="fill:none;stroke:#000000;stroke-width:1.5;"/>
    <path clip-path="url(#p071c0defb0)" d="M 731.357143 548.609786 
L 731.357143 381.320772 
" style="fill:none;stroke:#000000;stroke-width:1.5;"/>
    <path clip-path="url(#p071c0defb0)" d="M 890.785714 319.025522 
L 890.785714 319.025522 
" style="fill:none;stroke:#000000;stroke-width:1.5;"/>
    <path clip-path="url(#p071c0defb0)" d="M 1050.214286 419.021282 
L 1050.214286 419.021282 
" style="fill:none;stroke:#000000;stroke-width:1.5;"/>
    <path clip-path="url(#p071c0defb0)" d="M 1209.642857 543.343413 
L 1209.642857 374.695757 
" style="fill:none;stroke:#000000;stroke-width:1.5;"/>
   </g>
   <g id="LineCollection_4">
    <path clip-path="url(#p071c0defb0)" d="M 266.357143 521.721554 
L 266.357143 416.316769 
" style="fill:none;stroke:#000000;stroke-width:1.5;"/>
    <path clip-path="url(#p071c0defb0)" d="M 425.785714 345.978962 
L 425.785714 142.078444 
" style="fill:none;stroke:#000000;stroke-width:1.5;"/>
    <path clip-path="url(#p071c0defb0)" d="M 585.214286 436.036795 
L 585.214286 342.008313 
" style="fill:none;stroke:#000000;stroke-width:1.5;"/>
    <path clip-path="url(#p071c0defb0)" d="M 744.642857 541.669623 
L 744.642857 432.08147 
" style="fill:none;stroke:#000000;stroke-width:1.5;"/>
    <path clip-path="url(#p071c0defb0)" d="M 904.071429 528.93721 
L 904.071429 389.101961 
" style="fill:none;stroke:#000000;stroke-width:1.5;"/>
    <path clip-path="url(#p071c0defb0)" d="M 1063.5 486.705759 
L 1063.5 399.610619 
" style="fill:none;stroke:#000000;stroke-width:1.5;"/>
    <path clip-path="url(#p071c0defb0)" d="M 1222.928571 522.469143 
L 1222.928571 415.56918 
" style="fill:none;stroke:#000000;stroke-width:1.5;"/>
   </g>
   <g id="LineCollection_5">
    <path clip-path="url(#p071c0defb0)" d="M 279.642857 310.665655 
L 279.642857 207.390479 
" style="fill:none;stroke:#000000;stroke-width:1.5;"/>
    <path clip-path="url(#p071c0defb0)" d="M 439.071429 291.341533 
L 439.071429 186.716297 
" style="fill:none;stroke:#000000;stroke-width:1.5;"/>
    <path clip-path="url(#p071c0defb0)" d="M 598.5 279.096847 
L 598.5 108.9648 
" style="fill:none;stroke:#000000;stroke-width:1.5;"/>
    <path clip-path="url(#p071c0defb0)" d="M 757.928571 543.37082 
L 757.928571 444.665382 
" style="fill:none;stroke:#000000;stroke-width:1.5;"/>
    <path clip-path="url(#p071c0defb0)" d="M 917.357143 381.186588 
L 917.357143 296.86276 
" style="fill:none;stroke:#000000;stroke-width:1.5;"/>
    <path clip-path="url(#p071c0defb0)" d="M 1076.785714 454.259362 
L 1076.785714 342.405645 
" style="fill:none;stroke:#000000;stroke-width:1.5;"/>
    <path clip-path="url(#p071c0defb0)" d="M 1236.214286 362.269242 
L 1236.214286 235.783499 
" style="fill:none;stroke:#000000;stroke-width:1.5;"/>
   </g>
   <g id="LineCollection_6">
    <path clip-path="url(#p071c0defb0)" d="M 292.928571 519.017041 
L 292.928571 519.017041 
" style="fill:none;stroke:#000000;stroke-width:1.5;"/>
    <path clip-path="url(#p071c0defb0)" d="M 452.357143 335.297602 
L 452.357143 172.758955 
" style="fill:none;stroke:#000000;stroke-width:1.5;"/>
    <path clip-path="url(#p071c0defb0)" d="M 611.785714 419.021282 
L 611.785714 419.021282 
" style="fill:none;stroke:#000000;stroke-width:1.5;"/>
    <path clip-path="url(#p071c0defb0)" d="M 771.214286 536.405001 
L 771.214286 334.969482 
" style="fill:none;stroke:#000000;stroke-width:1.5;"/>
    <path clip-path="url(#p071c0defb0)" d="M 930.642857 319.025522 
L 930.642857 319.025522 
" style="fill:none;stroke:#000000;stroke-width:1.5;"/>
    <path clip-path="url(#p071c0defb0)" d="M 1090.071429 473.590536 
L 1090.071429 397.783947 
" style="fill:none;stroke:#000000;stroke-width:1.5;"/>
    <path clip-path="url(#p071c0defb0)" d="M 1249.5 548.458511 
L 1249.5 369.580659 
" style="fill:none;stroke:#000000;stroke-width:1.5;"/>
   </g>
   <g id="patch_45">
    <path d="M 180 619.0128 
L 180 83.4624 
" style="fill:none;stroke:#000000;stroke-linecap:square;stroke-linejoin:miter;stroke-width:0.8;"/>
   </g>
   <g id="patch_46">
    <path d="M 1296 619.0128 
L 1296 83.4624 
" style="fill:none;stroke:#000000;stroke-linecap:square;stroke-linejoin:miter;stroke-width:0.8;"/>
   </g>
   <g id="patch_47">
    <path d="M 180 619.0128 
L 1296 619.0128 
" style="fill:none;stroke:#000000;stroke-linecap:square;stroke-linejoin:miter;stroke-width:0.8;"/>
   </g>
   <g id="patch_48">
    <path d="M 180 83.4624 
L 1296 83.4624 
" style="fill:none;stroke:#000000;stroke-linecap:square;stroke-linejoin:miter;stroke-width:0.8;"/>
   </g>
   <g id="legend_1">
    <g id="patch_49">
     <path d="M 1138.285156 246.779275 
L 1284.1 246.779275 
Q 1287.5 246.779275 1287.5 243.379275 
L 1287.5 95.3624 
Q 1287.5 91.9624 1284.1 91.9624 
L 1138.285156 91.9624 
Q 1134.885156 91.9624 1134.885156 95.3624 
L 1134.885156 243.379275 
Q 1134.885156 246.779275 1138.285156 246.779275 
z
" style="fill:#ffffff;opacity:0.8;stroke:#cccccc;stroke-linejoin:miter;"/>
    </g>
    <g id="patch_50">
     <path d="M 1141.685156 111.679744 
L 1175.685156 111.679744 
L 1175.685156 99.779744 
L 1141.685156 99.779744 
z
" style="fill:#1f77b4;"/>
    </g>
    <g id="text_16">
     <!-- afl -->
     <g transform="translate(1189.285156 111.679744)scale(0.17 -0.17)">
      <use xlink:href="#DejaVuSans-97"/>
      <use x="61.279297" xlink:href="#DejaVuSans-102"/>
      <use x="96.484375" xlink:href="#DejaVuSans-108"/>
     </g>
    </g>
    <g id="patch_51">
     <path d="M 1141.685156 136.632556 
L 1175.685156 136.632556 
L 1175.685156 124.732556 
L 1141.685156 124.732556 
z
" style="fill:#ff7f0e;"/>
    </g>
    <g id="text_17">
     <!-- aflfast -->
     <g transform="translate(1189.285156 136.632556)scale(0.17 -0.17)">
      <use xlink:href="#DejaVuSans-97"/>
      <use x="61.279297" xlink:href="#DejaVuSans-102"/>
      <use x="96.484375" xlink:href="#DejaVuSans-108"/>
      <use x="124.267578" xlink:href="#DejaVuSans-102"/>
      <use x="159.472656" xlink:href="#DejaVuSans-97"/>
      <use x="220.751953" xlink:href="#DejaVuSans-115"/>
      <use x="272.851562" xlink:href="#DejaVuSans-116"/>
     </g>
    </g>
    <g id="patch_52">
     <path d="M 1141.685156 161.585369 
L 1175.685156 161.585369 
L 1175.685156 149.685369 
L 1141.685156 149.685369 
z
" style="fill:#2ca02c;"/>
    </g>
    <g id="text_18">
     <!-- aflplusplus -->
     <g transform="translate(1189.285156 161.585369)scale(0.17 -0.17)">
      <use xlink:href="#DejaVuSans-97"/>
      <use x="61.279297" xlink:href="#DejaVuSans-102"/>
      <use x="96.484375" xlink:href="#DejaVuSans-108"/>
      <use x="124.267578" xlink:href="#DejaVuSans-112"/>
      <use x="187.744141" xlink:href="#DejaVuSans-108"/>
      <use x="215.527344" xlink:href="#DejaVuSans-117"/>
      <use x="278.90625" xlink:href="#DejaVuSans-115"/>
      <use x="331.005859" xlink:href="#DejaVuSans-112"/>
      <use x="394.482422" xlink:href="#DejaVuSans-108"/>
      <use x="422.265625" xlink:href="#DejaVuSans-117"/>
      <use x="485.644531" xlink:href="#DejaVuSans-115"/>
     </g>
    </g>
    <g id="patch_53">
     <path d="M 1141.685156 186.538181 
L 1175.685156 186.538181 
L 1175.685156 174.638181 
L 1141.685156 174.638181 
z
" style="fill:#d62728;"/>
    </g>
    <g id="text_19">
     <!-- fairfuzz -->
     <defs>
      <path d="M 5.515625 54.6875 
L 48.1875 54.6875 
L 48.1875 46.484375 
L 14.40625 7.171875 
L 48.1875 7.171875 
L 48.1875 0 
L 4.296875 0 
L 4.296875 8.203125 
L 38.09375 47.515625 
L 5.515625 47.515625 
z
" id="DejaVuSans-122"/>
     </defs>
     <g transform="translate(1189.285156 186.538181)scale(0.17 -0.17)">
      <use xlink:href="#DejaVuSans-102"/>
      <use x="35.205078" xlink:href="#DejaVuSans-97"/>
      <use x="96.484375" xlink:href="#DejaVuSans-105"/>
      <use x="124.267578" xlink:href="#DejaVuSans-114"/>
      <use x="165.380859" xlink:href="#DejaVuSans-102"/>
      <use x="200.585938" xlink:href="#DejaVuSans-117"/>
      <use x="263.964844" xlink:href="#DejaVuSans-122"/>
      <use x="316.455078" xlink:href="#DejaVuSans-122"/>
     </g>
    </g>
    <g id="patch_54">
     <path d="M 1141.685156 211.490994 
L 1175.685156 211.490994 
L 1175.685156 199.590994 
L 1141.685156 199.590994 
z
" style="fill:#9467bd;"/>
    </g>
    <g id="text_20">
     <!-- honggfuzz -->
     <g transform="translate(1189.285156 211.490994)scale(0.17 -0.17)">
      <use xlink:href="#DejaVuSans-104"/>
      <use x="63.378906" xlink:href="#DejaVuSans-111"/>
      <use x="124.560547" xlink:href="#DejaVuSans-110"/>
      <use x="187.939453" xlink:href="#DejaVuSans-103"/>
      <use x="251.416016" xlink:href="#DejaVuSans-103"/>
      <use x="314.892578" xlink:href="#DejaVuSans-102"/>
      <use x="350.097656" xlink:href="#DejaVuSans-117"/>
      <use x="413.476562" xlink:href="#DejaVuSans-122"/>
      <use x="465.966797" xlink:href="#DejaVuSans-122"/>
     </g>
    </g>
    <g id="patch_55">
     <path d="M 1141.685156 236.443806 
L 1175.685156 236.443806 
L 1175.685156 224.543806 
L 1141.685156 224.543806 
z
" style="fill:#8c564b;"/>
    </g>
    <g id="text_21">
     <!-- moptafl -->
     <g transform="translate(1189.285156 236.443806)scale(0.17 -0.17)">
      <use xlink:href="#DejaVuSans-109"/>
      <use x="97.412109" xlink:href="#DejaVuSans-111"/>
      <use x="158.59375" xlink:href="#DejaVuSans-112"/>
      <use x="222.070312" xlink:href="#DejaVuSans-116"/>
      <use x="261.279297" xlink:href="#DejaVuSans-97"/>
      <use x="322.558594" xlink:href="#DejaVuSans-102"/>
      <use x="357.763672" xlink:href="#DejaVuSans-108"/>
     </g>
    </g>
   </g>
  </g>
 </g>
 <defs>
  <clipPath id="p071c0defb0">
   <rect height="535.5504" width="1116" x="180" y="83.4624"/>
  </clipPath>
 </defs>
</svg>
