<?xml version="1.0" standalone="no"?>
<!DOCTYPE svg PUBLIC "-//W3C//DTD SVG 20010904//EN"
 "http://www.w3.org/TR/2001/REC-SVG-20010904/DTD/svg10.dtd">
<svg version="1.0" xmlns="http://www.w3.org/2000/svg"
 width="1372.000000pt" height="1372.000000pt" viewBox="0 0 1372.000000 1372.000000"
 preserveAspectRatio="xMidYMid meet">
<metadata>
Created by potrace 1.14, written by Peter Selinger 2001-2017
</metadata>
<g transform="translate(0.000000,1372.000000) scale(0.100000,-0.100000)"
fill="#000000" stroke="none">
<path d="M3295 10312 c-3 -4 -10 -7 -13 -8 -73 -7 -189 -79 -261 -161 -50 -57
-118 -163 -105 -163 4 0 2 -6 -4 -12 -5 -7 -51 -112 -102 -233 -51 -121 -100
-238 -110 -260 -41 -94 -74 -170 -140 -330 -40 -93 -82 -193 -96 -221 -13 -28
-24 -55 -24 -61 0 -5 -13 -37 -30 -71 -16 -34 -30 -68 -30 -75 0 -7 -4 -17 -9
-23 -5 -5 -19 -31 -29 -59 -11 -27 -28 -68 -38 -90 -10 -22 -19 -44 -20 -50
-2 -9 -50 -121 -89 -210 -7 -16 -39 -91 -70 -165 -31 -74 -63 -149 -71 -167
-8 -17 -14 -36 -14 -42 0 -6 -4 -11 -10 -11 -5 0 -10 -6 -10 -14 0 -8 -23 -68
-51 -133 -70 -163 -72 -167 -74 -173 -1 -3 -7 -18 -15 -35 -34 -77 -52 -121
-114 -270 -37 -88 -71 -169 -76 -180 -22 -48 -51 -116 -85 -200 -21 -49 -41
-94 -45 -100 -4 -5 -13 -28 -20 -50 -7 -22 -16 -44 -20 -50 -4 -5 -14 -28 -23
-50 -8 -22 -26 -62 -38 -90 -13 -27 -24 -54 -25 -60 -1 -5 -18 -48 -38 -94
-20 -47 -44 -101 -52 -120 -9 -20 -21 -49 -29 -66 -7 -16 -32 -75 -55 -130
-23 -55 -55 -129 -70 -165 -24 -55 -36 -86 -45 -110 -8 -22 -38 -90 -49 -110
-8 -14 -15 -29 -16 -35 -4 -14 -12 -35 -60 -145 -23 -52 -43 -103 -45 -114 -3
-10 -8 -23 -13 -30 -4 -6 -23 -47 -41 -91 -50 -120 -57 -137 -77 -180 -10 -22
-19 -42 -19 -45 0 -3 -47 -100 -105 -215 -57 -116 -104 -212 -105 -215 0 -3
-5 -12 -10 -20 -20 -31 -155 -309 -155 -318 0 -6 -3 -12 -7 -14 -9 -4 -323
-633 -323 -647 0 -5 -3 -11 -7 -13 -5 -1 -32 -51 -60 -110 l-53 -108 1899 0
1899 0 86 173 c47 94 86 176 85 181 0 5 3 12 8 15 5 3 194 377 420 831 441
882 445 889 555 963 90 59 178 84 288 81 114 -3 109 -2 210 -47 45 -19 120
-74 152 -112 51 -59 68 -81 68 -92 0 -7 4 -13 10 -13 5 0 9 -3 8 -7 -1 -5 3
-17 9 -29 7 -11 14 -32 17 -45 3 -13 9 -37 14 -54 9 -31 8 -182 -2 -225 -8
-33 -10 -40 -104 -231 -45 -91 -82 -170 -82 -176 0 -6 -3 -13 -7 -15 -10 -4
-53 -90 -53 -105 0 -6 -3 -13 -7 -15 -5 -1 -27 -41 -50 -88 -200 -407 -309
-626 -315 -628 -5 -2 -8 -8 -8 -14 0 -6 -38 -86 -85 -179 l-86 -169 1930 0
1929 0 -11 30 c-6 16 -15 30 -19 30 -4 0 -8 4 -8 10 0 5 -160 330 -356 722
-196 392 -367 742 -381 778 -67 174 -19 393 117 526 126 125 286 172 470 139
73 -13 176 -71 242 -136 58 -58 75 -85 172 -279 59 -118 113 -221 119 -229 7
-8 11 -16 9 -18 -3 -4 216 -448 226 -458 4 -4 7 -10 7 -13 0 -4 123 -253 273
-554 l273 -548 1900 0 1899 0 -98 198 c-53 108 -100 199 -104 200 -5 2 -8 8
-8 14 0 5 -137 284 -305 620 -168 336 -305 616 -305 623 0 8 -4 15 -8 17 -8 3
-182 350 -182 362 0 4 -9 25 -19 49 -11 23 -34 76 -51 117 -17 41 -38 89 -45
105 -13 29 -37 85 -40 95 -5 14 -29 71 -83 195 -16 39 -60 142 -97 230 -37 88
-76 178 -86 199 -11 22 -19 43 -19 48 0 4 -13 37 -30 71 -16 35 -30 66 -30 69
0 3 -12 32 -26 64 -14 33 -26 61 -26 64 0 3 -6 16 -13 30 -15 29 -32 69 -69
160 -15 36 -31 73 -36 82 -6 10 -10 25 -10 33 0 8 -4 15 -10 15 -5 0 -10 6
-10 13 0 11 -102 260 -144 352 -29 64 -46 103 -46 109 0 5 -9 27 -74 169 -14
32 -26 60 -26 63 0 6 -9 26 -50 119 -21 47 -41 95 -45 105 -7 21 -20 52 -37
90 -11 25 -24 54 -29 65 -4 11 -21 50 -38 88 -16 37 -28 67 -26 67 3 0 -4 17
-14 38 -11 20 -38 82 -61 137 -23 55 -48 114 -55 130 -8 17 -26 59 -40 95 -15
36 -35 83 -45 105 -28 64 -33 80 -32 88 1 4 -2 7 -8 7 -5 0 -10 6 -10 13 0 7
-22 64 -50 127 -27 63 -50 120 -50 127 0 7 -5 13 -10 13 -6 0 -9 3 -8 8 1 7
-1 14 -54 141 -18 42 -31 79 -30 84 1 4 -2 7 -8 7 -5 0 -10 8 -10 18 0 10 -4
22 -8 27 -5 6 -16 29 -25 52 -9 23 -25 61 -35 85 -30 67 -57 132 -58 138 0 3
-13 31 -27 63 -15 32 -27 60 -27 62 0 7 -50 117 -72 160 -77 145 -223 258
-367 285 -33 6 -399 10 -960 10 -996 0 -964 2 -1081 -61 -60 -32 -141 -104
-203 -181 -33 -40 -42 -46 -61 -38 -13 4 -29 4 -36 0 -8 -5 -21 -5 -29 -1 -9
5 -25 5 -36 1 -11 -4 -28 -4 -37 1 -10 6 -19 5 -23 -1 -4 -6 -15 -6 -30 0 -14
5 -25 6 -25 2 0 -8 -68 -8 -76 1 -3 3 -17 2 -30 -3 -13 -5 -26 -6 -29 0 -3 5
-18 5 -33 0 -16 -4 -36 -4 -45 1 -9 6 -18 5 -21 0 -4 -6 -18 -6 -36 -1 -17 5
-30 5 -30 0 0 -5 -12 -5 -28 -1 -15 5 -37 5 -49 0 -13 -5 -25 -4 -28 1 -3 6
-15 6 -29 0 -13 -5 -26 -6 -29 -4 -9 10 -57 12 -63 3 -2 -5 -16 -4 -29 1 -14
5 -25 6 -25 2 0 -4 -13 -7 -30 -7 -16 0 -30 3 -30 7 0 4 -12 3 -28 -1 -15 -5
-37 -4 -50 0 -14 5 -22 5 -22 -2 0 -6 -5 -7 -10 -4 -14 9 -108 10 -116 2 -3
-3 -17 -2 -30 3 -14 6 -26 6 -29 0 -3 -5 -15 -6 -29 0 -12 4 -29 4 -36 0 -8
-5 -22 -4 -31 1 -11 6 -20 5 -24 -1 -3 -6 -15 -6 -29 0 -13 5 -27 6 -30 2 -8
-8 -92 -6 -106 3 -5 3 -10 3 -10 -2 0 -4 -13 -8 -30 -8 -16 0 -30 2 -30 5 0 3
-16 5 -35 5 -19 0 -35 -3 -35 -7 0 -3 -12 -3 -27 1 -14 4 -48 4 -74 1 -26 -3
-56 -3 -68 1 -11 5 -23 4 -26 -1 -3 -5 -12 -7 -19 -4 -23 9 -106 9 -106 1 0
-5 -4 -5 -10 -2 -13 8 -118 10 -126 2 -3 -3 -17 -2 -30 3 -13 5 -24 6 -24 2 0
-4 -13 -7 -30 -7 -16 0 -30 3 -30 7 0 4 -12 3 -28 -1 -15 -5 -37 -4 -50 0 -14
5 -22 5 -22 -2 0 -6 -5 -7 -10 -4 -14 9 -108 10 -116 2 -3 -3 -17 -2 -30 3
-14 6 -26 6 -29 -1 -4 -5 -11 -6 -17 -3 -6 4 -24 7 -41 6 -21 -1 -36 7 -51 26
-39 51 -151 162 -163 162 -6 0 -13 3 -15 8 -4 9 -83 52 -105 57 -10 2 -40 8
-66 14 -54 13 -1899 15 -1912 3z m3744 -1541 c-57 -67 -108 -121 -113 -121 -5
0 -1 8 10 19 10 10 60 65 109 123 50 58 92 104 94 102 1 -1 -43 -57 -100 -123z
m-124 -141 c-3 -5 -12 -10 -18 -10 -7 0 -6 4 3 10 19 12 23 12 15 0z"/>
</g>
</svg>
