<?xml version="1.0" encoding="utf-8" standalone="no"?>
<!DOCTYPE svg PUBLIC "-//W3C//DTD SVG 1.1//EN"
  "http://www.w3.org/Graphics/SVG/1.1/DTD/svg11.dtd">
<!-- Created with matplotlib (https://matplotlib.org/) -->
<svg height="720pt" version="1.1" viewBox="0 0 864 720" width="864pt" xmlns="http://www.w3.org/2000/svg" xmlns:xlink="http://www.w3.org/1999/xlink">
 <defs>
  <style type="text/css">
*{stroke-linecap:butt;stroke-linejoin:round;}
  </style>
 </defs>
 <g id="figure_1">
  <g id="patch_1">
   <path d="M 0 720 
L 864 720 
L 864 0 
L 0 0 
z
" style="fill:#ffffff;"/>
  </g>
  <g id="axes_1">
   <g id="patch_2">
    <path d="M 108 640.8 
L 777.6 640.8 
L 777.6 86.4 
L 108 86.4 
z
" style="fill:#ffffff;"/>
   </g>
   <g id="patch_3">
    <path clip-path="url(#pdb7102de7b)" d="M 119.16 640.8 
L 120.334737 640.8 
L 120.334737 629.613559 
L 119.16 629.613559 
z
" style="fill:#1f77b4;"/>
   </g>
   <g id="patch_4">
    <path clip-path="url(#pdb7102de7b)" d="M 163.8 640.8 
L 164.974737 640.8 
L 164.974737 631.850847 
L 163.8 631.850847 
z
" style="fill:#1f77b4;"/>
   </g>
   <g id="patch_5">
    <path clip-path="url(#pdb7102de7b)" d="M 208.44 640.8 
L 209.614737 640.8 
L 209.614737 636.325424 
L 208.44 636.325424 
z
" style="fill:#1f77b4;"/>
   </g>
   <g id="patch_6">
    <path clip-path="url(#pdb7102de7b)" d="M 253.08 640.8 
L 254.254737 640.8 
L 254.254737 625.138983 
L 253.08 625.138983 
z
" style="fill:#1f77b4;"/>
   </g>
   <g id="patch_7">
    <path clip-path="url(#pdb7102de7b)" d="M 297.72 640.8 
L 298.894737 640.8 
L 298.894737 638.562712 
L 297.72 638.562712 
z
" style="fill:#1f77b4;"/>
   </g>
   <g id="patch_8">
    <path clip-path="url(#pdb7102de7b)" d="M 342.36 640.8 
L 343.534737 640.8 
L 343.534737 611.715254 
L 342.36 611.715254 
z
" style="fill:#1f77b4;"/>
   </g>
   <g id="patch_9">
    <path clip-path="url(#pdb7102de7b)" d="M 387 640.8 
L 388.174737 640.8 
L 388.174737 634.088136 
L 387 634.088136 
z
" style="fill:#1f77b4;"/>
   </g>
   <g id="patch_10">
    <path clip-path="url(#pdb7102de7b)" d="M 431.64 640.8 
L 432.814737 640.8 
L 432.814737 636.325424 
L 431.64 636.325424 
z
" style="fill:#1f77b4;"/>
   </g>
   <g id="patch_11">
    <path clip-path="url(#pdb7102de7b)" d="M 476.28 640.8 
L 477.454737 640.8 
L 477.454737 636.325424 
L 476.28 636.325424 
z
" style="fill:#1f77b4;"/>
   </g>
   <g id="patch_12">
    <path clip-path="url(#pdb7102de7b)" d="M 520.92 640.8 
L 522.094737 640.8 
L 522.094737 622.901695 
L 520.92 622.901695 
z
" style="fill:#1f77b4;"/>
   </g>
   <g id="patch_13">
    <path clip-path="url(#pdb7102de7b)" d="M 565.56 640.8 
L 566.734737 640.8 
L 566.734737 636.325424 
L 565.56 636.325424 
z
" style="fill:#1f77b4;"/>
   </g>
   <g id="patch_14">
    <path clip-path="url(#pdb7102de7b)" d="M 610.2 640.8 
L 611.374737 640.8 
L 611.374737 636.325424 
L 610.2 636.325424 
z
" style="fill:#1f77b4;"/>
   </g>
   <g id="patch_15">
    <path clip-path="url(#pdb7102de7b)" d="M 654.84 640.8 
L 656.014737 640.8 
L 656.014737 634.088136 
L 654.84 634.088136 
z
" style="fill:#1f77b4;"/>
   </g>
   <g id="patch_16">
    <path clip-path="url(#pdb7102de7b)" d="M 699.48 640.8 
L 700.654737 640.8 
L 700.654737 629.613559 
L 699.48 629.613559 
z
" style="fill:#1f77b4;"/>
   </g>
   <g id="patch_17">
    <path clip-path="url(#pdb7102de7b)" d="M 744.12 640.8 
L 745.294737 640.8 
L 745.294737 629.613559 
L 744.12 629.613559 
z
" style="fill:#1f77b4;"/>
   </g>
   <g id="patch_18">
    <path clip-path="url(#pdb7102de7b)" d="M 120.334737 640.8 
L 121.509474 640.8 
L 121.509474 629.613559 
L 120.334737 629.613559 
z
" style="fill:#ff7f0e;"/>
   </g>
   <g id="patch_19">
    <path clip-path="url(#pdb7102de7b)" d="M 164.974737 640.8 
L 166.149474 640.8 
L 166.149474 631.850847 
L 164.974737 631.850847 
z
" style="fill:#ff7f0e;"/>
   </g>
   <g id="patch_20">
    <path clip-path="url(#pdb7102de7b)" d="M 209.614737 640.8 
L 210.789474 640.8 
L 210.789474 636.325424 
L 209.614737 636.325424 
z
" style="fill:#ff7f0e;"/>
   </g>
   <g id="patch_21">
    <path clip-path="url(#pdb7102de7b)" d="M 254.254737 640.8 
L 255.429474 640.8 
L 255.429474 625.138983 
L 254.254737 625.138983 
z
" style="fill:#ff7f0e;"/>
   </g>
   <g id="patch_22">
    <path clip-path="url(#pdb7102de7b)" d="M 298.894737 640.8 
L 300.069474 640.8 
L 300.069474 638.562712 
L 298.894737 638.562712 
z
" style="fill:#ff7f0e;"/>
   </g>
   <g id="patch_23">
    <path clip-path="url(#pdb7102de7b)" d="M 343.534737 640.8 
L 344.709474 640.8 
L 344.709474 611.715254 
L 343.534737 611.715254 
z
" style="fill:#ff7f0e;"/>
   </g>
   <g id="patch_24">
    <path clip-path="url(#pdb7102de7b)" d="M 388.174737 640.8 
L 389.349474 640.8 
L 389.349474 634.088136 
L 388.174737 634.088136 
z
" style="fill:#ff7f0e;"/>
   </g>
   <g id="patch_25">
    <path clip-path="url(#pdb7102de7b)" d="M 432.814737 640.8 
L 433.989474 640.8 
L 433.989474 636.325424 
L 432.814737 636.325424 
z
" style="fill:#ff7f0e;"/>
   </g>
   <g id="patch_26">
    <path clip-path="url(#pdb7102de7b)" d="M 477.454737 640.8 
L 478.629474 640.8 
L 478.629474 636.325424 
L 477.454737 636.325424 
z
" style="fill:#ff7f0e;"/>
   </g>
   <g id="patch_27">
    <path clip-path="url(#pdb7102de7b)" d="M 522.094737 640.8 
L 523.269474 640.8 
L 523.269474 622.901695 
L 522.094737 622.901695 
z
" style="fill:#ff7f0e;"/>
   </g>
   <g id="patch_28">
    <path clip-path="url(#pdb7102de7b)" d="M 566.734737 640.8 
L 567.909474 640.8 
L 567.909474 636.325424 
L 566.734737 636.325424 
z
" style="fill:#ff7f0e;"/>
   </g>
   <g id="patch_29">
    <path clip-path="url(#pdb7102de7b)" d="M 611.374737 640.8 
L 612.549474 640.8 
L 612.549474 636.325424 
L 611.374737 636.325424 
z
" style="fill:#ff7f0e;"/>
   </g>
   <g id="patch_30">
    <path clip-path="url(#pdb7102de7b)" d="M 656.014737 640.8 
L 657.189474 640.8 
L 657.189474 634.088136 
L 656.014737 634.088136 
z
" style="fill:#ff7f0e;"/>
   </g>
   <g id="patch_31">
    <path clip-path="url(#pdb7102de7b)" d="M 700.654737 640.8 
L 701.829474 640.8 
L 701.829474 629.613559 
L 700.654737 629.613559 
z
" style="fill:#ff7f0e;"/>
   </g>
   <g id="patch_32">
    <path clip-path="url(#pdb7102de7b)" d="M 745.294737 640.8 
L 746.469474 640.8 
L 746.469474 629.613559 
L 745.294737 629.613559 
z
" style="fill:#ff7f0e;"/>
   </g>
   <g id="patch_33">
    <path clip-path="url(#pdb7102de7b)" d="M 121.509474 640.8 
L 122.684211 640.8 
L 122.684211 629.613559 
L 121.509474 629.613559 
z
" style="fill:#2ca02c;"/>
   </g>
   <g id="patch_34">
    <path clip-path="url(#pdb7102de7b)" d="M 166.149474 640.8 
L 167.324211 640.8 
L 167.324211 631.850847 
L 166.149474 631.850847 
z
" style="fill:#2ca02c;"/>
   </g>
   <g id="patch_35">
    <path clip-path="url(#pdb7102de7b)" d="M 210.789474 640.8 
L 211.964211 640.8 
L 211.964211 636.325424 
L 210.789474 636.325424 
z
" style="fill:#2ca02c;"/>
   </g>
   <g id="patch_36">
    <path clip-path="url(#pdb7102de7b)" d="M 255.429474 640.8 
L 256.604211 640.8 
L 256.604211 625.138983 
L 255.429474 625.138983 
z
" style="fill:#2ca02c;"/>
   </g>
   <g id="patch_37">
    <path clip-path="url(#pdb7102de7b)" d="M 300.069474 640.8 
L 301.244211 640.8 
L 301.244211 638.562712 
L 300.069474 638.562712 
z
" style="fill:#2ca02c;"/>
   </g>
   <g id="patch_38">
    <path clip-path="url(#pdb7102de7b)" d="M 344.709474 640.8 
L 345.884211 640.8 
L 345.884211 611.715254 
L 344.709474 611.715254 
z
" style="fill:#2ca02c;"/>
   </g>
   <g id="patch_39">
    <path clip-path="url(#pdb7102de7b)" d="M 389.349474 640.8 
L 390.524211 640.8 
L 390.524211 634.088136 
L 389.349474 634.088136 
z
" style="fill:#2ca02c;"/>
   </g>
   <g id="patch_40">
    <path clip-path="url(#pdb7102de7b)" d="M 433.989474 640.8 
L 435.164211 640.8 
L 435.164211 636.325424 
L 433.989474 636.325424 
z
" style="fill:#2ca02c;"/>
   </g>
   <g id="patch_41">
    <path clip-path="url(#pdb7102de7b)" d="M 478.629474 640.8 
L 479.804211 640.8 
L 479.804211 636.325424 
L 478.629474 636.325424 
z
" style="fill:#2ca02c;"/>
   </g>
   <g id="patch_42">
    <path clip-path="url(#pdb7102de7b)" d="M 523.269474 640.8 
L 524.444211 640.8 
L 524.444211 622.901695 
L 523.269474 622.901695 
z
" style="fill:#2ca02c;"/>
   </g>
   <g id="patch_43">
    <path clip-path="url(#pdb7102de7b)" d="M 567.909474 640.8 
L 569.084211 640.8 
L 569.084211 636.325424 
L 567.909474 636.325424 
z
" style="fill:#2ca02c;"/>
   </g>
   <g id="patch_44">
    <path clip-path="url(#pdb7102de7b)" d="M 612.549474 640.8 
L 613.724211 640.8 
L 613.724211 636.325424 
L 612.549474 636.325424 
z
" style="fill:#2ca02c;"/>
   </g>
   <g id="patch_45">
    <path clip-path="url(#pdb7102de7b)" d="M 657.189474 640.8 
L 658.364211 640.8 
L 658.364211 634.088136 
L 657.189474 634.088136 
z
" style="fill:#2ca02c;"/>
   </g>
   <g id="patch_46">
    <path clip-path="url(#pdb7102de7b)" d="M 701.829474 640.8 
L 703.004211 640.8 
L 703.004211 629.613559 
L 701.829474 629.613559 
z
" style="fill:#2ca02c;"/>
   </g>
   <g id="patch_47">
    <path clip-path="url(#pdb7102de7b)" d="M 746.469474 640.8 
L 747.644211 640.8 
L 747.644211 629.613559 
L 746.469474 629.613559 
z
" style="fill:#2ca02c;"/>
   </g>
   <g id="patch_48">
    <path clip-path="url(#pdb7102de7b)" d="M 122.684211 640.8 
L 123.858947 640.8 
L 123.858947 629.613559 
L 122.684211 629.613559 
z
" style="fill:#d62728;"/>
   </g>
   <g id="patch_49">
    <path clip-path="url(#pdb7102de7b)" d="M 167.324211 640.8 
L 168.498947 640.8 
L 168.498947 631.850847 
L 167.324211 631.850847 
z
" style="fill:#d62728;"/>
   </g>
   <g id="patch_50">
    <path clip-path="url(#pdb7102de7b)" d="M 211.964211 640.8 
L 213.138947 640.8 
L 213.138947 636.325424 
L 211.964211 636.325424 
z
" style="fill:#d62728;"/>
   </g>
   <g id="patch_51">
    <path clip-path="url(#pdb7102de7b)" d="M 256.604211 640.8 
L 257.778947 640.8 
L 257.778947 625.138983 
L 256.604211 625.138983 
z
" style="fill:#d62728;"/>
   </g>
   <g id="patch_52">
    <path clip-path="url(#pdb7102de7b)" d="M 301.244211 640.8 
L 302.418947 640.8 
L 302.418947 638.562712 
L 301.244211 638.562712 
z
" style="fill:#d62728;"/>
   </g>
   <g id="patch_53">
    <path clip-path="url(#pdb7102de7b)" d="M 345.884211 640.8 
L 347.058947 640.8 
L 347.058947 611.715254 
L 345.884211 611.715254 
z
" style="fill:#d62728;"/>
   </g>
   <g id="patch_54">
    <path clip-path="url(#pdb7102de7b)" d="M 390.524211 640.8 
L 391.698947 640.8 
L 391.698947 634.088136 
L 390.524211 634.088136 
z
" style="fill:#d62728;"/>
   </g>
   <g id="patch_55">
    <path clip-path="url(#pdb7102de7b)" d="M 435.164211 640.8 
L 436.338947 640.8 
L 436.338947 636.325424 
L 435.164211 636.325424 
z
" style="fill:#d62728;"/>
   </g>
   <g id="patch_56">
    <path clip-path="url(#pdb7102de7b)" d="M 479.804211 640.8 
L 480.978947 640.8 
L 480.978947 636.325424 
L 479.804211 636.325424 
z
" style="fill:#d62728;"/>
   </g>
   <g id="patch_57">
    <path clip-path="url(#pdb7102de7b)" d="M 524.444211 640.8 
L 525.618947 640.8 
L 525.618947 622.901695 
L 524.444211 622.901695 
z
" style="fill:#d62728;"/>
   </g>
   <g id="patch_58">
    <path clip-path="url(#pdb7102de7b)" d="M 569.084211 640.8 
L 570.258947 640.8 
L 570.258947 636.325424 
L 569.084211 636.325424 
z
" style="fill:#d62728;"/>
   </g>
   <g id="patch_59">
    <path clip-path="url(#pdb7102de7b)" d="M 613.724211 640.8 
L 614.898947 640.8 
L 614.898947 636.325424 
L 613.724211 636.325424 
z
" style="fill:#d62728;"/>
   </g>
   <g id="patch_60">
    <path clip-path="url(#pdb7102de7b)" d="M 658.364211 640.8 
L 659.538947 640.8 
L 659.538947 634.088136 
L 658.364211 634.088136 
z
" style="fill:#d62728;"/>
   </g>
   <g id="patch_61">
    <path clip-path="url(#pdb7102de7b)" d="M 703.004211 640.8 
L 704.178947 640.8 
L 704.178947 629.613559 
L 703.004211 629.613559 
z
" style="fill:#d62728;"/>
   </g>
   <g id="patch_62">
    <path clip-path="url(#pdb7102de7b)" d="M 747.644211 640.8 
L 748.818947 640.8 
L 748.818947 629.613559 
L 747.644211 629.613559 
z
" style="fill:#d62728;"/>
   </g>
   <g id="patch_63">
    <path clip-path="url(#pdb7102de7b)" d="M 123.858947 640.8 
L 125.033684 640.8 
L 125.033684 629.613559 
L 123.858947 629.613559 
z
" style="fill:#9467bd;"/>
   </g>
   <g id="patch_64">
    <path clip-path="url(#pdb7102de7b)" d="M 168.498947 640.8 
L 169.673684 640.8 
L 169.673684 613.952542 
L 168.498947 613.952542 
z
" style="fill:#9467bd;"/>
   </g>
   <g id="patch_65">
    <path clip-path="url(#pdb7102de7b)" d="M 213.138947 640.8 
L 214.313684 640.8 
L 214.313684 636.325424 
L 213.138947 636.325424 
z
" style="fill:#9467bd;"/>
   </g>
   <g id="patch_66">
    <path clip-path="url(#pdb7102de7b)" d="M 257.778947 640.8 
L 258.953684 640.8 
L 258.953684 627.376271 
L 257.778947 627.376271 
z
" style="fill:#9467bd;"/>
   </g>
   <g id="patch_67">
    <path clip-path="url(#pdb7102de7b)" d="M 302.418947 640.8 
L 303.593684 640.8 
L 303.593684 638.562712 
L 302.418947 638.562712 
z
" style="fill:#9467bd;"/>
   </g>
   <g id="patch_68">
    <path clip-path="url(#pdb7102de7b)" d="M 347.058947 640.8 
L 348.233684 640.8 
L 348.233684 616.189831 
L 347.058947 616.189831 
z
" style="fill:#9467bd;"/>
   </g>
   <g id="patch_69">
    <path clip-path="url(#pdb7102de7b)" d="M 391.698947 640.8 
L 392.873684 640.8 
L 392.873684 634.088136 
L 391.698947 634.088136 
z
" style="fill:#9467bd;"/>
   </g>
   <g id="patch_70">
    <path clip-path="url(#pdb7102de7b)" d="M 436.338947 640.8 
L 437.513684 640.8 
L 437.513684 636.325424 
L 436.338947 636.325424 
z
" style="fill:#9467bd;"/>
   </g>
   <g id="patch_71">
    <path clip-path="url(#pdb7102de7b)" d="M 480.978947 640.8 
L 482.153684 640.8 
L 482.153684 636.325424 
L 480.978947 636.325424 
z
" style="fill:#9467bd;"/>
   </g>
   <g id="patch_72">
    <path clip-path="url(#pdb7102de7b)" d="M 525.618947 640.8 
L 526.793684 640.8 
L 526.793684 622.901695 
L 525.618947 622.901695 
z
" style="fill:#9467bd;"/>
   </g>
   <g id="patch_73">
    <path clip-path="url(#pdb7102de7b)" d="M 570.258947 640.8 
L 571.433684 640.8 
L 571.433684 636.325424 
L 570.258947 636.325424 
z
" style="fill:#9467bd;"/>
   </g>
   <g id="patch_74">
    <path clip-path="url(#pdb7102de7b)" d="M 614.898947 640.8 
L 616.073684 640.8 
L 616.073684 636.325424 
L 614.898947 636.325424 
z
" style="fill:#9467bd;"/>
   </g>
   <g id="patch_75">
    <path clip-path="url(#pdb7102de7b)" d="M 659.538947 640.8 
L 660.713684 640.8 
L 660.713684 634.088136 
L 659.538947 634.088136 
z
" style="fill:#9467bd;"/>
   </g>
   <g id="patch_76">
    <path clip-path="url(#pdb7102de7b)" d="M 704.178947 640.8 
L 705.353684 640.8 
L 705.353684 629.613559 
L 704.178947 629.613559 
z
" style="fill:#9467bd;"/>
   </g>
   <g id="patch_77">
    <path clip-path="url(#pdb7102de7b)" d="M 748.818947 640.8 
L 749.993684 640.8 
L 749.993684 629.613559 
L 748.818947 629.613559 
z
" style="fill:#9467bd;"/>
   </g>
   <g id="patch_78">
    <path clip-path="url(#pdb7102de7b)" d="M 125.033684 640.8 
L 126.208421 640.8 
L 126.208421 629.613559 
L 125.033684 629.613559 
z
" style="fill:#8c564b;"/>
   </g>
   <g id="patch_79">
    <path clip-path="url(#pdb7102de7b)" d="M 169.673684 640.8 
L 170.848421 640.8 
L 170.848421 611.715254 
L 169.673684 611.715254 
z
" style="fill:#8c564b;"/>
   </g>
   <g id="patch_80">
    <path clip-path="url(#pdb7102de7b)" d="M 214.313684 640.8 
L 215.488421 640.8 
L 215.488421 636.325424 
L 214.313684 636.325424 
z
" style="fill:#8c564b;"/>
   </g>
   <g id="patch_81">
    <path clip-path="url(#pdb7102de7b)" d="M 258.953684 640.8 
L 260.128421 640.8 
L 260.128421 627.376271 
L 258.953684 627.376271 
z
" style="fill:#8c564b;"/>
   </g>
   <g id="patch_82">
    <path clip-path="url(#pdb7102de7b)" d="M 303.593684 640.8 
L 304.768421 640.8 
L 304.768421 638.562712 
L 303.593684 638.562712 
z
" style="fill:#8c564b;"/>
   </g>
   <g id="patch_83">
    <path clip-path="url(#pdb7102de7b)" d="M 348.233684 640.8 
L 349.408421 640.8 
L 349.408421 616.189831 
L 348.233684 616.189831 
z
" style="fill:#8c564b;"/>
   </g>
   <g id="patch_84">
    <path clip-path="url(#pdb7102de7b)" d="M 392.873684 640.8 
L 394.048421 640.8 
L 394.048421 634.088136 
L 392.873684 634.088136 
z
" style="fill:#8c564b;"/>
   </g>
   <g id="patch_85">
    <path clip-path="url(#pdb7102de7b)" d="M 437.513684 640.8 
L 438.688421 640.8 
L 438.688421 636.325424 
L 437.513684 636.325424 
z
" style="fill:#8c564b;"/>
   </g>
   <g id="patch_86">
    <path clip-path="url(#pdb7102de7b)" d="M 482.153684 640.8 
L 483.328421 640.8 
L 483.328421 636.325424 
L 482.153684 636.325424 
z
" style="fill:#8c564b;"/>
   </g>
   <g id="patch_87">
    <path clip-path="url(#pdb7102de7b)" d="M 526.793684 640.8 
L 527.968421 640.8 
L 527.968421 620.664407 
L 526.793684 620.664407 
z
" style="fill:#8c564b;"/>
   </g>
   <g id="patch_88">
    <path clip-path="url(#pdb7102de7b)" d="M 571.433684 640.8 
L 572.608421 640.8 
L 572.608421 636.325424 
L 571.433684 636.325424 
z
" style="fill:#8c564b;"/>
   </g>
   <g id="patch_89">
    <path clip-path="url(#pdb7102de7b)" d="M 616.073684 640.8 
L 617.248421 640.8 
L 617.248421 636.325424 
L 616.073684 636.325424 
z
" style="fill:#8c564b;"/>
   </g>
   <g id="patch_90">
    <path clip-path="url(#pdb7102de7b)" d="M 660.713684 640.8 
L 661.888421 640.8 
L 661.888421 634.088136 
L 660.713684 634.088136 
z
" style="fill:#8c564b;"/>
   </g>
   <g id="patch_91">
    <path clip-path="url(#pdb7102de7b)" d="M 705.353684 640.8 
L 706.528421 640.8 
L 706.528421 629.613559 
L 705.353684 629.613559 
z
" style="fill:#8c564b;"/>
   </g>
   <g id="patch_92">
    <path clip-path="url(#pdb7102de7b)" d="M 749.993684 640.8 
L 751.168421 640.8 
L 751.168421 629.613559 
L 749.993684 629.613559 
z
" style="fill:#8c564b;"/>
   </g>
   <g id="patch_93">
    <path clip-path="url(#pdb7102de7b)" d="M 126.208421 640.8 
L 127.383158 640.8 
L 127.383158 629.613559 
L 126.208421 629.613559 
z
" style="fill:#e377c2;"/>
   </g>
   <g id="patch_94">
    <path clip-path="url(#pdb7102de7b)" d="M 170.848421 640.8 
L 172.023158 640.8 
L 172.023158 611.715254 
L 170.848421 611.715254 
z
" style="fill:#e377c2;"/>
   </g>
   <g id="patch_95">
    <path clip-path="url(#pdb7102de7b)" d="M 215.488421 640.8 
L 216.663158 640.8 
L 216.663158 636.325424 
L 215.488421 636.325424 
z
" style="fill:#e377c2;"/>
   </g>
   <g id="patch_96">
    <path clip-path="url(#pdb7102de7b)" d="M 260.128421 640.8 
L 261.303158 640.8 
L 261.303158 627.376271 
L 260.128421 627.376271 
z
" style="fill:#e377c2;"/>
   </g>
   <g id="patch_97">
    <path clip-path="url(#pdb7102de7b)" d="M 304.768421 640.8 
L 305.943158 640.8 
L 305.943158 638.562712 
L 304.768421 638.562712 
z
" style="fill:#e377c2;"/>
   </g>
   <g id="patch_98">
    <path clip-path="url(#pdb7102de7b)" d="M 349.408421 640.8 
L 350.583158 640.8 
L 350.583158 616.189831 
L 349.408421 616.189831 
z
" style="fill:#e377c2;"/>
   </g>
   <g id="patch_99">
    <path clip-path="url(#pdb7102de7b)" d="M 394.048421 640.8 
L 395.223158 640.8 
L 395.223158 634.088136 
L 394.048421 634.088136 
z
" style="fill:#e377c2;"/>
   </g>
   <g id="patch_100">
    <path clip-path="url(#pdb7102de7b)" d="M 438.688421 640.8 
L 439.863158 640.8 
L 439.863158 636.325424 
L 438.688421 636.325424 
z
" style="fill:#e377c2;"/>
   </g>
   <g id="patch_101">
    <path clip-path="url(#pdb7102de7b)" d="M 483.328421 640.8 
L 484.503158 640.8 
L 484.503158 636.325424 
L 483.328421 636.325424 
z
" style="fill:#e377c2;"/>
   </g>
   <g id="patch_102">
    <path clip-path="url(#pdb7102de7b)" d="M 527.968421 640.8 
L 529.143158 640.8 
L 529.143158 620.664407 
L 527.968421 620.664407 
z
" style="fill:#e377c2;"/>
   </g>
   <g id="patch_103">
    <path clip-path="url(#pdb7102de7b)" d="M 572.608421 640.8 
L 573.783158 640.8 
L 573.783158 636.325424 
L 572.608421 636.325424 
z
" style="fill:#e377c2;"/>
   </g>
   <g id="patch_104">
    <path clip-path="url(#pdb7102de7b)" d="M 617.248421 640.8 
L 618.423158 640.8 
L 618.423158 636.325424 
L 617.248421 636.325424 
z
" style="fill:#e377c2;"/>
   </g>
   <g id="patch_105">
    <path clip-path="url(#pdb7102de7b)" d="M 661.888421 640.8 
L 663.063158 640.8 
L 663.063158 640.8 
L 661.888421 640.8 
z
" style="fill:#e377c2;"/>
   </g>
   <g id="patch_106">
    <path clip-path="url(#pdb7102de7b)" d="M 706.528421 640.8 
L 707.703158 640.8 
L 707.703158 640.8 
L 706.528421 640.8 
z
" style="fill:#e377c2;"/>
   </g>
   <g id="patch_107">
    <path clip-path="url(#pdb7102de7b)" d="M 751.168421 640.8 
L 752.343158 640.8 
L 752.343158 640.8 
L 751.168421 640.8 
z
" style="fill:#e377c2;"/>
   </g>
   <g id="patch_108">
    <path clip-path="url(#pdb7102de7b)" d="M 127.383158 640.8 
L 128.557895 640.8 
L 128.557895 629.613559 
L 127.383158 629.613559 
z
" style="fill:#7f7f7f;"/>
   </g>
   <g id="patch_109">
    <path clip-path="url(#pdb7102de7b)" d="M 172.023158 640.8 
L 173.197895 640.8 
L 173.197895 611.715254 
L 172.023158 611.715254 
z
" style="fill:#7f7f7f;"/>
   </g>
   <g id="patch_110">
    <path clip-path="url(#pdb7102de7b)" d="M 216.663158 640.8 
L 217.837895 640.8 
L 217.837895 636.325424 
L 216.663158 636.325424 
z
" style="fill:#7f7f7f;"/>
   </g>
   <g id="patch_111">
    <path clip-path="url(#pdb7102de7b)" d="M 261.303158 640.8 
L 262.477895 640.8 
L 262.477895 625.138983 
L 261.303158 625.138983 
z
" style="fill:#7f7f7f;"/>
   </g>
   <g id="patch_112">
    <path clip-path="url(#pdb7102de7b)" d="M 305.943158 640.8 
L 307.117895 640.8 
L 307.117895 638.562712 
L 305.943158 638.562712 
z
" style="fill:#7f7f7f;"/>
   </g>
   <g id="patch_113">
    <path clip-path="url(#pdb7102de7b)" d="M 350.583158 640.8 
L 351.757895 640.8 
L 351.757895 616.189831 
L 350.583158 616.189831 
z
" style="fill:#7f7f7f;"/>
   </g>
   <g id="patch_114">
    <path clip-path="url(#pdb7102de7b)" d="M 395.223158 640.8 
L 396.397895 640.8 
L 396.397895 634.088136 
L 395.223158 634.088136 
z
" style="fill:#7f7f7f;"/>
   </g>
   <g id="patch_115">
    <path clip-path="url(#pdb7102de7b)" d="M 439.863158 640.8 
L 441.037895 640.8 
L 441.037895 636.325424 
L 439.863158 636.325424 
z
" style="fill:#7f7f7f;"/>
   </g>
   <g id="patch_116">
    <path clip-path="url(#pdb7102de7b)" d="M 484.503158 640.8 
L 485.677895 640.8 
L 485.677895 636.325424 
L 484.503158 636.325424 
z
" style="fill:#7f7f7f;"/>
   </g>
   <g id="patch_117">
    <path clip-path="url(#pdb7102de7b)" d="M 529.143158 640.8 
L 530.317895 640.8 
L 530.317895 620.664407 
L 529.143158 620.664407 
z
" style="fill:#7f7f7f;"/>
   </g>
   <g id="patch_118">
    <path clip-path="url(#pdb7102de7b)" d="M 573.783158 640.8 
L 574.957895 640.8 
L 574.957895 636.325424 
L 573.783158 636.325424 
z
" style="fill:#7f7f7f;"/>
   </g>
   <g id="patch_119">
    <path clip-path="url(#pdb7102de7b)" d="M 618.423158 640.8 
L 619.597895 640.8 
L 619.597895 636.325424 
L 618.423158 636.325424 
z
" style="fill:#7f7f7f;"/>
   </g>
   <g id="patch_120">
    <path clip-path="url(#pdb7102de7b)" d="M 663.063158 640.8 
L 664.237895 640.8 
L 664.237895 640.8 
L 663.063158 640.8 
z
" style="fill:#7f7f7f;"/>
   </g>
   <g id="patch_121">
    <path clip-path="url(#pdb7102de7b)" d="M 707.703158 640.8 
L 708.877895 640.8 
L 708.877895 640.8 
L 707.703158 640.8 
z
" style="fill:#7f7f7f;"/>
   </g>
   <g id="patch_122">
    <path clip-path="url(#pdb7102de7b)" d="M 752.343158 640.8 
L 753.517895 640.8 
L 753.517895 640.8 
L 752.343158 640.8 
z
" style="fill:#7f7f7f;"/>
   </g>
   <g id="patch_123">
    <path clip-path="url(#pdb7102de7b)" d="M 128.557895 640.8 
L 129.732632 640.8 
L 129.732632 629.613559 
L 128.557895 629.613559 
z
" style="fill:#bcbd22;"/>
   </g>
   <g id="patch_124">
    <path clip-path="url(#pdb7102de7b)" d="M 173.197895 640.8 
L 174.372632 640.8 
L 174.372632 613.952542 
L 173.197895 613.952542 
z
" style="fill:#bcbd22;"/>
   </g>
   <g id="patch_125">
    <path clip-path="url(#pdb7102de7b)" d="M 217.837895 640.8 
L 219.012632 640.8 
L 219.012632 636.325424 
L 217.837895 636.325424 
z
" style="fill:#bcbd22;"/>
   </g>
   <g id="patch_126">
    <path clip-path="url(#pdb7102de7b)" d="M 262.477895 640.8 
L 263.652632 640.8 
L 263.652632 627.376271 
L 262.477895 627.376271 
z
" style="fill:#bcbd22;"/>
   </g>
   <g id="patch_127">
    <path clip-path="url(#pdb7102de7b)" d="M 307.117895 640.8 
L 308.292632 640.8 
L 308.292632 638.562712 
L 307.117895 638.562712 
z
" style="fill:#bcbd22;"/>
   </g>
   <g id="patch_128">
    <path clip-path="url(#pdb7102de7b)" d="M 351.757895 640.8 
L 352.932632 640.8 
L 352.932632 616.189831 
L 351.757895 616.189831 
z
" style="fill:#bcbd22;"/>
   </g>
   <g id="patch_129">
    <path clip-path="url(#pdb7102de7b)" d="M 396.397895 640.8 
L 397.572632 640.8 
L 397.572632 634.088136 
L 396.397895 634.088136 
z
" style="fill:#bcbd22;"/>
   </g>
   <g id="patch_130">
    <path clip-path="url(#pdb7102de7b)" d="M 441.037895 640.8 
L 442.212632 640.8 
L 442.212632 636.325424 
L 441.037895 636.325424 
z
" style="fill:#bcbd22;"/>
   </g>
   <g id="patch_131">
    <path clip-path="url(#pdb7102de7b)" d="M 485.677895 640.8 
L 486.852632 640.8 
L 486.852632 636.325424 
L 485.677895 636.325424 
z
" style="fill:#bcbd22;"/>
   </g>
   <g id="patch_132">
    <path clip-path="url(#pdb7102de7b)" d="M 530.317895 640.8 
L 531.492632 640.8 
L 531.492632 622.901695 
L 530.317895 622.901695 
z
" style="fill:#bcbd22;"/>
   </g>
   <g id="patch_133">
    <path clip-path="url(#pdb7102de7b)" d="M 574.957895 640.8 
L 576.132632 640.8 
L 576.132632 636.325424 
L 574.957895 636.325424 
z
" style="fill:#bcbd22;"/>
   </g>
   <g id="patch_134">
    <path clip-path="url(#pdb7102de7b)" d="M 619.597895 640.8 
L 620.772632 640.8 
L 620.772632 636.325424 
L 619.597895 636.325424 
z
" style="fill:#bcbd22;"/>
   </g>
   <g id="patch_135">
    <path clip-path="url(#pdb7102de7b)" d="M 664.237895 640.8 
L 665.412632 640.8 
L 665.412632 640.8 
L 664.237895 640.8 
z
" style="fill:#bcbd22;"/>
   </g>
   <g id="patch_136">
    <path clip-path="url(#pdb7102de7b)" d="M 708.877895 640.8 
L 710.052632 640.8 
L 710.052632 640.8 
L 708.877895 640.8 
z
" style="fill:#bcbd22;"/>
   </g>
   <g id="patch_137">
    <path clip-path="url(#pdb7102de7b)" d="M 753.517895 640.8 
L 754.692632 640.8 
L 754.692632 640.8 
L 753.517895 640.8 
z
" style="fill:#bcbd22;"/>
   </g>
   <g id="patch_138">
    <path clip-path="url(#pdb7102de7b)" d="M 129.732632 640.8 
L 130.907368 640.8 
L 130.907368 629.613559 
L 129.732632 629.613559 
z
" style="fill:#17becf;"/>
   </g>
   <g id="patch_139">
    <path clip-path="url(#pdb7102de7b)" d="M 174.372632 640.8 
L 175.547368 640.8 
L 175.547368 611.715254 
L 174.372632 611.715254 
z
" style="fill:#17becf;"/>
   </g>
   <g id="patch_140">
    <path clip-path="url(#pdb7102de7b)" d="M 219.012632 640.8 
L 220.187368 640.8 
L 220.187368 636.325424 
L 219.012632 636.325424 
z
" style="fill:#17becf;"/>
   </g>
   <g id="patch_141">
    <path clip-path="url(#pdb7102de7b)" d="M 263.652632 640.8 
L 264.827368 640.8 
L 264.827368 625.138983 
L 263.652632 625.138983 
z
" style="fill:#17becf;"/>
   </g>
   <g id="patch_142">
    <path clip-path="url(#pdb7102de7b)" d="M 308.292632 640.8 
L 309.467368 640.8 
L 309.467368 638.562712 
L 308.292632 638.562712 
z
" style="fill:#17becf;"/>
   </g>
   <g id="patch_143">
    <path clip-path="url(#pdb7102de7b)" d="M 352.932632 640.8 
L 354.107368 640.8 
L 354.107368 616.189831 
L 352.932632 616.189831 
z
" style="fill:#17becf;"/>
   </g>
   <g id="patch_144">
    <path clip-path="url(#pdb7102de7b)" d="M 397.572632 640.8 
L 398.747368 640.8 
L 398.747368 634.088136 
L 397.572632 634.088136 
z
" style="fill:#17becf;"/>
   </g>
   <g id="patch_145">
    <path clip-path="url(#pdb7102de7b)" d="M 442.212632 640.8 
L 443.387368 640.8 
L 443.387368 636.325424 
L 442.212632 636.325424 
z
" style="fill:#17becf;"/>
   </g>
   <g id="patch_146">
    <path clip-path="url(#pdb7102de7b)" d="M 486.852632 640.8 
L 488.027368 640.8 
L 488.027368 636.325424 
L 486.852632 636.325424 
z
" style="fill:#17becf;"/>
   </g>
   <g id="patch_147">
    <path clip-path="url(#pdb7102de7b)" d="M 531.492632 640.8 
L 532.667368 640.8 
L 532.667368 620.664407 
L 531.492632 620.664407 
z
" style="fill:#17becf;"/>
   </g>
   <g id="patch_148">
    <path clip-path="url(#pdb7102de7b)" d="M 576.132632 640.8 
L 577.307368 640.8 
L 577.307368 636.325424 
L 576.132632 636.325424 
z
" style="fill:#17becf;"/>
   </g>
   <g id="patch_149">
    <path clip-path="url(#pdb7102de7b)" d="M 620.772632 640.8 
L 621.947368 640.8 
L 621.947368 636.325424 
L 620.772632 636.325424 
z
" style="fill:#17becf;"/>
   </g>
   <g id="patch_150">
    <path clip-path="url(#pdb7102de7b)" d="M 665.412632 640.8 
L 666.587368 640.8 
L 666.587368 640.8 
L 665.412632 640.8 
z
" style="fill:#17becf;"/>
   </g>
   <g id="patch_151">
    <path clip-path="url(#pdb7102de7b)" d="M 710.052632 640.8 
L 711.227368 640.8 
L 711.227368 640.8 
L 710.052632 640.8 
z
" style="fill:#17becf;"/>
   </g>
   <g id="patch_152">
    <path clip-path="url(#pdb7102de7b)" d="M 754.692632 640.8 
L 755.867368 640.8 
L 755.867368 640.8 
L 754.692632 640.8 
z
" style="fill:#17becf;"/>
   </g>
   <g id="patch_153">
    <path clip-path="url(#pdb7102de7b)" d="M 130.907368 640.8 
L 132.082105 640.8 
L 132.082105 629.613559 
L 130.907368 629.613559 
z
" style="fill:#1f77b4;"/>
   </g>
   <g id="patch_154">
    <path clip-path="url(#pdb7102de7b)" d="M 175.547368 640.8 
L 176.722105 640.8 
L 176.722105 611.715254 
L 175.547368 611.715254 
z
" style="fill:#1f77b4;"/>
   </g>
   <g id="patch_155">
    <path clip-path="url(#pdb7102de7b)" d="M 220.187368 640.8 
L 221.362105 640.8 
L 221.362105 636.325424 
L 220.187368 636.325424 
z
" style="fill:#1f77b4;"/>
   </g>
   <g id="patch_156">
    <path clip-path="url(#pdb7102de7b)" d="M 264.827368 640.8 
L 266.002105 640.8 
L 266.002105 627.376271 
L 264.827368 627.376271 
z
" style="fill:#1f77b4;"/>
   </g>
   <g id="patch_157">
    <path clip-path="url(#pdb7102de7b)" d="M 309.467368 640.8 
L 310.642105 640.8 
L 310.642105 638.562712 
L 309.467368 638.562712 
z
" style="fill:#1f77b4;"/>
   </g>
   <g id="patch_158">
    <path clip-path="url(#pdb7102de7b)" d="M 354.107368 640.8 
L 355.282105 640.8 
L 355.282105 616.189831 
L 354.107368 616.189831 
z
" style="fill:#1f77b4;"/>
   </g>
   <g id="patch_159">
    <path clip-path="url(#pdb7102de7b)" d="M 398.747368 640.8 
L 399.922105 640.8 
L 399.922105 634.088136 
L 398.747368 634.088136 
z
" style="fill:#1f77b4;"/>
   </g>
   <g id="patch_160">
    <path clip-path="url(#pdb7102de7b)" d="M 443.387368 640.8 
L 444.562105 640.8 
L 444.562105 636.325424 
L 443.387368 636.325424 
z
" style="fill:#1f77b4;"/>
   </g>
   <g id="patch_161">
    <path clip-path="url(#pdb7102de7b)" d="M 488.027368 640.8 
L 489.202105 640.8 
L 489.202105 636.325424 
L 488.027368 636.325424 
z
" style="fill:#1f77b4;"/>
   </g>
   <g id="patch_162">
    <path clip-path="url(#pdb7102de7b)" d="M 532.667368 640.8 
L 533.842105 640.8 
L 533.842105 620.664407 
L 532.667368 620.664407 
z
" style="fill:#1f77b4;"/>
   </g>
   <g id="patch_163">
    <path clip-path="url(#pdb7102de7b)" d="M 577.307368 640.8 
L 578.482105 640.8 
L 578.482105 636.325424 
L 577.307368 636.325424 
z
" style="fill:#1f77b4;"/>
   </g>
   <g id="patch_164">
    <path clip-path="url(#pdb7102de7b)" d="M 621.947368 640.8 
L 623.122105 640.8 
L 623.122105 636.325424 
L 621.947368 636.325424 
z
" style="fill:#1f77b4;"/>
   </g>
   <g id="patch_165">
    <path clip-path="url(#pdb7102de7b)" d="M 666.587368 640.8 
L 667.762105 640.8 
L 667.762105 640.8 
L 666.587368 640.8 
z
" style="fill:#1f77b4;"/>
   </g>
   <g id="patch_166">
    <path clip-path="url(#pdb7102de7b)" d="M 711.227368 640.8 
L 712.402105 640.8 
L 712.402105 640.8 
L 711.227368 640.8 
z
" style="fill:#1f77b4;"/>
   </g>
   <g id="patch_167">
    <path clip-path="url(#pdb7102de7b)" d="M 755.867368 640.8 
L 757.042105 640.8 
L 757.042105 640.8 
L 755.867368 640.8 
z
" style="fill:#1f77b4;"/>
   </g>
   <g id="patch_168">
    <path clip-path="url(#pdb7102de7b)" d="M 132.082105 640.8 
L 133.256842 640.8 
L 133.256842 629.613559 
L 132.082105 629.613559 
z
" style="fill:#ff7f0e;"/>
   </g>
   <g id="patch_169">
    <path clip-path="url(#pdb7102de7b)" d="M 176.722105 640.8 
L 177.896842 640.8 
L 177.896842 611.715254 
L 176.722105 611.715254 
z
" style="fill:#ff7f0e;"/>
   </g>
   <g id="patch_170">
    <path clip-path="url(#pdb7102de7b)" d="M 221.362105 640.8 
L 222.536842 640.8 
L 222.536842 636.325424 
L 221.362105 636.325424 
z
" style="fill:#ff7f0e;"/>
   </g>
   <g id="patch_171">
    <path clip-path="url(#pdb7102de7b)" d="M 266.002105 640.8 
L 267.176842 640.8 
L 267.176842 627.376271 
L 266.002105 627.376271 
z
" style="fill:#ff7f0e;"/>
   </g>
   <g id="patch_172">
    <path clip-path="url(#pdb7102de7b)" d="M 310.642105 640.8 
L 311.816842 640.8 
L 311.816842 638.562712 
L 310.642105 638.562712 
z
" style="fill:#ff7f0e;"/>
   </g>
   <g id="patch_173">
    <path clip-path="url(#pdb7102de7b)" d="M 355.282105 640.8 
L 356.456842 640.8 
L 356.456842 616.189831 
L 355.282105 616.189831 
z
" style="fill:#ff7f0e;"/>
   </g>
   <g id="patch_174">
    <path clip-path="url(#pdb7102de7b)" d="M 399.922105 640.8 
L 401.096842 640.8 
L 401.096842 634.088136 
L 399.922105 634.088136 
z
" style="fill:#ff7f0e;"/>
   </g>
   <g id="patch_175">
    <path clip-path="url(#pdb7102de7b)" d="M 444.562105 640.8 
L 445.736842 640.8 
L 445.736842 636.325424 
L 444.562105 636.325424 
z
" style="fill:#ff7f0e;"/>
   </g>
   <g id="patch_176">
    <path clip-path="url(#pdb7102de7b)" d="M 489.202105 640.8 
L 490.376842 640.8 
L 490.376842 636.325424 
L 489.202105 636.325424 
z
" style="fill:#ff7f0e;"/>
   </g>
   <g id="patch_177">
    <path clip-path="url(#pdb7102de7b)" d="M 533.842105 640.8 
L 535.016842 640.8 
L 535.016842 620.664407 
L 533.842105 620.664407 
z
" style="fill:#ff7f0e;"/>
   </g>
   <g id="patch_178">
    <path clip-path="url(#pdb7102de7b)" d="M 578.482105 640.8 
L 579.656842 640.8 
L 579.656842 636.325424 
L 578.482105 636.325424 
z
" style="fill:#ff7f0e;"/>
   </g>
   <g id="patch_179">
    <path clip-path="url(#pdb7102de7b)" d="M 623.122105 640.8 
L 624.296842 640.8 
L 624.296842 636.325424 
L 623.122105 636.325424 
z
" style="fill:#ff7f0e;"/>
   </g>
   <g id="patch_180">
    <path clip-path="url(#pdb7102de7b)" d="M 667.762105 640.8 
L 668.936842 640.8 
L 668.936842 640.8 
L 667.762105 640.8 
z
" style="fill:#ff7f0e;"/>
   </g>
   <g id="patch_181">
    <path clip-path="url(#pdb7102de7b)" d="M 712.402105 640.8 
L 713.576842 640.8 
L 713.576842 640.8 
L 712.402105 640.8 
z
" style="fill:#ff7f0e;"/>
   </g>
   <g id="patch_182">
    <path clip-path="url(#pdb7102de7b)" d="M 757.042105 640.8 
L 758.216842 640.8 
L 758.216842 640.8 
L 757.042105 640.8 
z
" style="fill:#ff7f0e;"/>
   </g>
   <g id="patch_183">
    <path clip-path="url(#pdb7102de7b)" d="M 133.256842 640.8 
L 134.431579 640.8 
L 134.431579 629.613559 
L 133.256842 629.613559 
z
" style="fill:#2ca02c;"/>
   </g>
   <g id="patch_184">
    <path clip-path="url(#pdb7102de7b)" d="M 177.896842 640.8 
L 179.071579 640.8 
L 179.071579 611.715254 
L 177.896842 611.715254 
z
" style="fill:#2ca02c;"/>
   </g>
   <g id="patch_185">
    <path clip-path="url(#pdb7102de7b)" d="M 222.536842 640.8 
L 223.711579 640.8 
L 223.711579 636.325424 
L 222.536842 636.325424 
z
" style="fill:#2ca02c;"/>
   </g>
   <g id="patch_186">
    <path clip-path="url(#pdb7102de7b)" d="M 267.176842 640.8 
L 268.351579 640.8 
L 268.351579 627.376271 
L 267.176842 627.376271 
z
" style="fill:#2ca02c;"/>
   </g>
   <g id="patch_187">
    <path clip-path="url(#pdb7102de7b)" d="M 311.816842 640.8 
L 312.991579 640.8 
L 312.991579 638.562712 
L 311.816842 638.562712 
z
" style="fill:#2ca02c;"/>
   </g>
   <g id="patch_188">
    <path clip-path="url(#pdb7102de7b)" d="M 356.456842 640.8 
L 357.631579 640.8 
L 357.631579 616.189831 
L 356.456842 616.189831 
z
" style="fill:#2ca02c;"/>
   </g>
   <g id="patch_189">
    <path clip-path="url(#pdb7102de7b)" d="M 401.096842 640.8 
L 402.271579 640.8 
L 402.271579 634.088136 
L 401.096842 634.088136 
z
" style="fill:#2ca02c;"/>
   </g>
   <g id="patch_190">
    <path clip-path="url(#pdb7102de7b)" d="M 445.736842 640.8 
L 446.911579 640.8 
L 446.911579 636.325424 
L 445.736842 636.325424 
z
" style="fill:#2ca02c;"/>
   </g>
   <g id="patch_191">
    <path clip-path="url(#pdb7102de7b)" d="M 490.376842 640.8 
L 491.551579 640.8 
L 491.551579 636.325424 
L 490.376842 636.325424 
z
" style="fill:#2ca02c;"/>
   </g>
   <g id="patch_192">
    <path clip-path="url(#pdb7102de7b)" d="M 535.016842 640.8 
L 536.191579 640.8 
L 536.191579 620.664407 
L 535.016842 620.664407 
z
" style="fill:#2ca02c;"/>
   </g>
   <g id="patch_193">
    <path clip-path="url(#pdb7102de7b)" d="M 579.656842 640.8 
L 580.831579 640.8 
L 580.831579 636.325424 
L 579.656842 636.325424 
z
" style="fill:#2ca02c;"/>
   </g>
   <g id="patch_194">
    <path clip-path="url(#pdb7102de7b)" d="M 624.296842 640.8 
L 625.471579 640.8 
L 625.471579 636.325424 
L 624.296842 636.325424 
z
" style="fill:#2ca02c;"/>
   </g>
   <g id="patch_195">
    <path clip-path="url(#pdb7102de7b)" d="M 668.936842 640.8 
L 670.111579 640.8 
L 670.111579 640.8 
L 668.936842 640.8 
z
" style="fill:#2ca02c;"/>
   </g>
   <g id="patch_196">
    <path clip-path="url(#pdb7102de7b)" d="M 713.576842 640.8 
L 714.751579 640.8 
L 714.751579 640.8 
L 713.576842 640.8 
z
" style="fill:#2ca02c;"/>
   </g>
   <g id="patch_197">
    <path clip-path="url(#pdb7102de7b)" d="M 758.216842 640.8 
L 759.391579 640.8 
L 759.391579 640.8 
L 758.216842 640.8 
z
" style="fill:#2ca02c;"/>
   </g>
   <g id="patch_198">
    <path clip-path="url(#pdb7102de7b)" d="M 134.431579 640.8 
L 135.606316 640.8 
L 135.606316 634.088136 
L 134.431579 634.088136 
z
" style="fill:#d62728;"/>
   </g>
   <g id="patch_199">
    <path clip-path="url(#pdb7102de7b)" d="M 179.071579 640.8 
L 180.246316 640.8 
L 180.246316 126.223729 
L 179.071579 126.223729 
z
" style="fill:#d62728;"/>
   </g>
   <g id="patch_200">
    <path clip-path="url(#pdb7102de7b)" d="M 223.711579 640.8 
L 224.886316 640.8 
L 224.886316 636.325424 
L 223.711579 636.325424 
z
" style="fill:#d62728;"/>
   </g>
   <g id="patch_201">
    <path clip-path="url(#pdb7102de7b)" d="M 268.351579 640.8 
L 269.526316 640.8 
L 269.526316 640.8 
L 268.351579 640.8 
z
" style="fill:#d62728;"/>
   </g>
   <g id="patch_202">
    <path clip-path="url(#pdb7102de7b)" d="M 312.991579 640.8 
L 314.166316 640.8 
L 314.166316 638.562712 
L 312.991579 638.562712 
z
" style="fill:#d62728;"/>
   </g>
   <g id="patch_203">
    <path clip-path="url(#pdb7102de7b)" d="M 357.631579 640.8 
L 358.806316 640.8 
L 358.806316 627.376271 
L 357.631579 627.376271 
z
" style="fill:#d62728;"/>
   </g>
   <g id="patch_204">
    <path clip-path="url(#pdb7102de7b)" d="M 402.271579 640.8 
L 403.446316 640.8 
L 403.446316 640.8 
L 402.271579 640.8 
z
" style="fill:#d62728;"/>
   </g>
   <g id="patch_205">
    <path clip-path="url(#pdb7102de7b)" d="M 446.911579 640.8 
L 448.086316 640.8 
L 448.086316 640.8 
L 446.911579 640.8 
z
" style="fill:#d62728;"/>
   </g>
   <g id="patch_206">
    <path clip-path="url(#pdb7102de7b)" d="M 491.551579 640.8 
L 492.726316 640.8 
L 492.726316 634.088136 
L 491.551579 634.088136 
z
" style="fill:#d62728;"/>
   </g>
   <g id="patch_207">
    <path clip-path="url(#pdb7102de7b)" d="M 536.191579 640.8 
L 537.366316 640.8 
L 537.366316 640.8 
L 536.191579 640.8 
z
" style="fill:#d62728;"/>
   </g>
   <g id="patch_208">
    <path clip-path="url(#pdb7102de7b)" d="M 580.831579 640.8 
L 582.006316 640.8 
L 582.006316 636.325424 
L 580.831579 636.325424 
z
" style="fill:#d62728;"/>
   </g>
   <g id="patch_209">
    <path clip-path="url(#pdb7102de7b)" d="M 625.471579 640.8 
L 626.646316 640.8 
L 626.646316 634.088136 
L 625.471579 634.088136 
z
" style="fill:#d62728;"/>
   </g>
   <g id="patch_210">
    <path clip-path="url(#pdb7102de7b)" d="M 670.111579 640.8 
L 671.286316 640.8 
L 671.286316 640.8 
L 670.111579 640.8 
z
" style="fill:#d62728;"/>
   </g>
   <g id="patch_211">
    <path clip-path="url(#pdb7102de7b)" d="M 714.751579 640.8 
L 715.926316 640.8 
L 715.926316 640.8 
L 714.751579 640.8 
z
" style="fill:#d62728;"/>
   </g>
   <g id="patch_212">
    <path clip-path="url(#pdb7102de7b)" d="M 759.391579 640.8 
L 760.566316 640.8 
L 760.566316 640.8 
L 759.391579 640.8 
z
" style="fill:#d62728;"/>
   </g>
   <g id="patch_213">
    <path clip-path="url(#pdb7102de7b)" d="M 135.606316 640.8 
L 136.781053 640.8 
L 136.781053 634.088136 
L 135.606316 634.088136 
z
" style="fill:#9467bd;"/>
   </g>
   <g id="patch_214">
    <path clip-path="url(#pdb7102de7b)" d="M 180.246316 640.8 
L 181.421053 640.8 
L 181.421053 117.274576 
L 180.246316 117.274576 
z
" style="fill:#9467bd;"/>
   </g>
   <g id="patch_215">
    <path clip-path="url(#pdb7102de7b)" d="M 224.886316 640.8 
L 226.061053 640.8 
L 226.061053 636.325424 
L 224.886316 636.325424 
z
" style="fill:#9467bd;"/>
   </g>
   <g id="patch_216">
    <path clip-path="url(#pdb7102de7b)" d="M 269.526316 640.8 
L 270.701053 640.8 
L 270.701053 640.8 
L 269.526316 640.8 
z
" style="fill:#9467bd;"/>
   </g>
   <g id="patch_217">
    <path clip-path="url(#pdb7102de7b)" d="M 314.166316 640.8 
L 315.341053 640.8 
L 315.341053 638.562712 
L 314.166316 638.562712 
z
" style="fill:#9467bd;"/>
   </g>
   <g id="patch_218">
    <path clip-path="url(#pdb7102de7b)" d="M 358.806316 640.8 
L 359.981053 640.8 
L 359.981053 627.376271 
L 358.806316 627.376271 
z
" style="fill:#9467bd;"/>
   </g>
   <g id="patch_219">
    <path clip-path="url(#pdb7102de7b)" d="M 403.446316 640.8 
L 404.621053 640.8 
L 404.621053 640.8 
L 403.446316 640.8 
z
" style="fill:#9467bd;"/>
   </g>
   <g id="patch_220">
    <path clip-path="url(#pdb7102de7b)" d="M 448.086316 640.8 
L 449.261053 640.8 
L 449.261053 640.8 
L 448.086316 640.8 
z
" style="fill:#9467bd;"/>
   </g>
   <g id="patch_221">
    <path clip-path="url(#pdb7102de7b)" d="M 492.726316 640.8 
L 493.901053 640.8 
L 493.901053 634.088136 
L 492.726316 634.088136 
z
" style="fill:#9467bd;"/>
   </g>
   <g id="patch_222">
    <path clip-path="url(#pdb7102de7b)" d="M 537.366316 640.8 
L 538.541053 640.8 
L 538.541053 640.8 
L 537.366316 640.8 
z
" style="fill:#9467bd;"/>
   </g>
   <g id="patch_223">
    <path clip-path="url(#pdb7102de7b)" d="M 582.006316 640.8 
L 583.181053 640.8 
L 583.181053 636.325424 
L 582.006316 636.325424 
z
" style="fill:#9467bd;"/>
   </g>
   <g id="patch_224">
    <path clip-path="url(#pdb7102de7b)" d="M 626.646316 640.8 
L 627.821053 640.8 
L 627.821053 634.088136 
L 626.646316 634.088136 
z
" style="fill:#9467bd;"/>
   </g>
   <g id="patch_225">
    <path clip-path="url(#pdb7102de7b)" d="M 671.286316 640.8 
L 672.461053 640.8 
L 672.461053 640.8 
L 671.286316 640.8 
z
" style="fill:#9467bd;"/>
   </g>
   <g id="patch_226">
    <path clip-path="url(#pdb7102de7b)" d="M 715.926316 640.8 
L 717.101053 640.8 
L 717.101053 640.8 
L 715.926316 640.8 
z
" style="fill:#9467bd;"/>
   </g>
   <g id="patch_227">
    <path clip-path="url(#pdb7102de7b)" d="M 760.566316 640.8 
L 761.741053 640.8 
L 761.741053 640.8 
L 760.566316 640.8 
z
" style="fill:#9467bd;"/>
   </g>
   <g id="patch_228">
    <path clip-path="url(#pdb7102de7b)" d="M 136.781053 640.8 
L 137.955789 640.8 
L 137.955789 634.088136 
L 136.781053 634.088136 
z
" style="fill:#8c564b;"/>
   </g>
   <g id="patch_229">
    <path clip-path="url(#pdb7102de7b)" d="M 181.421053 640.8 
L 182.595789 640.8 
L 182.595789 128.461017 
L 181.421053 128.461017 
z
" style="fill:#8c564b;"/>
   </g>
   <g id="patch_230">
    <path clip-path="url(#pdb7102de7b)" d="M 226.061053 640.8 
L 227.235789 640.8 
L 227.235789 636.325424 
L 226.061053 636.325424 
z
" style="fill:#8c564b;"/>
   </g>
   <g id="patch_231">
    <path clip-path="url(#pdb7102de7b)" d="M 270.701053 640.8 
L 271.875789 640.8 
L 271.875789 640.8 
L 270.701053 640.8 
z
" style="fill:#8c564b;"/>
   </g>
   <g id="patch_232">
    <path clip-path="url(#pdb7102de7b)" d="M 315.341053 640.8 
L 316.515789 640.8 
L 316.515789 638.562712 
L 315.341053 638.562712 
z
" style="fill:#8c564b;"/>
   </g>
   <g id="patch_233">
    <path clip-path="url(#pdb7102de7b)" d="M 359.981053 640.8 
L 361.155789 640.8 
L 361.155789 627.376271 
L 359.981053 627.376271 
z
" style="fill:#8c564b;"/>
   </g>
   <g id="patch_234">
    <path clip-path="url(#pdb7102de7b)" d="M 404.621053 640.8 
L 405.795789 640.8 
L 405.795789 640.8 
L 404.621053 640.8 
z
" style="fill:#8c564b;"/>
   </g>
   <g id="patch_235">
    <path clip-path="url(#pdb7102de7b)" d="M 449.261053 640.8 
L 450.435789 640.8 
L 450.435789 640.8 
L 449.261053 640.8 
z
" style="fill:#8c564b;"/>
   </g>
   <g id="patch_236">
    <path clip-path="url(#pdb7102de7b)" d="M 493.901053 640.8 
L 495.075789 640.8 
L 495.075789 634.088136 
L 493.901053 634.088136 
z
" style="fill:#8c564b;"/>
   </g>
   <g id="patch_237">
    <path clip-path="url(#pdb7102de7b)" d="M 538.541053 640.8 
L 539.715789 640.8 
L 539.715789 640.8 
L 538.541053 640.8 
z
" style="fill:#8c564b;"/>
   </g>
   <g id="patch_238">
    <path clip-path="url(#pdb7102de7b)" d="M 583.181053 640.8 
L 584.355789 640.8 
L 584.355789 636.325424 
L 583.181053 636.325424 
z
" style="fill:#8c564b;"/>
   </g>
   <g id="patch_239">
    <path clip-path="url(#pdb7102de7b)" d="M 627.821053 640.8 
L 628.995789 640.8 
L 628.995789 634.088136 
L 627.821053 634.088136 
z
" style="fill:#8c564b;"/>
   </g>
   <g id="patch_240">
    <path clip-path="url(#pdb7102de7b)" d="M 672.461053 640.8 
L 673.635789 640.8 
L 673.635789 640.8 
L 672.461053 640.8 
z
" style="fill:#8c564b;"/>
   </g>
   <g id="patch_241">
    <path clip-path="url(#pdb7102de7b)" d="M 717.101053 640.8 
L 718.275789 640.8 
L 718.275789 640.8 
L 717.101053 640.8 
z
" style="fill:#8c564b;"/>
   </g>
   <g id="patch_242">
    <path clip-path="url(#pdb7102de7b)" d="M 761.741053 640.8 
L 762.915789 640.8 
L 762.915789 640.8 
L 761.741053 640.8 
z
" style="fill:#8c564b;"/>
   </g>
   <g id="patch_243">
    <path clip-path="url(#pdb7102de7b)" d="M 137.955789 640.8 
L 139.130526 640.8 
L 139.130526 634.088136 
L 137.955789 634.088136 
z
" style="fill:#e377c2;"/>
   </g>
   <g id="patch_244">
    <path clip-path="url(#pdb7102de7b)" d="M 182.595789 640.8 
L 183.770526 640.8 
L 183.770526 115.037288 
L 182.595789 115.037288 
z
" style="fill:#e377c2;"/>
   </g>
   <g id="patch_245">
    <path clip-path="url(#pdb7102de7b)" d="M 227.235789 640.8 
L 228.410526 640.8 
L 228.410526 636.325424 
L 227.235789 636.325424 
z
" style="fill:#e377c2;"/>
   </g>
   <g id="patch_246">
    <path clip-path="url(#pdb7102de7b)" d="M 271.875789 640.8 
L 273.050526 640.8 
L 273.050526 640.8 
L 271.875789 640.8 
z
" style="fill:#e377c2;"/>
   </g>
   <g id="patch_247">
    <path clip-path="url(#pdb7102de7b)" d="M 316.515789 640.8 
L 317.690526 640.8 
L 317.690526 638.562712 
L 316.515789 638.562712 
z
" style="fill:#e377c2;"/>
   </g>
   <g id="patch_248">
    <path clip-path="url(#pdb7102de7b)" d="M 361.155789 640.8 
L 362.330526 640.8 
L 362.330526 627.376271 
L 361.155789 627.376271 
z
" style="fill:#e377c2;"/>
   </g>
   <g id="patch_249">
    <path clip-path="url(#pdb7102de7b)" d="M 405.795789 640.8 
L 406.970526 640.8 
L 406.970526 640.8 
L 405.795789 640.8 
z
" style="fill:#e377c2;"/>
   </g>
   <g id="patch_250">
    <path clip-path="url(#pdb7102de7b)" d="M 450.435789 640.8 
L 451.610526 640.8 
L 451.610526 640.8 
L 450.435789 640.8 
z
" style="fill:#e377c2;"/>
   </g>
   <g id="patch_251">
    <path clip-path="url(#pdb7102de7b)" d="M 495.075789 640.8 
L 496.250526 640.8 
L 496.250526 634.088136 
L 495.075789 634.088136 
z
" style="fill:#e377c2;"/>
   </g>
   <g id="patch_252">
    <path clip-path="url(#pdb7102de7b)" d="M 539.715789 640.8 
L 540.890526 640.8 
L 540.890526 640.8 
L 539.715789 640.8 
z
" style="fill:#e377c2;"/>
   </g>
   <g id="patch_253">
    <path clip-path="url(#pdb7102de7b)" d="M 584.355789 640.8 
L 585.530526 640.8 
L 585.530526 636.325424 
L 584.355789 636.325424 
z
" style="fill:#e377c2;"/>
   </g>
   <g id="patch_254">
    <path clip-path="url(#pdb7102de7b)" d="M 628.995789 640.8 
L 630.170526 640.8 
L 630.170526 634.088136 
L 628.995789 634.088136 
z
" style="fill:#e377c2;"/>
   </g>
   <g id="patch_255">
    <path clip-path="url(#pdb7102de7b)" d="M 673.635789 640.8 
L 674.810526 640.8 
L 674.810526 640.8 
L 673.635789 640.8 
z
" style="fill:#e377c2;"/>
   </g>
   <g id="patch_256">
    <path clip-path="url(#pdb7102de7b)" d="M 718.275789 640.8 
L 719.450526 640.8 
L 719.450526 640.8 
L 718.275789 640.8 
z
" style="fill:#e377c2;"/>
   </g>
   <g id="patch_257">
    <path clip-path="url(#pdb7102de7b)" d="M 762.915789 640.8 
L 764.090526 640.8 
L 764.090526 640.8 
L 762.915789 640.8 
z
" style="fill:#e377c2;"/>
   </g>
   <g id="patch_258">
    <path clip-path="url(#pdb7102de7b)" d="M 139.130526 640.8 
L 140.305263 640.8 
L 140.305263 634.088136 
L 139.130526 634.088136 
z
" style="fill:#7f7f7f;"/>
   </g>
   <g id="patch_259">
    <path clip-path="url(#pdb7102de7b)" d="M 183.770526 640.8 
L 184.945263 640.8 
L 184.945263 112.8 
L 183.770526 112.8 
z
" style="fill:#7f7f7f;"/>
   </g>
   <g id="patch_260">
    <path clip-path="url(#pdb7102de7b)" d="M 228.410526 640.8 
L 229.585263 640.8 
L 229.585263 636.325424 
L 228.410526 636.325424 
z
" style="fill:#7f7f7f;"/>
   </g>
   <g id="patch_261">
    <path clip-path="url(#pdb7102de7b)" d="M 273.050526 640.8 
L 274.225263 640.8 
L 274.225263 640.8 
L 273.050526 640.8 
z
" style="fill:#7f7f7f;"/>
   </g>
   <g id="patch_262">
    <path clip-path="url(#pdb7102de7b)" d="M 317.690526 640.8 
L 318.865263 640.8 
L 318.865263 638.562712 
L 317.690526 638.562712 
z
" style="fill:#7f7f7f;"/>
   </g>
   <g id="patch_263">
    <path clip-path="url(#pdb7102de7b)" d="M 362.330526 640.8 
L 363.505263 640.8 
L 363.505263 627.376271 
L 362.330526 627.376271 
z
" style="fill:#7f7f7f;"/>
   </g>
   <g id="patch_264">
    <path clip-path="url(#pdb7102de7b)" d="M 406.970526 640.8 
L 408.145263 640.8 
L 408.145263 640.8 
L 406.970526 640.8 
z
" style="fill:#7f7f7f;"/>
   </g>
   <g id="patch_265">
    <path clip-path="url(#pdb7102de7b)" d="M 451.610526 640.8 
L 452.785263 640.8 
L 452.785263 640.8 
L 451.610526 640.8 
z
" style="fill:#7f7f7f;"/>
   </g>
   <g id="patch_266">
    <path clip-path="url(#pdb7102de7b)" d="M 496.250526 640.8 
L 497.425263 640.8 
L 497.425263 634.088136 
L 496.250526 634.088136 
z
" style="fill:#7f7f7f;"/>
   </g>
   <g id="patch_267">
    <path clip-path="url(#pdb7102de7b)" d="M 540.890526 640.8 
L 542.065263 640.8 
L 542.065263 640.8 
L 540.890526 640.8 
z
" style="fill:#7f7f7f;"/>
   </g>
   <g id="patch_268">
    <path clip-path="url(#pdb7102de7b)" d="M 585.530526 640.8 
L 586.705263 640.8 
L 586.705263 636.325424 
L 585.530526 636.325424 
z
" style="fill:#7f7f7f;"/>
   </g>
   <g id="patch_269">
    <path clip-path="url(#pdb7102de7b)" d="M 630.170526 640.8 
L 631.345263 640.8 
L 631.345263 634.088136 
L 630.170526 634.088136 
z
" style="fill:#7f7f7f;"/>
   </g>
   <g id="patch_270">
    <path clip-path="url(#pdb7102de7b)" d="M 674.810526 640.8 
L 675.985263 640.8 
L 675.985263 640.8 
L 674.810526 640.8 
z
" style="fill:#7f7f7f;"/>
   </g>
   <g id="patch_271">
    <path clip-path="url(#pdb7102de7b)" d="M 719.450526 640.8 
L 720.625263 640.8 
L 720.625263 640.8 
L 719.450526 640.8 
z
" style="fill:#7f7f7f;"/>
   </g>
   <g id="patch_272">
    <path clip-path="url(#pdb7102de7b)" d="M 764.090526 640.8 
L 765.265263 640.8 
L 765.265263 640.8 
L 764.090526 640.8 
z
" style="fill:#7f7f7f;"/>
   </g>
   <g id="patch_273">
    <path clip-path="url(#pdb7102de7b)" d="M 140.305263 640.8 
L 141.48 640.8 
L 141.48 634.088136 
L 140.305263 634.088136 
z
" style="fill:#bcbd22;"/>
   </g>
   <g id="patch_274">
    <path clip-path="url(#pdb7102de7b)" d="M 184.945263 640.8 
L 186.12 640.8 
L 186.12 126.223729 
L 184.945263 126.223729 
z
" style="fill:#bcbd22;"/>
   </g>
   <g id="patch_275">
    <path clip-path="url(#pdb7102de7b)" d="M 229.585263 640.8 
L 230.76 640.8 
L 230.76 636.325424 
L 229.585263 636.325424 
z
" style="fill:#bcbd22;"/>
   </g>
   <g id="patch_276">
    <path clip-path="url(#pdb7102de7b)" d="M 274.225263 640.8 
L 275.4 640.8 
L 275.4 640.8 
L 274.225263 640.8 
z
" style="fill:#bcbd22;"/>
   </g>
   <g id="patch_277">
    <path clip-path="url(#pdb7102de7b)" d="M 318.865263 640.8 
L 320.04 640.8 
L 320.04 638.562712 
L 318.865263 638.562712 
z
" style="fill:#bcbd22;"/>
   </g>
   <g id="patch_278">
    <path clip-path="url(#pdb7102de7b)" d="M 363.505263 640.8 
L 364.68 640.8 
L 364.68 627.376271 
L 363.505263 627.376271 
z
" style="fill:#bcbd22;"/>
   </g>
   <g id="patch_279">
    <path clip-path="url(#pdb7102de7b)" d="M 408.145263 640.8 
L 409.32 640.8 
L 409.32 640.8 
L 408.145263 640.8 
z
" style="fill:#bcbd22;"/>
   </g>
   <g id="patch_280">
    <path clip-path="url(#pdb7102de7b)" d="M 452.785263 640.8 
L 453.96 640.8 
L 453.96 640.8 
L 452.785263 640.8 
z
" style="fill:#bcbd22;"/>
   </g>
   <g id="patch_281">
    <path clip-path="url(#pdb7102de7b)" d="M 497.425263 640.8 
L 498.6 640.8 
L 498.6 634.088136 
L 497.425263 634.088136 
z
" style="fill:#bcbd22;"/>
   </g>
   <g id="patch_282">
    <path clip-path="url(#pdb7102de7b)" d="M 542.065263 640.8 
L 543.24 640.8 
L 543.24 640.8 
L 542.065263 640.8 
z
" style="fill:#bcbd22;"/>
   </g>
   <g id="patch_283">
    <path clip-path="url(#pdb7102de7b)" d="M 586.705263 640.8 
L 587.88 640.8 
L 587.88 636.325424 
L 586.705263 636.325424 
z
" style="fill:#bcbd22;"/>
   </g>
   <g id="patch_284">
    <path clip-path="url(#pdb7102de7b)" d="M 631.345263 640.8 
L 632.52 640.8 
L 632.52 634.088136 
L 631.345263 634.088136 
z
" style="fill:#bcbd22;"/>
   </g>
   <g id="patch_285">
    <path clip-path="url(#pdb7102de7b)" d="M 675.985263 640.8 
L 677.16 640.8 
L 677.16 640.8 
L 675.985263 640.8 
z
" style="fill:#bcbd22;"/>
   </g>
   <g id="patch_286">
    <path clip-path="url(#pdb7102de7b)" d="M 720.625263 640.8 
L 721.8 640.8 
L 721.8 640.8 
L 720.625263 640.8 
z
" style="fill:#bcbd22;"/>
   </g>
   <g id="patch_287">
    <path clip-path="url(#pdb7102de7b)" d="M 765.265263 640.8 
L 766.44 640.8 
L 766.44 640.8 
L 765.265263 640.8 
z
" style="fill:#bcbd22;"/>
   </g>
   <g id="matplotlib.axis_1">
    <g id="xtick_1">
     <g id="line2d_1">
      <defs>
       <path d="M 0 0 
L 0 3.5 
" id="mb4dd47a789" style="stroke:#000000;stroke-width:0.8;"/>
      </defs>
      <g>
       <use style="stroke:#000000;stroke-width:0.8;" x="130.32" xlink:href="#mb4dd47a789" y="640.8"/>
      </g>
     </g>
     <g id="text_1">
      <!-- JCH204 -->
      <defs>
       <path d="M 9.8125 72.90625 
L 19.671875 72.90625 
L 19.671875 5.078125 
Q 19.671875 -8.109375 14.671875 -14.0625 
Q 9.671875 -20.015625 -1.421875 -20.015625 
L -5.171875 -20.015625 
L -5.171875 -11.71875 
L -2.09375 -11.71875 
Q 4.4375 -11.71875 7.125 -8.046875 
Q 9.8125 -4.390625 9.8125 5.078125 
z
" id="DejaVuSans-74"/>
       <path d="M 64.40625 67.28125 
L 64.40625 56.890625 
Q 59.421875 61.53125 53.78125 63.8125 
Q 48.140625 66.109375 41.796875 66.109375 
Q 29.296875 66.109375 22.65625 58.46875 
Q 16.015625 50.828125 16.015625 36.375 
Q 16.015625 21.96875 22.65625 14.328125 
Q 29.296875 6.6875 41.796875 6.6875 
Q 48.140625 6.6875 53.78125 8.984375 
Q 59.421875 11.28125 64.40625 15.921875 
L 64.40625 5.609375 
Q 59.234375 2.09375 53.4375 0.328125 
Q 47.65625 -1.421875 41.21875 -1.421875 
Q 24.65625 -1.421875 15.125 8.703125 
Q 5.609375 18.84375 5.609375 36.375 
Q 5.609375 53.953125 15.125 64.078125 
Q 24.65625 74.21875 41.21875 74.21875 
Q 47.75 74.21875 53.53125 72.484375 
Q 59.328125 70.75 64.40625 67.28125 
z
" id="DejaVuSans-67"/>
       <path d="M 9.8125 72.90625 
L 19.671875 72.90625 
L 19.671875 43.015625 
L 55.515625 43.015625 
L 55.515625 72.90625 
L 65.375 72.90625 
L 65.375 0 
L 55.515625 0 
L 55.515625 34.71875 
L 19.671875 34.71875 
L 19.671875 0 
L 9.8125 0 
z
" id="DejaVuSans-72"/>
       <path d="M 19.1875 8.296875 
L 53.609375 8.296875 
L 53.609375 0 
L 7.328125 0 
L 7.328125 8.296875 
Q 12.9375 14.109375 22.625 23.890625 
Q 32.328125 33.6875 34.8125 36.53125 
Q 39.546875 41.84375 41.421875 45.53125 
Q 43.3125 49.21875 43.3125 52.78125 
Q 43.3125 58.59375 39.234375 62.25 
Q 35.15625 65.921875 28.609375 65.921875 
Q 23.96875 65.921875 18.8125 64.3125 
Q 13.671875 62.703125 7.8125 59.421875 
L 7.8125 69.390625 
Q 13.765625 71.78125 18.9375 73 
Q 24.125 74.21875 28.421875 74.21875 
Q 39.75 74.21875 46.484375 68.546875 
Q 53.21875 62.890625 53.21875 53.421875 
Q 53.21875 48.921875 51.53125 44.890625 
Q 49.859375 40.875 45.40625 35.40625 
Q 44.1875 33.984375 37.640625 27.21875 
Q 31.109375 20.453125 19.1875 8.296875 
z
" id="DejaVuSans-50"/>
       <path d="M 31.78125 66.40625 
Q 24.171875 66.40625 20.328125 58.90625 
Q 16.5 51.421875 16.5 36.375 
Q 16.5 21.390625 20.328125 13.890625 
Q 24.171875 6.390625 31.78125 6.390625 
Q 39.453125 6.390625 43.28125 13.890625 
Q 47.125 21.390625 47.125 36.375 
Q 47.125 51.421875 43.28125 58.90625 
Q 39.453125 66.40625 31.78125 66.40625 
z
M 31.78125 74.21875 
Q 44.046875 74.21875 50.515625 64.515625 
Q 56.984375 54.828125 56.984375 36.375 
Q 56.984375 17.96875 50.515625 8.265625 
Q 44.046875 -1.421875 31.78125 -1.421875 
Q 19.53125 -1.421875 13.0625 8.265625 
Q 6.59375 17.96875 6.59375 36.375 
Q 6.59375 54.828125 13.0625 64.515625 
Q 19.53125 74.21875 31.78125 74.21875 
z
" id="DejaVuSans-48"/>
       <path d="M 37.796875 64.3125 
L 12.890625 25.390625 
L 37.796875 25.390625 
z
M 35.203125 72.90625 
L 47.609375 72.90625 
L 47.609375 25.390625 
L 58.015625 25.390625 
L 58.015625 17.1875 
L 47.609375 17.1875 
L 47.609375 0 
L 37.796875 0 
L 37.796875 17.1875 
L 4.890625 17.1875 
L 4.890625 26.703125 
z
" id="DejaVuSans-52"/>
      </defs>
      <g transform="translate(133.079375 684.340625)rotate(-90)scale(0.1 -0.1)">
       <use xlink:href="#DejaVuSans-74"/>
       <use x="29.492188" xlink:href="#DejaVuSans-67"/>
       <use x="99.316406" xlink:href="#DejaVuSans-72"/>
       <use x="174.511719" xlink:href="#DejaVuSans-50"/>
       <use x="238.134766" xlink:href="#DejaVuSans-48"/>
       <use x="301.757812" xlink:href="#DejaVuSans-52"/>
      </g>
     </g>
    </g>
    <g id="xtick_2">
     <g id="line2d_2">
      <g>
       <use style="stroke:#000000;stroke-width:0.8;" x="174.96" xlink:href="#mb4dd47a789" y="640.8"/>
      </g>
     </g>
     <g id="text_2">
      <!-- AAH051 -->
      <defs>
       <path d="M 34.1875 63.1875 
L 20.796875 26.90625 
L 47.609375 26.90625 
z
M 28.609375 72.90625 
L 39.796875 72.90625 
L 67.578125 0 
L 57.328125 0 
L 50.6875 18.703125 
L 17.828125 18.703125 
L 11.1875 0 
L 0.78125 0 
z
" id="DejaVuSans-65"/>
       <path d="M 10.796875 72.90625 
L 49.515625 72.90625 
L 49.515625 64.59375 
L 19.828125 64.59375 
L 19.828125 46.734375 
Q 21.96875 47.46875 24.109375 47.828125 
Q 26.265625 48.1875 28.421875 48.1875 
Q 40.625 48.1875 47.75 41.5 
Q 54.890625 34.8125 54.890625 23.390625 
Q 54.890625 11.625 47.5625 5.09375 
Q 40.234375 -1.421875 26.90625 -1.421875 
Q 22.3125 -1.421875 17.546875 -0.640625 
Q 12.796875 0.140625 7.71875 1.703125 
L 7.71875 11.625 
Q 12.109375 9.234375 16.796875 8.0625 
Q 21.484375 6.890625 26.703125 6.890625 
Q 35.15625 6.890625 40.078125 11.328125 
Q 45.015625 15.765625 45.015625 23.390625 
Q 45.015625 31 40.078125 35.4375 
Q 35.15625 39.890625 26.703125 39.890625 
Q 22.75 39.890625 18.8125 39.015625 
Q 14.890625 38.140625 10.796875 36.28125 
z
" id="DejaVuSans-53"/>
       <path d="M 12.40625 8.296875 
L 28.515625 8.296875 
L 28.515625 63.921875 
L 10.984375 60.40625 
L 10.984375 69.390625 
L 28.421875 72.90625 
L 38.28125 72.90625 
L 38.28125 8.296875 
L 54.390625 8.296875 
L 54.390625 0 
L 12.40625 0 
z
" id="DejaVuSans-49"/>
      </defs>
      <g transform="translate(177.719375 688.092188)rotate(-90)scale(0.1 -0.1)">
       <use xlink:href="#DejaVuSans-65"/>
       <use x="68.439453" xlink:href="#DejaVuSans-65"/>
       <use x="136.847656" xlink:href="#DejaVuSans-72"/>
       <use x="212.042969" xlink:href="#DejaVuSans-48"/>
       <use x="275.666016" xlink:href="#DejaVuSans-53"/>
       <use x="339.289062" xlink:href="#DejaVuSans-49"/>
      </g>
     </g>
    </g>
    <g id="xtick_3">
     <g id="line2d_3">
      <g>
       <use style="stroke:#000000;stroke-width:0.8;" x="219.6" xlink:href="#mb4dd47a789" y="640.8"/>
      </g>
     </g>
     <g id="text_3">
      <!-- JCH201 -->
      <g transform="translate(222.359375 684.340625)rotate(-90)scale(0.1 -0.1)">
       <use xlink:href="#DejaVuSans-74"/>
       <use x="29.492188" xlink:href="#DejaVuSans-67"/>
       <use x="99.316406" xlink:href="#DejaVuSans-72"/>
       <use x="174.511719" xlink:href="#DejaVuSans-50"/>
       <use x="238.134766" xlink:href="#DejaVuSans-48"/>
       <use x="301.757812" xlink:href="#DejaVuSans-49"/>
      </g>
     </g>
    </g>
    <g id="xtick_4">
     <g id="line2d_4">
      <g>
       <use style="stroke:#000000;stroke-width:0.8;" x="264.24" xlink:href="#mb4dd47a789" y="640.8"/>
      </g>
     </g>
     <g id="text_4">
      <!-- JCH214 -->
      <g transform="translate(266.999375 684.340625)rotate(-90)scale(0.1 -0.1)">
       <use xlink:href="#DejaVuSans-74"/>
       <use x="29.492188" xlink:href="#DejaVuSans-67"/>
       <use x="99.316406" xlink:href="#DejaVuSans-72"/>
       <use x="174.511719" xlink:href="#DejaVuSans-50"/>
       <use x="238.134766" xlink:href="#DejaVuSans-49"/>
       <use x="301.757812" xlink:href="#DejaVuSans-52"/>
      </g>
     </g>
    </g>
    <g id="xtick_5">
     <g id="line2d_5">
      <g>
       <use style="stroke:#000000;stroke-width:0.8;" x="308.88" xlink:href="#mb4dd47a789" y="640.8"/>
      </g>
     </g>
     <g id="text_5">
      <!-- JCH207 -->
      <defs>
       <path d="M 8.203125 72.90625 
L 55.078125 72.90625 
L 55.078125 68.703125 
L 28.609375 0 
L 18.3125 0 
L 43.21875 64.59375 
L 8.203125 64.59375 
z
" id="DejaVuSans-55"/>
      </defs>
      <g transform="translate(311.639375 684.340625)rotate(-90)scale(0.1 -0.1)">
       <use xlink:href="#DejaVuSans-74"/>
       <use x="29.492188" xlink:href="#DejaVuSans-67"/>
       <use x="99.316406" xlink:href="#DejaVuSans-72"/>
       <use x="174.511719" xlink:href="#DejaVuSans-50"/>
       <use x="238.134766" xlink:href="#DejaVuSans-48"/>
       <use x="301.757812" xlink:href="#DejaVuSans-55"/>
      </g>
     </g>
    </g>
    <g id="xtick_6">
     <g id="line2d_6">
      <g>
       <use style="stroke:#000000;stroke-width:0.8;" x="353.52" xlink:href="#mb4dd47a789" y="640.8"/>
      </g>
     </g>
     <g id="text_6">
      <!-- JCH210 -->
      <g transform="translate(356.279375 684.340625)rotate(-90)scale(0.1 -0.1)">
       <use xlink:href="#DejaVuSans-74"/>
       <use x="29.492188" xlink:href="#DejaVuSans-67"/>
       <use x="99.316406" xlink:href="#DejaVuSans-72"/>
       <use x="174.511719" xlink:href="#DejaVuSans-50"/>
       <use x="238.134766" xlink:href="#DejaVuSans-49"/>
       <use x="301.757812" xlink:href="#DejaVuSans-48"/>
      </g>
     </g>
    </g>
    <g id="xtick_7">
     <g id="line2d_7">
      <g>
       <use style="stroke:#000000;stroke-width:0.8;" x="398.16" xlink:href="#mb4dd47a789" y="640.8"/>
      </g>
     </g>
     <g id="text_7">
      <!-- AAH048 -->
      <defs>
       <path d="M 31.78125 34.625 
Q 24.75 34.625 20.71875 30.859375 
Q 16.703125 27.09375 16.703125 20.515625 
Q 16.703125 13.921875 20.71875 10.15625 
Q 24.75 6.390625 31.78125 6.390625 
Q 38.8125 6.390625 42.859375 10.171875 
Q 46.921875 13.96875 46.921875 20.515625 
Q 46.921875 27.09375 42.890625 30.859375 
Q 38.875 34.625 31.78125 34.625 
z
M 21.921875 38.8125 
Q 15.578125 40.375 12.03125 44.71875 
Q 8.5 49.078125 8.5 55.328125 
Q 8.5 64.0625 14.71875 69.140625 
Q 20.953125 74.21875 31.78125 74.21875 
Q 42.671875 74.21875 48.875 69.140625 
Q 55.078125 64.0625 55.078125 55.328125 
Q 55.078125 49.078125 51.53125 44.71875 
Q 48 40.375 41.703125 38.8125 
Q 48.828125 37.15625 52.796875 32.3125 
Q 56.78125 27.484375 56.78125 20.515625 
Q 56.78125 9.90625 50.3125 4.234375 
Q 43.84375 -1.421875 31.78125 -1.421875 
Q 19.734375 -1.421875 13.25 4.234375 
Q 6.78125 9.90625 6.78125 20.515625 
Q 6.78125 27.484375 10.78125 32.3125 
Q 14.796875 37.15625 21.921875 38.8125 
z
M 18.3125 54.390625 
Q 18.3125 48.734375 21.84375 45.5625 
Q 25.390625 42.390625 31.78125 42.390625 
Q 38.140625 42.390625 41.71875 45.5625 
Q 45.3125 48.734375 45.3125 54.390625 
Q 45.3125 60.0625 41.71875 63.234375 
Q 38.140625 66.40625 31.78125 66.40625 
Q 25.390625 66.40625 21.84375 63.234375 
Q 18.3125 60.0625 18.3125 54.390625 
z
" id="DejaVuSans-56"/>
      </defs>
      <g transform="translate(400.919375 688.092188)rotate(-90)scale(0.1 -0.1)">
       <use xlink:href="#DejaVuSans-65"/>
       <use x="68.439453" xlink:href="#DejaVuSans-65"/>
       <use x="136.847656" xlink:href="#DejaVuSans-72"/>
       <use x="212.042969" xlink:href="#DejaVuSans-48"/>
       <use x="275.666016" xlink:href="#DejaVuSans-52"/>
       <use x="339.289062" xlink:href="#DejaVuSans-56"/>
      </g>
     </g>
    </g>
    <g id="xtick_8">
     <g id="line2d_8">
      <g>
       <use style="stroke:#000000;stroke-width:0.8;" x="442.8" xlink:href="#mb4dd47a789" y="640.8"/>
      </g>
     </g>
     <g id="text_8">
      <!-- AAH052 -->
      <g transform="translate(445.559375 688.092188)rotate(-90)scale(0.1 -0.1)">
       <use xlink:href="#DejaVuSans-65"/>
       <use x="68.439453" xlink:href="#DejaVuSans-65"/>
       <use x="136.847656" xlink:href="#DejaVuSans-72"/>
       <use x="212.042969" xlink:href="#DejaVuSans-48"/>
       <use x="275.666016" xlink:href="#DejaVuSans-53"/>
       <use x="339.289062" xlink:href="#DejaVuSans-50"/>
      </g>
     </g>
    </g>
    <g id="xtick_9">
     <g id="line2d_9">
      <g>
       <use style="stroke:#000000;stroke-width:0.8;" x="487.44" xlink:href="#mb4dd47a789" y="640.8"/>
      </g>
     </g>
     <g id="text_9">
      <!-- AAH049 -->
      <defs>
       <path d="M 10.984375 1.515625 
L 10.984375 10.5 
Q 14.703125 8.734375 18.5 7.8125 
Q 22.3125 6.890625 25.984375 6.890625 
Q 35.75 6.890625 40.890625 13.453125 
Q 46.046875 20.015625 46.78125 33.40625 
Q 43.953125 29.203125 39.59375 26.953125 
Q 35.25 24.703125 29.984375 24.703125 
Q 19.046875 24.703125 12.671875 31.3125 
Q 6.296875 37.9375 6.296875 49.421875 
Q 6.296875 60.640625 12.9375 67.421875 
Q 19.578125 74.21875 30.609375 74.21875 
Q 43.265625 74.21875 49.921875 64.515625 
Q 56.59375 54.828125 56.59375 36.375 
Q 56.59375 19.140625 48.40625 8.859375 
Q 40.234375 -1.421875 26.421875 -1.421875 
Q 22.703125 -1.421875 18.890625 -0.6875 
Q 15.09375 0.046875 10.984375 1.515625 
z
M 30.609375 32.421875 
Q 37.25 32.421875 41.125 36.953125 
Q 45.015625 41.5 45.015625 49.421875 
Q 45.015625 57.28125 41.125 61.84375 
Q 37.25 66.40625 30.609375 66.40625 
Q 23.96875 66.40625 20.09375 61.84375 
Q 16.21875 57.28125 16.21875 49.421875 
Q 16.21875 41.5 20.09375 36.953125 
Q 23.96875 32.421875 30.609375 32.421875 
z
" id="DejaVuSans-57"/>
      </defs>
      <g transform="translate(490.199375 688.092188)rotate(-90)scale(0.1 -0.1)">
       <use xlink:href="#DejaVuSans-65"/>
       <use x="68.439453" xlink:href="#DejaVuSans-65"/>
       <use x="136.847656" xlink:href="#DejaVuSans-72"/>
       <use x="212.042969" xlink:href="#DejaVuSans-48"/>
       <use x="275.666016" xlink:href="#DejaVuSans-52"/>
       <use x="339.289062" xlink:href="#DejaVuSans-57"/>
      </g>
     </g>
    </g>
    <g id="xtick_10">
     <g id="line2d_10">
      <g>
       <use style="stroke:#000000;stroke-width:0.8;" x="532.08" xlink:href="#mb4dd47a789" y="640.8"/>
      </g>
     </g>
     <g id="text_10">
      <!-- AAH042 -->
      <g transform="translate(534.839375 688.092188)rotate(-90)scale(0.1 -0.1)">
       <use xlink:href="#DejaVuSans-65"/>
       <use x="68.439453" xlink:href="#DejaVuSans-65"/>
       <use x="136.847656" xlink:href="#DejaVuSans-72"/>
       <use x="212.042969" xlink:href="#DejaVuSans-48"/>
       <use x="275.666016" xlink:href="#DejaVuSans-52"/>
       <use x="339.289062" xlink:href="#DejaVuSans-50"/>
      </g>
     </g>
    </g>
    <g id="xtick_11">
     <g id="line2d_11">
      <g>
       <use style="stroke:#000000;stroke-width:0.8;" x="576.72" xlink:href="#mb4dd47a789" y="640.8"/>
      </g>
     </g>
     <g id="text_11">
      <!-- JCH202 -->
      <g transform="translate(579.479375 684.340625)rotate(-90)scale(0.1 -0.1)">
       <use xlink:href="#DejaVuSans-74"/>
       <use x="29.492188" xlink:href="#DejaVuSans-67"/>
       <use x="99.316406" xlink:href="#DejaVuSans-72"/>
       <use x="174.511719" xlink:href="#DejaVuSans-50"/>
       <use x="238.134766" xlink:href="#DejaVuSans-48"/>
       <use x="301.757812" xlink:href="#DejaVuSans-50"/>
      </g>
     </g>
    </g>
    <g id="xtick_12">
     <g id="line2d_12">
      <g>
       <use style="stroke:#000000;stroke-width:0.8;" x="621.36" xlink:href="#mb4dd47a789" y="640.8"/>
      </g>
     </g>
     <g id="text_12">
      <!-- JCH212 -->
      <g transform="translate(624.119375 684.340625)rotate(-90)scale(0.1 -0.1)">
       <use xlink:href="#DejaVuSans-74"/>
       <use x="29.492188" xlink:href="#DejaVuSans-67"/>
       <use x="99.316406" xlink:href="#DejaVuSans-72"/>
       <use x="174.511719" xlink:href="#DejaVuSans-50"/>
       <use x="238.134766" xlink:href="#DejaVuSans-49"/>
       <use x="301.757812" xlink:href="#DejaVuSans-50"/>
      </g>
     </g>
    </g>
    <g id="xtick_13">
     <g id="line2d_13">
      <g>
       <use style="stroke:#000000;stroke-width:0.8;" x="666" xlink:href="#mb4dd47a789" y="640.8"/>
      </g>
     </g>
     <g id="text_13">
      <!-- AAH045 -->
      <g transform="translate(668.759375 688.092188)rotate(-90)scale(0.1 -0.1)">
       <use xlink:href="#DejaVuSans-65"/>
       <use x="68.439453" xlink:href="#DejaVuSans-65"/>
       <use x="136.847656" xlink:href="#DejaVuSans-72"/>
       <use x="212.042969" xlink:href="#DejaVuSans-48"/>
       <use x="275.666016" xlink:href="#DejaVuSans-52"/>
       <use x="339.289062" xlink:href="#DejaVuSans-53"/>
      </g>
     </g>
    </g>
    <g id="xtick_14">
     <g id="line2d_14">
      <g>
       <use style="stroke:#000000;stroke-width:0.8;" x="710.64" xlink:href="#mb4dd47a789" y="640.8"/>
      </g>
     </g>
     <g id="text_14">
      <!-- AAH047 -->
      <g transform="translate(713.399375 688.092188)rotate(-90)scale(0.1 -0.1)">
       <use xlink:href="#DejaVuSans-65"/>
       <use x="68.439453" xlink:href="#DejaVuSans-65"/>
       <use x="136.847656" xlink:href="#DejaVuSans-72"/>
       <use x="212.042969" xlink:href="#DejaVuSans-48"/>
       <use x="275.666016" xlink:href="#DejaVuSans-52"/>
       <use x="339.289062" xlink:href="#DejaVuSans-55"/>
      </g>
     </g>
    </g>
    <g id="xtick_15">
     <g id="line2d_15">
      <g>
       <use style="stroke:#000000;stroke-width:0.8;" x="755.28" xlink:href="#mb4dd47a789" y="640.8"/>
      </g>
     </g>
     <g id="text_15">
      <!-- AAH043 -->
      <defs>
       <path d="M 40.578125 39.3125 
Q 47.65625 37.796875 51.625 33 
Q 55.609375 28.21875 55.609375 21.1875 
Q 55.609375 10.40625 48.1875 4.484375 
Q 40.765625 -1.421875 27.09375 -1.421875 
Q 22.515625 -1.421875 17.65625 -0.515625 
Q 12.796875 0.390625 7.625 2.203125 
L 7.625 11.71875 
Q 11.71875 9.328125 16.59375 8.109375 
Q 21.484375 6.890625 26.8125 6.890625 
Q 36.078125 6.890625 40.9375 10.546875 
Q 45.796875 14.203125 45.796875 21.1875 
Q 45.796875 27.640625 41.28125 31.265625 
Q 36.765625 34.90625 28.71875 34.90625 
L 20.21875 34.90625 
L 20.21875 43.015625 
L 29.109375 43.015625 
Q 36.375 43.015625 40.234375 45.921875 
Q 44.09375 48.828125 44.09375 54.296875 
Q 44.09375 59.90625 40.109375 62.90625 
Q 36.140625 65.921875 28.71875 65.921875 
Q 24.65625 65.921875 20.015625 65.03125 
Q 15.375 64.15625 9.8125 62.3125 
L 9.8125 71.09375 
Q 15.4375 72.65625 20.34375 73.4375 
Q 25.25 74.21875 29.59375 74.21875 
Q 40.828125 74.21875 47.359375 69.109375 
Q 53.90625 64.015625 53.90625 55.328125 
Q 53.90625 49.265625 50.4375 45.09375 
Q 46.96875 40.921875 40.578125 39.3125 
z
" id="DejaVuSans-51"/>
      </defs>
      <g transform="translate(758.039375 688.092188)rotate(-90)scale(0.1 -0.1)">
       <use xlink:href="#DejaVuSans-65"/>
       <use x="68.439453" xlink:href="#DejaVuSans-65"/>
       <use x="136.847656" xlink:href="#DejaVuSans-72"/>
       <use x="212.042969" xlink:href="#DejaVuSans-48"/>
       <use x="275.666016" xlink:href="#DejaVuSans-52"/>
       <use x="339.289062" xlink:href="#DejaVuSans-51"/>
      </g>
     </g>
    </g>
    <g id="text_16">
     <!-- Bug Number -->
     <defs>
      <path d="M 19.671875 34.8125 
L 19.671875 8.109375 
L 35.5 8.109375 
Q 43.453125 8.109375 47.28125 11.40625 
Q 51.125 14.703125 51.125 21.484375 
Q 51.125 28.328125 47.28125 31.5625 
Q 43.453125 34.8125 35.5 34.8125 
z
M 19.671875 64.796875 
L 19.671875 42.828125 
L 34.28125 42.828125 
Q 41.5 42.828125 45.03125 45.53125 
Q 48.578125 48.25 48.578125 53.8125 
Q 48.578125 59.328125 45.03125 62.0625 
Q 41.5 64.796875 34.28125 64.796875 
z
M 9.8125 72.90625 
L 35.015625 72.90625 
Q 46.296875 72.90625 52.390625 68.21875 
Q 58.5 63.53125 58.5 54.890625 
Q 58.5 48.1875 55.375 44.234375 
Q 52.25 40.28125 46.1875 39.3125 
Q 53.46875 37.75 57.5 32.78125 
Q 61.53125 27.828125 61.53125 20.40625 
Q 61.53125 10.640625 54.890625 5.3125 
Q 48.25 0 35.984375 0 
L 9.8125 0 
z
" id="DejaVuSans-66"/>
      <path d="M 8.5 21.578125 
L 8.5 54.6875 
L 17.484375 54.6875 
L 17.484375 21.921875 
Q 17.484375 14.15625 20.5 10.265625 
Q 23.53125 6.390625 29.59375 6.390625 
Q 36.859375 6.390625 41.078125 11.03125 
Q 45.3125 15.671875 45.3125 23.6875 
L 45.3125 54.6875 
L 54.296875 54.6875 
L 54.296875 0 
L 45.3125 0 
L 45.3125 8.40625 
Q 42.046875 3.421875 37.71875 1 
Q 33.40625 -1.421875 27.6875 -1.421875 
Q 18.265625 -1.421875 13.375 4.4375 
Q 8.5 10.296875 8.5 21.578125 
z
M 31.109375 56 
z
" id="DejaVuSans-117"/>
      <path d="M 45.40625 27.984375 
Q 45.40625 37.75 41.375 43.109375 
Q 37.359375 48.484375 30.078125 48.484375 
Q 22.859375 48.484375 18.828125 43.109375 
Q 14.796875 37.75 14.796875 27.984375 
Q 14.796875 18.265625 18.828125 12.890625 
Q 22.859375 7.515625 30.078125 7.515625 
Q 37.359375 7.515625 41.375 12.890625 
Q 45.40625 18.265625 45.40625 27.984375 
z
M 54.390625 6.78125 
Q 54.390625 -7.171875 48.1875 -13.984375 
Q 42 -20.796875 29.203125 -20.796875 
Q 24.46875 -20.796875 20.265625 -20.09375 
Q 16.0625 -19.390625 12.109375 -17.921875 
L 12.109375 -9.1875 
Q 16.0625 -11.328125 19.921875 -12.34375 
Q 23.78125 -13.375 27.78125 -13.375 
Q 36.625 -13.375 41.015625 -8.765625 
Q 45.40625 -4.15625 45.40625 5.171875 
L 45.40625 9.625 
Q 42.625 4.78125 38.28125 2.390625 
Q 33.9375 0 27.875 0 
Q 17.828125 0 11.671875 7.65625 
Q 5.515625 15.328125 5.515625 27.984375 
Q 5.515625 40.671875 11.671875 48.328125 
Q 17.828125 56 27.875 56 
Q 33.9375 56 38.28125 53.609375 
Q 42.625 51.21875 45.40625 46.390625 
L 45.40625 54.6875 
L 54.390625 54.6875 
z
" id="DejaVuSans-103"/>
      <path id="DejaVuSans-32"/>
      <path d="M 9.8125 72.90625 
L 23.09375 72.90625 
L 55.421875 11.921875 
L 55.421875 72.90625 
L 64.984375 72.90625 
L 64.984375 0 
L 51.703125 0 
L 19.390625 60.984375 
L 19.390625 0 
L 9.8125 0 
z
" id="DejaVuSans-78"/>
      <path d="M 52 44.1875 
Q 55.375 50.25 60.0625 53.125 
Q 64.75 56 71.09375 56 
Q 79.640625 56 84.28125 50.015625 
Q 88.921875 44.046875 88.921875 33.015625 
L 88.921875 0 
L 79.890625 0 
L 79.890625 32.71875 
Q 79.890625 40.578125 77.09375 44.375 
Q 74.3125 48.1875 68.609375 48.1875 
Q 61.625 48.1875 57.5625 43.546875 
Q 53.515625 38.921875 53.515625 30.90625 
L 53.515625 0 
L 44.484375 0 
L 44.484375 32.71875 
Q 44.484375 40.625 41.703125 44.40625 
Q 38.921875 48.1875 33.109375 48.1875 
Q 26.21875 48.1875 22.15625 43.53125 
Q 18.109375 38.875 18.109375 30.90625 
L 18.109375 0 
L 9.078125 0 
L 9.078125 54.6875 
L 18.109375 54.6875 
L 18.109375 46.1875 
Q 21.1875 51.21875 25.484375 53.609375 
Q 29.78125 56 35.6875 56 
Q 41.65625 56 45.828125 52.96875 
Q 50 49.953125 52 44.1875 
z
" id="DejaVuSans-109"/>
      <path d="M 48.6875 27.296875 
Q 48.6875 37.203125 44.609375 42.84375 
Q 40.53125 48.484375 33.40625 48.484375 
Q 26.265625 48.484375 22.1875 42.84375 
Q 18.109375 37.203125 18.109375 27.296875 
Q 18.109375 17.390625 22.1875 11.75 
Q 26.265625 6.109375 33.40625 6.109375 
Q 40.53125 6.109375 44.609375 11.75 
Q 48.6875 17.390625 48.6875 27.296875 
z
M 18.109375 46.390625 
Q 20.953125 51.265625 25.265625 53.625 
Q 29.59375 56 35.59375 56 
Q 45.5625 56 51.78125 48.09375 
Q 58.015625 40.1875 58.015625 27.296875 
Q 58.015625 14.40625 51.78125 6.484375 
Q 45.5625 -1.421875 35.59375 -1.421875 
Q 29.59375 -1.421875 25.265625 0.953125 
Q 20.953125 3.328125 18.109375 8.203125 
L 18.109375 0 
L 9.078125 0 
L 9.078125 75.984375 
L 18.109375 75.984375 
z
" id="DejaVuSans-98"/>
      <path d="M 56.203125 29.59375 
L 56.203125 25.203125 
L 14.890625 25.203125 
Q 15.484375 15.921875 20.484375 11.0625 
Q 25.484375 6.203125 34.421875 6.203125 
Q 39.59375 6.203125 44.453125 7.46875 
Q 49.3125 8.734375 54.109375 11.28125 
L 54.109375 2.78125 
Q 49.265625 0.734375 44.1875 -0.34375 
Q 39.109375 -1.421875 33.890625 -1.421875 
Q 20.796875 -1.421875 13.15625 6.1875 
Q 5.515625 13.8125 5.515625 26.8125 
Q 5.515625 40.234375 12.765625 48.109375 
Q 20.015625 56 32.328125 56 
Q 43.359375 56 49.78125 48.890625 
Q 56.203125 41.796875 56.203125 29.59375 
z
M 47.21875 32.234375 
Q 47.125 39.59375 43.09375 43.984375 
Q 39.0625 48.390625 32.421875 48.390625 
Q 24.90625 48.390625 20.390625 44.140625 
Q 15.875 39.890625 15.1875 32.171875 
z
" id="DejaVuSans-101"/>
      <path d="M 41.109375 46.296875 
Q 39.59375 47.171875 37.8125 47.578125 
Q 36.03125 48 33.890625 48 
Q 26.265625 48 22.1875 43.046875 
Q 18.109375 38.09375 18.109375 28.8125 
L 18.109375 0 
L 9.078125 0 
L 9.078125 54.6875 
L 18.109375 54.6875 
L 18.109375 46.1875 
Q 20.953125 51.171875 25.484375 53.578125 
Q 30.03125 56 36.53125 56 
Q 37.453125 56 38.578125 55.875 
Q 39.703125 55.765625 41.0625 55.515625 
z
" id="DejaVuSans-114"/>
     </defs>
     <g transform="translate(411.351562 699.690625)scale(0.1 -0.1)">
      <use xlink:href="#DejaVuSans-66"/>
      <use x="68.603516" xlink:href="#DejaVuSans-117"/>
      <use x="131.982422" xlink:href="#DejaVuSans-103"/>
      <use x="195.458984" xlink:href="#DejaVuSans-32"/>
      <use x="227.246094" xlink:href="#DejaVuSans-78"/>
      <use x="302.050781" xlink:href="#DejaVuSans-117"/>
      <use x="365.429688" xlink:href="#DejaVuSans-109"/>
      <use x="462.841797" xlink:href="#DejaVuSans-98"/>
      <use x="526.318359" xlink:href="#DejaVuSans-101"/>
      <use x="587.841797" xlink:href="#DejaVuSans-114"/>
     </g>
    </g>
   </g>
   <g id="matplotlib.axis_2">
    <g id="ytick_1">
     <g id="line2d_16">
      <defs>
       <path d="M 0 0 
L -3.5 0 
" id="m7d2020bf81" style="stroke:#000000;stroke-width:0.8;"/>
      </defs>
      <g>
       <use style="stroke:#000000;stroke-width:0.8;" x="108" xlink:href="#m7d2020bf81" y="640.8"/>
      </g>
     </g>
     <g id="text_17">
      <!-- 0 -->
      <g transform="translate(94.6375 644.599219)scale(0.1 -0.1)">
       <use xlink:href="#DejaVuSans-48"/>
      </g>
     </g>
    </g>
    <g id="ytick_2">
     <g id="line2d_17">
      <g>
       <use style="stroke:#000000;stroke-width:0.8;" x="108" xlink:href="#m7d2020bf81" y="551.308475"/>
      </g>
     </g>
     <g id="text_18">
      <!-- 200 -->
      <g transform="translate(81.9125 555.107693)scale(0.1 -0.1)">
       <use xlink:href="#DejaVuSans-50"/>
       <use x="63.623047" xlink:href="#DejaVuSans-48"/>
       <use x="127.246094" xlink:href="#DejaVuSans-48"/>
      </g>
     </g>
    </g>
    <g id="ytick_3">
     <g id="line2d_18">
      <g>
       <use style="stroke:#000000;stroke-width:0.8;" x="108" xlink:href="#m7d2020bf81" y="461.816949"/>
      </g>
     </g>
     <g id="text_19">
      <!-- 400 -->
      <g transform="translate(81.9125 465.616168)scale(0.1 -0.1)">
       <use xlink:href="#DejaVuSans-52"/>
       <use x="63.623047" xlink:href="#DejaVuSans-48"/>
       <use x="127.246094" xlink:href="#DejaVuSans-48"/>
      </g>
     </g>
    </g>
    <g id="ytick_4">
     <g id="line2d_19">
      <g>
       <use style="stroke:#000000;stroke-width:0.8;" x="108" xlink:href="#m7d2020bf81" y="372.325424"/>
      </g>
     </g>
     <g id="text_20">
      <!-- 600 -->
      <defs>
       <path d="M 33.015625 40.375 
Q 26.375 40.375 22.484375 35.828125 
Q 18.609375 31.296875 18.609375 23.390625 
Q 18.609375 15.53125 22.484375 10.953125 
Q 26.375 6.390625 33.015625 6.390625 
Q 39.65625 6.390625 43.53125 10.953125 
Q 47.40625 15.53125 47.40625 23.390625 
Q 47.40625 31.296875 43.53125 35.828125 
Q 39.65625 40.375 33.015625 40.375 
z
M 52.59375 71.296875 
L 52.59375 62.3125 
Q 48.875 64.0625 45.09375 64.984375 
Q 41.3125 65.921875 37.59375 65.921875 
Q 27.828125 65.921875 22.671875 59.328125 
Q 17.53125 52.734375 16.796875 39.40625 
Q 19.671875 43.65625 24.015625 45.921875 
Q 28.375 48.1875 33.59375 48.1875 
Q 44.578125 48.1875 50.953125 41.515625 
Q 57.328125 34.859375 57.328125 23.390625 
Q 57.328125 12.15625 50.6875 5.359375 
Q 44.046875 -1.421875 33.015625 -1.421875 
Q 20.359375 -1.421875 13.671875 8.265625 
Q 6.984375 17.96875 6.984375 36.375 
Q 6.984375 53.65625 15.1875 63.9375 
Q 23.390625 74.21875 37.203125 74.21875 
Q 40.921875 74.21875 44.703125 73.484375 
Q 48.484375 72.75 52.59375 71.296875 
z
" id="DejaVuSans-54"/>
      </defs>
      <g transform="translate(81.9125 376.124642)scale(0.1 -0.1)">
       <use xlink:href="#DejaVuSans-54"/>
       <use x="63.623047" xlink:href="#DejaVuSans-48"/>
       <use x="127.246094" xlink:href="#DejaVuSans-48"/>
      </g>
     </g>
    </g>
    <g id="ytick_5">
     <g id="line2d_20">
      <g>
       <use style="stroke:#000000;stroke-width:0.8;" x="108" xlink:href="#m7d2020bf81" y="282.833898"/>
      </g>
     </g>
     <g id="text_21">
      <!-- 800 -->
      <g transform="translate(81.9125 286.633117)scale(0.1 -0.1)">
       <use xlink:href="#DejaVuSans-56"/>
       <use x="63.623047" xlink:href="#DejaVuSans-48"/>
       <use x="127.246094" xlink:href="#DejaVuSans-48"/>
      </g>
     </g>
    </g>
    <g id="ytick_6">
     <g id="line2d_21">
      <g>
       <use style="stroke:#000000;stroke-width:0.8;" x="108" xlink:href="#m7d2020bf81" y="193.342373"/>
      </g>
     </g>
     <g id="text_22">
      <!-- 1000 -->
      <g transform="translate(75.55 197.141592)scale(0.1 -0.1)">
       <use xlink:href="#DejaVuSans-49"/>
       <use x="63.623047" xlink:href="#DejaVuSans-48"/>
       <use x="127.246094" xlink:href="#DejaVuSans-48"/>
       <use x="190.869141" xlink:href="#DejaVuSans-48"/>
      </g>
     </g>
    </g>
    <g id="ytick_7">
     <g id="line2d_22">
      <g>
       <use style="stroke:#000000;stroke-width:0.8;" x="108" xlink:href="#m7d2020bf81" y="103.850847"/>
      </g>
     </g>
     <g id="text_23">
      <!-- 1200 -->
      <g transform="translate(75.55 107.650066)scale(0.1 -0.1)">
       <use xlink:href="#DejaVuSans-49"/>
       <use x="63.623047" xlink:href="#DejaVuSans-50"/>
       <use x="127.246094" xlink:href="#DejaVuSans-48"/>
       <use x="190.869141" xlink:href="#DejaVuSans-48"/>
      </g>
     </g>
    </g>
    <g id="text_24">
     <!-- Time (seconds) -->
     <defs>
      <path d="M -0.296875 72.90625 
L 61.375 72.90625 
L 61.375 64.59375 
L 35.5 64.59375 
L 35.5 0 
L 25.59375 0 
L 25.59375 64.59375 
L -0.296875 64.59375 
z
" id="DejaVuSans-84"/>
      <path d="M 9.421875 54.6875 
L 18.40625 54.6875 
L 18.40625 0 
L 9.421875 0 
z
M 9.421875 75.984375 
L 18.40625 75.984375 
L 18.40625 64.59375 
L 9.421875 64.59375 
z
" id="DejaVuSans-105"/>
      <path d="M 31 75.875 
Q 24.46875 64.65625 21.28125 53.65625 
Q 18.109375 42.671875 18.109375 31.390625 
Q 18.109375 20.125 21.3125 9.0625 
Q 24.515625 -2 31 -13.1875 
L 23.1875 -13.1875 
Q 15.875 -1.703125 12.234375 9.375 
Q 8.59375 20.453125 8.59375 31.390625 
Q 8.59375 42.28125 12.203125 53.3125 
Q 15.828125 64.359375 23.1875 75.875 
z
" id="DejaVuSans-40"/>
      <path d="M 44.28125 53.078125 
L 44.28125 44.578125 
Q 40.484375 46.53125 36.375 47.5 
Q 32.28125 48.484375 27.875 48.484375 
Q 21.1875 48.484375 17.84375 46.4375 
Q 14.5 44.390625 14.5 40.28125 
Q 14.5 37.15625 16.890625 35.375 
Q 19.28125 33.59375 26.515625 31.984375 
L 29.59375 31.296875 
Q 39.15625 29.25 43.1875 25.515625 
Q 47.21875 21.78125 47.21875 15.09375 
Q 47.21875 7.46875 41.1875 3.015625 
Q 35.15625 -1.421875 24.609375 -1.421875 
Q 20.21875 -1.421875 15.453125 -0.5625 
Q 10.6875 0.296875 5.421875 2 
L 5.421875 11.28125 
Q 10.40625 8.6875 15.234375 7.390625 
Q 20.0625 6.109375 24.8125 6.109375 
Q 31.15625 6.109375 34.5625 8.28125 
Q 37.984375 10.453125 37.984375 14.40625 
Q 37.984375 18.0625 35.515625 20.015625 
Q 33.0625 21.96875 24.703125 23.78125 
L 21.578125 24.515625 
Q 13.234375 26.265625 9.515625 29.90625 
Q 5.8125 33.546875 5.8125 39.890625 
Q 5.8125 47.609375 11.28125 51.796875 
Q 16.75 56 26.8125 56 
Q 31.78125 56 36.171875 55.265625 
Q 40.578125 54.546875 44.28125 53.078125 
z
" id="DejaVuSans-115"/>
      <path d="M 48.78125 52.59375 
L 48.78125 44.1875 
Q 44.96875 46.296875 41.140625 47.34375 
Q 37.3125 48.390625 33.40625 48.390625 
Q 24.65625 48.390625 19.8125 42.84375 
Q 14.984375 37.3125 14.984375 27.296875 
Q 14.984375 17.28125 19.8125 11.734375 
Q 24.65625 6.203125 33.40625 6.203125 
Q 37.3125 6.203125 41.140625 7.25 
Q 44.96875 8.296875 48.78125 10.40625 
L 48.78125 2.09375 
Q 45.015625 0.34375 40.984375 -0.53125 
Q 36.96875 -1.421875 32.421875 -1.421875 
Q 20.0625 -1.421875 12.78125 6.34375 
Q 5.515625 14.109375 5.515625 27.296875 
Q 5.515625 40.671875 12.859375 48.328125 
Q 20.21875 56 33.015625 56 
Q 37.15625 56 41.109375 55.140625 
Q 45.0625 54.296875 48.78125 52.59375 
z
" id="DejaVuSans-99"/>
      <path d="M 30.609375 48.390625 
Q 23.390625 48.390625 19.1875 42.75 
Q 14.984375 37.109375 14.984375 27.296875 
Q 14.984375 17.484375 19.15625 11.84375 
Q 23.34375 6.203125 30.609375 6.203125 
Q 37.796875 6.203125 41.984375 11.859375 
Q 46.1875 17.53125 46.1875 27.296875 
Q 46.1875 37.015625 41.984375 42.703125 
Q 37.796875 48.390625 30.609375 48.390625 
z
M 30.609375 56 
Q 42.328125 56 49.015625 48.375 
Q 55.71875 40.765625 55.71875 27.296875 
Q 55.71875 13.875 49.015625 6.21875 
Q 42.328125 -1.421875 30.609375 -1.421875 
Q 18.84375 -1.421875 12.171875 6.21875 
Q 5.515625 13.875 5.515625 27.296875 
Q 5.515625 40.765625 12.171875 48.375 
Q 18.84375 56 30.609375 56 
z
" id="DejaVuSans-111"/>
      <path d="M 54.890625 33.015625 
L 54.890625 0 
L 45.90625 0 
L 45.90625 32.71875 
Q 45.90625 40.484375 42.875 44.328125 
Q 39.84375 48.1875 33.796875 48.1875 
Q 26.515625 48.1875 22.3125 43.546875 
Q 18.109375 38.921875 18.109375 30.90625 
L 18.109375 0 
L 9.078125 0 
L 9.078125 54.6875 
L 18.109375 54.6875 
L 18.109375 46.1875 
Q 21.34375 51.125 25.703125 53.5625 
Q 30.078125 56 35.796875 56 
Q 45.21875 56 50.046875 50.171875 
Q 54.890625 44.34375 54.890625 33.015625 
z
" id="DejaVuSans-110"/>
      <path d="M 45.40625 46.390625 
L 45.40625 75.984375 
L 54.390625 75.984375 
L 54.390625 0 
L 45.40625 0 
L 45.40625 8.203125 
Q 42.578125 3.328125 38.25 0.953125 
Q 33.9375 -1.421875 27.875 -1.421875 
Q 17.96875 -1.421875 11.734375 6.484375 
Q 5.515625 14.40625 5.515625 27.296875 
Q 5.515625 40.1875 11.734375 48.09375 
Q 17.96875 56 27.875 56 
Q 33.9375 56 38.25 53.625 
Q 42.578125 51.265625 45.40625 46.390625 
z
M 14.796875 27.296875 
Q 14.796875 17.390625 18.875 11.75 
Q 22.953125 6.109375 30.078125 6.109375 
Q 37.203125 6.109375 41.296875 11.75 
Q 45.40625 17.390625 45.40625 27.296875 
Q 45.40625 37.203125 41.296875 42.84375 
Q 37.203125 48.484375 30.078125 48.484375 
Q 22.953125 48.484375 18.875 42.84375 
Q 14.796875 37.203125 14.796875 27.296875 
z
" id="DejaVuSans-100"/>
      <path d="M 8.015625 75.875 
L 15.828125 75.875 
Q 23.140625 64.359375 26.78125 53.3125 
Q 30.421875 42.28125 30.421875 31.390625 
Q 30.421875 20.453125 26.78125 9.375 
Q 23.140625 -1.703125 15.828125 -13.1875 
L 8.015625 -13.1875 
Q 14.5 -2 17.703125 9.0625 
Q 20.90625 20.125 20.90625 31.390625 
Q 20.90625 42.671875 17.703125 53.65625 
Q 14.5 64.65625 8.015625 75.875 
z
" id="DejaVuSans-41"/>
     </defs>
     <g transform="translate(69.470312 401.915625)rotate(-90)scale(0.1 -0.1)">
      <use xlink:href="#DejaVuSans-84"/>
      <use x="61.037109" xlink:href="#DejaVuSans-105"/>
      <use x="88.820312" xlink:href="#DejaVuSans-109"/>
      <use x="186.232422" xlink:href="#DejaVuSans-101"/>
      <use x="247.755859" xlink:href="#DejaVuSans-32"/>
      <use x="279.542969" xlink:href="#DejaVuSans-40"/>
      <use x="318.556641" xlink:href="#DejaVuSans-115"/>
      <use x="370.65625" xlink:href="#DejaVuSans-101"/>
      <use x="432.179688" xlink:href="#DejaVuSans-99"/>
      <use x="487.160156" xlink:href="#DejaVuSans-111"/>
      <use x="548.341797" xlink:href="#DejaVuSans-110"/>
      <use x="611.720703" xlink:href="#DejaVuSans-100"/>
      <use x="675.197266" xlink:href="#DejaVuSans-115"/>
      <use x="727.296875" xlink:href="#DejaVuSans-41"/>
     </g>
    </g>
   </g>
   <g id="patch_288">
    <path d="M 108 640.8 
L 108 86.4 
" style="fill:none;stroke:#000000;stroke-linecap:square;stroke-linejoin:miter;stroke-width:0.8;"/>
   </g>
   <g id="patch_289">
    <path d="M 777.6 640.8 
L 777.6 86.4 
" style="fill:none;stroke:#000000;stroke-linecap:square;stroke-linejoin:miter;stroke-width:0.8;"/>
   </g>
   <g id="patch_290">
    <path d="M 108 640.8 
L 777.6 640.8 
" style="fill:none;stroke:#000000;stroke-linecap:square;stroke-linejoin:miter;stroke-width:0.8;"/>
   </g>
   <g id="patch_291">
    <path d="M 108 86.4 
L 777.6 86.4 
" style="fill:none;stroke:#000000;stroke-linecap:square;stroke-linejoin:miter;stroke-width:0.8;"/>
   </g>
   <g id="text_25">
    <!-- reached. Fuzzer: afl. Library:poppler. For different campaigns -->
    <defs>
     <path d="M 34.28125 27.484375 
Q 23.390625 27.484375 19.1875 25 
Q 14.984375 22.515625 14.984375 16.5 
Q 14.984375 11.71875 18.140625 8.90625 
Q 21.296875 6.109375 26.703125 6.109375 
Q 34.1875 6.109375 38.703125 11.40625 
Q 43.21875 16.703125 43.21875 25.484375 
L 43.21875 27.484375 
z
M 52.203125 31.203125 
L 52.203125 0 
L 43.21875 0 
L 43.21875 8.296875 
Q 40.140625 3.328125 35.546875 0.953125 
Q 30.953125 -1.421875 24.3125 -1.421875 
Q 15.921875 -1.421875 10.953125 3.296875 
Q 6 8.015625 6 15.921875 
Q 6 25.140625 12.171875 29.828125 
Q 18.359375 34.515625 30.609375 34.515625 
L 43.21875 34.515625 
L 43.21875 35.40625 
Q 43.21875 41.609375 39.140625 45 
Q 35.0625 48.390625 27.6875 48.390625 
Q 23 48.390625 18.546875 47.265625 
Q 14.109375 46.140625 10.015625 43.890625 
L 10.015625 52.203125 
Q 14.9375 54.109375 19.578125 55.046875 
Q 24.21875 56 28.609375 56 
Q 40.484375 56 46.34375 49.84375 
Q 52.203125 43.703125 52.203125 31.203125 
z
" id="DejaVuSans-97"/>
     <path d="M 54.890625 33.015625 
L 54.890625 0 
L 45.90625 0 
L 45.90625 32.71875 
Q 45.90625 40.484375 42.875 44.328125 
Q 39.84375 48.1875 33.796875 48.1875 
Q 26.515625 48.1875 22.3125 43.546875 
Q 18.109375 38.921875 18.109375 30.90625 
L 18.109375 0 
L 9.078125 0 
L 9.078125 75.984375 
L 18.109375 75.984375 
L 18.109375 46.1875 
Q 21.34375 51.125 25.703125 53.5625 
Q 30.078125 56 35.796875 56 
Q 45.21875 56 50.046875 50.171875 
Q 54.890625 44.34375 54.890625 33.015625 
z
" id="DejaVuSans-104"/>
     <path d="M 10.6875 12.40625 
L 21 12.40625 
L 21 0 
L 10.6875 0 
z
" id="DejaVuSans-46"/>
     <path d="M 9.8125 72.90625 
L 51.703125 72.90625 
L 51.703125 64.59375 
L 19.671875 64.59375 
L 19.671875 43.109375 
L 48.578125 43.109375 
L 48.578125 34.8125 
L 19.671875 34.8125 
L 19.671875 0 
L 9.8125 0 
z
" id="DejaVuSans-70"/>
     <path d="M 5.515625 54.6875 
L 48.1875 54.6875 
L 48.1875 46.484375 
L 14.40625 7.171875 
L 48.1875 7.171875 
L 48.1875 0 
L 4.296875 0 
L 4.296875 8.203125 
L 38.09375 47.515625 
L 5.515625 47.515625 
z
" id="DejaVuSans-122"/>
     <path d="M 11.71875 12.40625 
L 22.015625 12.40625 
L 22.015625 0 
L 11.71875 0 
z
M 11.71875 51.703125 
L 22.015625 51.703125 
L 22.015625 39.3125 
L 11.71875 39.3125 
z
" id="DejaVuSans-58"/>
     <path d="M 37.109375 75.984375 
L 37.109375 68.5 
L 28.515625 68.5 
Q 23.6875 68.5 21.796875 66.546875 
Q 19.921875 64.59375 19.921875 59.515625 
L 19.921875 54.6875 
L 34.71875 54.6875 
L 34.71875 47.703125 
L 19.921875 47.703125 
L 19.921875 0 
L 10.890625 0 
L 10.890625 47.703125 
L 2.296875 47.703125 
L 2.296875 54.6875 
L 10.890625 54.6875 
L 10.890625 58.5 
Q 10.890625 67.625 15.140625 71.796875 
Q 19.390625 75.984375 28.609375 75.984375 
z
" id="DejaVuSans-102"/>
     <path d="M 9.421875 75.984375 
L 18.40625 75.984375 
L 18.40625 0 
L 9.421875 0 
z
" id="DejaVuSans-108"/>
     <path d="M 9.8125 72.90625 
L 19.671875 72.90625 
L 19.671875 8.296875 
L 55.171875 8.296875 
L 55.171875 0 
L 9.8125 0 
z
" id="DejaVuSans-76"/>
     <path d="M 32.171875 -5.078125 
Q 28.375 -14.84375 24.75 -17.8125 
Q 21.140625 -20.796875 15.09375 -20.796875 
L 7.90625 -20.796875 
L 7.90625 -13.28125 
L 13.1875 -13.28125 
Q 16.890625 -13.28125 18.9375 -11.515625 
Q 21 -9.765625 23.484375 -3.21875 
L 25.09375 0.875 
L 2.984375 54.6875 
L 12.5 54.6875 
L 29.59375 11.921875 
L 46.6875 54.6875 
L 56.203125 54.6875 
z
" id="DejaVuSans-121"/>
     <path d="M 18.109375 8.203125 
L 18.109375 -20.796875 
L 9.078125 -20.796875 
L 9.078125 54.6875 
L 18.109375 54.6875 
L 18.109375 46.390625 
Q 20.953125 51.265625 25.265625 53.625 
Q 29.59375 56 35.59375 56 
Q 45.5625 56 51.78125 48.09375 
Q 58.015625 40.1875 58.015625 27.296875 
Q 58.015625 14.40625 51.78125 6.484375 
Q 45.5625 -1.421875 35.59375 -1.421875 
Q 29.59375 -1.421875 25.265625 0.953125 
Q 20.953125 3.328125 18.109375 8.203125 
z
M 48.6875 27.296875 
Q 48.6875 37.203125 44.609375 42.84375 
Q 40.53125 48.484375 33.40625 48.484375 
Q 26.265625 48.484375 22.1875 42.84375 
Q 18.109375 37.203125 18.109375 27.296875 
Q 18.109375 17.390625 22.1875 11.75 
Q 26.265625 6.109375 33.40625 6.109375 
Q 40.53125 6.109375 44.609375 11.75 
Q 48.6875 17.390625 48.6875 27.296875 
z
" id="DejaVuSans-112"/>
     <path d="M 18.3125 70.21875 
L 18.3125 54.6875 
L 36.8125 54.6875 
L 36.8125 47.703125 
L 18.3125 47.703125 
L 18.3125 18.015625 
Q 18.3125 11.328125 20.140625 9.421875 
Q 21.96875 7.515625 27.59375 7.515625 
L 36.8125 7.515625 
L 36.8125 0 
L 27.59375 0 
Q 17.1875 0 13.234375 3.875 
Q 9.28125 7.765625 9.28125 18.015625 
L 9.28125 47.703125 
L 2.6875 47.703125 
L 2.6875 54.6875 
L 9.28125 54.6875 
L 9.28125 70.21875 
z
" id="DejaVuSans-116"/>
    </defs>
    <g transform="translate(258.110625 80.4)scale(0.12 -0.12)">
     <use xlink:href="#DejaVuSans-114"/>
     <use x="41.082031" xlink:href="#DejaVuSans-101"/>
     <use x="102.605469" xlink:href="#DejaVuSans-97"/>
     <use x="163.884766" xlink:href="#DejaVuSans-99"/>
     <use x="218.865234" xlink:href="#DejaVuSans-104"/>
     <use x="282.244141" xlink:href="#DejaVuSans-101"/>
     <use x="343.767578" xlink:href="#DejaVuSans-100"/>
     <use x="407.244141" xlink:href="#DejaVuSans-46"/>
     <use x="439.03125" xlink:href="#DejaVuSans-32"/>
     <use x="470.818359" xlink:href="#DejaVuSans-70"/>
     <use x="528.259766" xlink:href="#DejaVuSans-117"/>
     <use x="591.638672" xlink:href="#DejaVuSans-122"/>
     <use x="644.128906" xlink:href="#DejaVuSans-122"/>
     <use x="696.619141" xlink:href="#DejaVuSans-101"/>
     <use x="758.142578" xlink:href="#DejaVuSans-114"/>
     <use x="799.240234" xlink:href="#DejaVuSans-58"/>
     <use x="832.931641" xlink:href="#DejaVuSans-32"/>
     <use x="864.71875" xlink:href="#DejaVuSans-97"/>
     <use x="925.998047" xlink:href="#DejaVuSans-102"/>
     <use x="961.203125" xlink:href="#DejaVuSans-108"/>
     <use x="988.986328" xlink:href="#DejaVuSans-46"/>
     <use x="1020.773438" xlink:href="#DejaVuSans-32"/>
     <use x="1052.560547" xlink:href="#DejaVuSans-76"/>
     <use x="1108.273438" xlink:href="#DejaVuSans-105"/>
     <use x="1136.056641" xlink:href="#DejaVuSans-98"/>
     <use x="1199.533203" xlink:href="#DejaVuSans-114"/>
     <use x="1240.646484" xlink:href="#DejaVuSans-97"/>
     <use x="1301.925781" xlink:href="#DejaVuSans-114"/>
     <use x="1343.039062" xlink:href="#DejaVuSans-121"/>
     <use x="1402.109375" xlink:href="#DejaVuSans-58"/>
     <use x="1435.800781" xlink:href="#DejaVuSans-112"/>
     <use x="1499.277344" xlink:href="#DejaVuSans-111"/>
     <use x="1560.458984" xlink:href="#DejaVuSans-112"/>
     <use x="1623.935547" xlink:href="#DejaVuSans-112"/>
     <use x="1687.412109" xlink:href="#DejaVuSans-108"/>
     <use x="1715.195312" xlink:href="#DejaVuSans-101"/>
     <use x="1776.71875" xlink:href="#DejaVuSans-114"/>
     <use x="1817.691406" xlink:href="#DejaVuSans-46"/>
     <use x="1849.478516" xlink:href="#DejaVuSans-32"/>
     <use x="1881.265625" xlink:href="#DejaVuSans-70"/>
     <use x="1938.738281" xlink:href="#DejaVuSans-111"/>
     <use x="1999.919922" xlink:href="#DejaVuSans-114"/>
     <use x="2041.033203" xlink:href="#DejaVuSans-32"/>
     <use x="2072.820312" xlink:href="#DejaVuSans-100"/>
     <use x="2136.296875" xlink:href="#DejaVuSans-105"/>
     <use x="2164.080078" xlink:href="#DejaVuSans-102"/>
     <use x="2199.285156" xlink:href="#DejaVuSans-102"/>
     <use x="2234.490234" xlink:href="#DejaVuSans-101"/>
     <use x="2296.013672" xlink:href="#DejaVuSans-114"/>
     <use x="2337.095703" xlink:href="#DejaVuSans-101"/>
     <use x="2398.619141" xlink:href="#DejaVuSans-110"/>
     <use x="2461.998047" xlink:href="#DejaVuSans-116"/>
     <use x="2501.207031" xlink:href="#DejaVuSans-32"/>
     <use x="2532.994141" xlink:href="#DejaVuSans-99"/>
     <use x="2587.974609" xlink:href="#DejaVuSans-97"/>
     <use x="2649.253906" xlink:href="#DejaVuSans-109"/>
     <use x="2746.666016" xlink:href="#DejaVuSans-112"/>
     <use x="2810.142578" xlink:href="#DejaVuSans-97"/>
     <use x="2871.421875" xlink:href="#DejaVuSans-105"/>
     <use x="2899.205078" xlink:href="#DejaVuSans-103"/>
     <use x="2962.681641" xlink:href="#DejaVuSans-110"/>
     <use x="3026.060547" xlink:href="#DejaVuSans-115"/>
    </g>
   </g>
  </g>
 </g>
 <defs>
  <clipPath id="pdb7102de7b">
   <rect height="554.4" width="669.6" x="108" y="86.4"/>
  </clipPath>
 </defs>
</svg>
