<?xml version="1.0" encoding="utf-8" standalone="no"?>
<!DOCTYPE svg PUBLIC "-//W3C//DTD SVG 1.1//EN"
  "http://www.w3.org/Graphics/SVG/1.1/DTD/svg11.dtd">
<!-- Created with matplotlib (https://matplotlib.org/) -->
<svg height="360pt" version="1.1" viewBox="0 0 720 360" width="720pt" xmlns="http://www.w3.org/2000/svg" xmlns:xlink="http://www.w3.org/1999/xlink">
 <defs>
  <style type="text/css">
*{stroke-linecap:butt;stroke-linejoin:round;}
  </style>
 </defs>
 <g id="figure_1">
  <g id="patch_1">
   <path d="M 0 360 
L 720 360 
L 720 0 
L 0 0 
z
" style="fill:#ffffff;"/>
  </g>
  <g id="axes_1">
   <g id="patch_2">
    <path d="M 90 320.4 
L 648 320.4 
L 648 43.2 
L 90 43.2 
z
" style="fill:#ffffff;"/>
   </g>
   <g id="patch_3">
    <path clip-path="url(#pa53a44d2b0)" d="M 99.3 320.4 
L 100.278947 320.4 
L 100.278947 314.80678 
L 99.3 314.80678 
z
" style="fill:#1f77b4;"/>
   </g>
   <g id="patch_4">
    <path clip-path="url(#pa53a44d2b0)" d="M 136.5 320.4 
L 137.478947 320.4 
L 137.478947 315.925424 
L 136.5 315.925424 
z
" style="fill:#1f77b4;"/>
   </g>
   <g id="patch_5">
    <path clip-path="url(#pa53a44d2b0)" d="M 173.7 320.4 
L 174.678947 320.4 
L 174.678947 318.162712 
L 173.7 318.162712 
z
" style="fill:#1f77b4;"/>
   </g>
   <g id="patch_6">
    <path clip-path="url(#pa53a44d2b0)" d="M 210.9 320.4 
L 211.878947 320.4 
L 211.878947 312.569492 
L 210.9 312.569492 
z
" style="fill:#1f77b4;"/>
   </g>
   <g id="patch_7">
    <path clip-path="url(#pa53a44d2b0)" d="M 248.1 320.4 
L 249.078947 320.4 
L 249.078947 319.281356 
L 248.1 319.281356 
z
" style="fill:#1f77b4;"/>
   </g>
   <g id="patch_8">
    <path clip-path="url(#pa53a44d2b0)" d="M 285.3 320.4 
L 286.278947 320.4 
L 286.278947 305.857627 
L 285.3 305.857627 
z
" style="fill:#1f77b4;"/>
   </g>
   <g id="patch_9">
    <path clip-path="url(#pa53a44d2b0)" d="M 322.5 320.4 
L 323.478947 320.4 
L 323.478947 317.044068 
L 322.5 317.044068 
z
" style="fill:#1f77b4;"/>
   </g>
   <g id="patch_10">
    <path clip-path="url(#pa53a44d2b0)" d="M 359.7 320.4 
L 360.678947 320.4 
L 360.678947 318.162712 
L 359.7 318.162712 
z
" style="fill:#1f77b4;"/>
   </g>
   <g id="patch_11">
    <path clip-path="url(#pa53a44d2b0)" d="M 396.9 320.4 
L 397.878947 320.4 
L 397.878947 318.162712 
L 396.9 318.162712 
z
" style="fill:#1f77b4;"/>
   </g>
   <g id="patch_12">
    <path clip-path="url(#pa53a44d2b0)" d="M 434.1 320.4 
L 435.078947 320.4 
L 435.078947 311.450847 
L 434.1 311.450847 
z
" style="fill:#1f77b4;"/>
   </g>
   <g id="patch_13">
    <path clip-path="url(#pa53a44d2b0)" d="M 471.3 320.4 
L 472.278947 320.4 
L 472.278947 318.162712 
L 471.3 318.162712 
z
" style="fill:#1f77b4;"/>
   </g>
   <g id="patch_14">
    <path clip-path="url(#pa53a44d2b0)" d="M 508.5 320.4 
L 509.478947 320.4 
L 509.478947 318.162712 
L 508.5 318.162712 
z
" style="fill:#1f77b4;"/>
   </g>
   <g id="patch_15">
    <path clip-path="url(#pa53a44d2b0)" d="M 545.7 320.4 
L 546.678947 320.4 
L 546.678947 317.044068 
L 545.7 317.044068 
z
" style="fill:#1f77b4;"/>
   </g>
   <g id="patch_16">
    <path clip-path="url(#pa53a44d2b0)" d="M 582.9 320.4 
L 583.878947 320.4 
L 583.878947 314.80678 
L 582.9 314.80678 
z
" style="fill:#1f77b4;"/>
   </g>
   <g id="patch_17">
    <path clip-path="url(#pa53a44d2b0)" d="M 620.1 320.4 
L 621.078947 320.4 
L 621.078947 314.80678 
L 620.1 314.80678 
z
" style="fill:#1f77b4;"/>
   </g>
   <g id="patch_18">
    <path clip-path="url(#pa53a44d2b0)" d="M 100.278947 320.4 
L 101.257895 320.4 
L 101.257895 314.80678 
L 100.278947 314.80678 
z
" style="fill:#ff7f0e;"/>
   </g>
   <g id="patch_19">
    <path clip-path="url(#pa53a44d2b0)" d="M 137.478947 320.4 
L 138.457895 320.4 
L 138.457895 315.925424 
L 137.478947 315.925424 
z
" style="fill:#ff7f0e;"/>
   </g>
   <g id="patch_20">
    <path clip-path="url(#pa53a44d2b0)" d="M 174.678947 320.4 
L 175.657895 320.4 
L 175.657895 318.162712 
L 174.678947 318.162712 
z
" style="fill:#ff7f0e;"/>
   </g>
   <g id="patch_21">
    <path clip-path="url(#pa53a44d2b0)" d="M 211.878947 320.4 
L 212.857895 320.4 
L 212.857895 312.569492 
L 211.878947 312.569492 
z
" style="fill:#ff7f0e;"/>
   </g>
   <g id="patch_22">
    <path clip-path="url(#pa53a44d2b0)" d="M 249.078947 320.4 
L 250.057895 320.4 
L 250.057895 319.281356 
L 249.078947 319.281356 
z
" style="fill:#ff7f0e;"/>
   </g>
   <g id="patch_23">
    <path clip-path="url(#pa53a44d2b0)" d="M 286.278947 320.4 
L 287.257895 320.4 
L 287.257895 305.857627 
L 286.278947 305.857627 
z
" style="fill:#ff7f0e;"/>
   </g>
   <g id="patch_24">
    <path clip-path="url(#pa53a44d2b0)" d="M 323.478947 320.4 
L 324.457895 320.4 
L 324.457895 317.044068 
L 323.478947 317.044068 
z
" style="fill:#ff7f0e;"/>
   </g>
   <g id="patch_25">
    <path clip-path="url(#pa53a44d2b0)" d="M 360.678947 320.4 
L 361.657895 320.4 
L 361.657895 318.162712 
L 360.678947 318.162712 
z
" style="fill:#ff7f0e;"/>
   </g>
   <g id="patch_26">
    <path clip-path="url(#pa53a44d2b0)" d="M 397.878947 320.4 
L 398.857895 320.4 
L 398.857895 318.162712 
L 397.878947 318.162712 
z
" style="fill:#ff7f0e;"/>
   </g>
   <g id="patch_27">
    <path clip-path="url(#pa53a44d2b0)" d="M 435.078947 320.4 
L 436.057895 320.4 
L 436.057895 311.450847 
L 435.078947 311.450847 
z
" style="fill:#ff7f0e;"/>
   </g>
   <g id="patch_28">
    <path clip-path="url(#pa53a44d2b0)" d="M 472.278947 320.4 
L 473.257895 320.4 
L 473.257895 318.162712 
L 472.278947 318.162712 
z
" style="fill:#ff7f0e;"/>
   </g>
   <g id="patch_29">
    <path clip-path="url(#pa53a44d2b0)" d="M 509.478947 320.4 
L 510.457895 320.4 
L 510.457895 318.162712 
L 509.478947 318.162712 
z
" style="fill:#ff7f0e;"/>
   </g>
   <g id="patch_30">
    <path clip-path="url(#pa53a44d2b0)" d="M 546.678947 320.4 
L 547.657895 320.4 
L 547.657895 317.044068 
L 546.678947 317.044068 
z
" style="fill:#ff7f0e;"/>
   </g>
   <g id="patch_31">
    <path clip-path="url(#pa53a44d2b0)" d="M 583.878947 320.4 
L 584.857895 320.4 
L 584.857895 314.80678 
L 583.878947 314.80678 
z
" style="fill:#ff7f0e;"/>
   </g>
   <g id="patch_32">
    <path clip-path="url(#pa53a44d2b0)" d="M 621.078947 320.4 
L 622.057895 320.4 
L 622.057895 314.80678 
L 621.078947 314.80678 
z
" style="fill:#ff7f0e;"/>
   </g>
   <g id="patch_33">
    <path clip-path="url(#pa53a44d2b0)" d="M 101.257895 320.4 
L 102.236842 320.4 
L 102.236842 314.80678 
L 101.257895 314.80678 
z
" style="fill:#2ca02c;"/>
   </g>
   <g id="patch_34">
    <path clip-path="url(#pa53a44d2b0)" d="M 138.457895 320.4 
L 139.436842 320.4 
L 139.436842 315.925424 
L 138.457895 315.925424 
z
" style="fill:#2ca02c;"/>
   </g>
   <g id="patch_35">
    <path clip-path="url(#pa53a44d2b0)" d="M 175.657895 320.4 
L 176.636842 320.4 
L 176.636842 318.162712 
L 175.657895 318.162712 
z
" style="fill:#2ca02c;"/>
   </g>
   <g id="patch_36">
    <path clip-path="url(#pa53a44d2b0)" d="M 212.857895 320.4 
L 213.836842 320.4 
L 213.836842 312.569492 
L 212.857895 312.569492 
z
" style="fill:#2ca02c;"/>
   </g>
   <g id="patch_37">
    <path clip-path="url(#pa53a44d2b0)" d="M 250.057895 320.4 
L 251.036842 320.4 
L 251.036842 319.281356 
L 250.057895 319.281356 
z
" style="fill:#2ca02c;"/>
   </g>
   <g id="patch_38">
    <path clip-path="url(#pa53a44d2b0)" d="M 287.257895 320.4 
L 288.236842 320.4 
L 288.236842 305.857627 
L 287.257895 305.857627 
z
" style="fill:#2ca02c;"/>
   </g>
   <g id="patch_39">
    <path clip-path="url(#pa53a44d2b0)" d="M 324.457895 320.4 
L 325.436842 320.4 
L 325.436842 317.044068 
L 324.457895 317.044068 
z
" style="fill:#2ca02c;"/>
   </g>
   <g id="patch_40">
    <path clip-path="url(#pa53a44d2b0)" d="M 361.657895 320.4 
L 362.636842 320.4 
L 362.636842 318.162712 
L 361.657895 318.162712 
z
" style="fill:#2ca02c;"/>
   </g>
   <g id="patch_41">
    <path clip-path="url(#pa53a44d2b0)" d="M 398.857895 320.4 
L 399.836842 320.4 
L 399.836842 318.162712 
L 398.857895 318.162712 
z
" style="fill:#2ca02c;"/>
   </g>
   <g id="patch_42">
    <path clip-path="url(#pa53a44d2b0)" d="M 436.057895 320.4 
L 437.036842 320.4 
L 437.036842 311.450847 
L 436.057895 311.450847 
z
" style="fill:#2ca02c;"/>
   </g>
   <g id="patch_43">
    <path clip-path="url(#pa53a44d2b0)" d="M 473.257895 320.4 
L 474.236842 320.4 
L 474.236842 318.162712 
L 473.257895 318.162712 
z
" style="fill:#2ca02c;"/>
   </g>
   <g id="patch_44">
    <path clip-path="url(#pa53a44d2b0)" d="M 510.457895 320.4 
L 511.436842 320.4 
L 511.436842 318.162712 
L 510.457895 318.162712 
z
" style="fill:#2ca02c;"/>
   </g>
   <g id="patch_45">
    <path clip-path="url(#pa53a44d2b0)" d="M 547.657895 320.4 
L 548.636842 320.4 
L 548.636842 317.044068 
L 547.657895 317.044068 
z
" style="fill:#2ca02c;"/>
   </g>
   <g id="patch_46">
    <path clip-path="url(#pa53a44d2b0)" d="M 584.857895 320.4 
L 585.836842 320.4 
L 585.836842 314.80678 
L 584.857895 314.80678 
z
" style="fill:#2ca02c;"/>
   </g>
   <g id="patch_47">
    <path clip-path="url(#pa53a44d2b0)" d="M 622.057895 320.4 
L 623.036842 320.4 
L 623.036842 314.80678 
L 622.057895 314.80678 
z
" style="fill:#2ca02c;"/>
   </g>
   <g id="patch_48">
    <path clip-path="url(#pa53a44d2b0)" d="M 102.236842 320.4 
L 103.215789 320.4 
L 103.215789 314.80678 
L 102.236842 314.80678 
z
" style="fill:#d62728;"/>
   </g>
   <g id="patch_49">
    <path clip-path="url(#pa53a44d2b0)" d="M 139.436842 320.4 
L 140.415789 320.4 
L 140.415789 315.925424 
L 139.436842 315.925424 
z
" style="fill:#d62728;"/>
   </g>
   <g id="patch_50">
    <path clip-path="url(#pa53a44d2b0)" d="M 176.636842 320.4 
L 177.615789 320.4 
L 177.615789 318.162712 
L 176.636842 318.162712 
z
" style="fill:#d62728;"/>
   </g>
   <g id="patch_51">
    <path clip-path="url(#pa53a44d2b0)" d="M 213.836842 320.4 
L 214.815789 320.4 
L 214.815789 312.569492 
L 213.836842 312.569492 
z
" style="fill:#d62728;"/>
   </g>
   <g id="patch_52">
    <path clip-path="url(#pa53a44d2b0)" d="M 251.036842 320.4 
L 252.015789 320.4 
L 252.015789 319.281356 
L 251.036842 319.281356 
z
" style="fill:#d62728;"/>
   </g>
   <g id="patch_53">
    <path clip-path="url(#pa53a44d2b0)" d="M 288.236842 320.4 
L 289.215789 320.4 
L 289.215789 305.857627 
L 288.236842 305.857627 
z
" style="fill:#d62728;"/>
   </g>
   <g id="patch_54">
    <path clip-path="url(#pa53a44d2b0)" d="M 325.436842 320.4 
L 326.415789 320.4 
L 326.415789 317.044068 
L 325.436842 317.044068 
z
" style="fill:#d62728;"/>
   </g>
   <g id="patch_55">
    <path clip-path="url(#pa53a44d2b0)" d="M 362.636842 320.4 
L 363.615789 320.4 
L 363.615789 318.162712 
L 362.636842 318.162712 
z
" style="fill:#d62728;"/>
   </g>
   <g id="patch_56">
    <path clip-path="url(#pa53a44d2b0)" d="M 399.836842 320.4 
L 400.815789 320.4 
L 400.815789 318.162712 
L 399.836842 318.162712 
z
" style="fill:#d62728;"/>
   </g>
   <g id="patch_57">
    <path clip-path="url(#pa53a44d2b0)" d="M 437.036842 320.4 
L 438.015789 320.4 
L 438.015789 311.450847 
L 437.036842 311.450847 
z
" style="fill:#d62728;"/>
   </g>
   <g id="patch_58">
    <path clip-path="url(#pa53a44d2b0)" d="M 474.236842 320.4 
L 475.215789 320.4 
L 475.215789 318.162712 
L 474.236842 318.162712 
z
" style="fill:#d62728;"/>
   </g>
   <g id="patch_59">
    <path clip-path="url(#pa53a44d2b0)" d="M 511.436842 320.4 
L 512.415789 320.4 
L 512.415789 318.162712 
L 511.436842 318.162712 
z
" style="fill:#d62728;"/>
   </g>
   <g id="patch_60">
    <path clip-path="url(#pa53a44d2b0)" d="M 548.636842 320.4 
L 549.615789 320.4 
L 549.615789 317.044068 
L 548.636842 317.044068 
z
" style="fill:#d62728;"/>
   </g>
   <g id="patch_61">
    <path clip-path="url(#pa53a44d2b0)" d="M 585.836842 320.4 
L 586.815789 320.4 
L 586.815789 314.80678 
L 585.836842 314.80678 
z
" style="fill:#d62728;"/>
   </g>
   <g id="patch_62">
    <path clip-path="url(#pa53a44d2b0)" d="M 623.036842 320.4 
L 624.015789 320.4 
L 624.015789 314.80678 
L 623.036842 314.80678 
z
" style="fill:#d62728;"/>
   </g>
   <g id="patch_63">
    <path clip-path="url(#pa53a44d2b0)" d="M 103.215789 320.4 
L 104.194737 320.4 
L 104.194737 314.80678 
L 103.215789 314.80678 
z
" style="fill:#9467bd;"/>
   </g>
   <g id="patch_64">
    <path clip-path="url(#pa53a44d2b0)" d="M 140.415789 320.4 
L 141.394737 320.4 
L 141.394737 306.976271 
L 140.415789 306.976271 
z
" style="fill:#9467bd;"/>
   </g>
   <g id="patch_65">
    <path clip-path="url(#pa53a44d2b0)" d="M 177.615789 320.4 
L 178.594737 320.4 
L 178.594737 318.162712 
L 177.615789 318.162712 
z
" style="fill:#9467bd;"/>
   </g>
   <g id="patch_66">
    <path clip-path="url(#pa53a44d2b0)" d="M 214.815789 320.4 
L 215.794737 320.4 
L 215.794737 313.688136 
L 214.815789 313.688136 
z
" style="fill:#9467bd;"/>
   </g>
   <g id="patch_67">
    <path clip-path="url(#pa53a44d2b0)" d="M 252.015789 320.4 
L 252.994737 320.4 
L 252.994737 319.281356 
L 252.015789 319.281356 
z
" style="fill:#9467bd;"/>
   </g>
   <g id="patch_68">
    <path clip-path="url(#pa53a44d2b0)" d="M 289.215789 320.4 
L 290.194737 320.4 
L 290.194737 308.094915 
L 289.215789 308.094915 
z
" style="fill:#9467bd;"/>
   </g>
   <g id="patch_69">
    <path clip-path="url(#pa53a44d2b0)" d="M 326.415789 320.4 
L 327.394737 320.4 
L 327.394737 317.044068 
L 326.415789 317.044068 
z
" style="fill:#9467bd;"/>
   </g>
   <g id="patch_70">
    <path clip-path="url(#pa53a44d2b0)" d="M 363.615789 320.4 
L 364.594737 320.4 
L 364.594737 318.162712 
L 363.615789 318.162712 
z
" style="fill:#9467bd;"/>
   </g>
   <g id="patch_71">
    <path clip-path="url(#pa53a44d2b0)" d="M 400.815789 320.4 
L 401.794737 320.4 
L 401.794737 318.162712 
L 400.815789 318.162712 
z
" style="fill:#9467bd;"/>
   </g>
   <g id="patch_72">
    <path clip-path="url(#pa53a44d2b0)" d="M 438.015789 320.4 
L 438.994737 320.4 
L 438.994737 311.450847 
L 438.015789 311.450847 
z
" style="fill:#9467bd;"/>
   </g>
   <g id="patch_73">
    <path clip-path="url(#pa53a44d2b0)" d="M 475.215789 320.4 
L 476.194737 320.4 
L 476.194737 318.162712 
L 475.215789 318.162712 
z
" style="fill:#9467bd;"/>
   </g>
   <g id="patch_74">
    <path clip-path="url(#pa53a44d2b0)" d="M 512.415789 320.4 
L 513.394737 320.4 
L 513.394737 318.162712 
L 512.415789 318.162712 
z
" style="fill:#9467bd;"/>
   </g>
   <g id="patch_75">
    <path clip-path="url(#pa53a44d2b0)" d="M 549.615789 320.4 
L 550.594737 320.4 
L 550.594737 317.044068 
L 549.615789 317.044068 
z
" style="fill:#9467bd;"/>
   </g>
   <g id="patch_76">
    <path clip-path="url(#pa53a44d2b0)" d="M 586.815789 320.4 
L 587.794737 320.4 
L 587.794737 314.80678 
L 586.815789 314.80678 
z
" style="fill:#9467bd;"/>
   </g>
   <g id="patch_77">
    <path clip-path="url(#pa53a44d2b0)" d="M 624.015789 320.4 
L 624.994737 320.4 
L 624.994737 314.80678 
L 624.015789 314.80678 
z
" style="fill:#9467bd;"/>
   </g>
   <g id="patch_78">
    <path clip-path="url(#pa53a44d2b0)" d="M 104.194737 320.4 
L 105.173684 320.4 
L 105.173684 314.80678 
L 104.194737 314.80678 
z
" style="fill:#8c564b;"/>
   </g>
   <g id="patch_79">
    <path clip-path="url(#pa53a44d2b0)" d="M 141.394737 320.4 
L 142.373684 320.4 
L 142.373684 305.857627 
L 141.394737 305.857627 
z
" style="fill:#8c564b;"/>
   </g>
   <g id="patch_80">
    <path clip-path="url(#pa53a44d2b0)" d="M 178.594737 320.4 
L 179.573684 320.4 
L 179.573684 318.162712 
L 178.594737 318.162712 
z
" style="fill:#8c564b;"/>
   </g>
   <g id="patch_81">
    <path clip-path="url(#pa53a44d2b0)" d="M 215.794737 320.4 
L 216.773684 320.4 
L 216.773684 313.688136 
L 215.794737 313.688136 
z
" style="fill:#8c564b;"/>
   </g>
   <g id="patch_82">
    <path clip-path="url(#pa53a44d2b0)" d="M 252.994737 320.4 
L 253.973684 320.4 
L 253.973684 319.281356 
L 252.994737 319.281356 
z
" style="fill:#8c564b;"/>
   </g>
   <g id="patch_83">
    <path clip-path="url(#pa53a44d2b0)" d="M 290.194737 320.4 
L 291.173684 320.4 
L 291.173684 308.094915 
L 290.194737 308.094915 
z
" style="fill:#8c564b;"/>
   </g>
   <g id="patch_84">
    <path clip-path="url(#pa53a44d2b0)" d="M 327.394737 320.4 
L 328.373684 320.4 
L 328.373684 317.044068 
L 327.394737 317.044068 
z
" style="fill:#8c564b;"/>
   </g>
   <g id="patch_85">
    <path clip-path="url(#pa53a44d2b0)" d="M 364.594737 320.4 
L 365.573684 320.4 
L 365.573684 318.162712 
L 364.594737 318.162712 
z
" style="fill:#8c564b;"/>
   </g>
   <g id="patch_86">
    <path clip-path="url(#pa53a44d2b0)" d="M 401.794737 320.4 
L 402.773684 320.4 
L 402.773684 318.162712 
L 401.794737 318.162712 
z
" style="fill:#8c564b;"/>
   </g>
   <g id="patch_87">
    <path clip-path="url(#pa53a44d2b0)" d="M 438.994737 320.4 
L 439.973684 320.4 
L 439.973684 310.332203 
L 438.994737 310.332203 
z
" style="fill:#8c564b;"/>
   </g>
   <g id="patch_88">
    <path clip-path="url(#pa53a44d2b0)" d="M 476.194737 320.4 
L 477.173684 320.4 
L 477.173684 318.162712 
L 476.194737 318.162712 
z
" style="fill:#8c564b;"/>
   </g>
   <g id="patch_89">
    <path clip-path="url(#pa53a44d2b0)" d="M 513.394737 320.4 
L 514.373684 320.4 
L 514.373684 318.162712 
L 513.394737 318.162712 
z
" style="fill:#8c564b;"/>
   </g>
   <g id="patch_90">
    <path clip-path="url(#pa53a44d2b0)" d="M 550.594737 320.4 
L 551.573684 320.4 
L 551.573684 317.044068 
L 550.594737 317.044068 
z
" style="fill:#8c564b;"/>
   </g>
   <g id="patch_91">
    <path clip-path="url(#pa53a44d2b0)" d="M 587.794737 320.4 
L 588.773684 320.4 
L 588.773684 314.80678 
L 587.794737 314.80678 
z
" style="fill:#8c564b;"/>
   </g>
   <g id="patch_92">
    <path clip-path="url(#pa53a44d2b0)" d="M 624.994737 320.4 
L 625.973684 320.4 
L 625.973684 314.80678 
L 624.994737 314.80678 
z
" style="fill:#8c564b;"/>
   </g>
   <g id="patch_93">
    <path clip-path="url(#pa53a44d2b0)" d="M 105.173684 320.4 
L 106.152632 320.4 
L 106.152632 314.80678 
L 105.173684 314.80678 
z
" style="fill:#e377c2;"/>
   </g>
   <g id="patch_94">
    <path clip-path="url(#pa53a44d2b0)" d="M 142.373684 320.4 
L 143.352632 320.4 
L 143.352632 305.857627 
L 142.373684 305.857627 
z
" style="fill:#e377c2;"/>
   </g>
   <g id="patch_95">
    <path clip-path="url(#pa53a44d2b0)" d="M 179.573684 320.4 
L 180.552632 320.4 
L 180.552632 318.162712 
L 179.573684 318.162712 
z
" style="fill:#e377c2;"/>
   </g>
   <g id="patch_96">
    <path clip-path="url(#pa53a44d2b0)" d="M 216.773684 320.4 
L 217.752632 320.4 
L 217.752632 313.688136 
L 216.773684 313.688136 
z
" style="fill:#e377c2;"/>
   </g>
   <g id="patch_97">
    <path clip-path="url(#pa53a44d2b0)" d="M 253.973684 320.4 
L 254.952632 320.4 
L 254.952632 319.281356 
L 253.973684 319.281356 
z
" style="fill:#e377c2;"/>
   </g>
   <g id="patch_98">
    <path clip-path="url(#pa53a44d2b0)" d="M 291.173684 320.4 
L 292.152632 320.4 
L 292.152632 308.094915 
L 291.173684 308.094915 
z
" style="fill:#e377c2;"/>
   </g>
   <g id="patch_99">
    <path clip-path="url(#pa53a44d2b0)" d="M 328.373684 320.4 
L 329.352632 320.4 
L 329.352632 317.044068 
L 328.373684 317.044068 
z
" style="fill:#e377c2;"/>
   </g>
   <g id="patch_100">
    <path clip-path="url(#pa53a44d2b0)" d="M 365.573684 320.4 
L 366.552632 320.4 
L 366.552632 318.162712 
L 365.573684 318.162712 
z
" style="fill:#e377c2;"/>
   </g>
   <g id="patch_101">
    <path clip-path="url(#pa53a44d2b0)" d="M 402.773684 320.4 
L 403.752632 320.4 
L 403.752632 318.162712 
L 402.773684 318.162712 
z
" style="fill:#e377c2;"/>
   </g>
   <g id="patch_102">
    <path clip-path="url(#pa53a44d2b0)" d="M 439.973684 320.4 
L 440.952632 320.4 
L 440.952632 310.332203 
L 439.973684 310.332203 
z
" style="fill:#e377c2;"/>
   </g>
   <g id="patch_103">
    <path clip-path="url(#pa53a44d2b0)" d="M 477.173684 320.4 
L 478.152632 320.4 
L 478.152632 318.162712 
L 477.173684 318.162712 
z
" style="fill:#e377c2;"/>
   </g>
   <g id="patch_104">
    <path clip-path="url(#pa53a44d2b0)" d="M 514.373684 320.4 
L 515.352632 320.4 
L 515.352632 318.162712 
L 514.373684 318.162712 
z
" style="fill:#e377c2;"/>
   </g>
   <g id="patch_105">
    <path clip-path="url(#pa53a44d2b0)" d="M 551.573684 320.4 
L 552.552632 320.4 
L 552.552632 320.4 
L 551.573684 320.4 
z
" style="fill:#e377c2;"/>
   </g>
   <g id="patch_106">
    <path clip-path="url(#pa53a44d2b0)" d="M 588.773684 320.4 
L 589.752632 320.4 
L 589.752632 320.4 
L 588.773684 320.4 
z
" style="fill:#e377c2;"/>
   </g>
   <g id="patch_107">
    <path clip-path="url(#pa53a44d2b0)" d="M 625.973684 320.4 
L 626.952632 320.4 
L 626.952632 320.4 
L 625.973684 320.4 
z
" style="fill:#e377c2;"/>
   </g>
   <g id="patch_108">
    <path clip-path="url(#pa53a44d2b0)" d="M 106.152632 320.4 
L 107.131579 320.4 
L 107.131579 314.80678 
L 106.152632 314.80678 
z
" style="fill:#7f7f7f;"/>
   </g>
   <g id="patch_109">
    <path clip-path="url(#pa53a44d2b0)" d="M 143.352632 320.4 
L 144.331579 320.4 
L 144.331579 305.857627 
L 143.352632 305.857627 
z
" style="fill:#7f7f7f;"/>
   </g>
   <g id="patch_110">
    <path clip-path="url(#pa53a44d2b0)" d="M 180.552632 320.4 
L 181.531579 320.4 
L 181.531579 318.162712 
L 180.552632 318.162712 
z
" style="fill:#7f7f7f;"/>
   </g>
   <g id="patch_111">
    <path clip-path="url(#pa53a44d2b0)" d="M 217.752632 320.4 
L 218.731579 320.4 
L 218.731579 312.569492 
L 217.752632 312.569492 
z
" style="fill:#7f7f7f;"/>
   </g>
   <g id="patch_112">
    <path clip-path="url(#pa53a44d2b0)" d="M 254.952632 320.4 
L 255.931579 320.4 
L 255.931579 319.281356 
L 254.952632 319.281356 
z
" style="fill:#7f7f7f;"/>
   </g>
   <g id="patch_113">
    <path clip-path="url(#pa53a44d2b0)" d="M 292.152632 320.4 
L 293.131579 320.4 
L 293.131579 308.094915 
L 292.152632 308.094915 
z
" style="fill:#7f7f7f;"/>
   </g>
   <g id="patch_114">
    <path clip-path="url(#pa53a44d2b0)" d="M 329.352632 320.4 
L 330.331579 320.4 
L 330.331579 317.044068 
L 329.352632 317.044068 
z
" style="fill:#7f7f7f;"/>
   </g>
   <g id="patch_115">
    <path clip-path="url(#pa53a44d2b0)" d="M 366.552632 320.4 
L 367.531579 320.4 
L 367.531579 318.162712 
L 366.552632 318.162712 
z
" style="fill:#7f7f7f;"/>
   </g>
   <g id="patch_116">
    <path clip-path="url(#pa53a44d2b0)" d="M 403.752632 320.4 
L 404.731579 320.4 
L 404.731579 318.162712 
L 403.752632 318.162712 
z
" style="fill:#7f7f7f;"/>
   </g>
   <g id="patch_117">
    <path clip-path="url(#pa53a44d2b0)" d="M 440.952632 320.4 
L 441.931579 320.4 
L 441.931579 310.332203 
L 440.952632 310.332203 
z
" style="fill:#7f7f7f;"/>
   </g>
   <g id="patch_118">
    <path clip-path="url(#pa53a44d2b0)" d="M 478.152632 320.4 
L 479.131579 320.4 
L 479.131579 318.162712 
L 478.152632 318.162712 
z
" style="fill:#7f7f7f;"/>
   </g>
   <g id="patch_119">
    <path clip-path="url(#pa53a44d2b0)" d="M 515.352632 320.4 
L 516.331579 320.4 
L 516.331579 318.162712 
L 515.352632 318.162712 
z
" style="fill:#7f7f7f;"/>
   </g>
   <g id="patch_120">
    <path clip-path="url(#pa53a44d2b0)" d="M 552.552632 320.4 
L 553.531579 320.4 
L 553.531579 320.4 
L 552.552632 320.4 
z
" style="fill:#7f7f7f;"/>
   </g>
   <g id="patch_121">
    <path clip-path="url(#pa53a44d2b0)" d="M 589.752632 320.4 
L 590.731579 320.4 
L 590.731579 320.4 
L 589.752632 320.4 
z
" style="fill:#7f7f7f;"/>
   </g>
   <g id="patch_122">
    <path clip-path="url(#pa53a44d2b0)" d="M 626.952632 320.4 
L 627.931579 320.4 
L 627.931579 320.4 
L 626.952632 320.4 
z
" style="fill:#7f7f7f;"/>
   </g>
   <g id="patch_123">
    <path clip-path="url(#pa53a44d2b0)" d="M 107.131579 320.4 
L 108.110526 320.4 
L 108.110526 314.80678 
L 107.131579 314.80678 
z
" style="fill:#bcbd22;"/>
   </g>
   <g id="patch_124">
    <path clip-path="url(#pa53a44d2b0)" d="M 144.331579 320.4 
L 145.310526 320.4 
L 145.310526 306.976271 
L 144.331579 306.976271 
z
" style="fill:#bcbd22;"/>
   </g>
   <g id="patch_125">
    <path clip-path="url(#pa53a44d2b0)" d="M 181.531579 320.4 
L 182.510526 320.4 
L 182.510526 318.162712 
L 181.531579 318.162712 
z
" style="fill:#bcbd22;"/>
   </g>
   <g id="patch_126">
    <path clip-path="url(#pa53a44d2b0)" d="M 218.731579 320.4 
L 219.710526 320.4 
L 219.710526 313.688136 
L 218.731579 313.688136 
z
" style="fill:#bcbd22;"/>
   </g>
   <g id="patch_127">
    <path clip-path="url(#pa53a44d2b0)" d="M 255.931579 320.4 
L 256.910526 320.4 
L 256.910526 319.281356 
L 255.931579 319.281356 
z
" style="fill:#bcbd22;"/>
   </g>
   <g id="patch_128">
    <path clip-path="url(#pa53a44d2b0)" d="M 293.131579 320.4 
L 294.110526 320.4 
L 294.110526 308.094915 
L 293.131579 308.094915 
z
" style="fill:#bcbd22;"/>
   </g>
   <g id="patch_129">
    <path clip-path="url(#pa53a44d2b0)" d="M 330.331579 320.4 
L 331.310526 320.4 
L 331.310526 317.044068 
L 330.331579 317.044068 
z
" style="fill:#bcbd22;"/>
   </g>
   <g id="patch_130">
    <path clip-path="url(#pa53a44d2b0)" d="M 367.531579 320.4 
L 368.510526 320.4 
L 368.510526 318.162712 
L 367.531579 318.162712 
z
" style="fill:#bcbd22;"/>
   </g>
   <g id="patch_131">
    <path clip-path="url(#pa53a44d2b0)" d="M 404.731579 320.4 
L 405.710526 320.4 
L 405.710526 318.162712 
L 404.731579 318.162712 
z
" style="fill:#bcbd22;"/>
   </g>
   <g id="patch_132">
    <path clip-path="url(#pa53a44d2b0)" d="M 441.931579 320.4 
L 442.910526 320.4 
L 442.910526 311.450847 
L 441.931579 311.450847 
z
" style="fill:#bcbd22;"/>
   </g>
   <g id="patch_133">
    <path clip-path="url(#pa53a44d2b0)" d="M 479.131579 320.4 
L 480.110526 320.4 
L 480.110526 318.162712 
L 479.131579 318.162712 
z
" style="fill:#bcbd22;"/>
   </g>
   <g id="patch_134">
    <path clip-path="url(#pa53a44d2b0)" d="M 516.331579 320.4 
L 517.310526 320.4 
L 517.310526 318.162712 
L 516.331579 318.162712 
z
" style="fill:#bcbd22;"/>
   </g>
   <g id="patch_135">
    <path clip-path="url(#pa53a44d2b0)" d="M 553.531579 320.4 
L 554.510526 320.4 
L 554.510526 320.4 
L 553.531579 320.4 
z
" style="fill:#bcbd22;"/>
   </g>
   <g id="patch_136">
    <path clip-path="url(#pa53a44d2b0)" d="M 590.731579 320.4 
L 591.710526 320.4 
L 591.710526 320.4 
L 590.731579 320.4 
z
" style="fill:#bcbd22;"/>
   </g>
   <g id="patch_137">
    <path clip-path="url(#pa53a44d2b0)" d="M 627.931579 320.4 
L 628.910526 320.4 
L 628.910526 320.4 
L 627.931579 320.4 
z
" style="fill:#bcbd22;"/>
   </g>
   <g id="patch_138">
    <path clip-path="url(#pa53a44d2b0)" d="M 108.110526 320.4 
L 109.089474 320.4 
L 109.089474 314.80678 
L 108.110526 314.80678 
z
" style="fill:#17becf;"/>
   </g>
   <g id="patch_139">
    <path clip-path="url(#pa53a44d2b0)" d="M 145.310526 320.4 
L 146.289474 320.4 
L 146.289474 305.857627 
L 145.310526 305.857627 
z
" style="fill:#17becf;"/>
   </g>
   <g id="patch_140">
    <path clip-path="url(#pa53a44d2b0)" d="M 182.510526 320.4 
L 183.489474 320.4 
L 183.489474 318.162712 
L 182.510526 318.162712 
z
" style="fill:#17becf;"/>
   </g>
   <g id="patch_141">
    <path clip-path="url(#pa53a44d2b0)" d="M 219.710526 320.4 
L 220.689474 320.4 
L 220.689474 312.569492 
L 219.710526 312.569492 
z
" style="fill:#17becf;"/>
   </g>
   <g id="patch_142">
    <path clip-path="url(#pa53a44d2b0)" d="M 256.910526 320.4 
L 257.889474 320.4 
L 257.889474 319.281356 
L 256.910526 319.281356 
z
" style="fill:#17becf;"/>
   </g>
   <g id="patch_143">
    <path clip-path="url(#pa53a44d2b0)" d="M 294.110526 320.4 
L 295.089474 320.4 
L 295.089474 308.094915 
L 294.110526 308.094915 
z
" style="fill:#17becf;"/>
   </g>
   <g id="patch_144">
    <path clip-path="url(#pa53a44d2b0)" d="M 331.310526 320.4 
L 332.289474 320.4 
L 332.289474 317.044068 
L 331.310526 317.044068 
z
" style="fill:#17becf;"/>
   </g>
   <g id="patch_145">
    <path clip-path="url(#pa53a44d2b0)" d="M 368.510526 320.4 
L 369.489474 320.4 
L 369.489474 318.162712 
L 368.510526 318.162712 
z
" style="fill:#17becf;"/>
   </g>
   <g id="patch_146">
    <path clip-path="url(#pa53a44d2b0)" d="M 405.710526 320.4 
L 406.689474 320.4 
L 406.689474 318.162712 
L 405.710526 318.162712 
z
" style="fill:#17becf;"/>
   </g>
   <g id="patch_147">
    <path clip-path="url(#pa53a44d2b0)" d="M 442.910526 320.4 
L 443.889474 320.4 
L 443.889474 310.332203 
L 442.910526 310.332203 
z
" style="fill:#17becf;"/>
   </g>
   <g id="patch_148">
    <path clip-path="url(#pa53a44d2b0)" d="M 480.110526 320.4 
L 481.089474 320.4 
L 481.089474 318.162712 
L 480.110526 318.162712 
z
" style="fill:#17becf;"/>
   </g>
   <g id="patch_149">
    <path clip-path="url(#pa53a44d2b0)" d="M 517.310526 320.4 
L 518.289474 320.4 
L 518.289474 318.162712 
L 517.310526 318.162712 
z
" style="fill:#17becf;"/>
   </g>
   <g id="patch_150">
    <path clip-path="url(#pa53a44d2b0)" d="M 554.510526 320.4 
L 555.489474 320.4 
L 555.489474 320.4 
L 554.510526 320.4 
z
" style="fill:#17becf;"/>
   </g>
   <g id="patch_151">
    <path clip-path="url(#pa53a44d2b0)" d="M 591.710526 320.4 
L 592.689474 320.4 
L 592.689474 320.4 
L 591.710526 320.4 
z
" style="fill:#17becf;"/>
   </g>
   <g id="patch_152">
    <path clip-path="url(#pa53a44d2b0)" d="M 628.910526 320.4 
L 629.889474 320.4 
L 629.889474 320.4 
L 628.910526 320.4 
z
" style="fill:#17becf;"/>
   </g>
   <g id="patch_153">
    <path clip-path="url(#pa53a44d2b0)" d="M 109.089474 320.4 
L 110.068421 320.4 
L 110.068421 314.80678 
L 109.089474 314.80678 
z
" style="fill:#1f77b4;"/>
   </g>
   <g id="patch_154">
    <path clip-path="url(#pa53a44d2b0)" d="M 146.289474 320.4 
L 147.268421 320.4 
L 147.268421 305.857627 
L 146.289474 305.857627 
z
" style="fill:#1f77b4;"/>
   </g>
   <g id="patch_155">
    <path clip-path="url(#pa53a44d2b0)" d="M 183.489474 320.4 
L 184.468421 320.4 
L 184.468421 318.162712 
L 183.489474 318.162712 
z
" style="fill:#1f77b4;"/>
   </g>
   <g id="patch_156">
    <path clip-path="url(#pa53a44d2b0)" d="M 220.689474 320.4 
L 221.668421 320.4 
L 221.668421 313.688136 
L 220.689474 313.688136 
z
" style="fill:#1f77b4;"/>
   </g>
   <g id="patch_157">
    <path clip-path="url(#pa53a44d2b0)" d="M 257.889474 320.4 
L 258.868421 320.4 
L 258.868421 319.281356 
L 257.889474 319.281356 
z
" style="fill:#1f77b4;"/>
   </g>
   <g id="patch_158">
    <path clip-path="url(#pa53a44d2b0)" d="M 295.089474 320.4 
L 296.068421 320.4 
L 296.068421 308.094915 
L 295.089474 308.094915 
z
" style="fill:#1f77b4;"/>
   </g>
   <g id="patch_159">
    <path clip-path="url(#pa53a44d2b0)" d="M 332.289474 320.4 
L 333.268421 320.4 
L 333.268421 317.044068 
L 332.289474 317.044068 
z
" style="fill:#1f77b4;"/>
   </g>
   <g id="patch_160">
    <path clip-path="url(#pa53a44d2b0)" d="M 369.489474 320.4 
L 370.468421 320.4 
L 370.468421 318.162712 
L 369.489474 318.162712 
z
" style="fill:#1f77b4;"/>
   </g>
   <g id="patch_161">
    <path clip-path="url(#pa53a44d2b0)" d="M 406.689474 320.4 
L 407.668421 320.4 
L 407.668421 318.162712 
L 406.689474 318.162712 
z
" style="fill:#1f77b4;"/>
   </g>
   <g id="patch_162">
    <path clip-path="url(#pa53a44d2b0)" d="M 443.889474 320.4 
L 444.868421 320.4 
L 444.868421 310.332203 
L 443.889474 310.332203 
z
" style="fill:#1f77b4;"/>
   </g>
   <g id="patch_163">
    <path clip-path="url(#pa53a44d2b0)" d="M 481.089474 320.4 
L 482.068421 320.4 
L 482.068421 318.162712 
L 481.089474 318.162712 
z
" style="fill:#1f77b4;"/>
   </g>
   <g id="patch_164">
    <path clip-path="url(#pa53a44d2b0)" d="M 518.289474 320.4 
L 519.268421 320.4 
L 519.268421 318.162712 
L 518.289474 318.162712 
z
" style="fill:#1f77b4;"/>
   </g>
   <g id="patch_165">
    <path clip-path="url(#pa53a44d2b0)" d="M 555.489474 320.4 
L 556.468421 320.4 
L 556.468421 320.4 
L 555.489474 320.4 
z
" style="fill:#1f77b4;"/>
   </g>
   <g id="patch_166">
    <path clip-path="url(#pa53a44d2b0)" d="M 592.689474 320.4 
L 593.668421 320.4 
L 593.668421 320.4 
L 592.689474 320.4 
z
" style="fill:#1f77b4;"/>
   </g>
   <g id="patch_167">
    <path clip-path="url(#pa53a44d2b0)" d="M 629.889474 320.4 
L 630.868421 320.4 
L 630.868421 320.4 
L 629.889474 320.4 
z
" style="fill:#1f77b4;"/>
   </g>
   <g id="patch_168">
    <path clip-path="url(#pa53a44d2b0)" d="M 110.068421 320.4 
L 111.047368 320.4 
L 111.047368 314.80678 
L 110.068421 314.80678 
z
" style="fill:#ff7f0e;"/>
   </g>
   <g id="patch_169">
    <path clip-path="url(#pa53a44d2b0)" d="M 147.268421 320.4 
L 148.247368 320.4 
L 148.247368 305.857627 
L 147.268421 305.857627 
z
" style="fill:#ff7f0e;"/>
   </g>
   <g id="patch_170">
    <path clip-path="url(#pa53a44d2b0)" d="M 184.468421 320.4 
L 185.447368 320.4 
L 185.447368 318.162712 
L 184.468421 318.162712 
z
" style="fill:#ff7f0e;"/>
   </g>
   <g id="patch_171">
    <path clip-path="url(#pa53a44d2b0)" d="M 221.668421 320.4 
L 222.647368 320.4 
L 222.647368 313.688136 
L 221.668421 313.688136 
z
" style="fill:#ff7f0e;"/>
   </g>
   <g id="patch_172">
    <path clip-path="url(#pa53a44d2b0)" d="M 258.868421 320.4 
L 259.847368 320.4 
L 259.847368 319.281356 
L 258.868421 319.281356 
z
" style="fill:#ff7f0e;"/>
   </g>
   <g id="patch_173">
    <path clip-path="url(#pa53a44d2b0)" d="M 296.068421 320.4 
L 297.047368 320.4 
L 297.047368 308.094915 
L 296.068421 308.094915 
z
" style="fill:#ff7f0e;"/>
   </g>
   <g id="patch_174">
    <path clip-path="url(#pa53a44d2b0)" d="M 333.268421 320.4 
L 334.247368 320.4 
L 334.247368 317.044068 
L 333.268421 317.044068 
z
" style="fill:#ff7f0e;"/>
   </g>
   <g id="patch_175">
    <path clip-path="url(#pa53a44d2b0)" d="M 370.468421 320.4 
L 371.447368 320.4 
L 371.447368 318.162712 
L 370.468421 318.162712 
z
" style="fill:#ff7f0e;"/>
   </g>
   <g id="patch_176">
    <path clip-path="url(#pa53a44d2b0)" d="M 407.668421 320.4 
L 408.647368 320.4 
L 408.647368 318.162712 
L 407.668421 318.162712 
z
" style="fill:#ff7f0e;"/>
   </g>
   <g id="patch_177">
    <path clip-path="url(#pa53a44d2b0)" d="M 444.868421 320.4 
L 445.847368 320.4 
L 445.847368 310.332203 
L 444.868421 310.332203 
z
" style="fill:#ff7f0e;"/>
   </g>
   <g id="patch_178">
    <path clip-path="url(#pa53a44d2b0)" d="M 482.068421 320.4 
L 483.047368 320.4 
L 483.047368 318.162712 
L 482.068421 318.162712 
z
" style="fill:#ff7f0e;"/>
   </g>
   <g id="patch_179">
    <path clip-path="url(#pa53a44d2b0)" d="M 519.268421 320.4 
L 520.247368 320.4 
L 520.247368 318.162712 
L 519.268421 318.162712 
z
" style="fill:#ff7f0e;"/>
   </g>
   <g id="patch_180">
    <path clip-path="url(#pa53a44d2b0)" d="M 556.468421 320.4 
L 557.447368 320.4 
L 557.447368 320.4 
L 556.468421 320.4 
z
" style="fill:#ff7f0e;"/>
   </g>
   <g id="patch_181">
    <path clip-path="url(#pa53a44d2b0)" d="M 593.668421 320.4 
L 594.647368 320.4 
L 594.647368 320.4 
L 593.668421 320.4 
z
" style="fill:#ff7f0e;"/>
   </g>
   <g id="patch_182">
    <path clip-path="url(#pa53a44d2b0)" d="M 630.868421 320.4 
L 631.847368 320.4 
L 631.847368 320.4 
L 630.868421 320.4 
z
" style="fill:#ff7f0e;"/>
   </g>
   <g id="patch_183">
    <path clip-path="url(#pa53a44d2b0)" d="M 111.047368 320.4 
L 112.026316 320.4 
L 112.026316 314.80678 
L 111.047368 314.80678 
z
" style="fill:#2ca02c;"/>
   </g>
   <g id="patch_184">
    <path clip-path="url(#pa53a44d2b0)" d="M 148.247368 320.4 
L 149.226316 320.4 
L 149.226316 305.857627 
L 148.247368 305.857627 
z
" style="fill:#2ca02c;"/>
   </g>
   <g id="patch_185">
    <path clip-path="url(#pa53a44d2b0)" d="M 185.447368 320.4 
L 186.426316 320.4 
L 186.426316 318.162712 
L 185.447368 318.162712 
z
" style="fill:#2ca02c;"/>
   </g>
   <g id="patch_186">
    <path clip-path="url(#pa53a44d2b0)" d="M 222.647368 320.4 
L 223.626316 320.4 
L 223.626316 313.688136 
L 222.647368 313.688136 
z
" style="fill:#2ca02c;"/>
   </g>
   <g id="patch_187">
    <path clip-path="url(#pa53a44d2b0)" d="M 259.847368 320.4 
L 260.826316 320.4 
L 260.826316 319.281356 
L 259.847368 319.281356 
z
" style="fill:#2ca02c;"/>
   </g>
   <g id="patch_188">
    <path clip-path="url(#pa53a44d2b0)" d="M 297.047368 320.4 
L 298.026316 320.4 
L 298.026316 308.094915 
L 297.047368 308.094915 
z
" style="fill:#2ca02c;"/>
   </g>
   <g id="patch_189">
    <path clip-path="url(#pa53a44d2b0)" d="M 334.247368 320.4 
L 335.226316 320.4 
L 335.226316 317.044068 
L 334.247368 317.044068 
z
" style="fill:#2ca02c;"/>
   </g>
   <g id="patch_190">
    <path clip-path="url(#pa53a44d2b0)" d="M 371.447368 320.4 
L 372.426316 320.4 
L 372.426316 318.162712 
L 371.447368 318.162712 
z
" style="fill:#2ca02c;"/>
   </g>
   <g id="patch_191">
    <path clip-path="url(#pa53a44d2b0)" d="M 408.647368 320.4 
L 409.626316 320.4 
L 409.626316 318.162712 
L 408.647368 318.162712 
z
" style="fill:#2ca02c;"/>
   </g>
   <g id="patch_192">
    <path clip-path="url(#pa53a44d2b0)" d="M 445.847368 320.4 
L 446.826316 320.4 
L 446.826316 310.332203 
L 445.847368 310.332203 
z
" style="fill:#2ca02c;"/>
   </g>
   <g id="patch_193">
    <path clip-path="url(#pa53a44d2b0)" d="M 483.047368 320.4 
L 484.026316 320.4 
L 484.026316 318.162712 
L 483.047368 318.162712 
z
" style="fill:#2ca02c;"/>
   </g>
   <g id="patch_194">
    <path clip-path="url(#pa53a44d2b0)" d="M 520.247368 320.4 
L 521.226316 320.4 
L 521.226316 318.162712 
L 520.247368 318.162712 
z
" style="fill:#2ca02c;"/>
   </g>
   <g id="patch_195">
    <path clip-path="url(#pa53a44d2b0)" d="M 557.447368 320.4 
L 558.426316 320.4 
L 558.426316 320.4 
L 557.447368 320.4 
z
" style="fill:#2ca02c;"/>
   </g>
   <g id="patch_196">
    <path clip-path="url(#pa53a44d2b0)" d="M 594.647368 320.4 
L 595.626316 320.4 
L 595.626316 320.4 
L 594.647368 320.4 
z
" style="fill:#2ca02c;"/>
   </g>
   <g id="patch_197">
    <path clip-path="url(#pa53a44d2b0)" d="M 631.847368 320.4 
L 632.826316 320.4 
L 632.826316 320.4 
L 631.847368 320.4 
z
" style="fill:#2ca02c;"/>
   </g>
   <g id="patch_198">
    <path clip-path="url(#pa53a44d2b0)" d="M 112.026316 320.4 
L 113.005263 320.4 
L 113.005263 317.044068 
L 112.026316 317.044068 
z
" style="fill:#d62728;"/>
   </g>
   <g id="patch_199">
    <path clip-path="url(#pa53a44d2b0)" d="M 149.226316 320.4 
L 150.205263 320.4 
L 150.205263 63.111864 
L 149.226316 63.111864 
z
" style="fill:#d62728;"/>
   </g>
   <g id="patch_200">
    <path clip-path="url(#pa53a44d2b0)" d="M 186.426316 320.4 
L 187.405263 320.4 
L 187.405263 318.162712 
L 186.426316 318.162712 
z
" style="fill:#d62728;"/>
   </g>
   <g id="patch_201">
    <path clip-path="url(#pa53a44d2b0)" d="M 223.626316 320.4 
L 224.605263 320.4 
L 224.605263 320.4 
L 223.626316 320.4 
z
" style="fill:#d62728;"/>
   </g>
   <g id="patch_202">
    <path clip-path="url(#pa53a44d2b0)" d="M 260.826316 320.4 
L 261.805263 320.4 
L 261.805263 319.281356 
L 260.826316 319.281356 
z
" style="fill:#d62728;"/>
   </g>
   <g id="patch_203">
    <path clip-path="url(#pa53a44d2b0)" d="M 298.026316 320.4 
L 299.005263 320.4 
L 299.005263 313.688136 
L 298.026316 313.688136 
z
" style="fill:#d62728;"/>
   </g>
   <g id="patch_204">
    <path clip-path="url(#pa53a44d2b0)" d="M 335.226316 320.4 
L 336.205263 320.4 
L 336.205263 320.4 
L 335.226316 320.4 
z
" style="fill:#d62728;"/>
   </g>
   <g id="patch_205">
    <path clip-path="url(#pa53a44d2b0)" d="M 372.426316 320.4 
L 373.405263 320.4 
L 373.405263 320.4 
L 372.426316 320.4 
z
" style="fill:#d62728;"/>
   </g>
   <g id="patch_206">
    <path clip-path="url(#pa53a44d2b0)" d="M 409.626316 320.4 
L 410.605263 320.4 
L 410.605263 317.044068 
L 409.626316 317.044068 
z
" style="fill:#d62728;"/>
   </g>
   <g id="patch_207">
    <path clip-path="url(#pa53a44d2b0)" d="M 446.826316 320.4 
L 447.805263 320.4 
L 447.805263 320.4 
L 446.826316 320.4 
z
" style="fill:#d62728;"/>
   </g>
   <g id="patch_208">
    <path clip-path="url(#pa53a44d2b0)" d="M 484.026316 320.4 
L 485.005263 320.4 
L 485.005263 318.162712 
L 484.026316 318.162712 
z
" style="fill:#d62728;"/>
   </g>
   <g id="patch_209">
    <path clip-path="url(#pa53a44d2b0)" d="M 521.226316 320.4 
L 522.205263 320.4 
L 522.205263 317.044068 
L 521.226316 317.044068 
z
" style="fill:#d62728;"/>
   </g>
   <g id="patch_210">
    <path clip-path="url(#pa53a44d2b0)" d="M 558.426316 320.4 
L 559.405263 320.4 
L 559.405263 320.4 
L 558.426316 320.4 
z
" style="fill:#d62728;"/>
   </g>
   <g id="patch_211">
    <path clip-path="url(#pa53a44d2b0)" d="M 595.626316 320.4 
L 596.605263 320.4 
L 596.605263 320.4 
L 595.626316 320.4 
z
" style="fill:#d62728;"/>
   </g>
   <g id="patch_212">
    <path clip-path="url(#pa53a44d2b0)" d="M 632.826316 320.4 
L 633.805263 320.4 
L 633.805263 320.4 
L 632.826316 320.4 
z
" style="fill:#d62728;"/>
   </g>
   <g id="patch_213">
    <path clip-path="url(#pa53a44d2b0)" d="M 113.005263 320.4 
L 113.984211 320.4 
L 113.984211 317.044068 
L 113.005263 317.044068 
z
" style="fill:#9467bd;"/>
   </g>
   <g id="patch_214">
    <path clip-path="url(#pa53a44d2b0)" d="M 150.205263 320.4 
L 151.184211 320.4 
L 151.184211 58.637288 
L 150.205263 58.637288 
z
" style="fill:#9467bd;"/>
   </g>
   <g id="patch_215">
    <path clip-path="url(#pa53a44d2b0)" d="M 187.405263 320.4 
L 188.384211 320.4 
L 188.384211 318.162712 
L 187.405263 318.162712 
z
" style="fill:#9467bd;"/>
   </g>
   <g id="patch_216">
    <path clip-path="url(#pa53a44d2b0)" d="M 224.605263 320.4 
L 225.584211 320.4 
L 225.584211 320.4 
L 224.605263 320.4 
z
" style="fill:#9467bd;"/>
   </g>
   <g id="patch_217">
    <path clip-path="url(#pa53a44d2b0)" d="M 261.805263 320.4 
L 262.784211 320.4 
L 262.784211 319.281356 
L 261.805263 319.281356 
z
" style="fill:#9467bd;"/>
   </g>
   <g id="patch_218">
    <path clip-path="url(#pa53a44d2b0)" d="M 299.005263 320.4 
L 299.984211 320.4 
L 299.984211 313.688136 
L 299.005263 313.688136 
z
" style="fill:#9467bd;"/>
   </g>
   <g id="patch_219">
    <path clip-path="url(#pa53a44d2b0)" d="M 336.205263 320.4 
L 337.184211 320.4 
L 337.184211 320.4 
L 336.205263 320.4 
z
" style="fill:#9467bd;"/>
   </g>
   <g id="patch_220">
    <path clip-path="url(#pa53a44d2b0)" d="M 373.405263 320.4 
L 374.384211 320.4 
L 374.384211 320.4 
L 373.405263 320.4 
z
" style="fill:#9467bd;"/>
   </g>
   <g id="patch_221">
    <path clip-path="url(#pa53a44d2b0)" d="M 410.605263 320.4 
L 411.584211 320.4 
L 411.584211 317.044068 
L 410.605263 317.044068 
z
" style="fill:#9467bd;"/>
   </g>
   <g id="patch_222">
    <path clip-path="url(#pa53a44d2b0)" d="M 447.805263 320.4 
L 448.784211 320.4 
L 448.784211 320.4 
L 447.805263 320.4 
z
" style="fill:#9467bd;"/>
   </g>
   <g id="patch_223">
    <path clip-path="url(#pa53a44d2b0)" d="M 485.005263 320.4 
L 485.984211 320.4 
L 485.984211 318.162712 
L 485.005263 318.162712 
z
" style="fill:#9467bd;"/>
   </g>
   <g id="patch_224">
    <path clip-path="url(#pa53a44d2b0)" d="M 522.205263 320.4 
L 523.184211 320.4 
L 523.184211 317.044068 
L 522.205263 317.044068 
z
" style="fill:#9467bd;"/>
   </g>
   <g id="patch_225">
    <path clip-path="url(#pa53a44d2b0)" d="M 559.405263 320.4 
L 560.384211 320.4 
L 560.384211 320.4 
L 559.405263 320.4 
z
" style="fill:#9467bd;"/>
   </g>
   <g id="patch_226">
    <path clip-path="url(#pa53a44d2b0)" d="M 596.605263 320.4 
L 597.584211 320.4 
L 597.584211 320.4 
L 596.605263 320.4 
z
" style="fill:#9467bd;"/>
   </g>
   <g id="patch_227">
    <path clip-path="url(#pa53a44d2b0)" d="M 633.805263 320.4 
L 634.784211 320.4 
L 634.784211 320.4 
L 633.805263 320.4 
z
" style="fill:#9467bd;"/>
   </g>
   <g id="patch_228">
    <path clip-path="url(#pa53a44d2b0)" d="M 113.984211 320.4 
L 114.963158 320.4 
L 114.963158 317.044068 
L 113.984211 317.044068 
z
" style="fill:#8c564b;"/>
   </g>
   <g id="patch_229">
    <path clip-path="url(#pa53a44d2b0)" d="M 151.184211 320.4 
L 152.163158 320.4 
L 152.163158 64.230508 
L 151.184211 64.230508 
z
" style="fill:#8c564b;"/>
   </g>
   <g id="patch_230">
    <path clip-path="url(#pa53a44d2b0)" d="M 188.384211 320.4 
L 189.363158 320.4 
L 189.363158 318.162712 
L 188.384211 318.162712 
z
" style="fill:#8c564b;"/>
   </g>
   <g id="patch_231">
    <path clip-path="url(#pa53a44d2b0)" d="M 225.584211 320.4 
L 226.563158 320.4 
L 226.563158 320.4 
L 225.584211 320.4 
z
" style="fill:#8c564b;"/>
   </g>
   <g id="patch_232">
    <path clip-path="url(#pa53a44d2b0)" d="M 262.784211 320.4 
L 263.763158 320.4 
L 263.763158 319.281356 
L 262.784211 319.281356 
z
" style="fill:#8c564b;"/>
   </g>
   <g id="patch_233">
    <path clip-path="url(#pa53a44d2b0)" d="M 299.984211 320.4 
L 300.963158 320.4 
L 300.963158 313.688136 
L 299.984211 313.688136 
z
" style="fill:#8c564b;"/>
   </g>
   <g id="patch_234">
    <path clip-path="url(#pa53a44d2b0)" d="M 337.184211 320.4 
L 338.163158 320.4 
L 338.163158 320.4 
L 337.184211 320.4 
z
" style="fill:#8c564b;"/>
   </g>
   <g id="patch_235">
    <path clip-path="url(#pa53a44d2b0)" d="M 374.384211 320.4 
L 375.363158 320.4 
L 375.363158 320.4 
L 374.384211 320.4 
z
" style="fill:#8c564b;"/>
   </g>
   <g id="patch_236">
    <path clip-path="url(#pa53a44d2b0)" d="M 411.584211 320.4 
L 412.563158 320.4 
L 412.563158 317.044068 
L 411.584211 317.044068 
z
" style="fill:#8c564b;"/>
   </g>
   <g id="patch_237">
    <path clip-path="url(#pa53a44d2b0)" d="M 448.784211 320.4 
L 449.763158 320.4 
L 449.763158 320.4 
L 448.784211 320.4 
z
" style="fill:#8c564b;"/>
   </g>
   <g id="patch_238">
    <path clip-path="url(#pa53a44d2b0)" d="M 485.984211 320.4 
L 486.963158 320.4 
L 486.963158 318.162712 
L 485.984211 318.162712 
z
" style="fill:#8c564b;"/>
   </g>
   <g id="patch_239">
    <path clip-path="url(#pa53a44d2b0)" d="M 523.184211 320.4 
L 524.163158 320.4 
L 524.163158 317.044068 
L 523.184211 317.044068 
z
" style="fill:#8c564b;"/>
   </g>
   <g id="patch_240">
    <path clip-path="url(#pa53a44d2b0)" d="M 560.384211 320.4 
L 561.363158 320.4 
L 561.363158 320.4 
L 560.384211 320.4 
z
" style="fill:#8c564b;"/>
   </g>
   <g id="patch_241">
    <path clip-path="url(#pa53a44d2b0)" d="M 597.584211 320.4 
L 598.563158 320.4 
L 598.563158 320.4 
L 597.584211 320.4 
z
" style="fill:#8c564b;"/>
   </g>
   <g id="patch_242">
    <path clip-path="url(#pa53a44d2b0)" d="M 634.784211 320.4 
L 635.763158 320.4 
L 635.763158 320.4 
L 634.784211 320.4 
z
" style="fill:#8c564b;"/>
   </g>
   <g id="patch_243">
    <path clip-path="url(#pa53a44d2b0)" d="M 114.963158 320.4 
L 115.942105 320.4 
L 115.942105 317.044068 
L 114.963158 317.044068 
z
" style="fill:#e377c2;"/>
   </g>
   <g id="patch_244">
    <path clip-path="url(#pa53a44d2b0)" d="M 152.163158 320.4 
L 153.142105 320.4 
L 153.142105 57.518644 
L 152.163158 57.518644 
z
" style="fill:#e377c2;"/>
   </g>
   <g id="patch_245">
    <path clip-path="url(#pa53a44d2b0)" d="M 189.363158 320.4 
L 190.342105 320.4 
L 190.342105 318.162712 
L 189.363158 318.162712 
z
" style="fill:#e377c2;"/>
   </g>
   <g id="patch_246">
    <path clip-path="url(#pa53a44d2b0)" d="M 226.563158 320.4 
L 227.542105 320.4 
L 227.542105 320.4 
L 226.563158 320.4 
z
" style="fill:#e377c2;"/>
   </g>
   <g id="patch_247">
    <path clip-path="url(#pa53a44d2b0)" d="M 263.763158 320.4 
L 264.742105 320.4 
L 264.742105 319.281356 
L 263.763158 319.281356 
z
" style="fill:#e377c2;"/>
   </g>
   <g id="patch_248">
    <path clip-path="url(#pa53a44d2b0)" d="M 300.963158 320.4 
L 301.942105 320.4 
L 301.942105 313.688136 
L 300.963158 313.688136 
z
" style="fill:#e377c2;"/>
   </g>
   <g id="patch_249">
    <path clip-path="url(#pa53a44d2b0)" d="M 338.163158 320.4 
L 339.142105 320.4 
L 339.142105 320.4 
L 338.163158 320.4 
z
" style="fill:#e377c2;"/>
   </g>
   <g id="patch_250">
    <path clip-path="url(#pa53a44d2b0)" d="M 375.363158 320.4 
L 376.342105 320.4 
L 376.342105 320.4 
L 375.363158 320.4 
z
" style="fill:#e377c2;"/>
   </g>
   <g id="patch_251">
    <path clip-path="url(#pa53a44d2b0)" d="M 412.563158 320.4 
L 413.542105 320.4 
L 413.542105 317.044068 
L 412.563158 317.044068 
z
" style="fill:#e377c2;"/>
   </g>
   <g id="patch_252">
    <path clip-path="url(#pa53a44d2b0)" d="M 449.763158 320.4 
L 450.742105 320.4 
L 450.742105 320.4 
L 449.763158 320.4 
z
" style="fill:#e377c2;"/>
   </g>
   <g id="patch_253">
    <path clip-path="url(#pa53a44d2b0)" d="M 486.963158 320.4 
L 487.942105 320.4 
L 487.942105 318.162712 
L 486.963158 318.162712 
z
" style="fill:#e377c2;"/>
   </g>
   <g id="patch_254">
    <path clip-path="url(#pa53a44d2b0)" d="M 524.163158 320.4 
L 525.142105 320.4 
L 525.142105 317.044068 
L 524.163158 317.044068 
z
" style="fill:#e377c2;"/>
   </g>
   <g id="patch_255">
    <path clip-path="url(#pa53a44d2b0)" d="M 561.363158 320.4 
L 562.342105 320.4 
L 562.342105 320.4 
L 561.363158 320.4 
z
" style="fill:#e377c2;"/>
   </g>
   <g id="patch_256">
    <path clip-path="url(#pa53a44d2b0)" d="M 598.563158 320.4 
L 599.542105 320.4 
L 599.542105 320.4 
L 598.563158 320.4 
z
" style="fill:#e377c2;"/>
   </g>
   <g id="patch_257">
    <path clip-path="url(#pa53a44d2b0)" d="M 635.763158 320.4 
L 636.742105 320.4 
L 636.742105 320.4 
L 635.763158 320.4 
z
" style="fill:#e377c2;"/>
   </g>
   <g id="patch_258">
    <path clip-path="url(#pa53a44d2b0)" d="M 115.942105 320.4 
L 116.921053 320.4 
L 116.921053 317.044068 
L 115.942105 317.044068 
z
" style="fill:#7f7f7f;"/>
   </g>
   <g id="patch_259">
    <path clip-path="url(#pa53a44d2b0)" d="M 153.142105 320.4 
L 154.121053 320.4 
L 154.121053 56.4 
L 153.142105 56.4 
z
" style="fill:#7f7f7f;"/>
   </g>
   <g id="patch_260">
    <path clip-path="url(#pa53a44d2b0)" d="M 190.342105 320.4 
L 191.321053 320.4 
L 191.321053 318.162712 
L 190.342105 318.162712 
z
" style="fill:#7f7f7f;"/>
   </g>
   <g id="patch_261">
    <path clip-path="url(#pa53a44d2b0)" d="M 227.542105 320.4 
L 228.521053 320.4 
L 228.521053 320.4 
L 227.542105 320.4 
z
" style="fill:#7f7f7f;"/>
   </g>
   <g id="patch_262">
    <path clip-path="url(#pa53a44d2b0)" d="M 264.742105 320.4 
L 265.721053 320.4 
L 265.721053 319.281356 
L 264.742105 319.281356 
z
" style="fill:#7f7f7f;"/>
   </g>
   <g id="patch_263">
    <path clip-path="url(#pa53a44d2b0)" d="M 301.942105 320.4 
L 302.921053 320.4 
L 302.921053 313.688136 
L 301.942105 313.688136 
z
" style="fill:#7f7f7f;"/>
   </g>
   <g id="patch_264">
    <path clip-path="url(#pa53a44d2b0)" d="M 339.142105 320.4 
L 340.121053 320.4 
L 340.121053 320.4 
L 339.142105 320.4 
z
" style="fill:#7f7f7f;"/>
   </g>
   <g id="patch_265">
    <path clip-path="url(#pa53a44d2b0)" d="M 376.342105 320.4 
L 377.321053 320.4 
L 377.321053 320.4 
L 376.342105 320.4 
z
" style="fill:#7f7f7f;"/>
   </g>
   <g id="patch_266">
    <path clip-path="url(#pa53a44d2b0)" d="M 413.542105 320.4 
L 414.521053 320.4 
L 414.521053 317.044068 
L 413.542105 317.044068 
z
" style="fill:#7f7f7f;"/>
   </g>
   <g id="patch_267">
    <path clip-path="url(#pa53a44d2b0)" d="M 450.742105 320.4 
L 451.721053 320.4 
L 451.721053 320.4 
L 450.742105 320.4 
z
" style="fill:#7f7f7f;"/>
   </g>
   <g id="patch_268">
    <path clip-path="url(#pa53a44d2b0)" d="M 487.942105 320.4 
L 488.921053 320.4 
L 488.921053 318.162712 
L 487.942105 318.162712 
z
" style="fill:#7f7f7f;"/>
   </g>
   <g id="patch_269">
    <path clip-path="url(#pa53a44d2b0)" d="M 525.142105 320.4 
L 526.121053 320.4 
L 526.121053 317.044068 
L 525.142105 317.044068 
z
" style="fill:#7f7f7f;"/>
   </g>
   <g id="patch_270">
    <path clip-path="url(#pa53a44d2b0)" d="M 562.342105 320.4 
L 563.321053 320.4 
L 563.321053 320.4 
L 562.342105 320.4 
z
" style="fill:#7f7f7f;"/>
   </g>
   <g id="patch_271">
    <path clip-path="url(#pa53a44d2b0)" d="M 599.542105 320.4 
L 600.521053 320.4 
L 600.521053 320.4 
L 599.542105 320.4 
z
" style="fill:#7f7f7f;"/>
   </g>
   <g id="patch_272">
    <path clip-path="url(#pa53a44d2b0)" d="M 636.742105 320.4 
L 637.721053 320.4 
L 637.721053 320.4 
L 636.742105 320.4 
z
" style="fill:#7f7f7f;"/>
   </g>
   <g id="patch_273">
    <path clip-path="url(#pa53a44d2b0)" d="M 116.921053 320.4 
L 117.9 320.4 
L 117.9 317.044068 
L 116.921053 317.044068 
z
" style="fill:#bcbd22;"/>
   </g>
   <g id="patch_274">
    <path clip-path="url(#pa53a44d2b0)" d="M 154.121053 320.4 
L 155.1 320.4 
L 155.1 63.111864 
L 154.121053 63.111864 
z
" style="fill:#bcbd22;"/>
   </g>
   <g id="patch_275">
    <path clip-path="url(#pa53a44d2b0)" d="M 191.321053 320.4 
L 192.3 320.4 
L 192.3 318.162712 
L 191.321053 318.162712 
z
" style="fill:#bcbd22;"/>
   </g>
   <g id="patch_276">
    <path clip-path="url(#pa53a44d2b0)" d="M 228.521053 320.4 
L 229.5 320.4 
L 229.5 320.4 
L 228.521053 320.4 
z
" style="fill:#bcbd22;"/>
   </g>
   <g id="patch_277">
    <path clip-path="url(#pa53a44d2b0)" d="M 265.721053 320.4 
L 266.7 320.4 
L 266.7 319.281356 
L 265.721053 319.281356 
z
" style="fill:#bcbd22;"/>
   </g>
   <g id="patch_278">
    <path clip-path="url(#pa53a44d2b0)" d="M 302.921053 320.4 
L 303.9 320.4 
L 303.9 313.688136 
L 302.921053 313.688136 
z
" style="fill:#bcbd22;"/>
   </g>
   <g id="patch_279">
    <path clip-path="url(#pa53a44d2b0)" d="M 340.121053 320.4 
L 341.1 320.4 
L 341.1 320.4 
L 340.121053 320.4 
z
" style="fill:#bcbd22;"/>
   </g>
   <g id="patch_280">
    <path clip-path="url(#pa53a44d2b0)" d="M 377.321053 320.4 
L 378.3 320.4 
L 378.3 320.4 
L 377.321053 320.4 
z
" style="fill:#bcbd22;"/>
   </g>
   <g id="patch_281">
    <path clip-path="url(#pa53a44d2b0)" d="M 414.521053 320.4 
L 415.5 320.4 
L 415.5 317.044068 
L 414.521053 317.044068 
z
" style="fill:#bcbd22;"/>
   </g>
   <g id="patch_282">
    <path clip-path="url(#pa53a44d2b0)" d="M 451.721053 320.4 
L 452.7 320.4 
L 452.7 320.4 
L 451.721053 320.4 
z
" style="fill:#bcbd22;"/>
   </g>
   <g id="patch_283">
    <path clip-path="url(#pa53a44d2b0)" d="M 488.921053 320.4 
L 489.9 320.4 
L 489.9 318.162712 
L 488.921053 318.162712 
z
" style="fill:#bcbd22;"/>
   </g>
   <g id="patch_284">
    <path clip-path="url(#pa53a44d2b0)" d="M 526.121053 320.4 
L 527.1 320.4 
L 527.1 317.044068 
L 526.121053 317.044068 
z
" style="fill:#bcbd22;"/>
   </g>
   <g id="patch_285">
    <path clip-path="url(#pa53a44d2b0)" d="M 563.321053 320.4 
L 564.3 320.4 
L 564.3 320.4 
L 563.321053 320.4 
z
" style="fill:#bcbd22;"/>
   </g>
   <g id="patch_286">
    <path clip-path="url(#pa53a44d2b0)" d="M 600.521053 320.4 
L 601.5 320.4 
L 601.5 320.4 
L 600.521053 320.4 
z
" style="fill:#bcbd22;"/>
   </g>
   <g id="patch_287">
    <path clip-path="url(#pa53a44d2b0)" d="M 637.721053 320.4 
L 638.7 320.4 
L 638.7 320.4 
L 637.721053 320.4 
z
" style="fill:#bcbd22;"/>
   </g>
   <g id="matplotlib.axis_1">
    <g id="xtick_1">
     <g id="line2d_1">
      <defs>
       <path d="M 0 0 
L 0 3.5 
" id="m0abcc6657b" style="stroke:#000000;stroke-width:0.8;"/>
      </defs>
      <g>
       <use style="stroke:#000000;stroke-width:0.8;" x="108.6" xlink:href="#m0abcc6657b" y="320.4"/>
      </g>
     </g>
     <g id="text_1">
      <!-- JCH204 -->
      <defs>
       <path d="M 9.8125 72.90625 
L 19.671875 72.90625 
L 19.671875 5.078125 
Q 19.671875 -8.109375 14.671875 -14.0625 
Q 9.671875 -20.015625 -1.421875 -20.015625 
L -5.171875 -20.015625 
L -5.171875 -11.71875 
L -2.09375 -11.71875 
Q 4.4375 -11.71875 7.125 -8.046875 
Q 9.8125 -4.390625 9.8125 5.078125 
z
" id="DejaVuSans-74"/>
       <path d="M 64.40625 67.28125 
L 64.40625 56.890625 
Q 59.421875 61.53125 53.78125 63.8125 
Q 48.140625 66.109375 41.796875 66.109375 
Q 29.296875 66.109375 22.65625 58.46875 
Q 16.015625 50.828125 16.015625 36.375 
Q 16.015625 21.96875 22.65625 14.328125 
Q 29.296875 6.6875 41.796875 6.6875 
Q 48.140625 6.6875 53.78125 8.984375 
Q 59.421875 11.28125 64.40625 15.921875 
L 64.40625 5.609375 
Q 59.234375 2.09375 53.4375 0.328125 
Q 47.65625 -1.421875 41.21875 -1.421875 
Q 24.65625 -1.421875 15.125 8.703125 
Q 5.609375 18.84375 5.609375 36.375 
Q 5.609375 53.953125 15.125 64.078125 
Q 24.65625 74.21875 41.21875 74.21875 
Q 47.75 74.21875 53.53125 72.484375 
Q 59.328125 70.75 64.40625 67.28125 
z
" id="DejaVuSans-67"/>
       <path d="M 9.8125 72.90625 
L 19.671875 72.90625 
L 19.671875 43.015625 
L 55.515625 43.015625 
L 55.515625 72.90625 
L 65.375 72.90625 
L 65.375 0 
L 55.515625 0 
L 55.515625 34.71875 
L 19.671875 34.71875 
L 19.671875 0 
L 9.8125 0 
z
" id="DejaVuSans-72"/>
       <path d="M 19.1875 8.296875 
L 53.609375 8.296875 
L 53.609375 0 
L 7.328125 0 
L 7.328125 8.296875 
Q 12.9375 14.109375 22.625 23.890625 
Q 32.328125 33.6875 34.8125 36.53125 
Q 39.546875 41.84375 41.421875 45.53125 
Q 43.3125 49.21875 43.3125 52.78125 
Q 43.3125 58.59375 39.234375 62.25 
Q 35.15625 65.921875 28.609375 65.921875 
Q 23.96875 65.921875 18.8125 64.3125 
Q 13.671875 62.703125 7.8125 59.421875 
L 7.8125 69.390625 
Q 13.765625 71.78125 18.9375 73 
Q 24.125 74.21875 28.421875 74.21875 
Q 39.75 74.21875 46.484375 68.546875 
Q 53.21875 62.890625 53.21875 53.421875 
Q 53.21875 48.921875 51.53125 44.890625 
Q 49.859375 40.875 45.40625 35.40625 
Q 44.1875 33.984375 37.640625 27.21875 
Q 31.109375 20.453125 19.1875 8.296875 
z
" id="DejaVuSans-50"/>
       <path d="M 31.78125 66.40625 
Q 24.171875 66.40625 20.328125 58.90625 
Q 16.5 51.421875 16.5 36.375 
Q 16.5 21.390625 20.328125 13.890625 
Q 24.171875 6.390625 31.78125 6.390625 
Q 39.453125 6.390625 43.28125 13.890625 
Q 47.125 21.390625 47.125 36.375 
Q 47.125 51.421875 43.28125 58.90625 
Q 39.453125 66.40625 31.78125 66.40625 
z
M 31.78125 74.21875 
Q 44.046875 74.21875 50.515625 64.515625 
Q 56.984375 54.828125 56.984375 36.375 
Q 56.984375 17.96875 50.515625 8.265625 
Q 44.046875 -1.421875 31.78125 -1.421875 
Q 19.53125 -1.421875 13.0625 8.265625 
Q 6.59375 17.96875 6.59375 36.375 
Q 6.59375 54.828125 13.0625 64.515625 
Q 19.53125 74.21875 31.78125 74.21875 
z
" id="DejaVuSans-48"/>
       <path d="M 37.796875 64.3125 
L 12.890625 25.390625 
L 37.796875 25.390625 
z
M 35.203125 72.90625 
L 47.609375 72.90625 
L 47.609375 25.390625 
L 58.015625 25.390625 
L 58.015625 17.1875 
L 47.609375 17.1875 
L 47.609375 0 
L 37.796875 0 
L 37.796875 17.1875 
L 4.890625 17.1875 
L 4.890625 26.703125 
z
" id="DejaVuSans-52"/>
      </defs>
      <g transform="translate(111.359375 363.940625)rotate(-90)scale(0.1 -0.1)">
       <use xlink:href="#DejaVuSans-74"/>
       <use x="29.492188" xlink:href="#DejaVuSans-67"/>
       <use x="99.316406" xlink:href="#DejaVuSans-72"/>
       <use x="174.511719" xlink:href="#DejaVuSans-50"/>
       <use x="238.134766" xlink:href="#DejaVuSans-48"/>
       <use x="301.757812" xlink:href="#DejaVuSans-52"/>
      </g>
     </g>
    </g>
    <g id="xtick_2">
     <g id="line2d_2">
      <g>
       <use style="stroke:#000000;stroke-width:0.8;" x="145.8" xlink:href="#m0abcc6657b" y="320.4"/>
      </g>
     </g>
     <g id="text_2">
      <!-- AAH051 -->
      <defs>
       <path d="M 34.1875 63.1875 
L 20.796875 26.90625 
L 47.609375 26.90625 
z
M 28.609375 72.90625 
L 39.796875 72.90625 
L 67.578125 0 
L 57.328125 0 
L 50.6875 18.703125 
L 17.828125 18.703125 
L 11.1875 0 
L 0.78125 0 
z
" id="DejaVuSans-65"/>
       <path d="M 10.796875 72.90625 
L 49.515625 72.90625 
L 49.515625 64.59375 
L 19.828125 64.59375 
L 19.828125 46.734375 
Q 21.96875 47.46875 24.109375 47.828125 
Q 26.265625 48.1875 28.421875 48.1875 
Q 40.625 48.1875 47.75 41.5 
Q 54.890625 34.8125 54.890625 23.390625 
Q 54.890625 11.625 47.5625 5.09375 
Q 40.234375 -1.421875 26.90625 -1.421875 
Q 22.3125 -1.421875 17.546875 -0.640625 
Q 12.796875 0.140625 7.71875 1.703125 
L 7.71875 11.625 
Q 12.109375 9.234375 16.796875 8.0625 
Q 21.484375 6.890625 26.703125 6.890625 
Q 35.15625 6.890625 40.078125 11.328125 
Q 45.015625 15.765625 45.015625 23.390625 
Q 45.015625 31 40.078125 35.4375 
Q 35.15625 39.890625 26.703125 39.890625 
Q 22.75 39.890625 18.8125 39.015625 
Q 14.890625 38.140625 10.796875 36.28125 
z
" id="DejaVuSans-53"/>
       <path d="M 12.40625 8.296875 
L 28.515625 8.296875 
L 28.515625 63.921875 
L 10.984375 60.40625 
L 10.984375 69.390625 
L 28.421875 72.90625 
L 38.28125 72.90625 
L 38.28125 8.296875 
L 54.390625 8.296875 
L 54.390625 0 
L 12.40625 0 
z
" id="DejaVuSans-49"/>
      </defs>
      <g transform="translate(148.559375 367.692187)rotate(-90)scale(0.1 -0.1)">
       <use xlink:href="#DejaVuSans-65"/>
       <use x="68.439453" xlink:href="#DejaVuSans-65"/>
       <use x="136.847656" xlink:href="#DejaVuSans-72"/>
       <use x="212.042969" xlink:href="#DejaVuSans-48"/>
       <use x="275.666016" xlink:href="#DejaVuSans-53"/>
       <use x="339.289062" xlink:href="#DejaVuSans-49"/>
      </g>
     </g>
    </g>
    <g id="xtick_3">
     <g id="line2d_3">
      <g>
       <use style="stroke:#000000;stroke-width:0.8;" x="183" xlink:href="#m0abcc6657b" y="320.4"/>
      </g>
     </g>
     <g id="text_3">
      <!-- JCH201 -->
      <g transform="translate(185.759375 363.940625)rotate(-90)scale(0.1 -0.1)">
       <use xlink:href="#DejaVuSans-74"/>
       <use x="29.492188" xlink:href="#DejaVuSans-67"/>
       <use x="99.316406" xlink:href="#DejaVuSans-72"/>
       <use x="174.511719" xlink:href="#DejaVuSans-50"/>
       <use x="238.134766" xlink:href="#DejaVuSans-48"/>
       <use x="301.757812" xlink:href="#DejaVuSans-49"/>
      </g>
     </g>
    </g>
    <g id="xtick_4">
     <g id="line2d_4">
      <g>
       <use style="stroke:#000000;stroke-width:0.8;" x="220.2" xlink:href="#m0abcc6657b" y="320.4"/>
      </g>
     </g>
     <g id="text_4">
      <!-- JCH214 -->
      <g transform="translate(222.959375 363.940625)rotate(-90)scale(0.1 -0.1)">
       <use xlink:href="#DejaVuSans-74"/>
       <use x="29.492188" xlink:href="#DejaVuSans-67"/>
       <use x="99.316406" xlink:href="#DejaVuSans-72"/>
       <use x="174.511719" xlink:href="#DejaVuSans-50"/>
       <use x="238.134766" xlink:href="#DejaVuSans-49"/>
       <use x="301.757812" xlink:href="#DejaVuSans-52"/>
      </g>
     </g>
    </g>
    <g id="xtick_5">
     <g id="line2d_5">
      <g>
       <use style="stroke:#000000;stroke-width:0.8;" x="257.4" xlink:href="#m0abcc6657b" y="320.4"/>
      </g>
     </g>
     <g id="text_5">
      <!-- JCH207 -->
      <defs>
       <path d="M 8.203125 72.90625 
L 55.078125 72.90625 
L 55.078125 68.703125 
L 28.609375 0 
L 18.3125 0 
L 43.21875 64.59375 
L 8.203125 64.59375 
z
" id="DejaVuSans-55"/>
      </defs>
      <g transform="translate(260.159375 363.940625)rotate(-90)scale(0.1 -0.1)">
       <use xlink:href="#DejaVuSans-74"/>
       <use x="29.492188" xlink:href="#DejaVuSans-67"/>
       <use x="99.316406" xlink:href="#DejaVuSans-72"/>
       <use x="174.511719" xlink:href="#DejaVuSans-50"/>
       <use x="238.134766" xlink:href="#DejaVuSans-48"/>
       <use x="301.757812" xlink:href="#DejaVuSans-55"/>
      </g>
     </g>
    </g>
    <g id="xtick_6">
     <g id="line2d_6">
      <g>
       <use style="stroke:#000000;stroke-width:0.8;" x="294.6" xlink:href="#m0abcc6657b" y="320.4"/>
      </g>
     </g>
     <g id="text_6">
      <!-- JCH210 -->
      <g transform="translate(297.359375 363.940625)rotate(-90)scale(0.1 -0.1)">
       <use xlink:href="#DejaVuSans-74"/>
       <use x="29.492188" xlink:href="#DejaVuSans-67"/>
       <use x="99.316406" xlink:href="#DejaVuSans-72"/>
       <use x="174.511719" xlink:href="#DejaVuSans-50"/>
       <use x="238.134766" xlink:href="#DejaVuSans-49"/>
       <use x="301.757812" xlink:href="#DejaVuSans-48"/>
      </g>
     </g>
    </g>
    <g id="xtick_7">
     <g id="line2d_7">
      <g>
       <use style="stroke:#000000;stroke-width:0.8;" x="331.8" xlink:href="#m0abcc6657b" y="320.4"/>
      </g>
     </g>
     <g id="text_7">
      <!-- AAH048 -->
      <defs>
       <path d="M 31.78125 34.625 
Q 24.75 34.625 20.71875 30.859375 
Q 16.703125 27.09375 16.703125 20.515625 
Q 16.703125 13.921875 20.71875 10.15625 
Q 24.75 6.390625 31.78125 6.390625 
Q 38.8125 6.390625 42.859375 10.171875 
Q 46.921875 13.96875 46.921875 20.515625 
Q 46.921875 27.09375 42.890625 30.859375 
Q 38.875 34.625 31.78125 34.625 
z
M 21.921875 38.8125 
Q 15.578125 40.375 12.03125 44.71875 
Q 8.5 49.078125 8.5 55.328125 
Q 8.5 64.0625 14.71875 69.140625 
Q 20.953125 74.21875 31.78125 74.21875 
Q 42.671875 74.21875 48.875 69.140625 
Q 55.078125 64.0625 55.078125 55.328125 
Q 55.078125 49.078125 51.53125 44.71875 
Q 48 40.375 41.703125 38.8125 
Q 48.828125 37.15625 52.796875 32.3125 
Q 56.78125 27.484375 56.78125 20.515625 
Q 56.78125 9.90625 50.3125 4.234375 
Q 43.84375 -1.421875 31.78125 -1.421875 
Q 19.734375 -1.421875 13.25 4.234375 
Q 6.78125 9.90625 6.78125 20.515625 
Q 6.78125 27.484375 10.78125 32.3125 
Q 14.796875 37.15625 21.921875 38.8125 
z
M 18.3125 54.390625 
Q 18.3125 48.734375 21.84375 45.5625 
Q 25.390625 42.390625 31.78125 42.390625 
Q 38.140625 42.390625 41.71875 45.5625 
Q 45.3125 48.734375 45.3125 54.390625 
Q 45.3125 60.0625 41.71875 63.234375 
Q 38.140625 66.40625 31.78125 66.40625 
Q 25.390625 66.40625 21.84375 63.234375 
Q 18.3125 60.0625 18.3125 54.390625 
z
" id="DejaVuSans-56"/>
      </defs>
      <g transform="translate(334.559375 367.692187)rotate(-90)scale(0.1 -0.1)">
       <use xlink:href="#DejaVuSans-65"/>
       <use x="68.439453" xlink:href="#DejaVuSans-65"/>
       <use x="136.847656" xlink:href="#DejaVuSans-72"/>
       <use x="212.042969" xlink:href="#DejaVuSans-48"/>
       <use x="275.666016" xlink:href="#DejaVuSans-52"/>
       <use x="339.289062" xlink:href="#DejaVuSans-56"/>
      </g>
     </g>
    </g>
    <g id="xtick_8">
     <g id="line2d_8">
      <g>
       <use style="stroke:#000000;stroke-width:0.8;" x="369" xlink:href="#m0abcc6657b" y="320.4"/>
      </g>
     </g>
     <g id="text_8">
      <!-- AAH052 -->
      <g transform="translate(371.759375 367.692187)rotate(-90)scale(0.1 -0.1)">
       <use xlink:href="#DejaVuSans-65"/>
       <use x="68.439453" xlink:href="#DejaVuSans-65"/>
       <use x="136.847656" xlink:href="#DejaVuSans-72"/>
       <use x="212.042969" xlink:href="#DejaVuSans-48"/>
       <use x="275.666016" xlink:href="#DejaVuSans-53"/>
       <use x="339.289062" xlink:href="#DejaVuSans-50"/>
      </g>
     </g>
    </g>
    <g id="xtick_9">
     <g id="line2d_9">
      <g>
       <use style="stroke:#000000;stroke-width:0.8;" x="406.2" xlink:href="#m0abcc6657b" y="320.4"/>
      </g>
     </g>
     <g id="text_9">
      <!-- AAH049 -->
      <defs>
       <path d="M 10.984375 1.515625 
L 10.984375 10.5 
Q 14.703125 8.734375 18.5 7.8125 
Q 22.3125 6.890625 25.984375 6.890625 
Q 35.75 6.890625 40.890625 13.453125 
Q 46.046875 20.015625 46.78125 33.40625 
Q 43.953125 29.203125 39.59375 26.953125 
Q 35.25 24.703125 29.984375 24.703125 
Q 19.046875 24.703125 12.671875 31.3125 
Q 6.296875 37.9375 6.296875 49.421875 
Q 6.296875 60.640625 12.9375 67.421875 
Q 19.578125 74.21875 30.609375 74.21875 
Q 43.265625 74.21875 49.921875 64.515625 
Q 56.59375 54.828125 56.59375 36.375 
Q 56.59375 19.140625 48.40625 8.859375 
Q 40.234375 -1.421875 26.421875 -1.421875 
Q 22.703125 -1.421875 18.890625 -0.6875 
Q 15.09375 0.046875 10.984375 1.515625 
z
M 30.609375 32.421875 
Q 37.25 32.421875 41.125 36.953125 
Q 45.015625 41.5 45.015625 49.421875 
Q 45.015625 57.28125 41.125 61.84375 
Q 37.25 66.40625 30.609375 66.40625 
Q 23.96875 66.40625 20.09375 61.84375 
Q 16.21875 57.28125 16.21875 49.421875 
Q 16.21875 41.5 20.09375 36.953125 
Q 23.96875 32.421875 30.609375 32.421875 
z
" id="DejaVuSans-57"/>
      </defs>
      <g transform="translate(408.959375 367.692187)rotate(-90)scale(0.1 -0.1)">
       <use xlink:href="#DejaVuSans-65"/>
       <use x="68.439453" xlink:href="#DejaVuSans-65"/>
       <use x="136.847656" xlink:href="#DejaVuSans-72"/>
       <use x="212.042969" xlink:href="#DejaVuSans-48"/>
       <use x="275.666016" xlink:href="#DejaVuSans-52"/>
       <use x="339.289062" xlink:href="#DejaVuSans-57"/>
      </g>
     </g>
    </g>
    <g id="xtick_10">
     <g id="line2d_10">
      <g>
       <use style="stroke:#000000;stroke-width:0.8;" x="443.4" xlink:href="#m0abcc6657b" y="320.4"/>
      </g>
     </g>
     <g id="text_10">
      <!-- AAH042 -->
      <g transform="translate(446.159375 367.692187)rotate(-90)scale(0.1 -0.1)">
       <use xlink:href="#DejaVuSans-65"/>
       <use x="68.439453" xlink:href="#DejaVuSans-65"/>
       <use x="136.847656" xlink:href="#DejaVuSans-72"/>
       <use x="212.042969" xlink:href="#DejaVuSans-48"/>
       <use x="275.666016" xlink:href="#DejaVuSans-52"/>
       <use x="339.289062" xlink:href="#DejaVuSans-50"/>
      </g>
     </g>
    </g>
    <g id="xtick_11">
     <g id="line2d_11">
      <g>
       <use style="stroke:#000000;stroke-width:0.8;" x="480.6" xlink:href="#m0abcc6657b" y="320.4"/>
      </g>
     </g>
     <g id="text_11">
      <!-- JCH202 -->
      <g transform="translate(483.359375 363.940625)rotate(-90)scale(0.1 -0.1)">
       <use xlink:href="#DejaVuSans-74"/>
       <use x="29.492188" xlink:href="#DejaVuSans-67"/>
       <use x="99.316406" xlink:href="#DejaVuSans-72"/>
       <use x="174.511719" xlink:href="#DejaVuSans-50"/>
       <use x="238.134766" xlink:href="#DejaVuSans-48"/>
       <use x="301.757812" xlink:href="#DejaVuSans-50"/>
      </g>
     </g>
    </g>
    <g id="xtick_12">
     <g id="line2d_12">
      <g>
       <use style="stroke:#000000;stroke-width:0.8;" x="517.8" xlink:href="#m0abcc6657b" y="320.4"/>
      </g>
     </g>
     <g id="text_12">
      <!-- JCH212 -->
      <g transform="translate(520.559375 363.940625)rotate(-90)scale(0.1 -0.1)">
       <use xlink:href="#DejaVuSans-74"/>
       <use x="29.492188" xlink:href="#DejaVuSans-67"/>
       <use x="99.316406" xlink:href="#DejaVuSans-72"/>
       <use x="174.511719" xlink:href="#DejaVuSans-50"/>
       <use x="238.134766" xlink:href="#DejaVuSans-49"/>
       <use x="301.757812" xlink:href="#DejaVuSans-50"/>
      </g>
     </g>
    </g>
    <g id="xtick_13">
     <g id="line2d_13">
      <g>
       <use style="stroke:#000000;stroke-width:0.8;" x="555" xlink:href="#m0abcc6657b" y="320.4"/>
      </g>
     </g>
     <g id="text_13">
      <!-- AAH045 -->
      <g transform="translate(557.759375 367.692187)rotate(-90)scale(0.1 -0.1)">
       <use xlink:href="#DejaVuSans-65"/>
       <use x="68.439453" xlink:href="#DejaVuSans-65"/>
       <use x="136.847656" xlink:href="#DejaVuSans-72"/>
       <use x="212.042969" xlink:href="#DejaVuSans-48"/>
       <use x="275.666016" xlink:href="#DejaVuSans-52"/>
       <use x="339.289062" xlink:href="#DejaVuSans-53"/>
      </g>
     </g>
    </g>
    <g id="xtick_14">
     <g id="line2d_14">
      <g>
       <use style="stroke:#000000;stroke-width:0.8;" x="592.2" xlink:href="#m0abcc6657b" y="320.4"/>
      </g>
     </g>
     <g id="text_14">
      <!-- AAH047 -->
      <g transform="translate(594.959375 367.692187)rotate(-90)scale(0.1 -0.1)">
       <use xlink:href="#DejaVuSans-65"/>
       <use x="68.439453" xlink:href="#DejaVuSans-65"/>
       <use x="136.847656" xlink:href="#DejaVuSans-72"/>
       <use x="212.042969" xlink:href="#DejaVuSans-48"/>
       <use x="275.666016" xlink:href="#DejaVuSans-52"/>
       <use x="339.289062" xlink:href="#DejaVuSans-55"/>
      </g>
     </g>
    </g>
    <g id="xtick_15">
     <g id="line2d_15">
      <g>
       <use style="stroke:#000000;stroke-width:0.8;" x="629.4" xlink:href="#m0abcc6657b" y="320.4"/>
      </g>
     </g>
     <g id="text_15">
      <!-- AAH043 -->
      <defs>
       <path d="M 40.578125 39.3125 
Q 47.65625 37.796875 51.625 33 
Q 55.609375 28.21875 55.609375 21.1875 
Q 55.609375 10.40625 48.1875 4.484375 
Q 40.765625 -1.421875 27.09375 -1.421875 
Q 22.515625 -1.421875 17.65625 -0.515625 
Q 12.796875 0.390625 7.625 2.203125 
L 7.625 11.71875 
Q 11.71875 9.328125 16.59375 8.109375 
Q 21.484375 6.890625 26.8125 6.890625 
Q 36.078125 6.890625 40.9375 10.546875 
Q 45.796875 14.203125 45.796875 21.1875 
Q 45.796875 27.640625 41.28125 31.265625 
Q 36.765625 34.90625 28.71875 34.90625 
L 20.21875 34.90625 
L 20.21875 43.015625 
L 29.109375 43.015625 
Q 36.375 43.015625 40.234375 45.921875 
Q 44.09375 48.828125 44.09375 54.296875 
Q 44.09375 59.90625 40.109375 62.90625 
Q 36.140625 65.921875 28.71875 65.921875 
Q 24.65625 65.921875 20.015625 65.03125 
Q 15.375 64.15625 9.8125 62.3125 
L 9.8125 71.09375 
Q 15.4375 72.65625 20.34375 73.4375 
Q 25.25 74.21875 29.59375 74.21875 
Q 40.828125 74.21875 47.359375 69.109375 
Q 53.90625 64.015625 53.90625 55.328125 
Q 53.90625 49.265625 50.4375 45.09375 
Q 46.96875 40.921875 40.578125 39.3125 
z
" id="DejaVuSans-51"/>
      </defs>
      <g transform="translate(632.159375 367.692187)rotate(-90)scale(0.1 -0.1)">
       <use xlink:href="#DejaVuSans-65"/>
       <use x="68.439453" xlink:href="#DejaVuSans-65"/>
       <use x="136.847656" xlink:href="#DejaVuSans-72"/>
       <use x="212.042969" xlink:href="#DejaVuSans-48"/>
       <use x="275.666016" xlink:href="#DejaVuSans-52"/>
       <use x="339.289062" xlink:href="#DejaVuSans-51"/>
      </g>
     </g>
    </g>
    <g id="text_16">
     <!-- Bug Number -->
     <defs>
      <path d="M 19.671875 34.8125 
L 19.671875 8.109375 
L 35.5 8.109375 
Q 43.453125 8.109375 47.28125 11.40625 
Q 51.125 14.703125 51.125 21.484375 
Q 51.125 28.328125 47.28125 31.5625 
Q 43.453125 34.8125 35.5 34.8125 
z
M 19.671875 64.796875 
L 19.671875 42.828125 
L 34.28125 42.828125 
Q 41.5 42.828125 45.03125 45.53125 
Q 48.578125 48.25 48.578125 53.8125 
Q 48.578125 59.328125 45.03125 62.0625 
Q 41.5 64.796875 34.28125 64.796875 
z
M 9.8125 72.90625 
L 35.015625 72.90625 
Q 46.296875 72.90625 52.390625 68.21875 
Q 58.5 63.53125 58.5 54.890625 
Q 58.5 48.1875 55.375 44.234375 
Q 52.25 40.28125 46.1875 39.3125 
Q 53.46875 37.75 57.5 32.78125 
Q 61.53125 27.828125 61.53125 20.40625 
Q 61.53125 10.640625 54.890625 5.3125 
Q 48.25 0 35.984375 0 
L 9.8125 0 
z
" id="DejaVuSans-66"/>
      <path d="M 8.5 21.578125 
L 8.5 54.6875 
L 17.484375 54.6875 
L 17.484375 21.921875 
Q 17.484375 14.15625 20.5 10.265625 
Q 23.53125 6.390625 29.59375 6.390625 
Q 36.859375 6.390625 41.078125 11.03125 
Q 45.3125 15.671875 45.3125 23.6875 
L 45.3125 54.6875 
L 54.296875 54.6875 
L 54.296875 0 
L 45.3125 0 
L 45.3125 8.40625 
Q 42.046875 3.421875 37.71875 1 
Q 33.40625 -1.421875 27.6875 -1.421875 
Q 18.265625 -1.421875 13.375 4.4375 
Q 8.5 10.296875 8.5 21.578125 
z
M 31.109375 56 
z
" id="DejaVuSans-117"/>
      <path d="M 45.40625 27.984375 
Q 45.40625 37.75 41.375 43.109375 
Q 37.359375 48.484375 30.078125 48.484375 
Q 22.859375 48.484375 18.828125 43.109375 
Q 14.796875 37.75 14.796875 27.984375 
Q 14.796875 18.265625 18.828125 12.890625 
Q 22.859375 7.515625 30.078125 7.515625 
Q 37.359375 7.515625 41.375 12.890625 
Q 45.40625 18.265625 45.40625 27.984375 
z
M 54.390625 6.78125 
Q 54.390625 -7.171875 48.1875 -13.984375 
Q 42 -20.796875 29.203125 -20.796875 
Q 24.46875 -20.796875 20.265625 -20.09375 
Q 16.0625 -19.390625 12.109375 -17.921875 
L 12.109375 -9.1875 
Q 16.0625 -11.328125 19.921875 -12.34375 
Q 23.78125 -13.375 27.78125 -13.375 
Q 36.625 -13.375 41.015625 -8.765625 
Q 45.40625 -4.15625 45.40625 5.171875 
L 45.40625 9.625 
Q 42.625 4.78125 38.28125 2.390625 
Q 33.9375 0 27.875 0 
Q 17.828125 0 11.671875 7.65625 
Q 5.515625 15.328125 5.515625 27.984375 
Q 5.515625 40.671875 11.671875 48.328125 
Q 17.828125 56 27.875 56 
Q 33.9375 56 38.28125 53.609375 
Q 42.625 51.21875 45.40625 46.390625 
L 45.40625 54.6875 
L 54.390625 54.6875 
z
" id="DejaVuSans-103"/>
      <path id="DejaVuSans-32"/>
      <path d="M 9.8125 72.90625 
L 23.09375 72.90625 
L 55.421875 11.921875 
L 55.421875 72.90625 
L 64.984375 72.90625 
L 64.984375 0 
L 51.703125 0 
L 19.390625 60.984375 
L 19.390625 0 
L 9.8125 0 
z
" id="DejaVuSans-78"/>
      <path d="M 52 44.1875 
Q 55.375 50.25 60.0625 53.125 
Q 64.75 56 71.09375 56 
Q 79.640625 56 84.28125 50.015625 
Q 88.921875 44.046875 88.921875 33.015625 
L 88.921875 0 
L 79.890625 0 
L 79.890625 32.71875 
Q 79.890625 40.578125 77.09375 44.375 
Q 74.3125 48.1875 68.609375 48.1875 
Q 61.625 48.1875 57.5625 43.546875 
Q 53.515625 38.921875 53.515625 30.90625 
L 53.515625 0 
L 44.484375 0 
L 44.484375 32.71875 
Q 44.484375 40.625 41.703125 44.40625 
Q 38.921875 48.1875 33.109375 48.1875 
Q 26.21875 48.1875 22.15625 43.53125 
Q 18.109375 38.875 18.109375 30.90625 
L 18.109375 0 
L 9.078125 0 
L 9.078125 54.6875 
L 18.109375 54.6875 
L 18.109375 46.1875 
Q 21.1875 51.21875 25.484375 53.609375 
Q 29.78125 56 35.6875 56 
Q 41.65625 56 45.828125 52.96875 
Q 50 49.953125 52 44.1875 
z
" id="DejaVuSans-109"/>
      <path d="M 48.6875 27.296875 
Q 48.6875 37.203125 44.609375 42.84375 
Q 40.53125 48.484375 33.40625 48.484375 
Q 26.265625 48.484375 22.1875 42.84375 
Q 18.109375 37.203125 18.109375 27.296875 
Q 18.109375 17.390625 22.1875 11.75 
Q 26.265625 6.109375 33.40625 6.109375 
Q 40.53125 6.109375 44.609375 11.75 
Q 48.6875 17.390625 48.6875 27.296875 
z
M 18.109375 46.390625 
Q 20.953125 51.265625 25.265625 53.625 
Q 29.59375 56 35.59375 56 
Q 45.5625 56 51.78125 48.09375 
Q 58.015625 40.1875 58.015625 27.296875 
Q 58.015625 14.40625 51.78125 6.484375 
Q 45.5625 -1.421875 35.59375 -1.421875 
Q 29.59375 -1.421875 25.265625 0.953125 
Q 20.953125 3.328125 18.109375 8.203125 
L 18.109375 0 
L 9.078125 0 
L 9.078125 75.984375 
L 18.109375 75.984375 
z
" id="DejaVuSans-98"/>
      <path d="M 56.203125 29.59375 
L 56.203125 25.203125 
L 14.890625 25.203125 
Q 15.484375 15.921875 20.484375 11.0625 
Q 25.484375 6.203125 34.421875 6.203125 
Q 39.59375 6.203125 44.453125 7.46875 
Q 49.3125 8.734375 54.109375 11.28125 
L 54.109375 2.78125 
Q 49.265625 0.734375 44.1875 -0.34375 
Q 39.109375 -1.421875 33.890625 -1.421875 
Q 20.796875 -1.421875 13.15625 6.1875 
Q 5.515625 13.8125 5.515625 26.8125 
Q 5.515625 40.234375 12.765625 48.109375 
Q 20.015625 56 32.328125 56 
Q 43.359375 56 49.78125 48.890625 
Q 56.203125 41.796875 56.203125 29.59375 
z
M 47.21875 32.234375 
Q 47.125 39.59375 43.09375 43.984375 
Q 39.0625 48.390625 32.421875 48.390625 
Q 24.90625 48.390625 20.390625 44.140625 
Q 15.875 39.890625 15.1875 32.171875 
z
" id="DejaVuSans-101"/>
      <path d="M 41.109375 46.296875 
Q 39.59375 47.171875 37.8125 47.578125 
Q 36.03125 48 33.890625 48 
Q 26.265625 48 22.1875 43.046875 
Q 18.109375 38.09375 18.109375 28.8125 
L 18.109375 0 
L 9.078125 0 
L 9.078125 54.6875 
L 18.109375 54.6875 
L 18.109375 46.1875 
Q 20.953125 51.171875 25.484375 53.578125 
Q 30.03125 56 36.53125 56 
Q 37.453125 56 38.578125 55.875 
Q 39.703125 55.765625 41.0625 55.515625 
z
" id="DejaVuSans-114"/>
     </defs>
     <g transform="translate(337.551562 379.290625)scale(0.1 -0.1)">
      <use xlink:href="#DejaVuSans-66"/>
      <use x="68.603516" xlink:href="#DejaVuSans-117"/>
      <use x="131.982422" xlink:href="#DejaVuSans-103"/>
      <use x="195.458984" xlink:href="#DejaVuSans-32"/>
      <use x="227.246094" xlink:href="#DejaVuSans-78"/>
      <use x="302.050781" xlink:href="#DejaVuSans-117"/>
      <use x="365.429688" xlink:href="#DejaVuSans-109"/>
      <use x="462.841797" xlink:href="#DejaVuSans-98"/>
      <use x="526.318359" xlink:href="#DejaVuSans-101"/>
      <use x="587.841797" xlink:href="#DejaVuSans-114"/>
     </g>
    </g>
   </g>
   <g id="matplotlib.axis_2">
    <g id="ytick_1">
     <g id="line2d_16">
      <defs>
       <path d="M 0 0 
L -3.5 0 
" id="mc89f808361" style="stroke:#000000;stroke-width:0.8;"/>
      </defs>
      <g>
       <use style="stroke:#000000;stroke-width:0.8;" x="90" xlink:href="#mc89f808361" y="320.4"/>
      </g>
     </g>
     <g id="text_17">
      <!-- 0 -->
      <g transform="translate(76.6375 324.199219)scale(0.1 -0.1)">
       <use xlink:href="#DejaVuSans-48"/>
      </g>
     </g>
    </g>
    <g id="ytick_2">
     <g id="line2d_17">
      <g>
       <use style="stroke:#000000;stroke-width:0.8;" x="90" xlink:href="#mc89f808361" y="275.654237"/>
      </g>
     </g>
     <g id="text_18">
      <!-- 200 -->
      <g transform="translate(63.9125 279.453456)scale(0.1 -0.1)">
       <use xlink:href="#DejaVuSans-50"/>
       <use x="63.623047" xlink:href="#DejaVuSans-48"/>
       <use x="127.246094" xlink:href="#DejaVuSans-48"/>
      </g>
     </g>
    </g>
    <g id="ytick_3">
     <g id="line2d_18">
      <g>
       <use style="stroke:#000000;stroke-width:0.8;" x="90" xlink:href="#mc89f808361" y="230.908475"/>
      </g>
     </g>
     <g id="text_19">
      <!-- 400 -->
      <g transform="translate(63.9125 234.707693)scale(0.1 -0.1)">
       <use xlink:href="#DejaVuSans-52"/>
       <use x="63.623047" xlink:href="#DejaVuSans-48"/>
       <use x="127.246094" xlink:href="#DejaVuSans-48"/>
      </g>
     </g>
    </g>
    <g id="ytick_4">
     <g id="line2d_19">
      <g>
       <use style="stroke:#000000;stroke-width:0.8;" x="90" xlink:href="#mc89f808361" y="186.162712"/>
      </g>
     </g>
     <g id="text_20">
      <!-- 600 -->
      <defs>
       <path d="M 33.015625 40.375 
Q 26.375 40.375 22.484375 35.828125 
Q 18.609375 31.296875 18.609375 23.390625 
Q 18.609375 15.53125 22.484375 10.953125 
Q 26.375 6.390625 33.015625 6.390625 
Q 39.65625 6.390625 43.53125 10.953125 
Q 47.40625 15.53125 47.40625 23.390625 
Q 47.40625 31.296875 43.53125 35.828125 
Q 39.65625 40.375 33.015625 40.375 
z
M 52.59375 71.296875 
L 52.59375 62.3125 
Q 48.875 64.0625 45.09375 64.984375 
Q 41.3125 65.921875 37.59375 65.921875 
Q 27.828125 65.921875 22.671875 59.328125 
Q 17.53125 52.734375 16.796875 39.40625 
Q 19.671875 43.65625 24.015625 45.921875 
Q 28.375 48.1875 33.59375 48.1875 
Q 44.578125 48.1875 50.953125 41.515625 
Q 57.328125 34.859375 57.328125 23.390625 
Q 57.328125 12.15625 50.6875 5.359375 
Q 44.046875 -1.421875 33.015625 -1.421875 
Q 20.359375 -1.421875 13.671875 8.265625 
Q 6.984375 17.96875 6.984375 36.375 
Q 6.984375 53.65625 15.1875 63.9375 
Q 23.390625 74.21875 37.203125 74.21875 
Q 40.921875 74.21875 44.703125 73.484375 
Q 48.484375 72.75 52.59375 71.296875 
z
" id="DejaVuSans-54"/>
      </defs>
      <g transform="translate(63.9125 189.961931)scale(0.1 -0.1)">
       <use xlink:href="#DejaVuSans-54"/>
       <use x="63.623047" xlink:href="#DejaVuSans-48"/>
       <use x="127.246094" xlink:href="#DejaVuSans-48"/>
      </g>
     </g>
    </g>
    <g id="ytick_5">
     <g id="line2d_20">
      <g>
       <use style="stroke:#000000;stroke-width:0.8;" x="90" xlink:href="#mc89f808361" y="141.416949"/>
      </g>
     </g>
     <g id="text_21">
      <!-- 800 -->
      <g transform="translate(63.9125 145.216168)scale(0.1 -0.1)">
       <use xlink:href="#DejaVuSans-56"/>
       <use x="63.623047" xlink:href="#DejaVuSans-48"/>
       <use x="127.246094" xlink:href="#DejaVuSans-48"/>
      </g>
     </g>
    </g>
    <g id="ytick_6">
     <g id="line2d_21">
      <g>
       <use style="stroke:#000000;stroke-width:0.8;" x="90" xlink:href="#mc89f808361" y="96.671186"/>
      </g>
     </g>
     <g id="text_22">
      <!-- 1000 -->
      <g transform="translate(57.55 100.470405)scale(0.1 -0.1)">
       <use xlink:href="#DejaVuSans-49"/>
       <use x="63.623047" xlink:href="#DejaVuSans-48"/>
       <use x="127.246094" xlink:href="#DejaVuSans-48"/>
       <use x="190.869141" xlink:href="#DejaVuSans-48"/>
      </g>
     </g>
    </g>
    <g id="ytick_7">
     <g id="line2d_22">
      <g>
       <use style="stroke:#000000;stroke-width:0.8;" x="90" xlink:href="#mc89f808361" y="51.925424"/>
      </g>
     </g>
     <g id="text_23">
      <!-- 1200 -->
      <g transform="translate(57.55 55.724642)scale(0.1 -0.1)">
       <use xlink:href="#DejaVuSans-49"/>
       <use x="63.623047" xlink:href="#DejaVuSans-50"/>
       <use x="127.246094" xlink:href="#DejaVuSans-48"/>
       <use x="190.869141" xlink:href="#DejaVuSans-48"/>
      </g>
     </g>
    </g>
    <g id="text_24">
     <!-- Time -->
     <defs>
      <path d="M -0.296875 72.90625 
L 61.375 72.90625 
L 61.375 64.59375 
L 35.5 64.59375 
L 35.5 0 
L 25.59375 0 
L 25.59375 64.59375 
L -0.296875 64.59375 
z
" id="DejaVuSans-84"/>
      <path d="M 9.421875 54.6875 
L 18.40625 54.6875 
L 18.40625 0 
L 9.421875 0 
z
M 9.421875 75.984375 
L 18.40625 75.984375 
L 18.40625 64.59375 
L 9.421875 64.59375 
z
" id="DejaVuSans-105"/>
     </defs>
     <g transform="translate(51.470312 194.1875)rotate(-90)scale(0.1 -0.1)">
      <use xlink:href="#DejaVuSans-84"/>
      <use x="61.037109" xlink:href="#DejaVuSans-105"/>
      <use x="88.820312" xlink:href="#DejaVuSans-109"/>
      <use x="186.232422" xlink:href="#DejaVuSans-101"/>
     </g>
    </g>
   </g>
   <g id="patch_288">
    <path d="M 90 320.4 
L 90 43.2 
" style="fill:none;stroke:#000000;stroke-linecap:square;stroke-linejoin:miter;stroke-width:0.8;"/>
   </g>
   <g id="patch_289">
    <path d="M 648 320.4 
L 648 43.2 
" style="fill:none;stroke:#000000;stroke-linecap:square;stroke-linejoin:miter;stroke-width:0.8;"/>
   </g>
   <g id="patch_290">
    <path d="M 90 320.4 
L 648 320.4 
" style="fill:none;stroke:#000000;stroke-linecap:square;stroke-linejoin:miter;stroke-width:0.8;"/>
   </g>
   <g id="patch_291">
    <path d="M 90 43.2 
L 648 43.2 
" style="fill:none;stroke:#000000;stroke-linecap:square;stroke-linejoin:miter;stroke-width:0.8;"/>
   </g>
   <g id="text_25">
    <!-- reached. Fuzzer: afl. Library:poppler. For different campaigns -->
    <defs>
     <path d="M 34.28125 27.484375 
Q 23.390625 27.484375 19.1875 25 
Q 14.984375 22.515625 14.984375 16.5 
Q 14.984375 11.71875 18.140625 8.90625 
Q 21.296875 6.109375 26.703125 6.109375 
Q 34.1875 6.109375 38.703125 11.40625 
Q 43.21875 16.703125 43.21875 25.484375 
L 43.21875 27.484375 
z
M 52.203125 31.203125 
L 52.203125 0 
L 43.21875 0 
L 43.21875 8.296875 
Q 40.140625 3.328125 35.546875 0.953125 
Q 30.953125 -1.421875 24.3125 -1.421875 
Q 15.921875 -1.421875 10.953125 3.296875 
Q 6 8.015625 6 15.921875 
Q 6 25.140625 12.171875 29.828125 
Q 18.359375 34.515625 30.609375 34.515625 
L 43.21875 34.515625 
L 43.21875 35.40625 
Q 43.21875 41.609375 39.140625 45 
Q 35.0625 48.390625 27.6875 48.390625 
Q 23 48.390625 18.546875 47.265625 
Q 14.109375 46.140625 10.015625 43.890625 
L 10.015625 52.203125 
Q 14.9375 54.109375 19.578125 55.046875 
Q 24.21875 56 28.609375 56 
Q 40.484375 56 46.34375 49.84375 
Q 52.203125 43.703125 52.203125 31.203125 
z
" id="DejaVuSans-97"/>
     <path d="M 48.78125 52.59375 
L 48.78125 44.1875 
Q 44.96875 46.296875 41.140625 47.34375 
Q 37.3125 48.390625 33.40625 48.390625 
Q 24.65625 48.390625 19.8125 42.84375 
Q 14.984375 37.3125 14.984375 27.296875 
Q 14.984375 17.28125 19.8125 11.734375 
Q 24.65625 6.203125 33.40625 6.203125 
Q 37.3125 6.203125 41.140625 7.25 
Q 44.96875 8.296875 48.78125 10.40625 
L 48.78125 2.09375 
Q 45.015625 0.34375 40.984375 -0.53125 
Q 36.96875 -1.421875 32.421875 -1.421875 
Q 20.0625 -1.421875 12.78125 6.34375 
Q 5.515625 14.109375 5.515625 27.296875 
Q 5.515625 40.671875 12.859375 48.328125 
Q 20.21875 56 33.015625 56 
Q 37.15625 56 41.109375 55.140625 
Q 45.0625 54.296875 48.78125 52.59375 
z
" id="DejaVuSans-99"/>
     <path d="M 54.890625 33.015625 
L 54.890625 0 
L 45.90625 0 
L 45.90625 32.71875 
Q 45.90625 40.484375 42.875 44.328125 
Q 39.84375 48.1875 33.796875 48.1875 
Q 26.515625 48.1875 22.3125 43.546875 
Q 18.109375 38.921875 18.109375 30.90625 
L 18.109375 0 
L 9.078125 0 
L 9.078125 75.984375 
L 18.109375 75.984375 
L 18.109375 46.1875 
Q 21.34375 51.125 25.703125 53.5625 
Q 30.078125 56 35.796875 56 
Q 45.21875 56 50.046875 50.171875 
Q 54.890625 44.34375 54.890625 33.015625 
z
" id="DejaVuSans-104"/>
     <path d="M 45.40625 46.390625 
L 45.40625 75.984375 
L 54.390625 75.984375 
L 54.390625 0 
L 45.40625 0 
L 45.40625 8.203125 
Q 42.578125 3.328125 38.25 0.953125 
Q 33.9375 -1.421875 27.875 -1.421875 
Q 17.96875 -1.421875 11.734375 6.484375 
Q 5.515625 14.40625 5.515625 27.296875 
Q 5.515625 40.1875 11.734375 48.09375 
Q 17.96875 56 27.875 56 
Q 33.9375 56 38.25 53.625 
Q 42.578125 51.265625 45.40625 46.390625 
z
M 14.796875 27.296875 
Q 14.796875 17.390625 18.875 11.75 
Q 22.953125 6.109375 30.078125 6.109375 
Q 37.203125 6.109375 41.296875 11.75 
Q 45.40625 17.390625 45.40625 27.296875 
Q 45.40625 37.203125 41.296875 42.84375 
Q 37.203125 48.484375 30.078125 48.484375 
Q 22.953125 48.484375 18.875 42.84375 
Q 14.796875 37.203125 14.796875 27.296875 
z
" id="DejaVuSans-100"/>
     <path d="M 10.6875 12.40625 
L 21 12.40625 
L 21 0 
L 10.6875 0 
z
" id="DejaVuSans-46"/>
     <path d="M 9.8125 72.90625 
L 51.703125 72.90625 
L 51.703125 64.59375 
L 19.671875 64.59375 
L 19.671875 43.109375 
L 48.578125 43.109375 
L 48.578125 34.8125 
L 19.671875 34.8125 
L 19.671875 0 
L 9.8125 0 
z
" id="DejaVuSans-70"/>
     <path d="M 5.515625 54.6875 
L 48.1875 54.6875 
L 48.1875 46.484375 
L 14.40625 7.171875 
L 48.1875 7.171875 
L 48.1875 0 
L 4.296875 0 
L 4.296875 8.203125 
L 38.09375 47.515625 
L 5.515625 47.515625 
z
" id="DejaVuSans-122"/>
     <path d="M 11.71875 12.40625 
L 22.015625 12.40625 
L 22.015625 0 
L 11.71875 0 
z
M 11.71875 51.703125 
L 22.015625 51.703125 
L 22.015625 39.3125 
L 11.71875 39.3125 
z
" id="DejaVuSans-58"/>
     <path d="M 37.109375 75.984375 
L 37.109375 68.5 
L 28.515625 68.5 
Q 23.6875 68.5 21.796875 66.546875 
Q 19.921875 64.59375 19.921875 59.515625 
L 19.921875 54.6875 
L 34.71875 54.6875 
L 34.71875 47.703125 
L 19.921875 47.703125 
L 19.921875 0 
L 10.890625 0 
L 10.890625 47.703125 
L 2.296875 47.703125 
L 2.296875 54.6875 
L 10.890625 54.6875 
L 10.890625 58.5 
Q 10.890625 67.625 15.140625 71.796875 
Q 19.390625 75.984375 28.609375 75.984375 
z
" id="DejaVuSans-102"/>
     <path d="M 9.421875 75.984375 
L 18.40625 75.984375 
L 18.40625 0 
L 9.421875 0 
z
" id="DejaVuSans-108"/>
     <path d="M 9.8125 72.90625 
L 19.671875 72.90625 
L 19.671875 8.296875 
L 55.171875 8.296875 
L 55.171875 0 
L 9.8125 0 
z
" id="DejaVuSans-76"/>
     <path d="M 32.171875 -5.078125 
Q 28.375 -14.84375 24.75 -17.8125 
Q 21.140625 -20.796875 15.09375 -20.796875 
L 7.90625 -20.796875 
L 7.90625 -13.28125 
L 13.1875 -13.28125 
Q 16.890625 -13.28125 18.9375 -11.515625 
Q 21 -9.765625 23.484375 -3.21875 
L 25.09375 0.875 
L 2.984375 54.6875 
L 12.5 54.6875 
L 29.59375 11.921875 
L 46.6875 54.6875 
L 56.203125 54.6875 
z
" id="DejaVuSans-121"/>
     <path d="M 18.109375 8.203125 
L 18.109375 -20.796875 
L 9.078125 -20.796875 
L 9.078125 54.6875 
L 18.109375 54.6875 
L 18.109375 46.390625 
Q 20.953125 51.265625 25.265625 53.625 
Q 29.59375 56 35.59375 56 
Q 45.5625 56 51.78125 48.09375 
Q 58.015625 40.1875 58.015625 27.296875 
Q 58.015625 14.40625 51.78125 6.484375 
Q 45.5625 -1.421875 35.59375 -1.421875 
Q 29.59375 -1.421875 25.265625 0.953125 
Q 20.953125 3.328125 18.109375 8.203125 
z
M 48.6875 27.296875 
Q 48.6875 37.203125 44.609375 42.84375 
Q 40.53125 48.484375 33.40625 48.484375 
Q 26.265625 48.484375 22.1875 42.84375 
Q 18.109375 37.203125 18.109375 27.296875 
Q 18.109375 17.390625 22.1875 11.75 
Q 26.265625 6.109375 33.40625 6.109375 
Q 40.53125 6.109375 44.609375 11.75 
Q 48.6875 17.390625 48.6875 27.296875 
z
" id="DejaVuSans-112"/>
     <path d="M 30.609375 48.390625 
Q 23.390625 48.390625 19.1875 42.75 
Q 14.984375 37.109375 14.984375 27.296875 
Q 14.984375 17.484375 19.15625 11.84375 
Q 23.34375 6.203125 30.609375 6.203125 
Q 37.796875 6.203125 41.984375 11.859375 
Q 46.1875 17.53125 46.1875 27.296875 
Q 46.1875 37.015625 41.984375 42.703125 
Q 37.796875 48.390625 30.609375 48.390625 
z
M 30.609375 56 
Q 42.328125 56 49.015625 48.375 
Q 55.71875 40.765625 55.71875 27.296875 
Q 55.71875 13.875 49.015625 6.21875 
Q 42.328125 -1.421875 30.609375 -1.421875 
Q 18.84375 -1.421875 12.171875 6.21875 
Q 5.515625 13.875 5.515625 27.296875 
Q 5.515625 40.765625 12.171875 48.375 
Q 18.84375 56 30.609375 56 
z
" id="DejaVuSans-111"/>
     <path d="M 54.890625 33.015625 
L 54.890625 0 
L 45.90625 0 
L 45.90625 32.71875 
Q 45.90625 40.484375 42.875 44.328125 
Q 39.84375 48.1875 33.796875 48.1875 
Q 26.515625 48.1875 22.3125 43.546875 
Q 18.109375 38.921875 18.109375 30.90625 
L 18.109375 0 
L 9.078125 0 
L 9.078125 54.6875 
L 18.109375 54.6875 
L 18.109375 46.1875 
Q 21.34375 51.125 25.703125 53.5625 
Q 30.078125 56 35.796875 56 
Q 45.21875 56 50.046875 50.171875 
Q 54.890625 44.34375 54.890625 33.015625 
z
" id="DejaVuSans-110"/>
     <path d="M 18.3125 70.21875 
L 18.3125 54.6875 
L 36.8125 54.6875 
L 36.8125 47.703125 
L 18.3125 47.703125 
L 18.3125 18.015625 
Q 18.3125 11.328125 20.140625 9.421875 
Q 21.96875 7.515625 27.59375 7.515625 
L 36.8125 7.515625 
L 36.8125 0 
L 27.59375 0 
Q 17.1875 0 13.234375 3.875 
Q 9.28125 7.765625 9.28125 18.015625 
L 9.28125 47.703125 
L 2.6875 47.703125 
L 2.6875 54.6875 
L 9.28125 54.6875 
L 9.28125 70.21875 
z
" id="DejaVuSans-116"/>
     <path d="M 44.28125 53.078125 
L 44.28125 44.578125 
Q 40.484375 46.53125 36.375 47.5 
Q 32.28125 48.484375 27.875 48.484375 
Q 21.1875 48.484375 17.84375 46.4375 
Q 14.5 44.390625 14.5 40.28125 
Q 14.5 37.15625 16.890625 35.375 
Q 19.28125 33.59375 26.515625 31.984375 
L 29.59375 31.296875 
Q 39.15625 29.25 43.1875 25.515625 
Q 47.21875 21.78125 47.21875 15.09375 
Q 47.21875 7.46875 41.1875 3.015625 
Q 35.15625 -1.421875 24.609375 -1.421875 
Q 20.21875 -1.421875 15.453125 -0.5625 
Q 10.6875 0.296875 5.421875 2 
L 5.421875 11.28125 
Q 10.40625 8.6875 15.234375 7.390625 
Q 20.0625 6.109375 24.8125 6.109375 
Q 31.15625 6.109375 34.5625 8.28125 
Q 37.984375 10.453125 37.984375 14.40625 
Q 37.984375 18.0625 35.515625 20.015625 
Q 33.0625 21.96875 24.703125 23.78125 
L 21.578125 24.515625 
Q 13.234375 26.265625 9.515625 29.90625 
Q 5.8125 33.546875 5.8125 39.890625 
Q 5.8125 47.609375 11.28125 51.796875 
Q 16.75 56 26.8125 56 
Q 31.78125 56 36.171875 55.265625 
Q 40.578125 54.546875 44.28125 53.078125 
z
" id="DejaVuSans-115"/>
    </defs>
    <g transform="translate(184.310625 37.2)scale(0.12 -0.12)">
     <use xlink:href="#DejaVuSans-114"/>
     <use x="41.082031" xlink:href="#DejaVuSans-101"/>
     <use x="102.605469" xlink:href="#DejaVuSans-97"/>
     <use x="163.884766" xlink:href="#DejaVuSans-99"/>
     <use x="218.865234" xlink:href="#DejaVuSans-104"/>
     <use x="282.244141" xlink:href="#DejaVuSans-101"/>
     <use x="343.767578" xlink:href="#DejaVuSans-100"/>
     <use x="407.244141" xlink:href="#DejaVuSans-46"/>
     <use x="439.03125" xlink:href="#DejaVuSans-32"/>
     <use x="470.818359" xlink:href="#DejaVuSans-70"/>
     <use x="528.259766" xlink:href="#DejaVuSans-117"/>
     <use x="591.638672" xlink:href="#DejaVuSans-122"/>
     <use x="644.128906" xlink:href="#DejaVuSans-122"/>
     <use x="696.619141" xlink:href="#DejaVuSans-101"/>
     <use x="758.142578" xlink:href="#DejaVuSans-114"/>
     <use x="799.240234" xlink:href="#DejaVuSans-58"/>
     <use x="832.931641" xlink:href="#DejaVuSans-32"/>
     <use x="864.71875" xlink:href="#DejaVuSans-97"/>
     <use x="925.998047" xlink:href="#DejaVuSans-102"/>
     <use x="961.203125" xlink:href="#DejaVuSans-108"/>
     <use x="988.986328" xlink:href="#DejaVuSans-46"/>
     <use x="1020.773438" xlink:href="#DejaVuSans-32"/>
     <use x="1052.560547" xlink:href="#DejaVuSans-76"/>
     <use x="1108.273438" xlink:href="#DejaVuSans-105"/>
     <use x="1136.056641" xlink:href="#DejaVuSans-98"/>
     <use x="1199.533203" xlink:href="#DejaVuSans-114"/>
     <use x="1240.646484" xlink:href="#DejaVuSans-97"/>
     <use x="1301.925781" xlink:href="#DejaVuSans-114"/>
     <use x="1343.039062" xlink:href="#DejaVuSans-121"/>
     <use x="1402.109375" xlink:href="#DejaVuSans-58"/>
     <use x="1435.800781" xlink:href="#DejaVuSans-112"/>
     <use x="1499.277344" xlink:href="#DejaVuSans-111"/>
     <use x="1560.458984" xlink:href="#DejaVuSans-112"/>
     <use x="1623.935547" xlink:href="#DejaVuSans-112"/>
     <use x="1687.412109" xlink:href="#DejaVuSans-108"/>
     <use x="1715.195312" xlink:href="#DejaVuSans-101"/>
     <use x="1776.71875" xlink:href="#DejaVuSans-114"/>
     <use x="1817.691406" xlink:href="#DejaVuSans-46"/>
     <use x="1849.478516" xlink:href="#DejaVuSans-32"/>
     <use x="1881.265625" xlink:href="#DejaVuSans-70"/>
     <use x="1938.738281" xlink:href="#DejaVuSans-111"/>
     <use x="1999.919922" xlink:href="#DejaVuSans-114"/>
     <use x="2041.033203" xlink:href="#DejaVuSans-32"/>
     <use x="2072.820312" xlink:href="#DejaVuSans-100"/>
     <use x="2136.296875" xlink:href="#DejaVuSans-105"/>
     <use x="2164.080078" xlink:href="#DejaVuSans-102"/>
     <use x="2199.285156" xlink:href="#DejaVuSans-102"/>
     <use x="2234.490234" xlink:href="#DejaVuSans-101"/>
     <use x="2296.013672" xlink:href="#DejaVuSans-114"/>
     <use x="2337.095703" xlink:href="#DejaVuSans-101"/>
     <use x="2398.619141" xlink:href="#DejaVuSans-110"/>
     <use x="2461.998047" xlink:href="#DejaVuSans-116"/>
     <use x="2501.207031" xlink:href="#DejaVuSans-32"/>
     <use x="2532.994141" xlink:href="#DejaVuSans-99"/>
     <use x="2587.974609" xlink:href="#DejaVuSans-97"/>
     <use x="2649.253906" xlink:href="#DejaVuSans-109"/>
     <use x="2746.666016" xlink:href="#DejaVuSans-112"/>
     <use x="2810.142578" xlink:href="#DejaVuSans-97"/>
     <use x="2871.421875" xlink:href="#DejaVuSans-105"/>
     <use x="2899.205078" xlink:href="#DejaVuSans-103"/>
     <use x="2962.681641" xlink:href="#DejaVuSans-110"/>
     <use x="3026.060547" xlink:href="#DejaVuSans-115"/>
    </g>
   </g>
  </g>
 </g>
 <defs>
  <clipPath id="pa53a44d2b0">
   <rect height="277.2" width="558" x="90" y="43.2"/>
  </clipPath>
 </defs>
</svg>
