<?xml version="1.0" encoding="utf-8" standalone="no"?>
<!DOCTYPE svg PUBLIC "-//W3C//DTD SVG 1.1//EN"
  "http://www.w3.org/Graphics/SVG/1.1/DTD/svg11.dtd">
<!-- Created with matplotlib (https://matplotlib.org/) -->
<svg height="360pt" version="1.1" viewBox="0 0 720 360" width="720pt" xmlns="http://www.w3.org/2000/svg" xmlns:xlink="http://www.w3.org/1999/xlink">
 <defs>
  <style type="text/css">
*{stroke-linecap:butt;stroke-linejoin:round;}
  </style>
 </defs>
 <g id="figure_1">
  <g id="patch_1">
   <path d="M 0 360 
L 720 360 
L 720 0 
L 0 0 
z
" style="fill:#ffffff;"/>
  </g>
  <g id="axes_1">
   <g id="patch_2">
    <path d="M 90 320.4 
L 648 320.4 
L 648 43.2 
L 90 43.2 
z
" style="fill:#ffffff;"/>
   </g>
   <g id="patch_3">
    <path clip-path="url(#p5d09968c4d)" d="M 105.5 320.4 
L 107.131579 320.4 
L 107.131579 309.697297 
L 105.5 309.697297 
z
" style="fill:#1f77b4;"/>
   </g>
   <g id="patch_4">
    <path clip-path="url(#p5d09968c4d)" d="M 167.5 320.4 
L 169.131579 320.4 
L 169.131579 313.264865 
L 167.5 313.264865 
z
" style="fill:#1f77b4;"/>
   </g>
   <g id="patch_5">
    <path clip-path="url(#p5d09968c4d)" d="M 229.5 320.4 
L 231.131579 320.4 
L 231.131579 309.697297 
L 229.5 309.697297 
z
" style="fill:#1f77b4;"/>
   </g>
   <g id="patch_6">
    <path clip-path="url(#p5d09968c4d)" d="M 291.5 320.4 
L 293.131579 320.4 
L 293.131579 313.264865 
L 291.5 313.264865 
z
" style="fill:#1f77b4;"/>
   </g>
   <g id="patch_7">
    <path clip-path="url(#p5d09968c4d)" d="M 353.5 320.4 
L 355.131579 320.4 
L 355.131579 316.832432 
L 353.5 316.832432 
z
" style="fill:#1f77b4;"/>
   </g>
   <g id="patch_8">
    <path clip-path="url(#p5d09968c4d)" d="M 415.5 320.4 
L 417.131579 320.4 
L 417.131579 313.264865 
L 415.5 313.264865 
z
" style="fill:#1f77b4;"/>
   </g>
   <g id="patch_9">
    <path clip-path="url(#p5d09968c4d)" d="M 477.5 320.4 
L 479.131579 320.4 
L 479.131579 313.264865 
L 477.5 313.264865 
z
" style="fill:#1f77b4;"/>
   </g>
   <g id="patch_10">
    <path clip-path="url(#p5d09968c4d)" d="M 539.5 320.4 
L 541.131579 320.4 
L 541.131579 181.264865 
L 539.5 181.264865 
z
" style="fill:#1f77b4;"/>
   </g>
   <g id="patch_11">
    <path clip-path="url(#p5d09968c4d)" d="M 601.5 320.4 
L 603.131579 320.4 
L 603.131579 313.264865 
L 601.5 313.264865 
z
" style="fill:#1f77b4;"/>
   </g>
   <g id="patch_12">
    <path clip-path="url(#p5d09968c4d)" d="M 107.131579 320.4 
L 108.763158 320.4 
L 108.763158 309.697297 
L 107.131579 309.697297 
z
" style="fill:#ff7f0e;"/>
   </g>
   <g id="patch_13">
    <path clip-path="url(#p5d09968c4d)" d="M 169.131579 320.4 
L 170.763158 320.4 
L 170.763158 313.264865 
L 169.131579 313.264865 
z
" style="fill:#ff7f0e;"/>
   </g>
   <g id="patch_14">
    <path clip-path="url(#p5d09968c4d)" d="M 231.131579 320.4 
L 232.763158 320.4 
L 232.763158 309.697297 
L 231.131579 309.697297 
z
" style="fill:#ff7f0e;"/>
   </g>
   <g id="patch_15">
    <path clip-path="url(#p5d09968c4d)" d="M 293.131579 320.4 
L 294.763158 320.4 
L 294.763158 313.264865 
L 293.131579 313.264865 
z
" style="fill:#ff7f0e;"/>
   </g>
   <g id="patch_16">
    <path clip-path="url(#p5d09968c4d)" d="M 355.131579 320.4 
L 356.763158 320.4 
L 356.763158 316.832432 
L 355.131579 316.832432 
z
" style="fill:#ff7f0e;"/>
   </g>
   <g id="patch_17">
    <path clip-path="url(#p5d09968c4d)" d="M 417.131579 320.4 
L 418.763158 320.4 
L 418.763158 313.264865 
L 417.131579 313.264865 
z
" style="fill:#ff7f0e;"/>
   </g>
   <g id="patch_18">
    <path clip-path="url(#p5d09968c4d)" d="M 479.131579 320.4 
L 480.763158 320.4 
L 480.763158 313.264865 
L 479.131579 313.264865 
z
" style="fill:#ff7f0e;"/>
   </g>
   <g id="patch_19">
    <path clip-path="url(#p5d09968c4d)" d="M 541.131579 320.4 
L 542.763158 320.4 
L 542.763158 170.562162 
L 541.131579 170.562162 
z
" style="fill:#ff7f0e;"/>
   </g>
   <g id="patch_20">
    <path clip-path="url(#p5d09968c4d)" d="M 603.131579 320.4 
L 604.763158 320.4 
L 604.763158 313.264865 
L 603.131579 313.264865 
z
" style="fill:#ff7f0e;"/>
   </g>
   <g id="patch_21">
    <path clip-path="url(#p5d09968c4d)" d="M 108.763158 320.4 
L 110.394737 320.4 
L 110.394737 309.697297 
L 108.763158 309.697297 
z
" style="fill:#2ca02c;"/>
   </g>
   <g id="patch_22">
    <path clip-path="url(#p5d09968c4d)" d="M 170.763158 320.4 
L 172.394737 320.4 
L 172.394737 313.264865 
L 170.763158 313.264865 
z
" style="fill:#2ca02c;"/>
   </g>
   <g id="patch_23">
    <path clip-path="url(#p5d09968c4d)" d="M 232.763158 320.4 
L 234.394737 320.4 
L 234.394737 309.697297 
L 232.763158 309.697297 
z
" style="fill:#2ca02c;"/>
   </g>
   <g id="patch_24">
    <path clip-path="url(#p5d09968c4d)" d="M 294.763158 320.4 
L 296.394737 320.4 
L 296.394737 313.264865 
L 294.763158 313.264865 
z
" style="fill:#2ca02c;"/>
   </g>
   <g id="patch_25">
    <path clip-path="url(#p5d09968c4d)" d="M 356.763158 320.4 
L 358.394737 320.4 
L 358.394737 316.832432 
L 356.763158 316.832432 
z
" style="fill:#2ca02c;"/>
   </g>
   <g id="patch_26">
    <path clip-path="url(#p5d09968c4d)" d="M 418.763158 320.4 
L 420.394737 320.4 
L 420.394737 313.264865 
L 418.763158 313.264865 
z
" style="fill:#2ca02c;"/>
   </g>
   <g id="patch_27">
    <path clip-path="url(#p5d09968c4d)" d="M 480.763158 320.4 
L 482.394737 320.4 
L 482.394737 313.264865 
L 480.763158 313.264865 
z
" style="fill:#2ca02c;"/>
   </g>
   <g id="patch_28">
    <path clip-path="url(#p5d09968c4d)" d="M 542.763158 320.4 
L 544.394737 320.4 
L 544.394737 213.372973 
L 542.763158 213.372973 
z
" style="fill:#2ca02c;"/>
   </g>
   <g id="patch_29">
    <path clip-path="url(#p5d09968c4d)" d="M 604.763158 320.4 
L 606.394737 320.4 
L 606.394737 313.264865 
L 604.763158 313.264865 
z
" style="fill:#2ca02c;"/>
   </g>
   <g id="patch_30">
    <path clip-path="url(#p5d09968c4d)" d="M 110.394737 320.4 
L 112.026316 320.4 
L 112.026316 309.697297 
L 110.394737 309.697297 
z
" style="fill:#d62728;"/>
   </g>
   <g id="patch_31">
    <path clip-path="url(#p5d09968c4d)" d="M 172.394737 320.4 
L 174.026316 320.4 
L 174.026316 313.264865 
L 172.394737 313.264865 
z
" style="fill:#d62728;"/>
   </g>
   <g id="patch_32">
    <path clip-path="url(#p5d09968c4d)" d="M 234.394737 320.4 
L 236.026316 320.4 
L 236.026316 309.697297 
L 234.394737 309.697297 
z
" style="fill:#d62728;"/>
   </g>
   <g id="patch_33">
    <path clip-path="url(#p5d09968c4d)" d="M 296.394737 320.4 
L 298.026316 320.4 
L 298.026316 313.264865 
L 296.394737 313.264865 
z
" style="fill:#d62728;"/>
   </g>
   <g id="patch_34">
    <path clip-path="url(#p5d09968c4d)" d="M 358.394737 320.4 
L 360.026316 320.4 
L 360.026316 316.832432 
L 358.394737 316.832432 
z
" style="fill:#d62728;"/>
   </g>
   <g id="patch_35">
    <path clip-path="url(#p5d09968c4d)" d="M 420.394737 320.4 
L 422.026316 320.4 
L 422.026316 313.264865 
L 420.394737 313.264865 
z
" style="fill:#d62728;"/>
   </g>
   <g id="patch_36">
    <path clip-path="url(#p5d09968c4d)" d="M 482.394737 320.4 
L 484.026316 320.4 
L 484.026316 313.264865 
L 482.394737 313.264865 
z
" style="fill:#d62728;"/>
   </g>
   <g id="patch_37">
    <path clip-path="url(#p5d09968c4d)" d="M 544.394737 320.4 
L 546.026316 320.4 
L 546.026316 238.345946 
L 544.394737 238.345946 
z
" style="fill:#d62728;"/>
   </g>
   <g id="patch_38">
    <path clip-path="url(#p5d09968c4d)" d="M 606.394737 320.4 
L 608.026316 320.4 
L 608.026316 313.264865 
L 606.394737 313.264865 
z
" style="fill:#d62728;"/>
   </g>
   <g id="patch_39">
    <path clip-path="url(#p5d09968c4d)" d="M 112.026316 320.4 
L 113.657895 320.4 
L 113.657895 313.264865 
L 112.026316 313.264865 
z
" style="fill:#9467bd;"/>
   </g>
   <g id="patch_40">
    <path clip-path="url(#p5d09968c4d)" d="M 174.026316 320.4 
L 175.657895 320.4 
L 175.657895 313.264865 
L 174.026316 313.264865 
z
" style="fill:#9467bd;"/>
   </g>
   <g id="patch_41">
    <path clip-path="url(#p5d09968c4d)" d="M 236.026316 320.4 
L 237.657895 320.4 
L 237.657895 313.264865 
L 236.026316 313.264865 
z
" style="fill:#9467bd;"/>
   </g>
   <g id="patch_42">
    <path clip-path="url(#p5d09968c4d)" d="M 298.026316 320.4 
L 299.657895 320.4 
L 299.657895 313.264865 
L 298.026316 313.264865 
z
" style="fill:#9467bd;"/>
   </g>
   <g id="patch_43">
    <path clip-path="url(#p5d09968c4d)" d="M 360.026316 320.4 
L 361.657895 320.4 
L 361.657895 316.832432 
L 360.026316 316.832432 
z
" style="fill:#9467bd;"/>
   </g>
   <g id="patch_44">
    <path clip-path="url(#p5d09968c4d)" d="M 422.026316 320.4 
L 423.657895 320.4 
L 423.657895 313.264865 
L 422.026316 313.264865 
z
" style="fill:#9467bd;"/>
   </g>
   <g id="patch_45">
    <path clip-path="url(#p5d09968c4d)" d="M 484.026316 320.4 
L 485.657895 320.4 
L 485.657895 313.264865 
L 484.026316 313.264865 
z
" style="fill:#9467bd;"/>
   </g>
   <g id="patch_46">
    <path clip-path="url(#p5d09968c4d)" d="M 546.026316 320.4 
L 547.657895 320.4 
L 547.657895 213.372973 
L 546.026316 213.372973 
z
" style="fill:#9467bd;"/>
   </g>
   <g id="patch_47">
    <path clip-path="url(#p5d09968c4d)" d="M 608.026316 320.4 
L 609.657895 320.4 
L 609.657895 313.264865 
L 608.026316 313.264865 
z
" style="fill:#9467bd;"/>
   </g>
   <g id="patch_48">
    <path clip-path="url(#p5d09968c4d)" d="M 113.657895 320.4 
L 115.289474 320.4 
L 115.289474 309.697297 
L 113.657895 309.697297 
z
" style="fill:#8c564b;"/>
   </g>
   <g id="patch_49">
    <path clip-path="url(#p5d09968c4d)" d="M 175.657895 320.4 
L 177.289474 320.4 
L 177.289474 313.264865 
L 175.657895 313.264865 
z
" style="fill:#8c564b;"/>
   </g>
   <g id="patch_50">
    <path clip-path="url(#p5d09968c4d)" d="M 237.657895 320.4 
L 239.289474 320.4 
L 239.289474 309.697297 
L 237.657895 309.697297 
z
" style="fill:#8c564b;"/>
   </g>
   <g id="patch_51">
    <path clip-path="url(#p5d09968c4d)" d="M 299.657895 320.4 
L 301.289474 320.4 
L 301.289474 313.264865 
L 299.657895 313.264865 
z
" style="fill:#8c564b;"/>
   </g>
   <g id="patch_52">
    <path clip-path="url(#p5d09968c4d)" d="M 361.657895 320.4 
L 363.289474 320.4 
L 363.289474 316.832432 
L 361.657895 316.832432 
z
" style="fill:#8c564b;"/>
   </g>
   <g id="patch_53">
    <path clip-path="url(#p5d09968c4d)" d="M 423.657895 320.4 
L 425.289474 320.4 
L 425.289474 313.264865 
L 423.657895 313.264865 
z
" style="fill:#8c564b;"/>
   </g>
   <g id="patch_54">
    <path clip-path="url(#p5d09968c4d)" d="M 485.657895 320.4 
L 487.289474 320.4 
L 487.289474 313.264865 
L 485.657895 313.264865 
z
" style="fill:#8c564b;"/>
   </g>
   <g id="patch_55">
    <path clip-path="url(#p5d09968c4d)" d="M 547.657895 320.4 
L 549.289474 320.4 
L 549.289474 56.4 
L 547.657895 56.4 
z
" style="fill:#8c564b;"/>
   </g>
   <g id="patch_56">
    <path clip-path="url(#p5d09968c4d)" d="M 609.657895 320.4 
L 611.289474 320.4 
L 611.289474 313.264865 
L 609.657895 313.264865 
z
" style="fill:#8c564b;"/>
   </g>
   <g id="patch_57">
    <path clip-path="url(#p5d09968c4d)" d="M 115.289474 320.4 
L 116.921053 320.4 
L 116.921053 309.697297 
L 115.289474 309.697297 
z
" style="fill:#e377c2;"/>
   </g>
   <g id="patch_58">
    <path clip-path="url(#p5d09968c4d)" d="M 177.289474 320.4 
L 178.921053 320.4 
L 178.921053 313.264865 
L 177.289474 313.264865 
z
" style="fill:#e377c2;"/>
   </g>
   <g id="patch_59">
    <path clip-path="url(#p5d09968c4d)" d="M 239.289474 320.4 
L 240.921053 320.4 
L 240.921053 313.264865 
L 239.289474 313.264865 
z
" style="fill:#e377c2;"/>
   </g>
   <g id="patch_60">
    <path clip-path="url(#p5d09968c4d)" d="M 301.289474 320.4 
L 302.921053 320.4 
L 302.921053 313.264865 
L 301.289474 313.264865 
z
" style="fill:#e377c2;"/>
   </g>
   <g id="patch_61">
    <path clip-path="url(#p5d09968c4d)" d="M 363.289474 320.4 
L 364.921053 320.4 
L 364.921053 316.832432 
L 363.289474 316.832432 
z
" style="fill:#e377c2;"/>
   </g>
   <g id="patch_62">
    <path clip-path="url(#p5d09968c4d)" d="M 425.289474 320.4 
L 426.921053 320.4 
L 426.921053 313.264865 
L 425.289474 313.264865 
z
" style="fill:#e377c2;"/>
   </g>
   <g id="patch_63">
    <path clip-path="url(#p5d09968c4d)" d="M 487.289474 320.4 
L 488.921053 320.4 
L 488.921053 313.264865 
L 487.289474 313.264865 
z
" style="fill:#e377c2;"/>
   </g>
   <g id="patch_64">
    <path clip-path="url(#p5d09968c4d)" d="M 549.289474 320.4 
L 550.921053 320.4 
L 550.921053 209.805405 
L 549.289474 209.805405 
z
" style="fill:#e377c2;"/>
   </g>
   <g id="patch_65">
    <path clip-path="url(#p5d09968c4d)" d="M 611.289474 320.4 
L 612.921053 320.4 
L 612.921053 313.264865 
L 611.289474 313.264865 
z
" style="fill:#e377c2;"/>
   </g>
   <g id="patch_66">
    <path clip-path="url(#p5d09968c4d)" d="M 116.921053 320.4 
L 118.552632 320.4 
L 118.552632 309.697297 
L 116.921053 309.697297 
z
" style="fill:#7f7f7f;"/>
   </g>
   <g id="patch_67">
    <path clip-path="url(#p5d09968c4d)" d="M 178.921053 320.4 
L 180.552632 320.4 
L 180.552632 313.264865 
L 178.921053 313.264865 
z
" style="fill:#7f7f7f;"/>
   </g>
   <g id="patch_68">
    <path clip-path="url(#p5d09968c4d)" d="M 240.921053 320.4 
L 242.552632 320.4 
L 242.552632 309.697297 
L 240.921053 309.697297 
z
" style="fill:#7f7f7f;"/>
   </g>
   <g id="patch_69">
    <path clip-path="url(#p5d09968c4d)" d="M 302.921053 320.4 
L 304.552632 320.4 
L 304.552632 313.264865 
L 302.921053 313.264865 
z
" style="fill:#7f7f7f;"/>
   </g>
   <g id="patch_70">
    <path clip-path="url(#p5d09968c4d)" d="M 364.921053 320.4 
L 366.552632 320.4 
L 366.552632 316.832432 
L 364.921053 316.832432 
z
" style="fill:#7f7f7f;"/>
   </g>
   <g id="patch_71">
    <path clip-path="url(#p5d09968c4d)" d="M 426.921053 320.4 
L 428.552632 320.4 
L 428.552632 313.264865 
L 426.921053 313.264865 
z
" style="fill:#7f7f7f;"/>
   </g>
   <g id="patch_72">
    <path clip-path="url(#p5d09968c4d)" d="M 488.921053 320.4 
L 490.552632 320.4 
L 490.552632 313.264865 
L 488.921053 313.264865 
z
" style="fill:#7f7f7f;"/>
   </g>
   <g id="patch_73">
    <path clip-path="url(#p5d09968c4d)" d="M 550.921053 320.4 
L 552.552632 320.4 
L 552.552632 163.427027 
L 550.921053 163.427027 
z
" style="fill:#7f7f7f;"/>
   </g>
   <g id="patch_74">
    <path clip-path="url(#p5d09968c4d)" d="M 612.921053 320.4 
L 614.552632 320.4 
L 614.552632 313.264865 
L 612.921053 313.264865 
z
" style="fill:#7f7f7f;"/>
   </g>
   <g id="patch_75">
    <path clip-path="url(#p5d09968c4d)" d="M 118.552632 320.4 
L 120.184211 320.4 
L 120.184211 309.697297 
L 118.552632 309.697297 
z
" style="fill:#bcbd22;"/>
   </g>
   <g id="patch_76">
    <path clip-path="url(#p5d09968c4d)" d="M 180.552632 320.4 
L 182.184211 320.4 
L 182.184211 313.264865 
L 180.552632 313.264865 
z
" style="fill:#bcbd22;"/>
   </g>
   <g id="patch_77">
    <path clip-path="url(#p5d09968c4d)" d="M 242.552632 320.4 
L 244.184211 320.4 
L 244.184211 309.697297 
L 242.552632 309.697297 
z
" style="fill:#bcbd22;"/>
   </g>
   <g id="patch_78">
    <path clip-path="url(#p5d09968c4d)" d="M 304.552632 320.4 
L 306.184211 320.4 
L 306.184211 313.264865 
L 304.552632 313.264865 
z
" style="fill:#bcbd22;"/>
   </g>
   <g id="patch_79">
    <path clip-path="url(#p5d09968c4d)" d="M 366.552632 320.4 
L 368.184211 320.4 
L 368.184211 316.832432 
L 366.552632 316.832432 
z
" style="fill:#bcbd22;"/>
   </g>
   <g id="patch_80">
    <path clip-path="url(#p5d09968c4d)" d="M 428.552632 320.4 
L 430.184211 320.4 
L 430.184211 313.264865 
L 428.552632 313.264865 
z
" style="fill:#bcbd22;"/>
   </g>
   <g id="patch_81">
    <path clip-path="url(#p5d09968c4d)" d="M 490.552632 320.4 
L 492.184211 320.4 
L 492.184211 313.264865 
L 490.552632 313.264865 
z
" style="fill:#bcbd22;"/>
   </g>
   <g id="patch_82">
    <path clip-path="url(#p5d09968c4d)" d="M 552.552632 320.4 
L 554.184211 320.4 
L 554.184211 252.616216 
L 552.552632 252.616216 
z
" style="fill:#bcbd22;"/>
   </g>
   <g id="patch_83">
    <path clip-path="url(#p5d09968c4d)" d="M 614.552632 320.4 
L 616.184211 320.4 
L 616.184211 313.264865 
L 614.552632 313.264865 
z
" style="fill:#bcbd22;"/>
   </g>
   <g id="patch_84">
    <path clip-path="url(#p5d09968c4d)" d="M 120.184211 320.4 
L 121.815789 320.4 
L 121.815789 313.264865 
L 120.184211 313.264865 
z
" style="fill:#17becf;"/>
   </g>
   <g id="patch_85">
    <path clip-path="url(#p5d09968c4d)" d="M 182.184211 320.4 
L 183.815789 320.4 
L 183.815789 313.264865 
L 182.184211 313.264865 
z
" style="fill:#17becf;"/>
   </g>
   <g id="patch_86">
    <path clip-path="url(#p5d09968c4d)" d="M 244.184211 320.4 
L 245.815789 320.4 
L 245.815789 313.264865 
L 244.184211 313.264865 
z
" style="fill:#17becf;"/>
   </g>
   <g id="patch_87">
    <path clip-path="url(#p5d09968c4d)" d="M 306.184211 320.4 
L 307.815789 320.4 
L 307.815789 313.264865 
L 306.184211 313.264865 
z
" style="fill:#17becf;"/>
   </g>
   <g id="patch_88">
    <path clip-path="url(#p5d09968c4d)" d="M 368.184211 320.4 
L 369.815789 320.4 
L 369.815789 316.832432 
L 368.184211 316.832432 
z
" style="fill:#17becf;"/>
   </g>
   <g id="patch_89">
    <path clip-path="url(#p5d09968c4d)" d="M 430.184211 320.4 
L 431.815789 320.4 
L 431.815789 313.264865 
L 430.184211 313.264865 
z
" style="fill:#17becf;"/>
   </g>
   <g id="patch_90">
    <path clip-path="url(#p5d09968c4d)" d="M 492.184211 320.4 
L 493.815789 320.4 
L 493.815789 313.264865 
L 492.184211 313.264865 
z
" style="fill:#17becf;"/>
   </g>
   <g id="patch_91">
    <path clip-path="url(#p5d09968c4d)" d="M 554.184211 320.4 
L 555.815789 320.4 
L 555.815789 309.697297 
L 554.184211 309.697297 
z
" style="fill:#17becf;"/>
   </g>
   <g id="patch_92">
    <path clip-path="url(#p5d09968c4d)" d="M 616.184211 320.4 
L 617.815789 320.4 
L 617.815789 313.264865 
L 616.184211 313.264865 
z
" style="fill:#17becf;"/>
   </g>
   <g id="patch_93">
    <path clip-path="url(#p5d09968c4d)" d="M 121.815789 320.4 
L 123.447368 320.4 
L 123.447368 313.264865 
L 121.815789 313.264865 
z
" style="fill:#1f77b4;"/>
   </g>
   <g id="patch_94">
    <path clip-path="url(#p5d09968c4d)" d="M 183.815789 320.4 
L 185.447368 320.4 
L 185.447368 313.264865 
L 183.815789 313.264865 
z
" style="fill:#1f77b4;"/>
   </g>
   <g id="patch_95">
    <path clip-path="url(#p5d09968c4d)" d="M 245.815789 320.4 
L 247.447368 320.4 
L 247.447368 313.264865 
L 245.815789 313.264865 
z
" style="fill:#1f77b4;"/>
   </g>
   <g id="patch_96">
    <path clip-path="url(#p5d09968c4d)" d="M 307.815789 320.4 
L 309.447368 320.4 
L 309.447368 313.264865 
L 307.815789 313.264865 
z
" style="fill:#1f77b4;"/>
   </g>
   <g id="patch_97">
    <path clip-path="url(#p5d09968c4d)" d="M 369.815789 320.4 
L 371.447368 320.4 
L 371.447368 316.832432 
L 369.815789 316.832432 
z
" style="fill:#1f77b4;"/>
   </g>
   <g id="patch_98">
    <path clip-path="url(#p5d09968c4d)" d="M 431.815789 320.4 
L 433.447368 320.4 
L 433.447368 313.264865 
L 431.815789 313.264865 
z
" style="fill:#1f77b4;"/>
   </g>
   <g id="patch_99">
    <path clip-path="url(#p5d09968c4d)" d="M 493.815789 320.4 
L 495.447368 320.4 
L 495.447368 313.264865 
L 493.815789 313.264865 
z
" style="fill:#1f77b4;"/>
   </g>
   <g id="patch_100">
    <path clip-path="url(#p5d09968c4d)" d="M 555.815789 320.4 
L 557.447368 320.4 
L 557.447368 309.697297 
L 555.815789 309.697297 
z
" style="fill:#1f77b4;"/>
   </g>
   <g id="patch_101">
    <path clip-path="url(#p5d09968c4d)" d="M 617.815789 320.4 
L 619.447368 320.4 
L 619.447368 313.264865 
L 617.815789 313.264865 
z
" style="fill:#1f77b4;"/>
   </g>
   <g id="patch_102">
    <path clip-path="url(#p5d09968c4d)" d="M 123.447368 320.4 
L 125.078947 320.4 
L 125.078947 313.264865 
L 123.447368 313.264865 
z
" style="fill:#ff7f0e;"/>
   </g>
   <g id="patch_103">
    <path clip-path="url(#p5d09968c4d)" d="M 185.447368 320.4 
L 187.078947 320.4 
L 187.078947 313.264865 
L 185.447368 313.264865 
z
" style="fill:#ff7f0e;"/>
   </g>
   <g id="patch_104">
    <path clip-path="url(#p5d09968c4d)" d="M 247.447368 320.4 
L 249.078947 320.4 
L 249.078947 313.264865 
L 247.447368 313.264865 
z
" style="fill:#ff7f0e;"/>
   </g>
   <g id="patch_105">
    <path clip-path="url(#p5d09968c4d)" d="M 309.447368 320.4 
L 311.078947 320.4 
L 311.078947 313.264865 
L 309.447368 313.264865 
z
" style="fill:#ff7f0e;"/>
   </g>
   <g id="patch_106">
    <path clip-path="url(#p5d09968c4d)" d="M 371.447368 320.4 
L 373.078947 320.4 
L 373.078947 316.832432 
L 371.447368 316.832432 
z
" style="fill:#ff7f0e;"/>
   </g>
   <g id="patch_107">
    <path clip-path="url(#p5d09968c4d)" d="M 433.447368 320.4 
L 435.078947 320.4 
L 435.078947 313.264865 
L 433.447368 313.264865 
z
" style="fill:#ff7f0e;"/>
   </g>
   <g id="patch_108">
    <path clip-path="url(#p5d09968c4d)" d="M 495.447368 320.4 
L 497.078947 320.4 
L 497.078947 313.264865 
L 495.447368 313.264865 
z
" style="fill:#ff7f0e;"/>
   </g>
   <g id="patch_109">
    <path clip-path="url(#p5d09968c4d)" d="M 557.447368 320.4 
L 559.078947 320.4 
L 559.078947 309.697297 
L 557.447368 309.697297 
z
" style="fill:#ff7f0e;"/>
   </g>
   <g id="patch_110">
    <path clip-path="url(#p5d09968c4d)" d="M 619.447368 320.4 
L 621.078947 320.4 
L 621.078947 313.264865 
L 619.447368 313.264865 
z
" style="fill:#ff7f0e;"/>
   </g>
   <g id="patch_111">
    <path clip-path="url(#p5d09968c4d)" d="M 125.078947 320.4 
L 126.710526 320.4 
L 126.710526 313.264865 
L 125.078947 313.264865 
z
" style="fill:#2ca02c;"/>
   </g>
   <g id="patch_112">
    <path clip-path="url(#p5d09968c4d)" d="M 187.078947 320.4 
L 188.710526 320.4 
L 188.710526 313.264865 
L 187.078947 313.264865 
z
" style="fill:#2ca02c;"/>
   </g>
   <g id="patch_113">
    <path clip-path="url(#p5d09968c4d)" d="M 249.078947 320.4 
L 250.710526 320.4 
L 250.710526 313.264865 
L 249.078947 313.264865 
z
" style="fill:#2ca02c;"/>
   </g>
   <g id="patch_114">
    <path clip-path="url(#p5d09968c4d)" d="M 311.078947 320.4 
L 312.710526 320.4 
L 312.710526 313.264865 
L 311.078947 313.264865 
z
" style="fill:#2ca02c;"/>
   </g>
   <g id="patch_115">
    <path clip-path="url(#p5d09968c4d)" d="M 373.078947 320.4 
L 374.710526 320.4 
L 374.710526 316.832432 
L 373.078947 316.832432 
z
" style="fill:#2ca02c;"/>
   </g>
   <g id="patch_116">
    <path clip-path="url(#p5d09968c4d)" d="M 435.078947 320.4 
L 436.710526 320.4 
L 436.710526 313.264865 
L 435.078947 313.264865 
z
" style="fill:#2ca02c;"/>
   </g>
   <g id="patch_117">
    <path clip-path="url(#p5d09968c4d)" d="M 497.078947 320.4 
L 498.710526 320.4 
L 498.710526 313.264865 
L 497.078947 313.264865 
z
" style="fill:#2ca02c;"/>
   </g>
   <g id="patch_118">
    <path clip-path="url(#p5d09968c4d)" d="M 559.078947 320.4 
L 560.710526 320.4 
L 560.710526 309.697297 
L 559.078947 309.697297 
z
" style="fill:#2ca02c;"/>
   </g>
   <g id="patch_119">
    <path clip-path="url(#p5d09968c4d)" d="M 621.078947 320.4 
L 622.710526 320.4 
L 622.710526 313.264865 
L 621.078947 313.264865 
z
" style="fill:#2ca02c;"/>
   </g>
   <g id="patch_120">
    <path clip-path="url(#p5d09968c4d)" d="M 126.710526 320.4 
L 128.342105 320.4 
L 128.342105 313.264865 
L 126.710526 313.264865 
z
" style="fill:#d62728;"/>
   </g>
   <g id="patch_121">
    <path clip-path="url(#p5d09968c4d)" d="M 188.710526 320.4 
L 190.342105 320.4 
L 190.342105 313.264865 
L 188.710526 313.264865 
z
" style="fill:#d62728;"/>
   </g>
   <g id="patch_122">
    <path clip-path="url(#p5d09968c4d)" d="M 250.710526 320.4 
L 252.342105 320.4 
L 252.342105 313.264865 
L 250.710526 313.264865 
z
" style="fill:#d62728;"/>
   </g>
   <g id="patch_123">
    <path clip-path="url(#p5d09968c4d)" d="M 312.710526 320.4 
L 314.342105 320.4 
L 314.342105 313.264865 
L 312.710526 313.264865 
z
" style="fill:#d62728;"/>
   </g>
   <g id="patch_124">
    <path clip-path="url(#p5d09968c4d)" d="M 374.710526 320.4 
L 376.342105 320.4 
L 376.342105 316.832432 
L 374.710526 316.832432 
z
" style="fill:#d62728;"/>
   </g>
   <g id="patch_125">
    <path clip-path="url(#p5d09968c4d)" d="M 436.710526 320.4 
L 438.342105 320.4 
L 438.342105 313.264865 
L 436.710526 313.264865 
z
" style="fill:#d62728;"/>
   </g>
   <g id="patch_126">
    <path clip-path="url(#p5d09968c4d)" d="M 498.710526 320.4 
L 500.342105 320.4 
L 500.342105 313.264865 
L 498.710526 313.264865 
z
" style="fill:#d62728;"/>
   </g>
   <g id="patch_127">
    <path clip-path="url(#p5d09968c4d)" d="M 560.710526 320.4 
L 562.342105 320.4 
L 562.342105 309.697297 
L 560.710526 309.697297 
z
" style="fill:#d62728;"/>
   </g>
   <g id="patch_128">
    <path clip-path="url(#p5d09968c4d)" d="M 622.710526 320.4 
L 624.342105 320.4 
L 624.342105 313.264865 
L 622.710526 313.264865 
z
" style="fill:#d62728;"/>
   </g>
   <g id="patch_129">
    <path clip-path="url(#p5d09968c4d)" d="M 128.342105 320.4 
L 129.973684 320.4 
L 129.973684 313.264865 
L 128.342105 313.264865 
z
" style="fill:#9467bd;"/>
   </g>
   <g id="patch_130">
    <path clip-path="url(#p5d09968c4d)" d="M 190.342105 320.4 
L 191.973684 320.4 
L 191.973684 313.264865 
L 190.342105 313.264865 
z
" style="fill:#9467bd;"/>
   </g>
   <g id="patch_131">
    <path clip-path="url(#p5d09968c4d)" d="M 252.342105 320.4 
L 253.973684 320.4 
L 253.973684 313.264865 
L 252.342105 313.264865 
z
" style="fill:#9467bd;"/>
   </g>
   <g id="patch_132">
    <path clip-path="url(#p5d09968c4d)" d="M 314.342105 320.4 
L 315.973684 320.4 
L 315.973684 313.264865 
L 314.342105 313.264865 
z
" style="fill:#9467bd;"/>
   </g>
   <g id="patch_133">
    <path clip-path="url(#p5d09968c4d)" d="M 376.342105 320.4 
L 377.973684 320.4 
L 377.973684 316.832432 
L 376.342105 316.832432 
z
" style="fill:#9467bd;"/>
   </g>
   <g id="patch_134">
    <path clip-path="url(#p5d09968c4d)" d="M 438.342105 320.4 
L 439.973684 320.4 
L 439.973684 313.264865 
L 438.342105 313.264865 
z
" style="fill:#9467bd;"/>
   </g>
   <g id="patch_135">
    <path clip-path="url(#p5d09968c4d)" d="M 500.342105 320.4 
L 501.973684 320.4 
L 501.973684 313.264865 
L 500.342105 313.264865 
z
" style="fill:#9467bd;"/>
   </g>
   <g id="patch_136">
    <path clip-path="url(#p5d09968c4d)" d="M 562.342105 320.4 
L 563.973684 320.4 
L 563.973684 309.697297 
L 562.342105 309.697297 
z
" style="fill:#9467bd;"/>
   </g>
   <g id="patch_137">
    <path clip-path="url(#p5d09968c4d)" d="M 624.342105 320.4 
L 625.973684 320.4 
L 625.973684 313.264865 
L 624.342105 313.264865 
z
" style="fill:#9467bd;"/>
   </g>
   <g id="patch_138">
    <path clip-path="url(#p5d09968c4d)" d="M 129.973684 320.4 
L 131.605263 320.4 
L 131.605263 313.264865 
L 129.973684 313.264865 
z
" style="fill:#8c564b;"/>
   </g>
   <g id="patch_139">
    <path clip-path="url(#p5d09968c4d)" d="M 191.973684 320.4 
L 193.605263 320.4 
L 193.605263 313.264865 
L 191.973684 313.264865 
z
" style="fill:#8c564b;"/>
   </g>
   <g id="patch_140">
    <path clip-path="url(#p5d09968c4d)" d="M 253.973684 320.4 
L 255.605263 320.4 
L 255.605263 313.264865 
L 253.973684 313.264865 
z
" style="fill:#8c564b;"/>
   </g>
   <g id="patch_141">
    <path clip-path="url(#p5d09968c4d)" d="M 315.973684 320.4 
L 317.605263 320.4 
L 317.605263 313.264865 
L 315.973684 313.264865 
z
" style="fill:#8c564b;"/>
   </g>
   <g id="patch_142">
    <path clip-path="url(#p5d09968c4d)" d="M 377.973684 320.4 
L 379.605263 320.4 
L 379.605263 316.832432 
L 377.973684 316.832432 
z
" style="fill:#8c564b;"/>
   </g>
   <g id="patch_143">
    <path clip-path="url(#p5d09968c4d)" d="M 439.973684 320.4 
L 441.605263 320.4 
L 441.605263 313.264865 
L 439.973684 313.264865 
z
" style="fill:#8c564b;"/>
   </g>
   <g id="patch_144">
    <path clip-path="url(#p5d09968c4d)" d="M 501.973684 320.4 
L 503.605263 320.4 
L 503.605263 313.264865 
L 501.973684 313.264865 
z
" style="fill:#8c564b;"/>
   </g>
   <g id="patch_145">
    <path clip-path="url(#p5d09968c4d)" d="M 563.973684 320.4 
L 565.605263 320.4 
L 565.605263 309.697297 
L 563.973684 309.697297 
z
" style="fill:#8c564b;"/>
   </g>
   <g id="patch_146">
    <path clip-path="url(#p5d09968c4d)" d="M 625.973684 320.4 
L 627.605263 320.4 
L 627.605263 313.264865 
L 625.973684 313.264865 
z
" style="fill:#8c564b;"/>
   </g>
   <g id="patch_147">
    <path clip-path="url(#p5d09968c4d)" d="M 131.605263 320.4 
L 133.236842 320.4 
L 133.236842 313.264865 
L 131.605263 313.264865 
z
" style="fill:#e377c2;"/>
   </g>
   <g id="patch_148">
    <path clip-path="url(#p5d09968c4d)" d="M 193.605263 320.4 
L 195.236842 320.4 
L 195.236842 313.264865 
L 193.605263 313.264865 
z
" style="fill:#e377c2;"/>
   </g>
   <g id="patch_149">
    <path clip-path="url(#p5d09968c4d)" d="M 255.605263 320.4 
L 257.236842 320.4 
L 257.236842 313.264865 
L 255.605263 313.264865 
z
" style="fill:#e377c2;"/>
   </g>
   <g id="patch_150">
    <path clip-path="url(#p5d09968c4d)" d="M 317.605263 320.4 
L 319.236842 320.4 
L 319.236842 313.264865 
L 317.605263 313.264865 
z
" style="fill:#e377c2;"/>
   </g>
   <g id="patch_151">
    <path clip-path="url(#p5d09968c4d)" d="M 379.605263 320.4 
L 381.236842 320.4 
L 381.236842 316.832432 
L 379.605263 316.832432 
z
" style="fill:#e377c2;"/>
   </g>
   <g id="patch_152">
    <path clip-path="url(#p5d09968c4d)" d="M 441.605263 320.4 
L 443.236842 320.4 
L 443.236842 313.264865 
L 441.605263 313.264865 
z
" style="fill:#e377c2;"/>
   </g>
   <g id="patch_153">
    <path clip-path="url(#p5d09968c4d)" d="M 503.605263 320.4 
L 505.236842 320.4 
L 505.236842 313.264865 
L 503.605263 313.264865 
z
" style="fill:#e377c2;"/>
   </g>
   <g id="patch_154">
    <path clip-path="url(#p5d09968c4d)" d="M 565.605263 320.4 
L 567.236842 320.4 
L 567.236842 309.697297 
L 565.605263 309.697297 
z
" style="fill:#e377c2;"/>
   </g>
   <g id="patch_155">
    <path clip-path="url(#p5d09968c4d)" d="M 627.605263 320.4 
L 629.236842 320.4 
L 629.236842 313.264865 
L 627.605263 313.264865 
z
" style="fill:#e377c2;"/>
   </g>
   <g id="patch_156">
    <path clip-path="url(#p5d09968c4d)" d="M 133.236842 320.4 
L 134.868421 320.4 
L 134.868421 313.264865 
L 133.236842 313.264865 
z
" style="fill:#7f7f7f;"/>
   </g>
   <g id="patch_157">
    <path clip-path="url(#p5d09968c4d)" d="M 195.236842 320.4 
L 196.868421 320.4 
L 196.868421 313.264865 
L 195.236842 313.264865 
z
" style="fill:#7f7f7f;"/>
   </g>
   <g id="patch_158">
    <path clip-path="url(#p5d09968c4d)" d="M 257.236842 320.4 
L 258.868421 320.4 
L 258.868421 313.264865 
L 257.236842 313.264865 
z
" style="fill:#7f7f7f;"/>
   </g>
   <g id="patch_159">
    <path clip-path="url(#p5d09968c4d)" d="M 319.236842 320.4 
L 320.868421 320.4 
L 320.868421 313.264865 
L 319.236842 313.264865 
z
" style="fill:#7f7f7f;"/>
   </g>
   <g id="patch_160">
    <path clip-path="url(#p5d09968c4d)" d="M 381.236842 320.4 
L 382.868421 320.4 
L 382.868421 316.832432 
L 381.236842 316.832432 
z
" style="fill:#7f7f7f;"/>
   </g>
   <g id="patch_161">
    <path clip-path="url(#p5d09968c4d)" d="M 443.236842 320.4 
L 444.868421 320.4 
L 444.868421 313.264865 
L 443.236842 313.264865 
z
" style="fill:#7f7f7f;"/>
   </g>
   <g id="patch_162">
    <path clip-path="url(#p5d09968c4d)" d="M 505.236842 320.4 
L 506.868421 320.4 
L 506.868421 313.264865 
L 505.236842 313.264865 
z
" style="fill:#7f7f7f;"/>
   </g>
   <g id="patch_163">
    <path clip-path="url(#p5d09968c4d)" d="M 567.236842 320.4 
L 568.868421 320.4 
L 568.868421 309.697297 
L 567.236842 309.697297 
z
" style="fill:#7f7f7f;"/>
   </g>
   <g id="patch_164">
    <path clip-path="url(#p5d09968c4d)" d="M 629.236842 320.4 
L 630.868421 320.4 
L 630.868421 313.264865 
L 629.236842 313.264865 
z
" style="fill:#7f7f7f;"/>
   </g>
   <g id="patch_165">
    <path clip-path="url(#p5d09968c4d)" d="M 134.868421 320.4 
L 136.5 320.4 
L 136.5 313.264865 
L 134.868421 313.264865 
z
" style="fill:#bcbd22;"/>
   </g>
   <g id="patch_166">
    <path clip-path="url(#p5d09968c4d)" d="M 196.868421 320.4 
L 198.5 320.4 
L 198.5 313.264865 
L 196.868421 313.264865 
z
" style="fill:#bcbd22;"/>
   </g>
   <g id="patch_167">
    <path clip-path="url(#p5d09968c4d)" d="M 258.868421 320.4 
L 260.5 320.4 
L 260.5 313.264865 
L 258.868421 313.264865 
z
" style="fill:#bcbd22;"/>
   </g>
   <g id="patch_168">
    <path clip-path="url(#p5d09968c4d)" d="M 320.868421 320.4 
L 322.5 320.4 
L 322.5 313.264865 
L 320.868421 313.264865 
z
" style="fill:#bcbd22;"/>
   </g>
   <g id="patch_169">
    <path clip-path="url(#p5d09968c4d)" d="M 382.868421 320.4 
L 384.5 320.4 
L 384.5 316.832432 
L 382.868421 316.832432 
z
" style="fill:#bcbd22;"/>
   </g>
   <g id="patch_170">
    <path clip-path="url(#p5d09968c4d)" d="M 444.868421 320.4 
L 446.5 320.4 
L 446.5 313.264865 
L 444.868421 313.264865 
z
" style="fill:#bcbd22;"/>
   </g>
   <g id="patch_171">
    <path clip-path="url(#p5d09968c4d)" d="M 506.868421 320.4 
L 508.5 320.4 
L 508.5 313.264865 
L 506.868421 313.264865 
z
" style="fill:#bcbd22;"/>
   </g>
   <g id="patch_172">
    <path clip-path="url(#p5d09968c4d)" d="M 568.868421 320.4 
L 570.5 320.4 
L 570.5 309.697297 
L 568.868421 309.697297 
z
" style="fill:#bcbd22;"/>
   </g>
   <g id="patch_173">
    <path clip-path="url(#p5d09968c4d)" d="M 630.868421 320.4 
L 632.5 320.4 
L 632.5 313.264865 
L 630.868421 313.264865 
z
" style="fill:#bcbd22;"/>
   </g>
   <g id="matplotlib.axis_1">
    <g id="xtick_1">
     <g id="line2d_1">
      <defs>
       <path d="M 0 0 
L 0 3.5 
" id="mf40e82c527" style="stroke:#000000;stroke-width:0.8;"/>
      </defs>
      <g>
       <use style="stroke:#000000;stroke-width:0.8;" x="121" xlink:href="#mf40e82c527" y="320.4"/>
      </g>
     </g>
     <g id="text_1">
      <!-- AAH035 -->
      <defs>
       <path d="M 34.1875 63.1875 
L 20.796875 26.90625 
L 47.609375 26.90625 
z
M 28.609375 72.90625 
L 39.796875 72.90625 
L 67.578125 0 
L 57.328125 0 
L 50.6875 18.703125 
L 17.828125 18.703125 
L 11.1875 0 
L 0.78125 0 
z
" id="DejaVuSans-65"/>
       <path d="M 9.8125 72.90625 
L 19.671875 72.90625 
L 19.671875 43.015625 
L 55.515625 43.015625 
L 55.515625 72.90625 
L 65.375 72.90625 
L 65.375 0 
L 55.515625 0 
L 55.515625 34.71875 
L 19.671875 34.71875 
L 19.671875 0 
L 9.8125 0 
z
" id="DejaVuSans-72"/>
       <path d="M 31.78125 66.40625 
Q 24.171875 66.40625 20.328125 58.90625 
Q 16.5 51.421875 16.5 36.375 
Q 16.5 21.390625 20.328125 13.890625 
Q 24.171875 6.390625 31.78125 6.390625 
Q 39.453125 6.390625 43.28125 13.890625 
Q 47.125 21.390625 47.125 36.375 
Q 47.125 51.421875 43.28125 58.90625 
Q 39.453125 66.40625 31.78125 66.40625 
z
M 31.78125 74.21875 
Q 44.046875 74.21875 50.515625 64.515625 
Q 56.984375 54.828125 56.984375 36.375 
Q 56.984375 17.96875 50.515625 8.265625 
Q 44.046875 -1.421875 31.78125 -1.421875 
Q 19.53125 -1.421875 13.0625 8.265625 
Q 6.59375 17.96875 6.59375 36.375 
Q 6.59375 54.828125 13.0625 64.515625 
Q 19.53125 74.21875 31.78125 74.21875 
z
" id="DejaVuSans-48"/>
       <path d="M 40.578125 39.3125 
Q 47.65625 37.796875 51.625 33 
Q 55.609375 28.21875 55.609375 21.1875 
Q 55.609375 10.40625 48.1875 4.484375 
Q 40.765625 -1.421875 27.09375 -1.421875 
Q 22.515625 -1.421875 17.65625 -0.515625 
Q 12.796875 0.390625 7.625 2.203125 
L 7.625 11.71875 
Q 11.71875 9.328125 16.59375 8.109375 
Q 21.484375 6.890625 26.8125 6.890625 
Q 36.078125 6.890625 40.9375 10.546875 
Q 45.796875 14.203125 45.796875 21.1875 
Q 45.796875 27.640625 41.28125 31.265625 
Q 36.765625 34.90625 28.71875 34.90625 
L 20.21875 34.90625 
L 20.21875 43.015625 
L 29.109375 43.015625 
Q 36.375 43.015625 40.234375 45.921875 
Q 44.09375 48.828125 44.09375 54.296875 
Q 44.09375 59.90625 40.109375 62.90625 
Q 36.140625 65.921875 28.71875 65.921875 
Q 24.65625 65.921875 20.015625 65.03125 
Q 15.375 64.15625 9.8125 62.3125 
L 9.8125 71.09375 
Q 15.4375 72.65625 20.34375 73.4375 
Q 25.25 74.21875 29.59375 74.21875 
Q 40.828125 74.21875 47.359375 69.109375 
Q 53.90625 64.015625 53.90625 55.328125 
Q 53.90625 49.265625 50.4375 45.09375 
Q 46.96875 40.921875 40.578125 39.3125 
z
" id="DejaVuSans-51"/>
       <path d="M 10.796875 72.90625 
L 49.515625 72.90625 
L 49.515625 64.59375 
L 19.828125 64.59375 
L 19.828125 46.734375 
Q 21.96875 47.46875 24.109375 47.828125 
Q 26.265625 48.1875 28.421875 48.1875 
Q 40.625 48.1875 47.75 41.5 
Q 54.890625 34.8125 54.890625 23.390625 
Q 54.890625 11.625 47.5625 5.09375 
Q 40.234375 -1.421875 26.90625 -1.421875 
Q 22.3125 -1.421875 17.546875 -0.640625 
Q 12.796875 0.140625 7.71875 1.703125 
L 7.71875 11.625 
Q 12.109375 9.234375 16.796875 8.0625 
Q 21.484375 6.890625 26.703125 6.890625 
Q 35.15625 6.890625 40.078125 11.328125 
Q 45.015625 15.765625 45.015625 23.390625 
Q 45.015625 31 40.078125 35.4375 
Q 35.15625 39.890625 26.703125 39.890625 
Q 22.75 39.890625 18.8125 39.015625 
Q 14.890625 38.140625 10.796875 36.28125 
z
" id="DejaVuSans-53"/>
      </defs>
      <g transform="translate(123.759375 367.692187)rotate(-90)scale(0.1 -0.1)">
       <use xlink:href="#DejaVuSans-65"/>
       <use x="68.439453" xlink:href="#DejaVuSans-65"/>
       <use x="136.847656" xlink:href="#DejaVuSans-72"/>
       <use x="212.042969" xlink:href="#DejaVuSans-48"/>
       <use x="275.666016" xlink:href="#DejaVuSans-51"/>
       <use x="339.289062" xlink:href="#DejaVuSans-53"/>
      </g>
     </g>
    </g>
    <g id="xtick_2">
     <g id="line2d_2">
      <g>
       <use style="stroke:#000000;stroke-width:0.8;" x="183" xlink:href="#mf40e82c527" y="320.4"/>
      </g>
     </g>
     <g id="text_2">
      <!-- AAH024 -->
      <defs>
       <path d="M 19.1875 8.296875 
L 53.609375 8.296875 
L 53.609375 0 
L 7.328125 0 
L 7.328125 8.296875 
Q 12.9375 14.109375 22.625 23.890625 
Q 32.328125 33.6875 34.8125 36.53125 
Q 39.546875 41.84375 41.421875 45.53125 
Q 43.3125 49.21875 43.3125 52.78125 
Q 43.3125 58.59375 39.234375 62.25 
Q 35.15625 65.921875 28.609375 65.921875 
Q 23.96875 65.921875 18.8125 64.3125 
Q 13.671875 62.703125 7.8125 59.421875 
L 7.8125 69.390625 
Q 13.765625 71.78125 18.9375 73 
Q 24.125 74.21875 28.421875 74.21875 
Q 39.75 74.21875 46.484375 68.546875 
Q 53.21875 62.890625 53.21875 53.421875 
Q 53.21875 48.921875 51.53125 44.890625 
Q 49.859375 40.875 45.40625 35.40625 
Q 44.1875 33.984375 37.640625 27.21875 
Q 31.109375 20.453125 19.1875 8.296875 
z
" id="DejaVuSans-50"/>
       <path d="M 37.796875 64.3125 
L 12.890625 25.390625 
L 37.796875 25.390625 
z
M 35.203125 72.90625 
L 47.609375 72.90625 
L 47.609375 25.390625 
L 58.015625 25.390625 
L 58.015625 17.1875 
L 47.609375 17.1875 
L 47.609375 0 
L 37.796875 0 
L 37.796875 17.1875 
L 4.890625 17.1875 
L 4.890625 26.703125 
z
" id="DejaVuSans-52"/>
      </defs>
      <g transform="translate(185.759375 367.692187)rotate(-90)scale(0.1 -0.1)">
       <use xlink:href="#DejaVuSans-65"/>
       <use x="68.439453" xlink:href="#DejaVuSans-65"/>
       <use x="136.847656" xlink:href="#DejaVuSans-72"/>
       <use x="212.042969" xlink:href="#DejaVuSans-48"/>
       <use x="275.666016" xlink:href="#DejaVuSans-50"/>
       <use x="339.289062" xlink:href="#DejaVuSans-52"/>
      </g>
     </g>
    </g>
    <g id="xtick_3">
     <g id="line2d_3">
      <g>
       <use style="stroke:#000000;stroke-width:0.8;" x="245" xlink:href="#mf40e82c527" y="320.4"/>
      </g>
     </g>
     <g id="text_3">
      <!-- AAH026 -->
      <defs>
       <path d="M 33.015625 40.375 
Q 26.375 40.375 22.484375 35.828125 
Q 18.609375 31.296875 18.609375 23.390625 
Q 18.609375 15.53125 22.484375 10.953125 
Q 26.375 6.390625 33.015625 6.390625 
Q 39.65625 6.390625 43.53125 10.953125 
Q 47.40625 15.53125 47.40625 23.390625 
Q 47.40625 31.296875 43.53125 35.828125 
Q 39.65625 40.375 33.015625 40.375 
z
M 52.59375 71.296875 
L 52.59375 62.3125 
Q 48.875 64.0625 45.09375 64.984375 
Q 41.3125 65.921875 37.59375 65.921875 
Q 27.828125 65.921875 22.671875 59.328125 
Q 17.53125 52.734375 16.796875 39.40625 
Q 19.671875 43.65625 24.015625 45.921875 
Q 28.375 48.1875 33.59375 48.1875 
Q 44.578125 48.1875 50.953125 41.515625 
Q 57.328125 34.859375 57.328125 23.390625 
Q 57.328125 12.15625 50.6875 5.359375 
Q 44.046875 -1.421875 33.015625 -1.421875 
Q 20.359375 -1.421875 13.671875 8.265625 
Q 6.984375 17.96875 6.984375 36.375 
Q 6.984375 53.65625 15.1875 63.9375 
Q 23.390625 74.21875 37.203125 74.21875 
Q 40.921875 74.21875 44.703125 73.484375 
Q 48.484375 72.75 52.59375 71.296875 
z
" id="DejaVuSans-54"/>
      </defs>
      <g transform="translate(247.759375 367.692187)rotate(-90)scale(0.1 -0.1)">
       <use xlink:href="#DejaVuSans-65"/>
       <use x="68.439453" xlink:href="#DejaVuSans-65"/>
       <use x="136.847656" xlink:href="#DejaVuSans-72"/>
       <use x="212.042969" xlink:href="#DejaVuSans-48"/>
       <use x="275.666016" xlink:href="#DejaVuSans-50"/>
       <use x="339.289062" xlink:href="#DejaVuSans-54"/>
      </g>
     </g>
    </g>
    <g id="xtick_4">
     <g id="line2d_4">
      <g>
       <use style="stroke:#000000;stroke-width:0.8;" x="307" xlink:href="#mf40e82c527" y="320.4"/>
      </g>
     </g>
     <g id="text_4">
      <!-- AAH032 -->
      <g transform="translate(309.759375 367.692187)rotate(-90)scale(0.1 -0.1)">
       <use xlink:href="#DejaVuSans-65"/>
       <use x="68.439453" xlink:href="#DejaVuSans-65"/>
       <use x="136.847656" xlink:href="#DejaVuSans-72"/>
       <use x="212.042969" xlink:href="#DejaVuSans-48"/>
       <use x="275.666016" xlink:href="#DejaVuSans-51"/>
       <use x="339.289062" xlink:href="#DejaVuSans-50"/>
      </g>
     </g>
    </g>
    <g id="xtick_5">
     <g id="line2d_5">
      <g>
       <use style="stroke:#000000;stroke-width:0.8;" x="369" xlink:href="#mf40e82c527" y="320.4"/>
      </g>
     </g>
     <g id="text_5">
      <!-- AAH037 -->
      <defs>
       <path d="M 8.203125 72.90625 
L 55.078125 72.90625 
L 55.078125 68.703125 
L 28.609375 0 
L 18.3125 0 
L 43.21875 64.59375 
L 8.203125 64.59375 
z
" id="DejaVuSans-55"/>
      </defs>
      <g transform="translate(371.759375 367.692187)rotate(-90)scale(0.1 -0.1)">
       <use xlink:href="#DejaVuSans-65"/>
       <use x="68.439453" xlink:href="#DejaVuSans-65"/>
       <use x="136.847656" xlink:href="#DejaVuSans-72"/>
       <use x="212.042969" xlink:href="#DejaVuSans-48"/>
       <use x="275.666016" xlink:href="#DejaVuSans-51"/>
       <use x="339.289062" xlink:href="#DejaVuSans-55"/>
      </g>
     </g>
    </g>
    <g id="xtick_6">
     <g id="line2d_6">
      <g>
       <use style="stroke:#000000;stroke-width:0.8;" x="431" xlink:href="#mf40e82c527" y="320.4"/>
      </g>
     </g>
     <g id="text_6">
      <!-- AAH041 -->
      <defs>
       <path d="M 12.40625 8.296875 
L 28.515625 8.296875 
L 28.515625 63.921875 
L 10.984375 60.40625 
L 10.984375 69.390625 
L 28.421875 72.90625 
L 38.28125 72.90625 
L 38.28125 8.296875 
L 54.390625 8.296875 
L 54.390625 0 
L 12.40625 0 
z
" id="DejaVuSans-49"/>
      </defs>
      <g transform="translate(433.759375 367.692187)rotate(-90)scale(0.1 -0.1)">
       <use xlink:href="#DejaVuSans-65"/>
       <use x="68.439453" xlink:href="#DejaVuSans-65"/>
       <use x="136.847656" xlink:href="#DejaVuSans-72"/>
       <use x="212.042969" xlink:href="#DejaVuSans-48"/>
       <use x="275.666016" xlink:href="#DejaVuSans-52"/>
       <use x="339.289062" xlink:href="#DejaVuSans-49"/>
      </g>
     </g>
    </g>
    <g id="xtick_7">
     <g id="line2d_7">
      <g>
       <use style="stroke:#000000;stroke-width:0.8;" x="493" xlink:href="#mf40e82c527" y="320.4"/>
      </g>
     </g>
     <g id="text_7">
      <!-- AAH029 -->
      <defs>
       <path d="M 10.984375 1.515625 
L 10.984375 10.5 
Q 14.703125 8.734375 18.5 7.8125 
Q 22.3125 6.890625 25.984375 6.890625 
Q 35.75 6.890625 40.890625 13.453125 
Q 46.046875 20.015625 46.78125 33.40625 
Q 43.953125 29.203125 39.59375 26.953125 
Q 35.25 24.703125 29.984375 24.703125 
Q 19.046875 24.703125 12.671875 31.3125 
Q 6.296875 37.9375 6.296875 49.421875 
Q 6.296875 60.640625 12.9375 67.421875 
Q 19.578125 74.21875 30.609375 74.21875 
Q 43.265625 74.21875 49.921875 64.515625 
Q 56.59375 54.828125 56.59375 36.375 
Q 56.59375 19.140625 48.40625 8.859375 
Q 40.234375 -1.421875 26.421875 -1.421875 
Q 22.703125 -1.421875 18.890625 -0.6875 
Q 15.09375 0.046875 10.984375 1.515625 
z
M 30.609375 32.421875 
Q 37.25 32.421875 41.125 36.953125 
Q 45.015625 41.5 45.015625 49.421875 
Q 45.015625 57.28125 41.125 61.84375 
Q 37.25 66.40625 30.609375 66.40625 
Q 23.96875 66.40625 20.09375 61.84375 
Q 16.21875 57.28125 16.21875 49.421875 
Q 16.21875 41.5 20.09375 36.953125 
Q 23.96875 32.421875 30.609375 32.421875 
z
" id="DejaVuSans-57"/>
      </defs>
      <g transform="translate(495.759375 367.692187)rotate(-90)scale(0.1 -0.1)">
       <use xlink:href="#DejaVuSans-65"/>
       <use x="68.439453" xlink:href="#DejaVuSans-65"/>
       <use x="136.847656" xlink:href="#DejaVuSans-72"/>
       <use x="212.042969" xlink:href="#DejaVuSans-48"/>
       <use x="275.666016" xlink:href="#DejaVuSans-50"/>
       <use x="339.289062" xlink:href="#DejaVuSans-57"/>
      </g>
     </g>
    </g>
    <g id="xtick_8">
     <g id="line2d_8">
      <g>
       <use style="stroke:#000000;stroke-width:0.8;" x="555" xlink:href="#mf40e82c527" y="320.4"/>
      </g>
     </g>
     <g id="text_8">
      <!-- AAH031 -->
      <g transform="translate(557.759375 367.692187)rotate(-90)scale(0.1 -0.1)">
       <use xlink:href="#DejaVuSans-65"/>
       <use x="68.439453" xlink:href="#DejaVuSans-65"/>
       <use x="136.847656" xlink:href="#DejaVuSans-72"/>
       <use x="212.042969" xlink:href="#DejaVuSans-48"/>
       <use x="275.666016" xlink:href="#DejaVuSans-51"/>
       <use x="339.289062" xlink:href="#DejaVuSans-49"/>
      </g>
     </g>
    </g>
    <g id="xtick_9">
     <g id="line2d_9">
      <g>
       <use style="stroke:#000000;stroke-width:0.8;" x="617" xlink:href="#mf40e82c527" y="320.4"/>
      </g>
     </g>
     <g id="text_9">
      <!-- AAH034 -->
      <g transform="translate(619.759375 367.692187)rotate(-90)scale(0.1 -0.1)">
       <use xlink:href="#DejaVuSans-65"/>
       <use x="68.439453" xlink:href="#DejaVuSans-65"/>
       <use x="136.847656" xlink:href="#DejaVuSans-72"/>
       <use x="212.042969" xlink:href="#DejaVuSans-48"/>
       <use x="275.666016" xlink:href="#DejaVuSans-51"/>
       <use x="339.289062" xlink:href="#DejaVuSans-52"/>
      </g>
     </g>
    </g>
    <g id="text_10">
     <!-- Bug Number -->
     <defs>
      <path d="M 19.671875 34.8125 
L 19.671875 8.109375 
L 35.5 8.109375 
Q 43.453125 8.109375 47.28125 11.40625 
Q 51.125 14.703125 51.125 21.484375 
Q 51.125 28.328125 47.28125 31.5625 
Q 43.453125 34.8125 35.5 34.8125 
z
M 19.671875 64.796875 
L 19.671875 42.828125 
L 34.28125 42.828125 
Q 41.5 42.828125 45.03125 45.53125 
Q 48.578125 48.25 48.578125 53.8125 
Q 48.578125 59.328125 45.03125 62.0625 
Q 41.5 64.796875 34.28125 64.796875 
z
M 9.8125 72.90625 
L 35.015625 72.90625 
Q 46.296875 72.90625 52.390625 68.21875 
Q 58.5 63.53125 58.5 54.890625 
Q 58.5 48.1875 55.375 44.234375 
Q 52.25 40.28125 46.1875 39.3125 
Q 53.46875 37.75 57.5 32.78125 
Q 61.53125 27.828125 61.53125 20.40625 
Q 61.53125 10.640625 54.890625 5.3125 
Q 48.25 0 35.984375 0 
L 9.8125 0 
z
" id="DejaVuSans-66"/>
      <path d="M 8.5 21.578125 
L 8.5 54.6875 
L 17.484375 54.6875 
L 17.484375 21.921875 
Q 17.484375 14.15625 20.5 10.265625 
Q 23.53125 6.390625 29.59375 6.390625 
Q 36.859375 6.390625 41.078125 11.03125 
Q 45.3125 15.671875 45.3125 23.6875 
L 45.3125 54.6875 
L 54.296875 54.6875 
L 54.296875 0 
L 45.3125 0 
L 45.3125 8.40625 
Q 42.046875 3.421875 37.71875 1 
Q 33.40625 -1.421875 27.6875 -1.421875 
Q 18.265625 -1.421875 13.375 4.4375 
Q 8.5 10.296875 8.5 21.578125 
z
M 31.109375 56 
z
" id="DejaVuSans-117"/>
      <path d="M 45.40625 27.984375 
Q 45.40625 37.75 41.375 43.109375 
Q 37.359375 48.484375 30.078125 48.484375 
Q 22.859375 48.484375 18.828125 43.109375 
Q 14.796875 37.75 14.796875 27.984375 
Q 14.796875 18.265625 18.828125 12.890625 
Q 22.859375 7.515625 30.078125 7.515625 
Q 37.359375 7.515625 41.375 12.890625 
Q 45.40625 18.265625 45.40625 27.984375 
z
M 54.390625 6.78125 
Q 54.390625 -7.171875 48.1875 -13.984375 
Q 42 -20.796875 29.203125 -20.796875 
Q 24.46875 -20.796875 20.265625 -20.09375 
Q 16.0625 -19.390625 12.109375 -17.921875 
L 12.109375 -9.1875 
Q 16.0625 -11.328125 19.921875 -12.34375 
Q 23.78125 -13.375 27.78125 -13.375 
Q 36.625 -13.375 41.015625 -8.765625 
Q 45.40625 -4.15625 45.40625 5.171875 
L 45.40625 9.625 
Q 42.625 4.78125 38.28125 2.390625 
Q 33.9375 0 27.875 0 
Q 17.828125 0 11.671875 7.65625 
Q 5.515625 15.328125 5.515625 27.984375 
Q 5.515625 40.671875 11.671875 48.328125 
Q 17.828125 56 27.875 56 
Q 33.9375 56 38.28125 53.609375 
Q 42.625 51.21875 45.40625 46.390625 
L 45.40625 54.6875 
L 54.390625 54.6875 
z
" id="DejaVuSans-103"/>
      <path id="DejaVuSans-32"/>
      <path d="M 9.8125 72.90625 
L 23.09375 72.90625 
L 55.421875 11.921875 
L 55.421875 72.90625 
L 64.984375 72.90625 
L 64.984375 0 
L 51.703125 0 
L 19.390625 60.984375 
L 19.390625 0 
L 9.8125 0 
z
" id="DejaVuSans-78"/>
      <path d="M 52 44.1875 
Q 55.375 50.25 60.0625 53.125 
Q 64.75 56 71.09375 56 
Q 79.640625 56 84.28125 50.015625 
Q 88.921875 44.046875 88.921875 33.015625 
L 88.921875 0 
L 79.890625 0 
L 79.890625 32.71875 
Q 79.890625 40.578125 77.09375 44.375 
Q 74.3125 48.1875 68.609375 48.1875 
Q 61.625 48.1875 57.5625 43.546875 
Q 53.515625 38.921875 53.515625 30.90625 
L 53.515625 0 
L 44.484375 0 
L 44.484375 32.71875 
Q 44.484375 40.625 41.703125 44.40625 
Q 38.921875 48.1875 33.109375 48.1875 
Q 26.21875 48.1875 22.15625 43.53125 
Q 18.109375 38.875 18.109375 30.90625 
L 18.109375 0 
L 9.078125 0 
L 9.078125 54.6875 
L 18.109375 54.6875 
L 18.109375 46.1875 
Q 21.1875 51.21875 25.484375 53.609375 
Q 29.78125 56 35.6875 56 
Q 41.65625 56 45.828125 52.96875 
Q 50 49.953125 52 44.1875 
z
" id="DejaVuSans-109"/>
      <path d="M 48.6875 27.296875 
Q 48.6875 37.203125 44.609375 42.84375 
Q 40.53125 48.484375 33.40625 48.484375 
Q 26.265625 48.484375 22.1875 42.84375 
Q 18.109375 37.203125 18.109375 27.296875 
Q 18.109375 17.390625 22.1875 11.75 
Q 26.265625 6.109375 33.40625 6.109375 
Q 40.53125 6.109375 44.609375 11.75 
Q 48.6875 17.390625 48.6875 27.296875 
z
M 18.109375 46.390625 
Q 20.953125 51.265625 25.265625 53.625 
Q 29.59375 56 35.59375 56 
Q 45.5625 56 51.78125 48.09375 
Q 58.015625 40.1875 58.015625 27.296875 
Q 58.015625 14.40625 51.78125 6.484375 
Q 45.5625 -1.421875 35.59375 -1.421875 
Q 29.59375 -1.421875 25.265625 0.953125 
Q 20.953125 3.328125 18.109375 8.203125 
L 18.109375 0 
L 9.078125 0 
L 9.078125 75.984375 
L 18.109375 75.984375 
z
" id="DejaVuSans-98"/>
      <path d="M 56.203125 29.59375 
L 56.203125 25.203125 
L 14.890625 25.203125 
Q 15.484375 15.921875 20.484375 11.0625 
Q 25.484375 6.203125 34.421875 6.203125 
Q 39.59375 6.203125 44.453125 7.46875 
Q 49.3125 8.734375 54.109375 11.28125 
L 54.109375 2.78125 
Q 49.265625 0.734375 44.1875 -0.34375 
Q 39.109375 -1.421875 33.890625 -1.421875 
Q 20.796875 -1.421875 13.15625 6.1875 
Q 5.515625 13.8125 5.515625 26.8125 
Q 5.515625 40.234375 12.765625 48.109375 
Q 20.015625 56 32.328125 56 
Q 43.359375 56 49.78125 48.890625 
Q 56.203125 41.796875 56.203125 29.59375 
z
M 47.21875 32.234375 
Q 47.125 39.59375 43.09375 43.984375 
Q 39.0625 48.390625 32.421875 48.390625 
Q 24.90625 48.390625 20.390625 44.140625 
Q 15.875 39.890625 15.1875 32.171875 
z
" id="DejaVuSans-101"/>
      <path d="M 41.109375 46.296875 
Q 39.59375 47.171875 37.8125 47.578125 
Q 36.03125 48 33.890625 48 
Q 26.265625 48 22.1875 43.046875 
Q 18.109375 38.09375 18.109375 28.8125 
L 18.109375 0 
L 9.078125 0 
L 9.078125 54.6875 
L 18.109375 54.6875 
L 18.109375 46.1875 
Q 20.953125 51.171875 25.484375 53.578125 
Q 30.03125 56 36.53125 56 
Q 37.453125 56 38.578125 55.875 
Q 39.703125 55.765625 41.0625 55.515625 
z
" id="DejaVuSans-114"/>
     </defs>
     <g transform="translate(337.551562 379.290625)scale(0.1 -0.1)">
      <use xlink:href="#DejaVuSans-66"/>
      <use x="68.603516" xlink:href="#DejaVuSans-117"/>
      <use x="131.982422" xlink:href="#DejaVuSans-103"/>
      <use x="195.458984" xlink:href="#DejaVuSans-32"/>
      <use x="227.246094" xlink:href="#DejaVuSans-78"/>
      <use x="302.050781" xlink:href="#DejaVuSans-117"/>
      <use x="365.429688" xlink:href="#DejaVuSans-109"/>
      <use x="462.841797" xlink:href="#DejaVuSans-98"/>
      <use x="526.318359" xlink:href="#DejaVuSans-101"/>
      <use x="587.841797" xlink:href="#DejaVuSans-114"/>
     </g>
    </g>
   </g>
   <g id="matplotlib.axis_2">
    <g id="ytick_1">
     <g id="line2d_10">
      <defs>
       <path d="M 0 0 
L -3.5 0 
" id="medaa296708" style="stroke:#000000;stroke-width:0.8;"/>
      </defs>
      <g>
       <use style="stroke:#000000;stroke-width:0.8;" x="90" xlink:href="#medaa296708" y="320.4"/>
      </g>
     </g>
     <g id="text_11">
      <!-- 0 -->
      <g transform="translate(76.6375 324.199219)scale(0.1 -0.1)">
       <use xlink:href="#DejaVuSans-48"/>
      </g>
     </g>
    </g>
    <g id="ytick_2">
     <g id="line2d_11">
      <g>
       <use style="stroke:#000000;stroke-width:0.8;" x="90" xlink:href="#medaa296708" y="284.724324"/>
      </g>
     </g>
     <g id="text_12">
      <!-- 50 -->
      <g transform="translate(70.275 288.523543)scale(0.1 -0.1)">
       <use xlink:href="#DejaVuSans-53"/>
       <use x="63.623047" xlink:href="#DejaVuSans-48"/>
      </g>
     </g>
    </g>
    <g id="ytick_3">
     <g id="line2d_12">
      <g>
       <use style="stroke:#000000;stroke-width:0.8;" x="90" xlink:href="#medaa296708" y="249.048649"/>
      </g>
     </g>
     <g id="text_13">
      <!-- 100 -->
      <g transform="translate(63.9125 252.847867)scale(0.1 -0.1)">
       <use xlink:href="#DejaVuSans-49"/>
       <use x="63.623047" xlink:href="#DejaVuSans-48"/>
       <use x="127.246094" xlink:href="#DejaVuSans-48"/>
      </g>
     </g>
    </g>
    <g id="ytick_4">
     <g id="line2d_13">
      <g>
       <use style="stroke:#000000;stroke-width:0.8;" x="90" xlink:href="#medaa296708" y="213.372973"/>
      </g>
     </g>
     <g id="text_14">
      <!-- 150 -->
      <g transform="translate(63.9125 217.172192)scale(0.1 -0.1)">
       <use xlink:href="#DejaVuSans-49"/>
       <use x="63.623047" xlink:href="#DejaVuSans-53"/>
       <use x="127.246094" xlink:href="#DejaVuSans-48"/>
      </g>
     </g>
    </g>
    <g id="ytick_5">
     <g id="line2d_14">
      <g>
       <use style="stroke:#000000;stroke-width:0.8;" x="90" xlink:href="#medaa296708" y="177.697297"/>
      </g>
     </g>
     <g id="text_15">
      <!-- 200 -->
      <g transform="translate(63.9125 181.496516)scale(0.1 -0.1)">
       <use xlink:href="#DejaVuSans-50"/>
       <use x="63.623047" xlink:href="#DejaVuSans-48"/>
       <use x="127.246094" xlink:href="#DejaVuSans-48"/>
      </g>
     </g>
    </g>
    <g id="ytick_6">
     <g id="line2d_15">
      <g>
       <use style="stroke:#000000;stroke-width:0.8;" x="90" xlink:href="#medaa296708" y="142.021622"/>
      </g>
     </g>
     <g id="text_16">
      <!-- 250 -->
      <g transform="translate(63.9125 145.82084)scale(0.1 -0.1)">
       <use xlink:href="#DejaVuSans-50"/>
       <use x="63.623047" xlink:href="#DejaVuSans-53"/>
       <use x="127.246094" xlink:href="#DejaVuSans-48"/>
      </g>
     </g>
    </g>
    <g id="ytick_7">
     <g id="line2d_16">
      <g>
       <use style="stroke:#000000;stroke-width:0.8;" x="90" xlink:href="#medaa296708" y="106.345946"/>
      </g>
     </g>
     <g id="text_17">
      <!-- 300 -->
      <g transform="translate(63.9125 110.145165)scale(0.1 -0.1)">
       <use xlink:href="#DejaVuSans-51"/>
       <use x="63.623047" xlink:href="#DejaVuSans-48"/>
       <use x="127.246094" xlink:href="#DejaVuSans-48"/>
      </g>
     </g>
    </g>
    <g id="ytick_8">
     <g id="line2d_17">
      <g>
       <use style="stroke:#000000;stroke-width:0.8;" x="90" xlink:href="#medaa296708" y="70.67027"/>
      </g>
     </g>
     <g id="text_18">
      <!-- 350 -->
      <g transform="translate(63.9125 74.469489)scale(0.1 -0.1)">
       <use xlink:href="#DejaVuSans-51"/>
       <use x="63.623047" xlink:href="#DejaVuSans-53"/>
       <use x="127.246094" xlink:href="#DejaVuSans-48"/>
      </g>
     </g>
    </g>
    <g id="text_19">
     <!-- Time -->
     <defs>
      <path d="M -0.296875 72.90625 
L 61.375 72.90625 
L 61.375 64.59375 
L 35.5 64.59375 
L 35.5 0 
L 25.59375 0 
L 25.59375 64.59375 
L -0.296875 64.59375 
z
" id="DejaVuSans-84"/>
      <path d="M 9.421875 54.6875 
L 18.40625 54.6875 
L 18.40625 0 
L 9.421875 0 
z
M 9.421875 75.984375 
L 18.40625 75.984375 
L 18.40625 64.59375 
L 9.421875 64.59375 
z
" id="DejaVuSans-105"/>
     </defs>
     <g transform="translate(57.832812 194.1875)rotate(-90)scale(0.1 -0.1)">
      <use xlink:href="#DejaVuSans-84"/>
      <use x="61.037109" xlink:href="#DejaVuSans-105"/>
      <use x="88.820312" xlink:href="#DejaVuSans-109"/>
      <use x="186.232422" xlink:href="#DejaVuSans-101"/>
     </g>
    </g>
   </g>
   <g id="patch_174">
    <path d="M 90 320.4 
L 90 43.2 
" style="fill:none;stroke:#000000;stroke-linecap:square;stroke-linejoin:miter;stroke-width:0.8;"/>
   </g>
   <g id="patch_175">
    <path d="M 648 320.4 
L 648 43.2 
" style="fill:none;stroke:#000000;stroke-linecap:square;stroke-linejoin:miter;stroke-width:0.8;"/>
   </g>
   <g id="patch_176">
    <path d="M 90 320.4 
L 648 320.4 
" style="fill:none;stroke:#000000;stroke-linecap:square;stroke-linejoin:miter;stroke-width:0.8;"/>
   </g>
   <g id="patch_177">
    <path d="M 90 43.2 
L 648 43.2 
" style="fill:none;stroke:#000000;stroke-linecap:square;stroke-linejoin:miter;stroke-width:0.8;"/>
   </g>
   <g id="text_20">
    <!-- reached. Fuzzer: aflfast. Library:libxml2. For different campaigns -->
    <defs>
     <path d="M 34.28125 27.484375 
Q 23.390625 27.484375 19.1875 25 
Q 14.984375 22.515625 14.984375 16.5 
Q 14.984375 11.71875 18.140625 8.90625 
Q 21.296875 6.109375 26.703125 6.109375 
Q 34.1875 6.109375 38.703125 11.40625 
Q 43.21875 16.703125 43.21875 25.484375 
L 43.21875 27.484375 
z
M 52.203125 31.203125 
L 52.203125 0 
L 43.21875 0 
L 43.21875 8.296875 
Q 40.140625 3.328125 35.546875 0.953125 
Q 30.953125 -1.421875 24.3125 -1.421875 
Q 15.921875 -1.421875 10.953125 3.296875 
Q 6 8.015625 6 15.921875 
Q 6 25.140625 12.171875 29.828125 
Q 18.359375 34.515625 30.609375 34.515625 
L 43.21875 34.515625 
L 43.21875 35.40625 
Q 43.21875 41.609375 39.140625 45 
Q 35.0625 48.390625 27.6875 48.390625 
Q 23 48.390625 18.546875 47.265625 
Q 14.109375 46.140625 10.015625 43.890625 
L 10.015625 52.203125 
Q 14.9375 54.109375 19.578125 55.046875 
Q 24.21875 56 28.609375 56 
Q 40.484375 56 46.34375 49.84375 
Q 52.203125 43.703125 52.203125 31.203125 
z
" id="DejaVuSans-97"/>
     <path d="M 48.78125 52.59375 
L 48.78125 44.1875 
Q 44.96875 46.296875 41.140625 47.34375 
Q 37.3125 48.390625 33.40625 48.390625 
Q 24.65625 48.390625 19.8125 42.84375 
Q 14.984375 37.3125 14.984375 27.296875 
Q 14.984375 17.28125 19.8125 11.734375 
Q 24.65625 6.203125 33.40625 6.203125 
Q 37.3125 6.203125 41.140625 7.25 
Q 44.96875 8.296875 48.78125 10.40625 
L 48.78125 2.09375 
Q 45.015625 0.34375 40.984375 -0.53125 
Q 36.96875 -1.421875 32.421875 -1.421875 
Q 20.0625 -1.421875 12.78125 6.34375 
Q 5.515625 14.109375 5.515625 27.296875 
Q 5.515625 40.671875 12.859375 48.328125 
Q 20.21875 56 33.015625 56 
Q 37.15625 56 41.109375 55.140625 
Q 45.0625 54.296875 48.78125 52.59375 
z
" id="DejaVuSans-99"/>
     <path d="M 54.890625 33.015625 
L 54.890625 0 
L 45.90625 0 
L 45.90625 32.71875 
Q 45.90625 40.484375 42.875 44.328125 
Q 39.84375 48.1875 33.796875 48.1875 
Q 26.515625 48.1875 22.3125 43.546875 
Q 18.109375 38.921875 18.109375 30.90625 
L 18.109375 0 
L 9.078125 0 
L 9.078125 75.984375 
L 18.109375 75.984375 
L 18.109375 46.1875 
Q 21.34375 51.125 25.703125 53.5625 
Q 30.078125 56 35.796875 56 
Q 45.21875 56 50.046875 50.171875 
Q 54.890625 44.34375 54.890625 33.015625 
z
" id="DejaVuSans-104"/>
     <path d="M 45.40625 46.390625 
L 45.40625 75.984375 
L 54.390625 75.984375 
L 54.390625 0 
L 45.40625 0 
L 45.40625 8.203125 
Q 42.578125 3.328125 38.25 0.953125 
Q 33.9375 -1.421875 27.875 -1.421875 
Q 17.96875 -1.421875 11.734375 6.484375 
Q 5.515625 14.40625 5.515625 27.296875 
Q 5.515625 40.1875 11.734375 48.09375 
Q 17.96875 56 27.875 56 
Q 33.9375 56 38.25 53.625 
Q 42.578125 51.265625 45.40625 46.390625 
z
M 14.796875 27.296875 
Q 14.796875 17.390625 18.875 11.75 
Q 22.953125 6.109375 30.078125 6.109375 
Q 37.203125 6.109375 41.296875 11.75 
Q 45.40625 17.390625 45.40625 27.296875 
Q 45.40625 37.203125 41.296875 42.84375 
Q 37.203125 48.484375 30.078125 48.484375 
Q 22.953125 48.484375 18.875 42.84375 
Q 14.796875 37.203125 14.796875 27.296875 
z
" id="DejaVuSans-100"/>
     <path d="M 10.6875 12.40625 
L 21 12.40625 
L 21 0 
L 10.6875 0 
z
" id="DejaVuSans-46"/>
     <path d="M 9.8125 72.90625 
L 51.703125 72.90625 
L 51.703125 64.59375 
L 19.671875 64.59375 
L 19.671875 43.109375 
L 48.578125 43.109375 
L 48.578125 34.8125 
L 19.671875 34.8125 
L 19.671875 0 
L 9.8125 0 
z
" id="DejaVuSans-70"/>
     <path d="M 5.515625 54.6875 
L 48.1875 54.6875 
L 48.1875 46.484375 
L 14.40625 7.171875 
L 48.1875 7.171875 
L 48.1875 0 
L 4.296875 0 
L 4.296875 8.203125 
L 38.09375 47.515625 
L 5.515625 47.515625 
z
" id="DejaVuSans-122"/>
     <path d="M 11.71875 12.40625 
L 22.015625 12.40625 
L 22.015625 0 
L 11.71875 0 
z
M 11.71875 51.703125 
L 22.015625 51.703125 
L 22.015625 39.3125 
L 11.71875 39.3125 
z
" id="DejaVuSans-58"/>
     <path d="M 37.109375 75.984375 
L 37.109375 68.5 
L 28.515625 68.5 
Q 23.6875 68.5 21.796875 66.546875 
Q 19.921875 64.59375 19.921875 59.515625 
L 19.921875 54.6875 
L 34.71875 54.6875 
L 34.71875 47.703125 
L 19.921875 47.703125 
L 19.921875 0 
L 10.890625 0 
L 10.890625 47.703125 
L 2.296875 47.703125 
L 2.296875 54.6875 
L 10.890625 54.6875 
L 10.890625 58.5 
Q 10.890625 67.625 15.140625 71.796875 
Q 19.390625 75.984375 28.609375 75.984375 
z
" id="DejaVuSans-102"/>
     <path d="M 9.421875 75.984375 
L 18.40625 75.984375 
L 18.40625 0 
L 9.421875 0 
z
" id="DejaVuSans-108"/>
     <path d="M 44.28125 53.078125 
L 44.28125 44.578125 
Q 40.484375 46.53125 36.375 47.5 
Q 32.28125 48.484375 27.875 48.484375 
Q 21.1875 48.484375 17.84375 46.4375 
Q 14.5 44.390625 14.5 40.28125 
Q 14.5 37.15625 16.890625 35.375 
Q 19.28125 33.59375 26.515625 31.984375 
L 29.59375 31.296875 
Q 39.15625 29.25 43.1875 25.515625 
Q 47.21875 21.78125 47.21875 15.09375 
Q 47.21875 7.46875 41.1875 3.015625 
Q 35.15625 -1.421875 24.609375 -1.421875 
Q 20.21875 -1.421875 15.453125 -0.5625 
Q 10.6875 0.296875 5.421875 2 
L 5.421875 11.28125 
Q 10.40625 8.6875 15.234375 7.390625 
Q 20.0625 6.109375 24.8125 6.109375 
Q 31.15625 6.109375 34.5625 8.28125 
Q 37.984375 10.453125 37.984375 14.40625 
Q 37.984375 18.0625 35.515625 20.015625 
Q 33.0625 21.96875 24.703125 23.78125 
L 21.578125 24.515625 
Q 13.234375 26.265625 9.515625 29.90625 
Q 5.8125 33.546875 5.8125 39.890625 
Q 5.8125 47.609375 11.28125 51.796875 
Q 16.75 56 26.8125 56 
Q 31.78125 56 36.171875 55.265625 
Q 40.578125 54.546875 44.28125 53.078125 
z
" id="DejaVuSans-115"/>
     <path d="M 18.3125 70.21875 
L 18.3125 54.6875 
L 36.8125 54.6875 
L 36.8125 47.703125 
L 18.3125 47.703125 
L 18.3125 18.015625 
Q 18.3125 11.328125 20.140625 9.421875 
Q 21.96875 7.515625 27.59375 7.515625 
L 36.8125 7.515625 
L 36.8125 0 
L 27.59375 0 
Q 17.1875 0 13.234375 3.875 
Q 9.28125 7.765625 9.28125 18.015625 
L 9.28125 47.703125 
L 2.6875 47.703125 
L 2.6875 54.6875 
L 9.28125 54.6875 
L 9.28125 70.21875 
z
" id="DejaVuSans-116"/>
     <path d="M 9.8125 72.90625 
L 19.671875 72.90625 
L 19.671875 8.296875 
L 55.171875 8.296875 
L 55.171875 0 
L 9.8125 0 
z
" id="DejaVuSans-76"/>
     <path d="M 32.171875 -5.078125 
Q 28.375 -14.84375 24.75 -17.8125 
Q 21.140625 -20.796875 15.09375 -20.796875 
L 7.90625 -20.796875 
L 7.90625 -13.28125 
L 13.1875 -13.28125 
Q 16.890625 -13.28125 18.9375 -11.515625 
Q 21 -9.765625 23.484375 -3.21875 
L 25.09375 0.875 
L 2.984375 54.6875 
L 12.5 54.6875 
L 29.59375 11.921875 
L 46.6875 54.6875 
L 56.203125 54.6875 
z
" id="DejaVuSans-121"/>
     <path d="M 54.890625 54.6875 
L 35.109375 28.078125 
L 55.90625 0 
L 45.3125 0 
L 29.390625 21.484375 
L 13.484375 0 
L 2.875 0 
L 24.125 28.609375 
L 4.6875 54.6875 
L 15.28125 54.6875 
L 29.78125 35.203125 
L 44.28125 54.6875 
z
" id="DejaVuSans-120"/>
     <path d="M 30.609375 48.390625 
Q 23.390625 48.390625 19.1875 42.75 
Q 14.984375 37.109375 14.984375 27.296875 
Q 14.984375 17.484375 19.15625 11.84375 
Q 23.34375 6.203125 30.609375 6.203125 
Q 37.796875 6.203125 41.984375 11.859375 
Q 46.1875 17.53125 46.1875 27.296875 
Q 46.1875 37.015625 41.984375 42.703125 
Q 37.796875 48.390625 30.609375 48.390625 
z
M 30.609375 56 
Q 42.328125 56 49.015625 48.375 
Q 55.71875 40.765625 55.71875 27.296875 
Q 55.71875 13.875 49.015625 6.21875 
Q 42.328125 -1.421875 30.609375 -1.421875 
Q 18.84375 -1.421875 12.171875 6.21875 
Q 5.515625 13.875 5.515625 27.296875 
Q 5.515625 40.765625 12.171875 48.375 
Q 18.84375 56 30.609375 56 
z
" id="DejaVuSans-111"/>
     <path d="M 54.890625 33.015625 
L 54.890625 0 
L 45.90625 0 
L 45.90625 32.71875 
Q 45.90625 40.484375 42.875 44.328125 
Q 39.84375 48.1875 33.796875 48.1875 
Q 26.515625 48.1875 22.3125 43.546875 
Q 18.109375 38.921875 18.109375 30.90625 
L 18.109375 0 
L 9.078125 0 
L 9.078125 54.6875 
L 18.109375 54.6875 
L 18.109375 46.1875 
Q 21.34375 51.125 25.703125 53.5625 
Q 30.078125 56 35.796875 56 
Q 45.21875 56 50.046875 50.171875 
Q 54.890625 44.34375 54.890625 33.015625 
z
" id="DejaVuSans-110"/>
     <path d="M 18.109375 8.203125 
L 18.109375 -20.796875 
L 9.078125 -20.796875 
L 9.078125 54.6875 
L 18.109375 54.6875 
L 18.109375 46.390625 
Q 20.953125 51.265625 25.265625 53.625 
Q 29.59375 56 35.59375 56 
Q 45.5625 56 51.78125 48.09375 
Q 58.015625 40.1875 58.015625 27.296875 
Q 58.015625 14.40625 51.78125 6.484375 
Q 45.5625 -1.421875 35.59375 -1.421875 
Q 29.59375 -1.421875 25.265625 0.953125 
Q 20.953125 3.328125 18.109375 8.203125 
z
M 48.6875 27.296875 
Q 48.6875 37.203125 44.609375 42.84375 
Q 40.53125 48.484375 33.40625 48.484375 
Q 26.265625 48.484375 22.1875 42.84375 
Q 18.109375 37.203125 18.109375 27.296875 
Q 18.109375 17.390625 22.1875 11.75 
Q 26.265625 6.109375 33.40625 6.109375 
Q 40.53125 6.109375 44.609375 11.75 
Q 48.6875 17.390625 48.6875 27.296875 
z
" id="DejaVuSans-112"/>
    </defs>
    <g transform="translate(173.93625 37.2)scale(0.12 -0.12)">
     <use xlink:href="#DejaVuSans-114"/>
     <use x="41.082031" xlink:href="#DejaVuSans-101"/>
     <use x="102.605469" xlink:href="#DejaVuSans-97"/>
     <use x="163.884766" xlink:href="#DejaVuSans-99"/>
     <use x="218.865234" xlink:href="#DejaVuSans-104"/>
     <use x="282.244141" xlink:href="#DejaVuSans-101"/>
     <use x="343.767578" xlink:href="#DejaVuSans-100"/>
     <use x="407.244141" xlink:href="#DejaVuSans-46"/>
     <use x="439.03125" xlink:href="#DejaVuSans-32"/>
     <use x="470.818359" xlink:href="#DejaVuSans-70"/>
     <use x="528.259766" xlink:href="#DejaVuSans-117"/>
     <use x="591.638672" xlink:href="#DejaVuSans-122"/>
     <use x="644.128906" xlink:href="#DejaVuSans-122"/>
     <use x="696.619141" xlink:href="#DejaVuSans-101"/>
     <use x="758.142578" xlink:href="#DejaVuSans-114"/>
     <use x="799.240234" xlink:href="#DejaVuSans-58"/>
     <use x="832.931641" xlink:href="#DejaVuSans-32"/>
     <use x="864.71875" xlink:href="#DejaVuSans-97"/>
     <use x="925.998047" xlink:href="#DejaVuSans-102"/>
     <use x="961.203125" xlink:href="#DejaVuSans-108"/>
     <use x="988.986328" xlink:href="#DejaVuSans-102"/>
     <use x="1024.191406" xlink:href="#DejaVuSans-97"/>
     <use x="1085.470703" xlink:href="#DejaVuSans-115"/>
     <use x="1137.570312" xlink:href="#DejaVuSans-116"/>
     <use x="1176.779297" xlink:href="#DejaVuSans-46"/>
     <use x="1208.566406" xlink:href="#DejaVuSans-32"/>
     <use x="1240.353516" xlink:href="#DejaVuSans-76"/>
     <use x="1296.066406" xlink:href="#DejaVuSans-105"/>
     <use x="1323.849609" xlink:href="#DejaVuSans-98"/>
     <use x="1387.326172" xlink:href="#DejaVuSans-114"/>
     <use x="1428.439453" xlink:href="#DejaVuSans-97"/>
     <use x="1489.71875" xlink:href="#DejaVuSans-114"/>
     <use x="1530.832031" xlink:href="#DejaVuSans-121"/>
     <use x="1589.902344" xlink:href="#DejaVuSans-58"/>
     <use x="1623.59375" xlink:href="#DejaVuSans-108"/>
     <use x="1651.376953" xlink:href="#DejaVuSans-105"/>
     <use x="1679.160156" xlink:href="#DejaVuSans-98"/>
     <use x="1742.636719" xlink:href="#DejaVuSans-120"/>
     <use x="1801.816406" xlink:href="#DejaVuSans-109"/>
     <use x="1899.228516" xlink:href="#DejaVuSans-108"/>
     <use x="1927.011719" xlink:href="#DejaVuSans-50"/>
     <use x="1990.634766" xlink:href="#DejaVuSans-46"/>
     <use x="2022.421875" xlink:href="#DejaVuSans-32"/>
     <use x="2054.208984" xlink:href="#DejaVuSans-70"/>
     <use x="2111.681641" xlink:href="#DejaVuSans-111"/>
     <use x="2172.863281" xlink:href="#DejaVuSans-114"/>
     <use x="2213.976562" xlink:href="#DejaVuSans-32"/>
     <use x="2245.763672" xlink:href="#DejaVuSans-100"/>
     <use x="2309.240234" xlink:href="#DejaVuSans-105"/>
     <use x="2337.023438" xlink:href="#DejaVuSans-102"/>
     <use x="2372.228516" xlink:href="#DejaVuSans-102"/>
     <use x="2407.433594" xlink:href="#DejaVuSans-101"/>
     <use x="2468.957031" xlink:href="#DejaVuSans-114"/>
     <use x="2510.039062" xlink:href="#DejaVuSans-101"/>
     <use x="2571.5625" xlink:href="#DejaVuSans-110"/>
     <use x="2634.941406" xlink:href="#DejaVuSans-116"/>
     <use x="2674.150391" xlink:href="#DejaVuSans-32"/>
     <use x="2705.9375" xlink:href="#DejaVuSans-99"/>
     <use x="2760.917969" xlink:href="#DejaVuSans-97"/>
     <use x="2822.197266" xlink:href="#DejaVuSans-109"/>
     <use x="2919.609375" xlink:href="#DejaVuSans-112"/>
     <use x="2983.085938" xlink:href="#DejaVuSans-97"/>
     <use x="3044.365234" xlink:href="#DejaVuSans-105"/>
     <use x="3072.148438" xlink:href="#DejaVuSans-103"/>
     <use x="3135.625" xlink:href="#DejaVuSans-110"/>
     <use x="3199.003906" xlink:href="#DejaVuSans-115"/>
    </g>
   </g>
  </g>
 </g>
 <defs>
  <clipPath id="p5d09968c4d">
   <rect height="277.2" width="558" x="90" y="43.2"/>
  </clipPath>
 </defs>
</svg>
