<?xml version="1.0" encoding="utf-8" standalone="no"?>
<!DOCTYPE svg PUBLIC "-//W3C//DTD SVG 1.1//EN"
  "http://www.w3.org/Graphics/SVG/1.1/DTD/svg11.dtd">
<!-- Created with matplotlib (https://matplotlib.org/) -->
<svg height="720pt" version="1.1" viewBox="0 0 864 720" width="864pt" xmlns="http://www.w3.org/2000/svg" xmlns:xlink="http://www.w3.org/1999/xlink">
 <defs>
  <style type="text/css">
*{stroke-linecap:butt;stroke-linejoin:round;}
  </style>
 </defs>
 <g id="figure_1">
  <g id="patch_1">
   <path d="M 0 720 
L 864 720 
L 864 0 
L 0 0 
z
" style="fill:#ffffff;"/>
  </g>
  <g id="axes_1">
   <g id="patch_2">
    <path d="M 108 640.8 
L 777.6 640.8 
L 777.6 86.4 
L 108 86.4 
z
" style="fill:#ffffff;"/>
   </g>
   <g id="patch_3">
    <path clip-path="url(#pa2d64935b8)" d="M 149.85 640.8 
L 152.95 640.8 
L 152.95 262.03147 
L 149.85 262.03147 
z
" style="fill:#1f77b4;"/>
   </g>
   <g id="patch_4">
    <path clip-path="url(#pa2d64935b8)" d="M 317.25 640.8 
L 320.35 640.8 
L 320.35 575.790713 
L 317.25 575.790713 
z
" style="fill:#1f77b4;"/>
   </g>
   <g id="patch_5">
    <path clip-path="url(#pa2d64935b8)" d="M 484.65 640.8 
L 487.75 640.8 
L 487.75 637.099282 
L 484.65 637.099282 
z
" style="fill:#1f77b4;"/>
   </g>
   <g id="patch_6">
    <path clip-path="url(#pa2d64935b8)" d="M 652.05 640.8 
L 655.15 640.8 
L 655.15 557.379639 
L 652.05 557.379639 
z
" style="fill:#1f77b4;"/>
   </g>
   <g id="patch_7">
    <path clip-path="url(#pa2d64935b8)" d="M 152.95 640.8 
L 156.05 640.8 
L 156.05 289.170072 
L 152.95 289.170072 
z
" style="fill:#ff7f0e;"/>
   </g>
   <g id="patch_8">
    <path clip-path="url(#pa2d64935b8)" d="M 320.35 640.8 
L 323.45 640.8 
L 323.45 578.535413 
L 320.35 578.535413 
z
" style="fill:#ff7f0e;"/>
   </g>
   <g id="patch_9">
    <path clip-path="url(#pa2d64935b8)" d="M 487.75 640.8 
L 490.85 640.8 
L 490.85 636.544174 
L 487.75 636.544174 
z
" style="fill:#ff7f0e;"/>
   </g>
   <g id="patch_10">
    <path clip-path="url(#pa2d64935b8)" d="M 655.15 640.8 
L 658.25 640.8 
L 658.25 528.606553 
L 655.15 528.606553 
z
" style="fill:#ff7f0e;"/>
   </g>
   <g id="patch_11">
    <path clip-path="url(#pa2d64935b8)" d="M 156.05 640.8 
L 159.15 640.8 
L 159.15 320.317785 
L 156.05 320.317785 
z
" style="fill:#2ca02c;"/>
   </g>
   <g id="patch_12">
    <path clip-path="url(#pa2d64935b8)" d="M 323.45 640.8 
L 326.55 640.8 
L 326.55 584.980831 
L 323.45 584.980831 
z
" style="fill:#2ca02c;"/>
   </g>
   <g id="patch_13">
    <path clip-path="url(#pa2d64935b8)" d="M 490.85 640.8 
L 493.95 640.8 
L 493.95 637.037603 
L 490.85 637.037603 
z
" style="fill:#2ca02c;"/>
   </g>
   <g id="patch_14">
    <path clip-path="url(#pa2d64935b8)" d="M 658.25 640.8 
L 661.35 640.8 
L 661.35 640.8 
L 658.25 640.8 
z
" style="fill:#2ca02c;"/>
   </g>
   <g id="patch_15">
    <path clip-path="url(#pa2d64935b8)" d="M 159.15 640.8 
L 162.25 640.8 
L 162.25 255.185141 
L 159.15 255.185141 
z
" style="fill:#d62728;"/>
   </g>
   <g id="patch_16">
    <path clip-path="url(#pa2d64935b8)" d="M 326.55 640.8 
L 329.65 640.8 
L 329.65 575.513159 
L 326.55 575.513159 
z
" style="fill:#d62728;"/>
   </g>
   <g id="patch_17">
    <path clip-path="url(#pa2d64935b8)" d="M 493.95 640.8 
L 497.05 640.8 
L 497.05 637.006764 
L 493.95 637.006764 
z
" style="fill:#d62728;"/>
   </g>
   <g id="patch_18">
    <path clip-path="url(#pa2d64935b8)" d="M 661.35 640.8 
L 664.45 640.8 
L 664.45 640.8 
L 661.35 640.8 
z
" style="fill:#d62728;"/>
   </g>
   <g id="patch_19">
    <path clip-path="url(#pa2d64935b8)" d="M 162.25 640.8 
L 165.35 640.8 
L 165.35 218.702225 
L 162.25 218.702225 
z
" style="fill:#9467bd;"/>
   </g>
   <g id="patch_20">
    <path clip-path="url(#pa2d64935b8)" d="M 329.65 640.8 
L 332.75 640.8 
L 332.75 580.077379 
L 329.65 580.077379 
z
" style="fill:#9467bd;"/>
   </g>
   <g id="patch_21">
    <path clip-path="url(#pa2d64935b8)" d="M 497.05 640.8 
L 500.15 640.8 
L 500.15 636.605852 
L 497.05 636.605852 
z
" style="fill:#9467bd;"/>
   </g>
   <g id="patch_22">
    <path clip-path="url(#pa2d64935b8)" d="M 664.45 640.8 
L 667.55 640.8 
L 667.55 640.8 
L 664.45 640.8 
z
" style="fill:#9467bd;"/>
   </g>
   <g id="patch_23">
    <path clip-path="url(#pa2d64935b8)" d="M 165.35 640.8 
L 168.45 640.8 
L 168.45 196.405397 
L 165.35 196.405397 
z
" style="fill:#8c564b;"/>
   </g>
   <g id="patch_24">
    <path clip-path="url(#pa2d64935b8)" d="M 332.75 640.8 
L 335.85 640.8 
L 335.85 575.852392 
L 332.75 575.852392 
z
" style="fill:#8c564b;"/>
   </g>
   <g id="patch_25">
    <path clip-path="url(#pa2d64935b8)" d="M 500.15 640.8 
L 503.25 640.8 
L 503.25 637.037603 
L 500.15 637.037603 
z
" style="fill:#8c564b;"/>
   </g>
   <g id="patch_26">
    <path clip-path="url(#pa2d64935b8)" d="M 667.55 640.8 
L 670.65 640.8 
L 670.65 640.8 
L 667.55 640.8 
z
" style="fill:#8c564b;"/>
   </g>
   <g id="patch_27">
    <path clip-path="url(#pa2d64935b8)" d="M 168.45 640.8 
L 171.55 640.8 
L 171.55 307.827861 
L 168.45 307.827861 
z
" style="fill:#e377c2;"/>
   </g>
   <g id="patch_28">
    <path clip-path="url(#pa2d64935b8)" d="M 335.85 640.8 
L 338.95 640.8 
L 338.95 569.437813 
L 335.85 569.437813 
z
" style="fill:#e377c2;"/>
   </g>
   <g id="patch_29">
    <path clip-path="url(#pa2d64935b8)" d="M 503.25 640.8 
L 506.35 640.8 
L 506.35 636.605852 
L 503.25 636.605852 
z
" style="fill:#e377c2;"/>
   </g>
   <g id="patch_30">
    <path clip-path="url(#pa2d64935b8)" d="M 670.65 640.8 
L 673.75 640.8 
L 673.75 640.8 
L 670.65 640.8 
z
" style="fill:#e377c2;"/>
   </g>
   <g id="patch_31">
    <path clip-path="url(#pa2d64935b8)" d="M 171.55 640.8 
L 174.65 640.8 
L 174.65 190.36089 
L 171.55 190.36089 
z
" style="fill:#7f7f7f;"/>
   </g>
   <g id="patch_32">
    <path clip-path="url(#pa2d64935b8)" d="M 338.95 640.8 
L 342.05 640.8 
L 342.05 579.213878 
L 338.95 579.213878 
z
" style="fill:#7f7f7f;"/>
   </g>
   <g id="patch_33">
    <path clip-path="url(#pa2d64935b8)" d="M 506.35 640.8 
L 509.45 640.8 
L 509.45 636.605852 
L 506.35 636.605852 
z
" style="fill:#7f7f7f;"/>
   </g>
   <g id="patch_34">
    <path clip-path="url(#pa2d64935b8)" d="M 673.75 640.8 
L 676.85 640.8 
L 676.85 640.8 
L 673.75 640.8 
z
" style="fill:#7f7f7f;"/>
   </g>
   <g id="patch_35">
    <path clip-path="url(#pa2d64935b8)" d="M 174.65 640.8 
L 177.75 640.8 
L 177.75 640.8 
L 174.65 640.8 
z
" style="fill:#bcbd22;"/>
   </g>
   <g id="patch_36">
    <path clip-path="url(#pa2d64935b8)" d="M 342.05 640.8 
L 345.15 640.8 
L 345.15 576.160785 
L 342.05 576.160785 
z
" style="fill:#bcbd22;"/>
   </g>
   <g id="patch_37">
    <path clip-path="url(#pa2d64935b8)" d="M 509.45 640.8 
L 512.55 640.8 
L 512.55 637.068442 
L 509.45 637.068442 
z
" style="fill:#bcbd22;"/>
   </g>
   <g id="patch_38">
    <path clip-path="url(#pa2d64935b8)" d="M 676.85 640.8 
L 679.95 640.8 
L 679.95 640.8 
L 676.85 640.8 
z
" style="fill:#bcbd22;"/>
   </g>
   <g id="patch_39">
    <path clip-path="url(#pa2d64935b8)" d="M 177.75 640.8 
L 180.85 640.8 
L 180.85 640.8 
L 177.75 640.8 
z
" style="fill:#17becf;"/>
   </g>
   <g id="patch_40">
    <path clip-path="url(#pa2d64935b8)" d="M 345.15 640.8 
L 348.25 640.8 
L 348.25 575.173927 
L 345.15 575.173927 
z
" style="fill:#17becf;"/>
   </g>
   <g id="patch_41">
    <path clip-path="url(#pa2d64935b8)" d="M 512.55 640.8 
L 515.65 640.8 
L 515.65 637.099282 
L 512.55 637.099282 
z
" style="fill:#17becf;"/>
   </g>
   <g id="patch_42">
    <path clip-path="url(#pa2d64935b8)" d="M 679.95 640.8 
L 683.05 640.8 
L 683.05 640.8 
L 679.95 640.8 
z
" style="fill:#17becf;"/>
   </g>
   <g id="patch_43">
    <path clip-path="url(#pa2d64935b8)" d="M 180.85 640.8 
L 183.95 640.8 
L 183.95 640.8 
L 180.85 640.8 
z
" style="fill:#1f77b4;"/>
   </g>
   <g id="patch_44">
    <path clip-path="url(#pa2d64935b8)" d="M 348.25 640.8 
L 351.35 640.8 
L 351.35 621.001156 
L 348.25 621.001156 
z
" style="fill:#1f77b4;"/>
   </g>
   <g id="patch_45">
    <path clip-path="url(#pa2d64935b8)" d="M 515.65 640.8 
L 518.75 640.8 
L 518.75 635.310601 
L 515.65 635.310601 
z
" style="fill:#1f77b4;"/>
   </g>
   <g id="patch_46">
    <path clip-path="url(#pa2d64935b8)" d="M 683.05 640.8 
L 686.15 640.8 
L 686.15 640.8 
L 683.05 640.8 
z
" style="fill:#1f77b4;"/>
   </g>
   <g id="patch_47">
    <path clip-path="url(#pa2d64935b8)" d="M 183.95 640.8 
L 187.05 640.8 
L 187.05 640.8 
L 183.95 640.8 
z
" style="fill:#ff7f0e;"/>
   </g>
   <g id="patch_48">
    <path clip-path="url(#pa2d64935b8)" d="M 351.35 640.8 
L 354.45 640.8 
L 354.45 640.183214 
L 351.35 640.183214 
z
" style="fill:#ff7f0e;"/>
   </g>
   <g id="patch_49">
    <path clip-path="url(#pa2d64935b8)" d="M 518.75 640.8 
L 521.85 640.8 
L 521.85 634.878851 
L 518.75 634.878851 
z
" style="fill:#ff7f0e;"/>
   </g>
   <g id="patch_50">
    <path clip-path="url(#pa2d64935b8)" d="M 686.15 640.8 
L 689.25 640.8 
L 689.25 640.8 
L 686.15 640.8 
z
" style="fill:#ff7f0e;"/>
   </g>
   <g id="patch_51">
    <path clip-path="url(#pa2d64935b8)" d="M 187.05 640.8 
L 190.15 640.8 
L 190.15 640.8 
L 187.05 640.8 
z
" style="fill:#2ca02c;"/>
   </g>
   <g id="patch_52">
    <path clip-path="url(#pa2d64935b8)" d="M 354.45 640.8 
L 357.55 640.8 
L 357.55 596.113825 
L 354.45 596.113825 
z
" style="fill:#2ca02c;"/>
   </g>
   <g id="patch_53">
    <path clip-path="url(#pa2d64935b8)" d="M 521.85 640.8 
L 524.95 640.8 
L 524.95 634.940529 
L 521.85 634.940529 
z
" style="fill:#2ca02c;"/>
   </g>
   <g id="patch_54">
    <path clip-path="url(#pa2d64935b8)" d="M 689.25 640.8 
L 692.35 640.8 
L 692.35 640.8 
L 689.25 640.8 
z
" style="fill:#2ca02c;"/>
   </g>
   <g id="patch_55">
    <path clip-path="url(#pa2d64935b8)" d="M 190.15 640.8 
L 193.25 640.8 
L 193.25 640.8 
L 190.15 640.8 
z
" style="fill:#d62728;"/>
   </g>
   <g id="patch_56">
    <path clip-path="url(#pa2d64935b8)" d="M 357.55 640.8 
L 360.65 640.8 
L 360.65 633.799474 
L 357.55 633.799474 
z
" style="fill:#d62728;"/>
   </g>
   <g id="patch_57">
    <path clip-path="url(#pa2d64935b8)" d="M 524.95 640.8 
L 528.05 640.8 
L 528.05 635.37228 
L 524.95 635.37228 
z
" style="fill:#d62728;"/>
   </g>
   <g id="patch_58">
    <path clip-path="url(#pa2d64935b8)" d="M 692.35 640.8 
L 695.45 640.8 
L 695.45 640.8 
L 692.35 640.8 
z
" style="fill:#d62728;"/>
   </g>
   <g id="patch_59">
    <path clip-path="url(#pa2d64935b8)" d="M 193.25 640.8 
L 196.35 640.8 
L 196.35 640.8 
L 193.25 640.8 
z
" style="fill:#9467bd;"/>
   </g>
   <g id="patch_60">
    <path clip-path="url(#pa2d64935b8)" d="M 360.65 640.8 
L 363.75 640.8 
L 363.75 597.902506 
L 360.65 597.902506 
z
" style="fill:#9467bd;"/>
   </g>
   <g id="patch_61">
    <path clip-path="url(#pa2d64935b8)" d="M 528.05 640.8 
L 531.15 640.8 
L 531.15 635.063886 
L 528.05 635.063886 
z
" style="fill:#9467bd;"/>
   </g>
   <g id="patch_62">
    <path clip-path="url(#pa2d64935b8)" d="M 695.45 640.8 
L 698.55 640.8 
L 698.55 640.8 
L 695.45 640.8 
z
" style="fill:#9467bd;"/>
   </g>
   <g id="patch_63">
    <path clip-path="url(#pa2d64935b8)" d="M 196.35 640.8 
L 199.45 640.8 
L 199.45 640.8 
L 196.35 640.8 
z
" style="fill:#8c564b;"/>
   </g>
   <g id="patch_64">
    <path clip-path="url(#pa2d64935b8)" d="M 363.75 640.8 
L 366.85 640.8 
L 366.85 613.383844 
L 363.75 613.383844 
z
" style="fill:#8c564b;"/>
   </g>
   <g id="patch_65">
    <path clip-path="url(#pa2d64935b8)" d="M 531.15 640.8 
L 534.25 640.8 
L 534.25 634.786333 
L 531.15 634.786333 
z
" style="fill:#8c564b;"/>
   </g>
   <g id="patch_66">
    <path clip-path="url(#pa2d64935b8)" d="M 698.55 640.8 
L 701.65 640.8 
L 701.65 640.8 
L 698.55 640.8 
z
" style="fill:#8c564b;"/>
   </g>
   <g id="patch_67">
    <path clip-path="url(#pa2d64935b8)" d="M 199.45 640.8 
L 202.55 640.8 
L 202.55 640.8 
L 199.45 640.8 
z
" style="fill:#e377c2;"/>
   </g>
   <g id="patch_68">
    <path clip-path="url(#pa2d64935b8)" d="M 366.85 640.8 
L 369.95 640.8 
L 369.95 593.924233 
L 366.85 593.924233 
z
" style="fill:#e377c2;"/>
   </g>
   <g id="patch_69">
    <path clip-path="url(#pa2d64935b8)" d="M 534.25 640.8 
L 537.35 640.8 
L 537.35 634.971368 
L 534.25 634.971368 
z
" style="fill:#e377c2;"/>
   </g>
   <g id="patch_70">
    <path clip-path="url(#pa2d64935b8)" d="M 701.65 640.8 
L 704.75 640.8 
L 704.75 640.8 
L 701.65 640.8 
z
" style="fill:#e377c2;"/>
   </g>
   <g id="patch_71">
    <path clip-path="url(#pa2d64935b8)" d="M 202.55 640.8 
L 205.65 640.8 
L 205.65 640.8 
L 202.55 640.8 
z
" style="fill:#7f7f7f;"/>
   </g>
   <g id="patch_72">
    <path clip-path="url(#pa2d64935b8)" d="M 369.95 640.8 
L 373.05 640.8 
L 373.05 597.871666 
L 369.95 597.871666 
z
" style="fill:#7f7f7f;"/>
   </g>
   <g id="patch_73">
    <path clip-path="url(#pa2d64935b8)" d="M 537.35 640.8 
L 540.45 640.8 
L 540.45 635.094726 
L 537.35 635.094726 
z
" style="fill:#7f7f7f;"/>
   </g>
   <g id="patch_74">
    <path clip-path="url(#pa2d64935b8)" d="M 704.75 640.8 
L 707.85 640.8 
L 707.85 640.8 
L 704.75 640.8 
z
" style="fill:#7f7f7f;"/>
   </g>
   <g id="patch_75">
    <path clip-path="url(#pa2d64935b8)" d="M 205.65 640.8 
L 208.75 640.8 
L 208.75 640.8 
L 205.65 640.8 
z
" style="fill:#bcbd22;"/>
   </g>
   <g id="patch_76">
    <path clip-path="url(#pa2d64935b8)" d="M 373.05 640.8 
L 376.15 640.8 
L 376.15 112.8 
L 373.05 112.8 
z
" style="fill:#bcbd22;"/>
   </g>
   <g id="patch_77">
    <path clip-path="url(#pa2d64935b8)" d="M 540.45 640.8 
L 543.55 640.8 
L 543.55 635.218083 
L 540.45 635.218083 
z
" style="fill:#bcbd22;"/>
   </g>
   <g id="patch_78">
    <path clip-path="url(#pa2d64935b8)" d="M 707.85 640.8 
L 710.95 640.8 
L 710.95 640.8 
L 707.85 640.8 
z
" style="fill:#bcbd22;"/>
   </g>
   <g id="patch_79">
    <path clip-path="url(#pa2d64935b8)" d="M 208.75 640.8 
L 211.85 640.8 
L 211.85 640.8 
L 208.75 640.8 
z
" style="fill:#17becf;"/>
   </g>
   <g id="patch_80">
    <path clip-path="url(#pa2d64935b8)" d="M 376.15 640.8 
L 379.25 640.8 
L 379.25 201.092974 
L 376.15 201.092974 
z
" style="fill:#17becf;"/>
   </g>
   <g id="patch_81">
    <path clip-path="url(#pa2d64935b8)" d="M 543.55 640.8 
L 546.65 640.8 
L 546.65 635.310601 
L 543.55 635.310601 
z
" style="fill:#17becf;"/>
   </g>
   <g id="patch_82">
    <path clip-path="url(#pa2d64935b8)" d="M 710.95 640.8 
L 714.05 640.8 
L 714.05 640.8 
L 710.95 640.8 
z
" style="fill:#17becf;"/>
   </g>
   <g id="patch_83">
    <path clip-path="url(#pa2d64935b8)" d="M 211.85 640.8 
L 214.95 640.8 
L 214.95 640.8 
L 211.85 640.8 
z
" style="fill:#1f77b4;"/>
   </g>
   <g id="patch_84">
    <path clip-path="url(#pa2d64935b8)" d="M 379.25 640.8 
L 382.35 640.8 
L 382.35 211.855896 
L 379.25 211.855896 
z
" style="fill:#1f77b4;"/>
   </g>
   <g id="patch_85">
    <path clip-path="url(#pa2d64935b8)" d="M 546.65 640.8 
L 549.75 640.8 
L 549.75 640.8 
L 546.65 640.8 
z
" style="fill:#1f77b4;"/>
   </g>
   <g id="patch_86">
    <path clip-path="url(#pa2d64935b8)" d="M 714.05 640.8 
L 717.15 640.8 
L 717.15 640.8 
L 714.05 640.8 
z
" style="fill:#1f77b4;"/>
   </g>
   <g id="patch_87">
    <path clip-path="url(#pa2d64935b8)" d="M 214.95 640.8 
L 218.05 640.8 
L 218.05 640.8 
L 214.95 640.8 
z
" style="fill:#ff7f0e;"/>
   </g>
   <g id="patch_88">
    <path clip-path="url(#pa2d64935b8)" d="M 382.35 640.8 
L 385.45 640.8 
L 385.45 166.028667 
L 382.35 166.028667 
z
" style="fill:#ff7f0e;"/>
   </g>
   <g id="patch_89">
    <path clip-path="url(#pa2d64935b8)" d="M 549.75 640.8 
L 552.85 640.8 
L 552.85 640.8 
L 549.75 640.8 
z
" style="fill:#ff7f0e;"/>
   </g>
   <g id="patch_90">
    <path clip-path="url(#pa2d64935b8)" d="M 717.15 640.8 
L 720.25 640.8 
L 720.25 640.8 
L 717.15 640.8 
z
" style="fill:#ff7f0e;"/>
   </g>
   <g id="patch_91">
    <path clip-path="url(#pa2d64935b8)" d="M 218.05 640.8 
L 221.15 640.8 
L 221.15 640.8 
L 218.05 640.8 
z
" style="fill:#2ca02c;"/>
   </g>
   <g id="patch_92">
    <path clip-path="url(#pa2d64935b8)" d="M 385.45 640.8 
L 388.55 640.8 
L 388.55 573.786157 
L 385.45 573.786157 
z
" style="fill:#2ca02c;"/>
   </g>
   <g id="patch_93">
    <path clip-path="url(#pa2d64935b8)" d="M 552.85 640.8 
L 555.95 640.8 
L 555.95 640.8 
L 552.85 640.8 
z
" style="fill:#2ca02c;"/>
   </g>
   <g id="patch_94">
    <path clip-path="url(#pa2d64935b8)" d="M 720.25 640.8 
L 723.35 640.8 
L 723.35 640.8 
L 720.25 640.8 
z
" style="fill:#2ca02c;"/>
   </g>
   <g id="patch_95">
    <path clip-path="url(#pa2d64935b8)" d="M 221.15 640.8 
L 224.25 640.8 
L 224.25 640.8 
L 221.15 640.8 
z
" style="fill:#d62728;"/>
   </g>
   <g id="patch_96">
    <path clip-path="url(#pa2d64935b8)" d="M 388.55 640.8 
L 391.65 640.8 
L 391.65 257.374733 
L 388.55 257.374733 
z
" style="fill:#d62728;"/>
   </g>
   <g id="patch_97">
    <path clip-path="url(#pa2d64935b8)" d="M 555.95 640.8 
L 559.05 640.8 
L 559.05 640.8 
L 555.95 640.8 
z
" style="fill:#d62728;"/>
   </g>
   <g id="patch_98">
    <path clip-path="url(#pa2d64935b8)" d="M 723.35 640.8 
L 726.45 640.8 
L 726.45 640.8 
L 723.35 640.8 
z
" style="fill:#d62728;"/>
   </g>
   <g id="patch_99">
    <path clip-path="url(#pa2d64935b8)" d="M 224.25 640.8 
L 227.35 640.8 
L 227.35 640.8 
L 224.25 640.8 
z
" style="fill:#9467bd;"/>
   </g>
   <g id="patch_100">
    <path clip-path="url(#pa2d64935b8)" d="M 391.65 640.8 
L 394.75 640.8 
L 394.75 256.295357 
L 391.65 256.295357 
z
" style="fill:#9467bd;"/>
   </g>
   <g id="patch_101">
    <path clip-path="url(#pa2d64935b8)" d="M 559.05 640.8 
L 562.15 640.8 
L 562.15 640.8 
L 559.05 640.8 
z
" style="fill:#9467bd;"/>
   </g>
   <g id="patch_102">
    <path clip-path="url(#pa2d64935b8)" d="M 726.45 640.8 
L 729.55 640.8 
L 729.55 640.8 
L 726.45 640.8 
z
" style="fill:#9467bd;"/>
   </g>
   <g id="patch_103">
    <path clip-path="url(#pa2d64935b8)" d="M 227.35 640.8 
L 230.45 640.8 
L 230.45 640.8 
L 227.35 640.8 
z
" style="fill:#8c564b;"/>
   </g>
   <g id="patch_104">
    <path clip-path="url(#pa2d64935b8)" d="M 394.75 640.8 
L 397.85 640.8 
L 397.85 514.790538 
L 394.75 514.790538 
z
" style="fill:#8c564b;"/>
   </g>
   <g id="patch_105">
    <path clip-path="url(#pa2d64935b8)" d="M 562.15 640.8 
L 565.25 640.8 
L 565.25 640.8 
L 562.15 640.8 
z
" style="fill:#8c564b;"/>
   </g>
   <g id="patch_106">
    <path clip-path="url(#pa2d64935b8)" d="M 729.55 640.8 
L 732.65 640.8 
L 732.65 640.8 
L 729.55 640.8 
z
" style="fill:#8c564b;"/>
   </g>
   <g id="patch_107">
    <path clip-path="url(#pa2d64935b8)" d="M 230.45 640.8 
L 233.55 640.8 
L 233.55 640.8 
L 230.45 640.8 
z
" style="fill:#e377c2;"/>
   </g>
   <g id="patch_108">
    <path clip-path="url(#pa2d64935b8)" d="M 397.85 640.8 
L 400.95 640.8 
L 400.95 202.480743 
L 397.85 202.480743 
z
" style="fill:#e377c2;"/>
   </g>
   <g id="patch_109">
    <path clip-path="url(#pa2d64935b8)" d="M 565.25 640.8 
L 568.35 640.8 
L 568.35 640.8 
L 565.25 640.8 
z
" style="fill:#e377c2;"/>
   </g>
   <g id="patch_110">
    <path clip-path="url(#pa2d64935b8)" d="M 732.65 640.8 
L 735.75 640.8 
L 735.75 640.8 
L 732.65 640.8 
z
" style="fill:#e377c2;"/>
   </g>
   <g id="matplotlib.axis_1">
    <g id="xtick_1">
     <g id="line2d_1">
      <defs>
       <path d="M 0 0 
L 0 3.5 
" id="m360f97f4ed" style="stroke:#000000;stroke-width:0.8;"/>
      </defs>
      <g>
       <use style="stroke:#000000;stroke-width:0.8;" x="191.7" xlink:href="#m360f97f4ed" y="640.8"/>
      </g>
     </g>
     <g id="text_1">
      <!-- MAE115 -->
      <defs>
       <path d="M 9.8125 72.90625 
L 24.515625 72.90625 
L 43.109375 23.296875 
L 61.8125 72.90625 
L 76.515625 72.90625 
L 76.515625 0 
L 66.890625 0 
L 66.890625 64.015625 
L 48.09375 14.015625 
L 38.1875 14.015625 
L 19.390625 64.015625 
L 19.390625 0 
L 9.8125 0 
z
" id="DejaVuSans-77"/>
       <path d="M 34.1875 63.1875 
L 20.796875 26.90625 
L 47.609375 26.90625 
z
M 28.609375 72.90625 
L 39.796875 72.90625 
L 67.578125 0 
L 57.328125 0 
L 50.6875 18.703125 
L 17.828125 18.703125 
L 11.1875 0 
L 0.78125 0 
z
" id="DejaVuSans-65"/>
       <path d="M 9.8125 72.90625 
L 55.90625 72.90625 
L 55.90625 64.59375 
L 19.671875 64.59375 
L 19.671875 43.015625 
L 54.390625 43.015625 
L 54.390625 34.71875 
L 19.671875 34.71875 
L 19.671875 8.296875 
L 56.78125 8.296875 
L 56.78125 0 
L 9.8125 0 
z
" id="DejaVuSans-69"/>
       <path d="M 12.40625 8.296875 
L 28.515625 8.296875 
L 28.515625 63.921875 
L 10.984375 60.40625 
L 10.984375 69.390625 
L 28.421875 72.90625 
L 38.28125 72.90625 
L 38.28125 8.296875 
L 54.390625 8.296875 
L 54.390625 0 
L 12.40625 0 
z
" id="DejaVuSans-49"/>
       <path d="M 10.796875 72.90625 
L 49.515625 72.90625 
L 49.515625 64.59375 
L 19.828125 64.59375 
L 19.828125 46.734375 
Q 21.96875 47.46875 24.109375 47.828125 
Q 26.265625 48.1875 28.421875 48.1875 
Q 40.625 48.1875 47.75 41.5 
Q 54.890625 34.8125 54.890625 23.390625 
Q 54.890625 11.625 47.5625 5.09375 
Q 40.234375 -1.421875 26.90625 -1.421875 
Q 22.3125 -1.421875 17.546875 -0.640625 
Q 12.796875 0.140625 7.71875 1.703125 
L 7.71875 11.625 
Q 12.109375 9.234375 16.796875 8.0625 
Q 21.484375 6.890625 26.703125 6.890625 
Q 35.15625 6.890625 40.078125 11.328125 
Q 45.015625 15.765625 45.015625 23.390625 
Q 45.015625 31 40.078125 35.4375 
Q 35.15625 39.890625 26.703125 39.890625 
Q 22.75 39.890625 18.8125 39.015625 
Q 14.890625 38.140625 10.796875 36.28125 
z
" id="DejaVuSans-53"/>
      </defs>
      <g transform="translate(194.459375 688.675)rotate(-90)scale(0.1 -0.1)">
       <use xlink:href="#DejaVuSans-77"/>
       <use x="86.279297" xlink:href="#DejaVuSans-65"/>
       <use x="154.6875" xlink:href="#DejaVuSans-69"/>
       <use x="217.871094" xlink:href="#DejaVuSans-49"/>
       <use x="281.494141" xlink:href="#DejaVuSans-49"/>
       <use x="345.117188" xlink:href="#DejaVuSans-53"/>
      </g>
     </g>
    </g>
    <g id="xtick_2">
     <g id="line2d_2">
      <g>
       <use style="stroke:#000000;stroke-width:0.8;" x="359.1" xlink:href="#m360f97f4ed" y="640.8"/>
      </g>
     </g>
     <g id="text_2">
      <!-- AAH055 -->
      <defs>
       <path d="M 9.8125 72.90625 
L 19.671875 72.90625 
L 19.671875 43.015625 
L 55.515625 43.015625 
L 55.515625 72.90625 
L 65.375 72.90625 
L 65.375 0 
L 55.515625 0 
L 55.515625 34.71875 
L 19.671875 34.71875 
L 19.671875 0 
L 9.8125 0 
z
" id="DejaVuSans-72"/>
       <path d="M 31.78125 66.40625 
Q 24.171875 66.40625 20.328125 58.90625 
Q 16.5 51.421875 16.5 36.375 
Q 16.5 21.390625 20.328125 13.890625 
Q 24.171875 6.390625 31.78125 6.390625 
Q 39.453125 6.390625 43.28125 13.890625 
Q 47.125 21.390625 47.125 36.375 
Q 47.125 51.421875 43.28125 58.90625 
Q 39.453125 66.40625 31.78125 66.40625 
z
M 31.78125 74.21875 
Q 44.046875 74.21875 50.515625 64.515625 
Q 56.984375 54.828125 56.984375 36.375 
Q 56.984375 17.96875 50.515625 8.265625 
Q 44.046875 -1.421875 31.78125 -1.421875 
Q 19.53125 -1.421875 13.0625 8.265625 
Q 6.59375 17.96875 6.59375 36.375 
Q 6.59375 54.828125 13.0625 64.515625 
Q 19.53125 74.21875 31.78125 74.21875 
z
" id="DejaVuSans-48"/>
      </defs>
      <g transform="translate(361.859375 688.092188)rotate(-90)scale(0.1 -0.1)">
       <use xlink:href="#DejaVuSans-65"/>
       <use x="68.439453" xlink:href="#DejaVuSans-65"/>
       <use x="136.847656" xlink:href="#DejaVuSans-72"/>
       <use x="212.042969" xlink:href="#DejaVuSans-48"/>
       <use x="275.666016" xlink:href="#DejaVuSans-53"/>
       <use x="339.289062" xlink:href="#DejaVuSans-53"/>
      </g>
     </g>
    </g>
    <g id="xtick_3">
     <g id="line2d_3">
      <g>
       <use style="stroke:#000000;stroke-width:0.8;" x="526.5" xlink:href="#m360f97f4ed" y="640.8"/>
      </g>
     </g>
     <g id="text_3">
      <!-- AAH056 -->
      <defs>
       <path d="M 33.015625 40.375 
Q 26.375 40.375 22.484375 35.828125 
Q 18.609375 31.296875 18.609375 23.390625 
Q 18.609375 15.53125 22.484375 10.953125 
Q 26.375 6.390625 33.015625 6.390625 
Q 39.65625 6.390625 43.53125 10.953125 
Q 47.40625 15.53125 47.40625 23.390625 
Q 47.40625 31.296875 43.53125 35.828125 
Q 39.65625 40.375 33.015625 40.375 
z
M 52.59375 71.296875 
L 52.59375 62.3125 
Q 48.875 64.0625 45.09375 64.984375 
Q 41.3125 65.921875 37.59375 65.921875 
Q 27.828125 65.921875 22.671875 59.328125 
Q 17.53125 52.734375 16.796875 39.40625 
Q 19.671875 43.65625 24.015625 45.921875 
Q 28.375 48.1875 33.59375 48.1875 
Q 44.578125 48.1875 50.953125 41.515625 
Q 57.328125 34.859375 57.328125 23.390625 
Q 57.328125 12.15625 50.6875 5.359375 
Q 44.046875 -1.421875 33.015625 -1.421875 
Q 20.359375 -1.421875 13.671875 8.265625 
Q 6.984375 17.96875 6.984375 36.375 
Q 6.984375 53.65625 15.1875 63.9375 
Q 23.390625 74.21875 37.203125 74.21875 
Q 40.921875 74.21875 44.703125 73.484375 
Q 48.484375 72.75 52.59375 71.296875 
z
" id="DejaVuSans-54"/>
      </defs>
      <g transform="translate(529.259375 688.092188)rotate(-90)scale(0.1 -0.1)">
       <use xlink:href="#DejaVuSans-65"/>
       <use x="68.439453" xlink:href="#DejaVuSans-65"/>
       <use x="136.847656" xlink:href="#DejaVuSans-72"/>
       <use x="212.042969" xlink:href="#DejaVuSans-48"/>
       <use x="275.666016" xlink:href="#DejaVuSans-53"/>
       <use x="339.289062" xlink:href="#DejaVuSans-54"/>
      </g>
     </g>
    </g>
    <g id="xtick_4">
     <g id="line2d_4">
      <g>
       <use style="stroke:#000000;stroke-width:0.8;" x="693.9" xlink:href="#m360f97f4ed" y="640.8"/>
      </g>
     </g>
     <g id="text_4">
      <!-- MAE104 -->
      <defs>
       <path d="M 37.796875 64.3125 
L 12.890625 25.390625 
L 37.796875 25.390625 
z
M 35.203125 72.90625 
L 47.609375 72.90625 
L 47.609375 25.390625 
L 58.015625 25.390625 
L 58.015625 17.1875 
L 47.609375 17.1875 
L 47.609375 0 
L 37.796875 0 
L 37.796875 17.1875 
L 4.890625 17.1875 
L 4.890625 26.703125 
z
" id="DejaVuSans-52"/>
      </defs>
      <g transform="translate(696.659375 688.675)rotate(-90)scale(0.1 -0.1)">
       <use xlink:href="#DejaVuSans-77"/>
       <use x="86.279297" xlink:href="#DejaVuSans-65"/>
       <use x="154.6875" xlink:href="#DejaVuSans-69"/>
       <use x="217.871094" xlink:href="#DejaVuSans-49"/>
       <use x="281.494141" xlink:href="#DejaVuSans-48"/>
       <use x="345.117188" xlink:href="#DejaVuSans-52"/>
      </g>
     </g>
    </g>
    <g id="text_5">
     <!-- Bug Number -->
     <defs>
      <path d="M 19.671875 34.8125 
L 19.671875 8.109375 
L 35.5 8.109375 
Q 43.453125 8.109375 47.28125 11.40625 
Q 51.125 14.703125 51.125 21.484375 
Q 51.125 28.328125 47.28125 31.5625 
Q 43.453125 34.8125 35.5 34.8125 
z
M 19.671875 64.796875 
L 19.671875 42.828125 
L 34.28125 42.828125 
Q 41.5 42.828125 45.03125 45.53125 
Q 48.578125 48.25 48.578125 53.8125 
Q 48.578125 59.328125 45.03125 62.0625 
Q 41.5 64.796875 34.28125 64.796875 
z
M 9.8125 72.90625 
L 35.015625 72.90625 
Q 46.296875 72.90625 52.390625 68.21875 
Q 58.5 63.53125 58.5 54.890625 
Q 58.5 48.1875 55.375 44.234375 
Q 52.25 40.28125 46.1875 39.3125 
Q 53.46875 37.75 57.5 32.78125 
Q 61.53125 27.828125 61.53125 20.40625 
Q 61.53125 10.640625 54.890625 5.3125 
Q 48.25 0 35.984375 0 
L 9.8125 0 
z
" id="DejaVuSans-66"/>
      <path d="M 8.5 21.578125 
L 8.5 54.6875 
L 17.484375 54.6875 
L 17.484375 21.921875 
Q 17.484375 14.15625 20.5 10.265625 
Q 23.53125 6.390625 29.59375 6.390625 
Q 36.859375 6.390625 41.078125 11.03125 
Q 45.3125 15.671875 45.3125 23.6875 
L 45.3125 54.6875 
L 54.296875 54.6875 
L 54.296875 0 
L 45.3125 0 
L 45.3125 8.40625 
Q 42.046875 3.421875 37.71875 1 
Q 33.40625 -1.421875 27.6875 -1.421875 
Q 18.265625 -1.421875 13.375 4.4375 
Q 8.5 10.296875 8.5 21.578125 
z
M 31.109375 56 
z
" id="DejaVuSans-117"/>
      <path d="M 45.40625 27.984375 
Q 45.40625 37.75 41.375 43.109375 
Q 37.359375 48.484375 30.078125 48.484375 
Q 22.859375 48.484375 18.828125 43.109375 
Q 14.796875 37.75 14.796875 27.984375 
Q 14.796875 18.265625 18.828125 12.890625 
Q 22.859375 7.515625 30.078125 7.515625 
Q 37.359375 7.515625 41.375 12.890625 
Q 45.40625 18.265625 45.40625 27.984375 
z
M 54.390625 6.78125 
Q 54.390625 -7.171875 48.1875 -13.984375 
Q 42 -20.796875 29.203125 -20.796875 
Q 24.46875 -20.796875 20.265625 -20.09375 
Q 16.0625 -19.390625 12.109375 -17.921875 
L 12.109375 -9.1875 
Q 16.0625 -11.328125 19.921875 -12.34375 
Q 23.78125 -13.375 27.78125 -13.375 
Q 36.625 -13.375 41.015625 -8.765625 
Q 45.40625 -4.15625 45.40625 5.171875 
L 45.40625 9.625 
Q 42.625 4.78125 38.28125 2.390625 
Q 33.9375 0 27.875 0 
Q 17.828125 0 11.671875 7.65625 
Q 5.515625 15.328125 5.515625 27.984375 
Q 5.515625 40.671875 11.671875 48.328125 
Q 17.828125 56 27.875 56 
Q 33.9375 56 38.28125 53.609375 
Q 42.625 51.21875 45.40625 46.390625 
L 45.40625 54.6875 
L 54.390625 54.6875 
z
" id="DejaVuSans-103"/>
      <path id="DejaVuSans-32"/>
      <path d="M 9.8125 72.90625 
L 23.09375 72.90625 
L 55.421875 11.921875 
L 55.421875 72.90625 
L 64.984375 72.90625 
L 64.984375 0 
L 51.703125 0 
L 19.390625 60.984375 
L 19.390625 0 
L 9.8125 0 
z
" id="DejaVuSans-78"/>
      <path d="M 52 44.1875 
Q 55.375 50.25 60.0625 53.125 
Q 64.75 56 71.09375 56 
Q 79.640625 56 84.28125 50.015625 
Q 88.921875 44.046875 88.921875 33.015625 
L 88.921875 0 
L 79.890625 0 
L 79.890625 32.71875 
Q 79.890625 40.578125 77.09375 44.375 
Q 74.3125 48.1875 68.609375 48.1875 
Q 61.625 48.1875 57.5625 43.546875 
Q 53.515625 38.921875 53.515625 30.90625 
L 53.515625 0 
L 44.484375 0 
L 44.484375 32.71875 
Q 44.484375 40.625 41.703125 44.40625 
Q 38.921875 48.1875 33.109375 48.1875 
Q 26.21875 48.1875 22.15625 43.53125 
Q 18.109375 38.875 18.109375 30.90625 
L 18.109375 0 
L 9.078125 0 
L 9.078125 54.6875 
L 18.109375 54.6875 
L 18.109375 46.1875 
Q 21.1875 51.21875 25.484375 53.609375 
Q 29.78125 56 35.6875 56 
Q 41.65625 56 45.828125 52.96875 
Q 50 49.953125 52 44.1875 
z
" id="DejaVuSans-109"/>
      <path d="M 48.6875 27.296875 
Q 48.6875 37.203125 44.609375 42.84375 
Q 40.53125 48.484375 33.40625 48.484375 
Q 26.265625 48.484375 22.1875 42.84375 
Q 18.109375 37.203125 18.109375 27.296875 
Q 18.109375 17.390625 22.1875 11.75 
Q 26.265625 6.109375 33.40625 6.109375 
Q 40.53125 6.109375 44.609375 11.75 
Q 48.6875 17.390625 48.6875 27.296875 
z
M 18.109375 46.390625 
Q 20.953125 51.265625 25.265625 53.625 
Q 29.59375 56 35.59375 56 
Q 45.5625 56 51.78125 48.09375 
Q 58.015625 40.1875 58.015625 27.296875 
Q 58.015625 14.40625 51.78125 6.484375 
Q 45.5625 -1.421875 35.59375 -1.421875 
Q 29.59375 -1.421875 25.265625 0.953125 
Q 20.953125 3.328125 18.109375 8.203125 
L 18.109375 0 
L 9.078125 0 
L 9.078125 75.984375 
L 18.109375 75.984375 
z
" id="DejaVuSans-98"/>
      <path d="M 56.203125 29.59375 
L 56.203125 25.203125 
L 14.890625 25.203125 
Q 15.484375 15.921875 20.484375 11.0625 
Q 25.484375 6.203125 34.421875 6.203125 
Q 39.59375 6.203125 44.453125 7.46875 
Q 49.3125 8.734375 54.109375 11.28125 
L 54.109375 2.78125 
Q 49.265625 0.734375 44.1875 -0.34375 
Q 39.109375 -1.421875 33.890625 -1.421875 
Q 20.796875 -1.421875 13.15625 6.1875 
Q 5.515625 13.8125 5.515625 26.8125 
Q 5.515625 40.234375 12.765625 48.109375 
Q 20.015625 56 32.328125 56 
Q 43.359375 56 49.78125 48.890625 
Q 56.203125 41.796875 56.203125 29.59375 
z
M 47.21875 32.234375 
Q 47.125 39.59375 43.09375 43.984375 
Q 39.0625 48.390625 32.421875 48.390625 
Q 24.90625 48.390625 20.390625 44.140625 
Q 15.875 39.890625 15.1875 32.171875 
z
" id="DejaVuSans-101"/>
      <path d="M 41.109375 46.296875 
Q 39.59375 47.171875 37.8125 47.578125 
Q 36.03125 48 33.890625 48 
Q 26.265625 48 22.1875 43.046875 
Q 18.109375 38.09375 18.109375 28.8125 
L 18.109375 0 
L 9.078125 0 
L 9.078125 54.6875 
L 18.109375 54.6875 
L 18.109375 46.1875 
Q 20.953125 51.171875 25.484375 53.578125 
Q 30.03125 56 36.53125 56 
Q 37.453125 56 38.578125 55.875 
Q 39.703125 55.765625 41.0625 55.515625 
z
" id="DejaVuSans-114"/>
     </defs>
     <g transform="translate(411.351562 700.273438)scale(0.1 -0.1)">
      <use xlink:href="#DejaVuSans-66"/>
      <use x="68.603516" xlink:href="#DejaVuSans-117"/>
      <use x="131.982422" xlink:href="#DejaVuSans-103"/>
      <use x="195.458984" xlink:href="#DejaVuSans-32"/>
      <use x="227.246094" xlink:href="#DejaVuSans-78"/>
      <use x="302.050781" xlink:href="#DejaVuSans-117"/>
      <use x="365.429688" xlink:href="#DejaVuSans-109"/>
      <use x="462.841797" xlink:href="#DejaVuSans-98"/>
      <use x="526.318359" xlink:href="#DejaVuSans-101"/>
      <use x="587.841797" xlink:href="#DejaVuSans-114"/>
     </g>
    </g>
   </g>
   <g id="matplotlib.axis_2">
    <g id="ytick_1">
     <g id="line2d_5">
      <defs>
       <path d="M 0 0 
L -3.5 0 
" id="mc38e2b5294" style="stroke:#000000;stroke-width:0.8;"/>
      </defs>
      <g>
       <use style="stroke:#000000;stroke-width:0.8;" x="108" xlink:href="#mc38e2b5294" y="640.8"/>
      </g>
     </g>
     <g id="text_6">
      <!-- 0 -->
      <g transform="translate(94.6375 644.599219)scale(0.1 -0.1)">
       <use xlink:href="#DejaVuSans-48"/>
      </g>
     </g>
    </g>
    <g id="ytick_2">
     <g id="line2d_6">
      <g>
       <use style="stroke:#000000;stroke-width:0.8;" x="108" xlink:href="#mc38e2b5294" y="579.12136"/>
      </g>
     </g>
     <g id="text_7">
      <!-- 10000 -->
      <g transform="translate(69.1875 582.920578)scale(0.1 -0.1)">
       <use xlink:href="#DejaVuSans-49"/>
       <use x="63.623047" xlink:href="#DejaVuSans-48"/>
       <use x="127.246094" xlink:href="#DejaVuSans-48"/>
       <use x="190.869141" xlink:href="#DejaVuSans-48"/>
       <use x="254.492188" xlink:href="#DejaVuSans-48"/>
      </g>
     </g>
    </g>
    <g id="ytick_3">
     <g id="line2d_7">
      <g>
       <use style="stroke:#000000;stroke-width:0.8;" x="108" xlink:href="#mc38e2b5294" y="517.442719"/>
      </g>
     </g>
     <g id="text_8">
      <!-- 20000 -->
      <defs>
       <path d="M 19.1875 8.296875 
L 53.609375 8.296875 
L 53.609375 0 
L 7.328125 0 
L 7.328125 8.296875 
Q 12.9375 14.109375 22.625 23.890625 
Q 32.328125 33.6875 34.8125 36.53125 
Q 39.546875 41.84375 41.421875 45.53125 
Q 43.3125 49.21875 43.3125 52.78125 
Q 43.3125 58.59375 39.234375 62.25 
Q 35.15625 65.921875 28.609375 65.921875 
Q 23.96875 65.921875 18.8125 64.3125 
Q 13.671875 62.703125 7.8125 59.421875 
L 7.8125 69.390625 
Q 13.765625 71.78125 18.9375 73 
Q 24.125 74.21875 28.421875 74.21875 
Q 39.75 74.21875 46.484375 68.546875 
Q 53.21875 62.890625 53.21875 53.421875 
Q 53.21875 48.921875 51.53125 44.890625 
Q 49.859375 40.875 45.40625 35.40625 
Q 44.1875 33.984375 37.640625 27.21875 
Q 31.109375 20.453125 19.1875 8.296875 
z
" id="DejaVuSans-50"/>
      </defs>
      <g transform="translate(69.1875 521.241938)scale(0.1 -0.1)">
       <use xlink:href="#DejaVuSans-50"/>
       <use x="63.623047" xlink:href="#DejaVuSans-48"/>
       <use x="127.246094" xlink:href="#DejaVuSans-48"/>
       <use x="190.869141" xlink:href="#DejaVuSans-48"/>
       <use x="254.492188" xlink:href="#DejaVuSans-48"/>
      </g>
     </g>
    </g>
    <g id="ytick_4">
     <g id="line2d_8">
      <g>
       <use style="stroke:#000000;stroke-width:0.8;" x="108" xlink:href="#mc38e2b5294" y="455.764079"/>
      </g>
     </g>
     <g id="text_9">
      <!-- 30000 -->
      <defs>
       <path d="M 40.578125 39.3125 
Q 47.65625 37.796875 51.625 33 
Q 55.609375 28.21875 55.609375 21.1875 
Q 55.609375 10.40625 48.1875 4.484375 
Q 40.765625 -1.421875 27.09375 -1.421875 
Q 22.515625 -1.421875 17.65625 -0.515625 
Q 12.796875 0.390625 7.625 2.203125 
L 7.625 11.71875 
Q 11.71875 9.328125 16.59375 8.109375 
Q 21.484375 6.890625 26.8125 6.890625 
Q 36.078125 6.890625 40.9375 10.546875 
Q 45.796875 14.203125 45.796875 21.1875 
Q 45.796875 27.640625 41.28125 31.265625 
Q 36.765625 34.90625 28.71875 34.90625 
L 20.21875 34.90625 
L 20.21875 43.015625 
L 29.109375 43.015625 
Q 36.375 43.015625 40.234375 45.921875 
Q 44.09375 48.828125 44.09375 54.296875 
Q 44.09375 59.90625 40.109375 62.90625 
Q 36.140625 65.921875 28.71875 65.921875 
Q 24.65625 65.921875 20.015625 65.03125 
Q 15.375 64.15625 9.8125 62.3125 
L 9.8125 71.09375 
Q 15.4375 72.65625 20.34375 73.4375 
Q 25.25 74.21875 29.59375 74.21875 
Q 40.828125 74.21875 47.359375 69.109375 
Q 53.90625 64.015625 53.90625 55.328125 
Q 53.90625 49.265625 50.4375 45.09375 
Q 46.96875 40.921875 40.578125 39.3125 
z
" id="DejaVuSans-51"/>
      </defs>
      <g transform="translate(69.1875 459.563298)scale(0.1 -0.1)">
       <use xlink:href="#DejaVuSans-51"/>
       <use x="63.623047" xlink:href="#DejaVuSans-48"/>
       <use x="127.246094" xlink:href="#DejaVuSans-48"/>
       <use x="190.869141" xlink:href="#DejaVuSans-48"/>
       <use x="254.492188" xlink:href="#DejaVuSans-48"/>
      </g>
     </g>
    </g>
    <g id="ytick_5">
     <g id="line2d_9">
      <g>
       <use style="stroke:#000000;stroke-width:0.8;" x="108" xlink:href="#mc38e2b5294" y="394.085439"/>
      </g>
     </g>
     <g id="text_10">
      <!-- 40000 -->
      <g transform="translate(69.1875 397.884658)scale(0.1 -0.1)">
       <use xlink:href="#DejaVuSans-52"/>
       <use x="63.623047" xlink:href="#DejaVuSans-48"/>
       <use x="127.246094" xlink:href="#DejaVuSans-48"/>
       <use x="190.869141" xlink:href="#DejaVuSans-48"/>
       <use x="254.492188" xlink:href="#DejaVuSans-48"/>
      </g>
     </g>
    </g>
    <g id="ytick_6">
     <g id="line2d_10">
      <g>
       <use style="stroke:#000000;stroke-width:0.8;" x="108" xlink:href="#mc38e2b5294" y="332.406799"/>
      </g>
     </g>
     <g id="text_11">
      <!-- 50000 -->
      <g transform="translate(69.1875 336.206017)scale(0.1 -0.1)">
       <use xlink:href="#DejaVuSans-53"/>
       <use x="63.623047" xlink:href="#DejaVuSans-48"/>
       <use x="127.246094" xlink:href="#DejaVuSans-48"/>
       <use x="190.869141" xlink:href="#DejaVuSans-48"/>
       <use x="254.492188" xlink:href="#DejaVuSans-48"/>
      </g>
     </g>
    </g>
    <g id="ytick_7">
     <g id="line2d_11">
      <g>
       <use style="stroke:#000000;stroke-width:0.8;" x="108" xlink:href="#mc38e2b5294" y="270.728158"/>
      </g>
     </g>
     <g id="text_12">
      <!-- 60000 -->
      <g transform="translate(69.1875 274.527377)scale(0.1 -0.1)">
       <use xlink:href="#DejaVuSans-54"/>
       <use x="63.623047" xlink:href="#DejaVuSans-48"/>
       <use x="127.246094" xlink:href="#DejaVuSans-48"/>
       <use x="190.869141" xlink:href="#DejaVuSans-48"/>
       <use x="254.492188" xlink:href="#DejaVuSans-48"/>
      </g>
     </g>
    </g>
    <g id="ytick_8">
     <g id="line2d_12">
      <g>
       <use style="stroke:#000000;stroke-width:0.8;" x="108" xlink:href="#mc38e2b5294" y="209.049518"/>
      </g>
     </g>
     <g id="text_13">
      <!-- 70000 -->
      <defs>
       <path d="M 8.203125 72.90625 
L 55.078125 72.90625 
L 55.078125 68.703125 
L 28.609375 0 
L 18.3125 0 
L 43.21875 64.59375 
L 8.203125 64.59375 
z
" id="DejaVuSans-55"/>
      </defs>
      <g transform="translate(69.1875 212.848737)scale(0.1 -0.1)">
       <use xlink:href="#DejaVuSans-55"/>
       <use x="63.623047" xlink:href="#DejaVuSans-48"/>
       <use x="127.246094" xlink:href="#DejaVuSans-48"/>
       <use x="190.869141" xlink:href="#DejaVuSans-48"/>
       <use x="254.492188" xlink:href="#DejaVuSans-48"/>
      </g>
     </g>
    </g>
    <g id="ytick_9">
     <g id="line2d_13">
      <g>
       <use style="stroke:#000000;stroke-width:0.8;" x="108" xlink:href="#mc38e2b5294" y="147.370878"/>
      </g>
     </g>
     <g id="text_14">
      <!-- 80000 -->
      <defs>
       <path d="M 31.78125 34.625 
Q 24.75 34.625 20.71875 30.859375 
Q 16.703125 27.09375 16.703125 20.515625 
Q 16.703125 13.921875 20.71875 10.15625 
Q 24.75 6.390625 31.78125 6.390625 
Q 38.8125 6.390625 42.859375 10.171875 
Q 46.921875 13.96875 46.921875 20.515625 
Q 46.921875 27.09375 42.890625 30.859375 
Q 38.875 34.625 31.78125 34.625 
z
M 21.921875 38.8125 
Q 15.578125 40.375 12.03125 44.71875 
Q 8.5 49.078125 8.5 55.328125 
Q 8.5 64.0625 14.71875 69.140625 
Q 20.953125 74.21875 31.78125 74.21875 
Q 42.671875 74.21875 48.875 69.140625 
Q 55.078125 64.0625 55.078125 55.328125 
Q 55.078125 49.078125 51.53125 44.71875 
Q 48 40.375 41.703125 38.8125 
Q 48.828125 37.15625 52.796875 32.3125 
Q 56.78125 27.484375 56.78125 20.515625 
Q 56.78125 9.90625 50.3125 4.234375 
Q 43.84375 -1.421875 31.78125 -1.421875 
Q 19.734375 -1.421875 13.25 4.234375 
Q 6.78125 9.90625 6.78125 20.515625 
Q 6.78125 27.484375 10.78125 32.3125 
Q 14.796875 37.15625 21.921875 38.8125 
z
M 18.3125 54.390625 
Q 18.3125 48.734375 21.84375 45.5625 
Q 25.390625 42.390625 31.78125 42.390625 
Q 38.140625 42.390625 41.71875 45.5625 
Q 45.3125 48.734375 45.3125 54.390625 
Q 45.3125 60.0625 41.71875 63.234375 
Q 38.140625 66.40625 31.78125 66.40625 
Q 25.390625 66.40625 21.84375 63.234375 
Q 18.3125 60.0625 18.3125 54.390625 
z
" id="DejaVuSans-56"/>
      </defs>
      <g transform="translate(69.1875 151.170097)scale(0.1 -0.1)">
       <use xlink:href="#DejaVuSans-56"/>
       <use x="63.623047" xlink:href="#DejaVuSans-48"/>
       <use x="127.246094" xlink:href="#DejaVuSans-48"/>
       <use x="190.869141" xlink:href="#DejaVuSans-48"/>
       <use x="254.492188" xlink:href="#DejaVuSans-48"/>
      </g>
     </g>
    </g>
    <g id="text_15">
     <!-- Time (seconds) -->
     <defs>
      <path d="M -0.296875 72.90625 
L 61.375 72.90625 
L 61.375 64.59375 
L 35.5 64.59375 
L 35.5 0 
L 25.59375 0 
L 25.59375 64.59375 
L -0.296875 64.59375 
z
" id="DejaVuSans-84"/>
      <path d="M 9.421875 54.6875 
L 18.40625 54.6875 
L 18.40625 0 
L 9.421875 0 
z
M 9.421875 75.984375 
L 18.40625 75.984375 
L 18.40625 64.59375 
L 9.421875 64.59375 
z
" id="DejaVuSans-105"/>
      <path d="M 31 75.875 
Q 24.46875 64.65625 21.28125 53.65625 
Q 18.109375 42.671875 18.109375 31.390625 
Q 18.109375 20.125 21.3125 9.0625 
Q 24.515625 -2 31 -13.1875 
L 23.1875 -13.1875 
Q 15.875 -1.703125 12.234375 9.375 
Q 8.59375 20.453125 8.59375 31.390625 
Q 8.59375 42.28125 12.203125 53.3125 
Q 15.828125 64.359375 23.1875 75.875 
z
" id="DejaVuSans-40"/>
      <path d="M 44.28125 53.078125 
L 44.28125 44.578125 
Q 40.484375 46.53125 36.375 47.5 
Q 32.28125 48.484375 27.875 48.484375 
Q 21.1875 48.484375 17.84375 46.4375 
Q 14.5 44.390625 14.5 40.28125 
Q 14.5 37.15625 16.890625 35.375 
Q 19.28125 33.59375 26.515625 31.984375 
L 29.59375 31.296875 
Q 39.15625 29.25 43.1875 25.515625 
Q 47.21875 21.78125 47.21875 15.09375 
Q 47.21875 7.46875 41.1875 3.015625 
Q 35.15625 -1.421875 24.609375 -1.421875 
Q 20.21875 -1.421875 15.453125 -0.5625 
Q 10.6875 0.296875 5.421875 2 
L 5.421875 11.28125 
Q 10.40625 8.6875 15.234375 7.390625 
Q 20.0625 6.109375 24.8125 6.109375 
Q 31.15625 6.109375 34.5625 8.28125 
Q 37.984375 10.453125 37.984375 14.40625 
Q 37.984375 18.0625 35.515625 20.015625 
Q 33.0625 21.96875 24.703125 23.78125 
L 21.578125 24.515625 
Q 13.234375 26.265625 9.515625 29.90625 
Q 5.8125 33.546875 5.8125 39.890625 
Q 5.8125 47.609375 11.28125 51.796875 
Q 16.75 56 26.8125 56 
Q 31.78125 56 36.171875 55.265625 
Q 40.578125 54.546875 44.28125 53.078125 
z
" id="DejaVuSans-115"/>
      <path d="M 48.78125 52.59375 
L 48.78125 44.1875 
Q 44.96875 46.296875 41.140625 47.34375 
Q 37.3125 48.390625 33.40625 48.390625 
Q 24.65625 48.390625 19.8125 42.84375 
Q 14.984375 37.3125 14.984375 27.296875 
Q 14.984375 17.28125 19.8125 11.734375 
Q 24.65625 6.203125 33.40625 6.203125 
Q 37.3125 6.203125 41.140625 7.25 
Q 44.96875 8.296875 48.78125 10.40625 
L 48.78125 2.09375 
Q 45.015625 0.34375 40.984375 -0.53125 
Q 36.96875 -1.421875 32.421875 -1.421875 
Q 20.0625 -1.421875 12.78125 6.34375 
Q 5.515625 14.109375 5.515625 27.296875 
Q 5.515625 40.671875 12.859375 48.328125 
Q 20.21875 56 33.015625 56 
Q 37.15625 56 41.109375 55.140625 
Q 45.0625 54.296875 48.78125 52.59375 
z
" id="DejaVuSans-99"/>
      <path d="M 30.609375 48.390625 
Q 23.390625 48.390625 19.1875 42.75 
Q 14.984375 37.109375 14.984375 27.296875 
Q 14.984375 17.484375 19.15625 11.84375 
Q 23.34375 6.203125 30.609375 6.203125 
Q 37.796875 6.203125 41.984375 11.859375 
Q 46.1875 17.53125 46.1875 27.296875 
Q 46.1875 37.015625 41.984375 42.703125 
Q 37.796875 48.390625 30.609375 48.390625 
z
M 30.609375 56 
Q 42.328125 56 49.015625 48.375 
Q 55.71875 40.765625 55.71875 27.296875 
Q 55.71875 13.875 49.015625 6.21875 
Q 42.328125 -1.421875 30.609375 -1.421875 
Q 18.84375 -1.421875 12.171875 6.21875 
Q 5.515625 13.875 5.515625 27.296875 
Q 5.515625 40.765625 12.171875 48.375 
Q 18.84375 56 30.609375 56 
z
" id="DejaVuSans-111"/>
      <path d="M 54.890625 33.015625 
L 54.890625 0 
L 45.90625 0 
L 45.90625 32.71875 
Q 45.90625 40.484375 42.875 44.328125 
Q 39.84375 48.1875 33.796875 48.1875 
Q 26.515625 48.1875 22.3125 43.546875 
Q 18.109375 38.921875 18.109375 30.90625 
L 18.109375 0 
L 9.078125 0 
L 9.078125 54.6875 
L 18.109375 54.6875 
L 18.109375 46.1875 
Q 21.34375 51.125 25.703125 53.5625 
Q 30.078125 56 35.796875 56 
Q 45.21875 56 50.046875 50.171875 
Q 54.890625 44.34375 54.890625 33.015625 
z
" id="DejaVuSans-110"/>
      <path d="M 45.40625 46.390625 
L 45.40625 75.984375 
L 54.390625 75.984375 
L 54.390625 0 
L 45.40625 0 
L 45.40625 8.203125 
Q 42.578125 3.328125 38.25 0.953125 
Q 33.9375 -1.421875 27.875 -1.421875 
Q 17.96875 -1.421875 11.734375 6.484375 
Q 5.515625 14.40625 5.515625 27.296875 
Q 5.515625 40.1875 11.734375 48.09375 
Q 17.96875 56 27.875 56 
Q 33.9375 56 38.25 53.625 
Q 42.578125 51.265625 45.40625 46.390625 
z
M 14.796875 27.296875 
Q 14.796875 17.390625 18.875 11.75 
Q 22.953125 6.109375 30.078125 6.109375 
Q 37.203125 6.109375 41.296875 11.75 
Q 45.40625 17.390625 45.40625 27.296875 
Q 45.40625 37.203125 41.296875 42.84375 
Q 37.203125 48.484375 30.078125 48.484375 
Q 22.953125 48.484375 18.875 42.84375 
Q 14.796875 37.203125 14.796875 27.296875 
z
" id="DejaVuSans-100"/>
      <path d="M 8.015625 75.875 
L 15.828125 75.875 
Q 23.140625 64.359375 26.78125 53.3125 
Q 30.421875 42.28125 30.421875 31.390625 
Q 30.421875 20.453125 26.78125 9.375 
Q 23.140625 -1.703125 15.828125 -13.1875 
L 8.015625 -13.1875 
Q 14.5 -2 17.703125 9.0625 
Q 20.90625 20.125 20.90625 31.390625 
Q 20.90625 42.671875 17.703125 53.65625 
Q 14.5 64.65625 8.015625 75.875 
z
" id="DejaVuSans-41"/>
     </defs>
     <g transform="translate(63.107812 401.915625)rotate(-90)scale(0.1 -0.1)">
      <use xlink:href="#DejaVuSans-84"/>
      <use x="61.037109" xlink:href="#DejaVuSans-105"/>
      <use x="88.820312" xlink:href="#DejaVuSans-109"/>
      <use x="186.232422" xlink:href="#DejaVuSans-101"/>
      <use x="247.755859" xlink:href="#DejaVuSans-32"/>
      <use x="279.542969" xlink:href="#DejaVuSans-40"/>
      <use x="318.556641" xlink:href="#DejaVuSans-115"/>
      <use x="370.65625" xlink:href="#DejaVuSans-101"/>
      <use x="432.179688" xlink:href="#DejaVuSans-99"/>
      <use x="487.160156" xlink:href="#DejaVuSans-111"/>
      <use x="548.341797" xlink:href="#DejaVuSans-110"/>
      <use x="611.720703" xlink:href="#DejaVuSans-100"/>
      <use x="675.197266" xlink:href="#DejaVuSans-115"/>
      <use x="727.296875" xlink:href="#DejaVuSans-41"/>
     </g>
    </g>
   </g>
   <g id="patch_111">
    <path d="M 108 640.8 
L 108 86.4 
" style="fill:none;stroke:#000000;stroke-linecap:square;stroke-linejoin:miter;stroke-width:0.8;"/>
   </g>
   <g id="patch_112">
    <path d="M 777.6 640.8 
L 777.6 86.4 
" style="fill:none;stroke:#000000;stroke-linecap:square;stroke-linejoin:miter;stroke-width:0.8;"/>
   </g>
   <g id="patch_113">
    <path d="M 108 640.8 
L 777.6 640.8 
" style="fill:none;stroke:#000000;stroke-linecap:square;stroke-linejoin:miter;stroke-width:0.8;"/>
   </g>
   <g id="patch_114">
    <path d="M 108 86.4 
L 777.6 86.4 
" style="fill:none;stroke:#000000;stroke-linecap:square;stroke-linejoin:miter;stroke-width:0.8;"/>
   </g>
   <g id="text_16">
    <!-- triggered. Fuzzer: aflplusplus. Library:openssl. For different campaigns -->
    <defs>
     <path d="M 18.3125 70.21875 
L 18.3125 54.6875 
L 36.8125 54.6875 
L 36.8125 47.703125 
L 18.3125 47.703125 
L 18.3125 18.015625 
Q 18.3125 11.328125 20.140625 9.421875 
Q 21.96875 7.515625 27.59375 7.515625 
L 36.8125 7.515625 
L 36.8125 0 
L 27.59375 0 
Q 17.1875 0 13.234375 3.875 
Q 9.28125 7.765625 9.28125 18.015625 
L 9.28125 47.703125 
L 2.6875 47.703125 
L 2.6875 54.6875 
L 9.28125 54.6875 
L 9.28125 70.21875 
z
" id="DejaVuSans-116"/>
     <path d="M 10.6875 12.40625 
L 21 12.40625 
L 21 0 
L 10.6875 0 
z
" id="DejaVuSans-46"/>
     <path d="M 9.8125 72.90625 
L 51.703125 72.90625 
L 51.703125 64.59375 
L 19.671875 64.59375 
L 19.671875 43.109375 
L 48.578125 43.109375 
L 48.578125 34.8125 
L 19.671875 34.8125 
L 19.671875 0 
L 9.8125 0 
z
" id="DejaVuSans-70"/>
     <path d="M 5.515625 54.6875 
L 48.1875 54.6875 
L 48.1875 46.484375 
L 14.40625 7.171875 
L 48.1875 7.171875 
L 48.1875 0 
L 4.296875 0 
L 4.296875 8.203125 
L 38.09375 47.515625 
L 5.515625 47.515625 
z
" id="DejaVuSans-122"/>
     <path d="M 11.71875 12.40625 
L 22.015625 12.40625 
L 22.015625 0 
L 11.71875 0 
z
M 11.71875 51.703125 
L 22.015625 51.703125 
L 22.015625 39.3125 
L 11.71875 39.3125 
z
" id="DejaVuSans-58"/>
     <path d="M 34.28125 27.484375 
Q 23.390625 27.484375 19.1875 25 
Q 14.984375 22.515625 14.984375 16.5 
Q 14.984375 11.71875 18.140625 8.90625 
Q 21.296875 6.109375 26.703125 6.109375 
Q 34.1875 6.109375 38.703125 11.40625 
Q 43.21875 16.703125 43.21875 25.484375 
L 43.21875 27.484375 
z
M 52.203125 31.203125 
L 52.203125 0 
L 43.21875 0 
L 43.21875 8.296875 
Q 40.140625 3.328125 35.546875 0.953125 
Q 30.953125 -1.421875 24.3125 -1.421875 
Q 15.921875 -1.421875 10.953125 3.296875 
Q 6 8.015625 6 15.921875 
Q 6 25.140625 12.171875 29.828125 
Q 18.359375 34.515625 30.609375 34.515625 
L 43.21875 34.515625 
L 43.21875 35.40625 
Q 43.21875 41.609375 39.140625 45 
Q 35.0625 48.390625 27.6875 48.390625 
Q 23 48.390625 18.546875 47.265625 
Q 14.109375 46.140625 10.015625 43.890625 
L 10.015625 52.203125 
Q 14.9375 54.109375 19.578125 55.046875 
Q 24.21875 56 28.609375 56 
Q 40.484375 56 46.34375 49.84375 
Q 52.203125 43.703125 52.203125 31.203125 
z
" id="DejaVuSans-97"/>
     <path d="M 37.109375 75.984375 
L 37.109375 68.5 
L 28.515625 68.5 
Q 23.6875 68.5 21.796875 66.546875 
Q 19.921875 64.59375 19.921875 59.515625 
L 19.921875 54.6875 
L 34.71875 54.6875 
L 34.71875 47.703125 
L 19.921875 47.703125 
L 19.921875 0 
L 10.890625 0 
L 10.890625 47.703125 
L 2.296875 47.703125 
L 2.296875 54.6875 
L 10.890625 54.6875 
L 10.890625 58.5 
Q 10.890625 67.625 15.140625 71.796875 
Q 19.390625 75.984375 28.609375 75.984375 
z
" id="DejaVuSans-102"/>
     <path d="M 9.421875 75.984375 
L 18.40625 75.984375 
L 18.40625 0 
L 9.421875 0 
z
" id="DejaVuSans-108"/>
     <path d="M 18.109375 8.203125 
L 18.109375 -20.796875 
L 9.078125 -20.796875 
L 9.078125 54.6875 
L 18.109375 54.6875 
L 18.109375 46.390625 
Q 20.953125 51.265625 25.265625 53.625 
Q 29.59375 56 35.59375 56 
Q 45.5625 56 51.78125 48.09375 
Q 58.015625 40.1875 58.015625 27.296875 
Q 58.015625 14.40625 51.78125 6.484375 
Q 45.5625 -1.421875 35.59375 -1.421875 
Q 29.59375 -1.421875 25.265625 0.953125 
Q 20.953125 3.328125 18.109375 8.203125 
z
M 48.6875 27.296875 
Q 48.6875 37.203125 44.609375 42.84375 
Q 40.53125 48.484375 33.40625 48.484375 
Q 26.265625 48.484375 22.1875 42.84375 
Q 18.109375 37.203125 18.109375 27.296875 
Q 18.109375 17.390625 22.1875 11.75 
Q 26.265625 6.109375 33.40625 6.109375 
Q 40.53125 6.109375 44.609375 11.75 
Q 48.6875 17.390625 48.6875 27.296875 
z
" id="DejaVuSans-112"/>
     <path d="M 9.8125 72.90625 
L 19.671875 72.90625 
L 19.671875 8.296875 
L 55.171875 8.296875 
L 55.171875 0 
L 9.8125 0 
z
" id="DejaVuSans-76"/>
     <path d="M 32.171875 -5.078125 
Q 28.375 -14.84375 24.75 -17.8125 
Q 21.140625 -20.796875 15.09375 -20.796875 
L 7.90625 -20.796875 
L 7.90625 -13.28125 
L 13.1875 -13.28125 
Q 16.890625 -13.28125 18.9375 -11.515625 
Q 21 -9.765625 23.484375 -3.21875 
L 25.09375 0.875 
L 2.984375 54.6875 
L 12.5 54.6875 
L 29.59375 11.921875 
L 46.6875 54.6875 
L 56.203125 54.6875 
z
" id="DejaVuSans-121"/>
    </defs>
    <g transform="translate(229.999688 80.4)scale(0.12 -0.12)">
     <use xlink:href="#DejaVuSans-116"/>
     <use x="39.208984" xlink:href="#DejaVuSans-114"/>
     <use x="80.322266" xlink:href="#DejaVuSans-105"/>
     <use x="108.105469" xlink:href="#DejaVuSans-103"/>
     <use x="171.582031" xlink:href="#DejaVuSans-103"/>
     <use x="235.058594" xlink:href="#DejaVuSans-101"/>
     <use x="296.582031" xlink:href="#DejaVuSans-114"/>
     <use x="337.664062" xlink:href="#DejaVuSans-101"/>
     <use x="399.1875" xlink:href="#DejaVuSans-100"/>
     <use x="462.664062" xlink:href="#DejaVuSans-46"/>
     <use x="494.451172" xlink:href="#DejaVuSans-32"/>
     <use x="526.238281" xlink:href="#DejaVuSans-70"/>
     <use x="583.679688" xlink:href="#DejaVuSans-117"/>
     <use x="647.058594" xlink:href="#DejaVuSans-122"/>
     <use x="699.548828" xlink:href="#DejaVuSans-122"/>
     <use x="752.039062" xlink:href="#DejaVuSans-101"/>
     <use x="813.5625" xlink:href="#DejaVuSans-114"/>
     <use x="854.660156" xlink:href="#DejaVuSans-58"/>
     <use x="888.351562" xlink:href="#DejaVuSans-32"/>
     <use x="920.138672" xlink:href="#DejaVuSans-97"/>
     <use x="981.417969" xlink:href="#DejaVuSans-102"/>
     <use x="1016.623047" xlink:href="#DejaVuSans-108"/>
     <use x="1044.40625" xlink:href="#DejaVuSans-112"/>
     <use x="1107.882812" xlink:href="#DejaVuSans-108"/>
     <use x="1135.666016" xlink:href="#DejaVuSans-117"/>
     <use x="1199.044922" xlink:href="#DejaVuSans-115"/>
     <use x="1251.144531" xlink:href="#DejaVuSans-112"/>
     <use x="1314.621094" xlink:href="#DejaVuSans-108"/>
     <use x="1342.404297" xlink:href="#DejaVuSans-117"/>
     <use x="1405.783203" xlink:href="#DejaVuSans-115"/>
     <use x="1457.882812" xlink:href="#DejaVuSans-46"/>
     <use x="1489.669922" xlink:href="#DejaVuSans-32"/>
     <use x="1521.457031" xlink:href="#DejaVuSans-76"/>
     <use x="1577.169922" xlink:href="#DejaVuSans-105"/>
     <use x="1604.953125" xlink:href="#DejaVuSans-98"/>
     <use x="1668.429688" xlink:href="#DejaVuSans-114"/>
     <use x="1709.542969" xlink:href="#DejaVuSans-97"/>
     <use x="1770.822266" xlink:href="#DejaVuSans-114"/>
     <use x="1811.935547" xlink:href="#DejaVuSans-121"/>
     <use x="1871.005859" xlink:href="#DejaVuSans-58"/>
     <use x="1904.697266" xlink:href="#DejaVuSans-111"/>
     <use x="1965.878906" xlink:href="#DejaVuSans-112"/>
     <use x="2029.355469" xlink:href="#DejaVuSans-101"/>
     <use x="2090.878906" xlink:href="#DejaVuSans-110"/>
     <use x="2154.257812" xlink:href="#DejaVuSans-115"/>
     <use x="2206.357422" xlink:href="#DejaVuSans-115"/>
     <use x="2258.457031" xlink:href="#DejaVuSans-108"/>
     <use x="2286.240234" xlink:href="#DejaVuSans-46"/>
     <use x="2318.027344" xlink:href="#DejaVuSans-32"/>
     <use x="2349.814453" xlink:href="#DejaVuSans-70"/>
     <use x="2407.287109" xlink:href="#DejaVuSans-111"/>
     <use x="2468.46875" xlink:href="#DejaVuSans-114"/>
     <use x="2509.582031" xlink:href="#DejaVuSans-32"/>
     <use x="2541.369141" xlink:href="#DejaVuSans-100"/>
     <use x="2604.845703" xlink:href="#DejaVuSans-105"/>
     <use x="2632.628906" xlink:href="#DejaVuSans-102"/>
     <use x="2667.833984" xlink:href="#DejaVuSans-102"/>
     <use x="2703.039062" xlink:href="#DejaVuSans-101"/>
     <use x="2764.5625" xlink:href="#DejaVuSans-114"/>
     <use x="2805.644531" xlink:href="#DejaVuSans-101"/>
     <use x="2867.167969" xlink:href="#DejaVuSans-110"/>
     <use x="2930.546875" xlink:href="#DejaVuSans-116"/>
     <use x="2969.755859" xlink:href="#DejaVuSans-32"/>
     <use x="3001.542969" xlink:href="#DejaVuSans-99"/>
     <use x="3056.523438" xlink:href="#DejaVuSans-97"/>
     <use x="3117.802734" xlink:href="#DejaVuSans-109"/>
     <use x="3215.214844" xlink:href="#DejaVuSans-112"/>
     <use x="3278.691406" xlink:href="#DejaVuSans-97"/>
     <use x="3339.970703" xlink:href="#DejaVuSans-105"/>
     <use x="3367.753906" xlink:href="#DejaVuSans-103"/>
     <use x="3431.230469" xlink:href="#DejaVuSans-110"/>
     <use x="3494.609375" xlink:href="#DejaVuSans-115"/>
    </g>
   </g>
  </g>
 </g>
 <defs>
  <clipPath id="pa2d64935b8">
   <rect height="554.4" width="669.6" x="108" y="86.4"/>
  </clipPath>
 </defs>
</svg>
