<?xml version="1.0" encoding="utf-8" standalone="no"?>
<!DOCTYPE svg PUBLIC "-//W3C//DTD SVG 1.1//EN"
  "http://www.w3.org/Graphics/SVG/1.1/DTD/svg11.dtd">
<!-- Created with matplotlib (https://matplotlib.org/) -->
<svg height="360pt" version="1.1" viewBox="0 0 720 360" width="720pt" xmlns="http://www.w3.org/2000/svg" xmlns:xlink="http://www.w3.org/1999/xlink">
 <defs>
  <style type="text/css">
*{stroke-linecap:butt;stroke-linejoin:round;}
  </style>
 </defs>
 <g id="figure_1">
  <g id="patch_1">
   <path d="M 0 360 
L 720 360 
L 720 0 
L 0 0 
z
" style="fill:#ffffff;"/>
  </g>
  <g id="axes_1">
   <g id="patch_2">
    <path d="M 90 320.4 
L 648 320.4 
L 648 43.2 
L 90 43.2 
z
" style="fill:#ffffff;"/>
   </g>
   <g id="patch_3">
    <path clip-path="url(#p270ca2e829)" d="M 109.928571 320.4 
L 111.921429 320.4 
L 111.921429 131.006992 
L 109.928571 131.006992 
z
" style="fill:#1f77b4;"/>
   </g>
   <g id="patch_4">
    <path clip-path="url(#p270ca2e829)" d="M 189.642857 320.4 
L 191.635714 320.4 
L 191.635714 315.651855 
L 189.642857 315.651855 
z
" style="fill:#1f77b4;"/>
   </g>
   <g id="patch_5">
    <path clip-path="url(#p270ca2e829)" d="M 269.357143 320.4 
L 271.35 320.4 
L 271.35 317.971081 
L 269.357143 317.971081 
z
" style="fill:#1f77b4;"/>
   </g>
   <g id="patch_6">
    <path clip-path="url(#p270ca2e829)" d="M 349.071429 320.4 
L 351.064286 320.4 
L 351.064286 245.714655 
L 349.071429 245.714655 
z
" style="fill:#1f77b4;"/>
   </g>
   <g id="patch_7">
    <path clip-path="url(#p270ca2e829)" d="M 428.785714 320.4 
L 430.778571 320.4 
L 430.778571 221.190408 
L 428.785714 221.190408 
z
" style="fill:#1f77b4;"/>
   </g>
   <g id="patch_8">
    <path clip-path="url(#p270ca2e829)" d="M 508.5 320.4 
L 510.492857 320.4 
L 510.492857 240.465056 
L 508.5 240.465056 
z
" style="fill:#1f77b4;"/>
   </g>
   <g id="patch_9">
    <path clip-path="url(#p270ca2e829)" d="M 588.214286 320.4 
L 590.207143 320.4 
L 590.207143 279.750864 
L 588.214286 279.750864 
z
" style="fill:#1f77b4;"/>
   </g>
   <g id="patch_10">
    <path clip-path="url(#p270ca2e829)" d="M 111.921429 320.4 
L 113.914286 320.4 
L 113.914286 183.785054 
L 111.921429 183.785054 
z
" style="fill:#ff7f0e;"/>
   </g>
   <g id="patch_11">
    <path clip-path="url(#p270ca2e829)" d="M 191.635714 320.4 
L 193.628571 320.4 
L 193.628571 314.351208 
L 191.635714 314.351208 
z
" style="fill:#ff7f0e;"/>
   </g>
   <g id="patch_12">
    <path clip-path="url(#p270ca2e829)" d="M 271.35 320.4 
L 273.342857 320.4 
L 273.342857 318.911308 
L 271.35 318.911308 
z
" style="fill:#ff7f0e;"/>
   </g>
   <g id="patch_13">
    <path clip-path="url(#p270ca2e829)" d="M 351.064286 320.4 
L 353.057143 320.4 
L 353.057143 308.302416 
L 351.064286 308.302416 
z
" style="fill:#ff7f0e;"/>
   </g>
   <g id="patch_14">
    <path clip-path="url(#p270ca2e829)" d="M 430.778571 320.4 
L 432.771429 320.4 
L 432.771429 126.917006 
L 430.778571 126.917006 
z
" style="fill:#ff7f0e;"/>
   </g>
   <g id="patch_15">
    <path clip-path="url(#p270ca2e829)" d="M 510.492857 320.4 
L 512.485714 320.4 
L 512.485714 213.731276 
L 510.492857 213.731276 
z
" style="fill:#ff7f0e;"/>
   </g>
   <g id="patch_16">
    <path clip-path="url(#p270ca2e829)" d="M 590.207143 320.4 
L 592.2 320.4 
L 592.2 271.116448 
L 590.207143 271.116448 
z
" style="fill:#ff7f0e;"/>
   </g>
   <g id="patch_17">
    <path clip-path="url(#p270ca2e829)" d="M 113.914286 320.4 
L 115.907143 320.4 
L 115.907143 99.822805 
L 113.914286 99.822805 
z
" style="fill:#2ca02c;"/>
   </g>
   <g id="patch_18">
    <path clip-path="url(#p270ca2e829)" d="M 193.628571 320.4 
L 195.621429 320.4 
L 195.621429 316.686104 
L 193.628571 316.686104 
z
" style="fill:#2ca02c;"/>
   </g>
   <g id="patch_19">
    <path clip-path="url(#p270ca2e829)" d="M 273.342857 320.4 
L 275.335714 320.4 
L 275.335714 318.096444 
L 273.342857 318.096444 
z
" style="fill:#2ca02c;"/>
   </g>
   <g id="patch_20">
    <path clip-path="url(#p270ca2e829)" d="M 353.057143 320.4 
L 355.05 320.4 
L 355.05 63.498712 
L 353.057143 63.498712 
z
" style="fill:#2ca02c;"/>
   </g>
   <g id="patch_21">
    <path clip-path="url(#p270ca2e829)" d="M 432.771429 320.4 
L 434.764286 320.4 
L 434.764286 320.4 
L 432.771429 320.4 
z
" style="fill:#2ca02c;"/>
   </g>
   <g id="patch_22">
    <path clip-path="url(#p270ca2e829)" d="M 512.485714 320.4 
L 514.478571 320.4 
L 514.478571 142.88519 
L 512.485714 142.88519 
z
" style="fill:#2ca02c;"/>
   </g>
   <g id="patch_23">
    <path clip-path="url(#p270ca2e829)" d="M 592.2 320.4 
L 594.192857 320.4 
L 594.192857 234.745343 
L 592.2 234.745343 
z
" style="fill:#2ca02c;"/>
   </g>
   <g id="patch_24">
    <path clip-path="url(#p270ca2e829)" d="M 115.907143 320.4 
L 117.9 320.4 
L 117.9 248.065222 
L 115.907143 248.065222 
z
" style="fill:#d62728;"/>
   </g>
   <g id="patch_25">
    <path clip-path="url(#p270ca2e829)" d="M 195.621429 320.4 
L 197.614286 320.4 
L 197.614286 314.022129 
L 195.621429 314.022129 
z
" style="fill:#d62728;"/>
   </g>
   <g id="patch_26">
    <path clip-path="url(#p270ca2e829)" d="M 275.335714 320.4 
L 277.328571 320.4 
L 277.328571 316.498059 
L 275.335714 316.498059 
z
" style="fill:#d62728;"/>
   </g>
   <g id="patch_27">
    <path clip-path="url(#p270ca2e829)" d="M 355.05 320.4 
L 357.042857 320.4 
L 357.042857 320.4 
L 355.05 320.4 
z
" style="fill:#d62728;"/>
   </g>
   <g id="patch_28">
    <path clip-path="url(#p270ca2e829)" d="M 434.764286 320.4 
L 436.757143 320.4 
L 436.757143 320.4 
L 434.764286 320.4 
z
" style="fill:#d62728;"/>
   </g>
   <g id="patch_29">
    <path clip-path="url(#p270ca2e829)" d="M 514.478571 320.4 
L 516.471429 320.4 
L 516.471429 67.275289 
L 514.478571 67.275289 
z
" style="fill:#d62728;"/>
   </g>
   <g id="patch_30">
    <path clip-path="url(#p270ca2e829)" d="M 594.192857 320.4 
L 596.185714 320.4 
L 596.185714 296.298854 
L 594.192857 296.298854 
z
" style="fill:#d62728;"/>
   </g>
   <g id="patch_31">
    <path clip-path="url(#p270ca2e829)" d="M 117.9 320.4 
L 119.892857 320.4 
L 119.892857 247.98687 
L 117.9 247.98687 
z
" style="fill:#9467bd;"/>
   </g>
   <g id="patch_32">
    <path clip-path="url(#p270ca2e829)" d="M 197.614286 320.4 
L 199.607143 320.4 
L 199.607143 286.614519 
L 197.614286 286.614519 
z
" style="fill:#9467bd;"/>
   </g>
   <g id="patch_33">
    <path clip-path="url(#p270ca2e829)" d="M 277.328571 320.4 
L 279.321429 320.4 
L 279.321429 318.049433 
L 277.328571 318.049433 
z
" style="fill:#9467bd;"/>
   </g>
   <g id="patch_34">
    <path clip-path="url(#p270ca2e829)" d="M 357.042857 320.4 
L 359.035714 320.4 
L 359.035714 320.4 
L 357.042857 320.4 
z
" style="fill:#9467bd;"/>
   </g>
   <g id="patch_35">
    <path clip-path="url(#p270ca2e829)" d="M 436.757143 320.4 
L 438.75 320.4 
L 438.75 320.4 
L 436.757143 320.4 
z
" style="fill:#9467bd;"/>
   </g>
   <g id="patch_36">
    <path clip-path="url(#p270ca2e829)" d="M 516.471429 320.4 
L 518.464286 320.4 
L 518.464286 208.466006 
L 516.471429 208.466006 
z
" style="fill:#9467bd;"/>
   </g>
   <g id="patch_37">
    <path clip-path="url(#p270ca2e829)" d="M 596.185714 320.4 
L 598.178571 320.4 
L 598.178571 262.027589 
L 596.185714 262.027589 
z
" style="fill:#9467bd;"/>
   </g>
   <g id="patch_38">
    <path clip-path="url(#p270ca2e829)" d="M 119.892857 320.4 
L 121.885714 320.4 
L 121.885714 170.63755 
L 119.892857 170.63755 
z
" style="fill:#8c564b;"/>
   </g>
   <g id="patch_39">
    <path clip-path="url(#p270ca2e829)" d="M 199.607143 320.4 
L 201.6 320.4 
L 201.6 311.843937 
L 199.607143 311.843937 
z
" style="fill:#8c564b;"/>
   </g>
   <g id="patch_40">
    <path clip-path="url(#p270ca2e829)" d="M 279.321429 320.4 
L 281.314286 320.4 
L 281.314286 319.914216 
L 279.321429 319.914216 
z
" style="fill:#8c564b;"/>
   </g>
   <g id="patch_41">
    <path clip-path="url(#p270ca2e829)" d="M 359.035714 320.4 
L 361.028571 320.4 
L 361.028571 320.4 
L 359.035714 320.4 
z
" style="fill:#8c564b;"/>
   </g>
   <g id="patch_42">
    <path clip-path="url(#p270ca2e829)" d="M 438.75 320.4 
L 440.742857 320.4 
L 440.742857 320.4 
L 438.75 320.4 
z
" style="fill:#8c564b;"/>
   </g>
   <g id="patch_43">
    <path clip-path="url(#p270ca2e829)" d="M 518.464286 320.4 
L 520.457143 320.4 
L 520.457143 320.4 
L 518.464286 320.4 
z
" style="fill:#8c564b;"/>
   </g>
   <g id="patch_44">
    <path clip-path="url(#p270ca2e829)" d="M 598.178571 320.4 
L 600.171429 320.4 
L 600.171429 275.034059 
L 598.178571 275.034059 
z
" style="fill:#8c564b;"/>
   </g>
   <g id="patch_45">
    <path clip-path="url(#p270ca2e829)" d="M 121.885714 320.4 
L 123.878571 320.4 
L 123.878571 56.4 
L 121.885714 56.4 
z
" style="fill:#e377c2;"/>
   </g>
   <g id="patch_46">
    <path clip-path="url(#p270ca2e829)" d="M 201.6 320.4 
L 203.592857 320.4 
L 203.592857 301.219374 
L 201.6 301.219374 
z
" style="fill:#e377c2;"/>
   </g>
   <g id="patch_47">
    <path clip-path="url(#p270ca2e829)" d="M 281.314286 320.4 
L 283.307143 320.4 
L 283.307143 318.519547 
L 281.314286 318.519547 
z
" style="fill:#e377c2;"/>
   </g>
   <g id="patch_48">
    <path clip-path="url(#p270ca2e829)" d="M 361.028571 320.4 
L 363.021429 320.4 
L 363.021429 320.4 
L 361.028571 320.4 
z
" style="fill:#e377c2;"/>
   </g>
   <g id="patch_49">
    <path clip-path="url(#p270ca2e829)" d="M 440.742857 320.4 
L 442.735714 320.4 
L 442.735714 320.4 
L 440.742857 320.4 
z
" style="fill:#e377c2;"/>
   </g>
   <g id="patch_50">
    <path clip-path="url(#p270ca2e829)" d="M 520.457143 320.4 
L 522.45 320.4 
L 522.45 320.4 
L 520.457143 320.4 
z
" style="fill:#e377c2;"/>
   </g>
   <g id="patch_51">
    <path clip-path="url(#p270ca2e829)" d="M 600.171429 320.4 
L 602.164286 320.4 
L 602.164286 297.20774 
L 600.171429 297.20774 
z
" style="fill:#e377c2;"/>
   </g>
   <g id="patch_52">
    <path clip-path="url(#p270ca2e829)" d="M 123.878571 320.4 
L 125.871429 320.4 
L 125.871429 279.139716 
L 123.878571 279.139716 
z
" style="fill:#7f7f7f;"/>
   </g>
   <g id="patch_53">
    <path clip-path="url(#p270ca2e829)" d="M 203.592857 320.4 
L 205.585714 320.4 
L 205.585714 316.654763 
L 203.592857 316.654763 
z
" style="fill:#7f7f7f;"/>
   </g>
   <g id="patch_54">
    <path clip-path="url(#p270ca2e829)" d="M 283.307143 320.4 
L 285.3 320.4 
L 285.3 318.456865 
L 283.307143 318.456865 
z
" style="fill:#7f7f7f;"/>
   </g>
   <g id="patch_55">
    <path clip-path="url(#p270ca2e829)" d="M 363.021429 320.4 
L 365.014286 320.4 
L 365.014286 320.4 
L 363.021429 320.4 
z
" style="fill:#7f7f7f;"/>
   </g>
   <g id="patch_56">
    <path clip-path="url(#p270ca2e829)" d="M 442.735714 320.4 
L 444.728571 320.4 
L 444.728571 320.4 
L 442.735714 320.4 
z
" style="fill:#7f7f7f;"/>
   </g>
   <g id="patch_57">
    <path clip-path="url(#p270ca2e829)" d="M 522.45 320.4 
L 524.442857 320.4 
L 524.442857 320.4 
L 522.45 320.4 
z
" style="fill:#7f7f7f;"/>
   </g>
   <g id="patch_58">
    <path clip-path="url(#p270ca2e829)" d="M 602.164286 320.4 
L 604.157143 320.4 
L 604.157143 225.84453 
L 602.164286 225.84453 
z
" style="fill:#7f7f7f;"/>
   </g>
   <g id="patch_59">
    <path clip-path="url(#p270ca2e829)" d="M 125.871429 320.4 
L 127.864286 320.4 
L 127.864286 240.559079 
L 125.871429 240.559079 
z
" style="fill:#bcbd22;"/>
   </g>
   <g id="patch_60">
    <path clip-path="url(#p270ca2e829)" d="M 205.585714 320.4 
L 207.578571 320.4 
L 207.578571 316.278673 
L 205.585714 316.278673 
z
" style="fill:#bcbd22;"/>
   </g>
   <g id="patch_61">
    <path clip-path="url(#p270ca2e829)" d="M 285.3 320.4 
L 287.292857 320.4 
L 287.292857 318.30016 
L 285.3 318.30016 
z
" style="fill:#bcbd22;"/>
   </g>
   <g id="patch_62">
    <path clip-path="url(#p270ca2e829)" d="M 365.014286 320.4 
L 367.007143 320.4 
L 367.007143 320.4 
L 365.014286 320.4 
z
" style="fill:#bcbd22;"/>
   </g>
   <g id="patch_63">
    <path clip-path="url(#p270ca2e829)" d="M 444.728571 320.4 
L 446.721429 320.4 
L 446.721429 320.4 
L 444.728571 320.4 
z
" style="fill:#bcbd22;"/>
   </g>
   <g id="patch_64">
    <path clip-path="url(#p270ca2e829)" d="M 524.442857 320.4 
L 526.435714 320.4 
L 526.435714 320.4 
L 524.442857 320.4 
z
" style="fill:#bcbd22;"/>
   </g>
   <g id="patch_65">
    <path clip-path="url(#p270ca2e829)" d="M 604.157143 320.4 
L 606.15 320.4 
L 606.15 198.154852 
L 604.157143 198.154852 
z
" style="fill:#bcbd22;"/>
   </g>
   <g id="patch_66">
    <path clip-path="url(#p270ca2e829)" d="M 127.864286 320.4 
L 129.857143 320.4 
L 129.857143 197.73175 
L 127.864286 197.73175 
z
" style="fill:#17becf;"/>
   </g>
   <g id="patch_67">
    <path clip-path="url(#p270ca2e829)" d="M 207.578571 320.4 
L 209.571429 320.4 
L 209.571429 316.811468 
L 207.578571 316.811468 
z
" style="fill:#17becf;"/>
   </g>
   <g id="patch_68">
    <path clip-path="url(#p270ca2e829)" d="M 287.292857 320.4 
L 289.285714 320.4 
L 289.285714 318.864296 
L 287.292857 318.864296 
z
" style="fill:#17becf;"/>
   </g>
   <g id="patch_69">
    <path clip-path="url(#p270ca2e829)" d="M 367.007143 320.4 
L 369 320.4 
L 369 320.4 
L 367.007143 320.4 
z
" style="fill:#17becf;"/>
   </g>
   <g id="patch_70">
    <path clip-path="url(#p270ca2e829)" d="M 446.721429 320.4 
L 448.714286 320.4 
L 448.714286 320.4 
L 446.721429 320.4 
z
" style="fill:#17becf;"/>
   </g>
   <g id="patch_71">
    <path clip-path="url(#p270ca2e829)" d="M 526.435714 320.4 
L 528.428571 320.4 
L 528.428571 320.4 
L 526.435714 320.4 
z
" style="fill:#17becf;"/>
   </g>
   <g id="patch_72">
    <path clip-path="url(#p270ca2e829)" d="M 606.15 320.4 
L 608.142857 320.4 
L 608.142857 195.851297 
L 606.15 195.851297 
z
" style="fill:#17becf;"/>
   </g>
   <g id="patch_73">
    <path clip-path="url(#p270ca2e829)" d="M 129.857143 320.4 
L 131.85 320.4 
L 131.85 206.804939 
L 129.857143 206.804939 
z
" style="fill:#1f77b4;"/>
   </g>
   <g id="patch_74">
    <path clip-path="url(#p270ca2e829)" d="M 209.571429 320.4 
L 211.564286 320.4 
L 211.564286 270.364267 
L 209.571429 270.364267 
z
" style="fill:#1f77b4;"/>
   </g>
   <g id="patch_75">
    <path clip-path="url(#p270ca2e829)" d="M 289.285714 320.4 
L 291.278571 320.4 
L 291.278571 311.890948 
L 289.285714 311.890948 
z
" style="fill:#1f77b4;"/>
   </g>
   <g id="patch_76">
    <path clip-path="url(#p270ca2e829)" d="M 369 320.4 
L 370.992857 320.4 
L 370.992857 320.4 
L 369 320.4 
z
" style="fill:#1f77b4;"/>
   </g>
   <g id="patch_77">
    <path clip-path="url(#p270ca2e829)" d="M 448.714286 320.4 
L 450.707143 320.4 
L 450.707143 320.4 
L 448.714286 320.4 
z
" style="fill:#1f77b4;"/>
   </g>
   <g id="patch_78">
    <path clip-path="url(#p270ca2e829)" d="M 528.428571 320.4 
L 530.421429 320.4 
L 530.421429 320.4 
L 528.428571 320.4 
z
" style="fill:#1f77b4;"/>
   </g>
   <g id="patch_79">
    <path clip-path="url(#p270ca2e829)" d="M 608.142857 320.4 
L 610.135714 320.4 
L 610.135714 320.4 
L 608.142857 320.4 
z
" style="fill:#1f77b4;"/>
   </g>
   <g id="patch_80">
    <path clip-path="url(#p270ca2e829)" d="M 131.85 320.4 
L 133.842857 320.4 
L 133.842857 254.975889 
L 131.85 254.975889 
z
" style="fill:#ff7f0e;"/>
   </g>
   <g id="patch_81">
    <path clip-path="url(#p270ca2e829)" d="M 211.564286 320.4 
L 213.557143 320.4 
L 213.557143 271.915641 
L 211.564286 271.915641 
z
" style="fill:#ff7f0e;"/>
   </g>
   <g id="patch_82">
    <path clip-path="url(#p270ca2e829)" d="M 291.278571 320.4 
L 293.271429 320.4 
L 293.271429 311.373823 
L 291.278571 311.373823 
z
" style="fill:#ff7f0e;"/>
   </g>
   <g id="patch_83">
    <path clip-path="url(#p270ca2e829)" d="M 370.992857 320.4 
L 372.985714 320.4 
L 372.985714 320.4 
L 370.992857 320.4 
z
" style="fill:#ff7f0e;"/>
   </g>
   <g id="patch_84">
    <path clip-path="url(#p270ca2e829)" d="M 450.707143 320.4 
L 452.7 320.4 
L 452.7 320.4 
L 450.707143 320.4 
z
" style="fill:#ff7f0e;"/>
   </g>
   <g id="patch_85">
    <path clip-path="url(#p270ca2e829)" d="M 530.421429 320.4 
L 532.414286 320.4 
L 532.414286 320.4 
L 530.421429 320.4 
z
" style="fill:#ff7f0e;"/>
   </g>
   <g id="patch_86">
    <path clip-path="url(#p270ca2e829)" d="M 610.135714 320.4 
L 612.128571 320.4 
L 612.128571 320.4 
L 610.135714 320.4 
z
" style="fill:#ff7f0e;"/>
   </g>
   <g id="patch_87">
    <path clip-path="url(#p270ca2e829)" d="M 133.842857 320.4 
L 135.835714 320.4 
L 135.835714 195.678922 
L 133.842857 195.678922 
z
" style="fill:#2ca02c;"/>
   </g>
   <g id="patch_88">
    <path clip-path="url(#p270ca2e829)" d="M 213.557143 320.4 
L 215.55 320.4 
L 215.55 278.027115 
L 213.557143 278.027115 
z
" style="fill:#2ca02c;"/>
   </g>
   <g id="patch_89">
    <path clip-path="url(#p270ca2e829)" d="M 293.271429 320.4 
L 295.264286 320.4 
L 295.264286 311.640221 
L 293.271429 311.640221 
z
" style="fill:#2ca02c;"/>
   </g>
   <g id="patch_90">
    <path clip-path="url(#p270ca2e829)" d="M 372.985714 320.4 
L 374.978571 320.4 
L 374.978571 320.4 
L 372.985714 320.4 
z
" style="fill:#2ca02c;"/>
   </g>
   <g id="patch_91">
    <path clip-path="url(#p270ca2e829)" d="M 452.7 320.4 
L 454.692857 320.4 
L 454.692857 320.4 
L 452.7 320.4 
z
" style="fill:#2ca02c;"/>
   </g>
   <g id="patch_92">
    <path clip-path="url(#p270ca2e829)" d="M 532.414286 320.4 
L 534.407143 320.4 
L 534.407143 320.4 
L 532.414286 320.4 
z
" style="fill:#2ca02c;"/>
   </g>
   <g id="patch_93">
    <path clip-path="url(#p270ca2e829)" d="M 612.128571 320.4 
L 614.121429 320.4 
L 614.121429 320.4 
L 612.128571 320.4 
z
" style="fill:#2ca02c;"/>
   </g>
   <g id="patch_94">
    <path clip-path="url(#p270ca2e829)" d="M 135.835714 320.4 
L 137.828571 320.4 
L 137.828571 232.911901 
L 135.835714 232.911901 
z
" style="fill:#d62728;"/>
   </g>
   <g id="patch_95">
    <path clip-path="url(#p270ca2e829)" d="M 215.55 320.4 
L 217.542857 320.4 
L 217.542857 298.649421 
L 215.55 298.649421 
z
" style="fill:#d62728;"/>
   </g>
   <g id="patch_96">
    <path clip-path="url(#p270ca2e829)" d="M 295.264286 320.4 
L 297.257143 320.4 
L 297.257143 311.9693 
L 295.264286 311.9693 
z
" style="fill:#d62728;"/>
   </g>
   <g id="patch_97">
    <path clip-path="url(#p270ca2e829)" d="M 374.978571 320.4 
L 376.971429 320.4 
L 376.971429 320.4 
L 374.978571 320.4 
z
" style="fill:#d62728;"/>
   </g>
   <g id="patch_98">
    <path clip-path="url(#p270ca2e829)" d="M 454.692857 320.4 
L 456.685714 320.4 
L 456.685714 320.4 
L 454.692857 320.4 
z
" style="fill:#d62728;"/>
   </g>
   <g id="patch_99">
    <path clip-path="url(#p270ca2e829)" d="M 534.407143 320.4 
L 536.4 320.4 
L 536.4 320.4 
L 534.407143 320.4 
z
" style="fill:#d62728;"/>
   </g>
   <g id="patch_100">
    <path clip-path="url(#p270ca2e829)" d="M 614.121429 320.4 
L 616.114286 320.4 
L 616.114286 320.4 
L 614.121429 320.4 
z
" style="fill:#d62728;"/>
   </g>
   <g id="patch_101">
    <path clip-path="url(#p270ca2e829)" d="M 137.828571 320.4 
L 139.821429 320.4 
L 139.821429 142.697145 
L 137.828571 142.697145 
z
" style="fill:#9467bd;"/>
   </g>
   <g id="patch_102">
    <path clip-path="url(#p270ca2e829)" d="M 217.542857 320.4 
L 219.535714 320.4 
L 219.535714 298.712103 
L 217.542857 298.712103 
z
" style="fill:#9467bd;"/>
   </g>
   <g id="patch_103">
    <path clip-path="url(#p270ca2e829)" d="M 297.257143 320.4 
L 299.25 320.4 
L 299.25 311.561869 
L 297.257143 311.561869 
z
" style="fill:#9467bd;"/>
   </g>
   <g id="patch_104">
    <path clip-path="url(#p270ca2e829)" d="M 376.971429 320.4 
L 378.964286 320.4 
L 378.964286 320.4 
L 376.971429 320.4 
z
" style="fill:#9467bd;"/>
   </g>
   <g id="patch_105">
    <path clip-path="url(#p270ca2e829)" d="M 456.685714 320.4 
L 458.678571 320.4 
L 458.678571 320.4 
L 456.685714 320.4 
z
" style="fill:#9467bd;"/>
   </g>
   <g id="patch_106">
    <path clip-path="url(#p270ca2e829)" d="M 536.4 320.4 
L 538.392857 320.4 
L 538.392857 320.4 
L 536.4 320.4 
z
" style="fill:#9467bd;"/>
   </g>
   <g id="patch_107">
    <path clip-path="url(#p270ca2e829)" d="M 616.114286 320.4 
L 618.107143 320.4 
L 618.107143 320.4 
L 616.114286 320.4 
z
" style="fill:#9467bd;"/>
   </g>
   <g id="patch_108">
    <path clip-path="url(#p270ca2e829)" d="M 139.821429 320.4 
L 141.814286 320.4 
L 141.814286 320.4 
L 139.821429 320.4 
z
" style="fill:#8c564b;"/>
   </g>
   <g id="patch_109">
    <path clip-path="url(#p270ca2e829)" d="M 219.535714 320.4 
L 221.528571 320.4 
L 221.528571 290.17171 
L 219.535714 290.17171 
z
" style="fill:#8c564b;"/>
   </g>
   <g id="patch_110">
    <path clip-path="url(#p270ca2e829)" d="M 299.25 320.4 
L 301.242857 320.4 
L 301.242857 311.62455 
L 299.25 311.62455 
z
" style="fill:#8c564b;"/>
   </g>
   <g id="patch_111">
    <path clip-path="url(#p270ca2e829)" d="M 378.964286 320.4 
L 380.957143 320.4 
L 380.957143 320.4 
L 378.964286 320.4 
z
" style="fill:#8c564b;"/>
   </g>
   <g id="patch_112">
    <path clip-path="url(#p270ca2e829)" d="M 458.678571 320.4 
L 460.671429 320.4 
L 460.671429 320.4 
L 458.678571 320.4 
z
" style="fill:#8c564b;"/>
   </g>
   <g id="patch_113">
    <path clip-path="url(#p270ca2e829)" d="M 538.392857 320.4 
L 540.385714 320.4 
L 540.385714 320.4 
L 538.392857 320.4 
z
" style="fill:#8c564b;"/>
   </g>
   <g id="patch_114">
    <path clip-path="url(#p270ca2e829)" d="M 618.107143 320.4 
L 620.1 320.4 
L 620.1 320.4 
L 618.107143 320.4 
z
" style="fill:#8c564b;"/>
   </g>
   <g id="patch_115">
    <path clip-path="url(#p270ca2e829)" d="M 141.814286 320.4 
L 143.807143 320.4 
L 143.807143 320.4 
L 141.814286 320.4 
z
" style="fill:#e377c2;"/>
   </g>
   <g id="patch_116">
    <path clip-path="url(#p270ca2e829)" d="M 221.528571 320.4 
L 223.521429 320.4 
L 223.521429 294.496753 
L 221.528571 294.496753 
z
" style="fill:#e377c2;"/>
   </g>
   <g id="patch_117">
    <path clip-path="url(#p270ca2e829)" d="M 301.242857 320.4 
L 303.235714 320.4 
L 303.235714 311.530528 
L 301.242857 311.530528 
z
" style="fill:#e377c2;"/>
   </g>
   <g id="patch_118">
    <path clip-path="url(#p270ca2e829)" d="M 380.957143 320.4 
L 382.95 320.4 
L 382.95 320.4 
L 380.957143 320.4 
z
" style="fill:#e377c2;"/>
   </g>
   <g id="patch_119">
    <path clip-path="url(#p270ca2e829)" d="M 460.671429 320.4 
L 462.664286 320.4 
L 462.664286 320.4 
L 460.671429 320.4 
z
" style="fill:#e377c2;"/>
   </g>
   <g id="patch_120">
    <path clip-path="url(#p270ca2e829)" d="M 540.385714 320.4 
L 542.378571 320.4 
L 542.378571 320.4 
L 540.385714 320.4 
z
" style="fill:#e377c2;"/>
   </g>
   <g id="patch_121">
    <path clip-path="url(#p270ca2e829)" d="M 620.1 320.4 
L 622.092857 320.4 
L 622.092857 320.4 
L 620.1 320.4 
z
" style="fill:#e377c2;"/>
   </g>
   <g id="patch_122">
    <path clip-path="url(#p270ca2e829)" d="M 143.807143 320.4 
L 145.8 320.4 
L 145.8 320.4 
L 143.807143 320.4 
z
" style="fill:#7f7f7f;"/>
   </g>
   <g id="patch_123">
    <path clip-path="url(#p270ca2e829)" d="M 223.521429 320.4 
L 225.514286 320.4 
L 225.514286 270.787369 
L 223.521429 270.787369 
z
" style="fill:#7f7f7f;"/>
   </g>
   <g id="patch_124">
    <path clip-path="url(#p270ca2e829)" d="M 303.235714 320.4 
L 305.228571 320.4 
L 305.228571 311.546198 
L 303.235714 311.546198 
z
" style="fill:#7f7f7f;"/>
   </g>
   <g id="patch_125">
    <path clip-path="url(#p270ca2e829)" d="M 382.95 320.4 
L 384.942857 320.4 
L 384.942857 320.4 
L 382.95 320.4 
z
" style="fill:#7f7f7f;"/>
   </g>
   <g id="patch_126">
    <path clip-path="url(#p270ca2e829)" d="M 462.664286 320.4 
L 464.657143 320.4 
L 464.657143 320.4 
L 462.664286 320.4 
z
" style="fill:#7f7f7f;"/>
   </g>
   <g id="patch_127">
    <path clip-path="url(#p270ca2e829)" d="M 542.378571 320.4 
L 544.371429 320.4 
L 544.371429 320.4 
L 542.378571 320.4 
z
" style="fill:#7f7f7f;"/>
   </g>
   <g id="patch_128">
    <path clip-path="url(#p270ca2e829)" d="M 622.092857 320.4 
L 624.085714 320.4 
L 624.085714 320.4 
L 622.092857 320.4 
z
" style="fill:#7f7f7f;"/>
   </g>
   <g id="patch_129">
    <path clip-path="url(#p270ca2e829)" d="M 145.8 320.4 
L 147.792857 320.4 
L 147.792857 320.4 
L 145.8 320.4 
z
" style="fill:#bcbd22;"/>
   </g>
   <g id="patch_130">
    <path clip-path="url(#p270ca2e829)" d="M 225.514286 320.4 
L 227.507143 320.4 
L 227.507143 289.184472 
L 225.514286 289.184472 
z
" style="fill:#bcbd22;"/>
   </g>
   <g id="patch_131">
    <path clip-path="url(#p270ca2e829)" d="M 305.228571 320.4 
L 307.221429 320.4 
L 307.221429 312.000641 
L 305.228571 312.000641 
z
" style="fill:#bcbd22;"/>
   </g>
   <g id="patch_132">
    <path clip-path="url(#p270ca2e829)" d="M 384.942857 320.4 
L 386.935714 320.4 
L 386.935714 320.4 
L 384.942857 320.4 
z
" style="fill:#bcbd22;"/>
   </g>
   <g id="patch_133">
    <path clip-path="url(#p270ca2e829)" d="M 464.657143 320.4 
L 466.65 320.4 
L 466.65 320.4 
L 464.657143 320.4 
z
" style="fill:#bcbd22;"/>
   </g>
   <g id="patch_134">
    <path clip-path="url(#p270ca2e829)" d="M 544.371429 320.4 
L 546.364286 320.4 
L 546.364286 320.4 
L 544.371429 320.4 
z
" style="fill:#bcbd22;"/>
   </g>
   <g id="patch_135">
    <path clip-path="url(#p270ca2e829)" d="M 624.085714 320.4 
L 626.078571 320.4 
L 626.078571 320.4 
L 624.085714 320.4 
z
" style="fill:#bcbd22;"/>
   </g>
   <g id="patch_136">
    <path clip-path="url(#p270ca2e829)" d="M 147.792857 320.4 
L 149.785714 320.4 
L 149.785714 320.4 
L 147.792857 320.4 
z
" style="fill:#17becf;"/>
   </g>
   <g id="patch_137">
    <path clip-path="url(#p270ca2e829)" d="M 227.507143 320.4 
L 229.5 320.4 
L 229.5 289.842631 
L 227.507143 289.842631 
z
" style="fill:#17becf;"/>
   </g>
   <g id="patch_138">
    <path clip-path="url(#p270ca2e829)" d="M 307.221429 320.4 
L 309.214286 320.4 
L 309.214286 311.95363 
L 307.221429 311.95363 
z
" style="fill:#17becf;"/>
   </g>
   <g id="patch_139">
    <path clip-path="url(#p270ca2e829)" d="M 386.935714 320.4 
L 388.928571 320.4 
L 388.928571 320.4 
L 386.935714 320.4 
z
" style="fill:#17becf;"/>
   </g>
   <g id="patch_140">
    <path clip-path="url(#p270ca2e829)" d="M 466.65 320.4 
L 468.642857 320.4 
L 468.642857 320.4 
L 466.65 320.4 
z
" style="fill:#17becf;"/>
   </g>
   <g id="patch_141">
    <path clip-path="url(#p270ca2e829)" d="M 546.364286 320.4 
L 548.357143 320.4 
L 548.357143 320.4 
L 546.364286 320.4 
z
" style="fill:#17becf;"/>
   </g>
   <g id="patch_142">
    <path clip-path="url(#p270ca2e829)" d="M 626.078571 320.4 
L 628.071429 320.4 
L 628.071429 320.4 
L 626.078571 320.4 
z
" style="fill:#17becf;"/>
   </g>
   <g id="matplotlib.axis_1">
    <g id="xtick_1">
     <g id="line2d_1">
      <defs>
       <path d="M 0 0 
L 0 3.5 
" id="m557e097b1d" style="stroke:#000000;stroke-width:0.8;"/>
      </defs>
      <g>
       <use style="stroke:#000000;stroke-width:0.8;" x="129.857143" xlink:href="#m557e097b1d" y="320.4"/>
      </g>
     </g>
     <g id="text_1">
      <!-- AAH022 -->
      <defs>
       <path d="M 34.1875 63.1875 
L 20.796875 26.90625 
L 47.609375 26.90625 
z
M 28.609375 72.90625 
L 39.796875 72.90625 
L 67.578125 0 
L 57.328125 0 
L 50.6875 18.703125 
L 17.828125 18.703125 
L 11.1875 0 
L 0.78125 0 
z
" id="DejaVuSans-65"/>
       <path d="M 9.8125 72.90625 
L 19.671875 72.90625 
L 19.671875 43.015625 
L 55.515625 43.015625 
L 55.515625 72.90625 
L 65.375 72.90625 
L 65.375 0 
L 55.515625 0 
L 55.515625 34.71875 
L 19.671875 34.71875 
L 19.671875 0 
L 9.8125 0 
z
" id="DejaVuSans-72"/>
       <path d="M 31.78125 66.40625 
Q 24.171875 66.40625 20.328125 58.90625 
Q 16.5 51.421875 16.5 36.375 
Q 16.5 21.390625 20.328125 13.890625 
Q 24.171875 6.390625 31.78125 6.390625 
Q 39.453125 6.390625 43.28125 13.890625 
Q 47.125 21.390625 47.125 36.375 
Q 47.125 51.421875 43.28125 58.90625 
Q 39.453125 66.40625 31.78125 66.40625 
z
M 31.78125 74.21875 
Q 44.046875 74.21875 50.515625 64.515625 
Q 56.984375 54.828125 56.984375 36.375 
Q 56.984375 17.96875 50.515625 8.265625 
Q 44.046875 -1.421875 31.78125 -1.421875 
Q 19.53125 -1.421875 13.0625 8.265625 
Q 6.59375 17.96875 6.59375 36.375 
Q 6.59375 54.828125 13.0625 64.515625 
Q 19.53125 74.21875 31.78125 74.21875 
z
" id="DejaVuSans-48"/>
       <path d="M 19.1875 8.296875 
L 53.609375 8.296875 
L 53.609375 0 
L 7.328125 0 
L 7.328125 8.296875 
Q 12.9375 14.109375 22.625 23.890625 
Q 32.328125 33.6875 34.8125 36.53125 
Q 39.546875 41.84375 41.421875 45.53125 
Q 43.3125 49.21875 43.3125 52.78125 
Q 43.3125 58.59375 39.234375 62.25 
Q 35.15625 65.921875 28.609375 65.921875 
Q 23.96875 65.921875 18.8125 64.3125 
Q 13.671875 62.703125 7.8125 59.421875 
L 7.8125 69.390625 
Q 13.765625 71.78125 18.9375 73 
Q 24.125 74.21875 28.421875 74.21875 
Q 39.75 74.21875 46.484375 68.546875 
Q 53.21875 62.890625 53.21875 53.421875 
Q 53.21875 48.921875 51.53125 44.890625 
Q 49.859375 40.875 45.40625 35.40625 
Q 44.1875 33.984375 37.640625 27.21875 
Q 31.109375 20.453125 19.1875 8.296875 
z
" id="DejaVuSans-50"/>
      </defs>
      <g transform="translate(132.616518 367.692187)rotate(-90)scale(0.1 -0.1)">
       <use xlink:href="#DejaVuSans-65"/>
       <use x="68.439453" xlink:href="#DejaVuSans-65"/>
       <use x="136.847656" xlink:href="#DejaVuSans-72"/>
       <use x="212.042969" xlink:href="#DejaVuSans-48"/>
       <use x="275.666016" xlink:href="#DejaVuSans-50"/>
       <use x="339.289062" xlink:href="#DejaVuSans-50"/>
      </g>
     </g>
    </g>
    <g id="xtick_2">
     <g id="line2d_2">
      <g>
       <use style="stroke:#000000;stroke-width:0.8;" x="209.571429" xlink:href="#m557e097b1d" y="320.4"/>
      </g>
     </g>
     <g id="text_2">
      <!-- AAH020 -->
      <g transform="translate(212.330804 367.692187)rotate(-90)scale(0.1 -0.1)">
       <use xlink:href="#DejaVuSans-65"/>
       <use x="68.439453" xlink:href="#DejaVuSans-65"/>
       <use x="136.847656" xlink:href="#DejaVuSans-72"/>
       <use x="212.042969" xlink:href="#DejaVuSans-48"/>
       <use x="275.666016" xlink:href="#DejaVuSans-50"/>
       <use x="339.289062" xlink:href="#DejaVuSans-48"/>
      </g>
     </g>
    </g>
    <g id="xtick_3">
     <g id="line2d_3">
      <g>
       <use style="stroke:#000000;stroke-width:0.8;" x="289.285714" xlink:href="#m557e097b1d" y="320.4"/>
      </g>
     </g>
     <g id="text_3">
      <!-- AAH015 -->
      <defs>
       <path d="M 12.40625 8.296875 
L 28.515625 8.296875 
L 28.515625 63.921875 
L 10.984375 60.40625 
L 10.984375 69.390625 
L 28.421875 72.90625 
L 38.28125 72.90625 
L 38.28125 8.296875 
L 54.390625 8.296875 
L 54.390625 0 
L 12.40625 0 
z
" id="DejaVuSans-49"/>
       <path d="M 10.796875 72.90625 
L 49.515625 72.90625 
L 49.515625 64.59375 
L 19.828125 64.59375 
L 19.828125 46.734375 
Q 21.96875 47.46875 24.109375 47.828125 
Q 26.265625 48.1875 28.421875 48.1875 
Q 40.625 48.1875 47.75 41.5 
Q 54.890625 34.8125 54.890625 23.390625 
Q 54.890625 11.625 47.5625 5.09375 
Q 40.234375 -1.421875 26.90625 -1.421875 
Q 22.3125 -1.421875 17.546875 -0.640625 
Q 12.796875 0.140625 7.71875 1.703125 
L 7.71875 11.625 
Q 12.109375 9.234375 16.796875 8.0625 
Q 21.484375 6.890625 26.703125 6.890625 
Q 35.15625 6.890625 40.078125 11.328125 
Q 45.015625 15.765625 45.015625 23.390625 
Q 45.015625 31 40.078125 35.4375 
Q 35.15625 39.890625 26.703125 39.890625 
Q 22.75 39.890625 18.8125 39.015625 
Q 14.890625 38.140625 10.796875 36.28125 
z
" id="DejaVuSans-53"/>
      </defs>
      <g transform="translate(292.045089 367.692187)rotate(-90)scale(0.1 -0.1)">
       <use xlink:href="#DejaVuSans-65"/>
       <use x="68.439453" xlink:href="#DejaVuSans-65"/>
       <use x="136.847656" xlink:href="#DejaVuSans-72"/>
       <use x="212.042969" xlink:href="#DejaVuSans-48"/>
       <use x="275.666016" xlink:href="#DejaVuSans-49"/>
       <use x="339.289062" xlink:href="#DejaVuSans-53"/>
      </g>
     </g>
    </g>
    <g id="xtick_4">
     <g id="line2d_4">
      <g>
       <use style="stroke:#000000;stroke-width:0.8;" x="369" xlink:href="#m557e097b1d" y="320.4"/>
      </g>
     </g>
     <g id="text_4">
      <!-- AAH016 -->
      <defs>
       <path d="M 33.015625 40.375 
Q 26.375 40.375 22.484375 35.828125 
Q 18.609375 31.296875 18.609375 23.390625 
Q 18.609375 15.53125 22.484375 10.953125 
Q 26.375 6.390625 33.015625 6.390625 
Q 39.65625 6.390625 43.53125 10.953125 
Q 47.40625 15.53125 47.40625 23.390625 
Q 47.40625 31.296875 43.53125 35.828125 
Q 39.65625 40.375 33.015625 40.375 
z
M 52.59375 71.296875 
L 52.59375 62.3125 
Q 48.875 64.0625 45.09375 64.984375 
Q 41.3125 65.921875 37.59375 65.921875 
Q 27.828125 65.921875 22.671875 59.328125 
Q 17.53125 52.734375 16.796875 39.40625 
Q 19.671875 43.65625 24.015625 45.921875 
Q 28.375 48.1875 33.59375 48.1875 
Q 44.578125 48.1875 50.953125 41.515625 
Q 57.328125 34.859375 57.328125 23.390625 
Q 57.328125 12.15625 50.6875 5.359375 
Q 44.046875 -1.421875 33.015625 -1.421875 
Q 20.359375 -1.421875 13.671875 8.265625 
Q 6.984375 17.96875 6.984375 36.375 
Q 6.984375 53.65625 15.1875 63.9375 
Q 23.390625 74.21875 37.203125 74.21875 
Q 40.921875 74.21875 44.703125 73.484375 
Q 48.484375 72.75 52.59375 71.296875 
z
" id="DejaVuSans-54"/>
      </defs>
      <g transform="translate(371.759375 367.692187)rotate(-90)scale(0.1 -0.1)">
       <use xlink:href="#DejaVuSans-65"/>
       <use x="68.439453" xlink:href="#DejaVuSans-65"/>
       <use x="136.847656" xlink:href="#DejaVuSans-72"/>
       <use x="212.042969" xlink:href="#DejaVuSans-48"/>
       <use x="275.666016" xlink:href="#DejaVuSans-49"/>
       <use x="339.289062" xlink:href="#DejaVuSans-54"/>
      </g>
     </g>
    </g>
    <g id="xtick_5">
     <g id="line2d_5">
      <g>
       <use style="stroke:#000000;stroke-width:0.8;" x="448.714286" xlink:href="#m557e097b1d" y="320.4"/>
      </g>
     </g>
     <g id="text_5">
      <!-- AAH010 -->
      <g transform="translate(451.473661 367.692187)rotate(-90)scale(0.1 -0.1)">
       <use xlink:href="#DejaVuSans-65"/>
       <use x="68.439453" xlink:href="#DejaVuSans-65"/>
       <use x="136.847656" xlink:href="#DejaVuSans-72"/>
       <use x="212.042969" xlink:href="#DejaVuSans-48"/>
       <use x="275.666016" xlink:href="#DejaVuSans-49"/>
       <use x="339.289062" xlink:href="#DejaVuSans-48"/>
      </g>
     </g>
    </g>
    <g id="xtick_6">
     <g id="line2d_6">
      <g>
       <use style="stroke:#000000;stroke-width:0.8;" x="528.428571" xlink:href="#m557e097b1d" y="320.4"/>
      </g>
     </g>
     <g id="text_6">
      <!-- AAH014 -->
      <defs>
       <path d="M 37.796875 64.3125 
L 12.890625 25.390625 
L 37.796875 25.390625 
z
M 35.203125 72.90625 
L 47.609375 72.90625 
L 47.609375 25.390625 
L 58.015625 25.390625 
L 58.015625 17.1875 
L 47.609375 17.1875 
L 47.609375 0 
L 37.796875 0 
L 37.796875 17.1875 
L 4.890625 17.1875 
L 4.890625 26.703125 
z
" id="DejaVuSans-52"/>
      </defs>
      <g transform="translate(531.187946 367.692187)rotate(-90)scale(0.1 -0.1)">
       <use xlink:href="#DejaVuSans-65"/>
       <use x="68.439453" xlink:href="#DejaVuSans-65"/>
       <use x="136.847656" xlink:href="#DejaVuSans-72"/>
       <use x="212.042969" xlink:href="#DejaVuSans-48"/>
       <use x="275.666016" xlink:href="#DejaVuSans-49"/>
       <use x="339.289062" xlink:href="#DejaVuSans-52"/>
      </g>
     </g>
    </g>
    <g id="xtick_7">
     <g id="line2d_7">
      <g>
       <use style="stroke:#000000;stroke-width:0.8;" x="608.142857" xlink:href="#m557e097b1d" y="320.4"/>
      </g>
     </g>
     <g id="text_7">
      <!-- AAH017 -->
      <defs>
       <path d="M 8.203125 72.90625 
L 55.078125 72.90625 
L 55.078125 68.703125 
L 28.609375 0 
L 18.3125 0 
L 43.21875 64.59375 
L 8.203125 64.59375 
z
" id="DejaVuSans-55"/>
      </defs>
      <g transform="translate(610.902232 367.692187)rotate(-90)scale(0.1 -0.1)">
       <use xlink:href="#DejaVuSans-65"/>
       <use x="68.439453" xlink:href="#DejaVuSans-65"/>
       <use x="136.847656" xlink:href="#DejaVuSans-72"/>
       <use x="212.042969" xlink:href="#DejaVuSans-48"/>
       <use x="275.666016" xlink:href="#DejaVuSans-49"/>
       <use x="339.289062" xlink:href="#DejaVuSans-55"/>
      </g>
     </g>
    </g>
    <g id="text_8">
     <!-- Bug Number -->
     <defs>
      <path d="M 19.671875 34.8125 
L 19.671875 8.109375 
L 35.5 8.109375 
Q 43.453125 8.109375 47.28125 11.40625 
Q 51.125 14.703125 51.125 21.484375 
Q 51.125 28.328125 47.28125 31.5625 
Q 43.453125 34.8125 35.5 34.8125 
z
M 19.671875 64.796875 
L 19.671875 42.828125 
L 34.28125 42.828125 
Q 41.5 42.828125 45.03125 45.53125 
Q 48.578125 48.25 48.578125 53.8125 
Q 48.578125 59.328125 45.03125 62.0625 
Q 41.5 64.796875 34.28125 64.796875 
z
M 9.8125 72.90625 
L 35.015625 72.90625 
Q 46.296875 72.90625 52.390625 68.21875 
Q 58.5 63.53125 58.5 54.890625 
Q 58.5 48.1875 55.375 44.234375 
Q 52.25 40.28125 46.1875 39.3125 
Q 53.46875 37.75 57.5 32.78125 
Q 61.53125 27.828125 61.53125 20.40625 
Q 61.53125 10.640625 54.890625 5.3125 
Q 48.25 0 35.984375 0 
L 9.8125 0 
z
" id="DejaVuSans-66"/>
      <path d="M 8.5 21.578125 
L 8.5 54.6875 
L 17.484375 54.6875 
L 17.484375 21.921875 
Q 17.484375 14.15625 20.5 10.265625 
Q 23.53125 6.390625 29.59375 6.390625 
Q 36.859375 6.390625 41.078125 11.03125 
Q 45.3125 15.671875 45.3125 23.6875 
L 45.3125 54.6875 
L 54.296875 54.6875 
L 54.296875 0 
L 45.3125 0 
L 45.3125 8.40625 
Q 42.046875 3.421875 37.71875 1 
Q 33.40625 -1.421875 27.6875 -1.421875 
Q 18.265625 -1.421875 13.375 4.4375 
Q 8.5 10.296875 8.5 21.578125 
z
M 31.109375 56 
z
" id="DejaVuSans-117"/>
      <path d="M 45.40625 27.984375 
Q 45.40625 37.75 41.375 43.109375 
Q 37.359375 48.484375 30.078125 48.484375 
Q 22.859375 48.484375 18.828125 43.109375 
Q 14.796875 37.75 14.796875 27.984375 
Q 14.796875 18.265625 18.828125 12.890625 
Q 22.859375 7.515625 30.078125 7.515625 
Q 37.359375 7.515625 41.375 12.890625 
Q 45.40625 18.265625 45.40625 27.984375 
z
M 54.390625 6.78125 
Q 54.390625 -7.171875 48.1875 -13.984375 
Q 42 -20.796875 29.203125 -20.796875 
Q 24.46875 -20.796875 20.265625 -20.09375 
Q 16.0625 -19.390625 12.109375 -17.921875 
L 12.109375 -9.1875 
Q 16.0625 -11.328125 19.921875 -12.34375 
Q 23.78125 -13.375 27.78125 -13.375 
Q 36.625 -13.375 41.015625 -8.765625 
Q 45.40625 -4.15625 45.40625 5.171875 
L 45.40625 9.625 
Q 42.625 4.78125 38.28125 2.390625 
Q 33.9375 0 27.875 0 
Q 17.828125 0 11.671875 7.65625 
Q 5.515625 15.328125 5.515625 27.984375 
Q 5.515625 40.671875 11.671875 48.328125 
Q 17.828125 56 27.875 56 
Q 33.9375 56 38.28125 53.609375 
Q 42.625 51.21875 45.40625 46.390625 
L 45.40625 54.6875 
L 54.390625 54.6875 
z
" id="DejaVuSans-103"/>
      <path id="DejaVuSans-32"/>
      <path d="M 9.8125 72.90625 
L 23.09375 72.90625 
L 55.421875 11.921875 
L 55.421875 72.90625 
L 64.984375 72.90625 
L 64.984375 0 
L 51.703125 0 
L 19.390625 60.984375 
L 19.390625 0 
L 9.8125 0 
z
" id="DejaVuSans-78"/>
      <path d="M 52 44.1875 
Q 55.375 50.25 60.0625 53.125 
Q 64.75 56 71.09375 56 
Q 79.640625 56 84.28125 50.015625 
Q 88.921875 44.046875 88.921875 33.015625 
L 88.921875 0 
L 79.890625 0 
L 79.890625 32.71875 
Q 79.890625 40.578125 77.09375 44.375 
Q 74.3125 48.1875 68.609375 48.1875 
Q 61.625 48.1875 57.5625 43.546875 
Q 53.515625 38.921875 53.515625 30.90625 
L 53.515625 0 
L 44.484375 0 
L 44.484375 32.71875 
Q 44.484375 40.625 41.703125 44.40625 
Q 38.921875 48.1875 33.109375 48.1875 
Q 26.21875 48.1875 22.15625 43.53125 
Q 18.109375 38.875 18.109375 30.90625 
L 18.109375 0 
L 9.078125 0 
L 9.078125 54.6875 
L 18.109375 54.6875 
L 18.109375 46.1875 
Q 21.1875 51.21875 25.484375 53.609375 
Q 29.78125 56 35.6875 56 
Q 41.65625 56 45.828125 52.96875 
Q 50 49.953125 52 44.1875 
z
" id="DejaVuSans-109"/>
      <path d="M 48.6875 27.296875 
Q 48.6875 37.203125 44.609375 42.84375 
Q 40.53125 48.484375 33.40625 48.484375 
Q 26.265625 48.484375 22.1875 42.84375 
Q 18.109375 37.203125 18.109375 27.296875 
Q 18.109375 17.390625 22.1875 11.75 
Q 26.265625 6.109375 33.40625 6.109375 
Q 40.53125 6.109375 44.609375 11.75 
Q 48.6875 17.390625 48.6875 27.296875 
z
M 18.109375 46.390625 
Q 20.953125 51.265625 25.265625 53.625 
Q 29.59375 56 35.59375 56 
Q 45.5625 56 51.78125 48.09375 
Q 58.015625 40.1875 58.015625 27.296875 
Q 58.015625 14.40625 51.78125 6.484375 
Q 45.5625 -1.421875 35.59375 -1.421875 
Q 29.59375 -1.421875 25.265625 0.953125 
Q 20.953125 3.328125 18.109375 8.203125 
L 18.109375 0 
L 9.078125 0 
L 9.078125 75.984375 
L 18.109375 75.984375 
z
" id="DejaVuSans-98"/>
      <path d="M 56.203125 29.59375 
L 56.203125 25.203125 
L 14.890625 25.203125 
Q 15.484375 15.921875 20.484375 11.0625 
Q 25.484375 6.203125 34.421875 6.203125 
Q 39.59375 6.203125 44.453125 7.46875 
Q 49.3125 8.734375 54.109375 11.28125 
L 54.109375 2.78125 
Q 49.265625 0.734375 44.1875 -0.34375 
Q 39.109375 -1.421875 33.890625 -1.421875 
Q 20.796875 -1.421875 13.15625 6.1875 
Q 5.515625 13.8125 5.515625 26.8125 
Q 5.515625 40.234375 12.765625 48.109375 
Q 20.015625 56 32.328125 56 
Q 43.359375 56 49.78125 48.890625 
Q 56.203125 41.796875 56.203125 29.59375 
z
M 47.21875 32.234375 
Q 47.125 39.59375 43.09375 43.984375 
Q 39.0625 48.390625 32.421875 48.390625 
Q 24.90625 48.390625 20.390625 44.140625 
Q 15.875 39.890625 15.1875 32.171875 
z
" id="DejaVuSans-101"/>
      <path d="M 41.109375 46.296875 
Q 39.59375 47.171875 37.8125 47.578125 
Q 36.03125 48 33.890625 48 
Q 26.265625 48 22.1875 43.046875 
Q 18.109375 38.09375 18.109375 28.8125 
L 18.109375 0 
L 9.078125 0 
L 9.078125 54.6875 
L 18.109375 54.6875 
L 18.109375 46.1875 
Q 20.953125 51.171875 25.484375 53.578125 
Q 30.03125 56 36.53125 56 
Q 37.453125 56 38.578125 55.875 
Q 39.703125 55.765625 41.0625 55.515625 
z
" id="DejaVuSans-114"/>
     </defs>
     <g transform="translate(337.551562 379.290625)scale(0.1 -0.1)">
      <use xlink:href="#DejaVuSans-66"/>
      <use x="68.603516" xlink:href="#DejaVuSans-117"/>
      <use x="131.982422" xlink:href="#DejaVuSans-103"/>
      <use x="195.458984" xlink:href="#DejaVuSans-32"/>
      <use x="227.246094" xlink:href="#DejaVuSans-78"/>
      <use x="302.050781" xlink:href="#DejaVuSans-117"/>
      <use x="365.429688" xlink:href="#DejaVuSans-109"/>
      <use x="462.841797" xlink:href="#DejaVuSans-98"/>
      <use x="526.318359" xlink:href="#DejaVuSans-101"/>
      <use x="587.841797" xlink:href="#DejaVuSans-114"/>
     </g>
    </g>
   </g>
   <g id="matplotlib.axis_2">
    <g id="ytick_1">
     <g id="line2d_8">
      <defs>
       <path d="M 0 0 
L -3.5 0 
" id="md06a4fbc35" style="stroke:#000000;stroke-width:0.8;"/>
      </defs>
      <g>
       <use style="stroke:#000000;stroke-width:0.8;" x="90" xlink:href="#md06a4fbc35" y="320.4"/>
      </g>
     </g>
     <g id="text_9">
      <!-- 0 -->
      <g transform="translate(76.6375 324.199219)scale(0.1 -0.1)">
       <use xlink:href="#DejaVuSans-48"/>
      </g>
     </g>
    </g>
    <g id="ytick_2">
     <g id="line2d_9">
      <g>
       <use style="stroke:#000000;stroke-width:0.8;" x="90" xlink:href="#md06a4fbc35" y="289.059108"/>
      </g>
     </g>
     <g id="text_10">
      <!-- 10000 -->
      <g transform="translate(51.1875 292.858327)scale(0.1 -0.1)">
       <use xlink:href="#DejaVuSans-49"/>
       <use x="63.623047" xlink:href="#DejaVuSans-48"/>
       <use x="127.246094" xlink:href="#DejaVuSans-48"/>
       <use x="190.869141" xlink:href="#DejaVuSans-48"/>
       <use x="254.492188" xlink:href="#DejaVuSans-48"/>
      </g>
     </g>
    </g>
    <g id="ytick_3">
     <g id="line2d_10">
      <g>
       <use style="stroke:#000000;stroke-width:0.8;" x="90" xlink:href="#md06a4fbc35" y="257.718217"/>
      </g>
     </g>
     <g id="text_11">
      <!-- 20000 -->
      <g transform="translate(51.1875 261.517436)scale(0.1 -0.1)">
       <use xlink:href="#DejaVuSans-50"/>
       <use x="63.623047" xlink:href="#DejaVuSans-48"/>
       <use x="127.246094" xlink:href="#DejaVuSans-48"/>
       <use x="190.869141" xlink:href="#DejaVuSans-48"/>
       <use x="254.492188" xlink:href="#DejaVuSans-48"/>
      </g>
     </g>
    </g>
    <g id="ytick_4">
     <g id="line2d_11">
      <g>
       <use style="stroke:#000000;stroke-width:0.8;" x="90" xlink:href="#md06a4fbc35" y="226.377325"/>
      </g>
     </g>
     <g id="text_12">
      <!-- 30000 -->
      <defs>
       <path d="M 40.578125 39.3125 
Q 47.65625 37.796875 51.625 33 
Q 55.609375 28.21875 55.609375 21.1875 
Q 55.609375 10.40625 48.1875 4.484375 
Q 40.765625 -1.421875 27.09375 -1.421875 
Q 22.515625 -1.421875 17.65625 -0.515625 
Q 12.796875 0.390625 7.625 2.203125 
L 7.625 11.71875 
Q 11.71875 9.328125 16.59375 8.109375 
Q 21.484375 6.890625 26.8125 6.890625 
Q 36.078125 6.890625 40.9375 10.546875 
Q 45.796875 14.203125 45.796875 21.1875 
Q 45.796875 27.640625 41.28125 31.265625 
Q 36.765625 34.90625 28.71875 34.90625 
L 20.21875 34.90625 
L 20.21875 43.015625 
L 29.109375 43.015625 
Q 36.375 43.015625 40.234375 45.921875 
Q 44.09375 48.828125 44.09375 54.296875 
Q 44.09375 59.90625 40.109375 62.90625 
Q 36.140625 65.921875 28.71875 65.921875 
Q 24.65625 65.921875 20.015625 65.03125 
Q 15.375 64.15625 9.8125 62.3125 
L 9.8125 71.09375 
Q 15.4375 72.65625 20.34375 73.4375 
Q 25.25 74.21875 29.59375 74.21875 
Q 40.828125 74.21875 47.359375 69.109375 
Q 53.90625 64.015625 53.90625 55.328125 
Q 53.90625 49.265625 50.4375 45.09375 
Q 46.96875 40.921875 40.578125 39.3125 
z
" id="DejaVuSans-51"/>
      </defs>
      <g transform="translate(51.1875 230.176544)scale(0.1 -0.1)">
       <use xlink:href="#DejaVuSans-51"/>
       <use x="63.623047" xlink:href="#DejaVuSans-48"/>
       <use x="127.246094" xlink:href="#DejaVuSans-48"/>
       <use x="190.869141" xlink:href="#DejaVuSans-48"/>
       <use x="254.492188" xlink:href="#DejaVuSans-48"/>
      </g>
     </g>
    </g>
    <g id="ytick_5">
     <g id="line2d_12">
      <g>
       <use style="stroke:#000000;stroke-width:0.8;" x="90" xlink:href="#md06a4fbc35" y="195.036434"/>
      </g>
     </g>
     <g id="text_13">
      <!-- 40000 -->
      <g transform="translate(51.1875 198.835653)scale(0.1 -0.1)">
       <use xlink:href="#DejaVuSans-52"/>
       <use x="63.623047" xlink:href="#DejaVuSans-48"/>
       <use x="127.246094" xlink:href="#DejaVuSans-48"/>
       <use x="190.869141" xlink:href="#DejaVuSans-48"/>
       <use x="254.492188" xlink:href="#DejaVuSans-48"/>
      </g>
     </g>
    </g>
    <g id="ytick_6">
     <g id="line2d_13">
      <g>
       <use style="stroke:#000000;stroke-width:0.8;" x="90" xlink:href="#md06a4fbc35" y="163.695542"/>
      </g>
     </g>
     <g id="text_14">
      <!-- 50000 -->
      <g transform="translate(51.1875 167.494761)scale(0.1 -0.1)">
       <use xlink:href="#DejaVuSans-53"/>
       <use x="63.623047" xlink:href="#DejaVuSans-48"/>
       <use x="127.246094" xlink:href="#DejaVuSans-48"/>
       <use x="190.869141" xlink:href="#DejaVuSans-48"/>
       <use x="254.492188" xlink:href="#DejaVuSans-48"/>
      </g>
     </g>
    </g>
    <g id="ytick_7">
     <g id="line2d_14">
      <g>
       <use style="stroke:#000000;stroke-width:0.8;" x="90" xlink:href="#md06a4fbc35" y="132.354651"/>
      </g>
     </g>
     <g id="text_15">
      <!-- 60000 -->
      <g transform="translate(51.1875 136.153869)scale(0.1 -0.1)">
       <use xlink:href="#DejaVuSans-54"/>
       <use x="63.623047" xlink:href="#DejaVuSans-48"/>
       <use x="127.246094" xlink:href="#DejaVuSans-48"/>
       <use x="190.869141" xlink:href="#DejaVuSans-48"/>
       <use x="254.492188" xlink:href="#DejaVuSans-48"/>
      </g>
     </g>
    </g>
    <g id="ytick_8">
     <g id="line2d_15">
      <g>
       <use style="stroke:#000000;stroke-width:0.8;" x="90" xlink:href="#md06a4fbc35" y="101.013759"/>
      </g>
     </g>
     <g id="text_16">
      <!-- 70000 -->
      <g transform="translate(51.1875 104.812978)scale(0.1 -0.1)">
       <use xlink:href="#DejaVuSans-55"/>
       <use x="63.623047" xlink:href="#DejaVuSans-48"/>
       <use x="127.246094" xlink:href="#DejaVuSans-48"/>
       <use x="190.869141" xlink:href="#DejaVuSans-48"/>
       <use x="254.492188" xlink:href="#DejaVuSans-48"/>
      </g>
     </g>
    </g>
    <g id="ytick_9">
     <g id="line2d_16">
      <g>
       <use style="stroke:#000000;stroke-width:0.8;" x="90" xlink:href="#md06a4fbc35" y="69.672868"/>
      </g>
     </g>
     <g id="text_17">
      <!-- 80000 -->
      <defs>
       <path d="M 31.78125 34.625 
Q 24.75 34.625 20.71875 30.859375 
Q 16.703125 27.09375 16.703125 20.515625 
Q 16.703125 13.921875 20.71875 10.15625 
Q 24.75 6.390625 31.78125 6.390625 
Q 38.8125 6.390625 42.859375 10.171875 
Q 46.921875 13.96875 46.921875 20.515625 
Q 46.921875 27.09375 42.890625 30.859375 
Q 38.875 34.625 31.78125 34.625 
z
M 21.921875 38.8125 
Q 15.578125 40.375 12.03125 44.71875 
Q 8.5 49.078125 8.5 55.328125 
Q 8.5 64.0625 14.71875 69.140625 
Q 20.953125 74.21875 31.78125 74.21875 
Q 42.671875 74.21875 48.875 69.140625 
Q 55.078125 64.0625 55.078125 55.328125 
Q 55.078125 49.078125 51.53125 44.71875 
Q 48 40.375 41.703125 38.8125 
Q 48.828125 37.15625 52.796875 32.3125 
Q 56.78125 27.484375 56.78125 20.515625 
Q 56.78125 9.90625 50.3125 4.234375 
Q 43.84375 -1.421875 31.78125 -1.421875 
Q 19.734375 -1.421875 13.25 4.234375 
Q 6.78125 9.90625 6.78125 20.515625 
Q 6.78125 27.484375 10.78125 32.3125 
Q 14.796875 37.15625 21.921875 38.8125 
z
M 18.3125 54.390625 
Q 18.3125 48.734375 21.84375 45.5625 
Q 25.390625 42.390625 31.78125 42.390625 
Q 38.140625 42.390625 41.71875 45.5625 
Q 45.3125 48.734375 45.3125 54.390625 
Q 45.3125 60.0625 41.71875 63.234375 
Q 38.140625 66.40625 31.78125 66.40625 
Q 25.390625 66.40625 21.84375 63.234375 
Q 18.3125 60.0625 18.3125 54.390625 
z
" id="DejaVuSans-56"/>
      </defs>
      <g transform="translate(51.1875 73.472086)scale(0.1 -0.1)">
       <use xlink:href="#DejaVuSans-56"/>
       <use x="63.623047" xlink:href="#DejaVuSans-48"/>
       <use x="127.246094" xlink:href="#DejaVuSans-48"/>
       <use x="190.869141" xlink:href="#DejaVuSans-48"/>
       <use x="254.492188" xlink:href="#DejaVuSans-48"/>
      </g>
     </g>
    </g>
    <g id="text_18">
     <!-- Time -->
     <defs>
      <path d="M -0.296875 72.90625 
L 61.375 72.90625 
L 61.375 64.59375 
L 35.5 64.59375 
L 35.5 0 
L 25.59375 0 
L 25.59375 64.59375 
L -0.296875 64.59375 
z
" id="DejaVuSans-84"/>
      <path d="M 9.421875 54.6875 
L 18.40625 54.6875 
L 18.40625 0 
L 9.421875 0 
z
M 9.421875 75.984375 
L 18.40625 75.984375 
L 18.40625 64.59375 
L 9.421875 64.59375 
z
" id="DejaVuSans-105"/>
     </defs>
     <g transform="translate(45.107813 194.1875)rotate(-90)scale(0.1 -0.1)">
      <use xlink:href="#DejaVuSans-84"/>
      <use x="61.037109" xlink:href="#DejaVuSans-105"/>
      <use x="88.820312" xlink:href="#DejaVuSans-109"/>
      <use x="186.232422" xlink:href="#DejaVuSans-101"/>
     </g>
    </g>
   </g>
   <g id="patch_143">
    <path d="M 90 320.4 
L 90 43.2 
" style="fill:none;stroke:#000000;stroke-linecap:square;stroke-linejoin:miter;stroke-width:0.8;"/>
   </g>
   <g id="patch_144">
    <path d="M 648 320.4 
L 648 43.2 
" style="fill:none;stroke:#000000;stroke-linecap:square;stroke-linejoin:miter;stroke-width:0.8;"/>
   </g>
   <g id="patch_145">
    <path d="M 90 320.4 
L 648 320.4 
" style="fill:none;stroke:#000000;stroke-linecap:square;stroke-linejoin:miter;stroke-width:0.8;"/>
   </g>
   <g id="patch_146">
    <path d="M 90 43.2 
L 648 43.2 
" style="fill:none;stroke:#000000;stroke-linecap:square;stroke-linejoin:miter;stroke-width:0.8;"/>
   </g>
   <g id="text_19">
    <!-- triggered. Fuzzer: fairfuzz. Library:libtiff. For different campaigns -->
    <defs>
     <path d="M 18.3125 70.21875 
L 18.3125 54.6875 
L 36.8125 54.6875 
L 36.8125 47.703125 
L 18.3125 47.703125 
L 18.3125 18.015625 
Q 18.3125 11.328125 20.140625 9.421875 
Q 21.96875 7.515625 27.59375 7.515625 
L 36.8125 7.515625 
L 36.8125 0 
L 27.59375 0 
Q 17.1875 0 13.234375 3.875 
Q 9.28125 7.765625 9.28125 18.015625 
L 9.28125 47.703125 
L 2.6875 47.703125 
L 2.6875 54.6875 
L 9.28125 54.6875 
L 9.28125 70.21875 
z
" id="DejaVuSans-116"/>
     <path d="M 45.40625 46.390625 
L 45.40625 75.984375 
L 54.390625 75.984375 
L 54.390625 0 
L 45.40625 0 
L 45.40625 8.203125 
Q 42.578125 3.328125 38.25 0.953125 
Q 33.9375 -1.421875 27.875 -1.421875 
Q 17.96875 -1.421875 11.734375 6.484375 
Q 5.515625 14.40625 5.515625 27.296875 
Q 5.515625 40.1875 11.734375 48.09375 
Q 17.96875 56 27.875 56 
Q 33.9375 56 38.25 53.625 
Q 42.578125 51.265625 45.40625 46.390625 
z
M 14.796875 27.296875 
Q 14.796875 17.390625 18.875 11.75 
Q 22.953125 6.109375 30.078125 6.109375 
Q 37.203125 6.109375 41.296875 11.75 
Q 45.40625 17.390625 45.40625 27.296875 
Q 45.40625 37.203125 41.296875 42.84375 
Q 37.203125 48.484375 30.078125 48.484375 
Q 22.953125 48.484375 18.875 42.84375 
Q 14.796875 37.203125 14.796875 27.296875 
z
" id="DejaVuSans-100"/>
     <path d="M 10.6875 12.40625 
L 21 12.40625 
L 21 0 
L 10.6875 0 
z
" id="DejaVuSans-46"/>
     <path d="M 9.8125 72.90625 
L 51.703125 72.90625 
L 51.703125 64.59375 
L 19.671875 64.59375 
L 19.671875 43.109375 
L 48.578125 43.109375 
L 48.578125 34.8125 
L 19.671875 34.8125 
L 19.671875 0 
L 9.8125 0 
z
" id="DejaVuSans-70"/>
     <path d="M 5.515625 54.6875 
L 48.1875 54.6875 
L 48.1875 46.484375 
L 14.40625 7.171875 
L 48.1875 7.171875 
L 48.1875 0 
L 4.296875 0 
L 4.296875 8.203125 
L 38.09375 47.515625 
L 5.515625 47.515625 
z
" id="DejaVuSans-122"/>
     <path d="M 11.71875 12.40625 
L 22.015625 12.40625 
L 22.015625 0 
L 11.71875 0 
z
M 11.71875 51.703125 
L 22.015625 51.703125 
L 22.015625 39.3125 
L 11.71875 39.3125 
z
" id="DejaVuSans-58"/>
     <path d="M 37.109375 75.984375 
L 37.109375 68.5 
L 28.515625 68.5 
Q 23.6875 68.5 21.796875 66.546875 
Q 19.921875 64.59375 19.921875 59.515625 
L 19.921875 54.6875 
L 34.71875 54.6875 
L 34.71875 47.703125 
L 19.921875 47.703125 
L 19.921875 0 
L 10.890625 0 
L 10.890625 47.703125 
L 2.296875 47.703125 
L 2.296875 54.6875 
L 10.890625 54.6875 
L 10.890625 58.5 
Q 10.890625 67.625 15.140625 71.796875 
Q 19.390625 75.984375 28.609375 75.984375 
z
" id="DejaVuSans-102"/>
     <path d="M 34.28125 27.484375 
Q 23.390625 27.484375 19.1875 25 
Q 14.984375 22.515625 14.984375 16.5 
Q 14.984375 11.71875 18.140625 8.90625 
Q 21.296875 6.109375 26.703125 6.109375 
Q 34.1875 6.109375 38.703125 11.40625 
Q 43.21875 16.703125 43.21875 25.484375 
L 43.21875 27.484375 
z
M 52.203125 31.203125 
L 52.203125 0 
L 43.21875 0 
L 43.21875 8.296875 
Q 40.140625 3.328125 35.546875 0.953125 
Q 30.953125 -1.421875 24.3125 -1.421875 
Q 15.921875 -1.421875 10.953125 3.296875 
Q 6 8.015625 6 15.921875 
Q 6 25.140625 12.171875 29.828125 
Q 18.359375 34.515625 30.609375 34.515625 
L 43.21875 34.515625 
L 43.21875 35.40625 
Q 43.21875 41.609375 39.140625 45 
Q 35.0625 48.390625 27.6875 48.390625 
Q 23 48.390625 18.546875 47.265625 
Q 14.109375 46.140625 10.015625 43.890625 
L 10.015625 52.203125 
Q 14.9375 54.109375 19.578125 55.046875 
Q 24.21875 56 28.609375 56 
Q 40.484375 56 46.34375 49.84375 
Q 52.203125 43.703125 52.203125 31.203125 
z
" id="DejaVuSans-97"/>
     <path d="M 9.8125 72.90625 
L 19.671875 72.90625 
L 19.671875 8.296875 
L 55.171875 8.296875 
L 55.171875 0 
L 9.8125 0 
z
" id="DejaVuSans-76"/>
     <path d="M 32.171875 -5.078125 
Q 28.375 -14.84375 24.75 -17.8125 
Q 21.140625 -20.796875 15.09375 -20.796875 
L 7.90625 -20.796875 
L 7.90625 -13.28125 
L 13.1875 -13.28125 
Q 16.890625 -13.28125 18.9375 -11.515625 
Q 21 -9.765625 23.484375 -3.21875 
L 25.09375 0.875 
L 2.984375 54.6875 
L 12.5 54.6875 
L 29.59375 11.921875 
L 46.6875 54.6875 
L 56.203125 54.6875 
z
" id="DejaVuSans-121"/>
     <path d="M 9.421875 75.984375 
L 18.40625 75.984375 
L 18.40625 0 
L 9.421875 0 
z
" id="DejaVuSans-108"/>
     <path d="M 30.609375 48.390625 
Q 23.390625 48.390625 19.1875 42.75 
Q 14.984375 37.109375 14.984375 27.296875 
Q 14.984375 17.484375 19.15625 11.84375 
Q 23.34375 6.203125 30.609375 6.203125 
Q 37.796875 6.203125 41.984375 11.859375 
Q 46.1875 17.53125 46.1875 27.296875 
Q 46.1875 37.015625 41.984375 42.703125 
Q 37.796875 48.390625 30.609375 48.390625 
z
M 30.609375 56 
Q 42.328125 56 49.015625 48.375 
Q 55.71875 40.765625 55.71875 27.296875 
Q 55.71875 13.875 49.015625 6.21875 
Q 42.328125 -1.421875 30.609375 -1.421875 
Q 18.84375 -1.421875 12.171875 6.21875 
Q 5.515625 13.875 5.515625 27.296875 
Q 5.515625 40.765625 12.171875 48.375 
Q 18.84375 56 30.609375 56 
z
" id="DejaVuSans-111"/>
     <path d="M 54.890625 33.015625 
L 54.890625 0 
L 45.90625 0 
L 45.90625 32.71875 
Q 45.90625 40.484375 42.875 44.328125 
Q 39.84375 48.1875 33.796875 48.1875 
Q 26.515625 48.1875 22.3125 43.546875 
Q 18.109375 38.921875 18.109375 30.90625 
L 18.109375 0 
L 9.078125 0 
L 9.078125 54.6875 
L 18.109375 54.6875 
L 18.109375 46.1875 
Q 21.34375 51.125 25.703125 53.5625 
Q 30.078125 56 35.796875 56 
Q 45.21875 56 50.046875 50.171875 
Q 54.890625 44.34375 54.890625 33.015625 
z
" id="DejaVuSans-110"/>
     <path d="M 48.78125 52.59375 
L 48.78125 44.1875 
Q 44.96875 46.296875 41.140625 47.34375 
Q 37.3125 48.390625 33.40625 48.390625 
Q 24.65625 48.390625 19.8125 42.84375 
Q 14.984375 37.3125 14.984375 27.296875 
Q 14.984375 17.28125 19.8125 11.734375 
Q 24.65625 6.203125 33.40625 6.203125 
Q 37.3125 6.203125 41.140625 7.25 
Q 44.96875 8.296875 48.78125 10.40625 
L 48.78125 2.09375 
Q 45.015625 0.34375 40.984375 -0.53125 
Q 36.96875 -1.421875 32.421875 -1.421875 
Q 20.0625 -1.421875 12.78125 6.34375 
Q 5.515625 14.109375 5.515625 27.296875 
Q 5.515625 40.671875 12.859375 48.328125 
Q 20.21875 56 33.015625 56 
Q 37.15625 56 41.109375 55.140625 
Q 45.0625 54.296875 48.78125 52.59375 
z
" id="DejaVuSans-99"/>
     <path d="M 18.109375 8.203125 
L 18.109375 -20.796875 
L 9.078125 -20.796875 
L 9.078125 54.6875 
L 18.109375 54.6875 
L 18.109375 46.390625 
Q 20.953125 51.265625 25.265625 53.625 
Q 29.59375 56 35.59375 56 
Q 45.5625 56 51.78125 48.09375 
Q 58.015625 40.1875 58.015625 27.296875 
Q 58.015625 14.40625 51.78125 6.484375 
Q 45.5625 -1.421875 35.59375 -1.421875 
Q 29.59375 -1.421875 25.265625 0.953125 
Q 20.953125 3.328125 18.109375 8.203125 
z
M 48.6875 27.296875 
Q 48.6875 37.203125 44.609375 42.84375 
Q 40.53125 48.484375 33.40625 48.484375 
Q 26.265625 48.484375 22.1875 42.84375 
Q 18.109375 37.203125 18.109375 27.296875 
Q 18.109375 17.390625 22.1875 11.75 
Q 26.265625 6.109375 33.40625 6.109375 
Q 40.53125 6.109375 44.609375 11.75 
Q 48.6875 17.390625 48.6875 27.296875 
z
" id="DejaVuSans-112"/>
     <path d="M 44.28125 53.078125 
L 44.28125 44.578125 
Q 40.484375 46.53125 36.375 47.5 
Q 32.28125 48.484375 27.875 48.484375 
Q 21.1875 48.484375 17.84375 46.4375 
Q 14.5 44.390625 14.5 40.28125 
Q 14.5 37.15625 16.890625 35.375 
Q 19.28125 33.59375 26.515625 31.984375 
L 29.59375 31.296875 
Q 39.15625 29.25 43.1875 25.515625 
Q 47.21875 21.78125 47.21875 15.09375 
Q 47.21875 7.46875 41.1875 3.015625 
Q 35.15625 -1.421875 24.609375 -1.421875 
Q 20.21875 -1.421875 15.453125 -0.5625 
Q 10.6875 0.296875 5.421875 2 
L 5.421875 11.28125 
Q 10.40625 8.6875 15.234375 7.390625 
Q 20.0625 6.109375 24.8125 6.109375 
Q 31.15625 6.109375 34.5625 8.28125 
Q 37.984375 10.453125 37.984375 14.40625 
Q 37.984375 18.0625 35.515625 20.015625 
Q 33.0625 21.96875 24.703125 23.78125 
L 21.578125 24.515625 
Q 13.234375 26.265625 9.515625 29.90625 
Q 5.8125 33.546875 5.8125 39.890625 
Q 5.8125 47.609375 11.28125 51.796875 
Q 16.75 56 26.8125 56 
Q 31.78125 56 36.171875 55.265625 
Q 40.578125 54.546875 44.28125 53.078125 
z
" id="DejaVuSans-115"/>
    </defs>
    <g transform="translate(173.841563 37.2)scale(0.12 -0.12)">
     <use xlink:href="#DejaVuSans-116"/>
     <use x="39.208984" xlink:href="#DejaVuSans-114"/>
     <use x="80.322266" xlink:href="#DejaVuSans-105"/>
     <use x="108.105469" xlink:href="#DejaVuSans-103"/>
     <use x="171.582031" xlink:href="#DejaVuSans-103"/>
     <use x="235.058594" xlink:href="#DejaVuSans-101"/>
     <use x="296.582031" xlink:href="#DejaVuSans-114"/>
     <use x="337.664062" xlink:href="#DejaVuSans-101"/>
     <use x="399.1875" xlink:href="#DejaVuSans-100"/>
     <use x="462.664062" xlink:href="#DejaVuSans-46"/>
     <use x="494.451172" xlink:href="#DejaVuSans-32"/>
     <use x="526.238281" xlink:href="#DejaVuSans-70"/>
     <use x="583.679688" xlink:href="#DejaVuSans-117"/>
     <use x="647.058594" xlink:href="#DejaVuSans-122"/>
     <use x="699.548828" xlink:href="#DejaVuSans-122"/>
     <use x="752.039062" xlink:href="#DejaVuSans-101"/>
     <use x="813.5625" xlink:href="#DejaVuSans-114"/>
     <use x="854.660156" xlink:href="#DejaVuSans-58"/>
     <use x="888.351562" xlink:href="#DejaVuSans-32"/>
     <use x="920.138672" xlink:href="#DejaVuSans-102"/>
     <use x="955.34375" xlink:href="#DejaVuSans-97"/>
     <use x="1016.623047" xlink:href="#DejaVuSans-105"/>
     <use x="1044.40625" xlink:href="#DejaVuSans-114"/>
     <use x="1085.519531" xlink:href="#DejaVuSans-102"/>
     <use x="1120.724609" xlink:href="#DejaVuSans-117"/>
     <use x="1184.103516" xlink:href="#DejaVuSans-122"/>
     <use x="1236.59375" xlink:href="#DejaVuSans-122"/>
     <use x="1289.083984" xlink:href="#DejaVuSans-46"/>
     <use x="1320.871094" xlink:href="#DejaVuSans-32"/>
     <use x="1352.658203" xlink:href="#DejaVuSans-76"/>
     <use x="1408.371094" xlink:href="#DejaVuSans-105"/>
     <use x="1436.154297" xlink:href="#DejaVuSans-98"/>
     <use x="1499.630859" xlink:href="#DejaVuSans-114"/>
     <use x="1540.744141" xlink:href="#DejaVuSans-97"/>
     <use x="1602.023438" xlink:href="#DejaVuSans-114"/>
     <use x="1643.136719" xlink:href="#DejaVuSans-121"/>
     <use x="1702.207031" xlink:href="#DejaVuSans-58"/>
     <use x="1735.898438" xlink:href="#DejaVuSans-108"/>
     <use x="1763.681641" xlink:href="#DejaVuSans-105"/>
     <use x="1791.464844" xlink:href="#DejaVuSans-98"/>
     <use x="1854.941406" xlink:href="#DejaVuSans-116"/>
     <use x="1894.150391" xlink:href="#DejaVuSans-105"/>
     <use x="1921.933594" xlink:href="#DejaVuSans-102"/>
     <use x="1957.138672" xlink:href="#DejaVuSans-102"/>
     <use x="1992.234375" xlink:href="#DejaVuSans-46"/>
     <use x="2024.021484" xlink:href="#DejaVuSans-32"/>
     <use x="2055.808594" xlink:href="#DejaVuSans-70"/>
     <use x="2113.28125" xlink:href="#DejaVuSans-111"/>
     <use x="2174.462891" xlink:href="#DejaVuSans-114"/>
     <use x="2215.576172" xlink:href="#DejaVuSans-32"/>
     <use x="2247.363281" xlink:href="#DejaVuSans-100"/>
     <use x="2310.839844" xlink:href="#DejaVuSans-105"/>
     <use x="2338.623047" xlink:href="#DejaVuSans-102"/>
     <use x="2373.828125" xlink:href="#DejaVuSans-102"/>
     <use x="2409.033203" xlink:href="#DejaVuSans-101"/>
     <use x="2470.556641" xlink:href="#DejaVuSans-114"/>
     <use x="2511.638672" xlink:href="#DejaVuSans-101"/>
     <use x="2573.162109" xlink:href="#DejaVuSans-110"/>
     <use x="2636.541016" xlink:href="#DejaVuSans-116"/>
     <use x="2675.75" xlink:href="#DejaVuSans-32"/>
     <use x="2707.537109" xlink:href="#DejaVuSans-99"/>
     <use x="2762.517578" xlink:href="#DejaVuSans-97"/>
     <use x="2823.796875" xlink:href="#DejaVuSans-109"/>
     <use x="2921.208984" xlink:href="#DejaVuSans-112"/>
     <use x="2984.685547" xlink:href="#DejaVuSans-97"/>
     <use x="3045.964844" xlink:href="#DejaVuSans-105"/>
     <use x="3073.748047" xlink:href="#DejaVuSans-103"/>
     <use x="3137.224609" xlink:href="#DejaVuSans-110"/>
     <use x="3200.603516" xlink:href="#DejaVuSans-115"/>
    </g>
   </g>
  </g>
 </g>
 <defs>
  <clipPath id="p270ca2e829">
   <rect height="277.2" width="558" x="90" y="43.2"/>
  </clipPath>
 </defs>
</svg>
