<?xml version="1.0" encoding="utf-8" standalone="no"?>
<!DOCTYPE svg PUBLIC "-//W3C//DTD SVG 1.1//EN"
  "http://www.w3.org/Graphics/SVG/1.1/DTD/svg11.dtd">
<!-- Created with matplotlib (https://matplotlib.org/) -->
<svg height="720pt" version="1.1" viewBox="0 0 864 720" width="864pt" xmlns="http://www.w3.org/2000/svg" xmlns:xlink="http://www.w3.org/1999/xlink">
 <defs>
  <style type="text/css">
*{stroke-linecap:butt;stroke-linejoin:round;}
  </style>
 </defs>
 <g id="figure_1">
  <g id="patch_1">
   <path d="M 0 720 
L 864 720 
L 864 0 
L 0 0 
z
" style="fill:#ffffff;"/>
  </g>
  <g id="axes_1">
   <g id="patch_2">
    <path d="M 108 640.8 
L 777.6 640.8 
L 777.6 86.4 
L 108 86.4 
z
" style="fill:#ffffff;"/>
   </g>
   <g id="patch_3">
    <path clip-path="url(#pb964f4aed6)" d="M 124.74 640.8 
L 126.414 640.8 
L 126.414 640.634093 
L 124.74 640.634093 
z
" style="fill:#1f77b4;"/>
   </g>
   <g id="patch_4">
    <path clip-path="url(#pb964f4aed6)" d="M 191.7 640.8 
L 193.374 640.8 
L 193.374 640.634093 
L 191.7 640.634093 
z
" style="fill:#1f77b4;"/>
   </g>
   <g id="patch_5">
    <path clip-path="url(#pb964f4aed6)" d="M 258.66 640.8 
L 260.334 640.8 
L 260.334 640.634093 
L 258.66 640.634093 
z
" style="fill:#1f77b4;"/>
   </g>
   <g id="patch_6">
    <path clip-path="url(#pb964f4aed6)" d="M 325.62 640.8 
L 327.294 640.8 
L 327.294 640.717046 
L 325.62 640.717046 
z
" style="fill:#1f77b4;"/>
   </g>
   <g id="patch_7">
    <path clip-path="url(#pb964f4aed6)" d="M 392.58 640.8 
L 394.254 640.8 
L 394.254 640.634093 
L 392.58 640.634093 
z
" style="fill:#1f77b4;"/>
   </g>
   <g id="patch_8">
    <path clip-path="url(#pb964f4aed6)" d="M 459.54 640.8 
L 461.214 640.8 
L 461.214 640.634093 
L 459.54 640.634093 
z
" style="fill:#1f77b4;"/>
   </g>
   <g id="patch_9">
    <path clip-path="url(#pb964f4aed6)" d="M 526.5 640.8 
L 528.174 640.8 
L 528.174 640.634093 
L 526.5 640.634093 
z
" style="fill:#1f77b4;"/>
   </g>
   <g id="patch_10">
    <path clip-path="url(#pb964f4aed6)" d="M 593.46 640.8 
L 595.134 640.8 
L 595.134 640.302278 
L 593.46 640.302278 
z
" style="fill:#1f77b4;"/>
   </g>
   <g id="patch_11">
    <path clip-path="url(#pb964f4aed6)" d="M 660.42 640.8 
L 662.094 640.8 
L 662.094 640.634093 
L 660.42 640.634093 
z
" style="fill:#1f77b4;"/>
   </g>
   <g id="patch_12">
    <path clip-path="url(#pb964f4aed6)" d="M 727.38 640.8 
L 729.054 640.8 
L 729.054 112.8 
L 727.38 112.8 
z
" style="fill:#1f77b4;"/>
   </g>
   <g id="patch_13">
    <path clip-path="url(#pb964f4aed6)" d="M 126.414 640.8 
L 128.088 640.8 
L 128.088 640.634093 
L 126.414 640.634093 
z
" style="fill:#ff7f0e;"/>
   </g>
   <g id="patch_14">
    <path clip-path="url(#pb964f4aed6)" d="M 193.374 640.8 
L 195.048 640.8 
L 195.048 640.634093 
L 193.374 640.634093 
z
" style="fill:#ff7f0e;"/>
   </g>
   <g id="patch_15">
    <path clip-path="url(#pb964f4aed6)" d="M 260.334 640.8 
L 262.008 640.8 
L 262.008 640.634093 
L 260.334 640.634093 
z
" style="fill:#ff7f0e;"/>
   </g>
   <g id="patch_16">
    <path clip-path="url(#pb964f4aed6)" d="M 327.294 640.8 
L 328.968 640.8 
L 328.968 640.717046 
L 327.294 640.717046 
z
" style="fill:#ff7f0e;"/>
   </g>
   <g id="patch_17">
    <path clip-path="url(#pb964f4aed6)" d="M 394.254 640.8 
L 395.928 640.8 
L 395.928 640.634093 
L 394.254 640.634093 
z
" style="fill:#ff7f0e;"/>
   </g>
   <g id="patch_18">
    <path clip-path="url(#pb964f4aed6)" d="M 461.214 640.8 
L 462.888 640.8 
L 462.888 640.634093 
L 461.214 640.634093 
z
" style="fill:#ff7f0e;"/>
   </g>
   <g id="patch_19">
    <path clip-path="url(#pb964f4aed6)" d="M 528.174 640.8 
L 529.848 640.8 
L 529.848 640.634093 
L 528.174 640.634093 
z
" style="fill:#ff7f0e;"/>
   </g>
   <g id="patch_20">
    <path clip-path="url(#pb964f4aed6)" d="M 595.134 640.8 
L 596.808 640.8 
L 596.808 640.219324 
L 595.134 640.219324 
z
" style="fill:#ff7f0e;"/>
   </g>
   <g id="patch_21">
    <path clip-path="url(#pb964f4aed6)" d="M 662.094 640.8 
L 663.768 640.8 
L 663.768 640.634093 
L 662.094 640.634093 
z
" style="fill:#ff7f0e;"/>
   </g>
   <g id="patch_22">
    <path clip-path="url(#pb964f4aed6)" d="M 729.054 640.8 
L 730.728 640.8 
L 730.728 640.8 
L 729.054 640.8 
z
" style="fill:#ff7f0e;"/>
   </g>
   <g id="patch_23">
    <path clip-path="url(#pb964f4aed6)" d="M 128.088 640.8 
L 129.762 640.8 
L 129.762 640.634093 
L 128.088 640.634093 
z
" style="fill:#2ca02c;"/>
   </g>
   <g id="patch_24">
    <path clip-path="url(#pb964f4aed6)" d="M 195.048 640.8 
L 196.722 640.8 
L 196.722 640.634093 
L 195.048 640.634093 
z
" style="fill:#2ca02c;"/>
   </g>
   <g id="patch_25">
    <path clip-path="url(#pb964f4aed6)" d="M 262.008 640.8 
L 263.682 640.8 
L 263.682 640.634093 
L 262.008 640.634093 
z
" style="fill:#2ca02c;"/>
   </g>
   <g id="patch_26">
    <path clip-path="url(#pb964f4aed6)" d="M 328.968 640.8 
L 330.642 640.8 
L 330.642 640.717046 
L 328.968 640.717046 
z
" style="fill:#2ca02c;"/>
   </g>
   <g id="patch_27">
    <path clip-path="url(#pb964f4aed6)" d="M 395.928 640.8 
L 397.602 640.8 
L 397.602 640.634093 
L 395.928 640.634093 
z
" style="fill:#2ca02c;"/>
   </g>
   <g id="patch_28">
    <path clip-path="url(#pb964f4aed6)" d="M 462.888 640.8 
L 464.562 640.8 
L 464.562 640.634093 
L 462.888 640.634093 
z
" style="fill:#2ca02c;"/>
   </g>
   <g id="patch_29">
    <path clip-path="url(#pb964f4aed6)" d="M 529.848 640.8 
L 531.522 640.8 
L 531.522 640.634093 
L 529.848 640.634093 
z
" style="fill:#2ca02c;"/>
   </g>
   <g id="patch_30">
    <path clip-path="url(#pb964f4aed6)" d="M 596.808 640.8 
L 598.482 640.8 
L 598.482 640.219324 
L 596.808 640.219324 
z
" style="fill:#2ca02c;"/>
   </g>
   <g id="patch_31">
    <path clip-path="url(#pb964f4aed6)" d="M 663.768 640.8 
L 665.442 640.8 
L 665.442 640.634093 
L 663.768 640.634093 
z
" style="fill:#2ca02c;"/>
   </g>
   <g id="patch_32">
    <path clip-path="url(#pb964f4aed6)" d="M 730.728 640.8 
L 732.402 640.8 
L 732.402 640.8 
L 730.728 640.8 
z
" style="fill:#2ca02c;"/>
   </g>
   <g id="patch_33">
    <path clip-path="url(#pb964f4aed6)" d="M 129.762 640.8 
L 131.436 640.8 
L 131.436 640.634093 
L 129.762 640.634093 
z
" style="fill:#d62728;"/>
   </g>
   <g id="patch_34">
    <path clip-path="url(#pb964f4aed6)" d="M 196.722 640.8 
L 198.396 640.8 
L 198.396 640.634093 
L 196.722 640.634093 
z
" style="fill:#d62728;"/>
   </g>
   <g id="patch_35">
    <path clip-path="url(#pb964f4aed6)" d="M 263.682 640.8 
L 265.356 640.8 
L 265.356 640.634093 
L 263.682 640.634093 
z
" style="fill:#d62728;"/>
   </g>
   <g id="patch_36">
    <path clip-path="url(#pb964f4aed6)" d="M 330.642 640.8 
L 332.316 640.8 
L 332.316 640.717046 
L 330.642 640.717046 
z
" style="fill:#d62728;"/>
   </g>
   <g id="patch_37">
    <path clip-path="url(#pb964f4aed6)" d="M 397.602 640.8 
L 399.276 640.8 
L 399.276 640.634093 
L 397.602 640.634093 
z
" style="fill:#d62728;"/>
   </g>
   <g id="patch_38">
    <path clip-path="url(#pb964f4aed6)" d="M 464.562 640.8 
L 466.236 640.8 
L 466.236 640.634093 
L 464.562 640.634093 
z
" style="fill:#d62728;"/>
   </g>
   <g id="patch_39">
    <path clip-path="url(#pb964f4aed6)" d="M 531.522 640.8 
L 533.196 640.8 
L 533.196 640.634093 
L 531.522 640.634093 
z
" style="fill:#d62728;"/>
   </g>
   <g id="patch_40">
    <path clip-path="url(#pb964f4aed6)" d="M 598.482 640.8 
L 600.156 640.8 
L 600.156 640.219324 
L 598.482 640.219324 
z
" style="fill:#d62728;"/>
   </g>
   <g id="patch_41">
    <path clip-path="url(#pb964f4aed6)" d="M 665.442 640.8 
L 667.116 640.8 
L 667.116 640.634093 
L 665.442 640.634093 
z
" style="fill:#d62728;"/>
   </g>
   <g id="patch_42">
    <path clip-path="url(#pb964f4aed6)" d="M 732.402 640.8 
L 734.076 640.8 
L 734.076 640.8 
L 732.402 640.8 
z
" style="fill:#d62728;"/>
   </g>
   <g id="patch_43">
    <path clip-path="url(#pb964f4aed6)" d="M 131.436 640.8 
L 133.11 640.8 
L 133.11 640.634093 
L 131.436 640.634093 
z
" style="fill:#9467bd;"/>
   </g>
   <g id="patch_44">
    <path clip-path="url(#pb964f4aed6)" d="M 198.396 640.8 
L 200.07 640.8 
L 200.07 640.634093 
L 198.396 640.634093 
z
" style="fill:#9467bd;"/>
   </g>
   <g id="patch_45">
    <path clip-path="url(#pb964f4aed6)" d="M 265.356 640.8 
L 267.03 640.8 
L 267.03 640.634093 
L 265.356 640.634093 
z
" style="fill:#9467bd;"/>
   </g>
   <g id="patch_46">
    <path clip-path="url(#pb964f4aed6)" d="M 332.316 640.8 
L 333.99 640.8 
L 333.99 640.717046 
L 332.316 640.717046 
z
" style="fill:#9467bd;"/>
   </g>
   <g id="patch_47">
    <path clip-path="url(#pb964f4aed6)" d="M 399.276 640.8 
L 400.95 640.8 
L 400.95 640.634093 
L 399.276 640.634093 
z
" style="fill:#9467bd;"/>
   </g>
   <g id="patch_48">
    <path clip-path="url(#pb964f4aed6)" d="M 466.236 640.8 
L 467.91 640.8 
L 467.91 640.634093 
L 466.236 640.634093 
z
" style="fill:#9467bd;"/>
   </g>
   <g id="patch_49">
    <path clip-path="url(#pb964f4aed6)" d="M 533.196 640.8 
L 534.87 640.8 
L 534.87 640.634093 
L 533.196 640.634093 
z
" style="fill:#9467bd;"/>
   </g>
   <g id="patch_50">
    <path clip-path="url(#pb964f4aed6)" d="M 600.156 640.8 
L 601.83 640.8 
L 601.83 640.219324 
L 600.156 640.219324 
z
" style="fill:#9467bd;"/>
   </g>
   <g id="patch_51">
    <path clip-path="url(#pb964f4aed6)" d="M 667.116 640.8 
L 668.79 640.8 
L 668.79 640.634093 
L 667.116 640.634093 
z
" style="fill:#9467bd;"/>
   </g>
   <g id="patch_52">
    <path clip-path="url(#pb964f4aed6)" d="M 734.076 640.8 
L 735.75 640.8 
L 735.75 640.8 
L 734.076 640.8 
z
" style="fill:#9467bd;"/>
   </g>
   <g id="patch_53">
    <path clip-path="url(#pb964f4aed6)" d="M 133.11 640.8 
L 134.784 640.8 
L 134.784 640.634093 
L 133.11 640.634093 
z
" style="fill:#8c564b;"/>
   </g>
   <g id="patch_54">
    <path clip-path="url(#pb964f4aed6)" d="M 200.07 640.8 
L 201.744 640.8 
L 201.744 640.634093 
L 200.07 640.634093 
z
" style="fill:#8c564b;"/>
   </g>
   <g id="patch_55">
    <path clip-path="url(#pb964f4aed6)" d="M 267.03 640.8 
L 268.704 640.8 
L 268.704 640.634093 
L 267.03 640.634093 
z
" style="fill:#8c564b;"/>
   </g>
   <g id="patch_56">
    <path clip-path="url(#pb964f4aed6)" d="M 333.99 640.8 
L 335.664 640.8 
L 335.664 640.717046 
L 333.99 640.717046 
z
" style="fill:#8c564b;"/>
   </g>
   <g id="patch_57">
    <path clip-path="url(#pb964f4aed6)" d="M 400.95 640.8 
L 402.624 640.8 
L 402.624 640.634093 
L 400.95 640.634093 
z
" style="fill:#8c564b;"/>
   </g>
   <g id="patch_58">
    <path clip-path="url(#pb964f4aed6)" d="M 467.91 640.8 
L 469.584 640.8 
L 469.584 640.634093 
L 467.91 640.634093 
z
" style="fill:#8c564b;"/>
   </g>
   <g id="patch_59">
    <path clip-path="url(#pb964f4aed6)" d="M 534.87 640.8 
L 536.544 640.8 
L 536.544 640.634093 
L 534.87 640.634093 
z
" style="fill:#8c564b;"/>
   </g>
   <g id="patch_60">
    <path clip-path="url(#pb964f4aed6)" d="M 601.83 640.8 
L 603.504 640.8 
L 603.504 640.219324 
L 601.83 640.219324 
z
" style="fill:#8c564b;"/>
   </g>
   <g id="patch_61">
    <path clip-path="url(#pb964f4aed6)" d="M 668.79 640.8 
L 670.464 640.8 
L 670.464 640.634093 
L 668.79 640.634093 
z
" style="fill:#8c564b;"/>
   </g>
   <g id="patch_62">
    <path clip-path="url(#pb964f4aed6)" d="M 735.75 640.8 
L 737.424 640.8 
L 737.424 640.8 
L 735.75 640.8 
z
" style="fill:#8c564b;"/>
   </g>
   <g id="patch_63">
    <path clip-path="url(#pb964f4aed6)" d="M 134.784 640.8 
L 136.458 640.8 
L 136.458 640.634093 
L 134.784 640.634093 
z
" style="fill:#e377c2;"/>
   </g>
   <g id="patch_64">
    <path clip-path="url(#pb964f4aed6)" d="M 201.744 640.8 
L 203.418 640.8 
L 203.418 640.634093 
L 201.744 640.634093 
z
" style="fill:#e377c2;"/>
   </g>
   <g id="patch_65">
    <path clip-path="url(#pb964f4aed6)" d="M 268.704 640.8 
L 270.378 640.8 
L 270.378 640.634093 
L 268.704 640.634093 
z
" style="fill:#e377c2;"/>
   </g>
   <g id="patch_66">
    <path clip-path="url(#pb964f4aed6)" d="M 335.664 640.8 
L 337.338 640.8 
L 337.338 640.717046 
L 335.664 640.717046 
z
" style="fill:#e377c2;"/>
   </g>
   <g id="patch_67">
    <path clip-path="url(#pb964f4aed6)" d="M 402.624 640.8 
L 404.298 640.8 
L 404.298 640.634093 
L 402.624 640.634093 
z
" style="fill:#e377c2;"/>
   </g>
   <g id="patch_68">
    <path clip-path="url(#pb964f4aed6)" d="M 469.584 640.8 
L 471.258 640.8 
L 471.258 640.634093 
L 469.584 640.634093 
z
" style="fill:#e377c2;"/>
   </g>
   <g id="patch_69">
    <path clip-path="url(#pb964f4aed6)" d="M 536.544 640.8 
L 538.218 640.8 
L 538.218 640.634093 
L 536.544 640.634093 
z
" style="fill:#e377c2;"/>
   </g>
   <g id="patch_70">
    <path clip-path="url(#pb964f4aed6)" d="M 603.504 640.8 
L 605.178 640.8 
L 605.178 640.219324 
L 603.504 640.219324 
z
" style="fill:#e377c2;"/>
   </g>
   <g id="patch_71">
    <path clip-path="url(#pb964f4aed6)" d="M 670.464 640.8 
L 672.138 640.8 
L 672.138 640.634093 
L 670.464 640.634093 
z
" style="fill:#e377c2;"/>
   </g>
   <g id="patch_72">
    <path clip-path="url(#pb964f4aed6)" d="M 737.424 640.8 
L 739.098 640.8 
L 739.098 640.8 
L 737.424 640.8 
z
" style="fill:#e377c2;"/>
   </g>
   <g id="patch_73">
    <path clip-path="url(#pb964f4aed6)" d="M 136.458 640.8 
L 138.132 640.8 
L 138.132 640.634093 
L 136.458 640.634093 
z
" style="fill:#7f7f7f;"/>
   </g>
   <g id="patch_74">
    <path clip-path="url(#pb964f4aed6)" d="M 203.418 640.8 
L 205.092 640.8 
L 205.092 640.634093 
L 203.418 640.634093 
z
" style="fill:#7f7f7f;"/>
   </g>
   <g id="patch_75">
    <path clip-path="url(#pb964f4aed6)" d="M 270.378 640.8 
L 272.052 640.8 
L 272.052 640.634093 
L 270.378 640.634093 
z
" style="fill:#7f7f7f;"/>
   </g>
   <g id="patch_76">
    <path clip-path="url(#pb964f4aed6)" d="M 337.338 640.8 
L 339.012 640.8 
L 339.012 640.717046 
L 337.338 640.717046 
z
" style="fill:#7f7f7f;"/>
   </g>
   <g id="patch_77">
    <path clip-path="url(#pb964f4aed6)" d="M 404.298 640.8 
L 405.972 640.8 
L 405.972 640.634093 
L 404.298 640.634093 
z
" style="fill:#7f7f7f;"/>
   </g>
   <g id="patch_78">
    <path clip-path="url(#pb964f4aed6)" d="M 471.258 640.8 
L 472.932 640.8 
L 472.932 640.634093 
L 471.258 640.634093 
z
" style="fill:#7f7f7f;"/>
   </g>
   <g id="patch_79">
    <path clip-path="url(#pb964f4aed6)" d="M 538.218 640.8 
L 539.892 640.8 
L 539.892 640.634093 
L 538.218 640.634093 
z
" style="fill:#7f7f7f;"/>
   </g>
   <g id="patch_80">
    <path clip-path="url(#pb964f4aed6)" d="M 605.178 640.8 
L 606.852 640.8 
L 606.852 640.219324 
L 605.178 640.219324 
z
" style="fill:#7f7f7f;"/>
   </g>
   <g id="patch_81">
    <path clip-path="url(#pb964f4aed6)" d="M 672.138 640.8 
L 673.812 640.8 
L 673.812 640.634093 
L 672.138 640.634093 
z
" style="fill:#7f7f7f;"/>
   </g>
   <g id="patch_82">
    <path clip-path="url(#pb964f4aed6)" d="M 739.098 640.8 
L 740.772 640.8 
L 740.772 640.8 
L 739.098 640.8 
z
" style="fill:#7f7f7f;"/>
   </g>
   <g id="patch_83">
    <path clip-path="url(#pb964f4aed6)" d="M 138.132 640.8 
L 139.806 640.8 
L 139.806 640.634093 
L 138.132 640.634093 
z
" style="fill:#bcbd22;"/>
   </g>
   <g id="patch_84">
    <path clip-path="url(#pb964f4aed6)" d="M 205.092 640.8 
L 206.766 640.8 
L 206.766 640.634093 
L 205.092 640.634093 
z
" style="fill:#bcbd22;"/>
   </g>
   <g id="patch_85">
    <path clip-path="url(#pb964f4aed6)" d="M 272.052 640.8 
L 273.726 640.8 
L 273.726 640.634093 
L 272.052 640.634093 
z
" style="fill:#bcbd22;"/>
   </g>
   <g id="patch_86">
    <path clip-path="url(#pb964f4aed6)" d="M 339.012 640.8 
L 340.686 640.8 
L 340.686 640.717046 
L 339.012 640.717046 
z
" style="fill:#bcbd22;"/>
   </g>
   <g id="patch_87">
    <path clip-path="url(#pb964f4aed6)" d="M 405.972 640.8 
L 407.646 640.8 
L 407.646 640.634093 
L 405.972 640.634093 
z
" style="fill:#bcbd22;"/>
   </g>
   <g id="patch_88">
    <path clip-path="url(#pb964f4aed6)" d="M 472.932 640.8 
L 474.606 640.8 
L 474.606 640.634093 
L 472.932 640.634093 
z
" style="fill:#bcbd22;"/>
   </g>
   <g id="patch_89">
    <path clip-path="url(#pb964f4aed6)" d="M 539.892 640.8 
L 541.566 640.8 
L 541.566 640.634093 
L 539.892 640.634093 
z
" style="fill:#bcbd22;"/>
   </g>
   <g id="patch_90">
    <path clip-path="url(#pb964f4aed6)" d="M 606.852 640.8 
L 608.526 640.8 
L 608.526 640.219324 
L 606.852 640.219324 
z
" style="fill:#bcbd22;"/>
   </g>
   <g id="patch_91">
    <path clip-path="url(#pb964f4aed6)" d="M 673.812 640.8 
L 675.486 640.8 
L 675.486 640.634093 
L 673.812 640.634093 
z
" style="fill:#bcbd22;"/>
   </g>
   <g id="patch_92">
    <path clip-path="url(#pb964f4aed6)" d="M 740.772 640.8 
L 742.446 640.8 
L 742.446 640.8 
L 740.772 640.8 
z
" style="fill:#bcbd22;"/>
   </g>
   <g id="patch_93">
    <path clip-path="url(#pb964f4aed6)" d="M 139.806 640.8 
L 141.48 640.8 
L 141.48 640.634093 
L 139.806 640.634093 
z
" style="fill:#17becf;"/>
   </g>
   <g id="patch_94">
    <path clip-path="url(#pb964f4aed6)" d="M 206.766 640.8 
L 208.44 640.8 
L 208.44 640.634093 
L 206.766 640.634093 
z
" style="fill:#17becf;"/>
   </g>
   <g id="patch_95">
    <path clip-path="url(#pb964f4aed6)" d="M 273.726 640.8 
L 275.4 640.8 
L 275.4 640.634093 
L 273.726 640.634093 
z
" style="fill:#17becf;"/>
   </g>
   <g id="patch_96">
    <path clip-path="url(#pb964f4aed6)" d="M 340.686 640.8 
L 342.36 640.8 
L 342.36 640.717046 
L 340.686 640.717046 
z
" style="fill:#17becf;"/>
   </g>
   <g id="patch_97">
    <path clip-path="url(#pb964f4aed6)" d="M 407.646 640.8 
L 409.32 640.8 
L 409.32 640.634093 
L 407.646 640.634093 
z
" style="fill:#17becf;"/>
   </g>
   <g id="patch_98">
    <path clip-path="url(#pb964f4aed6)" d="M 474.606 640.8 
L 476.28 640.8 
L 476.28 640.634093 
L 474.606 640.634093 
z
" style="fill:#17becf;"/>
   </g>
   <g id="patch_99">
    <path clip-path="url(#pb964f4aed6)" d="M 541.566 640.8 
L 543.24 640.8 
L 543.24 640.634093 
L 541.566 640.634093 
z
" style="fill:#17becf;"/>
   </g>
   <g id="patch_100">
    <path clip-path="url(#pb964f4aed6)" d="M 608.526 640.8 
L 610.2 640.8 
L 610.2 640.302278 
L 608.526 640.302278 
z
" style="fill:#17becf;"/>
   </g>
   <g id="patch_101">
    <path clip-path="url(#pb964f4aed6)" d="M 675.486 640.8 
L 677.16 640.8 
L 677.16 640.634093 
L 675.486 640.634093 
z
" style="fill:#17becf;"/>
   </g>
   <g id="patch_102">
    <path clip-path="url(#pb964f4aed6)" d="M 742.446 640.8 
L 744.12 640.8 
L 744.12 640.8 
L 742.446 640.8 
z
" style="fill:#17becf;"/>
   </g>
   <g id="patch_103">
    <path clip-path="url(#pb964f4aed6)" d="M 141.48 640.8 
L 143.154 640.8 
L 143.154 640.634093 
L 141.48 640.634093 
z
" style="fill:#1f77b4;"/>
   </g>
   <g id="patch_104">
    <path clip-path="url(#pb964f4aed6)" d="M 208.44 640.8 
L 210.114 640.8 
L 210.114 640.551139 
L 208.44 640.551139 
z
" style="fill:#1f77b4;"/>
   </g>
   <g id="patch_105">
    <path clip-path="url(#pb964f4aed6)" d="M 275.4 640.8 
L 277.074 640.8 
L 277.074 640.634093 
L 275.4 640.634093 
z
" style="fill:#1f77b4;"/>
   </g>
   <g id="patch_106">
    <path clip-path="url(#pb964f4aed6)" d="M 342.36 640.8 
L 344.034 640.8 
L 344.034 640.717046 
L 342.36 640.717046 
z
" style="fill:#1f77b4;"/>
   </g>
   <g id="patch_107">
    <path clip-path="url(#pb964f4aed6)" d="M 409.32 640.8 
L 410.994 640.8 
L 410.994 640.634093 
L 409.32 640.634093 
z
" style="fill:#1f77b4;"/>
   </g>
   <g id="patch_108">
    <path clip-path="url(#pb964f4aed6)" d="M 476.28 640.8 
L 477.954 640.8 
L 477.954 640.634093 
L 476.28 640.634093 
z
" style="fill:#1f77b4;"/>
   </g>
   <g id="patch_109">
    <path clip-path="url(#pb964f4aed6)" d="M 543.24 640.8 
L 544.914 640.8 
L 544.914 640.551139 
L 543.24 640.551139 
z
" style="fill:#1f77b4;"/>
   </g>
   <g id="patch_110">
    <path clip-path="url(#pb964f4aed6)" d="M 610.2 640.8 
L 611.874 640.8 
L 611.874 640.551139 
L 610.2 640.551139 
z
" style="fill:#1f77b4;"/>
   </g>
   <g id="patch_111">
    <path clip-path="url(#pb964f4aed6)" d="M 677.16 640.8 
L 678.834 640.8 
L 678.834 640.634093 
L 677.16 640.634093 
z
" style="fill:#1f77b4;"/>
   </g>
   <g id="patch_112">
    <path clip-path="url(#pb964f4aed6)" d="M 744.12 640.8 
L 745.794 640.8 
L 745.794 640.8 
L 744.12 640.8 
z
" style="fill:#1f77b4;"/>
   </g>
   <g id="patch_113">
    <path clip-path="url(#pb964f4aed6)" d="M 143.154 640.8 
L 144.828 640.8 
L 144.828 640.634093 
L 143.154 640.634093 
z
" style="fill:#ff7f0e;"/>
   </g>
   <g id="patch_114">
    <path clip-path="url(#pb964f4aed6)" d="M 210.114 640.8 
L 211.788 640.8 
L 211.788 640.551139 
L 210.114 640.551139 
z
" style="fill:#ff7f0e;"/>
   </g>
   <g id="patch_115">
    <path clip-path="url(#pb964f4aed6)" d="M 277.074 640.8 
L 278.748 640.8 
L 278.748 640.634093 
L 277.074 640.634093 
z
" style="fill:#ff7f0e;"/>
   </g>
   <g id="patch_116">
    <path clip-path="url(#pb964f4aed6)" d="M 344.034 640.8 
L 345.708 640.8 
L 345.708 640.717046 
L 344.034 640.717046 
z
" style="fill:#ff7f0e;"/>
   </g>
   <g id="patch_117">
    <path clip-path="url(#pb964f4aed6)" d="M 410.994 640.8 
L 412.668 640.8 
L 412.668 640.634093 
L 410.994 640.634093 
z
" style="fill:#ff7f0e;"/>
   </g>
   <g id="patch_118">
    <path clip-path="url(#pb964f4aed6)" d="M 477.954 640.8 
L 479.628 640.8 
L 479.628 640.634093 
L 477.954 640.634093 
z
" style="fill:#ff7f0e;"/>
   </g>
   <g id="patch_119">
    <path clip-path="url(#pb964f4aed6)" d="M 544.914 640.8 
L 546.588 640.8 
L 546.588 640.551139 
L 544.914 640.551139 
z
" style="fill:#ff7f0e;"/>
   </g>
   <g id="patch_120">
    <path clip-path="url(#pb964f4aed6)" d="M 611.874 640.8 
L 613.548 640.8 
L 613.548 640.551139 
L 611.874 640.551139 
z
" style="fill:#ff7f0e;"/>
   </g>
   <g id="patch_121">
    <path clip-path="url(#pb964f4aed6)" d="M 678.834 640.8 
L 680.508 640.8 
L 680.508 640.634093 
L 678.834 640.634093 
z
" style="fill:#ff7f0e;"/>
   </g>
   <g id="patch_122">
    <path clip-path="url(#pb964f4aed6)" d="M 745.794 640.8 
L 747.468 640.8 
L 747.468 640.8 
L 745.794 640.8 
z
" style="fill:#ff7f0e;"/>
   </g>
   <g id="patch_123">
    <path clip-path="url(#pb964f4aed6)" d="M 144.828 640.8 
L 146.502 640.8 
L 146.502 640.634093 
L 144.828 640.634093 
z
" style="fill:#2ca02c;"/>
   </g>
   <g id="patch_124">
    <path clip-path="url(#pb964f4aed6)" d="M 211.788 640.8 
L 213.462 640.8 
L 213.462 640.551139 
L 211.788 640.551139 
z
" style="fill:#2ca02c;"/>
   </g>
   <g id="patch_125">
    <path clip-path="url(#pb964f4aed6)" d="M 278.748 640.8 
L 280.422 640.8 
L 280.422 640.634093 
L 278.748 640.634093 
z
" style="fill:#2ca02c;"/>
   </g>
   <g id="patch_126">
    <path clip-path="url(#pb964f4aed6)" d="M 345.708 640.8 
L 347.382 640.8 
L 347.382 640.717046 
L 345.708 640.717046 
z
" style="fill:#2ca02c;"/>
   </g>
   <g id="patch_127">
    <path clip-path="url(#pb964f4aed6)" d="M 412.668 640.8 
L 414.342 640.8 
L 414.342 640.634093 
L 412.668 640.634093 
z
" style="fill:#2ca02c;"/>
   </g>
   <g id="patch_128">
    <path clip-path="url(#pb964f4aed6)" d="M 479.628 640.8 
L 481.302 640.8 
L 481.302 640.634093 
L 479.628 640.634093 
z
" style="fill:#2ca02c;"/>
   </g>
   <g id="patch_129">
    <path clip-path="url(#pb964f4aed6)" d="M 546.588 640.8 
L 548.262 640.8 
L 548.262 640.551139 
L 546.588 640.551139 
z
" style="fill:#2ca02c;"/>
   </g>
   <g id="patch_130">
    <path clip-path="url(#pb964f4aed6)" d="M 613.548 640.8 
L 615.222 640.8 
L 615.222 640.551139 
L 613.548 640.551139 
z
" style="fill:#2ca02c;"/>
   </g>
   <g id="patch_131">
    <path clip-path="url(#pb964f4aed6)" d="M 680.508 640.8 
L 682.182 640.8 
L 682.182 640.634093 
L 680.508 640.634093 
z
" style="fill:#2ca02c;"/>
   </g>
   <g id="patch_132">
    <path clip-path="url(#pb964f4aed6)" d="M 747.468 640.8 
L 749.142 640.8 
L 749.142 640.8 
L 747.468 640.8 
z
" style="fill:#2ca02c;"/>
   </g>
   <g id="patch_133">
    <path clip-path="url(#pb964f4aed6)" d="M 146.502 640.8 
L 148.176 640.8 
L 148.176 640.634093 
L 146.502 640.634093 
z
" style="fill:#d62728;"/>
   </g>
   <g id="patch_134">
    <path clip-path="url(#pb964f4aed6)" d="M 213.462 640.8 
L 215.136 640.8 
L 215.136 640.551139 
L 213.462 640.551139 
z
" style="fill:#d62728;"/>
   </g>
   <g id="patch_135">
    <path clip-path="url(#pb964f4aed6)" d="M 280.422 640.8 
L 282.096 640.8 
L 282.096 640.634093 
L 280.422 640.634093 
z
" style="fill:#d62728;"/>
   </g>
   <g id="patch_136">
    <path clip-path="url(#pb964f4aed6)" d="M 347.382 640.8 
L 349.056 640.8 
L 349.056 640.717046 
L 347.382 640.717046 
z
" style="fill:#d62728;"/>
   </g>
   <g id="patch_137">
    <path clip-path="url(#pb964f4aed6)" d="M 414.342 640.8 
L 416.016 640.8 
L 416.016 640.634093 
L 414.342 640.634093 
z
" style="fill:#d62728;"/>
   </g>
   <g id="patch_138">
    <path clip-path="url(#pb964f4aed6)" d="M 481.302 640.8 
L 482.976 640.8 
L 482.976 640.634093 
L 481.302 640.634093 
z
" style="fill:#d62728;"/>
   </g>
   <g id="patch_139">
    <path clip-path="url(#pb964f4aed6)" d="M 548.262 640.8 
L 549.936 640.8 
L 549.936 640.551139 
L 548.262 640.551139 
z
" style="fill:#d62728;"/>
   </g>
   <g id="patch_140">
    <path clip-path="url(#pb964f4aed6)" d="M 615.222 640.8 
L 616.896 640.8 
L 616.896 640.551139 
L 615.222 640.551139 
z
" style="fill:#d62728;"/>
   </g>
   <g id="patch_141">
    <path clip-path="url(#pb964f4aed6)" d="M 682.182 640.8 
L 683.856 640.8 
L 683.856 640.634093 
L 682.182 640.634093 
z
" style="fill:#d62728;"/>
   </g>
   <g id="patch_142">
    <path clip-path="url(#pb964f4aed6)" d="M 749.142 640.8 
L 750.816 640.8 
L 750.816 640.8 
L 749.142 640.8 
z
" style="fill:#d62728;"/>
   </g>
   <g id="patch_143">
    <path clip-path="url(#pb964f4aed6)" d="M 148.176 640.8 
L 149.85 640.8 
L 149.85 640.634093 
L 148.176 640.634093 
z
" style="fill:#9467bd;"/>
   </g>
   <g id="patch_144">
    <path clip-path="url(#pb964f4aed6)" d="M 215.136 640.8 
L 216.81 640.8 
L 216.81 640.551139 
L 215.136 640.551139 
z
" style="fill:#9467bd;"/>
   </g>
   <g id="patch_145">
    <path clip-path="url(#pb964f4aed6)" d="M 282.096 640.8 
L 283.77 640.8 
L 283.77 640.634093 
L 282.096 640.634093 
z
" style="fill:#9467bd;"/>
   </g>
   <g id="patch_146">
    <path clip-path="url(#pb964f4aed6)" d="M 349.056 640.8 
L 350.73 640.8 
L 350.73 640.717046 
L 349.056 640.717046 
z
" style="fill:#9467bd;"/>
   </g>
   <g id="patch_147">
    <path clip-path="url(#pb964f4aed6)" d="M 416.016 640.8 
L 417.69 640.8 
L 417.69 640.634093 
L 416.016 640.634093 
z
" style="fill:#9467bd;"/>
   </g>
   <g id="patch_148">
    <path clip-path="url(#pb964f4aed6)" d="M 482.976 640.8 
L 484.65 640.8 
L 484.65 640.634093 
L 482.976 640.634093 
z
" style="fill:#9467bd;"/>
   </g>
   <g id="patch_149">
    <path clip-path="url(#pb964f4aed6)" d="M 549.936 640.8 
L 551.61 640.8 
L 551.61 640.551139 
L 549.936 640.551139 
z
" style="fill:#9467bd;"/>
   </g>
   <g id="patch_150">
    <path clip-path="url(#pb964f4aed6)" d="M 616.896 640.8 
L 618.57 640.8 
L 618.57 640.551139 
L 616.896 640.551139 
z
" style="fill:#9467bd;"/>
   </g>
   <g id="patch_151">
    <path clip-path="url(#pb964f4aed6)" d="M 683.856 640.8 
L 685.53 640.8 
L 685.53 640.634093 
L 683.856 640.634093 
z
" style="fill:#9467bd;"/>
   </g>
   <g id="patch_152">
    <path clip-path="url(#pb964f4aed6)" d="M 750.816 640.8 
L 752.49 640.8 
L 752.49 640.8 
L 750.816 640.8 
z
" style="fill:#9467bd;"/>
   </g>
   <g id="patch_153">
    <path clip-path="url(#pb964f4aed6)" d="M 149.85 640.8 
L 151.524 640.8 
L 151.524 640.634093 
L 149.85 640.634093 
z
" style="fill:#8c564b;"/>
   </g>
   <g id="patch_154">
    <path clip-path="url(#pb964f4aed6)" d="M 216.81 640.8 
L 218.484 640.8 
L 218.484 640.551139 
L 216.81 640.551139 
z
" style="fill:#8c564b;"/>
   </g>
   <g id="patch_155">
    <path clip-path="url(#pb964f4aed6)" d="M 283.77 640.8 
L 285.444 640.8 
L 285.444 640.634093 
L 283.77 640.634093 
z
" style="fill:#8c564b;"/>
   </g>
   <g id="patch_156">
    <path clip-path="url(#pb964f4aed6)" d="M 350.73 640.8 
L 352.404 640.8 
L 352.404 640.717046 
L 350.73 640.717046 
z
" style="fill:#8c564b;"/>
   </g>
   <g id="patch_157">
    <path clip-path="url(#pb964f4aed6)" d="M 417.69 640.8 
L 419.364 640.8 
L 419.364 640.634093 
L 417.69 640.634093 
z
" style="fill:#8c564b;"/>
   </g>
   <g id="patch_158">
    <path clip-path="url(#pb964f4aed6)" d="M 484.65 640.8 
L 486.324 640.8 
L 486.324 640.634093 
L 484.65 640.634093 
z
" style="fill:#8c564b;"/>
   </g>
   <g id="patch_159">
    <path clip-path="url(#pb964f4aed6)" d="M 551.61 640.8 
L 553.284 640.8 
L 553.284 640.551139 
L 551.61 640.551139 
z
" style="fill:#8c564b;"/>
   </g>
   <g id="patch_160">
    <path clip-path="url(#pb964f4aed6)" d="M 618.57 640.8 
L 620.244 640.8 
L 620.244 640.551139 
L 618.57 640.551139 
z
" style="fill:#8c564b;"/>
   </g>
   <g id="patch_161">
    <path clip-path="url(#pb964f4aed6)" d="M 685.53 640.8 
L 687.204 640.8 
L 687.204 640.634093 
L 685.53 640.634093 
z
" style="fill:#8c564b;"/>
   </g>
   <g id="patch_162">
    <path clip-path="url(#pb964f4aed6)" d="M 752.49 640.8 
L 754.164 640.8 
L 754.164 640.8 
L 752.49 640.8 
z
" style="fill:#8c564b;"/>
   </g>
   <g id="patch_163">
    <path clip-path="url(#pb964f4aed6)" d="M 151.524 640.8 
L 153.198 640.8 
L 153.198 640.634093 
L 151.524 640.634093 
z
" style="fill:#e377c2;"/>
   </g>
   <g id="patch_164">
    <path clip-path="url(#pb964f4aed6)" d="M 218.484 640.8 
L 220.158 640.8 
L 220.158 640.551139 
L 218.484 640.551139 
z
" style="fill:#e377c2;"/>
   </g>
   <g id="patch_165">
    <path clip-path="url(#pb964f4aed6)" d="M 285.444 640.8 
L 287.118 640.8 
L 287.118 640.634093 
L 285.444 640.634093 
z
" style="fill:#e377c2;"/>
   </g>
   <g id="patch_166">
    <path clip-path="url(#pb964f4aed6)" d="M 352.404 640.8 
L 354.078 640.8 
L 354.078 640.717046 
L 352.404 640.717046 
z
" style="fill:#e377c2;"/>
   </g>
   <g id="patch_167">
    <path clip-path="url(#pb964f4aed6)" d="M 419.364 640.8 
L 421.038 640.8 
L 421.038 640.634093 
L 419.364 640.634093 
z
" style="fill:#e377c2;"/>
   </g>
   <g id="patch_168">
    <path clip-path="url(#pb964f4aed6)" d="M 486.324 640.8 
L 487.998 640.8 
L 487.998 640.634093 
L 486.324 640.634093 
z
" style="fill:#e377c2;"/>
   </g>
   <g id="patch_169">
    <path clip-path="url(#pb964f4aed6)" d="M 553.284 640.8 
L 554.958 640.8 
L 554.958 640.551139 
L 553.284 640.551139 
z
" style="fill:#e377c2;"/>
   </g>
   <g id="patch_170">
    <path clip-path="url(#pb964f4aed6)" d="M 620.244 640.8 
L 621.918 640.8 
L 621.918 640.551139 
L 620.244 640.551139 
z
" style="fill:#e377c2;"/>
   </g>
   <g id="patch_171">
    <path clip-path="url(#pb964f4aed6)" d="M 687.204 640.8 
L 688.878 640.8 
L 688.878 640.634093 
L 687.204 640.634093 
z
" style="fill:#e377c2;"/>
   </g>
   <g id="patch_172">
    <path clip-path="url(#pb964f4aed6)" d="M 754.164 640.8 
L 755.838 640.8 
L 755.838 640.8 
L 754.164 640.8 
z
" style="fill:#e377c2;"/>
   </g>
   <g id="patch_173">
    <path clip-path="url(#pb964f4aed6)" d="M 153.198 640.8 
L 154.872 640.8 
L 154.872 640.634093 
L 153.198 640.634093 
z
" style="fill:#7f7f7f;"/>
   </g>
   <g id="patch_174">
    <path clip-path="url(#pb964f4aed6)" d="M 220.158 640.8 
L 221.832 640.8 
L 221.832 640.551139 
L 220.158 640.551139 
z
" style="fill:#7f7f7f;"/>
   </g>
   <g id="patch_175">
    <path clip-path="url(#pb964f4aed6)" d="M 287.118 640.8 
L 288.792 640.8 
L 288.792 640.634093 
L 287.118 640.634093 
z
" style="fill:#7f7f7f;"/>
   </g>
   <g id="patch_176">
    <path clip-path="url(#pb964f4aed6)" d="M 354.078 640.8 
L 355.752 640.8 
L 355.752 640.717046 
L 354.078 640.717046 
z
" style="fill:#7f7f7f;"/>
   </g>
   <g id="patch_177">
    <path clip-path="url(#pb964f4aed6)" d="M 421.038 640.8 
L 422.712 640.8 
L 422.712 640.634093 
L 421.038 640.634093 
z
" style="fill:#7f7f7f;"/>
   </g>
   <g id="patch_178">
    <path clip-path="url(#pb964f4aed6)" d="M 487.998 640.8 
L 489.672 640.8 
L 489.672 640.634093 
L 487.998 640.634093 
z
" style="fill:#7f7f7f;"/>
   </g>
   <g id="patch_179">
    <path clip-path="url(#pb964f4aed6)" d="M 554.958 640.8 
L 556.632 640.8 
L 556.632 640.551139 
L 554.958 640.551139 
z
" style="fill:#7f7f7f;"/>
   </g>
   <g id="patch_180">
    <path clip-path="url(#pb964f4aed6)" d="M 621.918 640.8 
L 623.592 640.8 
L 623.592 640.551139 
L 621.918 640.551139 
z
" style="fill:#7f7f7f;"/>
   </g>
   <g id="patch_181">
    <path clip-path="url(#pb964f4aed6)" d="M 688.878 640.8 
L 690.552 640.8 
L 690.552 640.634093 
L 688.878 640.634093 
z
" style="fill:#7f7f7f;"/>
   </g>
   <g id="patch_182">
    <path clip-path="url(#pb964f4aed6)" d="M 755.838 640.8 
L 757.512 640.8 
L 757.512 640.8 
L 755.838 640.8 
z
" style="fill:#7f7f7f;"/>
   </g>
   <g id="patch_183">
    <path clip-path="url(#pb964f4aed6)" d="M 154.872 640.8 
L 156.546 640.8 
L 156.546 640.634093 
L 154.872 640.634093 
z
" style="fill:#bcbd22;"/>
   </g>
   <g id="patch_184">
    <path clip-path="url(#pb964f4aed6)" d="M 221.832 640.8 
L 223.506 640.8 
L 223.506 640.551139 
L 221.832 640.551139 
z
" style="fill:#bcbd22;"/>
   </g>
   <g id="patch_185">
    <path clip-path="url(#pb964f4aed6)" d="M 288.792 640.8 
L 290.466 640.8 
L 290.466 640.634093 
L 288.792 640.634093 
z
" style="fill:#bcbd22;"/>
   </g>
   <g id="patch_186">
    <path clip-path="url(#pb964f4aed6)" d="M 355.752 640.8 
L 357.426 640.8 
L 357.426 640.717046 
L 355.752 640.717046 
z
" style="fill:#bcbd22;"/>
   </g>
   <g id="patch_187">
    <path clip-path="url(#pb964f4aed6)" d="M 422.712 640.8 
L 424.386 640.8 
L 424.386 640.634093 
L 422.712 640.634093 
z
" style="fill:#bcbd22;"/>
   </g>
   <g id="patch_188">
    <path clip-path="url(#pb964f4aed6)" d="M 489.672 640.8 
L 491.346 640.8 
L 491.346 640.634093 
L 489.672 640.634093 
z
" style="fill:#bcbd22;"/>
   </g>
   <g id="patch_189">
    <path clip-path="url(#pb964f4aed6)" d="M 556.632 640.8 
L 558.306 640.8 
L 558.306 640.551139 
L 556.632 640.551139 
z
" style="fill:#bcbd22;"/>
   </g>
   <g id="patch_190">
    <path clip-path="url(#pb964f4aed6)" d="M 623.592 640.8 
L 625.266 640.8 
L 625.266 640.551139 
L 623.592 640.551139 
z
" style="fill:#bcbd22;"/>
   </g>
   <g id="patch_191">
    <path clip-path="url(#pb964f4aed6)" d="M 690.552 640.8 
L 692.226 640.8 
L 692.226 640.634093 
L 690.552 640.634093 
z
" style="fill:#bcbd22;"/>
   </g>
   <g id="patch_192">
    <path clip-path="url(#pb964f4aed6)" d="M 757.512 640.8 
L 759.186 640.8 
L 759.186 640.8 
L 757.512 640.8 
z
" style="fill:#bcbd22;"/>
   </g>
   <g id="patch_193">
    <path clip-path="url(#pb964f4aed6)" d="M 156.546 640.8 
L 158.22 640.8 
L 158.22 640.634093 
L 156.546 640.634093 
z
" style="fill:#17becf;"/>
   </g>
   <g id="patch_194">
    <path clip-path="url(#pb964f4aed6)" d="M 223.506 640.8 
L 225.18 640.8 
L 225.18 640.551139 
L 223.506 640.551139 
z
" style="fill:#17becf;"/>
   </g>
   <g id="patch_195">
    <path clip-path="url(#pb964f4aed6)" d="M 290.466 640.8 
L 292.14 640.8 
L 292.14 640.634093 
L 290.466 640.634093 
z
" style="fill:#17becf;"/>
   </g>
   <g id="patch_196">
    <path clip-path="url(#pb964f4aed6)" d="M 357.426 640.8 
L 359.1 640.8 
L 359.1 640.717046 
L 357.426 640.717046 
z
" style="fill:#17becf;"/>
   </g>
   <g id="patch_197">
    <path clip-path="url(#pb964f4aed6)" d="M 424.386 640.8 
L 426.06 640.8 
L 426.06 640.634093 
L 424.386 640.634093 
z
" style="fill:#17becf;"/>
   </g>
   <g id="patch_198">
    <path clip-path="url(#pb964f4aed6)" d="M 491.346 640.8 
L 493.02 640.8 
L 493.02 640.634093 
L 491.346 640.634093 
z
" style="fill:#17becf;"/>
   </g>
   <g id="patch_199">
    <path clip-path="url(#pb964f4aed6)" d="M 558.306 640.8 
L 559.98 640.8 
L 559.98 640.551139 
L 558.306 640.551139 
z
" style="fill:#17becf;"/>
   </g>
   <g id="patch_200">
    <path clip-path="url(#pb964f4aed6)" d="M 625.266 640.8 
L 626.94 640.8 
L 626.94 640.551139 
L 625.266 640.551139 
z
" style="fill:#17becf;"/>
   </g>
   <g id="patch_201">
    <path clip-path="url(#pb964f4aed6)" d="M 692.226 640.8 
L 693.9 640.8 
L 693.9 640.634093 
L 692.226 640.634093 
z
" style="fill:#17becf;"/>
   </g>
   <g id="patch_202">
    <path clip-path="url(#pb964f4aed6)" d="M 759.186 640.8 
L 760.86 640.8 
L 760.86 640.8 
L 759.186 640.8 
z
" style="fill:#17becf;"/>
   </g>
   <g id="matplotlib.axis_1">
    <g id="xtick_1">
     <g id="line2d_1">
      <defs>
       <path d="M 0 0 
L 0 3.5 
" id="mf5841b4932" style="stroke:#000000;stroke-width:0.8;"/>
      </defs>
      <g>
       <use style="stroke:#000000;stroke-width:0.8;" x="141.48" xlink:href="#mf5841b4932" y="640.8"/>
      </g>
     </g>
     <g id="text_1">
      <!-- AAH035 -->
      <defs>
       <path d="M 34.1875 63.1875 
L 20.796875 26.90625 
L 47.609375 26.90625 
z
M 28.609375 72.90625 
L 39.796875 72.90625 
L 67.578125 0 
L 57.328125 0 
L 50.6875 18.703125 
L 17.828125 18.703125 
L 11.1875 0 
L 0.78125 0 
z
" id="DejaVuSans-65"/>
       <path d="M 9.8125 72.90625 
L 19.671875 72.90625 
L 19.671875 43.015625 
L 55.515625 43.015625 
L 55.515625 72.90625 
L 65.375 72.90625 
L 65.375 0 
L 55.515625 0 
L 55.515625 34.71875 
L 19.671875 34.71875 
L 19.671875 0 
L 9.8125 0 
z
" id="DejaVuSans-72"/>
       <path d="M 31.78125 66.40625 
Q 24.171875 66.40625 20.328125 58.90625 
Q 16.5 51.421875 16.5 36.375 
Q 16.5 21.390625 20.328125 13.890625 
Q 24.171875 6.390625 31.78125 6.390625 
Q 39.453125 6.390625 43.28125 13.890625 
Q 47.125 21.390625 47.125 36.375 
Q 47.125 51.421875 43.28125 58.90625 
Q 39.453125 66.40625 31.78125 66.40625 
z
M 31.78125 74.21875 
Q 44.046875 74.21875 50.515625 64.515625 
Q 56.984375 54.828125 56.984375 36.375 
Q 56.984375 17.96875 50.515625 8.265625 
Q 44.046875 -1.421875 31.78125 -1.421875 
Q 19.53125 -1.421875 13.0625 8.265625 
Q 6.59375 17.96875 6.59375 36.375 
Q 6.59375 54.828125 13.0625 64.515625 
Q 19.53125 74.21875 31.78125 74.21875 
z
" id="DejaVuSans-48"/>
       <path d="M 40.578125 39.3125 
Q 47.65625 37.796875 51.625 33 
Q 55.609375 28.21875 55.609375 21.1875 
Q 55.609375 10.40625 48.1875 4.484375 
Q 40.765625 -1.421875 27.09375 -1.421875 
Q 22.515625 -1.421875 17.65625 -0.515625 
Q 12.796875 0.390625 7.625 2.203125 
L 7.625 11.71875 
Q 11.71875 9.328125 16.59375 8.109375 
Q 21.484375 6.890625 26.8125 6.890625 
Q 36.078125 6.890625 40.9375 10.546875 
Q 45.796875 14.203125 45.796875 21.1875 
Q 45.796875 27.640625 41.28125 31.265625 
Q 36.765625 34.90625 28.71875 34.90625 
L 20.21875 34.90625 
L 20.21875 43.015625 
L 29.109375 43.015625 
Q 36.375 43.015625 40.234375 45.921875 
Q 44.09375 48.828125 44.09375 54.296875 
Q 44.09375 59.90625 40.109375 62.90625 
Q 36.140625 65.921875 28.71875 65.921875 
Q 24.65625 65.921875 20.015625 65.03125 
Q 15.375 64.15625 9.8125 62.3125 
L 9.8125 71.09375 
Q 15.4375 72.65625 20.34375 73.4375 
Q 25.25 74.21875 29.59375 74.21875 
Q 40.828125 74.21875 47.359375 69.109375 
Q 53.90625 64.015625 53.90625 55.328125 
Q 53.90625 49.265625 50.4375 45.09375 
Q 46.96875 40.921875 40.578125 39.3125 
z
" id="DejaVuSans-51"/>
       <path d="M 10.796875 72.90625 
L 49.515625 72.90625 
L 49.515625 64.59375 
L 19.828125 64.59375 
L 19.828125 46.734375 
Q 21.96875 47.46875 24.109375 47.828125 
Q 26.265625 48.1875 28.421875 48.1875 
Q 40.625 48.1875 47.75 41.5 
Q 54.890625 34.8125 54.890625 23.390625 
Q 54.890625 11.625 47.5625 5.09375 
Q 40.234375 -1.421875 26.90625 -1.421875 
Q 22.3125 -1.421875 17.546875 -0.640625 
Q 12.796875 0.140625 7.71875 1.703125 
L 7.71875 11.625 
Q 12.109375 9.234375 16.796875 8.0625 
Q 21.484375 6.890625 26.703125 6.890625 
Q 35.15625 6.890625 40.078125 11.328125 
Q 45.015625 15.765625 45.015625 23.390625 
Q 45.015625 31 40.078125 35.4375 
Q 35.15625 39.890625 26.703125 39.890625 
Q 22.75 39.890625 18.8125 39.015625 
Q 14.890625 38.140625 10.796875 36.28125 
z
" id="DejaVuSans-53"/>
      </defs>
      <g transform="translate(144.239375 688.092188)rotate(-90)scale(0.1 -0.1)">
       <use xlink:href="#DejaVuSans-65"/>
       <use x="68.439453" xlink:href="#DejaVuSans-65"/>
       <use x="136.847656" xlink:href="#DejaVuSans-72"/>
       <use x="212.042969" xlink:href="#DejaVuSans-48"/>
       <use x="275.666016" xlink:href="#DejaVuSans-51"/>
       <use x="339.289062" xlink:href="#DejaVuSans-53"/>
      </g>
     </g>
    </g>
    <g id="xtick_2">
     <g id="line2d_2">
      <g>
       <use style="stroke:#000000;stroke-width:0.8;" x="208.44" xlink:href="#mf5841b4932" y="640.8"/>
      </g>
     </g>
     <g id="text_2">
      <!-- AAH024 -->
      <defs>
       <path d="M 19.1875 8.296875 
L 53.609375 8.296875 
L 53.609375 0 
L 7.328125 0 
L 7.328125 8.296875 
Q 12.9375 14.109375 22.625 23.890625 
Q 32.328125 33.6875 34.8125 36.53125 
Q 39.546875 41.84375 41.421875 45.53125 
Q 43.3125 49.21875 43.3125 52.78125 
Q 43.3125 58.59375 39.234375 62.25 
Q 35.15625 65.921875 28.609375 65.921875 
Q 23.96875 65.921875 18.8125 64.3125 
Q 13.671875 62.703125 7.8125 59.421875 
L 7.8125 69.390625 
Q 13.765625 71.78125 18.9375 73 
Q 24.125 74.21875 28.421875 74.21875 
Q 39.75 74.21875 46.484375 68.546875 
Q 53.21875 62.890625 53.21875 53.421875 
Q 53.21875 48.921875 51.53125 44.890625 
Q 49.859375 40.875 45.40625 35.40625 
Q 44.1875 33.984375 37.640625 27.21875 
Q 31.109375 20.453125 19.1875 8.296875 
z
" id="DejaVuSans-50"/>
       <path d="M 37.796875 64.3125 
L 12.890625 25.390625 
L 37.796875 25.390625 
z
M 35.203125 72.90625 
L 47.609375 72.90625 
L 47.609375 25.390625 
L 58.015625 25.390625 
L 58.015625 17.1875 
L 47.609375 17.1875 
L 47.609375 0 
L 37.796875 0 
L 37.796875 17.1875 
L 4.890625 17.1875 
L 4.890625 26.703125 
z
" id="DejaVuSans-52"/>
      </defs>
      <g transform="translate(211.199375 688.092188)rotate(-90)scale(0.1 -0.1)">
       <use xlink:href="#DejaVuSans-65"/>
       <use x="68.439453" xlink:href="#DejaVuSans-65"/>
       <use x="136.847656" xlink:href="#DejaVuSans-72"/>
       <use x="212.042969" xlink:href="#DejaVuSans-48"/>
       <use x="275.666016" xlink:href="#DejaVuSans-50"/>
       <use x="339.289062" xlink:href="#DejaVuSans-52"/>
      </g>
     </g>
    </g>
    <g id="xtick_3">
     <g id="line2d_3">
      <g>
       <use style="stroke:#000000;stroke-width:0.8;" x="275.4" xlink:href="#mf5841b4932" y="640.8"/>
      </g>
     </g>
     <g id="text_3">
      <!-- AAH026 -->
      <defs>
       <path d="M 33.015625 40.375 
Q 26.375 40.375 22.484375 35.828125 
Q 18.609375 31.296875 18.609375 23.390625 
Q 18.609375 15.53125 22.484375 10.953125 
Q 26.375 6.390625 33.015625 6.390625 
Q 39.65625 6.390625 43.53125 10.953125 
Q 47.40625 15.53125 47.40625 23.390625 
Q 47.40625 31.296875 43.53125 35.828125 
Q 39.65625 40.375 33.015625 40.375 
z
M 52.59375 71.296875 
L 52.59375 62.3125 
Q 48.875 64.0625 45.09375 64.984375 
Q 41.3125 65.921875 37.59375 65.921875 
Q 27.828125 65.921875 22.671875 59.328125 
Q 17.53125 52.734375 16.796875 39.40625 
Q 19.671875 43.65625 24.015625 45.921875 
Q 28.375 48.1875 33.59375 48.1875 
Q 44.578125 48.1875 50.953125 41.515625 
Q 57.328125 34.859375 57.328125 23.390625 
Q 57.328125 12.15625 50.6875 5.359375 
Q 44.046875 -1.421875 33.015625 -1.421875 
Q 20.359375 -1.421875 13.671875 8.265625 
Q 6.984375 17.96875 6.984375 36.375 
Q 6.984375 53.65625 15.1875 63.9375 
Q 23.390625 74.21875 37.203125 74.21875 
Q 40.921875 74.21875 44.703125 73.484375 
Q 48.484375 72.75 52.59375 71.296875 
z
" id="DejaVuSans-54"/>
      </defs>
      <g transform="translate(278.159375 688.092188)rotate(-90)scale(0.1 -0.1)">
       <use xlink:href="#DejaVuSans-65"/>
       <use x="68.439453" xlink:href="#DejaVuSans-65"/>
       <use x="136.847656" xlink:href="#DejaVuSans-72"/>
       <use x="212.042969" xlink:href="#DejaVuSans-48"/>
       <use x="275.666016" xlink:href="#DejaVuSans-50"/>
       <use x="339.289062" xlink:href="#DejaVuSans-54"/>
      </g>
     </g>
    </g>
    <g id="xtick_4">
     <g id="line2d_4">
      <g>
       <use style="stroke:#000000;stroke-width:0.8;" x="342.36" xlink:href="#mf5841b4932" y="640.8"/>
      </g>
     </g>
     <g id="text_4">
      <!-- AAH032 -->
      <g transform="translate(345.119375 688.092188)rotate(-90)scale(0.1 -0.1)">
       <use xlink:href="#DejaVuSans-65"/>
       <use x="68.439453" xlink:href="#DejaVuSans-65"/>
       <use x="136.847656" xlink:href="#DejaVuSans-72"/>
       <use x="212.042969" xlink:href="#DejaVuSans-48"/>
       <use x="275.666016" xlink:href="#DejaVuSans-51"/>
       <use x="339.289062" xlink:href="#DejaVuSans-50"/>
      </g>
     </g>
    </g>
    <g id="xtick_5">
     <g id="line2d_5">
      <g>
       <use style="stroke:#000000;stroke-width:0.8;" x="409.32" xlink:href="#mf5841b4932" y="640.8"/>
      </g>
     </g>
     <g id="text_5">
      <!-- AAH037 -->
      <defs>
       <path d="M 8.203125 72.90625 
L 55.078125 72.90625 
L 55.078125 68.703125 
L 28.609375 0 
L 18.3125 0 
L 43.21875 64.59375 
L 8.203125 64.59375 
z
" id="DejaVuSans-55"/>
      </defs>
      <g transform="translate(412.079375 688.092188)rotate(-90)scale(0.1 -0.1)">
       <use xlink:href="#DejaVuSans-65"/>
       <use x="68.439453" xlink:href="#DejaVuSans-65"/>
       <use x="136.847656" xlink:href="#DejaVuSans-72"/>
       <use x="212.042969" xlink:href="#DejaVuSans-48"/>
       <use x="275.666016" xlink:href="#DejaVuSans-51"/>
       <use x="339.289062" xlink:href="#DejaVuSans-55"/>
      </g>
     </g>
    </g>
    <g id="xtick_6">
     <g id="line2d_6">
      <g>
       <use style="stroke:#000000;stroke-width:0.8;" x="476.28" xlink:href="#mf5841b4932" y="640.8"/>
      </g>
     </g>
     <g id="text_6">
      <!-- AAH041 -->
      <defs>
       <path d="M 12.40625 8.296875 
L 28.515625 8.296875 
L 28.515625 63.921875 
L 10.984375 60.40625 
L 10.984375 69.390625 
L 28.421875 72.90625 
L 38.28125 72.90625 
L 38.28125 8.296875 
L 54.390625 8.296875 
L 54.390625 0 
L 12.40625 0 
z
" id="DejaVuSans-49"/>
      </defs>
      <g transform="translate(479.039375 688.092188)rotate(-90)scale(0.1 -0.1)">
       <use xlink:href="#DejaVuSans-65"/>
       <use x="68.439453" xlink:href="#DejaVuSans-65"/>
       <use x="136.847656" xlink:href="#DejaVuSans-72"/>
       <use x="212.042969" xlink:href="#DejaVuSans-48"/>
       <use x="275.666016" xlink:href="#DejaVuSans-52"/>
       <use x="339.289062" xlink:href="#DejaVuSans-49"/>
      </g>
     </g>
    </g>
    <g id="xtick_7">
     <g id="line2d_7">
      <g>
       <use style="stroke:#000000;stroke-width:0.8;" x="543.24" xlink:href="#mf5841b4932" y="640.8"/>
      </g>
     </g>
     <g id="text_7">
      <!-- AAH029 -->
      <defs>
       <path d="M 10.984375 1.515625 
L 10.984375 10.5 
Q 14.703125 8.734375 18.5 7.8125 
Q 22.3125 6.890625 25.984375 6.890625 
Q 35.75 6.890625 40.890625 13.453125 
Q 46.046875 20.015625 46.78125 33.40625 
Q 43.953125 29.203125 39.59375 26.953125 
Q 35.25 24.703125 29.984375 24.703125 
Q 19.046875 24.703125 12.671875 31.3125 
Q 6.296875 37.9375 6.296875 49.421875 
Q 6.296875 60.640625 12.9375 67.421875 
Q 19.578125 74.21875 30.609375 74.21875 
Q 43.265625 74.21875 49.921875 64.515625 
Q 56.59375 54.828125 56.59375 36.375 
Q 56.59375 19.140625 48.40625 8.859375 
Q 40.234375 -1.421875 26.421875 -1.421875 
Q 22.703125 -1.421875 18.890625 -0.6875 
Q 15.09375 0.046875 10.984375 1.515625 
z
M 30.609375 32.421875 
Q 37.25 32.421875 41.125 36.953125 
Q 45.015625 41.5 45.015625 49.421875 
Q 45.015625 57.28125 41.125 61.84375 
Q 37.25 66.40625 30.609375 66.40625 
Q 23.96875 66.40625 20.09375 61.84375 
Q 16.21875 57.28125 16.21875 49.421875 
Q 16.21875 41.5 20.09375 36.953125 
Q 23.96875 32.421875 30.609375 32.421875 
z
" id="DejaVuSans-57"/>
      </defs>
      <g transform="translate(545.999375 688.092188)rotate(-90)scale(0.1 -0.1)">
       <use xlink:href="#DejaVuSans-65"/>
       <use x="68.439453" xlink:href="#DejaVuSans-65"/>
       <use x="136.847656" xlink:href="#DejaVuSans-72"/>
       <use x="212.042969" xlink:href="#DejaVuSans-48"/>
       <use x="275.666016" xlink:href="#DejaVuSans-50"/>
       <use x="339.289062" xlink:href="#DejaVuSans-57"/>
      </g>
     </g>
    </g>
    <g id="xtick_8">
     <g id="line2d_8">
      <g>
       <use style="stroke:#000000;stroke-width:0.8;" x="610.2" xlink:href="#mf5841b4932" y="640.8"/>
      </g>
     </g>
     <g id="text_8">
      <!-- AAH031 -->
      <g transform="translate(612.959375 688.092188)rotate(-90)scale(0.1 -0.1)">
       <use xlink:href="#DejaVuSans-65"/>
       <use x="68.439453" xlink:href="#DejaVuSans-65"/>
       <use x="136.847656" xlink:href="#DejaVuSans-72"/>
       <use x="212.042969" xlink:href="#DejaVuSans-48"/>
       <use x="275.666016" xlink:href="#DejaVuSans-51"/>
       <use x="339.289062" xlink:href="#DejaVuSans-49"/>
      </g>
     </g>
    </g>
    <g id="xtick_9">
     <g id="line2d_9">
      <g>
       <use style="stroke:#000000;stroke-width:0.8;" x="677.16" xlink:href="#mf5841b4932" y="640.8"/>
      </g>
     </g>
     <g id="text_9">
      <!-- AAH034 -->
      <g transform="translate(679.919375 688.092188)rotate(-90)scale(0.1 -0.1)">
       <use xlink:href="#DejaVuSans-65"/>
       <use x="68.439453" xlink:href="#DejaVuSans-65"/>
       <use x="136.847656" xlink:href="#DejaVuSans-72"/>
       <use x="212.042969" xlink:href="#DejaVuSans-48"/>
       <use x="275.666016" xlink:href="#DejaVuSans-51"/>
       <use x="339.289062" xlink:href="#DejaVuSans-52"/>
      </g>
     </g>
    </g>
    <g id="xtick_10">
     <g id="line2d_10">
      <g>
       <use style="stroke:#000000;stroke-width:0.8;" x="744.12" xlink:href="#mf5841b4932" y="640.8"/>
      </g>
     </g>
     <g id="text_10">
      <!-- AAH025 -->
      <g transform="translate(746.879375 688.092188)rotate(-90)scale(0.1 -0.1)">
       <use xlink:href="#DejaVuSans-65"/>
       <use x="68.439453" xlink:href="#DejaVuSans-65"/>
       <use x="136.847656" xlink:href="#DejaVuSans-72"/>
       <use x="212.042969" xlink:href="#DejaVuSans-48"/>
       <use x="275.666016" xlink:href="#DejaVuSans-50"/>
       <use x="339.289062" xlink:href="#DejaVuSans-53"/>
      </g>
     </g>
    </g>
    <g id="text_11">
     <!-- Bug Number -->
     <defs>
      <path d="M 19.671875 34.8125 
L 19.671875 8.109375 
L 35.5 8.109375 
Q 43.453125 8.109375 47.28125 11.40625 
Q 51.125 14.703125 51.125 21.484375 
Q 51.125 28.328125 47.28125 31.5625 
Q 43.453125 34.8125 35.5 34.8125 
z
M 19.671875 64.796875 
L 19.671875 42.828125 
L 34.28125 42.828125 
Q 41.5 42.828125 45.03125 45.53125 
Q 48.578125 48.25 48.578125 53.8125 
Q 48.578125 59.328125 45.03125 62.0625 
Q 41.5 64.796875 34.28125 64.796875 
z
M 9.8125 72.90625 
L 35.015625 72.90625 
Q 46.296875 72.90625 52.390625 68.21875 
Q 58.5 63.53125 58.5 54.890625 
Q 58.5 48.1875 55.375 44.234375 
Q 52.25 40.28125 46.1875 39.3125 
Q 53.46875 37.75 57.5 32.78125 
Q 61.53125 27.828125 61.53125 20.40625 
Q 61.53125 10.640625 54.890625 5.3125 
Q 48.25 0 35.984375 0 
L 9.8125 0 
z
" id="DejaVuSans-66"/>
      <path d="M 8.5 21.578125 
L 8.5 54.6875 
L 17.484375 54.6875 
L 17.484375 21.921875 
Q 17.484375 14.15625 20.5 10.265625 
Q 23.53125 6.390625 29.59375 6.390625 
Q 36.859375 6.390625 41.078125 11.03125 
Q 45.3125 15.671875 45.3125 23.6875 
L 45.3125 54.6875 
L 54.296875 54.6875 
L 54.296875 0 
L 45.3125 0 
L 45.3125 8.40625 
Q 42.046875 3.421875 37.71875 1 
Q 33.40625 -1.421875 27.6875 -1.421875 
Q 18.265625 -1.421875 13.375 4.4375 
Q 8.5 10.296875 8.5 21.578125 
z
M 31.109375 56 
z
" id="DejaVuSans-117"/>
      <path d="M 45.40625 27.984375 
Q 45.40625 37.75 41.375 43.109375 
Q 37.359375 48.484375 30.078125 48.484375 
Q 22.859375 48.484375 18.828125 43.109375 
Q 14.796875 37.75 14.796875 27.984375 
Q 14.796875 18.265625 18.828125 12.890625 
Q 22.859375 7.515625 30.078125 7.515625 
Q 37.359375 7.515625 41.375 12.890625 
Q 45.40625 18.265625 45.40625 27.984375 
z
M 54.390625 6.78125 
Q 54.390625 -7.171875 48.1875 -13.984375 
Q 42 -20.796875 29.203125 -20.796875 
Q 24.46875 -20.796875 20.265625 -20.09375 
Q 16.0625 -19.390625 12.109375 -17.921875 
L 12.109375 -9.1875 
Q 16.0625 -11.328125 19.921875 -12.34375 
Q 23.78125 -13.375 27.78125 -13.375 
Q 36.625 -13.375 41.015625 -8.765625 
Q 45.40625 -4.15625 45.40625 5.171875 
L 45.40625 9.625 
Q 42.625 4.78125 38.28125 2.390625 
Q 33.9375 0 27.875 0 
Q 17.828125 0 11.671875 7.65625 
Q 5.515625 15.328125 5.515625 27.984375 
Q 5.515625 40.671875 11.671875 48.328125 
Q 17.828125 56 27.875 56 
Q 33.9375 56 38.28125 53.609375 
Q 42.625 51.21875 45.40625 46.390625 
L 45.40625 54.6875 
L 54.390625 54.6875 
z
" id="DejaVuSans-103"/>
      <path id="DejaVuSans-32"/>
      <path d="M 9.8125 72.90625 
L 23.09375 72.90625 
L 55.421875 11.921875 
L 55.421875 72.90625 
L 64.984375 72.90625 
L 64.984375 0 
L 51.703125 0 
L 19.390625 60.984375 
L 19.390625 0 
L 9.8125 0 
z
" id="DejaVuSans-78"/>
      <path d="M 52 44.1875 
Q 55.375 50.25 60.0625 53.125 
Q 64.75 56 71.09375 56 
Q 79.640625 56 84.28125 50.015625 
Q 88.921875 44.046875 88.921875 33.015625 
L 88.921875 0 
L 79.890625 0 
L 79.890625 32.71875 
Q 79.890625 40.578125 77.09375 44.375 
Q 74.3125 48.1875 68.609375 48.1875 
Q 61.625 48.1875 57.5625 43.546875 
Q 53.515625 38.921875 53.515625 30.90625 
L 53.515625 0 
L 44.484375 0 
L 44.484375 32.71875 
Q 44.484375 40.625 41.703125 44.40625 
Q 38.921875 48.1875 33.109375 48.1875 
Q 26.21875 48.1875 22.15625 43.53125 
Q 18.109375 38.875 18.109375 30.90625 
L 18.109375 0 
L 9.078125 0 
L 9.078125 54.6875 
L 18.109375 54.6875 
L 18.109375 46.1875 
Q 21.1875 51.21875 25.484375 53.609375 
Q 29.78125 56 35.6875 56 
Q 41.65625 56 45.828125 52.96875 
Q 50 49.953125 52 44.1875 
z
" id="DejaVuSans-109"/>
      <path d="M 48.6875 27.296875 
Q 48.6875 37.203125 44.609375 42.84375 
Q 40.53125 48.484375 33.40625 48.484375 
Q 26.265625 48.484375 22.1875 42.84375 
Q 18.109375 37.203125 18.109375 27.296875 
Q 18.109375 17.390625 22.1875 11.75 
Q 26.265625 6.109375 33.40625 6.109375 
Q 40.53125 6.109375 44.609375 11.75 
Q 48.6875 17.390625 48.6875 27.296875 
z
M 18.109375 46.390625 
Q 20.953125 51.265625 25.265625 53.625 
Q 29.59375 56 35.59375 56 
Q 45.5625 56 51.78125 48.09375 
Q 58.015625 40.1875 58.015625 27.296875 
Q 58.015625 14.40625 51.78125 6.484375 
Q 45.5625 -1.421875 35.59375 -1.421875 
Q 29.59375 -1.421875 25.265625 0.953125 
Q 20.953125 3.328125 18.109375 8.203125 
L 18.109375 0 
L 9.078125 0 
L 9.078125 75.984375 
L 18.109375 75.984375 
z
" id="DejaVuSans-98"/>
      <path d="M 56.203125 29.59375 
L 56.203125 25.203125 
L 14.890625 25.203125 
Q 15.484375 15.921875 20.484375 11.0625 
Q 25.484375 6.203125 34.421875 6.203125 
Q 39.59375 6.203125 44.453125 7.46875 
Q 49.3125 8.734375 54.109375 11.28125 
L 54.109375 2.78125 
Q 49.265625 0.734375 44.1875 -0.34375 
Q 39.109375 -1.421875 33.890625 -1.421875 
Q 20.796875 -1.421875 13.15625 6.1875 
Q 5.515625 13.8125 5.515625 26.8125 
Q 5.515625 40.234375 12.765625 48.109375 
Q 20.015625 56 32.328125 56 
Q 43.359375 56 49.78125 48.890625 
Q 56.203125 41.796875 56.203125 29.59375 
z
M 47.21875 32.234375 
Q 47.125 39.59375 43.09375 43.984375 
Q 39.0625 48.390625 32.421875 48.390625 
Q 24.90625 48.390625 20.390625 44.140625 
Q 15.875 39.890625 15.1875 32.171875 
z
" id="DejaVuSans-101"/>
      <path d="M 41.109375 46.296875 
Q 39.59375 47.171875 37.8125 47.578125 
Q 36.03125 48 33.890625 48 
Q 26.265625 48 22.1875 43.046875 
Q 18.109375 38.09375 18.109375 28.8125 
L 18.109375 0 
L 9.078125 0 
L 9.078125 54.6875 
L 18.109375 54.6875 
L 18.109375 46.1875 
Q 20.953125 51.171875 25.484375 53.578125 
Q 30.03125 56 36.53125 56 
Q 37.453125 56 38.578125 55.875 
Q 39.703125 55.765625 41.0625 55.515625 
z
" id="DejaVuSans-114"/>
     </defs>
     <g transform="translate(411.351562 699.690625)scale(0.1 -0.1)">
      <use xlink:href="#DejaVuSans-66"/>
      <use x="68.603516" xlink:href="#DejaVuSans-117"/>
      <use x="131.982422" xlink:href="#DejaVuSans-103"/>
      <use x="195.458984" xlink:href="#DejaVuSans-32"/>
      <use x="227.246094" xlink:href="#DejaVuSans-78"/>
      <use x="302.050781" xlink:href="#DejaVuSans-117"/>
      <use x="365.429688" xlink:href="#DejaVuSans-109"/>
      <use x="462.841797" xlink:href="#DejaVuSans-98"/>
      <use x="526.318359" xlink:href="#DejaVuSans-101"/>
      <use x="587.841797" xlink:href="#DejaVuSans-114"/>
     </g>
    </g>
   </g>
   <g id="matplotlib.axis_2">
    <g id="ytick_1">
     <g id="line2d_11">
      <defs>
       <path d="M 0 0 
L -3.5 0 
" id="m9c2058995f" style="stroke:#000000;stroke-width:0.8;"/>
      </defs>
      <g>
       <use style="stroke:#000000;stroke-width:0.8;" x="108" xlink:href="#m9c2058995f" y="640.8"/>
      </g>
     </g>
     <g id="text_12">
      <!-- 0 -->
      <g transform="translate(94.6375 644.599219)scale(0.1 -0.1)">
       <use xlink:href="#DejaVuSans-48"/>
      </g>
     </g>
    </g>
    <g id="ytick_2">
     <g id="line2d_12">
      <g>
       <use style="stroke:#000000;stroke-width:0.8;" x="108" xlink:href="#m9c2058995f" y="557.846347"/>
      </g>
     </g>
     <g id="text_13">
      <!-- 5000 -->
      <g transform="translate(75.55 561.645566)scale(0.1 -0.1)">
       <use xlink:href="#DejaVuSans-53"/>
       <use x="63.623047" xlink:href="#DejaVuSans-48"/>
       <use x="127.246094" xlink:href="#DejaVuSans-48"/>
       <use x="190.869141" xlink:href="#DejaVuSans-48"/>
      </g>
     </g>
    </g>
    <g id="ytick_3">
     <g id="line2d_13">
      <g>
       <use style="stroke:#000000;stroke-width:0.8;" x="108" xlink:href="#m9c2058995f" y="474.892694"/>
      </g>
     </g>
     <g id="text_14">
      <!-- 10000 -->
      <g transform="translate(69.1875 478.691913)scale(0.1 -0.1)">
       <use xlink:href="#DejaVuSans-49"/>
       <use x="63.623047" xlink:href="#DejaVuSans-48"/>
       <use x="127.246094" xlink:href="#DejaVuSans-48"/>
       <use x="190.869141" xlink:href="#DejaVuSans-48"/>
       <use x="254.492188" xlink:href="#DejaVuSans-48"/>
      </g>
     </g>
    </g>
    <g id="ytick_4">
     <g id="line2d_14">
      <g>
       <use style="stroke:#000000;stroke-width:0.8;" x="108" xlink:href="#m9c2058995f" y="391.939042"/>
      </g>
     </g>
     <g id="text_15">
      <!-- 15000 -->
      <g transform="translate(69.1875 395.73826)scale(0.1 -0.1)">
       <use xlink:href="#DejaVuSans-49"/>
       <use x="63.623047" xlink:href="#DejaVuSans-53"/>
       <use x="127.246094" xlink:href="#DejaVuSans-48"/>
       <use x="190.869141" xlink:href="#DejaVuSans-48"/>
       <use x="254.492188" xlink:href="#DejaVuSans-48"/>
      </g>
     </g>
    </g>
    <g id="ytick_5">
     <g id="line2d_15">
      <g>
       <use style="stroke:#000000;stroke-width:0.8;" x="108" xlink:href="#m9c2058995f" y="308.985389"/>
      </g>
     </g>
     <g id="text_16">
      <!-- 20000 -->
      <g transform="translate(69.1875 312.784608)scale(0.1 -0.1)">
       <use xlink:href="#DejaVuSans-50"/>
       <use x="63.623047" xlink:href="#DejaVuSans-48"/>
       <use x="127.246094" xlink:href="#DejaVuSans-48"/>
       <use x="190.869141" xlink:href="#DejaVuSans-48"/>
       <use x="254.492188" xlink:href="#DejaVuSans-48"/>
      </g>
     </g>
    </g>
    <g id="ytick_6">
     <g id="line2d_16">
      <g>
       <use style="stroke:#000000;stroke-width:0.8;" x="108" xlink:href="#m9c2058995f" y="226.031736"/>
      </g>
     </g>
     <g id="text_17">
      <!-- 25000 -->
      <g transform="translate(69.1875 229.830955)scale(0.1 -0.1)">
       <use xlink:href="#DejaVuSans-50"/>
       <use x="63.623047" xlink:href="#DejaVuSans-53"/>
       <use x="127.246094" xlink:href="#DejaVuSans-48"/>
       <use x="190.869141" xlink:href="#DejaVuSans-48"/>
       <use x="254.492188" xlink:href="#DejaVuSans-48"/>
      </g>
     </g>
    </g>
    <g id="ytick_7">
     <g id="line2d_17">
      <g>
       <use style="stroke:#000000;stroke-width:0.8;" x="108" xlink:href="#m9c2058995f" y="143.078083"/>
      </g>
     </g>
     <g id="text_18">
      <!-- 30000 -->
      <g transform="translate(69.1875 146.877302)scale(0.1 -0.1)">
       <use xlink:href="#DejaVuSans-51"/>
       <use x="63.623047" xlink:href="#DejaVuSans-48"/>
       <use x="127.246094" xlink:href="#DejaVuSans-48"/>
       <use x="190.869141" xlink:href="#DejaVuSans-48"/>
       <use x="254.492188" xlink:href="#DejaVuSans-48"/>
      </g>
     </g>
    </g>
    <g id="text_19">
     <!-- Time (seconds) -->
     <defs>
      <path d="M -0.296875 72.90625 
L 61.375 72.90625 
L 61.375 64.59375 
L 35.5 64.59375 
L 35.5 0 
L 25.59375 0 
L 25.59375 64.59375 
L -0.296875 64.59375 
z
" id="DejaVuSans-84"/>
      <path d="M 9.421875 54.6875 
L 18.40625 54.6875 
L 18.40625 0 
L 9.421875 0 
z
M 9.421875 75.984375 
L 18.40625 75.984375 
L 18.40625 64.59375 
L 9.421875 64.59375 
z
" id="DejaVuSans-105"/>
      <path d="M 31 75.875 
Q 24.46875 64.65625 21.28125 53.65625 
Q 18.109375 42.671875 18.109375 31.390625 
Q 18.109375 20.125 21.3125 9.0625 
Q 24.515625 -2 31 -13.1875 
L 23.1875 -13.1875 
Q 15.875 -1.703125 12.234375 9.375 
Q 8.59375 20.453125 8.59375 31.390625 
Q 8.59375 42.28125 12.203125 53.3125 
Q 15.828125 64.359375 23.1875 75.875 
z
" id="DejaVuSans-40"/>
      <path d="M 44.28125 53.078125 
L 44.28125 44.578125 
Q 40.484375 46.53125 36.375 47.5 
Q 32.28125 48.484375 27.875 48.484375 
Q 21.1875 48.484375 17.84375 46.4375 
Q 14.5 44.390625 14.5 40.28125 
Q 14.5 37.15625 16.890625 35.375 
Q 19.28125 33.59375 26.515625 31.984375 
L 29.59375 31.296875 
Q 39.15625 29.25 43.1875 25.515625 
Q 47.21875 21.78125 47.21875 15.09375 
Q 47.21875 7.46875 41.1875 3.015625 
Q 35.15625 -1.421875 24.609375 -1.421875 
Q 20.21875 -1.421875 15.453125 -0.5625 
Q 10.6875 0.296875 5.421875 2 
L 5.421875 11.28125 
Q 10.40625 8.6875 15.234375 7.390625 
Q 20.0625 6.109375 24.8125 6.109375 
Q 31.15625 6.109375 34.5625 8.28125 
Q 37.984375 10.453125 37.984375 14.40625 
Q 37.984375 18.0625 35.515625 20.015625 
Q 33.0625 21.96875 24.703125 23.78125 
L 21.578125 24.515625 
Q 13.234375 26.265625 9.515625 29.90625 
Q 5.8125 33.546875 5.8125 39.890625 
Q 5.8125 47.609375 11.28125 51.796875 
Q 16.75 56 26.8125 56 
Q 31.78125 56 36.171875 55.265625 
Q 40.578125 54.546875 44.28125 53.078125 
z
" id="DejaVuSans-115"/>
      <path d="M 48.78125 52.59375 
L 48.78125 44.1875 
Q 44.96875 46.296875 41.140625 47.34375 
Q 37.3125 48.390625 33.40625 48.390625 
Q 24.65625 48.390625 19.8125 42.84375 
Q 14.984375 37.3125 14.984375 27.296875 
Q 14.984375 17.28125 19.8125 11.734375 
Q 24.65625 6.203125 33.40625 6.203125 
Q 37.3125 6.203125 41.140625 7.25 
Q 44.96875 8.296875 48.78125 10.40625 
L 48.78125 2.09375 
Q 45.015625 0.34375 40.984375 -0.53125 
Q 36.96875 -1.421875 32.421875 -1.421875 
Q 20.0625 -1.421875 12.78125 6.34375 
Q 5.515625 14.109375 5.515625 27.296875 
Q 5.515625 40.671875 12.859375 48.328125 
Q 20.21875 56 33.015625 56 
Q 37.15625 56 41.109375 55.140625 
Q 45.0625 54.296875 48.78125 52.59375 
z
" id="DejaVuSans-99"/>
      <path d="M 30.609375 48.390625 
Q 23.390625 48.390625 19.1875 42.75 
Q 14.984375 37.109375 14.984375 27.296875 
Q 14.984375 17.484375 19.15625 11.84375 
Q 23.34375 6.203125 30.609375 6.203125 
Q 37.796875 6.203125 41.984375 11.859375 
Q 46.1875 17.53125 46.1875 27.296875 
Q 46.1875 37.015625 41.984375 42.703125 
Q 37.796875 48.390625 30.609375 48.390625 
z
M 30.609375 56 
Q 42.328125 56 49.015625 48.375 
Q 55.71875 40.765625 55.71875 27.296875 
Q 55.71875 13.875 49.015625 6.21875 
Q 42.328125 -1.421875 30.609375 -1.421875 
Q 18.84375 -1.421875 12.171875 6.21875 
Q 5.515625 13.875 5.515625 27.296875 
Q 5.515625 40.765625 12.171875 48.375 
Q 18.84375 56 30.609375 56 
z
" id="DejaVuSans-111"/>
      <path d="M 54.890625 33.015625 
L 54.890625 0 
L 45.90625 0 
L 45.90625 32.71875 
Q 45.90625 40.484375 42.875 44.328125 
Q 39.84375 48.1875 33.796875 48.1875 
Q 26.515625 48.1875 22.3125 43.546875 
Q 18.109375 38.921875 18.109375 30.90625 
L 18.109375 0 
L 9.078125 0 
L 9.078125 54.6875 
L 18.109375 54.6875 
L 18.109375 46.1875 
Q 21.34375 51.125 25.703125 53.5625 
Q 30.078125 56 35.796875 56 
Q 45.21875 56 50.046875 50.171875 
Q 54.890625 44.34375 54.890625 33.015625 
z
" id="DejaVuSans-110"/>
      <path d="M 45.40625 46.390625 
L 45.40625 75.984375 
L 54.390625 75.984375 
L 54.390625 0 
L 45.40625 0 
L 45.40625 8.203125 
Q 42.578125 3.328125 38.25 0.953125 
Q 33.9375 -1.421875 27.875 -1.421875 
Q 17.96875 -1.421875 11.734375 6.484375 
Q 5.515625 14.40625 5.515625 27.296875 
Q 5.515625 40.1875 11.734375 48.09375 
Q 17.96875 56 27.875 56 
Q 33.9375 56 38.25 53.625 
Q 42.578125 51.265625 45.40625 46.390625 
z
M 14.796875 27.296875 
Q 14.796875 17.390625 18.875 11.75 
Q 22.953125 6.109375 30.078125 6.109375 
Q 37.203125 6.109375 41.296875 11.75 
Q 45.40625 17.390625 45.40625 27.296875 
Q 45.40625 37.203125 41.296875 42.84375 
Q 37.203125 48.484375 30.078125 48.484375 
Q 22.953125 48.484375 18.875 42.84375 
Q 14.796875 37.203125 14.796875 27.296875 
z
" id="DejaVuSans-100"/>
      <path d="M 8.015625 75.875 
L 15.828125 75.875 
Q 23.140625 64.359375 26.78125 53.3125 
Q 30.421875 42.28125 30.421875 31.390625 
Q 30.421875 20.453125 26.78125 9.375 
Q 23.140625 -1.703125 15.828125 -13.1875 
L 8.015625 -13.1875 
Q 14.5 -2 17.703125 9.0625 
Q 20.90625 20.125 20.90625 31.390625 
Q 20.90625 42.671875 17.703125 53.65625 
Q 14.5 64.65625 8.015625 75.875 
z
" id="DejaVuSans-41"/>
     </defs>
     <g transform="translate(63.107812 401.915625)rotate(-90)scale(0.1 -0.1)">
      <use xlink:href="#DejaVuSans-84"/>
      <use x="61.037109" xlink:href="#DejaVuSans-105"/>
      <use x="88.820312" xlink:href="#DejaVuSans-109"/>
      <use x="186.232422" xlink:href="#DejaVuSans-101"/>
      <use x="247.755859" xlink:href="#DejaVuSans-32"/>
      <use x="279.542969" xlink:href="#DejaVuSans-40"/>
      <use x="318.556641" xlink:href="#DejaVuSans-115"/>
      <use x="370.65625" xlink:href="#DejaVuSans-101"/>
      <use x="432.179688" xlink:href="#DejaVuSans-99"/>
      <use x="487.160156" xlink:href="#DejaVuSans-111"/>
      <use x="548.341797" xlink:href="#DejaVuSans-110"/>
      <use x="611.720703" xlink:href="#DejaVuSans-100"/>
      <use x="675.197266" xlink:href="#DejaVuSans-115"/>
      <use x="727.296875" xlink:href="#DejaVuSans-41"/>
     </g>
    </g>
   </g>
   <g id="patch_203">
    <path d="M 108 640.8 
L 108 86.4 
" style="fill:none;stroke:#000000;stroke-linecap:square;stroke-linejoin:miter;stroke-width:0.8;"/>
   </g>
   <g id="patch_204">
    <path d="M 777.6 640.8 
L 777.6 86.4 
" style="fill:none;stroke:#000000;stroke-linecap:square;stroke-linejoin:miter;stroke-width:0.8;"/>
   </g>
   <g id="patch_205">
    <path d="M 108 640.8 
L 777.6 640.8 
" style="fill:none;stroke:#000000;stroke-linecap:square;stroke-linejoin:miter;stroke-width:0.8;"/>
   </g>
   <g id="patch_206">
    <path d="M 108 86.4 
L 777.6 86.4 
" style="fill:none;stroke:#000000;stroke-linecap:square;stroke-linejoin:miter;stroke-width:0.8;"/>
   </g>
   <g id="text_20">
    <!-- reached. Fuzzer: honggfuzz. Library:libxml2. For different campaigns -->
    <defs>
     <path d="M 34.28125 27.484375 
Q 23.390625 27.484375 19.1875 25 
Q 14.984375 22.515625 14.984375 16.5 
Q 14.984375 11.71875 18.140625 8.90625 
Q 21.296875 6.109375 26.703125 6.109375 
Q 34.1875 6.109375 38.703125 11.40625 
Q 43.21875 16.703125 43.21875 25.484375 
L 43.21875 27.484375 
z
M 52.203125 31.203125 
L 52.203125 0 
L 43.21875 0 
L 43.21875 8.296875 
Q 40.140625 3.328125 35.546875 0.953125 
Q 30.953125 -1.421875 24.3125 -1.421875 
Q 15.921875 -1.421875 10.953125 3.296875 
Q 6 8.015625 6 15.921875 
Q 6 25.140625 12.171875 29.828125 
Q 18.359375 34.515625 30.609375 34.515625 
L 43.21875 34.515625 
L 43.21875 35.40625 
Q 43.21875 41.609375 39.140625 45 
Q 35.0625 48.390625 27.6875 48.390625 
Q 23 48.390625 18.546875 47.265625 
Q 14.109375 46.140625 10.015625 43.890625 
L 10.015625 52.203125 
Q 14.9375 54.109375 19.578125 55.046875 
Q 24.21875 56 28.609375 56 
Q 40.484375 56 46.34375 49.84375 
Q 52.203125 43.703125 52.203125 31.203125 
z
" id="DejaVuSans-97"/>
     <path d="M 54.890625 33.015625 
L 54.890625 0 
L 45.90625 0 
L 45.90625 32.71875 
Q 45.90625 40.484375 42.875 44.328125 
Q 39.84375 48.1875 33.796875 48.1875 
Q 26.515625 48.1875 22.3125 43.546875 
Q 18.109375 38.921875 18.109375 30.90625 
L 18.109375 0 
L 9.078125 0 
L 9.078125 75.984375 
L 18.109375 75.984375 
L 18.109375 46.1875 
Q 21.34375 51.125 25.703125 53.5625 
Q 30.078125 56 35.796875 56 
Q 45.21875 56 50.046875 50.171875 
Q 54.890625 44.34375 54.890625 33.015625 
z
" id="DejaVuSans-104"/>
     <path d="M 10.6875 12.40625 
L 21 12.40625 
L 21 0 
L 10.6875 0 
z
" id="DejaVuSans-46"/>
     <path d="M 9.8125 72.90625 
L 51.703125 72.90625 
L 51.703125 64.59375 
L 19.671875 64.59375 
L 19.671875 43.109375 
L 48.578125 43.109375 
L 48.578125 34.8125 
L 19.671875 34.8125 
L 19.671875 0 
L 9.8125 0 
z
" id="DejaVuSans-70"/>
     <path d="M 5.515625 54.6875 
L 48.1875 54.6875 
L 48.1875 46.484375 
L 14.40625 7.171875 
L 48.1875 7.171875 
L 48.1875 0 
L 4.296875 0 
L 4.296875 8.203125 
L 38.09375 47.515625 
L 5.515625 47.515625 
z
" id="DejaVuSans-122"/>
     <path d="M 11.71875 12.40625 
L 22.015625 12.40625 
L 22.015625 0 
L 11.71875 0 
z
M 11.71875 51.703125 
L 22.015625 51.703125 
L 22.015625 39.3125 
L 11.71875 39.3125 
z
" id="DejaVuSans-58"/>
     <path d="M 37.109375 75.984375 
L 37.109375 68.5 
L 28.515625 68.5 
Q 23.6875 68.5 21.796875 66.546875 
Q 19.921875 64.59375 19.921875 59.515625 
L 19.921875 54.6875 
L 34.71875 54.6875 
L 34.71875 47.703125 
L 19.921875 47.703125 
L 19.921875 0 
L 10.890625 0 
L 10.890625 47.703125 
L 2.296875 47.703125 
L 2.296875 54.6875 
L 10.890625 54.6875 
L 10.890625 58.5 
Q 10.890625 67.625 15.140625 71.796875 
Q 19.390625 75.984375 28.609375 75.984375 
z
" id="DejaVuSans-102"/>
     <path d="M 9.8125 72.90625 
L 19.671875 72.90625 
L 19.671875 8.296875 
L 55.171875 8.296875 
L 55.171875 0 
L 9.8125 0 
z
" id="DejaVuSans-76"/>
     <path d="M 32.171875 -5.078125 
Q 28.375 -14.84375 24.75 -17.8125 
Q 21.140625 -20.796875 15.09375 -20.796875 
L 7.90625 -20.796875 
L 7.90625 -13.28125 
L 13.1875 -13.28125 
Q 16.890625 -13.28125 18.9375 -11.515625 
Q 21 -9.765625 23.484375 -3.21875 
L 25.09375 0.875 
L 2.984375 54.6875 
L 12.5 54.6875 
L 29.59375 11.921875 
L 46.6875 54.6875 
L 56.203125 54.6875 
z
" id="DejaVuSans-121"/>
     <path d="M 9.421875 75.984375 
L 18.40625 75.984375 
L 18.40625 0 
L 9.421875 0 
z
" id="DejaVuSans-108"/>
     <path d="M 54.890625 54.6875 
L 35.109375 28.078125 
L 55.90625 0 
L 45.3125 0 
L 29.390625 21.484375 
L 13.484375 0 
L 2.875 0 
L 24.125 28.609375 
L 4.6875 54.6875 
L 15.28125 54.6875 
L 29.78125 35.203125 
L 44.28125 54.6875 
z
" id="DejaVuSans-120"/>
     <path d="M 18.3125 70.21875 
L 18.3125 54.6875 
L 36.8125 54.6875 
L 36.8125 47.703125 
L 18.3125 47.703125 
L 18.3125 18.015625 
Q 18.3125 11.328125 20.140625 9.421875 
Q 21.96875 7.515625 27.59375 7.515625 
L 36.8125 7.515625 
L 36.8125 0 
L 27.59375 0 
Q 17.1875 0 13.234375 3.875 
Q 9.28125 7.765625 9.28125 18.015625 
L 9.28125 47.703125 
L 2.6875 47.703125 
L 2.6875 54.6875 
L 9.28125 54.6875 
L 9.28125 70.21875 
z
" id="DejaVuSans-116"/>
     <path d="M 18.109375 8.203125 
L 18.109375 -20.796875 
L 9.078125 -20.796875 
L 9.078125 54.6875 
L 18.109375 54.6875 
L 18.109375 46.390625 
Q 20.953125 51.265625 25.265625 53.625 
Q 29.59375 56 35.59375 56 
Q 45.5625 56 51.78125 48.09375 
Q 58.015625 40.1875 58.015625 27.296875 
Q 58.015625 14.40625 51.78125 6.484375 
Q 45.5625 -1.421875 35.59375 -1.421875 
Q 29.59375 -1.421875 25.265625 0.953125 
Q 20.953125 3.328125 18.109375 8.203125 
z
M 48.6875 27.296875 
Q 48.6875 37.203125 44.609375 42.84375 
Q 40.53125 48.484375 33.40625 48.484375 
Q 26.265625 48.484375 22.1875 42.84375 
Q 18.109375 37.203125 18.109375 27.296875 
Q 18.109375 17.390625 22.1875 11.75 
Q 26.265625 6.109375 33.40625 6.109375 
Q 40.53125 6.109375 44.609375 11.75 
Q 48.6875 17.390625 48.6875 27.296875 
z
" id="DejaVuSans-112"/>
    </defs>
    <g transform="translate(235.351875 80.4)scale(0.12 -0.12)">
     <use xlink:href="#DejaVuSans-114"/>
     <use x="41.082031" xlink:href="#DejaVuSans-101"/>
     <use x="102.605469" xlink:href="#DejaVuSans-97"/>
     <use x="163.884766" xlink:href="#DejaVuSans-99"/>
     <use x="218.865234" xlink:href="#DejaVuSans-104"/>
     <use x="282.244141" xlink:href="#DejaVuSans-101"/>
     <use x="343.767578" xlink:href="#DejaVuSans-100"/>
     <use x="407.244141" xlink:href="#DejaVuSans-46"/>
     <use x="439.03125" xlink:href="#DejaVuSans-32"/>
     <use x="470.818359" xlink:href="#DejaVuSans-70"/>
     <use x="528.259766" xlink:href="#DejaVuSans-117"/>
     <use x="591.638672" xlink:href="#DejaVuSans-122"/>
     <use x="644.128906" xlink:href="#DejaVuSans-122"/>
     <use x="696.619141" xlink:href="#DejaVuSans-101"/>
     <use x="758.142578" xlink:href="#DejaVuSans-114"/>
     <use x="799.240234" xlink:href="#DejaVuSans-58"/>
     <use x="832.931641" xlink:href="#DejaVuSans-32"/>
     <use x="864.71875" xlink:href="#DejaVuSans-104"/>
     <use x="928.097656" xlink:href="#DejaVuSans-111"/>
     <use x="989.279297" xlink:href="#DejaVuSans-110"/>
     <use x="1052.658203" xlink:href="#DejaVuSans-103"/>
     <use x="1116.134766" xlink:href="#DejaVuSans-103"/>
     <use x="1179.611328" xlink:href="#DejaVuSans-102"/>
     <use x="1214.816406" xlink:href="#DejaVuSans-117"/>
     <use x="1278.195312" xlink:href="#DejaVuSans-122"/>
     <use x="1330.685547" xlink:href="#DejaVuSans-122"/>
     <use x="1383.175781" xlink:href="#DejaVuSans-46"/>
     <use x="1414.962891" xlink:href="#DejaVuSans-32"/>
     <use x="1446.75" xlink:href="#DejaVuSans-76"/>
     <use x="1502.462891" xlink:href="#DejaVuSans-105"/>
     <use x="1530.246094" xlink:href="#DejaVuSans-98"/>
     <use x="1593.722656" xlink:href="#DejaVuSans-114"/>
     <use x="1634.835938" xlink:href="#DejaVuSans-97"/>
     <use x="1696.115234" xlink:href="#DejaVuSans-114"/>
     <use x="1737.228516" xlink:href="#DejaVuSans-121"/>
     <use x="1796.298828" xlink:href="#DejaVuSans-58"/>
     <use x="1829.990234" xlink:href="#DejaVuSans-108"/>
     <use x="1857.773438" xlink:href="#DejaVuSans-105"/>
     <use x="1885.556641" xlink:href="#DejaVuSans-98"/>
     <use x="1949.033203" xlink:href="#DejaVuSans-120"/>
     <use x="2008.212891" xlink:href="#DejaVuSans-109"/>
     <use x="2105.625" xlink:href="#DejaVuSans-108"/>
     <use x="2133.408203" xlink:href="#DejaVuSans-50"/>
     <use x="2197.03125" xlink:href="#DejaVuSans-46"/>
     <use x="2228.818359" xlink:href="#DejaVuSans-32"/>
     <use x="2260.605469" xlink:href="#DejaVuSans-70"/>
     <use x="2318.078125" xlink:href="#DejaVuSans-111"/>
     <use x="2379.259766" xlink:href="#DejaVuSans-114"/>
     <use x="2420.373047" xlink:href="#DejaVuSans-32"/>
     <use x="2452.160156" xlink:href="#DejaVuSans-100"/>
     <use x="2515.636719" xlink:href="#DejaVuSans-105"/>
     <use x="2543.419922" xlink:href="#DejaVuSans-102"/>
     <use x="2578.625" xlink:href="#DejaVuSans-102"/>
     <use x="2613.830078" xlink:href="#DejaVuSans-101"/>
     <use x="2675.353516" xlink:href="#DejaVuSans-114"/>
     <use x="2716.435547" xlink:href="#DejaVuSans-101"/>
     <use x="2777.958984" xlink:href="#DejaVuSans-110"/>
     <use x="2841.337891" xlink:href="#DejaVuSans-116"/>
     <use x="2880.546875" xlink:href="#DejaVuSans-32"/>
     <use x="2912.333984" xlink:href="#DejaVuSans-99"/>
     <use x="2967.314453" xlink:href="#DejaVuSans-97"/>
     <use x="3028.59375" xlink:href="#DejaVuSans-109"/>
     <use x="3126.005859" xlink:href="#DejaVuSans-112"/>
     <use x="3189.482422" xlink:href="#DejaVuSans-97"/>
     <use x="3250.761719" xlink:href="#DejaVuSans-105"/>
     <use x="3278.544922" xlink:href="#DejaVuSans-103"/>
     <use x="3342.021484" xlink:href="#DejaVuSans-110"/>
     <use x="3405.400391" xlink:href="#DejaVuSans-115"/>
    </g>
   </g>
  </g>
 </g>
 <defs>
  <clipPath id="pb964f4aed6">
   <rect height="554.4" width="669.6" x="108" y="86.4"/>
  </clipPath>
 </defs>
</svg>
