<?xml version="1.0" encoding="utf-8" standalone="no"?>
<!DOCTYPE svg PUBLIC "-//W3C//DTD SVG 1.1//EN"
  "http://www.w3.org/Graphics/SVG/1.1/DTD/svg11.dtd">
<!-- Created with matplotlib (https://matplotlib.org/) -->
<svg height="720pt" version="1.1" viewBox="0 0 1080 720" width="1080pt" xmlns="http://www.w3.org/2000/svg" xmlns:xlink="http://www.w3.org/1999/xlink">
 <defs>
  <style type="text/css">
*{stroke-linecap:butt;stroke-linejoin:round;}
  </style>
 </defs>
 <g id="figure_1">
  <g id="patch_1">
   <path d="M 0 720 
L 1080 720 
L 1080 0 
L 0 0 
z
" style="fill:#ffffff;"/>
  </g>
  <g id="axes_1">
   <g id="patch_2">
    <path d="M 24.19 337.52 
L 354.648401 337.52 
L 354.648401 25.44 
L 24.19 25.44 
z
" style="fill:#ffffff;"/>
   </g>
   <g id="PolyCollection_1">
    <defs>
     <path d="M 24.559793 -513.68098 
L 24.559793 -264.01698 
L 24.598718 -296.691455 
L 25.747022 -318.774283 
L 28.841602 -335.986449 
L 31.216061 -350.624488 
L 31.391226 -363.910565 
L 34.660971 -376.747918 
L 37.074355 -390.335075 
L 41.609181 -386.411614 
L 50.056024 -386.952984 
L 50.192263 -399.888544 
L 51.107013 -401.876364 
L 52.994902 -405.221807 
L 53.384158 -409.442014 
L 53.500934 -414.320918 
L 53.520397 -413.107068 
L 54.259982 -418.995483 
L 55.291509 -425.294756 
L 56.965308 -426.432124 
L 59.242452 -424.665417 
L 60.70216 -431.307931 
L 64.049756 -434.528285 
L 64.224921 -441.656884 
L 64.439012 -445.344275 
L 65.567853 -449.352854 
L 66.852396 -453.659098 
L 75.182462 -458.270857 
L 79.483734 -459.764273 
L 102.313566 -464.856246 
L 105.739013 -470.356589 
L 106.517524 -476.581673 
L 137.677422 -478.900707 
L 190.927565 -478.575568 
L 190.966491 -481.974307 
L 198.946227 -485.621052 
L 199.17978 -489.504571 
L 200.79519 -491.199071 
L 201.515313 -495.47223 
L 202.099196 -499.990756 
L 206.439394 -502.387691 
L 227.575964 -507.312 
L 227.926294 -512.761293 
L 269.031668 -515.648126 
L 269.031668 -529.546976 
L 269.031668 -529.546976 
L 227.926294 -526.06483 
L 227.575964 -525.145143 
L 206.439394 -523.700472 
L 202.099196 -519.728428 
L 201.515313 -517.877974 
L 200.79519 -515.782154 
L 199.17978 -511.107674 
L 198.946227 -508.622213 
L 190.966491 -505.899979 
L 190.927565 -502.929739 
L 137.677422 -496.235619 
L 106.517524 -492.185673 
L 105.739013 -492.041779 
L 102.313566 -491.173142 
L 79.483734 -489.896135 
L 75.182462 -485.020571 
L 66.852396 -483.263351 
L 65.567853 -481.200616 
L 64.439012 -478.840215 
L 64.224921 -476.158626 
L 64.049756 -476.918245 
L 60.70216 -473.76962 
L 59.242452 -474.043154 
L 56.965308 -465.907468 
L 55.291509 -460.675856 
L 54.259982 -460.60615 
L 53.520397 -460.125585 
L 53.500934 -452.542756 
L 53.384158 -451.05268 
L 52.994902 -448.903907 
L 51.107013 -445.880371 
L 50.192263 -441.499211 
L 50.056024 -448.065792 
L 41.609181 -442.238182 
L 37.074355 -431.945741 
L 34.660971 -439.163918 
L 31.391226 -445.632292 
L 31.216061 -452.549389 
L 28.841602 -460.818449 
L 25.747022 -471.661635 
L 24.598718 -487.375484 
L 24.559793 -513.68098 
z
" id="m9e1ca3cdb8" style="stroke:#0000ff;stroke-opacity:0.1;"/>
    </defs>
    <g clip-path="url(#p74f29d4caa)">
     <use style="fill:#0000ff;fill-opacity:0.1;stroke:#0000ff;stroke-opacity:0.1;" x="0" xlink:href="#m9e1ca3cdb8" y="720"/>
    </g>
   </g>
   <g id="matplotlib.axis_1">
    <g id="xtick_1">
     <g id="line2d_1">
      <defs>
       <path d="M 0 0 
L 0 3.5 
" id="m92f65edb7a" style="stroke:#000000;stroke-width:0.8;"/>
      </defs>
      <g>
       <use style="stroke:#000000;stroke-width:0.8;" x="63.076618" xlink:href="#m92f65edb7a" y="337.52"/>
      </g>
     </g>
     <g id="text_1">
      <!-- 10000 -->
      <defs>
       <path d="M 12.40625 8.296875 
L 28.515625 8.296875 
L 28.515625 63.921875 
L 10.984375 60.40625 
L 10.984375 69.390625 
L 28.421875 72.90625 
L 38.28125 72.90625 
L 38.28125 8.296875 
L 54.390625 8.296875 
L 54.390625 0 
L 12.40625 0 
z
" id="DejaVuSans-49"/>
       <path d="M 31.78125 66.40625 
Q 24.171875 66.40625 20.328125 58.90625 
Q 16.5 51.421875 16.5 36.375 
Q 16.5 21.390625 20.328125 13.890625 
Q 24.171875 6.390625 31.78125 6.390625 
Q 39.453125 6.390625 43.28125 13.890625 
Q 47.125 21.390625 47.125 36.375 
Q 47.125 51.421875 43.28125 58.90625 
Q 39.453125 66.40625 31.78125 66.40625 
z
M 31.78125 74.21875 
Q 44.046875 74.21875 50.515625 64.515625 
Q 56.984375 54.828125 56.984375 36.375 
Q 56.984375 17.96875 50.515625 8.265625 
Q 44.046875 -1.421875 31.78125 -1.421875 
Q 19.53125 -1.421875 13.0625 8.265625 
Q 6.59375 17.96875 6.59375 36.375 
Q 6.59375 54.828125 13.0625 64.515625 
Q 19.53125 74.21875 31.78125 74.21875 
z
" id="DejaVuSans-48"/>
      </defs>
      <g transform="translate(47.170368 352.118438)scale(0.1 -0.1)">
       <use xlink:href="#DejaVuSans-49"/>
       <use x="63.623047" xlink:href="#DejaVuSans-48"/>
       <use x="127.246094" xlink:href="#DejaVuSans-48"/>
       <use x="190.869141" xlink:href="#DejaVuSans-48"/>
       <use x="254.492188" xlink:href="#DejaVuSans-48"/>
      </g>
     </g>
    </g>
    <g id="xtick_2">
     <g id="line2d_2">
      <g>
       <use style="stroke:#000000;stroke-width:0.8;" x="102.002161" xlink:href="#m92f65edb7a" y="337.52"/>
      </g>
     </g>
     <g id="text_2">
      <!-- 20000 -->
      <defs>
       <path d="M 19.1875 8.296875 
L 53.609375 8.296875 
L 53.609375 0 
L 7.328125 0 
L 7.328125 8.296875 
Q 12.9375 14.109375 22.625 23.890625 
Q 32.328125 33.6875 34.8125 36.53125 
Q 39.546875 41.84375 41.421875 45.53125 
Q 43.3125 49.21875 43.3125 52.78125 
Q 43.3125 58.59375 39.234375 62.25 
Q 35.15625 65.921875 28.609375 65.921875 
Q 23.96875 65.921875 18.8125 64.3125 
Q 13.671875 62.703125 7.8125 59.421875 
L 7.8125 69.390625 
Q 13.765625 71.78125 18.9375 73 
Q 24.125 74.21875 28.421875 74.21875 
Q 39.75 74.21875 46.484375 68.546875 
Q 53.21875 62.890625 53.21875 53.421875 
Q 53.21875 48.921875 51.53125 44.890625 
Q 49.859375 40.875 45.40625 35.40625 
Q 44.1875 33.984375 37.640625 27.21875 
Q 31.109375 20.453125 19.1875 8.296875 
z
" id="DejaVuSans-50"/>
      </defs>
      <g transform="translate(86.095911 352.118438)scale(0.1 -0.1)">
       <use xlink:href="#DejaVuSans-50"/>
       <use x="63.623047" xlink:href="#DejaVuSans-48"/>
       <use x="127.246094" xlink:href="#DejaVuSans-48"/>
       <use x="190.869141" xlink:href="#DejaVuSans-48"/>
       <use x="254.492188" xlink:href="#DejaVuSans-48"/>
      </g>
     </g>
    </g>
    <g id="xtick_3">
     <g id="line2d_3">
      <g>
       <use style="stroke:#000000;stroke-width:0.8;" x="140.927705" xlink:href="#m92f65edb7a" y="337.52"/>
      </g>
     </g>
     <g id="text_3">
      <!-- 30000 -->
      <defs>
       <path d="M 40.578125 39.3125 
Q 47.65625 37.796875 51.625 33 
Q 55.609375 28.21875 55.609375 21.1875 
Q 55.609375 10.40625 48.1875 4.484375 
Q 40.765625 -1.421875 27.09375 -1.421875 
Q 22.515625 -1.421875 17.65625 -0.515625 
Q 12.796875 0.390625 7.625 2.203125 
L 7.625 11.71875 
Q 11.71875 9.328125 16.59375 8.109375 
Q 21.484375 6.890625 26.8125 6.890625 
Q 36.078125 6.890625 40.9375 10.546875 
Q 45.796875 14.203125 45.796875 21.1875 
Q 45.796875 27.640625 41.28125 31.265625 
Q 36.765625 34.90625 28.71875 34.90625 
L 20.21875 34.90625 
L 20.21875 43.015625 
L 29.109375 43.015625 
Q 36.375 43.015625 40.234375 45.921875 
Q 44.09375 48.828125 44.09375 54.296875 
Q 44.09375 59.90625 40.109375 62.90625 
Q 36.140625 65.921875 28.71875 65.921875 
Q 24.65625 65.921875 20.015625 65.03125 
Q 15.375 64.15625 9.8125 62.3125 
L 9.8125 71.09375 
Q 15.4375 72.65625 20.34375 73.4375 
Q 25.25 74.21875 29.59375 74.21875 
Q 40.828125 74.21875 47.359375 69.109375 
Q 53.90625 64.015625 53.90625 55.328125 
Q 53.90625 49.265625 50.4375 45.09375 
Q 46.96875 40.921875 40.578125 39.3125 
z
" id="DejaVuSans-51"/>
      </defs>
      <g transform="translate(125.021455 352.118438)scale(0.1 -0.1)">
       <use xlink:href="#DejaVuSans-51"/>
       <use x="63.623047" xlink:href="#DejaVuSans-48"/>
       <use x="127.246094" xlink:href="#DejaVuSans-48"/>
       <use x="190.869141" xlink:href="#DejaVuSans-48"/>
       <use x="254.492188" xlink:href="#DejaVuSans-48"/>
      </g>
     </g>
    </g>
    <g id="xtick_4">
     <g id="line2d_4">
      <g>
       <use style="stroke:#000000;stroke-width:0.8;" x="179.853248" xlink:href="#m92f65edb7a" y="337.52"/>
      </g>
     </g>
     <g id="text_4">
      <!-- 40000 -->
      <defs>
       <path d="M 37.796875 64.3125 
L 12.890625 25.390625 
L 37.796875 25.390625 
z
M 35.203125 72.90625 
L 47.609375 72.90625 
L 47.609375 25.390625 
L 58.015625 25.390625 
L 58.015625 17.1875 
L 47.609375 17.1875 
L 47.609375 0 
L 37.796875 0 
L 37.796875 17.1875 
L 4.890625 17.1875 
L 4.890625 26.703125 
z
" id="DejaVuSans-52"/>
      </defs>
      <g transform="translate(163.946998 352.118438)scale(0.1 -0.1)">
       <use xlink:href="#DejaVuSans-52"/>
       <use x="63.623047" xlink:href="#DejaVuSans-48"/>
       <use x="127.246094" xlink:href="#DejaVuSans-48"/>
       <use x="190.869141" xlink:href="#DejaVuSans-48"/>
       <use x="254.492188" xlink:href="#DejaVuSans-48"/>
      </g>
     </g>
    </g>
    <g id="xtick_5">
     <g id="line2d_5">
      <g>
       <use style="stroke:#000000;stroke-width:0.8;" x="218.778791" xlink:href="#m92f65edb7a" y="337.52"/>
      </g>
     </g>
     <g id="text_5">
      <!-- 50000 -->
      <defs>
       <path d="M 10.796875 72.90625 
L 49.515625 72.90625 
L 49.515625 64.59375 
L 19.828125 64.59375 
L 19.828125 46.734375 
Q 21.96875 47.46875 24.109375 47.828125 
Q 26.265625 48.1875 28.421875 48.1875 
Q 40.625 48.1875 47.75 41.5 
Q 54.890625 34.8125 54.890625 23.390625 
Q 54.890625 11.625 47.5625 5.09375 
Q 40.234375 -1.421875 26.90625 -1.421875 
Q 22.3125 -1.421875 17.546875 -0.640625 
Q 12.796875 0.140625 7.71875 1.703125 
L 7.71875 11.625 
Q 12.109375 9.234375 16.796875 8.0625 
Q 21.484375 6.890625 26.703125 6.890625 
Q 35.15625 6.890625 40.078125 11.328125 
Q 45.015625 15.765625 45.015625 23.390625 
Q 45.015625 31 40.078125 35.4375 
Q 35.15625 39.890625 26.703125 39.890625 
Q 22.75 39.890625 18.8125 39.015625 
Q 14.890625 38.140625 10.796875 36.28125 
z
" id="DejaVuSans-53"/>
      </defs>
      <g transform="translate(202.872541 352.118438)scale(0.1 -0.1)">
       <use xlink:href="#DejaVuSans-53"/>
       <use x="63.623047" xlink:href="#DejaVuSans-48"/>
       <use x="127.246094" xlink:href="#DejaVuSans-48"/>
       <use x="190.869141" xlink:href="#DejaVuSans-48"/>
       <use x="254.492188" xlink:href="#DejaVuSans-48"/>
      </g>
     </g>
    </g>
    <g id="xtick_6">
     <g id="line2d_6">
      <g>
       <use style="stroke:#000000;stroke-width:0.8;" x="257.704335" xlink:href="#m92f65edb7a" y="337.52"/>
      </g>
     </g>
     <g id="text_6">
      <!-- 60000 -->
      <defs>
       <path d="M 33.015625 40.375 
Q 26.375 40.375 22.484375 35.828125 
Q 18.609375 31.296875 18.609375 23.390625 
Q 18.609375 15.53125 22.484375 10.953125 
Q 26.375 6.390625 33.015625 6.390625 
Q 39.65625 6.390625 43.53125 10.953125 
Q 47.40625 15.53125 47.40625 23.390625 
Q 47.40625 31.296875 43.53125 35.828125 
Q 39.65625 40.375 33.015625 40.375 
z
M 52.59375 71.296875 
L 52.59375 62.3125 
Q 48.875 64.0625 45.09375 64.984375 
Q 41.3125 65.921875 37.59375 65.921875 
Q 27.828125 65.921875 22.671875 59.328125 
Q 17.53125 52.734375 16.796875 39.40625 
Q 19.671875 43.65625 24.015625 45.921875 
Q 28.375 48.1875 33.59375 48.1875 
Q 44.578125 48.1875 50.953125 41.515625 
Q 57.328125 34.859375 57.328125 23.390625 
Q 57.328125 12.15625 50.6875 5.359375 
Q 44.046875 -1.421875 33.015625 -1.421875 
Q 20.359375 -1.421875 13.671875 8.265625 
Q 6.984375 17.96875 6.984375 36.375 
Q 6.984375 53.65625 15.1875 63.9375 
Q 23.390625 74.21875 37.203125 74.21875 
Q 40.921875 74.21875 44.703125 73.484375 
Q 48.484375 72.75 52.59375 71.296875 
z
" id="DejaVuSans-54"/>
      </defs>
      <g transform="translate(241.798085 352.118438)scale(0.1 -0.1)">
       <use xlink:href="#DejaVuSans-54"/>
       <use x="63.623047" xlink:href="#DejaVuSans-48"/>
       <use x="127.246094" xlink:href="#DejaVuSans-48"/>
       <use x="190.869141" xlink:href="#DejaVuSans-48"/>
       <use x="254.492188" xlink:href="#DejaVuSans-48"/>
      </g>
     </g>
    </g>
    <g id="xtick_7">
     <g id="line2d_7">
      <g>
       <use style="stroke:#000000;stroke-width:0.8;" x="296.629878" xlink:href="#m92f65edb7a" y="337.52"/>
      </g>
     </g>
     <g id="text_7">
      <!-- 70000 -->
      <defs>
       <path d="M 8.203125 72.90625 
L 55.078125 72.90625 
L 55.078125 68.703125 
L 28.609375 0 
L 18.3125 0 
L 43.21875 64.59375 
L 8.203125 64.59375 
z
" id="DejaVuSans-55"/>
      </defs>
      <g transform="translate(280.723628 352.118438)scale(0.1 -0.1)">
       <use xlink:href="#DejaVuSans-55"/>
       <use x="63.623047" xlink:href="#DejaVuSans-48"/>
       <use x="127.246094" xlink:href="#DejaVuSans-48"/>
       <use x="190.869141" xlink:href="#DejaVuSans-48"/>
       <use x="254.492188" xlink:href="#DejaVuSans-48"/>
      </g>
     </g>
    </g>
    <g id="xtick_8">
     <g id="line2d_8">
      <g>
       <use style="stroke:#000000;stroke-width:0.8;" x="335.555422" xlink:href="#m92f65edb7a" y="337.52"/>
      </g>
     </g>
     <g id="text_8">
      <!-- 80000 -->
      <defs>
       <path d="M 31.78125 34.625 
Q 24.75 34.625 20.71875 30.859375 
Q 16.703125 27.09375 16.703125 20.515625 
Q 16.703125 13.921875 20.71875 10.15625 
Q 24.75 6.390625 31.78125 6.390625 
Q 38.8125 6.390625 42.859375 10.171875 
Q 46.921875 13.96875 46.921875 20.515625 
Q 46.921875 27.09375 42.890625 30.859375 
Q 38.875 34.625 31.78125 34.625 
z
M 21.921875 38.8125 
Q 15.578125 40.375 12.03125 44.71875 
Q 8.5 49.078125 8.5 55.328125 
Q 8.5 64.0625 14.71875 69.140625 
Q 20.953125 74.21875 31.78125 74.21875 
Q 42.671875 74.21875 48.875 69.140625 
Q 55.078125 64.0625 55.078125 55.328125 
Q 55.078125 49.078125 51.53125 44.71875 
Q 48 40.375 41.703125 38.8125 
Q 48.828125 37.15625 52.796875 32.3125 
Q 56.78125 27.484375 56.78125 20.515625 
Q 56.78125 9.90625 50.3125 4.234375 
Q 43.84375 -1.421875 31.78125 -1.421875 
Q 19.734375 -1.421875 13.25 4.234375 
Q 6.78125 9.90625 6.78125 20.515625 
Q 6.78125 27.484375 10.78125 32.3125 
Q 14.796875 37.15625 21.921875 38.8125 
z
M 18.3125 54.390625 
Q 18.3125 48.734375 21.84375 45.5625 
Q 25.390625 42.390625 31.78125 42.390625 
Q 38.140625 42.390625 41.71875 45.5625 
Q 45.3125 48.734375 45.3125 54.390625 
Q 45.3125 60.0625 41.71875 63.234375 
Q 38.140625 66.40625 31.78125 66.40625 
Q 25.390625 66.40625 21.84375 63.234375 
Q 18.3125 60.0625 18.3125 54.390625 
z
" id="DejaVuSans-56"/>
      </defs>
      <g transform="translate(319.649172 352.118438)scale(0.1 -0.1)">
       <use xlink:href="#DejaVuSans-56"/>
       <use x="63.623047" xlink:href="#DejaVuSans-48"/>
       <use x="127.246094" xlink:href="#DejaVuSans-48"/>
       <use x="190.869141" xlink:href="#DejaVuSans-48"/>
       <use x="254.492188" xlink:href="#DejaVuSans-48"/>
      </g>
     </g>
    </g>
   </g>
   <g id="matplotlib.axis_2">
    <g id="ytick_1">
     <g id="line2d_9">
      <defs>
       <path d="M 0 0 
L -3.5 0 
" id="mce20846470" style="stroke:#000000;stroke-width:0.8;"/>
      </defs>
      <g>
       <use style="stroke:#000000;stroke-width:0.8;" x="24.19" xlink:href="#mce20846470" y="337.52"/>
      </g>
     </g>
     <g id="text_9">
      <!-- 0 -->
      <g transform="translate(10.8275 341.319219)scale(0.1 -0.1)">
       <use xlink:href="#DejaVuSans-48"/>
      </g>
     </g>
    </g>
    <g id="ytick_2">
     <g id="line2d_10">
      <g>
       <use style="stroke:#000000;stroke-width:0.8;" x="24.19" xlink:href="#mce20846470" y="273.830204"/>
      </g>
     </g>
     <g id="text_10">
      <!-- 2 -->
      <g transform="translate(10.8275 277.629423)scale(0.1 -0.1)">
       <use xlink:href="#DejaVuSans-50"/>
      </g>
     </g>
    </g>
    <g id="ytick_3">
     <g id="line2d_11">
      <g>
       <use style="stroke:#000000;stroke-width:0.8;" x="24.19" xlink:href="#mce20846470" y="210.140408"/>
      </g>
     </g>
     <g id="text_11">
      <!-- 4 -->
      <g transform="translate(10.8275 213.939627)scale(0.1 -0.1)">
       <use xlink:href="#DejaVuSans-52"/>
      </g>
     </g>
    </g>
    <g id="ytick_4">
     <g id="line2d_12">
      <g>
       <use style="stroke:#000000;stroke-width:0.8;" x="24.19" xlink:href="#mce20846470" y="146.450612"/>
      </g>
     </g>
     <g id="text_12">
      <!-- 6 -->
      <g transform="translate(10.8275 150.249831)scale(0.1 -0.1)">
       <use xlink:href="#DejaVuSans-54"/>
      </g>
     </g>
    </g>
    <g id="ytick_5">
     <g id="line2d_13">
      <g>
       <use style="stroke:#000000;stroke-width:0.8;" x="24.19" xlink:href="#mce20846470" y="82.760816"/>
      </g>
     </g>
     <g id="text_13">
      <!-- 8 -->
      <g transform="translate(10.8275 86.560035)scale(0.1 -0.1)">
       <use xlink:href="#DejaVuSans-56"/>
      </g>
     </g>
    </g>
   </g>
   <g id="line2d_14">
    <path clip-path="url(#p74f29d4caa)" d="M 24.559793 331.15102 
L 24.559793 327.966531 
L 24.598718 327.966531 
L 24.598718 324.782041 
L 25.747022 324.782041 
L 25.747022 321.597551 
L 28.841602 321.597551 
L 28.841602 318.413061 
L 31.216061 318.413061 
L 31.216061 315.228571 
L 31.391226 315.228571 
L 31.391226 312.044082 
L 34.660971 312.044082 
L 34.660971 308.859592 
L 37.074355 308.859592 
L 37.074355 305.675102 
L 41.609181 305.675102 
L 41.609181 302.490612 
L 50.056024 302.490612 
L 50.056024 299.306122 
L 50.192263 299.306122 
L 50.192263 296.121633 
L 51.107013 296.121633 
L 51.107013 292.937143 
L 52.994902 292.937143 
L 52.994902 289.752653 
L 53.384158 289.752653 
L 53.384158 286.568163 
L 53.500934 286.568163 
L 53.500934 283.383673 
L 53.520397 283.383673 
L 53.520397 280.199184 
L 54.259982 280.199184 
L 54.259982 277.014694 
L 55.291509 277.014694 
L 55.291509 273.830204 
L 56.965308 273.830204 
L 56.965308 270.645714 
L 59.242452 270.645714 
L 59.242452 267.461224 
L 60.70216 267.461224 
L 60.70216 264.276735 
L 64.049756 264.276735 
L 64.049756 261.092245 
L 64.224921 261.092245 
L 64.224921 257.907755 
L 64.439012 257.907755 
L 64.439012 254.723265 
L 65.567853 254.723265 
L 65.567853 251.538776 
L 66.852396 251.538776 
L 66.852396 248.354286 
L 75.182462 248.354286 
L 75.182462 245.169796 
L 79.483734 245.169796 
L 79.483734 241.985306 
L 102.313566 241.985306 
L 102.313566 238.800816 
L 105.739013 238.800816 
L 105.739013 235.616327 
L 106.517524 235.616327 
L 106.517524 232.431837 
L 137.677422 232.431837 
L 137.677422 229.247347 
L 190.927565 229.247347 
L 190.927565 226.062857 
L 190.966491 226.062857 
L 190.966491 222.878367 
L 198.946227 222.878367 
L 198.946227 219.693878 
L 199.17978 219.693878 
L 199.17978 216.509388 
L 200.79519 216.509388 
L 200.79519 213.324898 
L 201.515313 213.324898 
L 201.515313 210.140408 
L 202.099196 210.140408 
L 202.099196 206.955918 
L 206.439394 206.955918 
L 206.439394 203.771429 
L 227.575964 203.771429 
L 227.575964 200.586939 
L 227.926294 200.586939 
L 227.926294 197.402449 
L 269.031668 197.402449 
" style="fill:none;stroke:#1f77b4;stroke-linecap:square;stroke-width:1.5;"/>
   </g>
   <g id="patch_3">
    <path d="M 24.19 337.52 
L 24.19 25.44 
" style="fill:none;stroke:#000000;stroke-linecap:square;stroke-linejoin:miter;stroke-width:0.8;"/>
   </g>
   <g id="patch_4">
    <path d="M 354.648401 337.52 
L 354.648401 25.44 
" style="fill:none;stroke:#000000;stroke-linecap:square;stroke-linejoin:miter;stroke-width:0.8;"/>
   </g>
   <g id="patch_5">
    <path d="M 24.19 337.52 
L 354.648401 337.52 
" style="fill:none;stroke:#000000;stroke-linecap:square;stroke-linejoin:miter;stroke-width:0.8;"/>
   </g>
   <g id="patch_6">
    <path d="M 24.19 25.44 
L 354.648401 25.44 
" style="fill:none;stroke:#000000;stroke-linecap:square;stroke-linejoin:miter;stroke-width:0.8;"/>
   </g>
   <g id="text_14">
    <!-- moptafl -->
    <defs>
     <path d="M 52 44.1875 
Q 55.375 50.25 60.0625 53.125 
Q 64.75 56 71.09375 56 
Q 79.640625 56 84.28125 50.015625 
Q 88.921875 44.046875 88.921875 33.015625 
L 88.921875 0 
L 79.890625 0 
L 79.890625 32.71875 
Q 79.890625 40.578125 77.09375 44.375 
Q 74.3125 48.1875 68.609375 48.1875 
Q 61.625 48.1875 57.5625 43.546875 
Q 53.515625 38.921875 53.515625 30.90625 
L 53.515625 0 
L 44.484375 0 
L 44.484375 32.71875 
Q 44.484375 40.625 41.703125 44.40625 
Q 38.921875 48.1875 33.109375 48.1875 
Q 26.21875 48.1875 22.15625 43.53125 
Q 18.109375 38.875 18.109375 30.90625 
L 18.109375 0 
L 9.078125 0 
L 9.078125 54.6875 
L 18.109375 54.6875 
L 18.109375 46.1875 
Q 21.1875 51.21875 25.484375 53.609375 
Q 29.78125 56 35.6875 56 
Q 41.65625 56 45.828125 52.96875 
Q 50 49.953125 52 44.1875 
z
" id="DejaVuSans-109"/>
     <path d="M 30.609375 48.390625 
Q 23.390625 48.390625 19.1875 42.75 
Q 14.984375 37.109375 14.984375 27.296875 
Q 14.984375 17.484375 19.15625 11.84375 
Q 23.34375 6.203125 30.609375 6.203125 
Q 37.796875 6.203125 41.984375 11.859375 
Q 46.1875 17.53125 46.1875 27.296875 
Q 46.1875 37.015625 41.984375 42.703125 
Q 37.796875 48.390625 30.609375 48.390625 
z
M 30.609375 56 
Q 42.328125 56 49.015625 48.375 
Q 55.71875 40.765625 55.71875 27.296875 
Q 55.71875 13.875 49.015625 6.21875 
Q 42.328125 -1.421875 30.609375 -1.421875 
Q 18.84375 -1.421875 12.171875 6.21875 
Q 5.515625 13.875 5.515625 27.296875 
Q 5.515625 40.765625 12.171875 48.375 
Q 18.84375 56 30.609375 56 
z
" id="DejaVuSans-111"/>
     <path d="M 18.109375 8.203125 
L 18.109375 -20.796875 
L 9.078125 -20.796875 
L 9.078125 54.6875 
L 18.109375 54.6875 
L 18.109375 46.390625 
Q 20.953125 51.265625 25.265625 53.625 
Q 29.59375 56 35.59375 56 
Q 45.5625 56 51.78125 48.09375 
Q 58.015625 40.1875 58.015625 27.296875 
Q 58.015625 14.40625 51.78125 6.484375 
Q 45.5625 -1.421875 35.59375 -1.421875 
Q 29.59375 -1.421875 25.265625 0.953125 
Q 20.953125 3.328125 18.109375 8.203125 
z
M 48.6875 27.296875 
Q 48.6875 37.203125 44.609375 42.84375 
Q 40.53125 48.484375 33.40625 48.484375 
Q 26.265625 48.484375 22.1875 42.84375 
Q 18.109375 37.203125 18.109375 27.296875 
Q 18.109375 17.390625 22.1875 11.75 
Q 26.265625 6.109375 33.40625 6.109375 
Q 40.53125 6.109375 44.609375 11.75 
Q 48.6875 17.390625 48.6875 27.296875 
z
" id="DejaVuSans-112"/>
     <path d="M 18.3125 70.21875 
L 18.3125 54.6875 
L 36.8125 54.6875 
L 36.8125 47.703125 
L 18.3125 47.703125 
L 18.3125 18.015625 
Q 18.3125 11.328125 20.140625 9.421875 
Q 21.96875 7.515625 27.59375 7.515625 
L 36.8125 7.515625 
L 36.8125 0 
L 27.59375 0 
Q 17.1875 0 13.234375 3.875 
Q 9.28125 7.765625 9.28125 18.015625 
L 9.28125 47.703125 
L 2.6875 47.703125 
L 2.6875 54.6875 
L 9.28125 54.6875 
L 9.28125 70.21875 
z
" id="DejaVuSans-116"/>
     <path d="M 34.28125 27.484375 
Q 23.390625 27.484375 19.1875 25 
Q 14.984375 22.515625 14.984375 16.5 
Q 14.984375 11.71875 18.140625 8.90625 
Q 21.296875 6.109375 26.703125 6.109375 
Q 34.1875 6.109375 38.703125 11.40625 
Q 43.21875 16.703125 43.21875 25.484375 
L 43.21875 27.484375 
z
M 52.203125 31.203125 
L 52.203125 0 
L 43.21875 0 
L 43.21875 8.296875 
Q 40.140625 3.328125 35.546875 0.953125 
Q 30.953125 -1.421875 24.3125 -1.421875 
Q 15.921875 -1.421875 10.953125 3.296875 
Q 6 8.015625 6 15.921875 
Q 6 25.140625 12.171875 29.828125 
Q 18.359375 34.515625 30.609375 34.515625 
L 43.21875 34.515625 
L 43.21875 35.40625 
Q 43.21875 41.609375 39.140625 45 
Q 35.0625 48.390625 27.6875 48.390625 
Q 23 48.390625 18.546875 47.265625 
Q 14.109375 46.140625 10.015625 43.890625 
L 10.015625 52.203125 
Q 14.9375 54.109375 19.578125 55.046875 
Q 24.21875 56 28.609375 56 
Q 40.484375 56 46.34375 49.84375 
Q 52.203125 43.703125 52.203125 31.203125 
z
" id="DejaVuSans-97"/>
     <path d="M 37.109375 75.984375 
L 37.109375 68.5 
L 28.515625 68.5 
Q 23.6875 68.5 21.796875 66.546875 
Q 19.921875 64.59375 19.921875 59.515625 
L 19.921875 54.6875 
L 34.71875 54.6875 
L 34.71875 47.703125 
L 19.921875 47.703125 
L 19.921875 0 
L 10.890625 0 
L 10.890625 47.703125 
L 2.296875 47.703125 
L 2.296875 54.6875 
L 10.890625 54.6875 
L 10.890625 58.5 
Q 10.890625 67.625 15.140625 71.796875 
Q 19.390625 75.984375 28.609375 75.984375 
z
" id="DejaVuSans-102"/>
     <path d="M 9.421875 75.984375 
L 18.40625 75.984375 
L 18.40625 0 
L 9.421875 0 
z
" id="DejaVuSans-108"/>
    </defs>
    <g transform="translate(166.286388 19.44)scale(0.12 -0.12)">
     <use xlink:href="#DejaVuSans-109"/>
     <use x="97.412109" xlink:href="#DejaVuSans-111"/>
     <use x="158.59375" xlink:href="#DejaVuSans-112"/>
     <use x="222.070312" xlink:href="#DejaVuSans-116"/>
     <use x="261.279297" xlink:href="#DejaVuSans-97"/>
     <use x="322.558594" xlink:href="#DejaVuSans-102"/>
     <use x="357.763672" xlink:href="#DejaVuSans-108"/>
    </g>
   </g>
  </g>
  <g id="axes_2">
   <g id="patch_7">
    <path d="M 380.59 337.52 
L 711.048401 337.52 
L 711.048401 25.44 
L 380.59 25.44 
z
" style="fill:#ffffff;"/>
   </g>
   <g id="PolyCollection_2">
    <defs>
     <path d="M 380.979255 -572.91249 
L 380.979255 -198.41649 
L 381.018181 -264.01698 
L 382.789293 -296.691455 
L 383.159086 -318.774283 
L 383.334251 -335.986449 
L 383.567804 -350.624488 
L 383.665118 -363.910565 
L 383.704043 -376.747918 
L 384.015448 -390.335075 
L 384.599331 -414.324898 
L 385.494618 -400.486842 
L 388.530811 -399.888544 
L 389.679114 -401.876364 
L 389.71804 -397.489935 
L 390.087833 -402.334063 
L 390.477088 -407.55553 
L 390.710641 -413.107068 
L 390.807955 -418.995483 
L 392.442828 -425.294756 
L 392.501216 -426.432124 
L 392.676381 -428.548952 
L 392.929397 -435.51623 
L 395.109228 -443.28735 
L 397.074968 -446.167142 
L 397.736702 -449.609045 
L 398.398436 -453.516169 
L 416.596128 -457.867667 
L 418.775958 -462.729143 
L 430.58986 -468.373376 
L 440.243395 -468.710266 
L 472.259655 -470.356589 
L 473.91399 -472.680673 
L 474.96498 -475.457333 
L 475.17907 -478.575568 
L 482.82794 -481.974307 
L 491.508336 -488.627891 
L 498.670636 -492.575689 
L 512.25565 -493.635454 
L 515.856263 -498.056629 
L 533.664699 -499.990756 
L 549.526858 -504.846022 
L 617.451931 -510.28419 
L 617.451931 -522.172952 
L 617.451931 -522.172952 
L 549.526858 -521.242141 
L 533.664699 -519.728428 
L 515.856263 -515.293575 
L 512.25565 -513.34577 
L 498.670636 -508.036556 
L 491.508336 -505.615374 
L 482.82794 -505.899979 
L 475.17907 -502.929739 
L 474.96498 -499.678994 
L 473.91399 -496.086673 
L 472.259655 -492.041779 
L 440.243395 -487.319122 
L 430.58986 -481.287032 
L 418.775958 -480.562286 
L 416.596128 -479.054782 
L 398.398436 -477.0373 
L 397.736702 -474.575445 
L 397.074968 -471.648368 
L 395.109228 -468.15918 
L 392.929397 -469.561321 
L 392.676381 -470.159619 
L 392.501216 -465.907468 
L 392.442828 -460.675856 
L 390.807955 -460.60615 
L 390.710641 -460.125585 
L 390.477088 -459.308143 
L 390.087833 -458.160631 
L 389.71804 -456.635779 
L 389.679114 -445.880371 
L 388.530811 -441.499211 
L 385.494618 -434.531933 
L 384.599331 -414.324898 
L 384.015448 -431.945741 
L 383.704043 -439.163918 
L 383.665118 -445.632292 
L 383.567804 -452.549389 
L 383.334251 -460.818449 
L 383.159086 -471.661635 
L 382.789293 -487.375484 
L 381.018181 -513.68098 
L 380.979255 -572.91249 
z
" id="me16fe062d1" style="stroke:#0000ff;stroke-opacity:0.1;"/>
    </defs>
    <g clip-path="url(#pd3e2127c8e)">
     <use style="fill:#0000ff;fill-opacity:0.1;stroke:#0000ff;stroke-opacity:0.1;" x="0" xlink:href="#me16fe062d1" y="720"/>
    </g>
   </g>
   <g id="matplotlib.axis_3">
    <g id="xtick_9">
     <g id="line2d_15">
      <g>
       <use style="stroke:#000000;stroke-width:0.8;" x="419.476618" xlink:href="#m92f65edb7a" y="337.52"/>
      </g>
     </g>
     <g id="text_15">
      <!-- 10000 -->
      <g transform="translate(403.570368 352.118438)scale(0.1 -0.1)">
       <use xlink:href="#DejaVuSans-49"/>
       <use x="63.623047" xlink:href="#DejaVuSans-48"/>
       <use x="127.246094" xlink:href="#DejaVuSans-48"/>
       <use x="190.869141" xlink:href="#DejaVuSans-48"/>
       <use x="254.492188" xlink:href="#DejaVuSans-48"/>
      </g>
     </g>
    </g>
    <g id="xtick_10">
     <g id="line2d_16">
      <g>
       <use style="stroke:#000000;stroke-width:0.8;" x="458.402161" xlink:href="#m92f65edb7a" y="337.52"/>
      </g>
     </g>
     <g id="text_16">
      <!-- 20000 -->
      <g transform="translate(442.495911 352.118438)scale(0.1 -0.1)">
       <use xlink:href="#DejaVuSans-50"/>
       <use x="63.623047" xlink:href="#DejaVuSans-48"/>
       <use x="127.246094" xlink:href="#DejaVuSans-48"/>
       <use x="190.869141" xlink:href="#DejaVuSans-48"/>
       <use x="254.492188" xlink:href="#DejaVuSans-48"/>
      </g>
     </g>
    </g>
    <g id="xtick_11">
     <g id="line2d_17">
      <g>
       <use style="stroke:#000000;stroke-width:0.8;" x="497.327705" xlink:href="#m92f65edb7a" y="337.52"/>
      </g>
     </g>
     <g id="text_17">
      <!-- 30000 -->
      <g transform="translate(481.421455 352.118438)scale(0.1 -0.1)">
       <use xlink:href="#DejaVuSans-51"/>
       <use x="63.623047" xlink:href="#DejaVuSans-48"/>
       <use x="127.246094" xlink:href="#DejaVuSans-48"/>
       <use x="190.869141" xlink:href="#DejaVuSans-48"/>
       <use x="254.492188" xlink:href="#DejaVuSans-48"/>
      </g>
     </g>
    </g>
    <g id="xtick_12">
     <g id="line2d_18">
      <g>
       <use style="stroke:#000000;stroke-width:0.8;" x="536.253248" xlink:href="#m92f65edb7a" y="337.52"/>
      </g>
     </g>
     <g id="text_18">
      <!-- 40000 -->
      <g transform="translate(520.346998 352.118438)scale(0.1 -0.1)">
       <use xlink:href="#DejaVuSans-52"/>
       <use x="63.623047" xlink:href="#DejaVuSans-48"/>
       <use x="127.246094" xlink:href="#DejaVuSans-48"/>
       <use x="190.869141" xlink:href="#DejaVuSans-48"/>
       <use x="254.492188" xlink:href="#DejaVuSans-48"/>
      </g>
     </g>
    </g>
    <g id="xtick_13">
     <g id="line2d_19">
      <g>
       <use style="stroke:#000000;stroke-width:0.8;" x="575.178791" xlink:href="#m92f65edb7a" y="337.52"/>
      </g>
     </g>
     <g id="text_19">
      <!-- 50000 -->
      <g transform="translate(559.272541 352.118438)scale(0.1 -0.1)">
       <use xlink:href="#DejaVuSans-53"/>
       <use x="63.623047" xlink:href="#DejaVuSans-48"/>
       <use x="127.246094" xlink:href="#DejaVuSans-48"/>
       <use x="190.869141" xlink:href="#DejaVuSans-48"/>
       <use x="254.492188" xlink:href="#DejaVuSans-48"/>
      </g>
     </g>
    </g>
    <g id="xtick_14">
     <g id="line2d_20">
      <g>
       <use style="stroke:#000000;stroke-width:0.8;" x="614.104335" xlink:href="#m92f65edb7a" y="337.52"/>
      </g>
     </g>
     <g id="text_20">
      <!-- 60000 -->
      <g transform="translate(598.198085 352.118438)scale(0.1 -0.1)">
       <use xlink:href="#DejaVuSans-54"/>
       <use x="63.623047" xlink:href="#DejaVuSans-48"/>
       <use x="127.246094" xlink:href="#DejaVuSans-48"/>
       <use x="190.869141" xlink:href="#DejaVuSans-48"/>
       <use x="254.492188" xlink:href="#DejaVuSans-48"/>
      </g>
     </g>
    </g>
    <g id="xtick_15">
     <g id="line2d_21">
      <g>
       <use style="stroke:#000000;stroke-width:0.8;" x="653.029878" xlink:href="#m92f65edb7a" y="337.52"/>
      </g>
     </g>
     <g id="text_21">
      <!-- 70000 -->
      <g transform="translate(637.123628 352.118438)scale(0.1 -0.1)">
       <use xlink:href="#DejaVuSans-55"/>
       <use x="63.623047" xlink:href="#DejaVuSans-48"/>
       <use x="127.246094" xlink:href="#DejaVuSans-48"/>
       <use x="190.869141" xlink:href="#DejaVuSans-48"/>
       <use x="254.492188" xlink:href="#DejaVuSans-48"/>
      </g>
     </g>
    </g>
    <g id="xtick_16">
     <g id="line2d_22">
      <g>
       <use style="stroke:#000000;stroke-width:0.8;" x="691.955422" xlink:href="#m92f65edb7a" y="337.52"/>
      </g>
     </g>
     <g id="text_22">
      <!-- 80000 -->
      <g transform="translate(676.049172 352.118438)scale(0.1 -0.1)">
       <use xlink:href="#DejaVuSans-56"/>
       <use x="63.623047" xlink:href="#DejaVuSans-48"/>
       <use x="127.246094" xlink:href="#DejaVuSans-48"/>
       <use x="190.869141" xlink:href="#DejaVuSans-48"/>
       <use x="254.492188" xlink:href="#DejaVuSans-48"/>
      </g>
     </g>
    </g>
   </g>
   <g id="matplotlib.axis_4">
    <g id="ytick_6">
     <g id="line2d_23">
      <g>
       <use style="stroke:#000000;stroke-width:0.8;" x="380.59" xlink:href="#mce20846470" y="337.52"/>
      </g>
     </g>
     <g id="text_23">
      <!-- 0 -->
      <g transform="translate(367.2275 341.319219)scale(0.1 -0.1)">
       <use xlink:href="#DejaVuSans-48"/>
      </g>
     </g>
    </g>
    <g id="ytick_7">
     <g id="line2d_24">
      <g>
       <use style="stroke:#000000;stroke-width:0.8;" x="380.59" xlink:href="#mce20846470" y="273.830204"/>
      </g>
     </g>
     <g id="text_24">
      <!-- 2 -->
      <g transform="translate(367.2275 277.629423)scale(0.1 -0.1)">
       <use xlink:href="#DejaVuSans-50"/>
      </g>
     </g>
    </g>
    <g id="ytick_8">
     <g id="line2d_25">
      <g>
       <use style="stroke:#000000;stroke-width:0.8;" x="380.59" xlink:href="#mce20846470" y="210.140408"/>
      </g>
     </g>
     <g id="text_25">
      <!-- 4 -->
      <g transform="translate(367.2275 213.939627)scale(0.1 -0.1)">
       <use xlink:href="#DejaVuSans-52"/>
      </g>
     </g>
    </g>
    <g id="ytick_9">
     <g id="line2d_26">
      <g>
       <use style="stroke:#000000;stroke-width:0.8;" x="380.59" xlink:href="#mce20846470" y="146.450612"/>
      </g>
     </g>
     <g id="text_26">
      <!-- 6 -->
      <g transform="translate(367.2275 150.249831)scale(0.1 -0.1)">
       <use xlink:href="#DejaVuSans-54"/>
      </g>
     </g>
    </g>
    <g id="ytick_10">
     <g id="line2d_27">
      <g>
       <use style="stroke:#000000;stroke-width:0.8;" x="380.59" xlink:href="#mce20846470" y="82.760816"/>
      </g>
     </g>
     <g id="text_27">
      <!-- 8 -->
      <g transform="translate(367.2275 86.560035)scale(0.1 -0.1)">
       <use xlink:href="#DejaVuSans-56"/>
      </g>
     </g>
    </g>
   </g>
   <g id="line2d_28">
    <path clip-path="url(#pd3e2127c8e)" d="M 380.979255 334.33551 
L 380.979255 331.15102 
L 381.018181 331.15102 
L 381.018181 327.966531 
L 382.789293 327.966531 
L 382.789293 324.782041 
L 383.159086 324.782041 
L 383.159086 321.597551 
L 383.334251 321.597551 
L 383.334251 318.413061 
L 383.567804 318.413061 
L 383.567804 315.228571 
L 383.665118 315.228571 
L 383.665118 312.044082 
L 383.704043 312.044082 
L 383.704043 308.859592 
L 384.015448 308.859592 
L 384.015448 305.675102 
L 384.599331 305.675102 
L 384.599331 302.490612 
L 385.494618 302.490612 
L 385.494618 299.306122 
L 388.530811 299.306122 
L 388.530811 296.121633 
L 389.679114 296.121633 
L 389.679114 292.937143 
L 389.71804 292.937143 
L 389.71804 289.752653 
L 390.087833 289.752653 
L 390.087833 286.568163 
L 390.477088 286.568163 
L 390.477088 283.383673 
L 390.710641 283.383673 
L 390.710641 280.199184 
L 390.807955 280.199184 
L 390.807955 277.014694 
L 392.442828 277.014694 
L 392.442828 273.830204 
L 392.501216 273.830204 
L 392.501216 270.645714 
L 392.676381 270.645714 
L 392.676381 267.461224 
L 392.929397 267.461224 
L 392.929397 264.276735 
L 395.109228 264.276735 
L 395.109228 261.092245 
L 397.074968 261.092245 
L 397.074968 257.907755 
L 397.736702 257.907755 
L 397.736702 254.723265 
L 398.398436 254.723265 
L 398.398436 251.538776 
L 416.596128 251.538776 
L 416.596128 248.354286 
L 418.775958 248.354286 
L 418.775958 245.169796 
L 430.58986 245.169796 
L 430.58986 241.985306 
L 440.243395 241.985306 
L 440.243395 238.800816 
L 472.259655 238.800816 
L 472.259655 235.616327 
L 473.91399 235.616327 
L 473.91399 232.431837 
L 474.96498 232.431837 
L 474.96498 229.247347 
L 475.17907 229.247347 
L 475.17907 226.062857 
L 482.82794 226.062857 
L 482.82794 222.878367 
L 491.508336 222.878367 
L 491.508336 219.693878 
L 498.670636 219.693878 
L 498.670636 216.509388 
L 512.25565 216.509388 
L 512.25565 213.324898 
L 515.856263 213.324898 
L 515.856263 210.140408 
L 533.664699 210.140408 
L 533.664699 206.955918 
L 549.526858 206.955918 
L 549.526858 203.771429 
L 617.451931 203.771429 
" style="fill:none;stroke:#1f77b4;stroke-linecap:square;stroke-width:1.5;"/>
   </g>
   <g id="patch_8">
    <path d="M 380.59 337.52 
L 380.59 25.44 
" style="fill:none;stroke:#000000;stroke-linecap:square;stroke-linejoin:miter;stroke-width:0.8;"/>
   </g>
   <g id="patch_9">
    <path d="M 711.048401 337.52 
L 711.048401 25.44 
" style="fill:none;stroke:#000000;stroke-linecap:square;stroke-linejoin:miter;stroke-width:0.8;"/>
   </g>
   <g id="patch_10">
    <path d="M 380.59 337.52 
L 711.048401 337.52 
" style="fill:none;stroke:#000000;stroke-linecap:square;stroke-linejoin:miter;stroke-width:0.8;"/>
   </g>
   <g id="patch_11">
    <path d="M 380.59 25.44 
L 711.048401 25.44 
" style="fill:none;stroke:#000000;stroke-linecap:square;stroke-linejoin:miter;stroke-width:0.8;"/>
   </g>
   <g id="text_28">
    <!-- aflfast -->
    <defs>
     <path d="M 44.28125 53.078125 
L 44.28125 44.578125 
Q 40.484375 46.53125 36.375 47.5 
Q 32.28125 48.484375 27.875 48.484375 
Q 21.1875 48.484375 17.84375 46.4375 
Q 14.5 44.390625 14.5 40.28125 
Q 14.5 37.15625 16.890625 35.375 
Q 19.28125 33.59375 26.515625 31.984375 
L 29.59375 31.296875 
Q 39.15625 29.25 43.1875 25.515625 
Q 47.21875 21.78125 47.21875 15.09375 
Q 47.21875 7.46875 41.1875 3.015625 
Q 35.15625 -1.421875 24.609375 -1.421875 
Q 20.21875 -1.421875 15.453125 -0.5625 
Q 10.6875 0.296875 5.421875 2 
L 5.421875 11.28125 
Q 10.40625 8.6875 15.234375 7.390625 
Q 20.0625 6.109375 24.8125 6.109375 
Q 31.15625 6.109375 34.5625 8.28125 
Q 37.984375 10.453125 37.984375 14.40625 
Q 37.984375 18.0625 35.515625 20.015625 
Q 33.0625 21.96875 24.703125 23.78125 
L 21.578125 24.515625 
Q 13.234375 26.265625 9.515625 29.90625 
Q 5.8125 33.546875 5.8125 39.890625 
Q 5.8125 47.609375 11.28125 51.796875 
Q 16.75 56 26.8125 56 
Q 31.78125 56 36.171875 55.265625 
Q 40.578125 54.546875 44.28125 53.078125 
z
" id="DejaVuSans-115"/>
    </defs>
    <g transform="translate(527.096388 19.44)scale(0.12 -0.12)">
     <use xlink:href="#DejaVuSans-97"/>
     <use x="61.279297" xlink:href="#DejaVuSans-102"/>
     <use x="96.484375" xlink:href="#DejaVuSans-108"/>
     <use x="124.267578" xlink:href="#DejaVuSans-102"/>
     <use x="159.472656" xlink:href="#DejaVuSans-97"/>
     <use x="220.751953" xlink:href="#DejaVuSans-115"/>
     <use x="272.851562" xlink:href="#DejaVuSans-116"/>
    </g>
   </g>
  </g>
  <g id="axes_3">
   <g id="patch_12">
    <path d="M 736.99 337.52 
L 1067.448401 337.52 
L 1067.448401 25.44 
L 736.99 25.44 
z
" style="fill:#ffffff;"/>
   </g>
   <g id="PolyCollection_3">
    <defs>
     <path d="M 738.118841 -572.91249 
L 738.118841 -198.41649 
L 738.469171 -296.691455 
L 745.709322 -318.774283 
L 748.667663 -335.986449 
L 750.691791 -350.624488 
L 751.139435 -363.910565 
L 751.334063 -376.747918 
L 751.898483 -390.335075 
L 754.039388 -414.324898 
L 763.790237 -400.486842 
L 766.768041 -389.485878 
L 769.045185 -393.13549 
L 769.142499 -397.489935 
L 770.212951 -402.334063 
L 770.407579 -407.55553 
L 771.088776 -407.940765 
L 773.288069 -409.571368 
L 774.728314 -415.69761 
L 774.864554 -421.996183 
L 775.565213 -424.665417 
L 776.577278 -431.307931 
L 779.165826 -438.346857 
L 781.209417 -441.656884 
L 781.676524 -445.344275 
L 786.522754 -453.516169 
L 790.201218 -457.867667 
L 829.574405 -462.729143 
L 845.105697 -468.373376 
L 857.269929 -478.014694 
L 889.149949 -475.158926 
L 921.594389 -476.581673 
L 957.892459 -478.900707 
L 960.227991 -481.759279 
L 960.227991 -499.746027 
L 960.227991 -499.746027 
L 957.892459 -496.235619 
L 921.594389 -492.185673 
L 889.149949 -487.239442 
L 857.269929 -478.014694 
L 845.105697 -481.287032 
L 829.574405 -480.562286 
L 790.201218 -479.054782 
L 786.522754 -477.0373 
L 781.676524 -478.840215 
L 781.209417 -476.158626 
L 779.165826 -473.099674 
L 776.577278 -473.76962 
L 775.565213 -474.043154 
L 774.864554 -470.343409 
L 774.728314 -470.273003 
L 773.288069 -470.030265 
L 771.088776 -465.291888 
L 770.407579 -459.308143 
L 770.212951 -458.160631 
L 769.142499 -456.635779 
L 769.045185 -454.621244 
L 766.768041 -451.901878 
L 763.790237 -434.531933 
L 754.039388 -414.324898 
L 751.898483 -431.945741 
L 751.334063 -439.163918 
L 751.139435 -445.632292 
L 750.691791 -452.549389 
L 748.667663 -460.818449 
L 745.709322 -471.661635 
L 738.469171 -487.375484 
L 738.118841 -572.91249 
z
" id="mde6a098be2" style="stroke:#0000ff;stroke-opacity:0.1;"/>
    </defs>
    <g clip-path="url(#pc6c7ced7fb)">
     <use style="fill:#0000ff;fill-opacity:0.1;stroke:#0000ff;stroke-opacity:0.1;" x="0" xlink:href="#mde6a098be2" y="720"/>
    </g>
   </g>
   <g id="matplotlib.axis_5">
    <g id="xtick_17">
     <g id="line2d_29">
      <g>
       <use style="stroke:#000000;stroke-width:0.8;" x="775.876618" xlink:href="#m92f65edb7a" y="337.52"/>
      </g>
     </g>
     <g id="text_29">
      <!-- 10000 -->
      <g transform="translate(759.970368 352.118438)scale(0.1 -0.1)">
       <use xlink:href="#DejaVuSans-49"/>
       <use x="63.623047" xlink:href="#DejaVuSans-48"/>
       <use x="127.246094" xlink:href="#DejaVuSans-48"/>
       <use x="190.869141" xlink:href="#DejaVuSans-48"/>
       <use x="254.492188" xlink:href="#DejaVuSans-48"/>
      </g>
     </g>
    </g>
    <g id="xtick_18">
     <g id="line2d_30">
      <g>
       <use style="stroke:#000000;stroke-width:0.8;" x="814.802161" xlink:href="#m92f65edb7a" y="337.52"/>
      </g>
     </g>
     <g id="text_30">
      <!-- 20000 -->
      <g transform="translate(798.895911 352.118438)scale(0.1 -0.1)">
       <use xlink:href="#DejaVuSans-50"/>
       <use x="63.623047" xlink:href="#DejaVuSans-48"/>
       <use x="127.246094" xlink:href="#DejaVuSans-48"/>
       <use x="190.869141" xlink:href="#DejaVuSans-48"/>
       <use x="254.492188" xlink:href="#DejaVuSans-48"/>
      </g>
     </g>
    </g>
    <g id="xtick_19">
     <g id="line2d_31">
      <g>
       <use style="stroke:#000000;stroke-width:0.8;" x="853.727705" xlink:href="#m92f65edb7a" y="337.52"/>
      </g>
     </g>
     <g id="text_31">
      <!-- 30000 -->
      <g transform="translate(837.821455 352.118438)scale(0.1 -0.1)">
       <use xlink:href="#DejaVuSans-51"/>
       <use x="63.623047" xlink:href="#DejaVuSans-48"/>
       <use x="127.246094" xlink:href="#DejaVuSans-48"/>
       <use x="190.869141" xlink:href="#DejaVuSans-48"/>
       <use x="254.492188" xlink:href="#DejaVuSans-48"/>
      </g>
     </g>
    </g>
    <g id="xtick_20">
     <g id="line2d_32">
      <g>
       <use style="stroke:#000000;stroke-width:0.8;" x="892.653248" xlink:href="#m92f65edb7a" y="337.52"/>
      </g>
     </g>
     <g id="text_32">
      <!-- 40000 -->
      <g transform="translate(876.746998 352.118438)scale(0.1 -0.1)">
       <use xlink:href="#DejaVuSans-52"/>
       <use x="63.623047" xlink:href="#DejaVuSans-48"/>
       <use x="127.246094" xlink:href="#DejaVuSans-48"/>
       <use x="190.869141" xlink:href="#DejaVuSans-48"/>
       <use x="254.492188" xlink:href="#DejaVuSans-48"/>
      </g>
     </g>
    </g>
    <g id="xtick_21">
     <g id="line2d_33">
      <g>
       <use style="stroke:#000000;stroke-width:0.8;" x="931.578791" xlink:href="#m92f65edb7a" y="337.52"/>
      </g>
     </g>
     <g id="text_33">
      <!-- 50000 -->
      <g transform="translate(915.672541 352.118438)scale(0.1 -0.1)">
       <use xlink:href="#DejaVuSans-53"/>
       <use x="63.623047" xlink:href="#DejaVuSans-48"/>
       <use x="127.246094" xlink:href="#DejaVuSans-48"/>
       <use x="190.869141" xlink:href="#DejaVuSans-48"/>
       <use x="254.492188" xlink:href="#DejaVuSans-48"/>
      </g>
     </g>
    </g>
    <g id="xtick_22">
     <g id="line2d_34">
      <g>
       <use style="stroke:#000000;stroke-width:0.8;" x="970.504335" xlink:href="#m92f65edb7a" y="337.52"/>
      </g>
     </g>
     <g id="text_34">
      <!-- 60000 -->
      <g transform="translate(954.598085 352.118438)scale(0.1 -0.1)">
       <use xlink:href="#DejaVuSans-54"/>
       <use x="63.623047" xlink:href="#DejaVuSans-48"/>
       <use x="127.246094" xlink:href="#DejaVuSans-48"/>
       <use x="190.869141" xlink:href="#DejaVuSans-48"/>
       <use x="254.492188" xlink:href="#DejaVuSans-48"/>
      </g>
     </g>
    </g>
    <g id="xtick_23">
     <g id="line2d_35">
      <g>
       <use style="stroke:#000000;stroke-width:0.8;" x="1009.429878" xlink:href="#m92f65edb7a" y="337.52"/>
      </g>
     </g>
     <g id="text_35">
      <!-- 70000 -->
      <g transform="translate(993.523628 352.118438)scale(0.1 -0.1)">
       <use xlink:href="#DejaVuSans-55"/>
       <use x="63.623047" xlink:href="#DejaVuSans-48"/>
       <use x="127.246094" xlink:href="#DejaVuSans-48"/>
       <use x="190.869141" xlink:href="#DejaVuSans-48"/>
       <use x="254.492188" xlink:href="#DejaVuSans-48"/>
      </g>
     </g>
    </g>
    <g id="xtick_24">
     <g id="line2d_36">
      <g>
       <use style="stroke:#000000;stroke-width:0.8;" x="1048.355422" xlink:href="#m92f65edb7a" y="337.52"/>
      </g>
     </g>
     <g id="text_36">
      <!-- 80000 -->
      <g transform="translate(1032.449172 352.118438)scale(0.1 -0.1)">
       <use xlink:href="#DejaVuSans-56"/>
       <use x="63.623047" xlink:href="#DejaVuSans-48"/>
       <use x="127.246094" xlink:href="#DejaVuSans-48"/>
       <use x="190.869141" xlink:href="#DejaVuSans-48"/>
       <use x="254.492188" xlink:href="#DejaVuSans-48"/>
      </g>
     </g>
    </g>
   </g>
   <g id="matplotlib.axis_6">
    <g id="ytick_11">
     <g id="line2d_37">
      <g>
       <use style="stroke:#000000;stroke-width:0.8;" x="736.99" xlink:href="#mce20846470" y="337.52"/>
      </g>
     </g>
     <g id="text_37">
      <!-- 0 -->
      <g transform="translate(723.6275 341.319219)scale(0.1 -0.1)">
       <use xlink:href="#DejaVuSans-48"/>
      </g>
     </g>
    </g>
    <g id="ytick_12">
     <g id="line2d_38">
      <g>
       <use style="stroke:#000000;stroke-width:0.8;" x="736.99" xlink:href="#mce20846470" y="273.830204"/>
      </g>
     </g>
     <g id="text_38">
      <!-- 2 -->
      <g transform="translate(723.6275 277.629423)scale(0.1 -0.1)">
       <use xlink:href="#DejaVuSans-50"/>
      </g>
     </g>
    </g>
    <g id="ytick_13">
     <g id="line2d_39">
      <g>
       <use style="stroke:#000000;stroke-width:0.8;" x="736.99" xlink:href="#mce20846470" y="210.140408"/>
      </g>
     </g>
     <g id="text_39">
      <!-- 4 -->
      <g transform="translate(723.6275 213.939627)scale(0.1 -0.1)">
       <use xlink:href="#DejaVuSans-52"/>
      </g>
     </g>
    </g>
    <g id="ytick_14">
     <g id="line2d_40">
      <g>
       <use style="stroke:#000000;stroke-width:0.8;" x="736.99" xlink:href="#mce20846470" y="146.450612"/>
      </g>
     </g>
     <g id="text_40">
      <!-- 6 -->
      <g transform="translate(723.6275 150.249831)scale(0.1 -0.1)">
       <use xlink:href="#DejaVuSans-54"/>
      </g>
     </g>
    </g>
    <g id="ytick_15">
     <g id="line2d_41">
      <g>
       <use style="stroke:#000000;stroke-width:0.8;" x="736.99" xlink:href="#mce20846470" y="82.760816"/>
      </g>
     </g>
     <g id="text_41">
      <!-- 8 -->
      <g transform="translate(723.6275 86.560035)scale(0.1 -0.1)">
       <use xlink:href="#DejaVuSans-56"/>
      </g>
     </g>
    </g>
   </g>
   <g id="line2d_42">
    <path clip-path="url(#pc6c7ced7fb)" d="M 738.118841 334.33551 
L 738.118841 327.966531 
L 738.469171 327.966531 
L 738.469171 324.782041 
L 745.709322 324.782041 
L 745.709322 321.597551 
L 748.667663 321.597551 
L 748.667663 318.413061 
L 750.691791 318.413061 
L 750.691791 315.228571 
L 751.139435 315.228571 
L 751.139435 312.044082 
L 751.334063 312.044082 
L 751.334063 308.859592 
L 751.898483 308.859592 
L 751.898483 305.675102 
L 754.039388 305.675102 
L 754.039388 302.490612 
L 763.790237 302.490612 
L 763.790237 299.306122 
L 766.768041 299.306122 
L 766.768041 296.121633 
L 769.045185 296.121633 
L 769.045185 292.937143 
L 769.142499 292.937143 
L 769.142499 289.752653 
L 770.212951 289.752653 
L 770.212951 286.568163 
L 770.407579 286.568163 
L 770.407579 283.383673 
L 771.088776 283.383673 
L 771.088776 280.199184 
L 773.288069 280.199184 
L 773.288069 277.014694 
L 774.728314 277.014694 
L 774.728314 273.830204 
L 774.864554 273.830204 
L 774.864554 270.645714 
L 775.565213 270.645714 
L 775.565213 267.461224 
L 776.577278 267.461224 
L 776.577278 264.276735 
L 779.165826 264.276735 
L 779.165826 261.092245 
L 781.209417 261.092245 
L 781.209417 257.907755 
L 781.676524 257.907755 
L 781.676524 254.723265 
L 786.522754 254.723265 
L 786.522754 251.538776 
L 790.201218 251.538776 
L 790.201218 248.354286 
L 829.574405 248.354286 
L 829.574405 245.169796 
L 845.105697 245.169796 
L 845.105697 241.985306 
L 857.269929 241.985306 
L 857.269929 238.800816 
L 889.149949 238.800816 
L 889.149949 235.616327 
L 921.594389 235.616327 
L 921.594389 232.431837 
L 957.892459 232.431837 
L 957.892459 229.247347 
L 960.227991 229.247347 
" style="fill:none;stroke:#1f77b4;stroke-linecap:square;stroke-width:1.5;"/>
   </g>
   <g id="patch_13">
    <path d="M 736.99 337.52 
L 736.99 25.44 
" style="fill:none;stroke:#000000;stroke-linecap:square;stroke-linejoin:miter;stroke-width:0.8;"/>
   </g>
   <g id="patch_14">
    <path d="M 1067.448401 337.52 
L 1067.448401 25.44 
" style="fill:none;stroke:#000000;stroke-linecap:square;stroke-linejoin:miter;stroke-width:0.8;"/>
   </g>
   <g id="patch_15">
    <path d="M 736.99 337.52 
L 1067.448401 337.52 
" style="fill:none;stroke:#000000;stroke-linecap:square;stroke-linejoin:miter;stroke-width:0.8;"/>
   </g>
   <g id="patch_16">
    <path d="M 736.99 25.44 
L 1067.448401 25.44 
" style="fill:none;stroke:#000000;stroke-linecap:square;stroke-linejoin:miter;stroke-width:0.8;"/>
   </g>
   <g id="text_42">
    <!-- aflplusplus -->
    <defs>
     <path d="M 8.5 21.578125 
L 8.5 54.6875 
L 17.484375 54.6875 
L 17.484375 21.921875 
Q 17.484375 14.15625 20.5 10.265625 
Q 23.53125 6.390625 29.59375 6.390625 
Q 36.859375 6.390625 41.078125 11.03125 
Q 45.3125 15.671875 45.3125 23.6875 
L 45.3125 54.6875 
L 54.296875 54.6875 
L 54.296875 0 
L 45.3125 0 
L 45.3125 8.40625 
Q 42.046875 3.421875 37.71875 1 
Q 33.40625 -1.421875 27.6875 -1.421875 
Q 18.265625 -1.421875 13.375 4.4375 
Q 8.5 10.296875 8.5 21.578125 
z
M 31.109375 56 
z
" id="DejaVuSans-117"/>
    </defs>
    <g transform="translate(869.955138 19.44)scale(0.12 -0.12)">
     <use xlink:href="#DejaVuSans-97"/>
     <use x="61.279297" xlink:href="#DejaVuSans-102"/>
     <use x="96.484375" xlink:href="#DejaVuSans-108"/>
     <use x="124.267578" xlink:href="#DejaVuSans-112"/>
     <use x="187.744141" xlink:href="#DejaVuSans-108"/>
     <use x="215.527344" xlink:href="#DejaVuSans-117"/>
     <use x="278.90625" xlink:href="#DejaVuSans-115"/>
     <use x="331.005859" xlink:href="#DejaVuSans-112"/>
     <use x="394.482422" xlink:href="#DejaVuSans-108"/>
     <use x="422.265625" xlink:href="#DejaVuSans-117"/>
     <use x="485.644531" xlink:href="#DejaVuSans-115"/>
    </g>
   </g>
  </g>
  <g id="axes_4">
   <g id="patch_17">
    <path d="M 24.19 692.12 
L 354.648401 692.12 
L 354.648401 380.04 
L 24.19 380.04 
z
" style="fill:#ffffff;"/>
   </g>
   <g id="PolyCollection_4">
    <defs>
     <path d="M 24.19 -106.218449 
L 24.19 18.613551 
L 24.209463 -22.147918 
L 24.228926 -59.724898 
L 24.287314 -45.886842 
L 24.345702 -45.288544 
L 24.676569 -47.276364 
L 25.007436 -50.621807 
L 25.279915 -54.842014 
L 25.377229 -59.720918 
L 25.610782 -58.507068 
L 26.15574 -59.252007 
L 27.128879 -65.389938 
L 27.479208 -71.832124 
L 27.810076 -73.948952 
L 28.102017 -76.707931 
L 28.355033 -83.746857 
L 28.880528 -87.056884 
L 29.697964 -95.009045 
L 29.814741 -98.916169 
L 33.065024 -99.059098 
L 34.174402 -100.364337 
L 39.448813 -105.164273 
L 42.290378 -110.256246 
L 44.022564 -112.505248 
L 44.606448 -118.080673 
L 46.358097 -120.857333 
L 57.782744 -123.975568 
L 62.064554 -130.420571 
L 70.842264 -134.027891 
L 78.724686 -137.975689 
L 89.312434 -139.035454 
L 100.3089 -143.456629 
L 103.967901 -145.390756 
L 125.318562 -147.787691 
L 152.06041 -152.712 
L 159.339487 -155.518703 
L 207.217905 -158.587985 
L 235.653014 -159.99951 
L 250.93129 -165.366076 
L 302.877428 -169.047671 
L 302.877428 -186.054369 
L 302.877428 -186.054369 
L 250.93129 -183.366985 
L 235.653014 -182.364571 
L 207.217905 -177.407117 
L 159.339487 -174.107419 
L 152.06041 -170.545143 
L 125.318562 -169.100472 
L 103.967901 -165.128428 
L 100.3089 -160.693575 
L 89.312434 -158.74577 
L 78.724686 -153.436556 
L 70.842264 -151.015374 
L 62.064554 -148.253714 
L 57.782744 -148.329739 
L 46.358097 -145.078994 
L 44.606448 -141.486673 
L 44.022564 -140.693119 
L 42.290378 -136.573142 
L 39.448813 -135.296135 
L 34.174402 -133.727092 
L 33.065024 -128.663351 
L 29.814741 -122.4373 
L 29.697964 -119.975445 
L 28.880528 -121.558626 
L 28.355033 -118.499674 
L 28.102017 -119.16962 
L 27.810076 -115.559619 
L 27.479208 -111.307468 
L 27.128879 -111.380675 
L 26.15574 -111.149626 
L 25.610782 -105.525585 
L 25.377229 -97.942756 
L 25.279915 -96.45268 
L 25.007436 -94.303907 
L 24.676569 -91.280371 
L 24.345702 -86.899211 
L 24.287314 -79.931933 
L 24.228926 -59.724898 
L 24.209463 -84.563918 
L 24.19 -106.218449 
z
" id="m4e89377398" style="stroke:#0000ff;stroke-opacity:0.1;"/>
    </defs>
    <g clip-path="url(#p79100cf56f)">
     <use style="fill:#0000ff;fill-opacity:0.1;stroke:#0000ff;stroke-opacity:0.1;" x="0" xlink:href="#m4e89377398" y="720"/>
    </g>
   </g>
   <g id="matplotlib.axis_7">
    <g id="xtick_25">
     <g id="line2d_43">
      <g>
       <use style="stroke:#000000;stroke-width:0.8;" x="63.076618" xlink:href="#m92f65edb7a" y="692.12"/>
      </g>
     </g>
     <g id="text_43">
      <!-- 10000 -->
      <g transform="translate(47.170368 706.718438)scale(0.1 -0.1)">
       <use xlink:href="#DejaVuSans-49"/>
       <use x="63.623047" xlink:href="#DejaVuSans-48"/>
       <use x="127.246094" xlink:href="#DejaVuSans-48"/>
       <use x="190.869141" xlink:href="#DejaVuSans-48"/>
       <use x="254.492188" xlink:href="#DejaVuSans-48"/>
      </g>
     </g>
    </g>
    <g id="xtick_26">
     <g id="line2d_44">
      <g>
       <use style="stroke:#000000;stroke-width:0.8;" x="102.002161" xlink:href="#m92f65edb7a" y="692.12"/>
      </g>
     </g>
     <g id="text_44">
      <!-- 20000 -->
      <g transform="translate(86.095911 706.718438)scale(0.1 -0.1)">
       <use xlink:href="#DejaVuSans-50"/>
       <use x="63.623047" xlink:href="#DejaVuSans-48"/>
       <use x="127.246094" xlink:href="#DejaVuSans-48"/>
       <use x="190.869141" xlink:href="#DejaVuSans-48"/>
       <use x="254.492188" xlink:href="#DejaVuSans-48"/>
      </g>
     </g>
    </g>
    <g id="xtick_27">
     <g id="line2d_45">
      <g>
       <use style="stroke:#000000;stroke-width:0.8;" x="140.927705" xlink:href="#m92f65edb7a" y="692.12"/>
      </g>
     </g>
     <g id="text_45">
      <!-- 30000 -->
      <g transform="translate(125.021455 706.718438)scale(0.1 -0.1)">
       <use xlink:href="#DejaVuSans-51"/>
       <use x="63.623047" xlink:href="#DejaVuSans-48"/>
       <use x="127.246094" xlink:href="#DejaVuSans-48"/>
       <use x="190.869141" xlink:href="#DejaVuSans-48"/>
       <use x="254.492188" xlink:href="#DejaVuSans-48"/>
      </g>
     </g>
    </g>
    <g id="xtick_28">
     <g id="line2d_46">
      <g>
       <use style="stroke:#000000;stroke-width:0.8;" x="179.853248" xlink:href="#m92f65edb7a" y="692.12"/>
      </g>
     </g>
     <g id="text_46">
      <!-- 40000 -->
      <g transform="translate(163.946998 706.718438)scale(0.1 -0.1)">
       <use xlink:href="#DejaVuSans-52"/>
       <use x="63.623047" xlink:href="#DejaVuSans-48"/>
       <use x="127.246094" xlink:href="#DejaVuSans-48"/>
       <use x="190.869141" xlink:href="#DejaVuSans-48"/>
       <use x="254.492188" xlink:href="#DejaVuSans-48"/>
      </g>
     </g>
    </g>
    <g id="xtick_29">
     <g id="line2d_47">
      <g>
       <use style="stroke:#000000;stroke-width:0.8;" x="218.778791" xlink:href="#m92f65edb7a" y="692.12"/>
      </g>
     </g>
     <g id="text_47">
      <!-- 50000 -->
      <g transform="translate(202.872541 706.718438)scale(0.1 -0.1)">
       <use xlink:href="#DejaVuSans-53"/>
       <use x="63.623047" xlink:href="#DejaVuSans-48"/>
       <use x="127.246094" xlink:href="#DejaVuSans-48"/>
       <use x="190.869141" xlink:href="#DejaVuSans-48"/>
       <use x="254.492188" xlink:href="#DejaVuSans-48"/>
      </g>
     </g>
    </g>
    <g id="xtick_30">
     <g id="line2d_48">
      <g>
       <use style="stroke:#000000;stroke-width:0.8;" x="257.704335" xlink:href="#m92f65edb7a" y="692.12"/>
      </g>
     </g>
     <g id="text_48">
      <!-- 60000 -->
      <g transform="translate(241.798085 706.718438)scale(0.1 -0.1)">
       <use xlink:href="#DejaVuSans-54"/>
       <use x="63.623047" xlink:href="#DejaVuSans-48"/>
       <use x="127.246094" xlink:href="#DejaVuSans-48"/>
       <use x="190.869141" xlink:href="#DejaVuSans-48"/>
       <use x="254.492188" xlink:href="#DejaVuSans-48"/>
      </g>
     </g>
    </g>
    <g id="xtick_31">
     <g id="line2d_49">
      <g>
       <use style="stroke:#000000;stroke-width:0.8;" x="296.629878" xlink:href="#m92f65edb7a" y="692.12"/>
      </g>
     </g>
     <g id="text_49">
      <!-- 70000 -->
      <g transform="translate(280.723628 706.718438)scale(0.1 -0.1)">
       <use xlink:href="#DejaVuSans-55"/>
       <use x="63.623047" xlink:href="#DejaVuSans-48"/>
       <use x="127.246094" xlink:href="#DejaVuSans-48"/>
       <use x="190.869141" xlink:href="#DejaVuSans-48"/>
       <use x="254.492188" xlink:href="#DejaVuSans-48"/>
      </g>
     </g>
    </g>
    <g id="xtick_32">
     <g id="line2d_50">
      <g>
       <use style="stroke:#000000;stroke-width:0.8;" x="335.555422" xlink:href="#m92f65edb7a" y="692.12"/>
      </g>
     </g>
     <g id="text_50">
      <!-- 80000 -->
      <g transform="translate(319.649172 706.718438)scale(0.1 -0.1)">
       <use xlink:href="#DejaVuSans-56"/>
       <use x="63.623047" xlink:href="#DejaVuSans-48"/>
       <use x="127.246094" xlink:href="#DejaVuSans-48"/>
       <use x="190.869141" xlink:href="#DejaVuSans-48"/>
       <use x="254.492188" xlink:href="#DejaVuSans-48"/>
      </g>
     </g>
    </g>
   </g>
   <g id="matplotlib.axis_8">
    <g id="ytick_16">
     <g id="line2d_51">
      <g>
       <use style="stroke:#000000;stroke-width:0.8;" x="24.19" xlink:href="#mce20846470" y="692.12"/>
      </g>
     </g>
     <g id="text_51">
      <!-- 0 -->
      <g transform="translate(10.8275 695.919219)scale(0.1 -0.1)">
       <use xlink:href="#DejaVuSans-48"/>
      </g>
     </g>
    </g>
    <g id="ytick_17">
     <g id="line2d_52">
      <g>
       <use style="stroke:#000000;stroke-width:0.8;" x="24.19" xlink:href="#mce20846470" y="628.430204"/>
      </g>
     </g>
     <g id="text_52">
      <!-- 2 -->
      <g transform="translate(10.8275 632.229423)scale(0.1 -0.1)">
       <use xlink:href="#DejaVuSans-50"/>
      </g>
     </g>
    </g>
    <g id="ytick_18">
     <g id="line2d_53">
      <g>
       <use style="stroke:#000000;stroke-width:0.8;" x="24.19" xlink:href="#mce20846470" y="564.740408"/>
      </g>
     </g>
     <g id="text_53">
      <!-- 4 -->
      <g transform="translate(10.8275 568.539627)scale(0.1 -0.1)">
       <use xlink:href="#DejaVuSans-52"/>
      </g>
     </g>
    </g>
    <g id="ytick_19">
     <g id="line2d_54">
      <g>
       <use style="stroke:#000000;stroke-width:0.8;" x="24.19" xlink:href="#mce20846470" y="501.050612"/>
      </g>
     </g>
     <g id="text_54">
      <!-- 6 -->
      <g transform="translate(10.8275 504.849831)scale(0.1 -0.1)">
       <use xlink:href="#DejaVuSans-54"/>
      </g>
     </g>
    </g>
    <g id="ytick_20">
     <g id="line2d_55">
      <g>
       <use style="stroke:#000000;stroke-width:0.8;" x="24.19" xlink:href="#mce20846470" y="437.360816"/>
      </g>
     </g>
     <g id="text_55">
      <!-- 8 -->
      <g transform="translate(10.8275 441.160035)scale(0.1 -0.1)">
       <use xlink:href="#DejaVuSans-56"/>
      </g>
     </g>
    </g>
   </g>
   <g id="line2d_56">
    <path clip-path="url(#p79100cf56f)" d="M 24.19 676.197551 
L 24.19 666.644082 
L 24.209463 666.644082 
L 24.209463 660.275102 
L 24.228926 660.275102 
L 24.228926 657.090612 
L 24.287314 657.090612 
L 24.287314 653.906122 
L 24.345702 653.906122 
L 24.345702 650.721633 
L 24.676569 650.721633 
L 24.676569 647.537143 
L 25.007436 647.537143 
L 25.007436 644.352653 
L 25.279915 644.352653 
L 25.279915 641.168163 
L 25.377229 641.168163 
L 25.377229 637.983673 
L 25.610782 637.983673 
L 25.610782 634.799184 
L 26.15574 634.799184 
L 26.15574 631.614694 
L 27.128879 631.614694 
L 27.128879 628.430204 
L 27.479208 628.430204 
L 27.479208 625.245714 
L 27.810076 625.245714 
L 27.810076 622.061224 
L 28.102017 622.061224 
L 28.102017 618.876735 
L 28.355033 618.876735 
L 28.355033 615.692245 
L 28.880528 615.692245 
L 28.880528 612.507755 
L 29.697964 612.507755 
L 29.697964 609.323265 
L 29.814741 609.323265 
L 29.814741 606.138776 
L 33.065024 606.138776 
L 33.065024 602.954286 
L 34.174402 602.954286 
L 34.174402 599.769796 
L 39.448813 599.769796 
L 39.448813 596.585306 
L 42.290378 596.585306 
L 42.290378 593.400816 
L 44.022564 593.400816 
L 44.022564 590.216327 
L 44.606448 590.216327 
L 44.606448 587.031837 
L 46.358097 587.031837 
L 46.358097 583.847347 
L 57.782744 583.847347 
L 57.782744 580.662857 
L 62.064554 580.662857 
L 62.064554 577.478367 
L 70.842264 577.478367 
L 70.842264 574.293878 
L 78.724686 574.293878 
L 78.724686 571.109388 
L 89.312434 571.109388 
L 89.312434 567.924898 
L 100.3089 567.924898 
L 100.3089 564.740408 
L 103.967901 564.740408 
L 103.967901 561.555918 
L 125.318562 561.555918 
L 125.318562 558.371429 
L 152.06041 558.371429 
L 152.06041 555.186939 
L 159.339487 555.186939 
L 159.339487 552.002449 
L 207.217905 552.002449 
L 207.217905 548.817959 
L 235.653014 548.817959 
L 235.653014 545.633469 
L 250.93129 545.633469 
L 250.93129 542.44898 
L 302.877428 542.44898 
" style="fill:none;stroke:#1f77b4;stroke-linecap:square;stroke-width:1.5;"/>
   </g>
   <g id="patch_18">
    <path d="M 24.19 692.12 
L 24.19 380.04 
" style="fill:none;stroke:#000000;stroke-linecap:square;stroke-linejoin:miter;stroke-width:0.8;"/>
   </g>
   <g id="patch_19">
    <path d="M 354.648401 692.12 
L 354.648401 380.04 
" style="fill:none;stroke:#000000;stroke-linecap:square;stroke-linejoin:miter;stroke-width:0.8;"/>
   </g>
   <g id="patch_20">
    <path d="M 24.19 692.12 
L 354.648401 692.12 
" style="fill:none;stroke:#000000;stroke-linecap:square;stroke-linejoin:miter;stroke-width:0.8;"/>
   </g>
   <g id="patch_21">
    <path d="M 24.19 380.04 
L 354.648401 380.04 
" style="fill:none;stroke:#000000;stroke-linecap:square;stroke-linejoin:miter;stroke-width:0.8;"/>
   </g>
   <g id="text_56">
    <!-- honggfuzz -->
    <defs>
     <path d="M 54.890625 33.015625 
L 54.890625 0 
L 45.90625 0 
L 45.90625 32.71875 
Q 45.90625 40.484375 42.875 44.328125 
Q 39.84375 48.1875 33.796875 48.1875 
Q 26.515625 48.1875 22.3125 43.546875 
Q 18.109375 38.921875 18.109375 30.90625 
L 18.109375 0 
L 9.078125 0 
L 9.078125 75.984375 
L 18.109375 75.984375 
L 18.109375 46.1875 
Q 21.34375 51.125 25.703125 53.5625 
Q 30.078125 56 35.796875 56 
Q 45.21875 56 50.046875 50.171875 
Q 54.890625 44.34375 54.890625 33.015625 
z
" id="DejaVuSans-104"/>
     <path d="M 54.890625 33.015625 
L 54.890625 0 
L 45.90625 0 
L 45.90625 32.71875 
Q 45.90625 40.484375 42.875 44.328125 
Q 39.84375 48.1875 33.796875 48.1875 
Q 26.515625 48.1875 22.3125 43.546875 
Q 18.109375 38.921875 18.109375 30.90625 
L 18.109375 0 
L 9.078125 0 
L 9.078125 54.6875 
L 18.109375 54.6875 
L 18.109375 46.1875 
Q 21.34375 51.125 25.703125 53.5625 
Q 30.078125 56 35.796875 56 
Q 45.21875 56 50.046875 50.171875 
Q 54.890625 44.34375 54.890625 33.015625 
z
" id="DejaVuSans-110"/>
     <path d="M 45.40625 27.984375 
Q 45.40625 37.75 41.375 43.109375 
Q 37.359375 48.484375 30.078125 48.484375 
Q 22.859375 48.484375 18.828125 43.109375 
Q 14.796875 37.75 14.796875 27.984375 
Q 14.796875 18.265625 18.828125 12.890625 
Q 22.859375 7.515625 30.078125 7.515625 
Q 37.359375 7.515625 41.375 12.890625 
Q 45.40625 18.265625 45.40625 27.984375 
z
M 54.390625 6.78125 
Q 54.390625 -7.171875 48.1875 -13.984375 
Q 42 -20.796875 29.203125 -20.796875 
Q 24.46875 -20.796875 20.265625 -20.09375 
Q 16.0625 -19.390625 12.109375 -17.921875 
L 12.109375 -9.1875 
Q 16.0625 -11.328125 19.921875 -12.34375 
Q 23.78125 -13.375 27.78125 -13.375 
Q 36.625 -13.375 41.015625 -8.765625 
Q 45.40625 -4.15625 45.40625 5.171875 
L 45.40625 9.625 
Q 42.625 4.78125 38.28125 2.390625 
Q 33.9375 0 27.875 0 
Q 17.828125 0 11.671875 7.65625 
Q 5.515625 15.328125 5.515625 27.984375 
Q 5.515625 40.671875 11.671875 48.328125 
Q 17.828125 56 27.875 56 
Q 33.9375 56 38.28125 53.609375 
Q 42.625 51.21875 45.40625 46.390625 
L 45.40625 54.6875 
L 54.390625 54.6875 
z
" id="DejaVuSans-103"/>
     <path d="M 5.515625 54.6875 
L 48.1875 54.6875 
L 48.1875 46.484375 
L 14.40625 7.171875 
L 48.1875 7.171875 
L 48.1875 0 
L 4.296875 0 
L 4.296875 8.203125 
L 38.09375 47.515625 
L 5.515625 47.515625 
z
" id="DejaVuSans-122"/>
    </defs>
    <g transform="translate(158.312013 374.04)scale(0.12 -0.12)">
     <use xlink:href="#DejaVuSans-104"/>
     <use x="63.378906" xlink:href="#DejaVuSans-111"/>
     <use x="124.560547" xlink:href="#DejaVuSans-110"/>
     <use x="187.939453" xlink:href="#DejaVuSans-103"/>
     <use x="251.416016" xlink:href="#DejaVuSans-103"/>
     <use x="314.892578" xlink:href="#DejaVuSans-102"/>
     <use x="350.097656" xlink:href="#DejaVuSans-117"/>
     <use x="413.476562" xlink:href="#DejaVuSans-122"/>
     <use x="465.966797" xlink:href="#DejaVuSans-122"/>
    </g>
   </g>
  </g>
  <g id="axes_5">
   <g id="patch_22">
    <path d="M 380.59 692.12 
L 711.048401 692.12 
L 711.048401 380.04 
L 380.59 380.04 
z
" style="fill:#ffffff;"/>
   </g>
   <g id="PolyCollection_5">
    <defs>
     <path d="M 381.15442 -218.31249 
L 381.15442 156.18351 
L 382.400038 90.58302 
L 382.458426 57.908545 
L 382.886607 35.825717 
L 382.964458 18.613551 
L 383.159086 3.975512 
L 383.412102 -9.310565 
L 383.47049 -22.147918 
L 383.567804 -35.735075 
L 385.008049 -31.811614 
L 385.163751 -32.352984 
L 385.202677 -34.885878 
L 385.397305 -47.276364 
L 385.669783 -50.621807 
L 386.448294 -54.842014 
L 388.063704 -59.720918 
L 388.472423 -65.191265 
L 391.177748 -71.330594 
L 395.576334 -70.694756 
L 404.373507 -77.613154 
L 407.48755 -85.837714 
L 409.355977 -86.590412 
L 410.484817 -88.68735 
L 431.037504 -91.567142 
L 431.796552 -95.009045 
L 436.895799 -98.916169 
L 441.761491 -103.267667 
L 453.049899 -108.129143 
L 461.808146 -108.639844 
L 470.391229 -110.256246 
L 470.488542 -112.505248 
L 473.310644 -115.187468 
L 479.713896 -115.945618 
L 479.830673 -115.710442 
L 486.934585 -121.063609 
L 489.211729 -124.840499 
L 497.989439 -130.523852 
L 503.769882 -132.797207 
L 513.034161 -136.976862 
L 519.573653 -141.30295 
L 521.636706 -145.798564 
L 532.380156 -148.673094 
L 532.905651 -151.749247 
L 535.241184 -156.649187 
L 601.025352 -159.99951 
L 620.857917 -161.930616 
L 694.933226 -164.204786 
L 708.440389 -165.571148 
L 708.440389 -195.899872 
L 708.440389 -195.899872 
L 694.933226 -190.897255 
L 620.857917 -186.802446 
L 601.025352 -182.364571 
L 535.241184 -179.345915 
L 532.905651 -177.876875 
L 532.380156 -174.584049 
L 521.636706 -171.0896 
L 519.573653 -169.216234 
L 513.034161 -167.173342 
L 503.769882 -164.984018 
L 497.989439 -160.888393 
L 489.211729 -160.202766 
L 486.934585 -157.610677 
L 479.830673 -156.594864 
L 479.713896 -149.990709 
L 473.310644 -144.379879 
L 470.488542 -140.693119 
L 470.391229 -136.573142 
L 461.808146 -131.820564 
L 453.049899 -125.962286 
L 441.761491 -124.454782 
L 436.895799 -122.4373 
L 431.796552 -119.975445 
L 431.037504 -117.048368 
L 410.484817 -113.55918 
L 409.355977 -109.287139 
L 407.48755 -103.670857 
L 404.373507 -105.526438 
L 395.576334 -106.075856 
L 391.177748 -99.071039 
L 388.472423 -98.841388 
L 388.063704 -97.942756 
L 386.448294 -96.45268 
L 385.669783 -94.303907 
L 385.397305 -91.280371 
L 385.202677 -97.301878 
L 385.163751 -93.465792 
L 385.008049 -87.638182 
L 383.567804 -77.345741 
L 383.47049 -84.563918 
L 383.412102 -91.032292 
L 383.159086 -97.949389 
L 382.964458 -106.218449 
L 382.886607 -117.061635 
L 382.458426 -132.775484 
L 382.400038 -159.08098 
L 381.15442 -218.31249 
z
" id="m9626793c2e" style="stroke:#0000ff;stroke-opacity:0.1;"/>
    </defs>
    <g clip-path="url(#p43a9eb022f)">
     <use style="fill:#0000ff;fill-opacity:0.1;stroke:#0000ff;stroke-opacity:0.1;" x="0" xlink:href="#m9626793c2e" y="720"/>
    </g>
   </g>
   <g id="matplotlib.axis_9">
    <g id="xtick_33">
     <g id="line2d_57">
      <g>
       <use style="stroke:#000000;stroke-width:0.8;" x="419.476618" xlink:href="#m92f65edb7a" y="692.12"/>
      </g>
     </g>
     <g id="text_57">
      <!-- 10000 -->
      <g transform="translate(403.570368 706.718438)scale(0.1 -0.1)">
       <use xlink:href="#DejaVuSans-49"/>
       <use x="63.623047" xlink:href="#DejaVuSans-48"/>
       <use x="127.246094" xlink:href="#DejaVuSans-48"/>
       <use x="190.869141" xlink:href="#DejaVuSans-48"/>
       <use x="254.492188" xlink:href="#DejaVuSans-48"/>
      </g>
     </g>
    </g>
    <g id="xtick_34">
     <g id="line2d_58">
      <g>
       <use style="stroke:#000000;stroke-width:0.8;" x="458.402161" xlink:href="#m92f65edb7a" y="692.12"/>
      </g>
     </g>
     <g id="text_58">
      <!-- 20000 -->
      <g transform="translate(442.495911 706.718438)scale(0.1 -0.1)">
       <use xlink:href="#DejaVuSans-50"/>
       <use x="63.623047" xlink:href="#DejaVuSans-48"/>
       <use x="127.246094" xlink:href="#DejaVuSans-48"/>
       <use x="190.869141" xlink:href="#DejaVuSans-48"/>
       <use x="254.492188" xlink:href="#DejaVuSans-48"/>
      </g>
     </g>
    </g>
    <g id="xtick_35">
     <g id="line2d_59">
      <g>
       <use style="stroke:#000000;stroke-width:0.8;" x="497.327705" xlink:href="#m92f65edb7a" y="692.12"/>
      </g>
     </g>
     <g id="text_59">
      <!-- 30000 -->
      <g transform="translate(481.421455 706.718438)scale(0.1 -0.1)">
       <use xlink:href="#DejaVuSans-51"/>
       <use x="63.623047" xlink:href="#DejaVuSans-48"/>
       <use x="127.246094" xlink:href="#DejaVuSans-48"/>
       <use x="190.869141" xlink:href="#DejaVuSans-48"/>
       <use x="254.492188" xlink:href="#DejaVuSans-48"/>
      </g>
     </g>
    </g>
    <g id="xtick_36">
     <g id="line2d_60">
      <g>
       <use style="stroke:#000000;stroke-width:0.8;" x="536.253248" xlink:href="#m92f65edb7a" y="692.12"/>
      </g>
     </g>
     <g id="text_60">
      <!-- 40000 -->
      <g transform="translate(520.346998 706.718438)scale(0.1 -0.1)">
       <use xlink:href="#DejaVuSans-52"/>
       <use x="63.623047" xlink:href="#DejaVuSans-48"/>
       <use x="127.246094" xlink:href="#DejaVuSans-48"/>
       <use x="190.869141" xlink:href="#DejaVuSans-48"/>
       <use x="254.492188" xlink:href="#DejaVuSans-48"/>
      </g>
     </g>
    </g>
    <g id="xtick_37">
     <g id="line2d_61">
      <g>
       <use style="stroke:#000000;stroke-width:0.8;" x="575.178791" xlink:href="#m92f65edb7a" y="692.12"/>
      </g>
     </g>
     <g id="text_61">
      <!-- 50000 -->
      <g transform="translate(559.272541 706.718438)scale(0.1 -0.1)">
       <use xlink:href="#DejaVuSans-53"/>
       <use x="63.623047" xlink:href="#DejaVuSans-48"/>
       <use x="127.246094" xlink:href="#DejaVuSans-48"/>
       <use x="190.869141" xlink:href="#DejaVuSans-48"/>
       <use x="254.492188" xlink:href="#DejaVuSans-48"/>
      </g>
     </g>
    </g>
    <g id="xtick_38">
     <g id="line2d_62">
      <g>
       <use style="stroke:#000000;stroke-width:0.8;" x="614.104335" xlink:href="#m92f65edb7a" y="692.12"/>
      </g>
     </g>
     <g id="text_62">
      <!-- 60000 -->
      <g transform="translate(598.198085 706.718438)scale(0.1 -0.1)">
       <use xlink:href="#DejaVuSans-54"/>
       <use x="63.623047" xlink:href="#DejaVuSans-48"/>
       <use x="127.246094" xlink:href="#DejaVuSans-48"/>
       <use x="190.869141" xlink:href="#DejaVuSans-48"/>
       <use x="254.492188" xlink:href="#DejaVuSans-48"/>
      </g>
     </g>
    </g>
    <g id="xtick_39">
     <g id="line2d_63">
      <g>
       <use style="stroke:#000000;stroke-width:0.8;" x="653.029878" xlink:href="#m92f65edb7a" y="692.12"/>
      </g>
     </g>
     <g id="text_63">
      <!-- 70000 -->
      <g transform="translate(637.123628 706.718438)scale(0.1 -0.1)">
       <use xlink:href="#DejaVuSans-55"/>
       <use x="63.623047" xlink:href="#DejaVuSans-48"/>
       <use x="127.246094" xlink:href="#DejaVuSans-48"/>
       <use x="190.869141" xlink:href="#DejaVuSans-48"/>
       <use x="254.492188" xlink:href="#DejaVuSans-48"/>
      </g>
     </g>
    </g>
    <g id="xtick_40">
     <g id="line2d_64">
      <g>
       <use style="stroke:#000000;stroke-width:0.8;" x="691.955422" xlink:href="#m92f65edb7a" y="692.12"/>
      </g>
     </g>
     <g id="text_64">
      <!-- 80000 -->
      <g transform="translate(676.049172 706.718438)scale(0.1 -0.1)">
       <use xlink:href="#DejaVuSans-56"/>
       <use x="63.623047" xlink:href="#DejaVuSans-48"/>
       <use x="127.246094" xlink:href="#DejaVuSans-48"/>
       <use x="190.869141" xlink:href="#DejaVuSans-48"/>
       <use x="254.492188" xlink:href="#DejaVuSans-48"/>
      </g>
     </g>
    </g>
   </g>
   <g id="matplotlib.axis_10">
    <g id="ytick_21">
     <g id="line2d_65">
      <g>
       <use style="stroke:#000000;stroke-width:0.8;" x="380.59" xlink:href="#mce20846470" y="692.12"/>
      </g>
     </g>
     <g id="text_65">
      <!-- 0 -->
      <g transform="translate(367.2275 695.919219)scale(0.1 -0.1)">
       <use xlink:href="#DejaVuSans-48"/>
      </g>
     </g>
    </g>
    <g id="ytick_22">
     <g id="line2d_66">
      <g>
       <use style="stroke:#000000;stroke-width:0.8;" x="380.59" xlink:href="#mce20846470" y="628.430204"/>
      </g>
     </g>
     <g id="text_66">
      <!-- 2 -->
      <g transform="translate(367.2275 632.229423)scale(0.1 -0.1)">
       <use xlink:href="#DejaVuSans-50"/>
      </g>
     </g>
    </g>
    <g id="ytick_23">
     <g id="line2d_67">
      <g>
       <use style="stroke:#000000;stroke-width:0.8;" x="380.59" xlink:href="#mce20846470" y="564.740408"/>
      </g>
     </g>
     <g id="text_67">
      <!-- 4 -->
      <g transform="translate(367.2275 568.539627)scale(0.1 -0.1)">
       <use xlink:href="#DejaVuSans-52"/>
      </g>
     </g>
    </g>
    <g id="ytick_24">
     <g id="line2d_68">
      <g>
       <use style="stroke:#000000;stroke-width:0.8;" x="380.59" xlink:href="#mce20846470" y="501.050612"/>
      </g>
     </g>
     <g id="text_68">
      <!-- 6 -->
      <g transform="translate(367.2275 504.849831)scale(0.1 -0.1)">
       <use xlink:href="#DejaVuSans-54"/>
      </g>
     </g>
    </g>
    <g id="ytick_25">
     <g id="line2d_69">
      <g>
       <use style="stroke:#000000;stroke-width:0.8;" x="380.59" xlink:href="#mce20846470" y="437.360816"/>
      </g>
     </g>
     <g id="text_69">
      <!-- 8 -->
      <g transform="translate(367.2275 441.160035)scale(0.1 -0.1)">
       <use xlink:href="#DejaVuSans-56"/>
      </g>
     </g>
    </g>
   </g>
   <g id="line2d_70">
    <path clip-path="url(#p43a9eb022f)" d="M 381.15442 688.93551 
L 381.15442 685.75102 
L 382.400038 685.75102 
L 382.400038 682.566531 
L 382.458426 682.566531 
L 382.458426 679.382041 
L 382.886607 679.382041 
L 382.886607 676.197551 
L 382.964458 676.197551 
L 382.964458 673.013061 
L 383.159086 673.013061 
L 383.159086 669.828571 
L 383.412102 669.828571 
L 383.412102 666.644082 
L 383.47049 666.644082 
L 383.47049 663.459592 
L 383.567804 663.459592 
L 383.567804 660.275102 
L 385.008049 660.275102 
L 385.008049 657.090612 
L 385.163751 657.090612 
L 385.163751 653.906122 
L 385.202677 653.906122 
L 385.202677 650.721633 
L 385.397305 650.721633 
L 385.397305 647.537143 
L 385.669783 647.537143 
L 385.669783 644.352653 
L 386.448294 644.352653 
L 386.448294 641.168163 
L 388.063704 641.168163 
L 388.063704 637.983673 
L 388.472423 637.983673 
L 388.472423 634.799184 
L 391.177748 634.799184 
L 391.177748 631.614694 
L 395.576334 631.614694 
L 395.576334 628.430204 
L 404.373507 628.430204 
L 404.373507 625.245714 
L 407.48755 625.245714 
L 407.48755 622.061224 
L 409.355977 622.061224 
L 409.355977 618.876735 
L 410.484817 618.876735 
L 410.484817 615.692245 
L 431.037504 615.692245 
L 431.037504 612.507755 
L 431.796552 612.507755 
L 431.796552 609.323265 
L 436.895799 609.323265 
L 436.895799 606.138776 
L 441.761491 606.138776 
L 441.761491 602.954286 
L 453.049899 602.954286 
L 453.049899 599.769796 
L 461.808146 599.769796 
L 461.808146 596.585306 
L 470.391229 596.585306 
L 470.391229 593.400816 
L 470.488542 593.400816 
L 470.488542 590.216327 
L 473.310644 590.216327 
L 473.310644 587.031837 
L 479.713896 587.031837 
L 479.713896 583.847347 
L 479.830673 583.847347 
L 479.830673 580.662857 
L 486.934585 580.662857 
L 486.934585 577.478367 
L 489.211729 577.478367 
L 489.211729 574.293878 
L 497.989439 574.293878 
L 497.989439 571.109388 
L 503.769882 571.109388 
L 503.769882 567.924898 
L 513.034161 567.924898 
L 513.034161 564.740408 
L 519.573653 564.740408 
L 519.573653 561.555918 
L 521.636706 561.555918 
L 521.636706 558.371429 
L 532.380156 558.371429 
L 532.380156 555.186939 
L 532.905651 555.186939 
L 532.905651 552.002449 
L 535.241184 552.002449 
L 535.241184 548.817959 
L 601.025352 548.817959 
L 601.025352 545.633469 
L 620.857917 545.633469 
L 620.857917 542.44898 
L 694.933226 542.44898 
L 694.933226 539.26449 
L 708.440389 539.26449 
" style="fill:none;stroke:#1f77b4;stroke-linecap:square;stroke-width:1.5;"/>
   </g>
   <g id="patch_23">
    <path d="M 380.59 692.12 
L 380.59 380.04 
" style="fill:none;stroke:#000000;stroke-linecap:square;stroke-linejoin:miter;stroke-width:0.8;"/>
   </g>
   <g id="patch_24">
    <path d="M 711.048401 692.12 
L 711.048401 380.04 
" style="fill:none;stroke:#000000;stroke-linecap:square;stroke-linejoin:miter;stroke-width:0.8;"/>
   </g>
   <g id="patch_25">
    <path d="M 380.59 692.12 
L 711.048401 692.12 
" style="fill:none;stroke:#000000;stroke-linecap:square;stroke-linejoin:miter;stroke-width:0.8;"/>
   </g>
   <g id="patch_26">
    <path d="M 380.59 380.04 
L 711.048401 380.04 
" style="fill:none;stroke:#000000;stroke-linecap:square;stroke-linejoin:miter;stroke-width:0.8;"/>
   </g>
   <g id="text_70">
    <!-- fairfuzz -->
    <defs>
     <path d="M 9.421875 54.6875 
L 18.40625 54.6875 
L 18.40625 0 
L 9.421875 0 
z
M 9.421875 75.984375 
L 18.40625 75.984375 
L 18.40625 64.59375 
L 9.421875 64.59375 
z
" id="DejaVuSans-105"/>
     <path d="M 41.109375 46.296875 
Q 39.59375 47.171875 37.8125 47.578125 
Q 36.03125 48 33.890625 48 
Q 26.265625 48 22.1875 43.046875 
Q 18.109375 38.09375 18.109375 28.8125 
L 18.109375 0 
L 9.078125 0 
L 9.078125 54.6875 
L 18.109375 54.6875 
L 18.109375 46.1875 
Q 20.953125 51.171875 25.484375 53.578125 
Q 30.03125 56 36.53125 56 
Q 37.453125 56 38.578125 55.875 
Q 39.703125 55.765625 41.0625 55.515625 
z
" id="DejaVuSans-114"/>
    </defs>
    <g transform="translate(523.683888 374.04)scale(0.12 -0.12)">
     <use xlink:href="#DejaVuSans-102"/>
     <use x="35.205078" xlink:href="#DejaVuSans-97"/>
     <use x="96.484375" xlink:href="#DejaVuSans-105"/>
     <use x="124.267578" xlink:href="#DejaVuSans-114"/>
     <use x="165.380859" xlink:href="#DejaVuSans-102"/>
     <use x="200.585938" xlink:href="#DejaVuSans-117"/>
     <use x="263.964844" xlink:href="#DejaVuSans-122"/>
     <use x="316.455078" xlink:href="#DejaVuSans-122"/>
    </g>
   </g>
  </g>
  <g id="axes_6">
   <g id="patch_27">
    <path d="M 736.99 692.12 
L 1067.448401 692.12 
L 1067.448401 380.04 
L 736.99 380.04 
z
" style="fill:#ffffff;"/>
   </g>
   <g id="PolyCollection_6">
    <defs>
     <path d="M 737.418181 -185.316623 
L 737.418181 120.458081 
L 737.496032 61.709819 
L 737.632271 30.543975 
L 751.392451 7.976757 
L 752.307201 -11.151011 
L 752.910547 -29.694402 
L 753.319265 -59.724898 
L 756.550086 -45.16325 
L 757.386985 -46.892693 
L 761.045986 -51.751175 
L 762.739247 -58.26604 
L 763.147965 -66.023193 
L 763.692923 -75.259959 
L 764.082178 -74.888418 
L 766.242546 -77.510211 
L 767.896881 -88.332293 
L 768.811632 -92.499058 
L 771.458569 -97.754916 
L 772.879351 -103.927903 
L 782.688588 -104.908781 
L 805.518419 -112.293775 
L 808.243207 -115.276109 
L 812.349852 -123.93164 
L 866.923464 -128.053534 
L 948.70603 -132.963164 
L 958.923986 -138.569637 
L 974.941847 -140.372067 
L 994.540858 -146.918903 
L 1003.532658 -150.183593 
L 1003.785674 -154.165644 
L 1065.05448 -158.640941 
L 1067.428938 -163.511039 
L 1067.428938 -183.402314 
L 1067.428938 -183.402314 
L 1065.05448 -179.17387 
L 1003.785674 -174.550624 
L 1003.532658 -169.434133 
L 994.540858 -163.600281 
L 974.941847 -161.048574 
L 958.923986 -153.752462 
L 948.70603 -150.260393 
L 866.923464 -146.071481 
L 812.349852 -141.094833 
L 808.243207 -140.651821 
L 805.518419 -134.535612 
L 782.688588 -132.822065 
L 772.879351 -124.7044 
L 771.458569 -121.778845 
L 768.811632 -117.93616 
L 767.896881 -113.004383 
L 766.242546 -114.727923 
L 764.082178 -108.251174 
L 763.692923 -98.78109 
L 763.147965 -98.919314 
L 762.739247 -97.577925 
L 761.045986 -94.994248 
L 757.386985 -90.754187 
L 756.550086 -83.385088 
L 753.319265 -59.724898 
L 752.910547 -80.656852 
L 752.307201 -90.1017 
L 751.392451 -100.130926 
L 737.632271 -113.599602 
L 737.496032 -135.666903 
L 737.418181 -185.316623 
z
" id="m12d50835cd" style="stroke:#0000ff;stroke-opacity:0.1;"/>
    </defs>
    <g clip-path="url(#pf53e536df3)">
     <use style="fill:#0000ff;fill-opacity:0.1;stroke:#0000ff;stroke-opacity:0.1;" x="0" xlink:href="#m12d50835cd" y="720"/>
    </g>
   </g>
   <g id="matplotlib.axis_11">
    <g id="xtick_41">
     <g id="line2d_71">
      <g>
       <use style="stroke:#000000;stroke-width:0.8;" x="775.876618" xlink:href="#m92f65edb7a" y="692.12"/>
      </g>
     </g>
     <g id="text_71">
      <!-- 10000 -->
      <g transform="translate(759.970368 706.718438)scale(0.1 -0.1)">
       <use xlink:href="#DejaVuSans-49"/>
       <use x="63.623047" xlink:href="#DejaVuSans-48"/>
       <use x="127.246094" xlink:href="#DejaVuSans-48"/>
       <use x="190.869141" xlink:href="#DejaVuSans-48"/>
       <use x="254.492188" xlink:href="#DejaVuSans-48"/>
      </g>
     </g>
    </g>
    <g id="xtick_42">
     <g id="line2d_72">
      <g>
       <use style="stroke:#000000;stroke-width:0.8;" x="814.802161" xlink:href="#m92f65edb7a" y="692.12"/>
      </g>
     </g>
     <g id="text_72">
      <!-- 20000 -->
      <g transform="translate(798.895911 706.718438)scale(0.1 -0.1)">
       <use xlink:href="#DejaVuSans-50"/>
       <use x="63.623047" xlink:href="#DejaVuSans-48"/>
       <use x="127.246094" xlink:href="#DejaVuSans-48"/>
       <use x="190.869141" xlink:href="#DejaVuSans-48"/>
       <use x="254.492188" xlink:href="#DejaVuSans-48"/>
      </g>
     </g>
    </g>
    <g id="xtick_43">
     <g id="line2d_73">
      <g>
       <use style="stroke:#000000;stroke-width:0.8;" x="853.727705" xlink:href="#m92f65edb7a" y="692.12"/>
      </g>
     </g>
     <g id="text_73">
      <!-- 30000 -->
      <g transform="translate(837.821455 706.718438)scale(0.1 -0.1)">
       <use xlink:href="#DejaVuSans-51"/>
       <use x="63.623047" xlink:href="#DejaVuSans-48"/>
       <use x="127.246094" xlink:href="#DejaVuSans-48"/>
       <use x="190.869141" xlink:href="#DejaVuSans-48"/>
       <use x="254.492188" xlink:href="#DejaVuSans-48"/>
      </g>
     </g>
    </g>
    <g id="xtick_44">
     <g id="line2d_74">
      <g>
       <use style="stroke:#000000;stroke-width:0.8;" x="892.653248" xlink:href="#m92f65edb7a" y="692.12"/>
      </g>
     </g>
     <g id="text_74">
      <!-- 40000 -->
      <g transform="translate(876.746998 706.718438)scale(0.1 -0.1)">
       <use xlink:href="#DejaVuSans-52"/>
       <use x="63.623047" xlink:href="#DejaVuSans-48"/>
       <use x="127.246094" xlink:href="#DejaVuSans-48"/>
       <use x="190.869141" xlink:href="#DejaVuSans-48"/>
       <use x="254.492188" xlink:href="#DejaVuSans-48"/>
      </g>
     </g>
    </g>
    <g id="xtick_45">
     <g id="line2d_75">
      <g>
       <use style="stroke:#000000;stroke-width:0.8;" x="931.578791" xlink:href="#m92f65edb7a" y="692.12"/>
      </g>
     </g>
     <g id="text_75">
      <!-- 50000 -->
      <g transform="translate(915.672541 706.718438)scale(0.1 -0.1)">
       <use xlink:href="#DejaVuSans-53"/>
       <use x="63.623047" xlink:href="#DejaVuSans-48"/>
       <use x="127.246094" xlink:href="#DejaVuSans-48"/>
       <use x="190.869141" xlink:href="#DejaVuSans-48"/>
       <use x="254.492188" xlink:href="#DejaVuSans-48"/>
      </g>
     </g>
    </g>
    <g id="xtick_46">
     <g id="line2d_76">
      <g>
       <use style="stroke:#000000;stroke-width:0.8;" x="970.504335" xlink:href="#m92f65edb7a" y="692.12"/>
      </g>
     </g>
     <g id="text_76">
      <!-- 60000 -->
      <g transform="translate(954.598085 706.718438)scale(0.1 -0.1)">
       <use xlink:href="#DejaVuSans-54"/>
       <use x="63.623047" xlink:href="#DejaVuSans-48"/>
       <use x="127.246094" xlink:href="#DejaVuSans-48"/>
       <use x="190.869141" xlink:href="#DejaVuSans-48"/>
       <use x="254.492188" xlink:href="#DejaVuSans-48"/>
      </g>
     </g>
    </g>
    <g id="xtick_47">
     <g id="line2d_77">
      <g>
       <use style="stroke:#000000;stroke-width:0.8;" x="1009.429878" xlink:href="#m92f65edb7a" y="692.12"/>
      </g>
     </g>
     <g id="text_77">
      <!-- 70000 -->
      <g transform="translate(993.523628 706.718438)scale(0.1 -0.1)">
       <use xlink:href="#DejaVuSans-55"/>
       <use x="63.623047" xlink:href="#DejaVuSans-48"/>
       <use x="127.246094" xlink:href="#DejaVuSans-48"/>
       <use x="190.869141" xlink:href="#DejaVuSans-48"/>
       <use x="254.492188" xlink:href="#DejaVuSans-48"/>
      </g>
     </g>
    </g>
    <g id="xtick_48">
     <g id="line2d_78">
      <g>
       <use style="stroke:#000000;stroke-width:0.8;" x="1048.355422" xlink:href="#m92f65edb7a" y="692.12"/>
      </g>
     </g>
     <g id="text_78">
      <!-- 80000 -->
      <g transform="translate(1032.449172 706.718438)scale(0.1 -0.1)">
       <use xlink:href="#DejaVuSans-56"/>
       <use x="63.623047" xlink:href="#DejaVuSans-48"/>
       <use x="127.246094" xlink:href="#DejaVuSans-48"/>
       <use x="190.869141" xlink:href="#DejaVuSans-48"/>
       <use x="254.492188" xlink:href="#DejaVuSans-48"/>
      </g>
     </g>
    </g>
   </g>
   <g id="matplotlib.axis_12">
    <g id="ytick_26">
     <g id="line2d_79">
      <g>
       <use style="stroke:#000000;stroke-width:0.8;" x="736.99" xlink:href="#mce20846470" y="692.12"/>
      </g>
     </g>
     <g id="text_79">
      <!-- 0 -->
      <g transform="translate(723.6275 695.919219)scale(0.1 -0.1)">
       <use xlink:href="#DejaVuSans-48"/>
      </g>
     </g>
    </g>
    <g id="ytick_27">
     <g id="line2d_80">
      <g>
       <use style="stroke:#000000;stroke-width:0.8;" x="736.99" xlink:href="#mce20846470" y="628.430204"/>
      </g>
     </g>
     <g id="text_80">
      <!-- 2 -->
      <g transform="translate(723.6275 632.229423)scale(0.1 -0.1)">
       <use xlink:href="#DejaVuSans-50"/>
      </g>
     </g>
    </g>
    <g id="ytick_28">
     <g id="line2d_81">
      <g>
       <use style="stroke:#000000;stroke-width:0.8;" x="736.99" xlink:href="#mce20846470" y="564.740408"/>
      </g>
     </g>
     <g id="text_81">
      <!-- 4 -->
      <g transform="translate(723.6275 568.539627)scale(0.1 -0.1)">
       <use xlink:href="#DejaVuSans-52"/>
      </g>
     </g>
    </g>
    <g id="ytick_29">
     <g id="line2d_82">
      <g>
       <use style="stroke:#000000;stroke-width:0.8;" x="736.99" xlink:href="#mce20846470" y="501.050612"/>
      </g>
     </g>
     <g id="text_82">
      <!-- 6 -->
      <g transform="translate(723.6275 504.849831)scale(0.1 -0.1)">
       <use xlink:href="#DejaVuSans-54"/>
      </g>
     </g>
    </g>
    <g id="ytick_30">
     <g id="line2d_83">
      <g>
       <use style="stroke:#000000;stroke-width:0.8;" x="736.99" xlink:href="#mce20846470" y="437.360816"/>
      </g>
     </g>
     <g id="text_83">
      <!-- 8 -->
      <g transform="translate(723.6275 441.160035)scale(0.1 -0.1)">
       <use xlink:href="#DejaVuSans-56"/>
      </g>
     </g>
    </g>
   </g>
   <g id="line2d_84">
    <path clip-path="url(#pf53e536df3)" d="M 737.418181 687.570729 
L 737.418181 683.021458 
L 737.496032 683.021458 
L 737.496032 678.472187 
L 737.632271 678.472187 
L 737.632271 673.922915 
L 751.392451 673.922915 
L 751.392451 669.373644 
L 752.307201 669.373644 
L 752.307201 664.824373 
L 752.910547 664.824373 
L 752.910547 660.275102 
L 753.319265 660.275102 
L 753.319265 655.725831 
L 756.550086 655.725831 
L 756.550086 651.17656 
L 757.386985 651.17656 
L 757.386985 646.627289 
L 761.045986 646.627289 
L 761.045986 642.078017 
L 762.739247 642.078017 
L 762.739247 637.528746 
L 763.147965 637.528746 
L 763.147965 632.979475 
L 763.692923 632.979475 
L 763.692923 628.430204 
L 764.082178 628.430204 
L 764.082178 623.880933 
L 766.242546 623.880933 
L 766.242546 619.331662 
L 767.896881 619.331662 
L 767.896881 614.782391 
L 768.811632 614.782391 
L 768.811632 610.23312 
L 771.458569 610.23312 
L 771.458569 605.683848 
L 772.879351 605.683848 
L 772.879351 601.134577 
L 782.688588 601.134577 
L 782.688588 596.585306 
L 805.518419 596.585306 
L 805.518419 592.036035 
L 808.243207 592.036035 
L 808.243207 587.486764 
L 812.349852 587.486764 
L 812.349852 582.937493 
L 866.923464 582.937493 
L 866.923464 578.388222 
L 948.70603 578.388222 
L 948.70603 573.83895 
L 958.923986 573.83895 
L 958.923986 569.289679 
L 974.941847 569.289679 
L 974.941847 564.740408 
L 994.540858 564.740408 
L 994.540858 560.191137 
L 1003.532658 560.191137 
L 1003.532658 555.641866 
L 1003.785674 555.641866 
L 1003.785674 551.092595 
L 1065.05448 551.092595 
L 1065.05448 546.543324 
L 1067.428938 546.543324 
" style="fill:none;stroke:#1f77b4;stroke-linecap:square;stroke-width:1.5;"/>
   </g>
   <g id="patch_28">
    <path d="M 736.99 692.12 
L 736.99 380.04 
" style="fill:none;stroke:#000000;stroke-linecap:square;stroke-linejoin:miter;stroke-width:0.8;"/>
   </g>
   <g id="patch_29">
    <path d="M 1067.448401 692.12 
L 1067.448401 380.04 
" style="fill:none;stroke:#000000;stroke-linecap:square;stroke-linejoin:miter;stroke-width:0.8;"/>
   </g>
   <g id="patch_30">
    <path d="M 736.99 692.12 
L 1067.448401 692.12 
" style="fill:none;stroke:#000000;stroke-linecap:square;stroke-linejoin:miter;stroke-width:0.8;"/>
   </g>
   <g id="patch_31">
    <path d="M 736.99 380.04 
L 1067.448401 380.04 
" style="fill:none;stroke:#000000;stroke-linecap:square;stroke-linejoin:miter;stroke-width:0.8;"/>
   </g>
   <g id="text_84">
    <!-- afl -->
    <g transform="translate(894.763263 374.04)scale(0.12 -0.12)">
     <use xlink:href="#DejaVuSans-97"/>
     <use x="61.279297" xlink:href="#DejaVuSans-102"/>
     <use x="96.484375" xlink:href="#DejaVuSans-108"/>
    </g>
   </g>
  </g>
 </g>
 <defs>
  <clipPath id="p74f29d4caa">
   <rect height="312.08" width="330.458401" x="24.19" y="25.44"/>
  </clipPath>
  <clipPath id="pd3e2127c8e">
   <rect height="312.08" width="330.458401" x="380.59" y="25.44"/>
  </clipPath>
  <clipPath id="pc6c7ced7fb">
   <rect height="312.08" width="330.458401" x="736.99" y="25.44"/>
  </clipPath>
  <clipPath id="p79100cf56f">
   <rect height="312.08" width="330.458401" x="24.19" y="380.04"/>
  </clipPath>
  <clipPath id="p43a9eb022f">
   <rect height="312.08" width="330.458401" x="380.59" y="380.04"/>
  </clipPath>
  <clipPath id="pf53e536df3">
   <rect height="312.08" width="330.458401" x="736.99" y="380.04"/>
  </clipPath>
 </defs>
</svg>
