<?xml version="1.0" encoding="utf-8" standalone="no"?>
<!DOCTYPE svg PUBLIC "-//W3C//DTD SVG 1.1//EN"
  "http://www.w3.org/Graphics/SVG/1.1/DTD/svg11.dtd">
<!-- Created with matplotlib (https://matplotlib.org/) -->
<svg height="720pt" version="1.1" viewBox="0 0 1080 720" width="1080pt" xmlns="http://www.w3.org/2000/svg" xmlns:xlink="http://www.w3.org/1999/xlink">
 <defs>
  <style type="text/css">
*{stroke-linecap:butt;stroke-linejoin:round;}
  </style>
 </defs>
 <g id="figure_1">
  <g id="patch_1">
   <path d="M 0 720 
L 1080 720 
L 1080 0 
L 0 0 
z
" style="fill:#ffffff;"/>
  </g>
  <g id="axes_1">
   <g id="patch_2">
    <path d="M 24.19 337.52 
L 344.065991 337.52 
L 344.065991 25.44 
L 24.19 25.44 
z
" style="fill:#ffffff;"/>
   </g>
   <g id="PolyCollection_1">
    <defs>
     <path d="M 24.308275 -463.265884 
L 24.308275 -345.752469 
L 24.327988 -391.536439 
L 24.406838 -387.637087 
L 24.446264 -432.575979 
L 24.820802 -440.876641 
L 190.229038 -439.819401 
L 190.564152 -441.128446 
L 191.214667 -450.169651 
L 191.39208 -452.587298 
L 191.411793 -455.907529 
L 193.521038 -459.87584 
L 193.777302 -464.380524 
L 218.654574 -469.397546 
L 226.184779 -475.002541 
L 231.743726 -481.510011 
L 328.828168 -492.625882 
L 328.828168 -492.625882 
L 328.828168 -492.625882 
L 231.743726 -496.398695 
L 226.184779 -495.563106 
L 218.654574 -493.825042 
L 193.777302 -491.499005 
L 193.521038 -488.660631 
L 191.411793 -485.285883 
L 191.39208 -481.263055 
L 191.214667 -476.337643 
L 190.564152 -478.035789 
L 190.229038 -472.001775 
L 24.820802 -463.601476 
L 24.446264 -464.55908 
L 24.406838 -458.09656 
L 24.327988 -439.51109 
L 24.308275 -463.265884 
z
" id="m67750b50a8" style="stroke:#0000ff;stroke-opacity:0.1;"/>
    </defs>
    <g clip-path="url(#p485871af7d)">
     <use style="fill:#0000ff;fill-opacity:0.1;stroke:#0000ff;stroke-opacity:0.1;" x="0" xlink:href="#m67750b50a8" y="720"/>
    </g>
   </g>
   <g id="matplotlib.axis_1">
    <g id="xtick_1">
     <g id="line2d_1">
      <defs>
       <path d="M 0 0 
L 0 3.5 
" id="mcbca22fb2f" style="stroke:#000000;stroke-width:0.8;"/>
      </defs>
      <g>
       <use style="stroke:#000000;stroke-width:0.8;" x="63.358891" xlink:href="#mcbca22fb2f" y="337.52"/>
      </g>
     </g>
     <g id="text_1">
      <!-- 10000 -->
      <defs>
       <path d="M 12.40625 8.296875 
L 28.515625 8.296875 
L 28.515625 63.921875 
L 10.984375 60.40625 
L 10.984375 69.390625 
L 28.421875 72.90625 
L 38.28125 72.90625 
L 38.28125 8.296875 
L 54.390625 8.296875 
L 54.390625 0 
L 12.40625 0 
z
" id="DejaVuSans-49"/>
       <path d="M 31.78125 66.40625 
Q 24.171875 66.40625 20.328125 58.90625 
Q 16.5 51.421875 16.5 36.375 
Q 16.5 21.390625 20.328125 13.890625 
Q 24.171875 6.390625 31.78125 6.390625 
Q 39.453125 6.390625 43.28125 13.890625 
Q 47.125 21.390625 47.125 36.375 
Q 47.125 51.421875 43.28125 58.90625 
Q 39.453125 66.40625 31.78125 66.40625 
z
M 31.78125 74.21875 
Q 44.046875 74.21875 50.515625 64.515625 
Q 56.984375 54.828125 56.984375 36.375 
Q 56.984375 17.96875 50.515625 8.265625 
Q 44.046875 -1.421875 31.78125 -1.421875 
Q 19.53125 -1.421875 13.0625 8.265625 
Q 6.59375 17.96875 6.59375 36.375 
Q 6.59375 54.828125 13.0625 64.515625 
Q 19.53125 74.21875 31.78125 74.21875 
z
" id="DejaVuSans-48"/>
      </defs>
      <g transform="translate(47.452641 352.118438)scale(0.1 -0.1)">
       <use xlink:href="#DejaVuSans-49"/>
       <use x="63.623047" xlink:href="#DejaVuSans-48"/>
       <use x="127.246094" xlink:href="#DejaVuSans-48"/>
       <use x="190.869141" xlink:href="#DejaVuSans-48"/>
       <use x="254.492188" xlink:href="#DejaVuSans-48"/>
      </g>
     </g>
    </g>
    <g id="xtick_2">
     <g id="line2d_2">
      <g>
       <use style="stroke:#000000;stroke-width:0.8;" x="102.784045" xlink:href="#mcbca22fb2f" y="337.52"/>
      </g>
     </g>
     <g id="text_2">
      <!-- 20000 -->
      <defs>
       <path d="M 19.1875 8.296875 
L 53.609375 8.296875 
L 53.609375 0 
L 7.328125 0 
L 7.328125 8.296875 
Q 12.9375 14.109375 22.625 23.890625 
Q 32.328125 33.6875 34.8125 36.53125 
Q 39.546875 41.84375 41.421875 45.53125 
Q 43.3125 49.21875 43.3125 52.78125 
Q 43.3125 58.59375 39.234375 62.25 
Q 35.15625 65.921875 28.609375 65.921875 
Q 23.96875 65.921875 18.8125 64.3125 
Q 13.671875 62.703125 7.8125 59.421875 
L 7.8125 69.390625 
Q 13.765625 71.78125 18.9375 73 
Q 24.125 74.21875 28.421875 74.21875 
Q 39.75 74.21875 46.484375 68.546875 
Q 53.21875 62.890625 53.21875 53.421875 
Q 53.21875 48.921875 51.53125 44.890625 
Q 49.859375 40.875 45.40625 35.40625 
Q 44.1875 33.984375 37.640625 27.21875 
Q 31.109375 20.453125 19.1875 8.296875 
z
" id="DejaVuSans-50"/>
      </defs>
      <g transform="translate(86.877795 352.118438)scale(0.1 -0.1)">
       <use xlink:href="#DejaVuSans-50"/>
       <use x="63.623047" xlink:href="#DejaVuSans-48"/>
       <use x="127.246094" xlink:href="#DejaVuSans-48"/>
       <use x="190.869141" xlink:href="#DejaVuSans-48"/>
       <use x="254.492188" xlink:href="#DejaVuSans-48"/>
      </g>
     </g>
    </g>
    <g id="xtick_3">
     <g id="line2d_3">
      <g>
       <use style="stroke:#000000;stroke-width:0.8;" x="142.2092" xlink:href="#mcbca22fb2f" y="337.52"/>
      </g>
     </g>
     <g id="text_3">
      <!-- 30000 -->
      <defs>
       <path d="M 40.578125 39.3125 
Q 47.65625 37.796875 51.625 33 
Q 55.609375 28.21875 55.609375 21.1875 
Q 55.609375 10.40625 48.1875 4.484375 
Q 40.765625 -1.421875 27.09375 -1.421875 
Q 22.515625 -1.421875 17.65625 -0.515625 
Q 12.796875 0.390625 7.625 2.203125 
L 7.625 11.71875 
Q 11.71875 9.328125 16.59375 8.109375 
Q 21.484375 6.890625 26.8125 6.890625 
Q 36.078125 6.890625 40.9375 10.546875 
Q 45.796875 14.203125 45.796875 21.1875 
Q 45.796875 27.640625 41.28125 31.265625 
Q 36.765625 34.90625 28.71875 34.90625 
L 20.21875 34.90625 
L 20.21875 43.015625 
L 29.109375 43.015625 
Q 36.375 43.015625 40.234375 45.921875 
Q 44.09375 48.828125 44.09375 54.296875 
Q 44.09375 59.90625 40.109375 62.90625 
Q 36.140625 65.921875 28.71875 65.921875 
Q 24.65625 65.921875 20.015625 65.03125 
Q 15.375 64.15625 9.8125 62.3125 
L 9.8125 71.09375 
Q 15.4375 72.65625 20.34375 73.4375 
Q 25.25 74.21875 29.59375 74.21875 
Q 40.828125 74.21875 47.359375 69.109375 
Q 53.90625 64.015625 53.90625 55.328125 
Q 53.90625 49.265625 50.4375 45.09375 
Q 46.96875 40.921875 40.578125 39.3125 
z
" id="DejaVuSans-51"/>
      </defs>
      <g transform="translate(126.30295 352.118438)scale(0.1 -0.1)">
       <use xlink:href="#DejaVuSans-51"/>
       <use x="63.623047" xlink:href="#DejaVuSans-48"/>
       <use x="127.246094" xlink:href="#DejaVuSans-48"/>
       <use x="190.869141" xlink:href="#DejaVuSans-48"/>
       <use x="254.492188" xlink:href="#DejaVuSans-48"/>
      </g>
     </g>
    </g>
    <g id="xtick_4">
     <g id="line2d_4">
      <g>
       <use style="stroke:#000000;stroke-width:0.8;" x="181.634354" xlink:href="#mcbca22fb2f" y="337.52"/>
      </g>
     </g>
     <g id="text_4">
      <!-- 40000 -->
      <defs>
       <path d="M 37.796875 64.3125 
L 12.890625 25.390625 
L 37.796875 25.390625 
z
M 35.203125 72.90625 
L 47.609375 72.90625 
L 47.609375 25.390625 
L 58.015625 25.390625 
L 58.015625 17.1875 
L 47.609375 17.1875 
L 47.609375 0 
L 37.796875 0 
L 37.796875 17.1875 
L 4.890625 17.1875 
L 4.890625 26.703125 
z
" id="DejaVuSans-52"/>
      </defs>
      <g transform="translate(165.728104 352.118438)scale(0.1 -0.1)">
       <use xlink:href="#DejaVuSans-52"/>
       <use x="63.623047" xlink:href="#DejaVuSans-48"/>
       <use x="127.246094" xlink:href="#DejaVuSans-48"/>
       <use x="190.869141" xlink:href="#DejaVuSans-48"/>
       <use x="254.492188" xlink:href="#DejaVuSans-48"/>
      </g>
     </g>
    </g>
    <g id="xtick_5">
     <g id="line2d_5">
      <g>
       <use style="stroke:#000000;stroke-width:0.8;" x="221.059509" xlink:href="#mcbca22fb2f" y="337.52"/>
      </g>
     </g>
     <g id="text_5">
      <!-- 50000 -->
      <defs>
       <path d="M 10.796875 72.90625 
L 49.515625 72.90625 
L 49.515625 64.59375 
L 19.828125 64.59375 
L 19.828125 46.734375 
Q 21.96875 47.46875 24.109375 47.828125 
Q 26.265625 48.1875 28.421875 48.1875 
Q 40.625 48.1875 47.75 41.5 
Q 54.890625 34.8125 54.890625 23.390625 
Q 54.890625 11.625 47.5625 5.09375 
Q 40.234375 -1.421875 26.90625 -1.421875 
Q 22.3125 -1.421875 17.546875 -0.640625 
Q 12.796875 0.140625 7.71875 1.703125 
L 7.71875 11.625 
Q 12.109375 9.234375 16.796875 8.0625 
Q 21.484375 6.890625 26.703125 6.890625 
Q 35.15625 6.890625 40.078125 11.328125 
Q 45.015625 15.765625 45.015625 23.390625 
Q 45.015625 31 40.078125 35.4375 
Q 35.15625 39.890625 26.703125 39.890625 
Q 22.75 39.890625 18.8125 39.015625 
Q 14.890625 38.140625 10.796875 36.28125 
z
" id="DejaVuSans-53"/>
      </defs>
      <g transform="translate(205.153259 352.118438)scale(0.1 -0.1)">
       <use xlink:href="#DejaVuSans-53"/>
       <use x="63.623047" xlink:href="#DejaVuSans-48"/>
       <use x="127.246094" xlink:href="#DejaVuSans-48"/>
       <use x="190.869141" xlink:href="#DejaVuSans-48"/>
       <use x="254.492188" xlink:href="#DejaVuSans-48"/>
      </g>
     </g>
    </g>
    <g id="xtick_6">
     <g id="line2d_6">
      <g>
       <use style="stroke:#000000;stroke-width:0.8;" x="260.484663" xlink:href="#mcbca22fb2f" y="337.52"/>
      </g>
     </g>
     <g id="text_6">
      <!-- 60000 -->
      <defs>
       <path d="M 33.015625 40.375 
Q 26.375 40.375 22.484375 35.828125 
Q 18.609375 31.296875 18.609375 23.390625 
Q 18.609375 15.53125 22.484375 10.953125 
Q 26.375 6.390625 33.015625 6.390625 
Q 39.65625 6.390625 43.53125 10.953125 
Q 47.40625 15.53125 47.40625 23.390625 
Q 47.40625 31.296875 43.53125 35.828125 
Q 39.65625 40.375 33.015625 40.375 
z
M 52.59375 71.296875 
L 52.59375 62.3125 
Q 48.875 64.0625 45.09375 64.984375 
Q 41.3125 65.921875 37.59375 65.921875 
Q 27.828125 65.921875 22.671875 59.328125 
Q 17.53125 52.734375 16.796875 39.40625 
Q 19.671875 43.65625 24.015625 45.921875 
Q 28.375 48.1875 33.59375 48.1875 
Q 44.578125 48.1875 50.953125 41.515625 
Q 57.328125 34.859375 57.328125 23.390625 
Q 57.328125 12.15625 50.6875 5.359375 
Q 44.046875 -1.421875 33.015625 -1.421875 
Q 20.359375 -1.421875 13.671875 8.265625 
Q 6.984375 17.96875 6.984375 36.375 
Q 6.984375 53.65625 15.1875 63.9375 
Q 23.390625 74.21875 37.203125 74.21875 
Q 40.921875 74.21875 44.703125 73.484375 
Q 48.484375 72.75 52.59375 71.296875 
z
" id="DejaVuSans-54"/>
      </defs>
      <g transform="translate(244.578413 352.118438)scale(0.1 -0.1)">
       <use xlink:href="#DejaVuSans-54"/>
       <use x="63.623047" xlink:href="#DejaVuSans-48"/>
       <use x="127.246094" xlink:href="#DejaVuSans-48"/>
       <use x="190.869141" xlink:href="#DejaVuSans-48"/>
       <use x="254.492188" xlink:href="#DejaVuSans-48"/>
      </g>
     </g>
    </g>
    <g id="xtick_7">
     <g id="line2d_7">
      <g>
       <use style="stroke:#000000;stroke-width:0.8;" x="299.909818" xlink:href="#mcbca22fb2f" y="337.52"/>
      </g>
     </g>
     <g id="text_7">
      <!-- 70000 -->
      <defs>
       <path d="M 8.203125 72.90625 
L 55.078125 72.90625 
L 55.078125 68.703125 
L 28.609375 0 
L 18.3125 0 
L 43.21875 64.59375 
L 8.203125 64.59375 
z
" id="DejaVuSans-55"/>
      </defs>
      <g transform="translate(284.003568 352.118438)scale(0.1 -0.1)">
       <use xlink:href="#DejaVuSans-55"/>
       <use x="63.623047" xlink:href="#DejaVuSans-48"/>
       <use x="127.246094" xlink:href="#DejaVuSans-48"/>
       <use x="190.869141" xlink:href="#DejaVuSans-48"/>
       <use x="254.492188" xlink:href="#DejaVuSans-48"/>
      </g>
     </g>
    </g>
    <g id="xtick_8">
     <g id="line2d_8">
      <g>
       <use style="stroke:#000000;stroke-width:0.8;" x="339.334972" xlink:href="#mcbca22fb2f" y="337.52"/>
      </g>
     </g>
     <g id="text_8">
      <!-- 80000 -->
      <defs>
       <path d="M 31.78125 34.625 
Q 24.75 34.625 20.71875 30.859375 
Q 16.703125 27.09375 16.703125 20.515625 
Q 16.703125 13.921875 20.71875 10.15625 
Q 24.75 6.390625 31.78125 6.390625 
Q 38.8125 6.390625 42.859375 10.171875 
Q 46.921875 13.96875 46.921875 20.515625 
Q 46.921875 27.09375 42.890625 30.859375 
Q 38.875 34.625 31.78125 34.625 
z
M 21.921875 38.8125 
Q 15.578125 40.375 12.03125 44.71875 
Q 8.5 49.078125 8.5 55.328125 
Q 8.5 64.0625 14.71875 69.140625 
Q 20.953125 74.21875 31.78125 74.21875 
Q 42.671875 74.21875 48.875 69.140625 
Q 55.078125 64.0625 55.078125 55.328125 
Q 55.078125 49.078125 51.53125 44.71875 
Q 48 40.375 41.703125 38.8125 
Q 48.828125 37.15625 52.796875 32.3125 
Q 56.78125 27.484375 56.78125 20.515625 
Q 56.78125 9.90625 50.3125 4.234375 
Q 43.84375 -1.421875 31.78125 -1.421875 
Q 19.734375 -1.421875 13.25 4.234375 
Q 6.78125 9.90625 6.78125 20.515625 
Q 6.78125 27.484375 10.78125 32.3125 
Q 14.796875 37.15625 21.921875 38.8125 
z
M 18.3125 54.390625 
Q 18.3125 48.734375 21.84375 45.5625 
Q 25.390625 42.390625 31.78125 42.390625 
Q 38.140625 42.390625 41.71875 45.5625 
Q 45.3125 48.734375 45.3125 54.390625 
Q 45.3125 60.0625 41.71875 63.234375 
Q 38.140625 66.40625 31.78125 66.40625 
Q 25.390625 66.40625 21.84375 63.234375 
Q 18.3125 60.0625 18.3125 54.390625 
z
" id="DejaVuSans-56"/>
      </defs>
      <g transform="translate(323.428722 352.118438)scale(0.1 -0.1)">
       <use xlink:href="#DejaVuSans-56"/>
       <use x="63.623047" xlink:href="#DejaVuSans-48"/>
       <use x="127.246094" xlink:href="#DejaVuSans-48"/>
       <use x="190.869141" xlink:href="#DejaVuSans-48"/>
       <use x="254.492188" xlink:href="#DejaVuSans-48"/>
      </g>
     </g>
    </g>
   </g>
   <g id="matplotlib.axis_2">
    <g id="ytick_1">
     <g id="line2d_9">
      <defs>
       <path d="M 0 0 
L -3.5 0 
" id="mf9bcb358c9" style="stroke:#000000;stroke-width:0.8;"/>
      </defs>
      <g>
       <use style="stroke:#000000;stroke-width:0.8;" x="24.19" xlink:href="#mf9bcb358c9" y="337.52"/>
      </g>
     </g>
     <g id="text_9">
      <!-- 0 -->
      <g transform="translate(10.8275 341.319219)scale(0.1 -0.1)">
       <use xlink:href="#DejaVuSans-48"/>
      </g>
     </g>
    </g>
    <g id="ytick_2">
     <g id="line2d_10">
      <g>
       <use style="stroke:#000000;stroke-width:0.8;" x="24.19" xlink:href="#mf9bcb358c9" y="300.804706"/>
      </g>
     </g>
     <g id="text_10">
      <!-- 1 -->
      <g transform="translate(10.8275 304.603925)scale(0.1 -0.1)">
       <use xlink:href="#DejaVuSans-49"/>
      </g>
     </g>
    </g>
    <g id="ytick_3">
     <g id="line2d_11">
      <g>
       <use style="stroke:#000000;stroke-width:0.8;" x="24.19" xlink:href="#mf9bcb358c9" y="264.089412"/>
      </g>
     </g>
     <g id="text_11">
      <!-- 2 -->
      <g transform="translate(10.8275 267.888631)scale(0.1 -0.1)">
       <use xlink:href="#DejaVuSans-50"/>
      </g>
     </g>
    </g>
    <g id="ytick_4">
     <g id="line2d_12">
      <g>
       <use style="stroke:#000000;stroke-width:0.8;" x="24.19" xlink:href="#mf9bcb358c9" y="227.374118"/>
      </g>
     </g>
     <g id="text_12">
      <!-- 3 -->
      <g transform="translate(10.8275 231.173336)scale(0.1 -0.1)">
       <use xlink:href="#DejaVuSans-51"/>
      </g>
     </g>
    </g>
    <g id="ytick_5">
     <g id="line2d_13">
      <g>
       <use style="stroke:#000000;stroke-width:0.8;" x="24.19" xlink:href="#mf9bcb358c9" y="190.658824"/>
      </g>
     </g>
     <g id="text_13">
      <!-- 4 -->
      <g transform="translate(10.8275 194.458042)scale(0.1 -0.1)">
       <use xlink:href="#DejaVuSans-52"/>
      </g>
     </g>
    </g>
    <g id="ytick_6">
     <g id="line2d_14">
      <g>
       <use style="stroke:#000000;stroke-width:0.8;" x="24.19" xlink:href="#mf9bcb358c9" y="153.943529"/>
      </g>
     </g>
     <g id="text_14">
      <!-- 5 -->
      <g transform="translate(10.8275 157.742748)scale(0.1 -0.1)">
       <use xlink:href="#DejaVuSans-53"/>
      </g>
     </g>
    </g>
    <g id="ytick_7">
     <g id="line2d_15">
      <g>
       <use style="stroke:#000000;stroke-width:0.8;" x="24.19" xlink:href="#mf9bcb358c9" y="117.228235"/>
      </g>
     </g>
     <g id="text_15">
      <!-- 6 -->
      <g transform="translate(10.8275 121.027454)scale(0.1 -0.1)">
       <use xlink:href="#DejaVuSans-54"/>
      </g>
     </g>
    </g>
    <g id="ytick_8">
     <g id="line2d_16">
      <g>
       <use style="stroke:#000000;stroke-width:0.8;" x="24.19" xlink:href="#mf9bcb358c9" y="80.512941"/>
      </g>
     </g>
     <g id="text_16">
      <!-- 7 -->
      <g transform="translate(10.8275 84.31216)scale(0.1 -0.1)">
       <use xlink:href="#DejaVuSans-55"/>
      </g>
     </g>
    </g>
    <g id="ytick_9">
     <g id="line2d_17">
      <g>
       <use style="stroke:#000000;stroke-width:0.8;" x="24.19" xlink:href="#mf9bcb358c9" y="43.797647"/>
      </g>
     </g>
     <g id="text_17">
      <!-- 8 -->
      <g transform="translate(10.8275 47.596866)scale(0.1 -0.1)">
       <use xlink:href="#DejaVuSans-56"/>
      </g>
     </g>
    </g>
   </g>
   <g id="line2d_18">
    <path clip-path="url(#p485871af7d)" d="M 24.308275 315.490824 
L 24.308275 304.476235 
L 24.327988 304.476235 
L 24.327988 297.133176 
L 24.406838 297.133176 
L 24.406838 271.432471 
L 24.446264 271.432471 
L 24.446264 267.760941 
L 24.820802 267.760941 
L 24.820802 264.089412 
L 190.229038 264.089412 
L 190.229038 260.417882 
L 190.564152 260.417882 
L 190.564152 256.746353 
L 191.214667 256.746353 
L 191.214667 253.074824 
L 191.39208 253.074824 
L 191.39208 249.403294 
L 191.411793 249.403294 
L 191.411793 245.731765 
L 193.521038 245.731765 
L 193.521038 242.060235 
L 193.777302 242.060235 
L 193.777302 238.388706 
L 218.654574 238.388706 
L 218.654574 234.717176 
L 226.184779 234.717176 
L 226.184779 231.045647 
L 231.743726 231.045647 
L 231.743726 227.374118 
L 328.828168 227.374118 
" style="fill:none;stroke:#1f77b4;stroke-linecap:square;stroke-width:1.5;"/>
   </g>
   <g id="patch_3">
    <path d="M 24.19 337.52 
L 24.19 25.44 
" style="fill:none;stroke:#000000;stroke-linecap:square;stroke-linejoin:miter;stroke-width:0.8;"/>
   </g>
   <g id="patch_4">
    <path d="M 344.065991 337.52 
L 344.065991 25.44 
" style="fill:none;stroke:#000000;stroke-linecap:square;stroke-linejoin:miter;stroke-width:0.8;"/>
   </g>
   <g id="patch_5">
    <path d="M 24.19 337.52 
L 344.065991 337.52 
" style="fill:none;stroke:#000000;stroke-linecap:square;stroke-linejoin:miter;stroke-width:0.8;"/>
   </g>
   <g id="patch_6">
    <path d="M 24.19 25.44 
L 344.065991 25.44 
" style="fill:none;stroke:#000000;stroke-linecap:square;stroke-linejoin:miter;stroke-width:0.8;"/>
   </g>
   <g id="text_18">
    <!-- moptafl -->
    <defs>
     <path d="M 52 44.1875 
Q 55.375 50.25 60.0625 53.125 
Q 64.75 56 71.09375 56 
Q 79.640625 56 84.28125 50.015625 
Q 88.921875 44.046875 88.921875 33.015625 
L 88.921875 0 
L 79.890625 0 
L 79.890625 32.71875 
Q 79.890625 40.578125 77.09375 44.375 
Q 74.3125 48.1875 68.609375 48.1875 
Q 61.625 48.1875 57.5625 43.546875 
Q 53.515625 38.921875 53.515625 30.90625 
L 53.515625 0 
L 44.484375 0 
L 44.484375 32.71875 
Q 44.484375 40.625 41.703125 44.40625 
Q 38.921875 48.1875 33.109375 48.1875 
Q 26.21875 48.1875 22.15625 43.53125 
Q 18.109375 38.875 18.109375 30.90625 
L 18.109375 0 
L 9.078125 0 
L 9.078125 54.6875 
L 18.109375 54.6875 
L 18.109375 46.1875 
Q 21.1875 51.21875 25.484375 53.609375 
Q 29.78125 56 35.6875 56 
Q 41.65625 56 45.828125 52.96875 
Q 50 49.953125 52 44.1875 
z
" id="DejaVuSans-109"/>
     <path d="M 30.609375 48.390625 
Q 23.390625 48.390625 19.1875 42.75 
Q 14.984375 37.109375 14.984375 27.296875 
Q 14.984375 17.484375 19.15625 11.84375 
Q 23.34375 6.203125 30.609375 6.203125 
Q 37.796875 6.203125 41.984375 11.859375 
Q 46.1875 17.53125 46.1875 27.296875 
Q 46.1875 37.015625 41.984375 42.703125 
Q 37.796875 48.390625 30.609375 48.390625 
z
M 30.609375 56 
Q 42.328125 56 49.015625 48.375 
Q 55.71875 40.765625 55.71875 27.296875 
Q 55.71875 13.875 49.015625 6.21875 
Q 42.328125 -1.421875 30.609375 -1.421875 
Q 18.84375 -1.421875 12.171875 6.21875 
Q 5.515625 13.875 5.515625 27.296875 
Q 5.515625 40.765625 12.171875 48.375 
Q 18.84375 56 30.609375 56 
z
" id="DejaVuSans-111"/>
     <path d="M 18.109375 8.203125 
L 18.109375 -20.796875 
L 9.078125 -20.796875 
L 9.078125 54.6875 
L 18.109375 54.6875 
L 18.109375 46.390625 
Q 20.953125 51.265625 25.265625 53.625 
Q 29.59375 56 35.59375 56 
Q 45.5625 56 51.78125 48.09375 
Q 58.015625 40.1875 58.015625 27.296875 
Q 58.015625 14.40625 51.78125 6.484375 
Q 45.5625 -1.421875 35.59375 -1.421875 
Q 29.59375 -1.421875 25.265625 0.953125 
Q 20.953125 3.328125 18.109375 8.203125 
z
M 48.6875 27.296875 
Q 48.6875 37.203125 44.609375 42.84375 
Q 40.53125 48.484375 33.40625 48.484375 
Q 26.265625 48.484375 22.1875 42.84375 
Q 18.109375 37.203125 18.109375 27.296875 
Q 18.109375 17.390625 22.1875 11.75 
Q 26.265625 6.109375 33.40625 6.109375 
Q 40.53125 6.109375 44.609375 11.75 
Q 48.6875 17.390625 48.6875 27.296875 
z
" id="DejaVuSans-112"/>
     <path d="M 18.3125 70.21875 
L 18.3125 54.6875 
L 36.8125 54.6875 
L 36.8125 47.703125 
L 18.3125 47.703125 
L 18.3125 18.015625 
Q 18.3125 11.328125 20.140625 9.421875 
Q 21.96875 7.515625 27.59375 7.515625 
L 36.8125 7.515625 
L 36.8125 0 
L 27.59375 0 
Q 17.1875 0 13.234375 3.875 
Q 9.28125 7.765625 9.28125 18.015625 
L 9.28125 47.703125 
L 2.6875 47.703125 
L 2.6875 54.6875 
L 9.28125 54.6875 
L 9.28125 70.21875 
z
" id="DejaVuSans-116"/>
     <path d="M 34.28125 27.484375 
Q 23.390625 27.484375 19.1875 25 
Q 14.984375 22.515625 14.984375 16.5 
Q 14.984375 11.71875 18.140625 8.90625 
Q 21.296875 6.109375 26.703125 6.109375 
Q 34.1875 6.109375 38.703125 11.40625 
Q 43.21875 16.703125 43.21875 25.484375 
L 43.21875 27.484375 
z
M 52.203125 31.203125 
L 52.203125 0 
L 43.21875 0 
L 43.21875 8.296875 
Q 40.140625 3.328125 35.546875 0.953125 
Q 30.953125 -1.421875 24.3125 -1.421875 
Q 15.921875 -1.421875 10.953125 3.296875 
Q 6 8.015625 6 15.921875 
Q 6 25.140625 12.171875 29.828125 
Q 18.359375 34.515625 30.609375 34.515625 
L 43.21875 34.515625 
L 43.21875 35.40625 
Q 43.21875 41.609375 39.140625 45 
Q 35.0625 48.390625 27.6875 48.390625 
Q 23 48.390625 18.546875 47.265625 
Q 14.109375 46.140625 10.015625 43.890625 
L 10.015625 52.203125 
Q 14.9375 54.109375 19.578125 55.046875 
Q 24.21875 56 28.609375 56 
Q 40.484375 56 46.34375 49.84375 
Q 52.203125 43.703125 52.203125 31.203125 
z
" id="DejaVuSans-97"/>
     <path d="M 37.109375 75.984375 
L 37.109375 68.5 
L 28.515625 68.5 
Q 23.6875 68.5 21.796875 66.546875 
Q 19.921875 64.59375 19.921875 59.515625 
L 19.921875 54.6875 
L 34.71875 54.6875 
L 34.71875 47.703125 
L 19.921875 47.703125 
L 19.921875 0 
L 10.890625 0 
L 10.890625 47.703125 
L 2.296875 47.703125 
L 2.296875 54.6875 
L 10.890625 54.6875 
L 10.890625 58.5 
Q 10.890625 67.625 15.140625 71.796875 
Q 19.390625 75.984375 28.609375 75.984375 
z
" id="DejaVuSans-102"/>
     <path d="M 9.421875 75.984375 
L 18.40625 75.984375 
L 18.40625 0 
L 9.421875 0 
z
" id="DejaVuSans-108"/>
    </defs>
    <g transform="translate(160.995183 19.44)scale(0.12 -0.12)">
     <use xlink:href="#DejaVuSans-109"/>
     <use x="97.412109" xlink:href="#DejaVuSans-111"/>
     <use x="158.59375" xlink:href="#DejaVuSans-112"/>
     <use x="222.070312" xlink:href="#DejaVuSans-116"/>
     <use x="261.279297" xlink:href="#DejaVuSans-97"/>
     <use x="322.558594" xlink:href="#DejaVuSans-102"/>
     <use x="357.763672" xlink:href="#DejaVuSans-108"/>
    </g>
   </g>
  </g>
  <g id="axes_2">
   <g id="patch_7">
    <path d="M 380.59 337.52 
L 700.465991 337.52 
L 700.465991 25.44 
L 380.59 25.44 
z
" style="fill:#ffffff;"/>
   </g>
   <g id="PolyCollection_2">
    <defs>
     <path d="M 380.708275 -447.833224 
L 380.708275 -375.871247 
L 380.727988 -419.195294 
L 380.806838 -403.24083 
L 380.846264 -413.565616 
L 380.984252 -432.575979 
L 562.339962 -431.842896 
L 562.635651 -433.154213 
L 562.694788 -441.128446 
L 562.714501 -443.627653 
L 563.108752 -446.891199 
L 563.16789 -450.707466 
L 567.07098 -454.958811 
L 567.268106 -464.380524 
L 567.366669 -469.397546 
L 567.425807 -475.002541 
L 631.767659 -481.510011 
L 681.95588 -492.625882 
L 681.95588 -492.625882 
L 681.95588 -492.625882 
L 631.767659 -496.398695 
L 567.425807 -495.563106 
L 567.366669 -493.825042 
L 567.268106 -491.499005 
L 567.07098 -493.57766 
L 563.16789 -490.485945 
L 563.108752 -486.959154 
L 562.714501 -482.879641 
L 562.694788 -478.035789 
L 562.635651 -478.666963 
L 562.339962 -472.635222 
L 380.984252 -464.55908 
L 380.846264 -461.540267 
L 380.806838 -442.492817 
L 380.727988 -419.195294 
L 380.708275 -447.833224 
z
" id="m80f9cd1cb4" style="stroke:#0000ff;stroke-opacity:0.1;"/>
    </defs>
    <g clip-path="url(#p3c0725efbf)">
     <use style="fill:#0000ff;fill-opacity:0.1;stroke:#0000ff;stroke-opacity:0.1;" x="0" xlink:href="#m80f9cd1cb4" y="720"/>
    </g>
   </g>
   <g id="matplotlib.axis_3">
    <g id="xtick_9">
     <g id="line2d_19">
      <g>
       <use style="stroke:#000000;stroke-width:0.8;" x="419.758891" xlink:href="#mcbca22fb2f" y="337.52"/>
      </g>
     </g>
     <g id="text_19">
      <!-- 10000 -->
      <g transform="translate(403.852641 352.118438)scale(0.1 -0.1)">
       <use xlink:href="#DejaVuSans-49"/>
       <use x="63.623047" xlink:href="#DejaVuSans-48"/>
       <use x="127.246094" xlink:href="#DejaVuSans-48"/>
       <use x="190.869141" xlink:href="#DejaVuSans-48"/>
       <use x="254.492188" xlink:href="#DejaVuSans-48"/>
      </g>
     </g>
    </g>
    <g id="xtick_10">
     <g id="line2d_20">
      <g>
       <use style="stroke:#000000;stroke-width:0.8;" x="459.184045" xlink:href="#mcbca22fb2f" y="337.52"/>
      </g>
     </g>
     <g id="text_20">
      <!-- 20000 -->
      <g transform="translate(443.277795 352.118438)scale(0.1 -0.1)">
       <use xlink:href="#DejaVuSans-50"/>
       <use x="63.623047" xlink:href="#DejaVuSans-48"/>
       <use x="127.246094" xlink:href="#DejaVuSans-48"/>
       <use x="190.869141" xlink:href="#DejaVuSans-48"/>
       <use x="254.492188" xlink:href="#DejaVuSans-48"/>
      </g>
     </g>
    </g>
    <g id="xtick_11">
     <g id="line2d_21">
      <g>
       <use style="stroke:#000000;stroke-width:0.8;" x="498.6092" xlink:href="#mcbca22fb2f" y="337.52"/>
      </g>
     </g>
     <g id="text_21">
      <!-- 30000 -->
      <g transform="translate(482.70295 352.118438)scale(0.1 -0.1)">
       <use xlink:href="#DejaVuSans-51"/>
       <use x="63.623047" xlink:href="#DejaVuSans-48"/>
       <use x="127.246094" xlink:href="#DejaVuSans-48"/>
       <use x="190.869141" xlink:href="#DejaVuSans-48"/>
       <use x="254.492188" xlink:href="#DejaVuSans-48"/>
      </g>
     </g>
    </g>
    <g id="xtick_12">
     <g id="line2d_22">
      <g>
       <use style="stroke:#000000;stroke-width:0.8;" x="538.034354" xlink:href="#mcbca22fb2f" y="337.52"/>
      </g>
     </g>
     <g id="text_22">
      <!-- 40000 -->
      <g transform="translate(522.128104 352.118438)scale(0.1 -0.1)">
       <use xlink:href="#DejaVuSans-52"/>
       <use x="63.623047" xlink:href="#DejaVuSans-48"/>
       <use x="127.246094" xlink:href="#DejaVuSans-48"/>
       <use x="190.869141" xlink:href="#DejaVuSans-48"/>
       <use x="254.492188" xlink:href="#DejaVuSans-48"/>
      </g>
     </g>
    </g>
    <g id="xtick_13">
     <g id="line2d_23">
      <g>
       <use style="stroke:#000000;stroke-width:0.8;" x="577.459509" xlink:href="#mcbca22fb2f" y="337.52"/>
      </g>
     </g>
     <g id="text_23">
      <!-- 50000 -->
      <g transform="translate(561.553259 352.118438)scale(0.1 -0.1)">
       <use xlink:href="#DejaVuSans-53"/>
       <use x="63.623047" xlink:href="#DejaVuSans-48"/>
       <use x="127.246094" xlink:href="#DejaVuSans-48"/>
       <use x="190.869141" xlink:href="#DejaVuSans-48"/>
       <use x="254.492188" xlink:href="#DejaVuSans-48"/>
      </g>
     </g>
    </g>
    <g id="xtick_14">
     <g id="line2d_24">
      <g>
       <use style="stroke:#000000;stroke-width:0.8;" x="616.884663" xlink:href="#mcbca22fb2f" y="337.52"/>
      </g>
     </g>
     <g id="text_24">
      <!-- 60000 -->
      <g transform="translate(600.978413 352.118438)scale(0.1 -0.1)">
       <use xlink:href="#DejaVuSans-54"/>
       <use x="63.623047" xlink:href="#DejaVuSans-48"/>
       <use x="127.246094" xlink:href="#DejaVuSans-48"/>
       <use x="190.869141" xlink:href="#DejaVuSans-48"/>
       <use x="254.492188" xlink:href="#DejaVuSans-48"/>
      </g>
     </g>
    </g>
    <g id="xtick_15">
     <g id="line2d_25">
      <g>
       <use style="stroke:#000000;stroke-width:0.8;" x="656.309818" xlink:href="#mcbca22fb2f" y="337.52"/>
      </g>
     </g>
     <g id="text_25">
      <!-- 70000 -->
      <g transform="translate(640.403568 352.118438)scale(0.1 -0.1)">
       <use xlink:href="#DejaVuSans-55"/>
       <use x="63.623047" xlink:href="#DejaVuSans-48"/>
       <use x="127.246094" xlink:href="#DejaVuSans-48"/>
       <use x="190.869141" xlink:href="#DejaVuSans-48"/>
       <use x="254.492188" xlink:href="#DejaVuSans-48"/>
      </g>
     </g>
    </g>
    <g id="xtick_16">
     <g id="line2d_26">
      <g>
       <use style="stroke:#000000;stroke-width:0.8;" x="695.734972" xlink:href="#mcbca22fb2f" y="337.52"/>
      </g>
     </g>
     <g id="text_26">
      <!-- 80000 -->
      <g transform="translate(679.828722 352.118438)scale(0.1 -0.1)">
       <use xlink:href="#DejaVuSans-56"/>
       <use x="63.623047" xlink:href="#DejaVuSans-48"/>
       <use x="127.246094" xlink:href="#DejaVuSans-48"/>
       <use x="190.869141" xlink:href="#DejaVuSans-48"/>
       <use x="254.492188" xlink:href="#DejaVuSans-48"/>
      </g>
     </g>
    </g>
   </g>
   <g id="matplotlib.axis_4">
    <g id="ytick_10">
     <g id="line2d_27">
      <g>
       <use style="stroke:#000000;stroke-width:0.8;" x="380.59" xlink:href="#mf9bcb358c9" y="337.52"/>
      </g>
     </g>
     <g id="text_27">
      <!-- 0 -->
      <g transform="translate(367.2275 341.319219)scale(0.1 -0.1)">
       <use xlink:href="#DejaVuSans-48"/>
      </g>
     </g>
    </g>
    <g id="ytick_11">
     <g id="line2d_28">
      <g>
       <use style="stroke:#000000;stroke-width:0.8;" x="380.59" xlink:href="#mf9bcb358c9" y="300.804706"/>
      </g>
     </g>
     <g id="text_28">
      <!-- 1 -->
      <g transform="translate(367.2275 304.603925)scale(0.1 -0.1)">
       <use xlink:href="#DejaVuSans-49"/>
      </g>
     </g>
    </g>
    <g id="ytick_12">
     <g id="line2d_29">
      <g>
       <use style="stroke:#000000;stroke-width:0.8;" x="380.59" xlink:href="#mf9bcb358c9" y="264.089412"/>
      </g>
     </g>
     <g id="text_29">
      <!-- 2 -->
      <g transform="translate(367.2275 267.888631)scale(0.1 -0.1)">
       <use xlink:href="#DejaVuSans-50"/>
      </g>
     </g>
    </g>
    <g id="ytick_13">
     <g id="line2d_30">
      <g>
       <use style="stroke:#000000;stroke-width:0.8;" x="380.59" xlink:href="#mf9bcb358c9" y="227.374118"/>
      </g>
     </g>
     <g id="text_30">
      <!-- 3 -->
      <g transform="translate(367.2275 231.173336)scale(0.1 -0.1)">
       <use xlink:href="#DejaVuSans-51"/>
      </g>
     </g>
    </g>
    <g id="ytick_14">
     <g id="line2d_31">
      <g>
       <use style="stroke:#000000;stroke-width:0.8;" x="380.59" xlink:href="#mf9bcb358c9" y="190.658824"/>
      </g>
     </g>
     <g id="text_31">
      <!-- 4 -->
      <g transform="translate(367.2275 194.458042)scale(0.1 -0.1)">
       <use xlink:href="#DejaVuSans-52"/>
      </g>
     </g>
    </g>
    <g id="ytick_15">
     <g id="line2d_32">
      <g>
       <use style="stroke:#000000;stroke-width:0.8;" x="380.59" xlink:href="#mf9bcb358c9" y="153.943529"/>
      </g>
     </g>
     <g id="text_32">
      <!-- 5 -->
      <g transform="translate(367.2275 157.742748)scale(0.1 -0.1)">
       <use xlink:href="#DejaVuSans-53"/>
      </g>
     </g>
    </g>
    <g id="ytick_16">
     <g id="line2d_33">
      <g>
       <use style="stroke:#000000;stroke-width:0.8;" x="380.59" xlink:href="#mf9bcb358c9" y="117.228235"/>
      </g>
     </g>
     <g id="text_33">
      <!-- 6 -->
      <g transform="translate(367.2275 121.027454)scale(0.1 -0.1)">
       <use xlink:href="#DejaVuSans-54"/>
      </g>
     </g>
    </g>
    <g id="ytick_17">
     <g id="line2d_34">
      <g>
       <use style="stroke:#000000;stroke-width:0.8;" x="380.59" xlink:href="#mf9bcb358c9" y="80.512941"/>
      </g>
     </g>
     <g id="text_34">
      <!-- 7 -->
      <g transform="translate(367.2275 84.31216)scale(0.1 -0.1)">
       <use xlink:href="#DejaVuSans-55"/>
      </g>
     </g>
    </g>
    <g id="ytick_18">
     <g id="line2d_35">
      <g>
       <use style="stroke:#000000;stroke-width:0.8;" x="380.59" xlink:href="#mf9bcb358c9" y="43.797647"/>
      </g>
     </g>
     <g id="text_35">
      <!-- 8 -->
      <g transform="translate(367.2275 47.596866)scale(0.1 -0.1)">
       <use xlink:href="#DejaVuSans-56"/>
      </g>
     </g>
    </g>
   </g>
   <g id="line2d_36">
    <path clip-path="url(#p3c0725efbf)" d="M 380.708275 308.147765 
L 380.708275 300.804706 
L 380.727988 300.804706 
L 380.727988 297.133176 
L 380.806838 297.133176 
L 380.806838 282.447059 
L 380.846264 282.447059 
L 380.846264 271.432471 
L 380.984252 271.432471 
L 380.984252 267.760941 
L 562.339962 267.760941 
L 562.339962 264.089412 
L 562.635651 264.089412 
L 562.635651 260.417882 
L 562.694788 260.417882 
L 562.694788 256.746353 
L 562.714501 256.746353 
L 562.714501 253.074824 
L 563.108752 253.074824 
L 563.108752 249.403294 
L 563.16789 249.403294 
L 563.16789 245.731765 
L 567.07098 245.731765 
L 567.07098 242.060235 
L 567.268106 242.060235 
L 567.268106 238.388706 
L 567.366669 238.388706 
L 567.366669 234.717176 
L 567.425807 234.717176 
L 567.425807 231.045647 
L 631.767659 231.045647 
L 631.767659 227.374118 
L 681.95588 227.374118 
" style="fill:none;stroke:#1f77b4;stroke-linecap:square;stroke-width:1.5;"/>
   </g>
   <g id="patch_8">
    <path d="M 380.59 337.52 
L 380.59 25.44 
" style="fill:none;stroke:#000000;stroke-linecap:square;stroke-linejoin:miter;stroke-width:0.8;"/>
   </g>
   <g id="patch_9">
    <path d="M 700.465991 337.52 
L 700.465991 25.44 
" style="fill:none;stroke:#000000;stroke-linecap:square;stroke-linejoin:miter;stroke-width:0.8;"/>
   </g>
   <g id="patch_10">
    <path d="M 380.59 337.52 
L 700.465991 337.52 
" style="fill:none;stroke:#000000;stroke-linecap:square;stroke-linejoin:miter;stroke-width:0.8;"/>
   </g>
   <g id="patch_11">
    <path d="M 380.59 25.44 
L 700.465991 25.44 
" style="fill:none;stroke:#000000;stroke-linecap:square;stroke-linejoin:miter;stroke-width:0.8;"/>
   </g>
   <g id="text_36">
    <!-- aflfast -->
    <defs>
     <path d="M 44.28125 53.078125 
L 44.28125 44.578125 
Q 40.484375 46.53125 36.375 47.5 
Q 32.28125 48.484375 27.875 48.484375 
Q 21.1875 48.484375 17.84375 46.4375 
Q 14.5 44.390625 14.5 40.28125 
Q 14.5 37.15625 16.890625 35.375 
Q 19.28125 33.59375 26.515625 31.984375 
L 29.59375 31.296875 
Q 39.15625 29.25 43.1875 25.515625 
Q 47.21875 21.78125 47.21875 15.09375 
Q 47.21875 7.46875 41.1875 3.015625 
Q 35.15625 -1.421875 24.609375 -1.421875 
Q 20.21875 -1.421875 15.453125 -0.5625 
Q 10.6875 0.296875 5.421875 2 
L 5.421875 11.28125 
Q 10.40625 8.6875 15.234375 7.390625 
Q 20.0625 6.109375 24.8125 6.109375 
Q 31.15625 6.109375 34.5625 8.28125 
Q 37.984375 10.453125 37.984375 14.40625 
Q 37.984375 18.0625 35.515625 20.015625 
Q 33.0625 21.96875 24.703125 23.78125 
L 21.578125 24.515625 
Q 13.234375 26.265625 9.515625 29.90625 
Q 5.8125 33.546875 5.8125 39.890625 
Q 5.8125 47.609375 11.28125 51.796875 
Q 16.75 56 26.8125 56 
Q 31.78125 56 36.171875 55.265625 
Q 40.578125 54.546875 44.28125 53.078125 
z
" id="DejaVuSans-115"/>
    </defs>
    <g transform="translate(521.805183 19.44)scale(0.12 -0.12)">
     <use xlink:href="#DejaVuSans-97"/>
     <use x="61.279297" xlink:href="#DejaVuSans-102"/>
     <use x="96.484375" xlink:href="#DejaVuSans-108"/>
     <use x="124.267578" xlink:href="#DejaVuSans-102"/>
     <use x="159.472656" xlink:href="#DejaVuSans-97"/>
     <use x="220.751953" xlink:href="#DejaVuSans-115"/>
     <use x="272.851562" xlink:href="#DejaVuSans-116"/>
    </g>
   </g>
  </g>
  <g id="axes_3">
   <g id="patch_12">
    <path d="M 736.99 337.52 
L 1056.865991 337.52 
L 1056.865991 25.44 
L 736.99 25.44 
z
" style="fill:#ffffff;"/>
   </g>
   <g id="PolyCollection_3">
    <defs>
     <path d="M 737.029425 -602.037459 
L 737.029425 -170.2656 
L 737.06885 -391.536439 
L 737.088563 -403.24083 
L 737.187126 -402.551027 
L 737.206838 -404.842867 
L 737.246264 -425.497694 
L 737.265976 -455.910588 
L 923.293567 -449.301835 
L 928.418837 -450.169651 
L 928.832801 -452.587298 
L 937.131796 -455.907529 
L 943.459534 -459.87584 
L 946.475558 -464.380524 
L 946.672684 -469.397546 
L 949.767558 -475.002541 
L 975.906436 -481.510011 
L 1001.355373 -492.625882 
L 1001.355373 -492.625882 
L 1001.355373 -492.625882 
L 975.906436 -496.398695 
L 949.767558 -495.563106 
L 946.672684 -493.825042 
L 946.475558 -491.499005 
L 943.459534 -488.660631 
L 937.131796 -485.285883 
L 928.832801 -481.263055 
L 928.418837 -476.337643 
L 923.293567 -469.8624 
L 737.265976 -455.910588 
L 737.246264 -464.294306 
L 737.206838 -455.576898 
L 737.187126 -450.525678 
L 737.088563 -442.492817 
L 737.06885 -439.51109 
L 737.029425 -602.037459 
z
" id="mfbebd0c061" style="stroke:#0000ff;stroke-opacity:0.1;"/>
    </defs>
    <g clip-path="url(#pd440a864fc)">
     <use style="fill:#0000ff;fill-opacity:0.1;stroke:#0000ff;stroke-opacity:0.1;" x="0" xlink:href="#mfbebd0c061" y="720"/>
    </g>
   </g>
   <g id="matplotlib.axis_5">
    <g id="xtick_17">
     <g id="line2d_37">
      <g>
       <use style="stroke:#000000;stroke-width:0.8;" x="776.158891" xlink:href="#mcbca22fb2f" y="337.52"/>
      </g>
     </g>
     <g id="text_37">
      <!-- 10000 -->
      <g transform="translate(760.252641 352.118438)scale(0.1 -0.1)">
       <use xlink:href="#DejaVuSans-49"/>
       <use x="63.623047" xlink:href="#DejaVuSans-48"/>
       <use x="127.246094" xlink:href="#DejaVuSans-48"/>
       <use x="190.869141" xlink:href="#DejaVuSans-48"/>
       <use x="254.492188" xlink:href="#DejaVuSans-48"/>
      </g>
     </g>
    </g>
    <g id="xtick_18">
     <g id="line2d_38">
      <g>
       <use style="stroke:#000000;stroke-width:0.8;" x="815.584045" xlink:href="#mcbca22fb2f" y="337.52"/>
      </g>
     </g>
     <g id="text_38">
      <!-- 20000 -->
      <g transform="translate(799.677795 352.118438)scale(0.1 -0.1)">
       <use xlink:href="#DejaVuSans-50"/>
       <use x="63.623047" xlink:href="#DejaVuSans-48"/>
       <use x="127.246094" xlink:href="#DejaVuSans-48"/>
       <use x="190.869141" xlink:href="#DejaVuSans-48"/>
       <use x="254.492188" xlink:href="#DejaVuSans-48"/>
      </g>
     </g>
    </g>
    <g id="xtick_19">
     <g id="line2d_39">
      <g>
       <use style="stroke:#000000;stroke-width:0.8;" x="855.0092" xlink:href="#mcbca22fb2f" y="337.52"/>
      </g>
     </g>
     <g id="text_39">
      <!-- 30000 -->
      <g transform="translate(839.10295 352.118438)scale(0.1 -0.1)">
       <use xlink:href="#DejaVuSans-51"/>
       <use x="63.623047" xlink:href="#DejaVuSans-48"/>
       <use x="127.246094" xlink:href="#DejaVuSans-48"/>
       <use x="190.869141" xlink:href="#DejaVuSans-48"/>
       <use x="254.492188" xlink:href="#DejaVuSans-48"/>
      </g>
     </g>
    </g>
    <g id="xtick_20">
     <g id="line2d_40">
      <g>
       <use style="stroke:#000000;stroke-width:0.8;" x="894.434354" xlink:href="#mcbca22fb2f" y="337.52"/>
      </g>
     </g>
     <g id="text_40">
      <!-- 40000 -->
      <g transform="translate(878.528104 352.118438)scale(0.1 -0.1)">
       <use xlink:href="#DejaVuSans-52"/>
       <use x="63.623047" xlink:href="#DejaVuSans-48"/>
       <use x="127.246094" xlink:href="#DejaVuSans-48"/>
       <use x="190.869141" xlink:href="#DejaVuSans-48"/>
       <use x="254.492188" xlink:href="#DejaVuSans-48"/>
      </g>
     </g>
    </g>
    <g id="xtick_21">
     <g id="line2d_41">
      <g>
       <use style="stroke:#000000;stroke-width:0.8;" x="933.859509" xlink:href="#mcbca22fb2f" y="337.52"/>
      </g>
     </g>
     <g id="text_41">
      <!-- 50000 -->
      <g transform="translate(917.953259 352.118438)scale(0.1 -0.1)">
       <use xlink:href="#DejaVuSans-53"/>
       <use x="63.623047" xlink:href="#DejaVuSans-48"/>
       <use x="127.246094" xlink:href="#DejaVuSans-48"/>
       <use x="190.869141" xlink:href="#DejaVuSans-48"/>
       <use x="254.492188" xlink:href="#DejaVuSans-48"/>
      </g>
     </g>
    </g>
    <g id="xtick_22">
     <g id="line2d_42">
      <g>
       <use style="stroke:#000000;stroke-width:0.8;" x="973.284663" xlink:href="#mcbca22fb2f" y="337.52"/>
      </g>
     </g>
     <g id="text_42">
      <!-- 60000 -->
      <g transform="translate(957.378413 352.118438)scale(0.1 -0.1)">
       <use xlink:href="#DejaVuSans-54"/>
       <use x="63.623047" xlink:href="#DejaVuSans-48"/>
       <use x="127.246094" xlink:href="#DejaVuSans-48"/>
       <use x="190.869141" xlink:href="#DejaVuSans-48"/>
       <use x="254.492188" xlink:href="#DejaVuSans-48"/>
      </g>
     </g>
    </g>
    <g id="xtick_23">
     <g id="line2d_43">
      <g>
       <use style="stroke:#000000;stroke-width:0.8;" x="1012.709818" xlink:href="#mcbca22fb2f" y="337.52"/>
      </g>
     </g>
     <g id="text_43">
      <!-- 70000 -->
      <g transform="translate(996.803568 352.118438)scale(0.1 -0.1)">
       <use xlink:href="#DejaVuSans-55"/>
       <use x="63.623047" xlink:href="#DejaVuSans-48"/>
       <use x="127.246094" xlink:href="#DejaVuSans-48"/>
       <use x="190.869141" xlink:href="#DejaVuSans-48"/>
       <use x="254.492188" xlink:href="#DejaVuSans-48"/>
      </g>
     </g>
    </g>
    <g id="xtick_24">
     <g id="line2d_44">
      <g>
       <use style="stroke:#000000;stroke-width:0.8;" x="1052.134972" xlink:href="#mcbca22fb2f" y="337.52"/>
      </g>
     </g>
     <g id="text_44">
      <!-- 80000 -->
      <g transform="translate(1036.228722 352.118438)scale(0.1 -0.1)">
       <use xlink:href="#DejaVuSans-56"/>
       <use x="63.623047" xlink:href="#DejaVuSans-48"/>
       <use x="127.246094" xlink:href="#DejaVuSans-48"/>
       <use x="190.869141" xlink:href="#DejaVuSans-48"/>
       <use x="254.492188" xlink:href="#DejaVuSans-48"/>
      </g>
     </g>
    </g>
   </g>
   <g id="matplotlib.axis_6">
    <g id="ytick_19">
     <g id="line2d_45">
      <g>
       <use style="stroke:#000000;stroke-width:0.8;" x="736.99" xlink:href="#mf9bcb358c9" y="337.52"/>
      </g>
     </g>
     <g id="text_45">
      <!-- 0 -->
      <g transform="translate(723.6275 341.319219)scale(0.1 -0.1)">
       <use xlink:href="#DejaVuSans-48"/>
      </g>
     </g>
    </g>
    <g id="ytick_20">
     <g id="line2d_46">
      <g>
       <use style="stroke:#000000;stroke-width:0.8;" x="736.99" xlink:href="#mf9bcb358c9" y="300.804706"/>
      </g>
     </g>
     <g id="text_46">
      <!-- 1 -->
      <g transform="translate(723.6275 304.603925)scale(0.1 -0.1)">
       <use xlink:href="#DejaVuSans-49"/>
      </g>
     </g>
    </g>
    <g id="ytick_21">
     <g id="line2d_47">
      <g>
       <use style="stroke:#000000;stroke-width:0.8;" x="736.99" xlink:href="#mf9bcb358c9" y="264.089412"/>
      </g>
     </g>
     <g id="text_47">
      <!-- 2 -->
      <g transform="translate(723.6275 267.888631)scale(0.1 -0.1)">
       <use xlink:href="#DejaVuSans-50"/>
      </g>
     </g>
    </g>
    <g id="ytick_22">
     <g id="line2d_48">
      <g>
       <use style="stroke:#000000;stroke-width:0.8;" x="736.99" xlink:href="#mf9bcb358c9" y="227.374118"/>
      </g>
     </g>
     <g id="text_48">
      <!-- 3 -->
      <g transform="translate(723.6275 231.173336)scale(0.1 -0.1)">
       <use xlink:href="#DejaVuSans-51"/>
      </g>
     </g>
    </g>
    <g id="ytick_23">
     <g id="line2d_49">
      <g>
       <use style="stroke:#000000;stroke-width:0.8;" x="736.99" xlink:href="#mf9bcb358c9" y="190.658824"/>
      </g>
     </g>
     <g id="text_49">
      <!-- 4 -->
      <g transform="translate(723.6275 194.458042)scale(0.1 -0.1)">
       <use xlink:href="#DejaVuSans-52"/>
      </g>
     </g>
    </g>
    <g id="ytick_24">
     <g id="line2d_50">
      <g>
       <use style="stroke:#000000;stroke-width:0.8;" x="736.99" xlink:href="#mf9bcb358c9" y="153.943529"/>
      </g>
     </g>
     <g id="text_50">
      <!-- 5 -->
      <g transform="translate(723.6275 157.742748)scale(0.1 -0.1)">
       <use xlink:href="#DejaVuSans-53"/>
      </g>
     </g>
    </g>
    <g id="ytick_25">
     <g id="line2d_51">
      <g>
       <use style="stroke:#000000;stroke-width:0.8;" x="736.99" xlink:href="#mf9bcb358c9" y="117.228235"/>
      </g>
     </g>
     <g id="text_51">
      <!-- 6 -->
      <g transform="translate(723.6275 121.027454)scale(0.1 -0.1)">
       <use xlink:href="#DejaVuSans-54"/>
      </g>
     </g>
    </g>
    <g id="ytick_26">
     <g id="line2d_52">
      <g>
       <use style="stroke:#000000;stroke-width:0.8;" x="736.99" xlink:href="#mf9bcb358c9" y="80.512941"/>
      </g>
     </g>
     <g id="text_52">
      <!-- 7 -->
      <g transform="translate(723.6275 84.31216)scale(0.1 -0.1)">
       <use xlink:href="#DejaVuSans-55"/>
      </g>
     </g>
    </g>
    <g id="ytick_27">
     <g id="line2d_53">
      <g>
       <use style="stroke:#000000;stroke-width:0.8;" x="736.99" xlink:href="#mf9bcb358c9" y="43.797647"/>
      </g>
     </g>
     <g id="text_53">
      <!-- 8 -->
      <g transform="translate(723.6275 47.596866)scale(0.1 -0.1)">
       <use xlink:href="#DejaVuSans-56"/>
      </g>
     </g>
    </g>
   </g>
   <g id="line2d_54">
    <path clip-path="url(#pd440a864fc)" d="M 737.029425 333.848471 
L 737.029425 304.476235 
L 737.06885 304.476235 
L 737.06885 297.133176 
L 737.088563 297.133176 
L 737.088563 293.461647 
L 737.187126 293.461647 
L 737.187126 289.790118 
L 737.206838 289.790118 
L 737.206838 275.104 
L 737.246264 275.104 
L 737.246264 264.089412 
L 737.265976 264.089412 
L 737.265976 260.417882 
L 923.293567 260.417882 
L 923.293567 256.746353 
L 928.418837 256.746353 
L 928.418837 253.074824 
L 928.832801 253.074824 
L 928.832801 249.403294 
L 937.131796 249.403294 
L 937.131796 245.731765 
L 943.459534 245.731765 
L 943.459534 242.060235 
L 946.475558 242.060235 
L 946.475558 238.388706 
L 946.672684 238.388706 
L 946.672684 234.717176 
L 949.767558 234.717176 
L 949.767558 231.045647 
L 975.906436 231.045647 
L 975.906436 227.374118 
L 1001.355373 227.374118 
" style="fill:none;stroke:#1f77b4;stroke-linecap:square;stroke-width:1.5;"/>
   </g>
   <g id="patch_13">
    <path d="M 736.99 337.52 
L 736.99 25.44 
" style="fill:none;stroke:#000000;stroke-linecap:square;stroke-linejoin:miter;stroke-width:0.8;"/>
   </g>
   <g id="patch_14">
    <path d="M 1056.865991 337.52 
L 1056.865991 25.44 
" style="fill:none;stroke:#000000;stroke-linecap:square;stroke-linejoin:miter;stroke-width:0.8;"/>
   </g>
   <g id="patch_15">
    <path d="M 736.99 337.52 
L 1056.865991 337.52 
" style="fill:none;stroke:#000000;stroke-linecap:square;stroke-linejoin:miter;stroke-width:0.8;"/>
   </g>
   <g id="patch_16">
    <path d="M 736.99 25.44 
L 1056.865991 25.44 
" style="fill:none;stroke:#000000;stroke-linecap:square;stroke-linejoin:miter;stroke-width:0.8;"/>
   </g>
   <g id="text_54">
    <!-- aflplusplus -->
    <defs>
     <path d="M 8.5 21.578125 
L 8.5 54.6875 
L 17.484375 54.6875 
L 17.484375 21.921875 
Q 17.484375 14.15625 20.5 10.265625 
Q 23.53125 6.390625 29.59375 6.390625 
Q 36.859375 6.390625 41.078125 11.03125 
Q 45.3125 15.671875 45.3125 23.6875 
L 45.3125 54.6875 
L 54.296875 54.6875 
L 54.296875 0 
L 45.3125 0 
L 45.3125 8.40625 
Q 42.046875 3.421875 37.71875 1 
Q 33.40625 -1.421875 27.6875 -1.421875 
Q 18.265625 -1.421875 13.375 4.4375 
Q 8.5 10.296875 8.5 21.578125 
z
M 31.109375 56 
z
" id="DejaVuSans-117"/>
    </defs>
    <g transform="translate(864.663933 19.44)scale(0.12 -0.12)">
     <use xlink:href="#DejaVuSans-97"/>
     <use x="61.279297" xlink:href="#DejaVuSans-102"/>
     <use x="96.484375" xlink:href="#DejaVuSans-108"/>
     <use x="124.267578" xlink:href="#DejaVuSans-112"/>
     <use x="187.744141" xlink:href="#DejaVuSans-108"/>
     <use x="215.527344" xlink:href="#DejaVuSans-117"/>
     <use x="278.90625" xlink:href="#DejaVuSans-115"/>
     <use x="331.005859" xlink:href="#DejaVuSans-112"/>
     <use x="394.482422" xlink:href="#DejaVuSans-108"/>
     <use x="422.265625" xlink:href="#DejaVuSans-117"/>
     <use x="485.644531" xlink:href="#DejaVuSans-115"/>
    </g>
   </g>
  </g>
  <g id="axes_4">
   <g id="patch_17">
    <path d="M 24.19 692.12 
L 344.065991 692.12 
L 344.065991 380.04 
L 24.19 380.04 
z
" style="fill:#ffffff;"/>
   </g>
   <g id="PolyCollection_4">
    <defs>
     <path d="M 24.19 -247.437459 
L 24.19 184.3344 
L 24.209713 45.568944 
L 24.229425 25.724329 
L 24.249138 8.847531 
L 24.26885 -6.470534 
L 24.308275 -21.271247 
L 24.347701 -32.41292 
L 24.485689 -48.64083 
L 24.840515 -47.951027 
L 24.899653 -50.242867 
L 25.017928 -58.965616 
L 25.037641 -64.590705 
L 26.299246 -70.897694 
L 26.318958 -77.975979 
L 26.594934 -86.276641 
L 27.541138 -85.219401 
L 28.388779 -94.701835 
L 28.645042 -95.569651 
L 30.340324 -97.987298 
L 34.066001 -101.307529 
L 42.305858 -105.27584 
L 46.879176 -109.780524 
L 51.64962 -114.797546 
L 57.208567 -120.402541 
L 60.402004 -126.910011 
L 110.2354 -127.298424 
L 183.487336 -129.196537 
L 217.570383 -131.876071 
L 295.908164 -135.077396 
L 304.660549 -135.77977 
L 344.046278 -137.427625 
L 344.046278 -175.339433 
L 344.046278 -175.339433 
L 304.660549 -169.64423 
L 295.908164 -163.003546 
L 217.570383 -158.861812 
L 183.487336 -154.198286 
L 110.2354 -148.75334 
L 60.402004 -141.798695 
L 57.208567 -140.963106 
L 51.64962 -139.225042 
L 46.879176 -136.899005 
L 42.305858 -134.060631 
L 34.066001 -130.685883 
L 30.340324 -126.663055 
L 28.645042 -121.737643 
L 28.388779 -115.2624 
L 27.541138 -117.401775 
L 26.594934 -109.001476 
L 26.318958 -109.95908 
L 26.299246 -109.694306 
L 25.037641 -108.658236 
L 25.017928 -106.940267 
L 24.899653 -100.976898 
L 24.840515 -95.925678 
L 24.485689 -87.892817 
L 24.347701 -96.777668 
L 24.308275 -93.233224 
L 24.26885 -100.690878 
L 24.249138 -108.665884 
L 24.229425 -118.199624 
L 24.209713 -130.701179 
L 24.19 -247.437459 
z
" id="mf25773f37d" style="stroke:#0000ff;stroke-opacity:0.1;"/>
    </defs>
    <g clip-path="url(#pdc08fb000f)">
     <use style="fill:#0000ff;fill-opacity:0.1;stroke:#0000ff;stroke-opacity:0.1;" x="0" xlink:href="#mf25773f37d" y="720"/>
    </g>
   </g>
   <g id="matplotlib.axis_7">
    <g id="xtick_25">
     <g id="line2d_55">
      <g>
       <use style="stroke:#000000;stroke-width:0.8;" x="63.358891" xlink:href="#mcbca22fb2f" y="692.12"/>
      </g>
     </g>
     <g id="text_55">
      <!-- 10000 -->
      <g transform="translate(47.452641 706.718438)scale(0.1 -0.1)">
       <use xlink:href="#DejaVuSans-49"/>
       <use x="63.623047" xlink:href="#DejaVuSans-48"/>
       <use x="127.246094" xlink:href="#DejaVuSans-48"/>
       <use x="190.869141" xlink:href="#DejaVuSans-48"/>
       <use x="254.492188" xlink:href="#DejaVuSans-48"/>
      </g>
     </g>
    </g>
    <g id="xtick_26">
     <g id="line2d_56">
      <g>
       <use style="stroke:#000000;stroke-width:0.8;" x="102.784045" xlink:href="#mcbca22fb2f" y="692.12"/>
      </g>
     </g>
     <g id="text_56">
      <!-- 20000 -->
      <g transform="translate(86.877795 706.718438)scale(0.1 -0.1)">
       <use xlink:href="#DejaVuSans-50"/>
       <use x="63.623047" xlink:href="#DejaVuSans-48"/>
       <use x="127.246094" xlink:href="#DejaVuSans-48"/>
       <use x="190.869141" xlink:href="#DejaVuSans-48"/>
       <use x="254.492188" xlink:href="#DejaVuSans-48"/>
      </g>
     </g>
    </g>
    <g id="xtick_27">
     <g id="line2d_57">
      <g>
       <use style="stroke:#000000;stroke-width:0.8;" x="142.2092" xlink:href="#mcbca22fb2f" y="692.12"/>
      </g>
     </g>
     <g id="text_57">
      <!-- 30000 -->
      <g transform="translate(126.30295 706.718438)scale(0.1 -0.1)">
       <use xlink:href="#DejaVuSans-51"/>
       <use x="63.623047" xlink:href="#DejaVuSans-48"/>
       <use x="127.246094" xlink:href="#DejaVuSans-48"/>
       <use x="190.869141" xlink:href="#DejaVuSans-48"/>
       <use x="254.492188" xlink:href="#DejaVuSans-48"/>
      </g>
     </g>
    </g>
    <g id="xtick_28">
     <g id="line2d_58">
      <g>
       <use style="stroke:#000000;stroke-width:0.8;" x="181.634354" xlink:href="#mcbca22fb2f" y="692.12"/>
      </g>
     </g>
     <g id="text_58">
      <!-- 40000 -->
      <g transform="translate(165.728104 706.718438)scale(0.1 -0.1)">
       <use xlink:href="#DejaVuSans-52"/>
       <use x="63.623047" xlink:href="#DejaVuSans-48"/>
       <use x="127.246094" xlink:href="#DejaVuSans-48"/>
       <use x="190.869141" xlink:href="#DejaVuSans-48"/>
       <use x="254.492188" xlink:href="#DejaVuSans-48"/>
      </g>
     </g>
    </g>
    <g id="xtick_29">
     <g id="line2d_59">
      <g>
       <use style="stroke:#000000;stroke-width:0.8;" x="221.059509" xlink:href="#mcbca22fb2f" y="692.12"/>
      </g>
     </g>
     <g id="text_59">
      <!-- 50000 -->
      <g transform="translate(205.153259 706.718438)scale(0.1 -0.1)">
       <use xlink:href="#DejaVuSans-53"/>
       <use x="63.623047" xlink:href="#DejaVuSans-48"/>
       <use x="127.246094" xlink:href="#DejaVuSans-48"/>
       <use x="190.869141" xlink:href="#DejaVuSans-48"/>
       <use x="254.492188" xlink:href="#DejaVuSans-48"/>
      </g>
     </g>
    </g>
    <g id="xtick_30">
     <g id="line2d_60">
      <g>
       <use style="stroke:#000000;stroke-width:0.8;" x="260.484663" xlink:href="#mcbca22fb2f" y="692.12"/>
      </g>
     </g>
     <g id="text_60">
      <!-- 60000 -->
      <g transform="translate(244.578413 706.718438)scale(0.1 -0.1)">
       <use xlink:href="#DejaVuSans-54"/>
       <use x="63.623047" xlink:href="#DejaVuSans-48"/>
       <use x="127.246094" xlink:href="#DejaVuSans-48"/>
       <use x="190.869141" xlink:href="#DejaVuSans-48"/>
       <use x="254.492188" xlink:href="#DejaVuSans-48"/>
      </g>
     </g>
    </g>
    <g id="xtick_31">
     <g id="line2d_61">
      <g>
       <use style="stroke:#000000;stroke-width:0.8;" x="299.909818" xlink:href="#mcbca22fb2f" y="692.12"/>
      </g>
     </g>
     <g id="text_61">
      <!-- 70000 -->
      <g transform="translate(284.003568 706.718438)scale(0.1 -0.1)">
       <use xlink:href="#DejaVuSans-55"/>
       <use x="63.623047" xlink:href="#DejaVuSans-48"/>
       <use x="127.246094" xlink:href="#DejaVuSans-48"/>
       <use x="190.869141" xlink:href="#DejaVuSans-48"/>
       <use x="254.492188" xlink:href="#DejaVuSans-48"/>
      </g>
     </g>
    </g>
    <g id="xtick_32">
     <g id="line2d_62">
      <g>
       <use style="stroke:#000000;stroke-width:0.8;" x="339.334972" xlink:href="#mcbca22fb2f" y="692.12"/>
      </g>
     </g>
     <g id="text_62">
      <!-- 80000 -->
      <g transform="translate(323.428722 706.718438)scale(0.1 -0.1)">
       <use xlink:href="#DejaVuSans-56"/>
       <use x="63.623047" xlink:href="#DejaVuSans-48"/>
       <use x="127.246094" xlink:href="#DejaVuSans-48"/>
       <use x="190.869141" xlink:href="#DejaVuSans-48"/>
       <use x="254.492188" xlink:href="#DejaVuSans-48"/>
      </g>
     </g>
    </g>
   </g>
   <g id="matplotlib.axis_8">
    <g id="ytick_28">
     <g id="line2d_63">
      <g>
       <use style="stroke:#000000;stroke-width:0.8;" x="24.19" xlink:href="#mf9bcb358c9" y="692.12"/>
      </g>
     </g>
     <g id="text_63">
      <!-- 0 -->
      <g transform="translate(10.8275 695.919219)scale(0.1 -0.1)">
       <use xlink:href="#DejaVuSans-48"/>
      </g>
     </g>
    </g>
    <g id="ytick_29">
     <g id="line2d_64">
      <g>
       <use style="stroke:#000000;stroke-width:0.8;" x="24.19" xlink:href="#mf9bcb358c9" y="655.404706"/>
      </g>
     </g>
     <g id="text_64">
      <!-- 1 -->
      <g transform="translate(10.8275 659.203925)scale(0.1 -0.1)">
       <use xlink:href="#DejaVuSans-49"/>
      </g>
     </g>
    </g>
    <g id="ytick_30">
     <g id="line2d_65">
      <g>
       <use style="stroke:#000000;stroke-width:0.8;" x="24.19" xlink:href="#mf9bcb358c9" y="618.689412"/>
      </g>
     </g>
     <g id="text_65">
      <!-- 2 -->
      <g transform="translate(10.8275 622.488631)scale(0.1 -0.1)">
       <use xlink:href="#DejaVuSans-50"/>
      </g>
     </g>
    </g>
    <g id="ytick_31">
     <g id="line2d_66">
      <g>
       <use style="stroke:#000000;stroke-width:0.8;" x="24.19" xlink:href="#mf9bcb358c9" y="581.974118"/>
      </g>
     </g>
     <g id="text_66">
      <!-- 3 -->
      <g transform="translate(10.8275 585.773336)scale(0.1 -0.1)">
       <use xlink:href="#DejaVuSans-51"/>
      </g>
     </g>
    </g>
    <g id="ytick_32">
     <g id="line2d_67">
      <g>
       <use style="stroke:#000000;stroke-width:0.8;" x="24.19" xlink:href="#mf9bcb358c9" y="545.258824"/>
      </g>
     </g>
     <g id="text_67">
      <!-- 4 -->
      <g transform="translate(10.8275 549.058042)scale(0.1 -0.1)">
       <use xlink:href="#DejaVuSans-52"/>
      </g>
     </g>
    </g>
    <g id="ytick_33">
     <g id="line2d_68">
      <g>
       <use style="stroke:#000000;stroke-width:0.8;" x="24.19" xlink:href="#mf9bcb358c9" y="508.543529"/>
      </g>
     </g>
     <g id="text_68">
      <!-- 5 -->
      <g transform="translate(10.8275 512.342748)scale(0.1 -0.1)">
       <use xlink:href="#DejaVuSans-53"/>
      </g>
     </g>
    </g>
    <g id="ytick_34">
     <g id="line2d_69">
      <g>
       <use style="stroke:#000000;stroke-width:0.8;" x="24.19" xlink:href="#mf9bcb358c9" y="471.828235"/>
      </g>
     </g>
     <g id="text_69">
      <!-- 6 -->
      <g transform="translate(10.8275 475.627454)scale(0.1 -0.1)">
       <use xlink:href="#DejaVuSans-54"/>
      </g>
     </g>
    </g>
    <g id="ytick_35">
     <g id="line2d_70">
      <g>
       <use style="stroke:#000000;stroke-width:0.8;" x="24.19" xlink:href="#mf9bcb358c9" y="435.112941"/>
      </g>
     </g>
     <g id="text_70">
      <!-- 7 -->
      <g transform="translate(10.8275 438.91216)scale(0.1 -0.1)">
       <use xlink:href="#DejaVuSans-55"/>
      </g>
     </g>
    </g>
    <g id="ytick_36">
     <g id="line2d_71">
      <g>
       <use style="stroke:#000000;stroke-width:0.8;" x="24.19" xlink:href="#mf9bcb358c9" y="398.397647"/>
      </g>
     </g>
     <g id="text_71">
      <!-- 8 -->
      <g transform="translate(10.8275 402.196866)scale(0.1 -0.1)">
       <use xlink:href="#DejaVuSans-56"/>
      </g>
     </g>
    </g>
   </g>
   <g id="line2d_72">
    <path clip-path="url(#pdc08fb000f)" d="M 24.19 688.448471 
L 24.19 677.433882 
L 24.209713 677.433882 
L 24.209713 673.762353 
L 24.229425 673.762353 
L 24.229425 670.090824 
L 24.249138 670.090824 
L 24.249138 666.419294 
L 24.26885 666.419294 
L 24.26885 662.747765 
L 24.308275 662.747765 
L 24.308275 655.404706 
L 24.347701 655.404706 
L 24.347701 651.733176 
L 24.485689 651.733176 
L 24.485689 648.061647 
L 24.840515 648.061647 
L 24.840515 644.390118 
L 24.899653 644.390118 
L 24.899653 637.047059 
L 25.017928 637.047059 
L 25.017928 633.375529 
L 25.037641 633.375529 
L 25.037641 629.704 
L 26.299246 629.704 
L 26.299246 626.032471 
L 26.318958 626.032471 
L 26.318958 622.360941 
L 26.594934 622.360941 
L 26.594934 618.689412 
L 27.541138 618.689412 
L 27.541138 615.017882 
L 28.388779 615.017882 
L 28.388779 611.346353 
L 28.645042 611.346353 
L 28.645042 607.674824 
L 30.340324 607.674824 
L 30.340324 604.003294 
L 34.066001 604.003294 
L 34.066001 600.331765 
L 42.305858 600.331765 
L 42.305858 596.660235 
L 46.879176 596.660235 
L 46.879176 592.988706 
L 51.64962 592.988706 
L 51.64962 589.317176 
L 57.208567 589.317176 
L 57.208567 585.645647 
L 60.402004 585.645647 
L 60.402004 581.974118 
L 110.2354 581.974118 
L 110.2354 578.302588 
L 183.487336 578.302588 
L 183.487336 574.631059 
L 217.570383 574.631059 
L 217.570383 570.959529 
L 295.908164 570.959529 
L 295.908164 567.288 
L 304.660549 567.288 
L 304.660549 563.616471 
L 344.046278 563.616471 
" style="fill:none;stroke:#1f77b4;stroke-linecap:square;stroke-width:1.5;"/>
   </g>
   <g id="patch_18">
    <path d="M 24.19 692.12 
L 24.19 380.04 
" style="fill:none;stroke:#000000;stroke-linecap:square;stroke-linejoin:miter;stroke-width:0.8;"/>
   </g>
   <g id="patch_19">
    <path d="M 344.065991 692.12 
L 344.065991 380.04 
" style="fill:none;stroke:#000000;stroke-linecap:square;stroke-linejoin:miter;stroke-width:0.8;"/>
   </g>
   <g id="patch_20">
    <path d="M 24.19 692.12 
L 344.065991 692.12 
" style="fill:none;stroke:#000000;stroke-linecap:square;stroke-linejoin:miter;stroke-width:0.8;"/>
   </g>
   <g id="patch_21">
    <path d="M 24.19 380.04 
L 344.065991 380.04 
" style="fill:none;stroke:#000000;stroke-linecap:square;stroke-linejoin:miter;stroke-width:0.8;"/>
   </g>
   <g id="text_72">
    <!-- honggfuzz -->
    <defs>
     <path d="M 54.890625 33.015625 
L 54.890625 0 
L 45.90625 0 
L 45.90625 32.71875 
Q 45.90625 40.484375 42.875 44.328125 
Q 39.84375 48.1875 33.796875 48.1875 
Q 26.515625 48.1875 22.3125 43.546875 
Q 18.109375 38.921875 18.109375 30.90625 
L 18.109375 0 
L 9.078125 0 
L 9.078125 75.984375 
L 18.109375 75.984375 
L 18.109375 46.1875 
Q 21.34375 51.125 25.703125 53.5625 
Q 30.078125 56 35.796875 56 
Q 45.21875 56 50.046875 50.171875 
Q 54.890625 44.34375 54.890625 33.015625 
z
" id="DejaVuSans-104"/>
     <path d="M 54.890625 33.015625 
L 54.890625 0 
L 45.90625 0 
L 45.90625 32.71875 
Q 45.90625 40.484375 42.875 44.328125 
Q 39.84375 48.1875 33.796875 48.1875 
Q 26.515625 48.1875 22.3125 43.546875 
Q 18.109375 38.921875 18.109375 30.90625 
L 18.109375 0 
L 9.078125 0 
L 9.078125 54.6875 
L 18.109375 54.6875 
L 18.109375 46.1875 
Q 21.34375 51.125 25.703125 53.5625 
Q 30.078125 56 35.796875 56 
Q 45.21875 56 50.046875 50.171875 
Q 54.890625 44.34375 54.890625 33.015625 
z
" id="DejaVuSans-110"/>
     <path d="M 45.40625 27.984375 
Q 45.40625 37.75 41.375 43.109375 
Q 37.359375 48.484375 30.078125 48.484375 
Q 22.859375 48.484375 18.828125 43.109375 
Q 14.796875 37.75 14.796875 27.984375 
Q 14.796875 18.265625 18.828125 12.890625 
Q 22.859375 7.515625 30.078125 7.515625 
Q 37.359375 7.515625 41.375 12.890625 
Q 45.40625 18.265625 45.40625 27.984375 
z
M 54.390625 6.78125 
Q 54.390625 -7.171875 48.1875 -13.984375 
Q 42 -20.796875 29.203125 -20.796875 
Q 24.46875 -20.796875 20.265625 -20.09375 
Q 16.0625 -19.390625 12.109375 -17.921875 
L 12.109375 -9.1875 
Q 16.0625 -11.328125 19.921875 -12.34375 
Q 23.78125 -13.375 27.78125 -13.375 
Q 36.625 -13.375 41.015625 -8.765625 
Q 45.40625 -4.15625 45.40625 5.171875 
L 45.40625 9.625 
Q 42.625 4.78125 38.28125 2.390625 
Q 33.9375 0 27.875 0 
Q 17.828125 0 11.671875 7.65625 
Q 5.515625 15.328125 5.515625 27.984375 
Q 5.515625 40.671875 11.671875 48.328125 
Q 17.828125 56 27.875 56 
Q 33.9375 56 38.28125 53.609375 
Q 42.625 51.21875 45.40625 46.390625 
L 45.40625 54.6875 
L 54.390625 54.6875 
z
" id="DejaVuSans-103"/>
     <path d="M 5.515625 54.6875 
L 48.1875 54.6875 
L 48.1875 46.484375 
L 14.40625 7.171875 
L 48.1875 7.171875 
L 48.1875 0 
L 4.296875 0 
L 4.296875 8.203125 
L 38.09375 47.515625 
L 5.515625 47.515625 
z
" id="DejaVuSans-122"/>
    </defs>
    <g transform="translate(153.020808 374.04)scale(0.12 -0.12)">
     <use xlink:href="#DejaVuSans-104"/>
     <use x="63.378906" xlink:href="#DejaVuSans-111"/>
     <use x="124.560547" xlink:href="#DejaVuSans-110"/>
     <use x="187.939453" xlink:href="#DejaVuSans-103"/>
     <use x="251.416016" xlink:href="#DejaVuSans-103"/>
     <use x="314.892578" xlink:href="#DejaVuSans-102"/>
     <use x="350.097656" xlink:href="#DejaVuSans-117"/>
     <use x="413.476562" xlink:href="#DejaVuSans-122"/>
     <use x="465.966797" xlink:href="#DejaVuSans-122"/>
    </g>
   </g>
  </g>
  <g id="axes_5">
   <g id="patch_22">
    <path d="M 380.59 692.12 
L 700.465991 692.12 
L 700.465991 380.04 
L 380.59 380.04 
z
" style="fill:#ffffff;"/>
   </g>
   <g id="PolyCollection_5">
    <defs>
     <path d="M 380.649138 -247.437459 
L 380.649138 184.3344 
L 380.66885 -36.936439 
L 380.688563 -64.595294 
L 380.806838 -47.951027 
L 380.826551 -50.242867 
L 380.905401 -54.099966 
L 380.925114 -64.590705 
L 380.964539 -70.897694 
L 565.710813 -69.980204 
L 568.470573 -77.242896 
L 569.712466 -78.554213 
L 573.87182 -80.994792 
L 574.660323 -89.027653 
L 584.299773 -92.291199 
L 585.935917 -96.107466 
L 586.19218 -100.358811 
L 586.369594 -104.980467 
L 598.236565 -114.797546 
L 601.430003 -120.402541 
L 656.546368 -126.910011 
L 656.546368 -141.798695 
L 656.546368 -141.798695 
L 601.430003 -140.963106 
L 598.236565 -139.225042 
L 586.369594 -141.699063 
L 586.19218 -138.97766 
L 585.935917 -135.885945 
L 584.299773 -132.359154 
L 574.660323 -128.279641 
L 573.87182 -128.969443 
L 569.712466 -124.066963 
L 568.470573 -118.035222 
L 565.710813 -117.954855 
L 380.964539 -109.694306 
L 380.925114 -108.658236 
L 380.905401 -104.462858 
L 380.826551 -100.976898 
L 380.806838 -95.925678 
L 380.688563 -64.595294 
L 380.66885 -84.91109 
L 380.649138 -247.437459 
z
" id="m582d16a0ef" style="stroke:#0000ff;stroke-opacity:0.1;"/>
    </defs>
    <g clip-path="url(#p3b68edd0ec)">
     <use style="fill:#0000ff;fill-opacity:0.1;stroke:#0000ff;stroke-opacity:0.1;" x="0" xlink:href="#m582d16a0ef" y="720"/>
    </g>
   </g>
   <g id="matplotlib.axis_9">
    <g id="xtick_33">
     <g id="line2d_73">
      <g>
       <use style="stroke:#000000;stroke-width:0.8;" x="419.758891" xlink:href="#mcbca22fb2f" y="692.12"/>
      </g>
     </g>
     <g id="text_73">
      <!-- 10000 -->
      <g transform="translate(403.852641 706.718438)scale(0.1 -0.1)">
       <use xlink:href="#DejaVuSans-49"/>
       <use x="63.623047" xlink:href="#DejaVuSans-48"/>
       <use x="127.246094" xlink:href="#DejaVuSans-48"/>
       <use x="190.869141" xlink:href="#DejaVuSans-48"/>
       <use x="254.492188" xlink:href="#DejaVuSans-48"/>
      </g>
     </g>
    </g>
    <g id="xtick_34">
     <g id="line2d_74">
      <g>
       <use style="stroke:#000000;stroke-width:0.8;" x="459.184045" xlink:href="#mcbca22fb2f" y="692.12"/>
      </g>
     </g>
     <g id="text_74">
      <!-- 20000 -->
      <g transform="translate(443.277795 706.718438)scale(0.1 -0.1)">
       <use xlink:href="#DejaVuSans-50"/>
       <use x="63.623047" xlink:href="#DejaVuSans-48"/>
       <use x="127.246094" xlink:href="#DejaVuSans-48"/>
       <use x="190.869141" xlink:href="#DejaVuSans-48"/>
       <use x="254.492188" xlink:href="#DejaVuSans-48"/>
      </g>
     </g>
    </g>
    <g id="xtick_35">
     <g id="line2d_75">
      <g>
       <use style="stroke:#000000;stroke-width:0.8;" x="498.6092" xlink:href="#mcbca22fb2f" y="692.12"/>
      </g>
     </g>
     <g id="text_75">
      <!-- 30000 -->
      <g transform="translate(482.70295 706.718438)scale(0.1 -0.1)">
       <use xlink:href="#DejaVuSans-51"/>
       <use x="63.623047" xlink:href="#DejaVuSans-48"/>
       <use x="127.246094" xlink:href="#DejaVuSans-48"/>
       <use x="190.869141" xlink:href="#DejaVuSans-48"/>
       <use x="254.492188" xlink:href="#DejaVuSans-48"/>
      </g>
     </g>
    </g>
    <g id="xtick_36">
     <g id="line2d_76">
      <g>
       <use style="stroke:#000000;stroke-width:0.8;" x="538.034354" xlink:href="#mcbca22fb2f" y="692.12"/>
      </g>
     </g>
     <g id="text_76">
      <!-- 40000 -->
      <g transform="translate(522.128104 706.718438)scale(0.1 -0.1)">
       <use xlink:href="#DejaVuSans-52"/>
       <use x="63.623047" xlink:href="#DejaVuSans-48"/>
       <use x="127.246094" xlink:href="#DejaVuSans-48"/>
       <use x="190.869141" xlink:href="#DejaVuSans-48"/>
       <use x="254.492188" xlink:href="#DejaVuSans-48"/>
      </g>
     </g>
    </g>
    <g id="xtick_37">
     <g id="line2d_77">
      <g>
       <use style="stroke:#000000;stroke-width:0.8;" x="577.459509" xlink:href="#mcbca22fb2f" y="692.12"/>
      </g>
     </g>
     <g id="text_77">
      <!-- 50000 -->
      <g transform="translate(561.553259 706.718438)scale(0.1 -0.1)">
       <use xlink:href="#DejaVuSans-53"/>
       <use x="63.623047" xlink:href="#DejaVuSans-48"/>
       <use x="127.246094" xlink:href="#DejaVuSans-48"/>
       <use x="190.869141" xlink:href="#DejaVuSans-48"/>
       <use x="254.492188" xlink:href="#DejaVuSans-48"/>
      </g>
     </g>
    </g>
    <g id="xtick_38">
     <g id="line2d_78">
      <g>
       <use style="stroke:#000000;stroke-width:0.8;" x="616.884663" xlink:href="#mcbca22fb2f" y="692.12"/>
      </g>
     </g>
     <g id="text_78">
      <!-- 60000 -->
      <g transform="translate(600.978413 706.718438)scale(0.1 -0.1)">
       <use xlink:href="#DejaVuSans-54"/>
       <use x="63.623047" xlink:href="#DejaVuSans-48"/>
       <use x="127.246094" xlink:href="#DejaVuSans-48"/>
       <use x="190.869141" xlink:href="#DejaVuSans-48"/>
       <use x="254.492188" xlink:href="#DejaVuSans-48"/>
      </g>
     </g>
    </g>
    <g id="xtick_39">
     <g id="line2d_79">
      <g>
       <use style="stroke:#000000;stroke-width:0.8;" x="656.309818" xlink:href="#mcbca22fb2f" y="692.12"/>
      </g>
     </g>
     <g id="text_79">
      <!-- 70000 -->
      <g transform="translate(640.403568 706.718438)scale(0.1 -0.1)">
       <use xlink:href="#DejaVuSans-55"/>
       <use x="63.623047" xlink:href="#DejaVuSans-48"/>
       <use x="127.246094" xlink:href="#DejaVuSans-48"/>
       <use x="190.869141" xlink:href="#DejaVuSans-48"/>
       <use x="254.492188" xlink:href="#DejaVuSans-48"/>
      </g>
     </g>
    </g>
    <g id="xtick_40">
     <g id="line2d_80">
      <g>
       <use style="stroke:#000000;stroke-width:0.8;" x="695.734972" xlink:href="#mcbca22fb2f" y="692.12"/>
      </g>
     </g>
     <g id="text_80">
      <!-- 80000 -->
      <g transform="translate(679.828722 706.718438)scale(0.1 -0.1)">
       <use xlink:href="#DejaVuSans-56"/>
       <use x="63.623047" xlink:href="#DejaVuSans-48"/>
       <use x="127.246094" xlink:href="#DejaVuSans-48"/>
       <use x="190.869141" xlink:href="#DejaVuSans-48"/>
       <use x="254.492188" xlink:href="#DejaVuSans-48"/>
      </g>
     </g>
    </g>
   </g>
   <g id="matplotlib.axis_10">
    <g id="ytick_37">
     <g id="line2d_81">
      <g>
       <use style="stroke:#000000;stroke-width:0.8;" x="380.59" xlink:href="#mf9bcb358c9" y="692.12"/>
      </g>
     </g>
     <g id="text_81">
      <!-- 0 -->
      <g transform="translate(367.2275 695.919219)scale(0.1 -0.1)">
       <use xlink:href="#DejaVuSans-48"/>
      </g>
     </g>
    </g>
    <g id="ytick_38">
     <g id="line2d_82">
      <g>
       <use style="stroke:#000000;stroke-width:0.8;" x="380.59" xlink:href="#mf9bcb358c9" y="655.404706"/>
      </g>
     </g>
     <g id="text_82">
      <!-- 1 -->
      <g transform="translate(367.2275 659.203925)scale(0.1 -0.1)">
       <use xlink:href="#DejaVuSans-49"/>
      </g>
     </g>
    </g>
    <g id="ytick_39">
     <g id="line2d_83">
      <g>
       <use style="stroke:#000000;stroke-width:0.8;" x="380.59" xlink:href="#mf9bcb358c9" y="618.689412"/>
      </g>
     </g>
     <g id="text_83">
      <!-- 2 -->
      <g transform="translate(367.2275 622.488631)scale(0.1 -0.1)">
       <use xlink:href="#DejaVuSans-50"/>
      </g>
     </g>
    </g>
    <g id="ytick_40">
     <g id="line2d_84">
      <g>
       <use style="stroke:#000000;stroke-width:0.8;" x="380.59" xlink:href="#mf9bcb358c9" y="581.974118"/>
      </g>
     </g>
     <g id="text_84">
      <!-- 3 -->
      <g transform="translate(367.2275 585.773336)scale(0.1 -0.1)">
       <use xlink:href="#DejaVuSans-51"/>
      </g>
     </g>
    </g>
    <g id="ytick_41">
     <g id="line2d_85">
      <g>
       <use style="stroke:#000000;stroke-width:0.8;" x="380.59" xlink:href="#mf9bcb358c9" y="545.258824"/>
      </g>
     </g>
     <g id="text_85">
      <!-- 4 -->
      <g transform="translate(367.2275 549.058042)scale(0.1 -0.1)">
       <use xlink:href="#DejaVuSans-52"/>
      </g>
     </g>
    </g>
    <g id="ytick_42">
     <g id="line2d_86">
      <g>
       <use style="stroke:#000000;stroke-width:0.8;" x="380.59" xlink:href="#mf9bcb358c9" y="508.543529"/>
      </g>
     </g>
     <g id="text_86">
      <!-- 5 -->
      <g transform="translate(367.2275 512.342748)scale(0.1 -0.1)">
       <use xlink:href="#DejaVuSans-53"/>
      </g>
     </g>
    </g>
    <g id="ytick_43">
     <g id="line2d_87">
      <g>
       <use style="stroke:#000000;stroke-width:0.8;" x="380.59" xlink:href="#mf9bcb358c9" y="471.828235"/>
      </g>
     </g>
     <g id="text_87">
      <!-- 6 -->
      <g transform="translate(367.2275 475.627454)scale(0.1 -0.1)">
       <use xlink:href="#DejaVuSans-54"/>
      </g>
     </g>
    </g>
    <g id="ytick_44">
     <g id="line2d_88">
      <g>
       <use style="stroke:#000000;stroke-width:0.8;" x="380.59" xlink:href="#mf9bcb358c9" y="435.112941"/>
      </g>
     </g>
     <g id="text_88">
      <!-- 7 -->
      <g transform="translate(367.2275 438.91216)scale(0.1 -0.1)">
       <use xlink:href="#DejaVuSans-55"/>
      </g>
     </g>
    </g>
    <g id="ytick_45">
     <g id="line2d_89">
      <g>
       <use style="stroke:#000000;stroke-width:0.8;" x="380.59" xlink:href="#mf9bcb358c9" y="398.397647"/>
      </g>
     </g>
     <g id="text_89">
      <!-- 8 -->
      <g transform="translate(367.2275 402.196866)scale(0.1 -0.1)">
       <use xlink:href="#DejaVuSans-56"/>
      </g>
     </g>
    </g>
   </g>
   <g id="line2d_90">
    <path clip-path="url(#p3b68edd0ec)" d="M 380.649138 688.448471 
L 380.649138 659.076235 
L 380.66885 659.076235 
L 380.66885 655.404706 
L 380.688563 655.404706 
L 380.688563 648.061647 
L 380.806838 648.061647 
L 380.806838 644.390118 
L 380.826551 644.390118 
L 380.826551 640.718588 
L 380.905401 640.718588 
L 380.905401 633.375529 
L 380.925114 633.375529 
L 380.925114 629.704 
L 380.964539 629.704 
L 380.964539 626.032471 
L 565.710813 626.032471 
L 565.710813 622.360941 
L 568.470573 622.360941 
L 568.470573 618.689412 
L 569.712466 618.689412 
L 569.712466 615.017882 
L 573.87182 615.017882 
L 573.87182 611.346353 
L 574.660323 611.346353 
L 574.660323 607.674824 
L 584.299773 607.674824 
L 584.299773 604.003294 
L 585.935917 604.003294 
L 585.935917 600.331765 
L 586.19218 600.331765 
L 586.19218 596.660235 
L 586.369594 596.660235 
L 586.369594 592.988706 
L 598.236565 592.988706 
L 598.236565 589.317176 
L 601.430003 589.317176 
L 601.430003 585.645647 
L 656.546368 585.645647 
" style="fill:none;stroke:#1f77b4;stroke-linecap:square;stroke-width:1.5;"/>
   </g>
   <g id="patch_23">
    <path d="M 380.59 692.12 
L 380.59 380.04 
" style="fill:none;stroke:#000000;stroke-linecap:square;stroke-linejoin:miter;stroke-width:0.8;"/>
   </g>
   <g id="patch_24">
    <path d="M 700.465991 692.12 
L 700.465991 380.04 
" style="fill:none;stroke:#000000;stroke-linecap:square;stroke-linejoin:miter;stroke-width:0.8;"/>
   </g>
   <g id="patch_25">
    <path d="M 380.59 692.12 
L 700.465991 692.12 
" style="fill:none;stroke:#000000;stroke-linecap:square;stroke-linejoin:miter;stroke-width:0.8;"/>
   </g>
   <g id="patch_26">
    <path d="M 380.59 380.04 
L 700.465991 380.04 
" style="fill:none;stroke:#000000;stroke-linecap:square;stroke-linejoin:miter;stroke-width:0.8;"/>
   </g>
   <g id="text_90">
    <!-- fairfuzz -->
    <defs>
     <path d="M 9.421875 54.6875 
L 18.40625 54.6875 
L 18.40625 0 
L 9.421875 0 
z
M 9.421875 75.984375 
L 18.40625 75.984375 
L 18.40625 64.59375 
L 9.421875 64.59375 
z
" id="DejaVuSans-105"/>
     <path d="M 41.109375 46.296875 
Q 39.59375 47.171875 37.8125 47.578125 
Q 36.03125 48 33.890625 48 
Q 26.265625 48 22.1875 43.046875 
Q 18.109375 38.09375 18.109375 28.8125 
L 18.109375 0 
L 9.078125 0 
L 9.078125 54.6875 
L 18.109375 54.6875 
L 18.109375 46.1875 
Q 20.953125 51.171875 25.484375 53.578125 
Q 30.03125 56 36.53125 56 
Q 37.453125 56 38.578125 55.875 
Q 39.703125 55.765625 41.0625 55.515625 
z
" id="DejaVuSans-114"/>
    </defs>
    <g transform="translate(518.392683 374.04)scale(0.12 -0.12)">
     <use xlink:href="#DejaVuSans-102"/>
     <use x="35.205078" xlink:href="#DejaVuSans-97"/>
     <use x="96.484375" xlink:href="#DejaVuSans-105"/>
     <use x="124.267578" xlink:href="#DejaVuSans-114"/>
     <use x="165.380859" xlink:href="#DejaVuSans-102"/>
     <use x="200.585938" xlink:href="#DejaVuSans-117"/>
     <use x="263.964844" xlink:href="#DejaVuSans-122"/>
     <use x="316.455078" xlink:href="#DejaVuSans-122"/>
    </g>
   </g>
  </g>
  <g id="axes_6">
   <g id="patch_27">
    <path d="M 736.99 692.12 
L 1056.865991 692.12 
L 1056.865991 380.04 
L 736.99 380.04 
z
" style="fill:#ffffff;"/>
   </g>
   <g id="PolyCollection_6">
    <defs>
     <path d="M 737.127988 -235.498683 
L 737.127988 171.579729 
L 737.206838 61.651172 
L 737.226551 1.717719 
L 737.561665 -5.838586 
L 752.543223 -20.940596 
L 755.066433 -35.74712 
L 755.105858 -51.391325 
L 787.059946 -56.15753 
L 794.255037 -62.00527 
L 794.294462 -68.718236 
L 795.792618 -76.323068 
L 795.851756 -101.310588 
L 965.557333 -94.677476 
L 965.695321 -96.006689 
L 971.72737 -99.010505 
L 972.023058 -103.000145 
L 972.161046 -107.715637 
L 1002.143876 -113.066251 
L 1002.143876 -138.508651 
L 1002.143876 -138.508651 
L 972.161046 -135.70031 
L 972.023058 -132.256849 
L 971.72737 -128.087534 
L 965.695321 -122.932396 
L 965.557333 -116.102655 
L 795.851756 -101.310588 
L 795.792618 -109.9802 
L 794.294462 -109.426077 
L 794.255037 -107.98009 
L 787.059946 -105.668875 
L 755.105858 -102.276126 
L 755.066433 -109.761377 
L 752.543223 -116.408946 
L 737.561665 -123.352002 
L 737.226551 -114.590399 
L 737.206838 -141.888034 
L 737.127988 -235.498683 
z
" id="ma30fbbf7b8" style="stroke:#0000ff;stroke-opacity:0.1;"/>
    </defs>
    <g clip-path="url(#p3d0ec117d1)">
     <use style="fill:#0000ff;fill-opacity:0.1;stroke:#0000ff;stroke-opacity:0.1;" x="0" xlink:href="#ma30fbbf7b8" y="720"/>
    </g>
   </g>
   <g id="matplotlib.axis_11">
    <g id="xtick_41">
     <g id="line2d_91">
      <g>
       <use style="stroke:#000000;stroke-width:0.8;" x="776.158891" xlink:href="#mcbca22fb2f" y="692.12"/>
      </g>
     </g>
     <g id="text_91">
      <!-- 10000 -->
      <g transform="translate(760.252641 706.718438)scale(0.1 -0.1)">
       <use xlink:href="#DejaVuSans-49"/>
       <use x="63.623047" xlink:href="#DejaVuSans-48"/>
       <use x="127.246094" xlink:href="#DejaVuSans-48"/>
       <use x="190.869141" xlink:href="#DejaVuSans-48"/>
       <use x="254.492188" xlink:href="#DejaVuSans-48"/>
      </g>
     </g>
    </g>
    <g id="xtick_42">
     <g id="line2d_92">
      <g>
       <use style="stroke:#000000;stroke-width:0.8;" x="815.584045" xlink:href="#mcbca22fb2f" y="692.12"/>
      </g>
     </g>
     <g id="text_92">
      <!-- 20000 -->
      <g transform="translate(799.677795 706.718438)scale(0.1 -0.1)">
       <use xlink:href="#DejaVuSans-50"/>
       <use x="63.623047" xlink:href="#DejaVuSans-48"/>
       <use x="127.246094" xlink:href="#DejaVuSans-48"/>
       <use x="190.869141" xlink:href="#DejaVuSans-48"/>
       <use x="254.492188" xlink:href="#DejaVuSans-48"/>
      </g>
     </g>
    </g>
    <g id="xtick_43">
     <g id="line2d_93">
      <g>
       <use style="stroke:#000000;stroke-width:0.8;" x="855.0092" xlink:href="#mcbca22fb2f" y="692.12"/>
      </g>
     </g>
     <g id="text_93">
      <!-- 30000 -->
      <g transform="translate(839.10295 706.718438)scale(0.1 -0.1)">
       <use xlink:href="#DejaVuSans-51"/>
       <use x="63.623047" xlink:href="#DejaVuSans-48"/>
       <use x="127.246094" xlink:href="#DejaVuSans-48"/>
       <use x="190.869141" xlink:href="#DejaVuSans-48"/>
       <use x="254.492188" xlink:href="#DejaVuSans-48"/>
      </g>
     </g>
    </g>
    <g id="xtick_44">
     <g id="line2d_94">
      <g>
       <use style="stroke:#000000;stroke-width:0.8;" x="894.434354" xlink:href="#mcbca22fb2f" y="692.12"/>
      </g>
     </g>
     <g id="text_94">
      <!-- 40000 -->
      <g transform="translate(878.528104 706.718438)scale(0.1 -0.1)">
       <use xlink:href="#DejaVuSans-52"/>
       <use x="63.623047" xlink:href="#DejaVuSans-48"/>
       <use x="127.246094" xlink:href="#DejaVuSans-48"/>
       <use x="190.869141" xlink:href="#DejaVuSans-48"/>
       <use x="254.492188" xlink:href="#DejaVuSans-48"/>
      </g>
     </g>
    </g>
    <g id="xtick_45">
     <g id="line2d_95">
      <g>
       <use style="stroke:#000000;stroke-width:0.8;" x="933.859509" xlink:href="#mcbca22fb2f" y="692.12"/>
      </g>
     </g>
     <g id="text_95">
      <!-- 50000 -->
      <g transform="translate(917.953259 706.718438)scale(0.1 -0.1)">
       <use xlink:href="#DejaVuSans-53"/>
       <use x="63.623047" xlink:href="#DejaVuSans-48"/>
       <use x="127.246094" xlink:href="#DejaVuSans-48"/>
       <use x="190.869141" xlink:href="#DejaVuSans-48"/>
       <use x="254.492188" xlink:href="#DejaVuSans-48"/>
      </g>
     </g>
    </g>
    <g id="xtick_46">
     <g id="line2d_96">
      <g>
       <use style="stroke:#000000;stroke-width:0.8;" x="973.284663" xlink:href="#mcbca22fb2f" y="692.12"/>
      </g>
     </g>
     <g id="text_96">
      <!-- 60000 -->
      <g transform="translate(957.378413 706.718438)scale(0.1 -0.1)">
       <use xlink:href="#DejaVuSans-54"/>
       <use x="63.623047" xlink:href="#DejaVuSans-48"/>
       <use x="127.246094" xlink:href="#DejaVuSans-48"/>
       <use x="190.869141" xlink:href="#DejaVuSans-48"/>
       <use x="254.492188" xlink:href="#DejaVuSans-48"/>
      </g>
     </g>
    </g>
    <g id="xtick_47">
     <g id="line2d_97">
      <g>
       <use style="stroke:#000000;stroke-width:0.8;" x="1012.709818" xlink:href="#mcbca22fb2f" y="692.12"/>
      </g>
     </g>
     <g id="text_97">
      <!-- 70000 -->
      <g transform="translate(996.803568 706.718438)scale(0.1 -0.1)">
       <use xlink:href="#DejaVuSans-55"/>
       <use x="63.623047" xlink:href="#DejaVuSans-48"/>
       <use x="127.246094" xlink:href="#DejaVuSans-48"/>
       <use x="190.869141" xlink:href="#DejaVuSans-48"/>
       <use x="254.492188" xlink:href="#DejaVuSans-48"/>
      </g>
     </g>
    </g>
    <g id="xtick_48">
     <g id="line2d_98">
      <g>
       <use style="stroke:#000000;stroke-width:0.8;" x="1052.134972" xlink:href="#mcbca22fb2f" y="692.12"/>
      </g>
     </g>
     <g id="text_98">
      <!-- 80000 -->
      <g transform="translate(1036.228722 706.718438)scale(0.1 -0.1)">
       <use xlink:href="#DejaVuSans-56"/>
       <use x="63.623047" xlink:href="#DejaVuSans-48"/>
       <use x="127.246094" xlink:href="#DejaVuSans-48"/>
       <use x="190.869141" xlink:href="#DejaVuSans-48"/>
       <use x="254.492188" xlink:href="#DejaVuSans-48"/>
      </g>
     </g>
    </g>
   </g>
   <g id="matplotlib.axis_12">
    <g id="ytick_46">
     <g id="line2d_99">
      <g>
       <use style="stroke:#000000;stroke-width:0.8;" x="736.99" xlink:href="#mf9bcb358c9" y="692.12"/>
      </g>
     </g>
     <g id="text_99">
      <!-- 0 -->
      <g transform="translate(723.6275 695.919219)scale(0.1 -0.1)">
       <use xlink:href="#DejaVuSans-48"/>
      </g>
     </g>
    </g>
    <g id="ytick_47">
     <g id="line2d_100">
      <g>
       <use style="stroke:#000000;stroke-width:0.8;" x="736.99" xlink:href="#mf9bcb358c9" y="655.404706"/>
      </g>
     </g>
     <g id="text_100">
      <!-- 1 -->
      <g transform="translate(723.6275 659.203925)scale(0.1 -0.1)">
       <use xlink:href="#DejaVuSans-49"/>
      </g>
     </g>
    </g>
    <g id="ytick_48">
     <g id="line2d_101">
      <g>
       <use style="stroke:#000000;stroke-width:0.8;" x="736.99" xlink:href="#mf9bcb358c9" y="618.689412"/>
      </g>
     </g>
     <g id="text_101">
      <!-- 2 -->
      <g transform="translate(723.6275 622.488631)scale(0.1 -0.1)">
       <use xlink:href="#DejaVuSans-50"/>
      </g>
     </g>
    </g>
    <g id="ytick_49">
     <g id="line2d_102">
      <g>
       <use style="stroke:#000000;stroke-width:0.8;" x="736.99" xlink:href="#mf9bcb358c9" y="581.974118"/>
      </g>
     </g>
     <g id="text_102">
      <!-- 3 -->
      <g transform="translate(723.6275 585.773336)scale(0.1 -0.1)">
       <use xlink:href="#DejaVuSans-51"/>
      </g>
     </g>
    </g>
    <g id="ytick_50">
     <g id="line2d_103">
      <g>
       <use style="stroke:#000000;stroke-width:0.8;" x="736.99" xlink:href="#mf9bcb358c9" y="545.258824"/>
      </g>
     </g>
     <g id="text_103">
      <!-- 4 -->
      <g transform="translate(723.6275 549.058042)scale(0.1 -0.1)">
       <use xlink:href="#DejaVuSans-52"/>
      </g>
     </g>
    </g>
    <g id="ytick_51">
     <g id="line2d_104">
      <g>
       <use style="stroke:#000000;stroke-width:0.8;" x="736.99" xlink:href="#mf9bcb358c9" y="508.543529"/>
      </g>
     </g>
     <g id="text_104">
      <!-- 5 -->
      <g transform="translate(723.6275 512.342748)scale(0.1 -0.1)">
       <use xlink:href="#DejaVuSans-53"/>
      </g>
     </g>
    </g>
    <g id="ytick_52">
     <g id="line2d_105">
      <g>
       <use style="stroke:#000000;stroke-width:0.8;" x="736.99" xlink:href="#mf9bcb358c9" y="471.828235"/>
      </g>
     </g>
     <g id="text_105">
      <!-- 6 -->
      <g transform="translate(723.6275 475.627454)scale(0.1 -0.1)">
       <use xlink:href="#DejaVuSans-54"/>
      </g>
     </g>
    </g>
    <g id="ytick_53">
     <g id="line2d_106">
      <g>
       <use style="stroke:#000000;stroke-width:0.8;" x="736.99" xlink:href="#mf9bcb358c9" y="435.112941"/>
      </g>
     </g>
     <g id="text_106">
      <!-- 7 -->
      <g transform="translate(723.6275 438.91216)scale(0.1 -0.1)">
       <use xlink:href="#DejaVuSans-55"/>
      </g>
     </g>
    </g>
    <g id="ytick_54">
     <g id="line2d_107">
      <g>
       <use style="stroke:#000000;stroke-width:0.8;" x="736.99" xlink:href="#mf9bcb358c9" y="398.397647"/>
      </g>
     </g>
     <g id="text_107">
      <!-- 8 -->
      <g transform="translate(723.6275 402.196866)scale(0.1 -0.1)">
       <use xlink:href="#DejaVuSans-56"/>
      </g>
     </g>
    </g>
   </g>
   <g id="line2d_108">
    <path clip-path="url(#p3d0ec117d1)" d="M 737.127988 688.040523 
L 737.127988 679.881569 
L 737.206838 679.881569 
L 737.206838 663.56366 
L 737.226551 663.56366 
L 737.226551 655.404706 
L 737.561665 655.404706 
L 737.561665 651.325229 
L 752.543223 651.325229 
L 752.543223 647.245752 
L 755.066433 647.245752 
L 755.066433 643.166275 
L 755.105858 643.166275 
L 755.105858 639.086797 
L 787.059946 639.086797 
L 787.059946 635.00732 
L 794.255037 635.00732 
L 794.255037 630.927843 
L 794.294462 630.927843 
L 794.294462 626.848366 
L 795.792618 626.848366 
L 795.792618 618.689412 
L 795.851756 618.689412 
L 795.851756 614.609935 
L 965.557333 614.609935 
L 965.557333 610.530458 
L 965.695321 610.530458 
L 965.695321 606.45098 
L 971.72737 606.45098 
L 971.72737 602.371503 
L 972.023058 602.371503 
L 972.023058 598.292026 
L 972.161046 598.292026 
L 972.161046 594.212549 
L 1002.143876 594.212549 
" style="fill:none;stroke:#1f77b4;stroke-linecap:square;stroke-width:1.5;"/>
   </g>
   <g id="patch_28">
    <path d="M 736.99 692.12 
L 736.99 380.04 
" style="fill:none;stroke:#000000;stroke-linecap:square;stroke-linejoin:miter;stroke-width:0.8;"/>
   </g>
   <g id="patch_29">
    <path d="M 1056.865991 692.12 
L 1056.865991 380.04 
" style="fill:none;stroke:#000000;stroke-linecap:square;stroke-linejoin:miter;stroke-width:0.8;"/>
   </g>
   <g id="patch_30">
    <path d="M 736.99 692.12 
L 1056.865991 692.12 
" style="fill:none;stroke:#000000;stroke-linecap:square;stroke-linejoin:miter;stroke-width:0.8;"/>
   </g>
   <g id="patch_31">
    <path d="M 736.99 380.04 
L 1056.865991 380.04 
" style="fill:none;stroke:#000000;stroke-linecap:square;stroke-linejoin:miter;stroke-width:0.8;"/>
   </g>
   <g id="text_108">
    <!-- afl -->
    <g transform="translate(889.472058 374.04)scale(0.12 -0.12)">
     <use xlink:href="#DejaVuSans-97"/>
     <use x="61.279297" xlink:href="#DejaVuSans-102"/>
     <use x="96.484375" xlink:href="#DejaVuSans-108"/>
    </g>
   </g>
  </g>
 </g>
 <defs>
  <clipPath id="p485871af7d">
   <rect height="312.08" width="319.875991" x="24.19" y="25.44"/>
  </clipPath>
  <clipPath id="p3c0725efbf">
   <rect height="312.08" width="319.875991" x="380.59" y="25.44"/>
  </clipPath>
  <clipPath id="pd440a864fc">
   <rect height="312.08" width="319.875991" x="736.99" y="25.44"/>
  </clipPath>
  <clipPath id="pdc08fb000f">
   <rect height="312.08" width="319.875991" x="24.19" y="380.04"/>
  </clipPath>
  <clipPath id="p3b68edd0ec">
   <rect height="312.08" width="319.875991" x="380.59" y="380.04"/>
  </clipPath>
  <clipPath id="p3d0ec117d1">
   <rect height="312.08" width="319.875991" x="736.99" y="380.04"/>
  </clipPath>
 </defs>
</svg>
