<?xml version="1.0" encoding="utf-8" standalone="no"?>
<!DOCTYPE svg PUBLIC "-//W3C//DTD SVG 1.1//EN"
  "http://www.w3.org/Graphics/SVG/1.1/DTD/svg11.dtd">
<!-- Created with matplotlib (https://matplotlib.org/) -->
<svg height="357.95625pt" version="1.1" viewBox="0 0 529.3125 357.95625" width="529.3125pt" xmlns="http://www.w3.org/2000/svg" xmlns:xlink="http://www.w3.org/1999/xlink">
 <defs>
  <style type="text/css">
*{stroke-linecap:butt;stroke-linejoin:round;}
  </style>
 </defs>
 <g id="figure_1">
  <g id="patch_1">
   <path d="M 0 357.95625 
L 529.3125 357.95625 
L 529.3125 0 
L 0 0 
z
" style="fill:#ffffff;"/>
  </g>
  <g id="axes_1">
   <g id="patch_2">
    <path d="M 68.442188 320.4 
L 514.842188 320.4 
L 514.842188 43.2 
L 68.442188 43.2 
z
" style="fill:#ffffff;"/>
   </g>
   <g id="matplotlib.axis_1">
    <g id="xtick_1">
     <g id="line2d_1">
      <defs>
       <path d="M 0 0 
L 0 3.5 
" id="m897ef01095" style="stroke:#000000;stroke-width:0.8;"/>
      </defs>
      <g>
       <use style="stroke:#000000;stroke-width:0.8;" x="163.224887" xlink:href="#m897ef01095" y="320.4"/>
      </g>
     </g>
     <g id="text_1">
      <!-- 1m -->
      <defs>
       <path d="M 12.40625 8.296875 
L 28.515625 8.296875 
L 28.515625 63.921875 
L 10.984375 60.40625 
L 10.984375 69.390625 
L 28.421875 72.90625 
L 38.28125 72.90625 
L 38.28125 8.296875 
L 54.390625 8.296875 
L 54.390625 0 
L 12.40625 0 
z
" id="DejaVuSans-49"/>
       <path d="M 52 44.1875 
Q 55.375 50.25 60.0625 53.125 
Q 64.75 56 71.09375 56 
Q 79.640625 56 84.28125 50.015625 
Q 88.921875 44.046875 88.921875 33.015625 
L 88.921875 0 
L 79.890625 0 
L 79.890625 32.71875 
Q 79.890625 40.578125 77.09375 44.375 
Q 74.3125 48.1875 68.609375 48.1875 
Q 61.625 48.1875 57.5625 43.546875 
Q 53.515625 38.921875 53.515625 30.90625 
L 53.515625 0 
L 44.484375 0 
L 44.484375 32.71875 
Q 44.484375 40.625 41.703125 44.40625 
Q 38.921875 48.1875 33.109375 48.1875 
Q 26.21875 48.1875 22.15625 43.53125 
Q 18.109375 38.875 18.109375 30.90625 
L 18.109375 0 
L 9.078125 0 
L 9.078125 54.6875 
L 18.109375 54.6875 
L 18.109375 46.1875 
Q 21.1875 51.21875 25.484375 53.609375 
Q 29.78125 56 35.6875 56 
Q 41.65625 56 45.828125 52.96875 
Q 50 49.953125 52 44.1875 
z
" id="DejaVuSans-109"/>
      </defs>
      <g transform="translate(155.173324 334.998437)scale(0.1 -0.1)">
       <use xlink:href="#DejaVuSans-49"/>
       <use x="63.623047" xlink:href="#DejaVuSans-109"/>
      </g>
     </g>
    </g>
    <g id="xtick_2">
     <g id="line2d_2">
      <g>
       <use style="stroke:#000000;stroke-width:0.8;" x="189.663852" xlink:href="#m897ef01095" y="320.4"/>
      </g>
     </g>
     <g id="text_2">
      <!-- 2m -->
      <defs>
       <path d="M 19.1875 8.296875 
L 53.609375 8.296875 
L 53.609375 0 
L 7.328125 0 
L 7.328125 8.296875 
Q 12.9375 14.109375 22.625 23.890625 
Q 32.328125 33.6875 34.8125 36.53125 
Q 39.546875 41.84375 41.421875 45.53125 
Q 43.3125 49.21875 43.3125 52.78125 
Q 43.3125 58.59375 39.234375 62.25 
Q 35.15625 65.921875 28.609375 65.921875 
Q 23.96875 65.921875 18.8125 64.3125 
Q 13.671875 62.703125 7.8125 59.421875 
L 7.8125 69.390625 
Q 13.765625 71.78125 18.9375 73 
Q 24.125 74.21875 28.421875 74.21875 
Q 39.75 74.21875 46.484375 68.546875 
Q 53.21875 62.890625 53.21875 53.421875 
Q 53.21875 48.921875 51.53125 44.890625 
Q 49.859375 40.875 45.40625 35.40625 
Q 44.1875 33.984375 37.640625 27.21875 
Q 31.109375 20.453125 19.1875 8.296875 
z
" id="DejaVuSans-50"/>
      </defs>
      <g transform="translate(181.61229 334.998437)scale(0.1 -0.1)">
       <use xlink:href="#DejaVuSans-50"/>
       <use x="63.623047" xlink:href="#DejaVuSans-109"/>
      </g>
     </g>
    </g>
    <g id="xtick_3">
     <g id="line2d_3">
      <g>
       <use style="stroke:#000000;stroke-width:0.8;" x="216.102818" xlink:href="#m897ef01095" y="320.4"/>
      </g>
     </g>
     <g id="text_3">
      <!-- 4m -->
      <defs>
       <path d="M 37.796875 64.3125 
L 12.890625 25.390625 
L 37.796875 25.390625 
z
M 35.203125 72.90625 
L 47.609375 72.90625 
L 47.609375 25.390625 
L 58.015625 25.390625 
L 58.015625 17.1875 
L 47.609375 17.1875 
L 47.609375 0 
L 37.796875 0 
L 37.796875 17.1875 
L 4.890625 17.1875 
L 4.890625 26.703125 
z
" id="DejaVuSans-52"/>
      </defs>
      <g transform="translate(208.051255 334.998437)scale(0.1 -0.1)">
       <use xlink:href="#DejaVuSans-52"/>
       <use x="63.623047" xlink:href="#DejaVuSans-109"/>
      </g>
     </g>
    </g>
    <g id="xtick_4">
     <g id="line2d_4">
      <g>
       <use style="stroke:#000000;stroke-width:0.8;" x="242.541783" xlink:href="#m897ef01095" y="320.4"/>
      </g>
     </g>
     <g id="text_4">
      <!-- 8m -->
      <defs>
       <path d="M 31.78125 34.625 
Q 24.75 34.625 20.71875 30.859375 
Q 16.703125 27.09375 16.703125 20.515625 
Q 16.703125 13.921875 20.71875 10.15625 
Q 24.75 6.390625 31.78125 6.390625 
Q 38.8125 6.390625 42.859375 10.171875 
Q 46.921875 13.96875 46.921875 20.515625 
Q 46.921875 27.09375 42.890625 30.859375 
Q 38.875 34.625 31.78125 34.625 
z
M 21.921875 38.8125 
Q 15.578125 40.375 12.03125 44.71875 
Q 8.5 49.078125 8.5 55.328125 
Q 8.5 64.0625 14.71875 69.140625 
Q 20.953125 74.21875 31.78125 74.21875 
Q 42.671875 74.21875 48.875 69.140625 
Q 55.078125 64.0625 55.078125 55.328125 
Q 55.078125 49.078125 51.53125 44.71875 
Q 48 40.375 41.703125 38.8125 
Q 48.828125 37.15625 52.796875 32.3125 
Q 56.78125 27.484375 56.78125 20.515625 
Q 56.78125 9.90625 50.3125 4.234375 
Q 43.84375 -1.421875 31.78125 -1.421875 
Q 19.734375 -1.421875 13.25 4.234375 
Q 6.78125 9.90625 6.78125 20.515625 
Q 6.78125 27.484375 10.78125 32.3125 
Q 14.796875 37.15625 21.921875 38.8125 
z
M 18.3125 54.390625 
Q 18.3125 48.734375 21.84375 45.5625 
Q 25.390625 42.390625 31.78125 42.390625 
Q 38.140625 42.390625 41.71875 45.5625 
Q 45.3125 48.734375 45.3125 54.390625 
Q 45.3125 60.0625 41.71875 63.234375 
Q 38.140625 66.40625 31.78125 66.40625 
Q 25.390625 66.40625 21.84375 63.234375 
Q 18.3125 60.0625 18.3125 54.390625 
z
" id="DejaVuSans-56"/>
      </defs>
      <g transform="translate(234.490221 334.998437)scale(0.1 -0.1)">
       <use xlink:href="#DejaVuSans-56"/>
       <use x="63.623047" xlink:href="#DejaVuSans-109"/>
      </g>
     </g>
    </g>
    <g id="xtick_5">
     <g id="line2d_5">
      <g>
       <use style="stroke:#000000;stroke-width:0.8;" x="266.519032" xlink:href="#m897ef01095" y="320.4"/>
      </g>
     </g>
     <g id="text_5">
      <!-- 15m -->
      <defs>
       <path d="M 10.796875 72.90625 
L 49.515625 72.90625 
L 49.515625 64.59375 
L 19.828125 64.59375 
L 19.828125 46.734375 
Q 21.96875 47.46875 24.109375 47.828125 
Q 26.265625 48.1875 28.421875 48.1875 
Q 40.625 48.1875 47.75 41.5 
Q 54.890625 34.8125 54.890625 23.390625 
Q 54.890625 11.625 47.5625 5.09375 
Q 40.234375 -1.421875 26.90625 -1.421875 
Q 22.3125 -1.421875 17.546875 -0.640625 
Q 12.796875 0.140625 7.71875 1.703125 
L 7.71875 11.625 
Q 12.109375 9.234375 16.796875 8.0625 
Q 21.484375 6.890625 26.703125 6.890625 
Q 35.15625 6.890625 40.078125 11.328125 
Q 45.015625 15.765625 45.015625 23.390625 
Q 45.015625 31 40.078125 35.4375 
Q 35.15625 39.890625 26.703125 39.890625 
Q 22.75 39.890625 18.8125 39.015625 
Q 14.890625 38.140625 10.796875 36.28125 
z
" id="DejaVuSans-53"/>
      </defs>
      <g transform="translate(255.28622 334.998437)scale(0.1 -0.1)">
       <use xlink:href="#DejaVuSans-49"/>
       <use x="63.623047" xlink:href="#DejaVuSans-53"/>
       <use x="127.246094" xlink:href="#DejaVuSans-109"/>
      </g>
     </g>
    </g>
    <g id="xtick_6">
     <g id="line2d_6">
      <g>
       <use style="stroke:#000000;stroke-width:0.8;" x="292.957998" xlink:href="#m897ef01095" y="320.4"/>
      </g>
     </g>
     <g id="text_6">
      <!-- 30m -->
      <defs>
       <path d="M 40.578125 39.3125 
Q 47.65625 37.796875 51.625 33 
Q 55.609375 28.21875 55.609375 21.1875 
Q 55.609375 10.40625 48.1875 4.484375 
Q 40.765625 -1.421875 27.09375 -1.421875 
Q 22.515625 -1.421875 17.65625 -0.515625 
Q 12.796875 0.390625 7.625 2.203125 
L 7.625 11.71875 
Q 11.71875 9.328125 16.59375 8.109375 
Q 21.484375 6.890625 26.8125 6.890625 
Q 36.078125 6.890625 40.9375 10.546875 
Q 45.796875 14.203125 45.796875 21.1875 
Q 45.796875 27.640625 41.28125 31.265625 
Q 36.765625 34.90625 28.71875 34.90625 
L 20.21875 34.90625 
L 20.21875 43.015625 
L 29.109375 43.015625 
Q 36.375 43.015625 40.234375 45.921875 
Q 44.09375 48.828125 44.09375 54.296875 
Q 44.09375 59.90625 40.109375 62.90625 
Q 36.140625 65.921875 28.71875 65.921875 
Q 24.65625 65.921875 20.015625 65.03125 
Q 15.375 64.15625 9.8125 62.3125 
L 9.8125 71.09375 
Q 15.4375 72.65625 20.34375 73.4375 
Q 25.25 74.21875 29.59375 74.21875 
Q 40.828125 74.21875 47.359375 69.109375 
Q 53.90625 64.015625 53.90625 55.328125 
Q 53.90625 49.265625 50.4375 45.09375 
Q 46.96875 40.921875 40.578125 39.3125 
z
" id="DejaVuSans-51"/>
       <path d="M 31.78125 66.40625 
Q 24.171875 66.40625 20.328125 58.90625 
Q 16.5 51.421875 16.5 36.375 
Q 16.5 21.390625 20.328125 13.890625 
Q 24.171875 6.390625 31.78125 6.390625 
Q 39.453125 6.390625 43.28125 13.890625 
Q 47.125 21.390625 47.125 36.375 
Q 47.125 51.421875 43.28125 58.90625 
Q 39.453125 66.40625 31.78125 66.40625 
z
M 31.78125 74.21875 
Q 44.046875 74.21875 50.515625 64.515625 
Q 56.984375 54.828125 56.984375 36.375 
Q 56.984375 17.96875 50.515625 8.265625 
Q 44.046875 -1.421875 31.78125 -1.421875 
Q 19.53125 -1.421875 13.0625 8.265625 
Q 6.59375 17.96875 6.59375 36.375 
Q 6.59375 54.828125 13.0625 64.515625 
Q 19.53125 74.21875 31.78125 74.21875 
z
" id="DejaVuSans-48"/>
      </defs>
      <g transform="translate(281.725185 334.998437)scale(0.1 -0.1)">
       <use xlink:href="#DejaVuSans-51"/>
       <use x="63.623047" xlink:href="#DejaVuSans-48"/>
       <use x="127.246094" xlink:href="#DejaVuSans-109"/>
      </g>
     </g>
    </g>
    <g id="xtick_7">
     <g id="line2d_7">
      <g>
       <use style="stroke:#000000;stroke-width:0.8;" x="319.396963" xlink:href="#m897ef01095" y="320.4"/>
      </g>
     </g>
     <g id="text_7">
      <!-- 1h -->
      <defs>
       <path d="M 54.890625 33.015625 
L 54.890625 0 
L 45.90625 0 
L 45.90625 32.71875 
Q 45.90625 40.484375 42.875 44.328125 
Q 39.84375 48.1875 33.796875 48.1875 
Q 26.515625 48.1875 22.3125 43.546875 
Q 18.109375 38.921875 18.109375 30.90625 
L 18.109375 0 
L 9.078125 0 
L 9.078125 75.984375 
L 18.109375 75.984375 
L 18.109375 46.1875 
Q 21.34375 51.125 25.703125 53.5625 
Q 30.078125 56 35.796875 56 
Q 45.21875 56 50.046875 50.171875 
Q 54.890625 44.34375 54.890625 33.015625 
z
" id="DejaVuSans-104"/>
      </defs>
      <g transform="translate(313.046963 334.998437)scale(0.1 -0.1)">
       <use xlink:href="#DejaVuSans-49"/>
       <use x="63.623047" xlink:href="#DejaVuSans-104"/>
      </g>
     </g>
    </g>
    <g id="xtick_8">
     <g id="line2d_8">
      <g>
       <use style="stroke:#000000;stroke-width:0.8;" x="345.835928" xlink:href="#m897ef01095" y="320.4"/>
      </g>
     </g>
     <g id="text_8">
      <!-- 2h -->
      <g transform="translate(339.485928 334.998437)scale(0.1 -0.1)">
       <use xlink:href="#DejaVuSans-50"/>
       <use x="63.623047" xlink:href="#DejaVuSans-104"/>
      </g>
     </g>
    </g>
    <g id="xtick_9">
     <g id="line2d_9">
      <g>
       <use style="stroke:#000000;stroke-width:0.8;" x="372.274894" xlink:href="#m897ef01095" y="320.4"/>
      </g>
     </g>
     <g id="text_9">
      <!-- 4h -->
      <g transform="translate(365.924894 334.998437)scale(0.1 -0.1)">
       <use xlink:href="#DejaVuSans-52"/>
       <use x="63.623047" xlink:href="#DejaVuSans-104"/>
      </g>
     </g>
    </g>
    <g id="xtick_10">
     <g id="line2d_10">
      <g>
       <use style="stroke:#000000;stroke-width:0.8;" x="398.713859" xlink:href="#m897ef01095" y="320.4"/>
      </g>
     </g>
     <g id="text_10">
      <!-- 8h -->
      <g transform="translate(392.363859 334.998437)scale(0.1 -0.1)">
       <use xlink:href="#DejaVuSans-56"/>
       <use x="63.623047" xlink:href="#DejaVuSans-104"/>
      </g>
     </g>
    </g>
    <g id="xtick_11">
     <g id="line2d_11">
      <g>
       <use style="stroke:#000000;stroke-width:0.8;" x="414.179662" xlink:href="#m897ef01095" y="320.4"/>
      </g>
     </g>
     <g id="text_11">
      <!-- 12h -->
      <g transform="translate(404.648412 334.998437)scale(0.1 -0.1)">
       <use xlink:href="#DejaVuSans-49"/>
       <use x="63.623047" xlink:href="#DejaVuSans-50"/>
       <use x="127.246094" xlink:href="#DejaVuSans-104"/>
      </g>
     </g>
    </g>
    <g id="xtick_12">
     <g id="line2d_12">
      <g>
       <use style="stroke:#000000;stroke-width:0.8;" x="440.618628" xlink:href="#m897ef01095" y="320.4"/>
      </g>
     </g>
     <g id="text_12">
      <!-- 1d -->
      <defs>
       <path d="M 45.40625 46.390625 
L 45.40625 75.984375 
L 54.390625 75.984375 
L 54.390625 0 
L 45.40625 0 
L 45.40625 8.203125 
Q 42.578125 3.328125 38.25 0.953125 
Q 33.9375 -1.421875 27.875 -1.421875 
Q 17.96875 -1.421875 11.734375 6.484375 
Q 5.515625 14.40625 5.515625 27.296875 
Q 5.515625 40.1875 11.734375 48.09375 
Q 17.96875 56 27.875 56 
Q 33.9375 56 38.25 53.625 
Q 42.578125 51.265625 45.40625 46.390625 
z
M 14.796875 27.296875 
Q 14.796875 17.390625 18.875 11.75 
Q 22.953125 6.109375 30.078125 6.109375 
Q 37.203125 6.109375 41.296875 11.75 
Q 45.40625 17.390625 45.40625 27.296875 
Q 45.40625 37.203125 41.296875 42.84375 
Q 37.203125 48.484375 30.078125 48.484375 
Q 22.953125 48.484375 18.875 42.84375 
Q 14.796875 37.203125 14.796875 27.296875 
z
" id="DejaVuSans-100"/>
      </defs>
      <g transform="translate(434.263159 334.998437)scale(0.1 -0.1)">
       <use xlink:href="#DejaVuSans-49"/>
       <use x="63.623047" xlink:href="#DejaVuSans-100"/>
      </g>
     </g>
    </g>
    <g id="xtick_13">
     <g id="line2d_13">
      <g>
       <use style="stroke:#000000;stroke-width:0.8;" x="467.057593" xlink:href="#m897ef01095" y="320.4"/>
      </g>
     </g>
     <g id="text_13">
      <!-- 2d -->
      <g transform="translate(460.702125 334.998437)scale(0.1 -0.1)">
       <use xlink:href="#DejaVuSans-50"/>
       <use x="63.623047" xlink:href="#DejaVuSans-100"/>
      </g>
     </g>
    </g>
    <g id="xtick_14">
     <g id="line2d_14">
      <g>
       <use style="stroke:#000000;stroke-width:0.8;" x="493.496559" xlink:href="#m897ef01095" y="320.4"/>
      </g>
     </g>
     <g id="text_14">
      <!-- 4d -->
      <g transform="translate(487.14109 334.998437)scale(0.1 -0.1)">
       <use xlink:href="#DejaVuSans-52"/>
       <use x="63.623047" xlink:href="#DejaVuSans-100"/>
      </g>
     </g>
    </g>
    <g id="xtick_15">
     <g id="line2d_15">
      <g>
       <use style="stroke:#000000;stroke-width:0.8;" x="514.842187" xlink:href="#m897ef01095" y="320.4"/>
      </g>
     </g>
     <g id="text_15">
      <!-- 1w -->
      <defs>
       <path d="M 4.203125 54.6875 
L 13.1875 54.6875 
L 24.421875 12.015625 
L 35.59375 54.6875 
L 46.1875 54.6875 
L 57.421875 12.015625 
L 68.609375 54.6875 
L 77.59375 54.6875 
L 63.28125 0 
L 52.6875 0 
L 40.921875 44.828125 
L 29.109375 0 
L 18.5 0 
z
" id="DejaVuSans-119"/>
      </defs>
      <g transform="translate(507.571875 334.998437)scale(0.1 -0.1)">
       <use xlink:href="#DejaVuSans-49"/>
       <use x="63.623047" xlink:href="#DejaVuSans-119"/>
      </g>
     </g>
    </g>
    <g id="xtick_16">
     <g id="line2d_16">
      <defs>
       <path d="M 0 0 
L 0 2 
" id="mf2ebaab582" style="stroke:#000000;stroke-width:0.6;"/>
      </defs>
      <g>
       <use style="stroke:#000000;stroke-width:0.6;" x="94.881153" xlink:href="#mf2ebaab582" y="320.4"/>
      </g>
     </g>
    </g>
    <g id="xtick_17">
     <g id="line2d_17">
      <g>
       <use style="stroke:#000000;stroke-width:0.6;" x="182.709495" xlink:href="#mf2ebaab582" y="320.4"/>
      </g>
     </g>
    </g>
    <g id="xtick_18">
     <g id="line2d_18">
      <g>
       <use style="stroke:#000000;stroke-width:0.6;" x="270.537837" xlink:href="#mf2ebaab582" y="320.4"/>
      </g>
     </g>
    </g>
    <g id="xtick_19">
     <g id="line2d_19">
      <g>
       <use style="stroke:#000000;stroke-width:0.6;" x="358.366179" xlink:href="#mf2ebaab582" y="320.4"/>
      </g>
     </g>
    </g>
    <g id="xtick_20">
     <g id="line2d_20">
      <g>
       <use style="stroke:#000000;stroke-width:0.6;" x="446.194521" xlink:href="#mf2ebaab582" y="320.4"/>
      </g>
     </g>
    </g>
    <g id="text_16">
     <!-- Time -->
     <defs>
      <path d="M -0.296875 72.90625 
L 61.375 72.90625 
L 61.375 64.59375 
L 35.5 64.59375 
L 35.5 0 
L 25.59375 0 
L 25.59375 64.59375 
L -0.296875 64.59375 
z
" id="DejaVuSans-84"/>
      <path d="M 9.421875 54.6875 
L 18.40625 54.6875 
L 18.40625 0 
L 9.421875 0 
z
M 9.421875 75.984375 
L 18.40625 75.984375 
L 18.40625 64.59375 
L 9.421875 64.59375 
z
" id="DejaVuSans-105"/>
      <path d="M 56.203125 29.59375 
L 56.203125 25.203125 
L 14.890625 25.203125 
Q 15.484375 15.921875 20.484375 11.0625 
Q 25.484375 6.203125 34.421875 6.203125 
Q 39.59375 6.203125 44.453125 7.46875 
Q 49.3125 8.734375 54.109375 11.28125 
L 54.109375 2.78125 
Q 49.265625 0.734375 44.1875 -0.34375 
Q 39.109375 -1.421875 33.890625 -1.421875 
Q 20.796875 -1.421875 13.15625 6.1875 
Q 5.515625 13.8125 5.515625 26.8125 
Q 5.515625 40.234375 12.765625 48.109375 
Q 20.015625 56 32.328125 56 
Q 43.359375 56 49.78125 48.890625 
Q 56.203125 41.796875 56.203125 29.59375 
z
M 47.21875 32.234375 
Q 47.125 39.59375 43.09375 43.984375 
Q 39.0625 48.390625 32.421875 48.390625 
Q 24.90625 48.390625 20.390625 44.140625 
Q 15.875 39.890625 15.1875 32.171875 
z
" id="DejaVuSans-101"/>
     </defs>
     <g transform="translate(279.408594 348.676562)scale(0.1 -0.1)">
      <use xlink:href="#DejaVuSans-84"/>
      <use x="57.958984" xlink:href="#DejaVuSans-105"/>
      <use x="85.742188" xlink:href="#DejaVuSans-109"/>
      <use x="183.154297" xlink:href="#DejaVuSans-101"/>
     </g>
    </g>
   </g>
   <g id="matplotlib.axis_2">
    <g id="ytick_1">
     <g id="line2d_21">
      <defs>
       <path d="M 0 0 
L -3.5 0 
" id="mfb5b20a247" style="stroke:#000000;stroke-width:0.8;"/>
      </defs>
      <g>
       <use style="stroke:#000000;stroke-width:0.8;" x="68.442188" xlink:href="#mfb5b20a247" y="274.2"/>
      </g>
     </g>
     <g id="text_17">
      <!-- AAH032 -->
      <defs>
       <path d="M 34.1875 63.1875 
L 20.796875 26.90625 
L 47.609375 26.90625 
z
M 28.609375 72.90625 
L 39.796875 72.90625 
L 67.578125 0 
L 57.328125 0 
L 50.6875 18.703125 
L 17.828125 18.703125 
L 11.1875 0 
L 0.78125 0 
z
" id="DejaVuSans-65"/>
       <path d="M 9.8125 72.90625 
L 19.671875 72.90625 
L 19.671875 43.015625 
L 55.515625 43.015625 
L 55.515625 72.90625 
L 65.375 72.90625 
L 65.375 0 
L 55.515625 0 
L 55.515625 34.71875 
L 19.671875 34.71875 
L 19.671875 0 
L 9.8125 0 
z
" id="DejaVuSans-72"/>
      </defs>
      <g transform="translate(20.878125 277.999219)scale(0.1 -0.1)">
       <use xlink:href="#DejaVuSans-65"/>
       <use x="71.158203" xlink:href="#DejaVuSans-65"/>
       <use x="139.566406" xlink:href="#DejaVuSans-72"/>
       <use x="214.761719" xlink:href="#DejaVuSans-48"/>
       <use x="278.384766" xlink:href="#DejaVuSans-51"/>
       <use x="342.007812" xlink:href="#DejaVuSans-50"/>
      </g>
     </g>
    </g>
    <g id="ytick_2">
     <g id="line2d_22">
      <g>
       <use style="stroke:#000000;stroke-width:0.8;" x="68.442188" xlink:href="#mfb5b20a247" y="181.8"/>
      </g>
     </g>
     <g id="text_18">
      <!-- AAH037 -->
      <defs>
       <path d="M 8.203125 72.90625 
L 55.078125 72.90625 
L 55.078125 68.703125 
L 28.609375 0 
L 18.3125 0 
L 43.21875 64.59375 
L 8.203125 64.59375 
z
" id="DejaVuSans-55"/>
      </defs>
      <g transform="translate(20.878125 185.599219)scale(0.1 -0.1)">
       <use xlink:href="#DejaVuSans-65"/>
       <use x="71.158203" xlink:href="#DejaVuSans-65"/>
       <use x="139.566406" xlink:href="#DejaVuSans-72"/>
       <use x="214.761719" xlink:href="#DejaVuSans-48"/>
       <use x="278.384766" xlink:href="#DejaVuSans-51"/>
       <use x="342.007812" xlink:href="#DejaVuSans-55"/>
      </g>
     </g>
    </g>
    <g id="ytick_3">
     <g id="line2d_23">
      <g>
       <use style="stroke:#000000;stroke-width:0.8;" x="68.442188" xlink:href="#mfb5b20a247" y="89.4"/>
      </g>
     </g>
     <g id="text_19">
      <!-- AAH041 -->
      <g transform="translate(20.878125 93.199219)scale(0.1 -0.1)">
       <use xlink:href="#DejaVuSans-65"/>
       <use x="71.158203" xlink:href="#DejaVuSans-65"/>
       <use x="139.566406" xlink:href="#DejaVuSans-72"/>
       <use x="214.761719" xlink:href="#DejaVuSans-48"/>
       <use x="278.384766" xlink:href="#DejaVuSans-52"/>
       <use x="342.007812" xlink:href="#DejaVuSans-49"/>
      </g>
     </g>
    </g>
    <g id="text_20">
     <!-- Bug ID -->
     <defs>
      <path d="M 19.671875 34.8125 
L 19.671875 8.109375 
L 35.5 8.109375 
Q 43.453125 8.109375 47.28125 11.40625 
Q 51.125 14.703125 51.125 21.484375 
Q 51.125 28.328125 47.28125 31.5625 
Q 43.453125 34.8125 35.5 34.8125 
z
M 19.671875 64.796875 
L 19.671875 42.828125 
L 34.28125 42.828125 
Q 41.5 42.828125 45.03125 45.53125 
Q 48.578125 48.25 48.578125 53.8125 
Q 48.578125 59.328125 45.03125 62.0625 
Q 41.5 64.796875 34.28125 64.796875 
z
M 9.8125 72.90625 
L 35.015625 72.90625 
Q 46.296875 72.90625 52.390625 68.21875 
Q 58.5 63.53125 58.5 54.890625 
Q 58.5 48.1875 55.375 44.234375 
Q 52.25 40.28125 46.1875 39.3125 
Q 53.46875 37.75 57.5 32.78125 
Q 61.53125 27.828125 61.53125 20.40625 
Q 61.53125 10.640625 54.890625 5.3125 
Q 48.25 0 35.984375 0 
L 9.8125 0 
z
" id="DejaVuSans-66"/>
      <path d="M 8.5 21.578125 
L 8.5 54.6875 
L 17.484375 54.6875 
L 17.484375 21.921875 
Q 17.484375 14.15625 20.5 10.265625 
Q 23.53125 6.390625 29.59375 6.390625 
Q 36.859375 6.390625 41.078125 11.03125 
Q 45.3125 15.671875 45.3125 23.6875 
L 45.3125 54.6875 
L 54.296875 54.6875 
L 54.296875 0 
L 45.3125 0 
L 45.3125 8.40625 
Q 42.046875 3.421875 37.71875 1 
Q 33.40625 -1.421875 27.6875 -1.421875 
Q 18.265625 -1.421875 13.375 4.4375 
Q 8.5 10.296875 8.5 21.578125 
z
M 31.109375 56 
z
" id="DejaVuSans-117"/>
      <path d="M 45.40625 27.984375 
Q 45.40625 37.75 41.375 43.109375 
Q 37.359375 48.484375 30.078125 48.484375 
Q 22.859375 48.484375 18.828125 43.109375 
Q 14.796875 37.75 14.796875 27.984375 
Q 14.796875 18.265625 18.828125 12.890625 
Q 22.859375 7.515625 30.078125 7.515625 
Q 37.359375 7.515625 41.375 12.890625 
Q 45.40625 18.265625 45.40625 27.984375 
z
M 54.390625 6.78125 
Q 54.390625 -7.171875 48.1875 -13.984375 
Q 42 -20.796875 29.203125 -20.796875 
Q 24.46875 -20.796875 20.265625 -20.09375 
Q 16.0625 -19.390625 12.109375 -17.921875 
L 12.109375 -9.1875 
Q 16.0625 -11.328125 19.921875 -12.34375 
Q 23.78125 -13.375 27.78125 -13.375 
Q 36.625 -13.375 41.015625 -8.765625 
Q 45.40625 -4.15625 45.40625 5.171875 
L 45.40625 9.625 
Q 42.625 4.78125 38.28125 2.390625 
Q 33.9375 0 27.875 0 
Q 17.828125 0 11.671875 7.65625 
Q 5.515625 15.328125 5.515625 27.984375 
Q 5.515625 40.671875 11.671875 48.328125 
Q 17.828125 56 27.875 56 
Q 33.9375 56 38.28125 53.609375 
Q 42.625 51.21875 45.40625 46.390625 
L 45.40625 54.6875 
L 54.390625 54.6875 
z
" id="DejaVuSans-103"/>
      <path id="DejaVuSans-32"/>
      <path d="M 9.8125 72.90625 
L 19.671875 72.90625 
L 19.671875 0 
L 9.8125 0 
z
" id="DejaVuSans-73"/>
      <path d="M 19.671875 64.796875 
L 19.671875 8.109375 
L 31.59375 8.109375 
Q 46.6875 8.109375 53.6875 14.9375 
Q 60.6875 21.78125 60.6875 36.53125 
Q 60.6875 51.171875 53.6875 57.984375 
Q 46.6875 64.796875 31.59375 64.796875 
z
M 9.8125 72.90625 
L 30.078125 72.90625 
Q 51.265625 72.90625 61.171875 64.09375 
Q 71.09375 55.28125 71.09375 36.53125 
Q 71.09375 17.671875 61.125 8.828125 
Q 51.171875 0 30.078125 0 
L 9.8125 0 
z
" id="DejaVuSans-68"/>
     </defs>
     <g transform="translate(14.798438 198.4875)rotate(-90)scale(0.1 -0.1)">
      <use xlink:href="#DejaVuSans-66"/>
      <use x="68.603516" xlink:href="#DejaVuSans-117"/>
      <use x="131.982422" xlink:href="#DejaVuSans-103"/>
      <use x="195.458984" xlink:href="#DejaVuSans-32"/>
      <use x="227.246094" xlink:href="#DejaVuSans-73"/>
      <use x="256.738281" xlink:href="#DejaVuSans-68"/>
     </g>
    </g>
   </g>
   <g id="line2d_24">
    <path clip-path="url(#p06c04042e1)" d="M 303.93116 288.06 
L 303.93116 260.34 
L 432.77998 260.34 
L 432.77998 288.06 
L 303.93116 288.06 
" style="fill:none;stroke:#1f77b4;stroke-linecap:square;"/>
   </g>
   <g id="line2d_25">
    <path clip-path="url(#p06c04042e1)" d="M 303.93116 274.2 
L 290.552748 274.2 
" style="fill:none;stroke:#1f77b4;stroke-linecap:square;"/>
   </g>
   <g id="line2d_26">
    <path clip-path="url(#p06c04042e1)" d="M 432.77998 274.2 
L 432.77998 274.2 
" style="fill:none;stroke:#1f77b4;stroke-linecap:square;"/>
   </g>
   <g id="line2d_27">
    <path clip-path="url(#p06c04042e1)" d="M 290.552748 281.13 
L 290.552748 267.27 
" style="fill:none;stroke:#000000;stroke-linecap:square;"/>
   </g>
   <g id="line2d_28">
    <path clip-path="url(#p06c04042e1)" d="M 432.77998 281.13 
L 432.77998 267.27 
" style="fill:none;stroke:#000000;stroke-linecap:square;"/>
   </g>
   <g id="line2d_29">
    <defs>
     <path d="M 0 3 
C 0.795609 3 1.55874 2.683901 2.12132 2.12132 
C 2.683901 1.55874 3 0.795609 3 0 
C 3 -0.795609 2.683901 -1.55874 2.12132 -2.12132 
C 1.55874 -2.683901 0.795609 -3 0 -3 
C -0.795609 -3 -1.55874 -2.683901 -2.12132 -2.12132 
C -2.683901 -1.55874 -3 -0.795609 -3 0 
C -3 0.795609 -2.683901 1.55874 -2.12132 2.12132 
C -1.55874 2.683901 -0.795609 3 0 3 
z
" id="mb5250080f1" style="stroke:#000000;"/>
    </defs>
    <g clip-path="url(#p06c04042e1)">
     <use style="fill-opacity:0;stroke:#000000;" x="480.028703" xlink:href="#mb5250080f1" y="274.2"/>
     <use style="fill-opacity:0;stroke:#000000;" x="480.093845" xlink:href="#mb5250080f1" y="274.2"/>
    </g>
   </g>
   <g id="line2d_30">
    <path clip-path="url(#p06c04042e1)" d="M 129.831564 195.66 
L 129.831564 167.94 
L 129.831564 167.94 
L 129.831564 195.66 
L 129.831564 195.66 
" style="fill:none;stroke:#1f77b4;stroke-linecap:square;"/>
   </g>
   <g id="line2d_31">
    <path clip-path="url(#p06c04042e1)" d="M 129.831564 181.8 
L 129.831564 181.8 
" style="fill:none;stroke:#1f77b4;stroke-linecap:square;"/>
   </g>
   <g id="line2d_32">
    <path clip-path="url(#p06c04042e1)" d="M 129.831564 181.8 
L 129.831564 181.8 
" style="fill:none;stroke:#1f77b4;stroke-linecap:square;"/>
   </g>
   <g id="line2d_33">
    <path clip-path="url(#p06c04042e1)" d="M 129.831564 188.73 
L 129.831564 174.87 
" style="fill:none;stroke:#000000;stroke-linecap:square;"/>
   </g>
   <g id="line2d_34">
    <path clip-path="url(#p06c04042e1)" d="M 129.831564 188.73 
L 129.831564 174.87 
" style="fill:none;stroke:#000000;stroke-linecap:square;"/>
   </g>
   <g id="line2d_35">
    <g clip-path="url(#p06c04042e1)">
     <use style="fill-opacity:0;stroke:#000000;" x="136.785922" xlink:href="#mb5250080f1" y="181.8"/>
    </g>
   </g>
   <g id="line2d_36">
    <path clip-path="url(#p06c04042e1)" d="M 136.785922 103.26 
L 136.785922 75.54 
L 136.785922 75.54 
L 136.785922 103.26 
L 136.785922 103.26 
" style="fill:none;stroke:#1f77b4;stroke-linecap:square;"/>
   </g>
   <g id="line2d_37">
    <path clip-path="url(#p06c04042e1)" d="M 136.785922 89.4 
L 136.785922 89.4 
" style="fill:none;stroke:#1f77b4;stroke-linecap:square;"/>
   </g>
   <g id="line2d_38">
    <path clip-path="url(#p06c04042e1)" d="M 136.785922 89.4 
L 136.785922 89.4 
" style="fill:none;stroke:#1f77b4;stroke-linecap:square;"/>
   </g>
   <g id="line2d_39">
    <path clip-path="url(#p06c04042e1)" d="M 136.785922 96.33 
L 136.785922 82.47 
" style="fill:none;stroke:#000000;stroke-linecap:square;"/>
   </g>
   <g id="line2d_40">
    <path clip-path="url(#p06c04042e1)" d="M 136.785922 96.33 
L 136.785922 82.47 
" style="fill:none;stroke:#000000;stroke-linecap:square;"/>
   </g>
   <g id="line2d_41">
    <g clip-path="url(#p06c04042e1)">
     <use style="fill-opacity:0;stroke:#000000;" x="129.831564" xlink:href="#mb5250080f1" y="89.4"/>
     <use style="fill-opacity:0;stroke:#000000;" x="142.665747" xlink:href="#mb5250080f1" y="89.4"/>
    </g>
   </g>
   <g id="line2d_42">
    <path clip-path="url(#p06c04042e1)" d="M 423.380602 288.06 
L 423.380602 260.34 
" style="fill:none;stroke:#2ca02c;stroke-linecap:square;"/>
   </g>
   <g id="line2d_43">
    <path clip-path="url(#p06c04042e1)" d="M 129.831564 195.66 
L 129.831564 167.94 
" style="fill:none;stroke:#2ca02c;stroke-linecap:square;"/>
   </g>
   <g id="line2d_44">
    <path clip-path="url(#p06c04042e1)" d="M 136.785922 103.26 
L 136.785922 75.54 
" style="fill:none;stroke:#2ca02c;stroke-linecap:square;"/>
   </g>
   <g id="patch_3">
    <path d="M 68.442188 320.4 
L 68.442188 43.2 
" style="fill:none;stroke:#000000;stroke-linecap:square;stroke-linejoin:miter;stroke-width:0.8;"/>
   </g>
   <g id="patch_4">
    <path d="M 514.842188 320.4 
L 514.842188 43.2 
" style="fill:none;stroke:#000000;stroke-linecap:square;stroke-linejoin:miter;stroke-width:0.8;"/>
   </g>
   <g id="patch_5">
    <path d="M 68.442188 320.4 
L 514.842187 320.4 
" style="fill:none;stroke:#000000;stroke-linecap:square;stroke-linejoin:miter;stroke-width:0.8;"/>
   </g>
   <g id="patch_6">
    <path d="M 68.442188 43.2 
L 514.842187 43.2 
" style="fill:none;stroke:#000000;stroke-linecap:square;stroke-linejoin:miter;stroke-width:0.8;"/>
   </g>
  </g>
  <g id="text_21">
   <!-- triggered. Target: libxml2. Program: libxml2_xml_read_memory_fuzzer -->
   <defs>
    <path d="M 18.3125 70.21875 
L 18.3125 54.6875 
L 36.8125 54.6875 
L 36.8125 47.703125 
L 18.3125 47.703125 
L 18.3125 18.015625 
Q 18.3125 11.328125 20.140625 9.421875 
Q 21.96875 7.515625 27.59375 7.515625 
L 36.8125 7.515625 
L 36.8125 0 
L 27.59375 0 
Q 17.1875 0 13.234375 3.875 
Q 9.28125 7.765625 9.28125 18.015625 
L 9.28125 47.703125 
L 2.6875 47.703125 
L 2.6875 54.6875 
L 9.28125 54.6875 
L 9.28125 70.21875 
z
" id="DejaVuSans-116"/>
    <path d="M 41.109375 46.296875 
Q 39.59375 47.171875 37.8125 47.578125 
Q 36.03125 48 33.890625 48 
Q 26.265625 48 22.1875 43.046875 
Q 18.109375 38.09375 18.109375 28.8125 
L 18.109375 0 
L 9.078125 0 
L 9.078125 54.6875 
L 18.109375 54.6875 
L 18.109375 46.1875 
Q 20.953125 51.171875 25.484375 53.578125 
Q 30.03125 56 36.53125 56 
Q 37.453125 56 38.578125 55.875 
Q 39.703125 55.765625 41.0625 55.515625 
z
" id="DejaVuSans-114"/>
    <path d="M 10.6875 12.40625 
L 21 12.40625 
L 21 0 
L 10.6875 0 
z
" id="DejaVuSans-46"/>
    <path d="M 34.28125 27.484375 
Q 23.390625 27.484375 19.1875 25 
Q 14.984375 22.515625 14.984375 16.5 
Q 14.984375 11.71875 18.140625 8.90625 
Q 21.296875 6.109375 26.703125 6.109375 
Q 34.1875 6.109375 38.703125 11.40625 
Q 43.21875 16.703125 43.21875 25.484375 
L 43.21875 27.484375 
z
M 52.203125 31.203125 
L 52.203125 0 
L 43.21875 0 
L 43.21875 8.296875 
Q 40.140625 3.328125 35.546875 0.953125 
Q 30.953125 -1.421875 24.3125 -1.421875 
Q 15.921875 -1.421875 10.953125 3.296875 
Q 6 8.015625 6 15.921875 
Q 6 25.140625 12.171875 29.828125 
Q 18.359375 34.515625 30.609375 34.515625 
L 43.21875 34.515625 
L 43.21875 35.40625 
Q 43.21875 41.609375 39.140625 45 
Q 35.0625 48.390625 27.6875 48.390625 
Q 23 48.390625 18.546875 47.265625 
Q 14.109375 46.140625 10.015625 43.890625 
L 10.015625 52.203125 
Q 14.9375 54.109375 19.578125 55.046875 
Q 24.21875 56 28.609375 56 
Q 40.484375 56 46.34375 49.84375 
Q 52.203125 43.703125 52.203125 31.203125 
z
" id="DejaVuSans-97"/>
    <path d="M 11.71875 12.40625 
L 22.015625 12.40625 
L 22.015625 0 
L 11.71875 0 
z
M 11.71875 51.703125 
L 22.015625 51.703125 
L 22.015625 39.3125 
L 11.71875 39.3125 
z
" id="DejaVuSans-58"/>
    <path d="M 9.421875 75.984375 
L 18.40625 75.984375 
L 18.40625 0 
L 9.421875 0 
z
" id="DejaVuSans-108"/>
    <path d="M 48.6875 27.296875 
Q 48.6875 37.203125 44.609375 42.84375 
Q 40.53125 48.484375 33.40625 48.484375 
Q 26.265625 48.484375 22.1875 42.84375 
Q 18.109375 37.203125 18.109375 27.296875 
Q 18.109375 17.390625 22.1875 11.75 
Q 26.265625 6.109375 33.40625 6.109375 
Q 40.53125 6.109375 44.609375 11.75 
Q 48.6875 17.390625 48.6875 27.296875 
z
M 18.109375 46.390625 
Q 20.953125 51.265625 25.265625 53.625 
Q 29.59375 56 35.59375 56 
Q 45.5625 56 51.78125 48.09375 
Q 58.015625 40.1875 58.015625 27.296875 
Q 58.015625 14.40625 51.78125 6.484375 
Q 45.5625 -1.421875 35.59375 -1.421875 
Q 29.59375 -1.421875 25.265625 0.953125 
Q 20.953125 3.328125 18.109375 8.203125 
L 18.109375 0 
L 9.078125 0 
L 9.078125 75.984375 
L 18.109375 75.984375 
z
" id="DejaVuSans-98"/>
    <path d="M 54.890625 54.6875 
L 35.109375 28.078125 
L 55.90625 0 
L 45.3125 0 
L 29.390625 21.484375 
L 13.484375 0 
L 2.875 0 
L 24.125 28.609375 
L 4.6875 54.6875 
L 15.28125 54.6875 
L 29.78125 35.203125 
L 44.28125 54.6875 
z
" id="DejaVuSans-120"/>
    <path d="M 19.671875 64.796875 
L 19.671875 37.40625 
L 32.078125 37.40625 
Q 38.96875 37.40625 42.71875 40.96875 
Q 46.484375 44.53125 46.484375 51.125 
Q 46.484375 57.671875 42.71875 61.234375 
Q 38.96875 64.796875 32.078125 64.796875 
z
M 9.8125 72.90625 
L 32.078125 72.90625 
Q 44.34375 72.90625 50.609375 67.359375 
Q 56.890625 61.8125 56.890625 51.125 
Q 56.890625 40.328125 50.609375 34.8125 
Q 44.34375 29.296875 32.078125 29.296875 
L 19.671875 29.296875 
L 19.671875 0 
L 9.8125 0 
z
" id="DejaVuSans-80"/>
    <path d="M 30.609375 48.390625 
Q 23.390625 48.390625 19.1875 42.75 
Q 14.984375 37.109375 14.984375 27.296875 
Q 14.984375 17.484375 19.15625 11.84375 
Q 23.34375 6.203125 30.609375 6.203125 
Q 37.796875 6.203125 41.984375 11.859375 
Q 46.1875 17.53125 46.1875 27.296875 
Q 46.1875 37.015625 41.984375 42.703125 
Q 37.796875 48.390625 30.609375 48.390625 
z
M 30.609375 56 
Q 42.328125 56 49.015625 48.375 
Q 55.71875 40.765625 55.71875 27.296875 
Q 55.71875 13.875 49.015625 6.21875 
Q 42.328125 -1.421875 30.609375 -1.421875 
Q 18.84375 -1.421875 12.171875 6.21875 
Q 5.515625 13.875 5.515625 27.296875 
Q 5.515625 40.765625 12.171875 48.375 
Q 18.84375 56 30.609375 56 
z
" id="DejaVuSans-111"/>
    <path d="M 50.984375 -16.609375 
L 50.984375 -23.578125 
L -0.984375 -23.578125 
L -0.984375 -16.609375 
z
" id="DejaVuSans-95"/>
    <path d="M 32.171875 -5.078125 
Q 28.375 -14.84375 24.75 -17.8125 
Q 21.140625 -20.796875 15.09375 -20.796875 
L 7.90625 -20.796875 
L 7.90625 -13.28125 
L 13.1875 -13.28125 
Q 16.890625 -13.28125 18.9375 -11.515625 
Q 21 -9.765625 23.484375 -3.21875 
L 25.09375 0.875 
L 2.984375 54.6875 
L 12.5 54.6875 
L 29.59375 11.921875 
L 46.6875 54.6875 
L 56.203125 54.6875 
z
" id="DejaVuSans-121"/>
    <path d="M 37.109375 75.984375 
L 37.109375 68.5 
L 28.515625 68.5 
Q 23.6875 68.5 21.796875 66.546875 
Q 19.921875 64.59375 19.921875 59.515625 
L 19.921875 54.6875 
L 34.71875 54.6875 
L 34.71875 47.703125 
L 19.921875 47.703125 
L 19.921875 0 
L 10.890625 0 
L 10.890625 47.703125 
L 2.296875 47.703125 
L 2.296875 54.6875 
L 10.890625 54.6875 
L 10.890625 58.5 
Q 10.890625 67.625 15.140625 71.796875 
Q 19.390625 75.984375 28.609375 75.984375 
z
" id="DejaVuSans-102"/>
    <path d="M 5.515625 54.6875 
L 48.1875 54.6875 
L 48.1875 46.484375 
L 14.40625 7.171875 
L 48.1875 7.171875 
L 48.1875 0 
L 4.296875 0 
L 4.296875 8.203125 
L 38.09375 47.515625 
L 5.515625 47.515625 
z
" id="DejaVuSans-122"/>
   </defs>
   <g transform="translate(73.393125 16.318125)scale(0.12 -0.12)">
    <use xlink:href="#DejaVuSans-116"/>
    <use x="39.208984" xlink:href="#DejaVuSans-114"/>
    <use x="80.322266" xlink:href="#DejaVuSans-105"/>
    <use x="108.105469" xlink:href="#DejaVuSans-103"/>
    <use x="171.582031" xlink:href="#DejaVuSans-103"/>
    <use x="235.058594" xlink:href="#DejaVuSans-101"/>
    <use x="296.582031" xlink:href="#DejaVuSans-114"/>
    <use x="335.445312" xlink:href="#DejaVuSans-101"/>
    <use x="396.96875" xlink:href="#DejaVuSans-100"/>
    <use x="460.445312" xlink:href="#DejaVuSans-46"/>
    <use x="492.232422" xlink:href="#DejaVuSans-32"/>
    <use x="524.019531" xlink:href="#DejaVuSans-84"/>
    <use x="568.603516" xlink:href="#DejaVuSans-97"/>
    <use x="629.882812" xlink:href="#DejaVuSans-114"/>
    <use x="669.246094" xlink:href="#DejaVuSans-103"/>
    <use x="732.722656" xlink:href="#DejaVuSans-101"/>
    <use x="794.246094" xlink:href="#DejaVuSans-116"/>
    <use x="833.455078" xlink:href="#DejaVuSans-58"/>
    <use x="867.146484" xlink:href="#DejaVuSans-32"/>
    <use x="898.933594" xlink:href="#DejaVuSans-108"/>
    <use x="926.716797" xlink:href="#DejaVuSans-105"/>
    <use x="954.5" xlink:href="#DejaVuSans-98"/>
    <use x="1017.976562" xlink:href="#DejaVuSans-120"/>
    <use x="1077.15625" xlink:href="#DejaVuSans-109"/>
    <use x="1174.568359" xlink:href="#DejaVuSans-108"/>
    <use x="1202.351562" xlink:href="#DejaVuSans-50"/>
    <use x="1265.974609" xlink:href="#DejaVuSans-46"/>
    <use x="1297.761719" xlink:href="#DejaVuSans-32"/>
    <use x="1329.548828" xlink:href="#DejaVuSans-80"/>
    <use x="1388.101562" xlink:href="#DejaVuSans-114"/>
    <use x="1426.964844" xlink:href="#DejaVuSans-111"/>
    <use x="1488.146484" xlink:href="#DejaVuSans-103"/>
    <use x="1551.623047" xlink:href="#DejaVuSans-114"/>
    <use x="1592.736328" xlink:href="#DejaVuSans-97"/>
    <use x="1654.015625" xlink:href="#DejaVuSans-109"/>
    <use x="1751.427734" xlink:href="#DejaVuSans-58"/>
    <use x="1785.119141" xlink:href="#DejaVuSans-32"/>
    <use x="1816.90625" xlink:href="#DejaVuSans-108"/>
    <use x="1844.689453" xlink:href="#DejaVuSans-105"/>
    <use x="1872.472656" xlink:href="#DejaVuSans-98"/>
    <use x="1935.949219" xlink:href="#DejaVuSans-120"/>
    <use x="1995.128906" xlink:href="#DejaVuSans-109"/>
    <use x="2092.541016" xlink:href="#DejaVuSans-108"/>
    <use x="2120.324219" xlink:href="#DejaVuSans-50"/>
    <use x="2183.947266" xlink:href="#DejaVuSans-95"/>
    <use x="2233.947266" xlink:href="#DejaVuSans-120"/>
    <use x="2293.126953" xlink:href="#DejaVuSans-109"/>
    <use x="2390.539062" xlink:href="#DejaVuSans-108"/>
    <use x="2418.322266" xlink:href="#DejaVuSans-95"/>
    <use x="2468.322266" xlink:href="#DejaVuSans-114"/>
    <use x="2507.185547" xlink:href="#DejaVuSans-101"/>
    <use x="2568.708984" xlink:href="#DejaVuSans-97"/>
    <use x="2629.988281" xlink:href="#DejaVuSans-100"/>
    <use x="2693.464844" xlink:href="#DejaVuSans-95"/>
    <use x="2743.464844" xlink:href="#DejaVuSans-109"/>
    <use x="2840.876953" xlink:href="#DejaVuSans-101"/>
    <use x="2902.400391" xlink:href="#DejaVuSans-109"/>
    <use x="2999.8125" xlink:href="#DejaVuSans-111"/>
    <use x="3060.994141" xlink:href="#DejaVuSans-114"/>
    <use x="3102.107422" xlink:href="#DejaVuSans-121"/>
    <use x="3161.287109" xlink:href="#DejaVuSans-95"/>
    <use x="3211.287109" xlink:href="#DejaVuSans-102"/>
    <use x="3246.492188" xlink:href="#DejaVuSans-117"/>
    <use x="3309.871094" xlink:href="#DejaVuSans-122"/>
    <use x="3362.361328" xlink:href="#DejaVuSans-122"/>
    <use x="3414.851562" xlink:href="#DejaVuSans-101"/>
    <use x="3476.375" xlink:href="#DejaVuSans-114"/>
   </g>
  </g>
 </g>
 <defs>
  <clipPath id="p06c04042e1">
   <rect height="277.2" width="446.4" x="68.442188" y="43.2"/>
  </clipPath>
 </defs>
</svg>
