<?xml version="1.0" encoding="utf-8" standalone="no"?>
<!DOCTYPE svg PUBLIC "-//W3C//DTD SVG 1.1//EN"
  "http://www.w3.org/Graphics/SVG/1.1/DTD/svg11.dtd">
<!-- Created with matplotlib (https://matplotlib.org/) -->
<svg height="377.39625pt" version="1.1" viewBox="0 0 805.814063 377.39625" width="805.814063pt" xmlns="http://www.w3.org/2000/svg" xmlns:xlink="http://www.w3.org/1999/xlink">
 <defs>
  <style type="text/css">
*{stroke-linecap:butt;stroke-linejoin:round;}
  </style>
 </defs>
 <g id="figure_1">
  <g id="patch_1">
   <path d="M 0 377.39625 
L 805.814063 377.39625 
L 805.814063 0 
L 0 0 
z
" style="fill:#ffffff;"/>
  </g>
  <g id="axes_1">
   <g id="patch_2">
    <path d="M 34.240625 339.84 
L 703.840625 339.84 
L 703.840625 7.2 
L 34.240625 7.2 
z
" style="fill:#ffffff;"/>
   </g>
   <g id="patch_3">
    <path clip-path="url(#p018926758a)" d="M 57.172132 339.84 
L 69.402269 339.84 
L 69.402269 256.809733 
L 57.172132 256.809733 
z
" style="fill:#1f77b4;"/>
   </g>
   <g id="patch_4">
    <path clip-path="url(#p018926758a)" d="M 148.898159 339.84 
L 161.128296 339.84 
L 161.128296 152.119396 
L 148.898159 152.119396 
z
" style="fill:#1f77b4;"/>
   </g>
   <g id="patch_5">
    <path clip-path="url(#p018926758a)" d="M 240.624187 339.84 
L 252.854324 339.84 
L 252.854324 242.369686 
L 240.624187 242.369686 
z
" style="fill:#1f77b4;"/>
   </g>
   <g id="patch_6">
    <path clip-path="url(#p018926758a)" d="M 332.350214 339.84 
L 344.580351 339.84 
L 344.580351 217.099605 
L 332.350214 217.099605 
z
" style="fill:#1f77b4;"/>
   </g>
   <g id="patch_7">
    <path clip-path="url(#p018926758a)" d="M 424.076241 339.84 
L 436.306378 339.84 
L 436.306378 231.539652 
L 424.076241 231.539652 
z
" style="fill:#1f77b4;"/>
   </g>
   <g id="patch_8">
    <path clip-path="url(#p018926758a)" d="M 515.802269 339.84 
L 528.032406 339.84 
L 528.032406 195.439535 
L 515.802269 195.439535 
z
" style="fill:#1f77b4;"/>
   </g>
   <g id="patch_9">
    <path clip-path="url(#p018926758a)" d="M 607.528296 339.84 
L 619.758433 339.84 
L 619.758433 289.299837 
L 607.528296 289.299837 
z
" style="fill:#1f77b4;"/>
   </g>
   <g id="patch_10">
    <path clip-path="url(#p018926758a)" d="M 69.402269 339.84 
L 81.632406 339.84 
L 81.632406 285.689826 
L 69.402269 285.689826 
z
" style="fill:#ff7f0e;"/>
   </g>
   <g id="patch_11">
    <path clip-path="url(#p018926758a)" d="M 161.128296 339.84 
L 173.358433 339.84 
L 173.358433 166.559443 
L 161.128296 166.559443 
z
" style="fill:#ff7f0e;"/>
   </g>
   <g id="patch_12">
    <path clip-path="url(#p018926758a)" d="M 252.854324 339.84 
L 265.084461 339.84 
L 265.084461 231.539652 
L 252.854324 231.539652 
z
" style="fill:#ff7f0e;"/>
   </g>
   <g id="patch_13">
    <path clip-path="url(#p018926758a)" d="M 344.580351 339.84 
L 356.810488 339.84 
L 356.810488 195.439535 
L 344.580351 195.439535 
z
" style="fill:#ff7f0e;"/>
   </g>
   <g id="patch_14">
    <path clip-path="url(#p018926758a)" d="M 436.306378 339.84 
L 448.536515 339.84 
L 448.536515 231.539652 
L 436.306378 231.539652 
z
" style="fill:#ff7f0e;"/>
   </g>
   <g id="patch_15">
    <path clip-path="url(#p018926758a)" d="M 528.032406 339.84 
L 540.262543 339.84 
L 540.262543 173.779466 
L 528.032406 173.779466 
z
" style="fill:#ff7f0e;"/>
   </g>
   <g id="patch_16">
    <path clip-path="url(#p018926758a)" d="M 619.758433 339.84 
L 631.98857 339.84 
L 631.98857 253.199721 
L 619.758433 253.199721 
z
" style="fill:#ff7f0e;"/>
   </g>
   <g id="patch_17">
    <path clip-path="url(#p018926758a)" d="M 81.632406 339.84 
L 93.862543 339.84 
L 93.862543 289.299837 
L 81.632406 289.299837 
z
" style="fill:#2ca02c;"/>
   </g>
   <g id="patch_18">
    <path clip-path="url(#p018926758a)" d="M 173.358433 339.84 
L 185.58857 339.84 
L 185.58857 105.189245 
L 173.358433 105.189245 
z
" style="fill:#2ca02c;"/>
   </g>
   <g id="patch_19">
    <path clip-path="url(#p018926758a)" d="M 265.084461 339.84 
L 277.314598 339.84 
L 277.314598 231.539652 
L 265.084461 231.539652 
z
" style="fill:#2ca02c;"/>
   </g>
   <g id="patch_20">
    <path clip-path="url(#p018926758a)" d="M 356.810488 339.84 
L 369.040625 339.84 
L 369.040625 217.099605 
L 356.810488 217.099605 
z
" style="fill:#2ca02c;"/>
   </g>
   <g id="patch_21">
    <path clip-path="url(#p018926758a)" d="M 448.536515 339.84 
L 460.766652 339.84 
L 460.766652 231.539652 
L 448.536515 231.539652 
z
" style="fill:#2ca02c;"/>
   </g>
   <g id="patch_22">
    <path clip-path="url(#p018926758a)" d="M 540.262543 339.84 
L 552.49268 339.84 
L 552.49268 195.439535 
L 540.262543 195.439535 
z
" style="fill:#2ca02c;"/>
   </g>
   <g id="patch_23">
    <path clip-path="url(#p018926758a)" d="M 631.98857 339.84 
L 644.218707 339.84 
L 644.218707 249.58971 
L 631.98857 249.58971 
z
" style="fill:#2ca02c;"/>
   </g>
   <g id="patch_24">
    <path clip-path="url(#p018926758a)" d="M 93.862543 339.84 
L 106.09268 339.84 
L 106.09268 195.439535 
L 93.862543 195.439535 
z
" style="fill:#d62728;"/>
   </g>
   <g id="patch_25">
    <path clip-path="url(#p018926758a)" d="M 185.58857 339.84 
L 197.818707 339.84 
L 197.818707 97.969222 
L 185.58857 97.969222 
z
" style="fill:#d62728;"/>
   </g>
   <g id="patch_26">
    <path clip-path="url(#p018926758a)" d="M 277.314598 339.84 
L 289.544735 339.84 
L 289.544735 155.729408 
L 277.314598 155.729408 
z
" style="fill:#d62728;"/>
   </g>
   <g id="patch_27">
    <path clip-path="url(#p018926758a)" d="M 369.040625 339.84 
L 381.270762 339.84 
L 381.270762 249.58971 
L 369.040625 249.58971 
z
" style="fill:#d62728;"/>
   </g>
   <g id="patch_28">
    <path clip-path="url(#p018926758a)" d="M 460.766652 339.84 
L 472.996789 339.84 
L 472.996789 231.539652 
L 460.766652 231.539652 
z
" style="fill:#d62728;"/>
   </g>
   <g id="patch_29">
    <path clip-path="url(#p018926758a)" d="M 552.49268 339.84 
L 564.722817 339.84 
L 564.722817 173.779466 
L 552.49268 173.779466 
z
" style="fill:#d62728;"/>
   </g>
   <g id="patch_30">
    <path clip-path="url(#p018926758a)" d="M 644.218707 339.84 
L 656.448844 339.84 
L 656.448844 195.439535 
L 644.218707 195.439535 
z
" style="fill:#d62728;"/>
   </g>
   <g id="patch_31">
    <path clip-path="url(#p018926758a)" d="M 106.09268 339.84 
L 118.322817 339.84 
L 118.322817 264.029756 
L 106.09268 264.029756 
z
" style="fill:#9467bd;"/>
   </g>
   <g id="patch_32">
    <path clip-path="url(#p018926758a)" d="M 197.818707 339.84 
L 210.048844 339.84 
L 210.048844 90.749199 
L 197.818707 90.749199 
z
" style="fill:#9467bd;"/>
   </g>
   <g id="patch_33">
    <path clip-path="url(#p018926758a)" d="M 289.544735 339.84 
L 301.774872 339.84 
L 301.774872 130.459326 
L 289.544735 130.459326 
z
" style="fill:#9467bd;"/>
   </g>
   <g id="patch_34">
    <path clip-path="url(#p018926758a)" d="M 381.270762 339.84 
L 393.500899 339.84 
L 393.500899 199.049547 
L 381.270762 199.049547 
z
" style="fill:#9467bd;"/>
   </g>
   <g id="patch_35">
    <path clip-path="url(#p018926758a)" d="M 472.996789 339.84 
L 485.226926 339.84 
L 485.226926 231.539652 
L 472.996789 231.539652 
z
" style="fill:#9467bd;"/>
   </g>
   <g id="patch_36">
    <path clip-path="url(#p018926758a)" d="M 564.722817 339.84 
L 576.952954 339.84 
L 576.952954 54.649082 
L 564.722817 54.649082 
z
" style="fill:#9467bd;"/>
   </g>
   <g id="patch_37">
    <path clip-path="url(#p018926758a)" d="M 656.448844 339.84 
L 668.678981 339.84 
L 668.678981 148.509384 
L 656.448844 148.509384 
z
" style="fill:#9467bd;"/>
   </g>
   <g id="patch_38">
    <path clip-path="url(#p018926758a)" d="M 118.322817 339.84 
L 130.552954 339.84 
L 130.552954 209.879582 
L 118.322817 209.879582 
z
" style="fill:#8c564b;"/>
   </g>
   <g id="patch_39">
    <path clip-path="url(#p018926758a)" d="M 210.048844 339.84 
L 222.278981 339.84 
L 222.278981 126.849315 
L 210.048844 126.849315 
z
" style="fill:#8c564b;"/>
   </g>
   <g id="patch_40">
    <path clip-path="url(#p018926758a)" d="M 301.774872 339.84 
L 314.005009 339.84 
L 314.005009 231.539652 
L 301.774872 231.539652 
z
" style="fill:#8c564b;"/>
   </g>
   <g id="patch_41">
    <path clip-path="url(#p018926758a)" d="M 393.500899 339.84 
L 405.731036 339.84 
L 405.731036 231.539652 
L 393.500899 231.539652 
z
" style="fill:#8c564b;"/>
   </g>
   <g id="patch_42">
    <path clip-path="url(#p018926758a)" d="M 485.226926 339.84 
L 497.457063 339.84 
L 497.457063 339.84 
L 485.226926 339.84 
z
" style="fill:#8c564b;"/>
   </g>
   <g id="patch_43">
    <path clip-path="url(#p018926758a)" d="M 576.952954 339.84 
L 589.183091 339.84 
L 589.183091 184.609501 
L 576.952954 184.609501 
z
" style="fill:#8c564b;"/>
   </g>
   <g id="patch_44">
    <path clip-path="url(#p018926758a)" d="M 668.678981 339.84 
L 680.909118 339.84 
L 680.909118 296.519861 
L 668.678981 296.519861 
z
" style="fill:#8c564b;"/>
   </g>
   <g id="matplotlib.axis_1">
    <g id="xtick_1">
     <g id="line2d_1">
      <defs>
       <path d="M 0 0 
L 0 3.5 
" id="mcd78e1fcc5" style="stroke:#000000;stroke-width:0.8;"/>
      </defs>
      <g>
       <use style="stroke:#000000;stroke-width:0.8;" x="93.862543" xlink:href="#mcd78e1fcc5" y="339.84"/>
      </g>
     </g>
     <g id="text_1">
      <!-- libpng -->
      <defs>
       <path d="M 9.421875 75.984375 
L 18.40625 75.984375 
L 18.40625 0 
L 9.421875 0 
z
" id="DejaVuSans-108"/>
       <path d="M 9.421875 54.6875 
L 18.40625 54.6875 
L 18.40625 0 
L 9.421875 0 
z
M 9.421875 75.984375 
L 18.40625 75.984375 
L 18.40625 64.59375 
L 9.421875 64.59375 
z
" id="DejaVuSans-105"/>
       <path d="M 48.6875 27.296875 
Q 48.6875 37.203125 44.609375 42.84375 
Q 40.53125 48.484375 33.40625 48.484375 
Q 26.265625 48.484375 22.1875 42.84375 
Q 18.109375 37.203125 18.109375 27.296875 
Q 18.109375 17.390625 22.1875 11.75 
Q 26.265625 6.109375 33.40625 6.109375 
Q 40.53125 6.109375 44.609375 11.75 
Q 48.6875 17.390625 48.6875 27.296875 
z
M 18.109375 46.390625 
Q 20.953125 51.265625 25.265625 53.625 
Q 29.59375 56 35.59375 56 
Q 45.5625 56 51.78125 48.09375 
Q 58.015625 40.1875 58.015625 27.296875 
Q 58.015625 14.40625 51.78125 6.484375 
Q 45.5625 -1.421875 35.59375 -1.421875 
Q 29.59375 -1.421875 25.265625 0.953125 
Q 20.953125 3.328125 18.109375 8.203125 
L 18.109375 0 
L 9.078125 0 
L 9.078125 75.984375 
L 18.109375 75.984375 
z
" id="DejaVuSans-98"/>
       <path d="M 18.109375 8.203125 
L 18.109375 -20.796875 
L 9.078125 -20.796875 
L 9.078125 54.6875 
L 18.109375 54.6875 
L 18.109375 46.390625 
Q 20.953125 51.265625 25.265625 53.625 
Q 29.59375 56 35.59375 56 
Q 45.5625 56 51.78125 48.09375 
Q 58.015625 40.1875 58.015625 27.296875 
Q 58.015625 14.40625 51.78125 6.484375 
Q 45.5625 -1.421875 35.59375 -1.421875 
Q 29.59375 -1.421875 25.265625 0.953125 
Q 20.953125 3.328125 18.109375 8.203125 
z
M 48.6875 27.296875 
Q 48.6875 37.203125 44.609375 42.84375 
Q 40.53125 48.484375 33.40625 48.484375 
Q 26.265625 48.484375 22.1875 42.84375 
Q 18.109375 37.203125 18.109375 27.296875 
Q 18.109375 17.390625 22.1875 11.75 
Q 26.265625 6.109375 33.40625 6.109375 
Q 40.53125 6.109375 44.609375 11.75 
Q 48.6875 17.390625 48.6875 27.296875 
z
" id="DejaVuSans-112"/>
       <path d="M 54.890625 33.015625 
L 54.890625 0 
L 45.90625 0 
L 45.90625 32.71875 
Q 45.90625 40.484375 42.875 44.328125 
Q 39.84375 48.1875 33.796875 48.1875 
Q 26.515625 48.1875 22.3125 43.546875 
Q 18.109375 38.921875 18.109375 30.90625 
L 18.109375 0 
L 9.078125 0 
L 9.078125 54.6875 
L 18.109375 54.6875 
L 18.109375 46.1875 
Q 21.34375 51.125 25.703125 53.5625 
Q 30.078125 56 35.796875 56 
Q 45.21875 56 50.046875 50.171875 
Q 54.890625 44.34375 54.890625 33.015625 
z
" id="DejaVuSans-110"/>
       <path d="M 45.40625 27.984375 
Q 45.40625 37.75 41.375 43.109375 
Q 37.359375 48.484375 30.078125 48.484375 
Q 22.859375 48.484375 18.828125 43.109375 
Q 14.796875 37.75 14.796875 27.984375 
Q 14.796875 18.265625 18.828125 12.890625 
Q 22.859375 7.515625 30.078125 7.515625 
Q 37.359375 7.515625 41.375 12.890625 
Q 45.40625 18.265625 45.40625 27.984375 
z
M 54.390625 6.78125 
Q 54.390625 -7.171875 48.1875 -13.984375 
Q 42 -20.796875 29.203125 -20.796875 
Q 24.46875 -20.796875 20.265625 -20.09375 
Q 16.0625 -19.390625 12.109375 -17.921875 
L 12.109375 -9.1875 
Q 16.0625 -11.328125 19.921875 -12.34375 
Q 23.78125 -13.375 27.78125 -13.375 
Q 36.625 -13.375 41.015625 -8.765625 
Q 45.40625 -4.15625 45.40625 5.171875 
L 45.40625 9.625 
Q 42.625 4.78125 38.28125 2.390625 
Q 33.9375 0 27.875 0 
Q 17.828125 0 11.671875 7.65625 
Q 5.515625 15.328125 5.515625 27.984375 
Q 5.515625 40.671875 11.671875 48.328125 
Q 17.828125 56 27.875 56 
Q 33.9375 56 38.28125 53.609375 
Q 42.625 51.21875 45.40625 46.390625 
L 45.40625 54.6875 
L 54.390625 54.6875 
z
" id="DejaVuSans-103"/>
      </defs>
      <g transform="translate(78.393012 354.438437)scale(0.1 -0.1)">
       <use xlink:href="#DejaVuSans-108"/>
       <use x="27.783203" xlink:href="#DejaVuSans-105"/>
       <use x="55.566406" xlink:href="#DejaVuSans-98"/>
       <use x="119.042969" xlink:href="#DejaVuSans-112"/>
       <use x="182.519531" xlink:href="#DejaVuSans-110"/>
       <use x="245.898438" xlink:href="#DejaVuSans-103"/>
      </g>
     </g>
    </g>
    <g id="xtick_2">
     <g id="line2d_2">
      <g>
       <use style="stroke:#000000;stroke-width:0.8;" x="185.58857" xlink:href="#mcd78e1fcc5" y="339.84"/>
      </g>
     </g>
     <g id="text_2">
      <!-- libtiff -->
      <defs>
       <path d="M 18.3125 70.21875 
L 18.3125 54.6875 
L 36.8125 54.6875 
L 36.8125 47.703125 
L 18.3125 47.703125 
L 18.3125 18.015625 
Q 18.3125 11.328125 20.140625 9.421875 
Q 21.96875 7.515625 27.59375 7.515625 
L 36.8125 7.515625 
L 36.8125 0 
L 27.59375 0 
Q 17.1875 0 13.234375 3.875 
Q 9.28125 7.765625 9.28125 18.015625 
L 9.28125 47.703125 
L 2.6875 47.703125 
L 2.6875 54.6875 
L 9.28125 54.6875 
L 9.28125 70.21875 
z
" id="DejaVuSans-116"/>
       <path d="M 37.109375 75.984375 
L 37.109375 68.5 
L 28.515625 68.5 
Q 23.6875 68.5 21.796875 66.546875 
Q 19.921875 64.59375 19.921875 59.515625 
L 19.921875 54.6875 
L 34.71875 54.6875 
L 34.71875 47.703125 
L 19.921875 47.703125 
L 19.921875 0 
L 10.890625 0 
L 10.890625 47.703125 
L 2.296875 47.703125 
L 2.296875 54.6875 
L 10.890625 54.6875 
L 10.890625 58.5 
Q 10.890625 67.625 15.140625 71.796875 
Q 19.390625 75.984375 28.609375 75.984375 
z
" id="DejaVuSans-102"/>
      </defs>
      <g transform="translate(172.766695 354.438437)scale(0.1 -0.1)">
       <use xlink:href="#DejaVuSans-108"/>
       <use x="27.783203" xlink:href="#DejaVuSans-105"/>
       <use x="55.566406" xlink:href="#DejaVuSans-98"/>
       <use x="119.042969" xlink:href="#DejaVuSans-116"/>
       <use x="158.251953" xlink:href="#DejaVuSans-105"/>
       <use x="186.035156" xlink:href="#DejaVuSans-102"/>
       <use x="221.240234" xlink:href="#DejaVuSans-102"/>
      </g>
     </g>
    </g>
    <g id="xtick_3">
     <g id="line2d_3">
      <g>
       <use style="stroke:#000000;stroke-width:0.8;" x="277.314598" xlink:href="#mcd78e1fcc5" y="339.84"/>
      </g>
     </g>
     <g id="text_3">
      <!-- libxml2 -->
      <defs>
       <path d="M 54.890625 54.6875 
L 35.109375 28.078125 
L 55.90625 0 
L 45.3125 0 
L 29.390625 21.484375 
L 13.484375 0 
L 2.875 0 
L 24.125 28.609375 
L 4.6875 54.6875 
L 15.28125 54.6875 
L 29.78125 35.203125 
L 44.28125 54.6875 
z
" id="DejaVuSans-120"/>
       <path d="M 52 44.1875 
Q 55.375 50.25 60.0625 53.125 
Q 64.75 56 71.09375 56 
Q 79.640625 56 84.28125 50.015625 
Q 88.921875 44.046875 88.921875 33.015625 
L 88.921875 0 
L 79.890625 0 
L 79.890625 32.71875 
Q 79.890625 40.578125 77.09375 44.375 
Q 74.3125 48.1875 68.609375 48.1875 
Q 61.625 48.1875 57.5625 43.546875 
Q 53.515625 38.921875 53.515625 30.90625 
L 53.515625 0 
L 44.484375 0 
L 44.484375 32.71875 
Q 44.484375 40.625 41.703125 44.40625 
Q 38.921875 48.1875 33.109375 48.1875 
Q 26.21875 48.1875 22.15625 43.53125 
Q 18.109375 38.875 18.109375 30.90625 
L 18.109375 0 
L 9.078125 0 
L 9.078125 54.6875 
L 18.109375 54.6875 
L 18.109375 46.1875 
Q 21.1875 51.21875 25.484375 53.609375 
Q 29.78125 56 35.6875 56 
Q 41.65625 56 45.828125 52.96875 
Q 50 49.953125 52 44.1875 
z
" id="DejaVuSans-109"/>
       <path d="M 19.1875 8.296875 
L 53.609375 8.296875 
L 53.609375 0 
L 7.328125 0 
L 7.328125 8.296875 
Q 12.9375 14.109375 22.625 23.890625 
Q 32.328125 33.6875 34.8125 36.53125 
Q 39.546875 41.84375 41.421875 45.53125 
Q 43.3125 49.21875 43.3125 52.78125 
Q 43.3125 58.59375 39.234375 62.25 
Q 35.15625 65.921875 28.609375 65.921875 
Q 23.96875 65.921875 18.8125 64.3125 
Q 13.671875 62.703125 7.8125 59.421875 
L 7.8125 69.390625 
Q 13.765625 71.78125 18.9375 73 
Q 24.125 74.21875 28.421875 74.21875 
Q 39.75 74.21875 46.484375 68.546875 
Q 53.21875 62.890625 53.21875 53.421875 
Q 53.21875 48.921875 51.53125 44.890625 
Q 49.859375 40.875 45.40625 35.40625 
Q 44.1875 33.984375 37.640625 27.21875 
Q 31.109375 20.453125 19.1875 8.296875 
z
" id="DejaVuSans-50"/>
      </defs>
      <g transform="translate(258.962254 354.438437)scale(0.1 -0.1)">
       <use xlink:href="#DejaVuSans-108"/>
       <use x="27.783203" xlink:href="#DejaVuSans-105"/>
       <use x="55.566406" xlink:href="#DejaVuSans-98"/>
       <use x="119.042969" xlink:href="#DejaVuSans-120"/>
       <use x="178.222656" xlink:href="#DejaVuSans-109"/>
       <use x="275.634766" xlink:href="#DejaVuSans-108"/>
       <use x="303.417969" xlink:href="#DejaVuSans-50"/>
      </g>
     </g>
    </g>
    <g id="xtick_4">
     <g id="line2d_4">
      <g>
       <use style="stroke:#000000;stroke-width:0.8;" x="369.040625" xlink:href="#mcd78e1fcc5" y="339.84"/>
      </g>
     </g>
     <g id="text_4">
      <!-- openssl -->
      <defs>
       <path d="M 30.609375 48.390625 
Q 23.390625 48.390625 19.1875 42.75 
Q 14.984375 37.109375 14.984375 27.296875 
Q 14.984375 17.484375 19.15625 11.84375 
Q 23.34375 6.203125 30.609375 6.203125 
Q 37.796875 6.203125 41.984375 11.859375 
Q 46.1875 17.53125 46.1875 27.296875 
Q 46.1875 37.015625 41.984375 42.703125 
Q 37.796875 48.390625 30.609375 48.390625 
z
M 30.609375 56 
Q 42.328125 56 49.015625 48.375 
Q 55.71875 40.765625 55.71875 27.296875 
Q 55.71875 13.875 49.015625 6.21875 
Q 42.328125 -1.421875 30.609375 -1.421875 
Q 18.84375 -1.421875 12.171875 6.21875 
Q 5.515625 13.875 5.515625 27.296875 
Q 5.515625 40.765625 12.171875 48.375 
Q 18.84375 56 30.609375 56 
z
" id="DejaVuSans-111"/>
       <path d="M 56.203125 29.59375 
L 56.203125 25.203125 
L 14.890625 25.203125 
Q 15.484375 15.921875 20.484375 11.0625 
Q 25.484375 6.203125 34.421875 6.203125 
Q 39.59375 6.203125 44.453125 7.46875 
Q 49.3125 8.734375 54.109375 11.28125 
L 54.109375 2.78125 
Q 49.265625 0.734375 44.1875 -0.34375 
Q 39.109375 -1.421875 33.890625 -1.421875 
Q 20.796875 -1.421875 13.15625 6.1875 
Q 5.515625 13.8125 5.515625 26.8125 
Q 5.515625 40.234375 12.765625 48.109375 
Q 20.015625 56 32.328125 56 
Q 43.359375 56 49.78125 48.890625 
Q 56.203125 41.796875 56.203125 29.59375 
z
M 47.21875 32.234375 
Q 47.125 39.59375 43.09375 43.984375 
Q 39.0625 48.390625 32.421875 48.390625 
Q 24.90625 48.390625 20.390625 44.140625 
Q 15.875 39.890625 15.1875 32.171875 
z
" id="DejaVuSans-101"/>
       <path d="M 44.28125 53.078125 
L 44.28125 44.578125 
Q 40.484375 46.53125 36.375 47.5 
Q 32.28125 48.484375 27.875 48.484375 
Q 21.1875 48.484375 17.84375 46.4375 
Q 14.5 44.390625 14.5 40.28125 
Q 14.5 37.15625 16.890625 35.375 
Q 19.28125 33.59375 26.515625 31.984375 
L 29.59375 31.296875 
Q 39.15625 29.25 43.1875 25.515625 
Q 47.21875 21.78125 47.21875 15.09375 
Q 47.21875 7.46875 41.1875 3.015625 
Q 35.15625 -1.421875 24.609375 -1.421875 
Q 20.21875 -1.421875 15.453125 -0.5625 
Q 10.6875 0.296875 5.421875 2 
L 5.421875 11.28125 
Q 10.40625 8.6875 15.234375 7.390625 
Q 20.0625 6.109375 24.8125 6.109375 
Q 31.15625 6.109375 34.5625 8.28125 
Q 37.984375 10.453125 37.984375 14.40625 
Q 37.984375 18.0625 35.515625 20.015625 
Q 33.0625 21.96875 24.703125 23.78125 
L 21.578125 24.515625 
Q 13.234375 26.265625 9.515625 29.90625 
Q 5.8125 33.546875 5.8125 39.890625 
Q 5.8125 47.609375 11.28125 51.796875 
Q 16.75 56 26.8125 56 
Q 31.78125 56 36.171875 55.265625 
Q 40.578125 54.546875 44.28125 53.078125 
z
" id="DejaVuSans-115"/>
      </defs>
      <g transform="translate(349.963281 354.438437)scale(0.1 -0.1)">
       <use xlink:href="#DejaVuSans-111"/>
       <use x="61.181641" xlink:href="#DejaVuSans-112"/>
       <use x="124.658203" xlink:href="#DejaVuSans-101"/>
       <use x="186.181641" xlink:href="#DejaVuSans-110"/>
       <use x="249.560547" xlink:href="#DejaVuSans-115"/>
       <use x="301.660156" xlink:href="#DejaVuSans-115"/>
       <use x="353.759766" xlink:href="#DejaVuSans-108"/>
      </g>
     </g>
    </g>
    <g id="xtick_5">
     <g id="line2d_5">
      <g>
       <use style="stroke:#000000;stroke-width:0.8;" x="460.766652" xlink:href="#mcd78e1fcc5" y="339.84"/>
      </g>
     </g>
     <g id="text_5">
      <!-- php -->
      <defs>
       <path d="M 54.890625 33.015625 
L 54.890625 0 
L 45.90625 0 
L 45.90625 32.71875 
Q 45.90625 40.484375 42.875 44.328125 
Q 39.84375 48.1875 33.796875 48.1875 
Q 26.515625 48.1875 22.3125 43.546875 
Q 18.109375 38.921875 18.109375 30.90625 
L 18.109375 0 
L 9.078125 0 
L 9.078125 75.984375 
L 18.109375 75.984375 
L 18.109375 46.1875 
Q 21.34375 51.125 25.703125 53.5625 
Q 30.078125 56 35.796875 56 
Q 45.21875 56 50.046875 50.171875 
Q 54.890625 44.34375 54.890625 33.015625 
z
" id="DejaVuSans-104"/>
      </defs>
      <g transform="translate(451.249465 354.438437)scale(0.1 -0.1)">
       <use xlink:href="#DejaVuSans-112"/>
       <use x="63.476562" xlink:href="#DejaVuSans-104"/>
       <use x="126.855469" xlink:href="#DejaVuSans-112"/>
      </g>
     </g>
    </g>
    <g id="xtick_6">
     <g id="line2d_6">
      <g>
       <use style="stroke:#000000;stroke-width:0.8;" x="552.49268" xlink:href="#mcd78e1fcc5" y="339.84"/>
      </g>
     </g>
     <g id="text_6">
      <!-- poppler -->
      <defs>
       <path d="M 41.109375 46.296875 
Q 39.59375 47.171875 37.8125 47.578125 
Q 36.03125 48 33.890625 48 
Q 26.265625 48 22.1875 43.046875 
Q 18.109375 38.09375 18.109375 28.8125 
L 18.109375 0 
L 9.078125 0 
L 9.078125 54.6875 
L 18.109375 54.6875 
L 18.109375 46.1875 
Q 20.953125 51.171875 25.484375 53.578125 
Q 30.03125 56 36.53125 56 
Q 37.453125 56 38.578125 55.875 
Q 39.703125 55.765625 41.0625 55.515625 
z
" id="DejaVuSans-114"/>
      </defs>
      <g transform="translate(533.389555 354.438437)scale(0.1 -0.1)">
       <use xlink:href="#DejaVuSans-112"/>
       <use x="63.476562" xlink:href="#DejaVuSans-111"/>
       <use x="124.658203" xlink:href="#DejaVuSans-112"/>
       <use x="188.134766" xlink:href="#DejaVuSans-112"/>
       <use x="251.611328" xlink:href="#DejaVuSans-108"/>
       <use x="279.394531" xlink:href="#DejaVuSans-101"/>
       <use x="340.917969" xlink:href="#DejaVuSans-114"/>
      </g>
     </g>
    </g>
    <g id="xtick_7">
     <g id="line2d_7">
      <g>
       <use style="stroke:#000000;stroke-width:0.8;" x="644.218707" xlink:href="#mcd78e1fcc5" y="339.84"/>
      </g>
     </g>
     <g id="text_7">
      <!-- sqlite3 -->
      <defs>
       <path d="M 14.796875 27.296875 
Q 14.796875 17.390625 18.875 11.75 
Q 22.953125 6.109375 30.078125 6.109375 
Q 37.203125 6.109375 41.296875 11.75 
Q 45.40625 17.390625 45.40625 27.296875 
Q 45.40625 37.203125 41.296875 42.84375 
Q 37.203125 48.484375 30.078125 48.484375 
Q 22.953125 48.484375 18.875 42.84375 
Q 14.796875 37.203125 14.796875 27.296875 
z
M 45.40625 8.203125 
Q 42.578125 3.328125 38.25 0.953125 
Q 33.9375 -1.421875 27.875 -1.421875 
Q 17.96875 -1.421875 11.734375 6.484375 
Q 5.515625 14.40625 5.515625 27.296875 
Q 5.515625 40.1875 11.734375 48.09375 
Q 17.96875 56 27.875 56 
Q 33.9375 56 38.25 53.625 
Q 42.578125 51.265625 45.40625 46.390625 
L 45.40625 54.6875 
L 54.390625 54.6875 
L 54.390625 -20.796875 
L 45.40625 -20.796875 
z
" id="DejaVuSans-113"/>
       <path d="M 40.578125 39.3125 
Q 47.65625 37.796875 51.625 33 
Q 55.609375 28.21875 55.609375 21.1875 
Q 55.609375 10.40625 48.1875 4.484375 
Q 40.765625 -1.421875 27.09375 -1.421875 
Q 22.515625 -1.421875 17.65625 -0.515625 
Q 12.796875 0.390625 7.625 2.203125 
L 7.625 11.71875 
Q 11.71875 9.328125 16.59375 8.109375 
Q 21.484375 6.890625 26.8125 6.890625 
Q 36.078125 6.890625 40.9375 10.546875 
Q 45.796875 14.203125 45.796875 21.1875 
Q 45.796875 27.640625 41.28125 31.265625 
Q 36.765625 34.90625 28.71875 34.90625 
L 20.21875 34.90625 
L 20.21875 43.015625 
L 29.109375 43.015625 
Q 36.375 43.015625 40.234375 45.921875 
Q 44.09375 48.828125 44.09375 54.296875 
Q 44.09375 59.90625 40.109375 62.90625 
Q 36.140625 65.921875 28.71875 65.921875 
Q 24.65625 65.921875 20.015625 65.03125 
Q 15.375 64.15625 9.8125 62.3125 
L 9.8125 71.09375 
Q 15.4375 72.65625 20.34375 73.4375 
Q 25.25 74.21875 29.59375 74.21875 
Q 40.828125 74.21875 47.359375 69.109375 
Q 53.90625 64.015625 53.90625 55.328125 
Q 53.90625 49.265625 50.4375 45.09375 
Q 46.96875 40.921875 40.578125 39.3125 
z
" id="DejaVuSans-51"/>
      </defs>
      <g transform="translate(627.443707 354.438437)scale(0.1 -0.1)">
       <use xlink:href="#DejaVuSans-115"/>
       <use x="52.099609" xlink:href="#DejaVuSans-113"/>
       <use x="115.576172" xlink:href="#DejaVuSans-108"/>
       <use x="143.359375" xlink:href="#DejaVuSans-105"/>
       <use x="171.142578" xlink:href="#DejaVuSans-116"/>
       <use x="210.351562" xlink:href="#DejaVuSans-101"/>
       <use x="271.875" xlink:href="#DejaVuSans-51"/>
      </g>
     </g>
    </g>
    <g id="text_8">
     <!-- Targets -->
     <defs>
      <path d="M -0.296875 72.90625 
L 61.375 72.90625 
L 61.375 64.59375 
L 35.5 64.59375 
L 35.5 0 
L 25.59375 0 
L 25.59375 64.59375 
L -0.296875 64.59375 
z
" id="DejaVuSans-84"/>
      <path d="M 34.28125 27.484375 
Q 23.390625 27.484375 19.1875 25 
Q 14.984375 22.515625 14.984375 16.5 
Q 14.984375 11.71875 18.140625 8.90625 
Q 21.296875 6.109375 26.703125 6.109375 
Q 34.1875 6.109375 38.703125 11.40625 
Q 43.21875 16.703125 43.21875 25.484375 
L 43.21875 27.484375 
z
M 52.203125 31.203125 
L 52.203125 0 
L 43.21875 0 
L 43.21875 8.296875 
Q 40.140625 3.328125 35.546875 0.953125 
Q 30.953125 -1.421875 24.3125 -1.421875 
Q 15.921875 -1.421875 10.953125 3.296875 
Q 6 8.015625 6 15.921875 
Q 6 25.140625 12.171875 29.828125 
Q 18.359375 34.515625 30.609375 34.515625 
L 43.21875 34.515625 
L 43.21875 35.40625 
Q 43.21875 41.609375 39.140625 45 
Q 35.0625 48.390625 27.6875 48.390625 
Q 23 48.390625 18.546875 47.265625 
Q 14.109375 46.140625 10.015625 43.890625 
L 10.015625 52.203125 
Q 14.9375 54.109375 19.578125 55.046875 
Q 24.21875 56 28.609375 56 
Q 40.484375 56 46.34375 49.84375 
Q 52.203125 43.703125 52.203125 31.203125 
z
" id="DejaVuSans-97"/>
     </defs>
     <g transform="translate(350.964063 368.116562)scale(0.1 -0.1)">
      <use xlink:href="#DejaVuSans-84"/>
      <use x="44.583984" xlink:href="#DejaVuSans-97"/>
      <use x="105.863281" xlink:href="#DejaVuSans-114"/>
      <use x="145.226562" xlink:href="#DejaVuSans-103"/>
      <use x="208.703125" xlink:href="#DejaVuSans-101"/>
      <use x="270.226562" xlink:href="#DejaVuSans-116"/>
      <use x="309.435547" xlink:href="#DejaVuSans-115"/>
     </g>
    </g>
   </g>
   <g id="matplotlib.axis_2">
    <g id="ytick_1">
     <g id="line2d_8">
      <defs>
       <path d="M 0 0 
L -3.5 0 
" id="m651536f2ef" style="stroke:#000000;stroke-width:0.8;"/>
      </defs>
      <g>
       <use style="stroke:#000000;stroke-width:0.8;" x="34.240625" xlink:href="#m651536f2ef" y="339.84"/>
      </g>
     </g>
     <g id="text_9">
      <!-- 0 -->
      <defs>
       <path d="M 31.78125 66.40625 
Q 24.171875 66.40625 20.328125 58.90625 
Q 16.5 51.421875 16.5 36.375 
Q 16.5 21.390625 20.328125 13.890625 
Q 24.171875 6.390625 31.78125 6.390625 
Q 39.453125 6.390625 43.28125 13.890625 
Q 47.125 21.390625 47.125 36.375 
Q 47.125 51.421875 43.28125 58.90625 
Q 39.453125 66.40625 31.78125 66.40625 
z
M 31.78125 74.21875 
Q 44.046875 74.21875 50.515625 64.515625 
Q 56.984375 54.828125 56.984375 36.375 
Q 56.984375 17.96875 50.515625 8.265625 
Q 44.046875 -1.421875 31.78125 -1.421875 
Q 19.53125 -1.421875 13.0625 8.265625 
Q 6.59375 17.96875 6.59375 36.375 
Q 6.59375 54.828125 13.0625 64.515625 
Q 19.53125 74.21875 31.78125 74.21875 
z
" id="DejaVuSans-48"/>
      </defs>
      <g transform="translate(20.878125 343.639219)scale(0.1 -0.1)">
       <use xlink:href="#DejaVuSans-48"/>
      </g>
     </g>
    </g>
    <g id="ytick_2">
     <g id="line2d_9">
      <g>
       <use style="stroke:#000000;stroke-width:0.8;" x="34.240625" xlink:href="#m651536f2ef" y="267.639768"/>
      </g>
     </g>
     <g id="text_10">
      <!-- 2 -->
      <g transform="translate(20.878125 271.438986)scale(0.1 -0.1)">
       <use xlink:href="#DejaVuSans-50"/>
      </g>
     </g>
    </g>
    <g id="ytick_3">
     <g id="line2d_10">
      <g>
       <use style="stroke:#000000;stroke-width:0.8;" x="34.240625" xlink:href="#m651536f2ef" y="195.439535"/>
      </g>
     </g>
     <g id="text_11">
      <!-- 4 -->
      <defs>
       <path d="M 37.796875 64.3125 
L 12.890625 25.390625 
L 37.796875 25.390625 
z
M 35.203125 72.90625 
L 47.609375 72.90625 
L 47.609375 25.390625 
L 58.015625 25.390625 
L 58.015625 17.1875 
L 47.609375 17.1875 
L 47.609375 0 
L 37.796875 0 
L 37.796875 17.1875 
L 4.890625 17.1875 
L 4.890625 26.703125 
z
" id="DejaVuSans-52"/>
      </defs>
      <g transform="translate(20.878125 199.238754)scale(0.1 -0.1)">
       <use xlink:href="#DejaVuSans-52"/>
      </g>
     </g>
    </g>
    <g id="ytick_4">
     <g id="line2d_11">
      <g>
       <use style="stroke:#000000;stroke-width:0.8;" x="34.240625" xlink:href="#m651536f2ef" y="123.239303"/>
      </g>
     </g>
     <g id="text_12">
      <!-- 6 -->
      <defs>
       <path d="M 33.015625 40.375 
Q 26.375 40.375 22.484375 35.828125 
Q 18.609375 31.296875 18.609375 23.390625 
Q 18.609375 15.53125 22.484375 10.953125 
Q 26.375 6.390625 33.015625 6.390625 
Q 39.65625 6.390625 43.53125 10.953125 
Q 47.40625 15.53125 47.40625 23.390625 
Q 47.40625 31.296875 43.53125 35.828125 
Q 39.65625 40.375 33.015625 40.375 
z
M 52.59375 71.296875 
L 52.59375 62.3125 
Q 48.875 64.0625 45.09375 64.984375 
Q 41.3125 65.921875 37.59375 65.921875 
Q 27.828125 65.921875 22.671875 59.328125 
Q 17.53125 52.734375 16.796875 39.40625 
Q 19.671875 43.65625 24.015625 45.921875 
Q 28.375 48.1875 33.59375 48.1875 
Q 44.578125 48.1875 50.953125 41.515625 
Q 57.328125 34.859375 57.328125 23.390625 
Q 57.328125 12.15625 50.6875 5.359375 
Q 44.046875 -1.421875 33.015625 -1.421875 
Q 20.359375 -1.421875 13.671875 8.265625 
Q 6.984375 17.96875 6.984375 36.375 
Q 6.984375 53.65625 15.1875 63.9375 
Q 23.390625 74.21875 37.203125 74.21875 
Q 40.921875 74.21875 44.703125 73.484375 
Q 48.484375 72.75 52.59375 71.296875 
z
" id="DejaVuSans-54"/>
      </defs>
      <g transform="translate(20.878125 127.038522)scale(0.1 -0.1)">
       <use xlink:href="#DejaVuSans-54"/>
      </g>
     </g>
    </g>
    <g id="ytick_5">
     <g id="line2d_12">
      <g>
       <use style="stroke:#000000;stroke-width:0.8;" x="34.240625" xlink:href="#m651536f2ef" y="51.039071"/>
      </g>
     </g>
     <g id="text_13">
      <!-- 8 -->
      <defs>
       <path d="M 31.78125 34.625 
Q 24.75 34.625 20.71875 30.859375 
Q 16.703125 27.09375 16.703125 20.515625 
Q 16.703125 13.921875 20.71875 10.15625 
Q 24.75 6.390625 31.78125 6.390625 
Q 38.8125 6.390625 42.859375 10.171875 
Q 46.921875 13.96875 46.921875 20.515625 
Q 46.921875 27.09375 42.890625 30.859375 
Q 38.875 34.625 31.78125 34.625 
z
M 21.921875 38.8125 
Q 15.578125 40.375 12.03125 44.71875 
Q 8.5 49.078125 8.5 55.328125 
Q 8.5 64.0625 14.71875 69.140625 
Q 20.953125 74.21875 31.78125 74.21875 
Q 42.671875 74.21875 48.875 69.140625 
Q 55.078125 64.0625 55.078125 55.328125 
Q 55.078125 49.078125 51.53125 44.71875 
Q 48 40.375 41.703125 38.8125 
Q 48.828125 37.15625 52.796875 32.3125 
Q 56.78125 27.484375 56.78125 20.515625 
Q 56.78125 9.90625 50.3125 4.234375 
Q 43.84375 -1.421875 31.78125 -1.421875 
Q 19.734375 -1.421875 13.25 4.234375 
Q 6.78125 9.90625 6.78125 20.515625 
Q 6.78125 27.484375 10.78125 32.3125 
Q 14.796875 37.15625 21.921875 38.8125 
z
M 18.3125 54.390625 
Q 18.3125 48.734375 21.84375 45.5625 
Q 25.390625 42.390625 31.78125 42.390625 
Q 38.140625 42.390625 41.71875 45.5625 
Q 45.3125 48.734375 45.3125 54.390625 
Q 45.3125 60.0625 41.71875 63.234375 
Q 38.140625 66.40625 31.78125 66.40625 
Q 25.390625 66.40625 21.84375 63.234375 
Q 18.3125 60.0625 18.3125 54.390625 
z
" id="DejaVuSans-56"/>
      </defs>
      <g transform="translate(20.878125 54.83829)scale(0.1 -0.1)">
       <use xlink:href="#DejaVuSans-56"/>
      </g>
     </g>
    </g>
    <g id="text_14">
     <!-- Bugs Triggered -->
     <defs>
      <path d="M 19.671875 34.8125 
L 19.671875 8.109375 
L 35.5 8.109375 
Q 43.453125 8.109375 47.28125 11.40625 
Q 51.125 14.703125 51.125 21.484375 
Q 51.125 28.328125 47.28125 31.5625 
Q 43.453125 34.8125 35.5 34.8125 
z
M 19.671875 64.796875 
L 19.671875 42.828125 
L 34.28125 42.828125 
Q 41.5 42.828125 45.03125 45.53125 
Q 48.578125 48.25 48.578125 53.8125 
Q 48.578125 59.328125 45.03125 62.0625 
Q 41.5 64.796875 34.28125 64.796875 
z
M 9.8125 72.90625 
L 35.015625 72.90625 
Q 46.296875 72.90625 52.390625 68.21875 
Q 58.5 63.53125 58.5 54.890625 
Q 58.5 48.1875 55.375 44.234375 
Q 52.25 40.28125 46.1875 39.3125 
Q 53.46875 37.75 57.5 32.78125 
Q 61.53125 27.828125 61.53125 20.40625 
Q 61.53125 10.640625 54.890625 5.3125 
Q 48.25 0 35.984375 0 
L 9.8125 0 
z
" id="DejaVuSans-66"/>
      <path d="M 8.5 21.578125 
L 8.5 54.6875 
L 17.484375 54.6875 
L 17.484375 21.921875 
Q 17.484375 14.15625 20.5 10.265625 
Q 23.53125 6.390625 29.59375 6.390625 
Q 36.859375 6.390625 41.078125 11.03125 
Q 45.3125 15.671875 45.3125 23.6875 
L 45.3125 54.6875 
L 54.296875 54.6875 
L 54.296875 0 
L 45.3125 0 
L 45.3125 8.40625 
Q 42.046875 3.421875 37.71875 1 
Q 33.40625 -1.421875 27.6875 -1.421875 
Q 18.265625 -1.421875 13.375 4.4375 
Q 8.5 10.296875 8.5 21.578125 
z
M 31.109375 56 
z
" id="DejaVuSans-117"/>
      <path id="DejaVuSans-32"/>
      <path d="M 45.40625 46.390625 
L 45.40625 75.984375 
L 54.390625 75.984375 
L 54.390625 0 
L 45.40625 0 
L 45.40625 8.203125 
Q 42.578125 3.328125 38.25 0.953125 
Q 33.9375 -1.421875 27.875 -1.421875 
Q 17.96875 -1.421875 11.734375 6.484375 
Q 5.515625 14.40625 5.515625 27.296875 
Q 5.515625 40.1875 11.734375 48.09375 
Q 17.96875 56 27.875 56 
Q 33.9375 56 38.25 53.625 
Q 42.578125 51.265625 45.40625 46.390625 
z
M 14.796875 27.296875 
Q 14.796875 17.390625 18.875 11.75 
Q 22.953125 6.109375 30.078125 6.109375 
Q 37.203125 6.109375 41.296875 11.75 
Q 45.40625 17.390625 45.40625 27.296875 
Q 45.40625 37.203125 41.296875 42.84375 
Q 37.203125 48.484375 30.078125 48.484375 
Q 22.953125 48.484375 18.875 42.84375 
Q 14.796875 37.203125 14.796875 27.296875 
z
" id="DejaVuSans-100"/>
     </defs>
     <g transform="translate(14.798438 210.866875)rotate(-90)scale(0.1 -0.1)">
      <use xlink:href="#DejaVuSans-66"/>
      <use x="68.603516" xlink:href="#DejaVuSans-117"/>
      <use x="131.982422" xlink:href="#DejaVuSans-103"/>
      <use x="195.458984" xlink:href="#DejaVuSans-115"/>
      <use x="247.558594" xlink:href="#DejaVuSans-32"/>
      <use x="279.345703" xlink:href="#DejaVuSans-84"/>
      <use x="325.679688" xlink:href="#DejaVuSans-114"/>
      <use x="366.792969" xlink:href="#DejaVuSans-105"/>
      <use x="394.576172" xlink:href="#DejaVuSans-103"/>
      <use x="458.052734" xlink:href="#DejaVuSans-103"/>
      <use x="521.529297" xlink:href="#DejaVuSans-101"/>
      <use x="583.052734" xlink:href="#DejaVuSans-114"/>
      <use x="621.916016" xlink:href="#DejaVuSans-101"/>
      <use x="683.439453" xlink:href="#DejaVuSans-100"/>
     </g>
    </g>
   </g>
   <g id="LineCollection_1">
    <path clip-path="url(#p018926758a)" d="M 63.2872 274.247746 
L 63.2872 239.37172 
" style="fill:none;stroke:#000000;stroke-width:1.5;"/>
    <path clip-path="url(#p018926758a)" d="M 155.013228 167.340542 
L 155.013228 136.898251 
" style="fill:none;stroke:#000000;stroke-width:1.5;"/>
    <path clip-path="url(#p018926758a)" d="M 246.739255 259.807699 
L 246.739255 224.931674 
" style="fill:none;stroke:#000000;stroke-width:1.5;"/>
    <path clip-path="url(#p018926758a)" d="M 338.465283 235.741625 
L 338.465283 198.457585 
" style="fill:none;stroke:#000000;stroke-width:1.5;"/>
    <path clip-path="url(#p018926758a)" d="M 430.19131 231.539652 
L 430.19131 231.539652 
" style="fill:none;stroke:#000000;stroke-width:1.5;"/>
    <path clip-path="url(#p018926758a)" d="M 521.917337 195.439535 
L 521.917337 195.439535 
" style="fill:none;stroke:#000000;stroke-width:1.5;"/>
    <path clip-path="url(#p018926758a)" d="M 613.643365 319.742128 
L 613.643365 258.857547 
" style="fill:none;stroke:#000000;stroke-width:1.5;"/>
   </g>
   <g id="LineCollection_2">
    <path clip-path="url(#p018926758a)" d="M 75.517337 304.716258 
L 75.517337 266.663394 
" style="fill:none;stroke:#000000;stroke-width:1.5;"/>
    <path clip-path="url(#p018926758a)" d="M 167.243365 189.391161 
L 167.243365 143.727724 
" style="fill:none;stroke:#000000;stroke-width:1.5;"/>
    <path clip-path="url(#p018926758a)" d="M 258.969392 231.539652 
L 258.969392 231.539652 
" style="fill:none;stroke:#000000;stroke-width:1.5;"/>
    <path clip-path="url(#p018926758a)" d="M 350.69542 195.439535 
L 350.69542 195.439535 
" style="fill:none;stroke:#000000;stroke-width:1.5;"/>
    <path clip-path="url(#p018926758a)" d="M 442.421447 231.539652 
L 442.421447 231.539652 
" style="fill:none;stroke:#000000;stroke-width:1.5;"/>
    <path clip-path="url(#p018926758a)" d="M 534.147474 192.421486 
L 534.147474 155.137446 
" style="fill:none;stroke:#000000;stroke-width:1.5;"/>
    <path clip-path="url(#p018926758a)" d="M 625.873502 278.441135 
L 625.873502 227.958307 
" style="fill:none;stroke:#000000;stroke-width:1.5;"/>
   </g>
   <g id="LineCollection_3">
    <path clip-path="url(#p018926758a)" d="M 87.747474 314.541252 
L 87.747474 264.058423 
" style="fill:none;stroke:#000000;stroke-width:1.5;"/>
    <path clip-path="url(#p018926758a)" d="M 179.473502 124.215677 
L 179.473502 86.162813 
" style="fill:none;stroke:#000000;stroke-width:1.5;"/>
    <path clip-path="url(#p018926758a)" d="M 271.199529 231.539652 
L 271.199529 231.539652 
" style="fill:none;stroke:#000000;stroke-width:1.5;"/>
    <path clip-path="url(#p018926758a)" d="M 362.925557 242.341019 
L 362.925557 191.858191 
" style="fill:none;stroke:#000000;stroke-width:1.5;"/>
    <path clip-path="url(#p018926758a)" d="M 454.651584 231.539652 
L 454.651584 231.539652 
" style="fill:none;stroke:#000000;stroke-width:1.5;"/>
    <path clip-path="url(#p018926758a)" d="M 546.377611 195.439535 
L 546.377611 195.439535 
" style="fill:none;stroke:#000000;stroke-width:1.5;"/>
    <path clip-path="url(#p018926758a)" d="M 638.103639 268.616141 
L 638.103639 230.563278 
" style="fill:none;stroke:#000000;stroke-width:1.5;"/>
   </g>
   <g id="LineCollection_4">
    <path clip-path="url(#p018926758a)" d="M 99.977611 195.439535 
L 99.977611 195.439535 
" style="fill:none;stroke:#000000;stroke-width:1.5;"/>
    <path clip-path="url(#p018926758a)" d="M 191.703639 132.216799 
L 191.703639 63.721645 
" style="fill:none;stroke:#000000;stroke-width:1.5;"/>
    <path clip-path="url(#p018926758a)" d="M 283.429666 176.221502 
L 283.429666 135.237313 
" style="fill:none;stroke:#000000;stroke-width:1.5;"/>
    <path clip-path="url(#p018926758a)" d="M 375.155693 268.616141 
L 375.155693 230.563278 
" style="fill:none;stroke:#000000;stroke-width:1.5;"/>
    <path clip-path="url(#p018926758a)" d="M 466.881721 231.539652 
L 466.881721 231.539652 
" style="fill:none;stroke:#000000;stroke-width:1.5;"/>
    <path clip-path="url(#p018926758a)" d="M 558.607748 212.585925 
L 558.607748 134.973007 
" style="fill:none;stroke:#000000;stroke-width:1.5;"/>
    <path clip-path="url(#p018926758a)" d="M 650.333776 212.457293 
L 650.333776 178.421777 
" style="fill:none;stroke:#000000;stroke-width:1.5;"/>
   </g>
   <g id="LineCollection_5">
    <path clip-path="url(#p018926758a)" d="M 112.207748 275.445615 
L 112.207748 252.613897 
" style="fill:none;stroke:#000000;stroke-width:1.5;"/>
    <path clip-path="url(#p018926758a)" d="M 203.933776 111.241293 
L 203.933776 70.257104 
" style="fill:none;stroke:#000000;stroke-width:1.5;"/>
    <path clip-path="url(#p018926758a)" d="M 295.659803 163.633044 
L 295.659803 97.285609 
" style="fill:none;stroke:#000000;stroke-width:1.5;"/>
    <path clip-path="url(#p018926758a)" d="M 387.38583 210.465406 
L 387.38583 187.633688 
" style="fill:none;stroke:#000000;stroke-width:1.5;"/>
    <path clip-path="url(#p018926758a)" d="M 479.111858 231.539652 
L 479.111858 231.539652 
" style="fill:none;stroke:#000000;stroke-width:1.5;"/>
    <path clip-path="url(#p018926758a)" d="M 570.837885 86.258165 
L 570.837885 23.04 
" style="fill:none;stroke:#000000;stroke-width:1.5;"/>
    <path clip-path="url(#p018926758a)" d="M 662.563913 193.694656 
L 662.563913 103.324112 
" style="fill:none;stroke:#000000;stroke-width:1.5;"/>
   </g>
   <g id="LineCollection_6">
    <path clip-path="url(#p018926758a)" d="M 124.437885 228.521602 
L 124.437885 191.237562 
" style="fill:none;stroke:#000000;stroke-width:1.5;"/>
    <path clip-path="url(#p018926758a)" d="M 216.163913 138.265174 
L 216.163913 115.433456 
" style="fill:none;stroke:#000000;stroke-width:1.5;"/>
    <path clip-path="url(#p018926758a)" d="M 307.88994 231.539652 
L 307.88994 231.539652 
" style="fill:none;stroke:#000000;stroke-width:1.5;"/>
    <path clip-path="url(#p018926758a)" d="M 399.615967 231.539652 
L 399.615967 231.539652 
" style="fill:none;stroke:#000000;stroke-width:1.5;"/>
    <path clip-path="url(#p018926758a)" d="M 583.068022 202.047513 
L 583.068022 167.171488 
" style="fill:none;stroke:#000000;stroke-width:1.5;"/>
    <path clip-path="url(#p018926758a)" d="M 674.79405 337.504049 
L 674.79405 255.535672 
" style="fill:none;stroke:#000000;stroke-width:1.5;"/>
   </g>
   <g id="patch_45">
    <path d="M 34.240625 339.84 
L 34.240625 7.2 
" style="fill:none;stroke:#000000;stroke-linecap:square;stroke-linejoin:miter;stroke-width:0.8;"/>
   </g>
   <g id="patch_46">
    <path d="M 703.840625 339.84 
L 703.840625 7.2 
" style="fill:none;stroke:#000000;stroke-linecap:square;stroke-linejoin:miter;stroke-width:0.8;"/>
   </g>
   <g id="patch_47">
    <path d="M 34.240625 339.84 
L 703.840625 339.84 
" style="fill:none;stroke:#000000;stroke-linecap:square;stroke-linejoin:miter;stroke-width:0.8;"/>
   </g>
   <g id="patch_48">
    <path d="M 34.240625 7.2 
L 703.840625 7.2 
" style="fill:none;stroke:#000000;stroke-linecap:square;stroke-linejoin:miter;stroke-width:0.8;"/>
   </g>
   <g id="legend_1">
    <g id="patch_49">
     <path d="M 710.840625 103.546875 
L 796.614063 103.546875 
Q 798.614063 103.546875 798.614063 101.546875 
L 798.614063 14.2 
Q 798.614063 12.2 796.614063 12.2 
L 710.840625 12.2 
Q 708.840625 12.2 708.840625 14.2 
L 708.840625 101.546875 
Q 708.840625 103.546875 710.840625 103.546875 
z
" style="fill:#ffffff;opacity:0.8;stroke:#cccccc;stroke-linejoin:miter;"/>
    </g>
    <g id="patch_50">
     <path d="M 712.840625 23.798438 
L 732.840625 23.798438 
L 732.840625 16.798438 
L 712.840625 16.798438 
z
" style="fill:#1f77b4;"/>
    </g>
    <g id="text_15">
     <!-- afl -->
     <g transform="translate(740.840625 23.798438)scale(0.1 -0.1)">
      <use xlink:href="#DejaVuSans-97"/>
      <use x="61.279297" xlink:href="#DejaVuSans-102"/>
      <use x="96.484375" xlink:href="#DejaVuSans-108"/>
     </g>
    </g>
    <g id="patch_51">
     <path d="M 712.840625 38.476563 
L 732.840625 38.476563 
L 732.840625 31.476563 
L 712.840625 31.476563 
z
" style="fill:#ff7f0e;"/>
    </g>
    <g id="text_16">
     <!-- aflfast -->
     <g transform="translate(740.840625 38.476563)scale(0.1 -0.1)">
      <use xlink:href="#DejaVuSans-97"/>
      <use x="61.279297" xlink:href="#DejaVuSans-102"/>
      <use x="96.484375" xlink:href="#DejaVuSans-108"/>
      <use x="124.267578" xlink:href="#DejaVuSans-102"/>
      <use x="159.472656" xlink:href="#DejaVuSans-97"/>
      <use x="220.751953" xlink:href="#DejaVuSans-115"/>
      <use x="272.851562" xlink:href="#DejaVuSans-116"/>
     </g>
    </g>
    <g id="patch_52">
     <path d="M 712.840625 53.154688 
L 732.840625 53.154688 
L 732.840625 46.154688 
L 712.840625 46.154688 
z
" style="fill:#2ca02c;"/>
    </g>
    <g id="text_17">
     <!-- aflplusplus -->
     <g transform="translate(740.840625 53.154688)scale(0.1 -0.1)">
      <use xlink:href="#DejaVuSans-97"/>
      <use x="61.279297" xlink:href="#DejaVuSans-102"/>
      <use x="96.484375" xlink:href="#DejaVuSans-108"/>
      <use x="124.267578" xlink:href="#DejaVuSans-112"/>
      <use x="187.744141" xlink:href="#DejaVuSans-108"/>
      <use x="215.527344" xlink:href="#DejaVuSans-117"/>
      <use x="278.90625" xlink:href="#DejaVuSans-115"/>
      <use x="331.005859" xlink:href="#DejaVuSans-112"/>
      <use x="394.482422" xlink:href="#DejaVuSans-108"/>
      <use x="422.265625" xlink:href="#DejaVuSans-117"/>
      <use x="485.644531" xlink:href="#DejaVuSans-115"/>
     </g>
    </g>
    <g id="patch_53">
     <path d="M 712.840625 67.832813 
L 732.840625 67.832813 
L 732.840625 60.832813 
L 712.840625 60.832813 
z
" style="fill:#d62728;"/>
    </g>
    <g id="text_18">
     <!-- honggfuzz -->
     <defs>
      <path d="M 5.515625 54.6875 
L 48.1875 54.6875 
L 48.1875 46.484375 
L 14.40625 7.171875 
L 48.1875 7.171875 
L 48.1875 0 
L 4.296875 0 
L 4.296875 8.203125 
L 38.09375 47.515625 
L 5.515625 47.515625 
z
" id="DejaVuSans-122"/>
     </defs>
     <g transform="translate(740.840625 67.832813)scale(0.1 -0.1)">
      <use xlink:href="#DejaVuSans-104"/>
      <use x="63.378906" xlink:href="#DejaVuSans-111"/>
      <use x="124.560547" xlink:href="#DejaVuSans-110"/>
      <use x="187.939453" xlink:href="#DejaVuSans-103"/>
      <use x="251.416016" xlink:href="#DejaVuSans-103"/>
      <use x="314.892578" xlink:href="#DejaVuSans-102"/>
      <use x="350.097656" xlink:href="#DejaVuSans-117"/>
      <use x="413.476562" xlink:href="#DejaVuSans-122"/>
      <use x="465.966797" xlink:href="#DejaVuSans-122"/>
     </g>
    </g>
    <g id="patch_54">
     <path d="M 712.840625 82.510938 
L 732.840625 82.510938 
L 732.840625 75.510938 
L 712.840625 75.510938 
z
" style="fill:#9467bd;"/>
    </g>
    <g id="text_19">
     <!-- moptafl -->
     <g transform="translate(740.840625 82.510938)scale(0.1 -0.1)">
      <use xlink:href="#DejaVuSans-109"/>
      <use x="97.412109" xlink:href="#DejaVuSans-111"/>
      <use x="158.59375" xlink:href="#DejaVuSans-112"/>
      <use x="222.070312" xlink:href="#DejaVuSans-116"/>
      <use x="261.279297" xlink:href="#DejaVuSans-97"/>
      <use x="322.558594" xlink:href="#DejaVuSans-102"/>
      <use x="357.763672" xlink:href="#DejaVuSans-108"/>
     </g>
    </g>
    <g id="patch_55">
     <path d="M 712.840625 97.189063 
L 732.840625 97.189063 
L 732.840625 90.189063 
L 712.840625 90.189063 
z
" style="fill:#8c564b;"/>
    </g>
    <g id="text_20">
     <!-- symcc_afl -->
     <defs>
      <path d="M 32.171875 -5.078125 
Q 28.375 -14.84375 24.75 -17.8125 
Q 21.140625 -20.796875 15.09375 -20.796875 
L 7.90625 -20.796875 
L 7.90625 -13.28125 
L 13.1875 -13.28125 
Q 16.890625 -13.28125 18.9375 -11.515625 
Q 21 -9.765625 23.484375 -3.21875 
L 25.09375 0.875 
L 2.984375 54.6875 
L 12.5 54.6875 
L 29.59375 11.921875 
L 46.6875 54.6875 
L 56.203125 54.6875 
z
" id="DejaVuSans-121"/>
      <path d="M 48.78125 52.59375 
L 48.78125 44.1875 
Q 44.96875 46.296875 41.140625 47.34375 
Q 37.3125 48.390625 33.40625 48.390625 
Q 24.65625 48.390625 19.8125 42.84375 
Q 14.984375 37.3125 14.984375 27.296875 
Q 14.984375 17.28125 19.8125 11.734375 
Q 24.65625 6.203125 33.40625 6.203125 
Q 37.3125 6.203125 41.140625 7.25 
Q 44.96875 8.296875 48.78125 10.40625 
L 48.78125 2.09375 
Q 45.015625 0.34375 40.984375 -0.53125 
Q 36.96875 -1.421875 32.421875 -1.421875 
Q 20.0625 -1.421875 12.78125 6.34375 
Q 5.515625 14.109375 5.515625 27.296875 
Q 5.515625 40.671875 12.859375 48.328125 
Q 20.21875 56 33.015625 56 
Q 37.15625 56 41.109375 55.140625 
Q 45.0625 54.296875 48.78125 52.59375 
z
" id="DejaVuSans-99"/>
      <path d="M 50.984375 -16.609375 
L 50.984375 -23.578125 
L -0.984375 -23.578125 
L -0.984375 -16.609375 
z
" id="DejaVuSans-95"/>
     </defs>
     <g transform="translate(740.840625 97.189063)scale(0.1 -0.1)">
      <use xlink:href="#DejaVuSans-115"/>
      <use x="52.099609" xlink:href="#DejaVuSans-121"/>
      <use x="111.279297" xlink:href="#DejaVuSans-109"/>
      <use x="208.691406" xlink:href="#DejaVuSans-99"/>
      <use x="263.671875" xlink:href="#DejaVuSans-99"/>
      <use x="318.652344" xlink:href="#DejaVuSans-95"/>
      <use x="368.652344" xlink:href="#DejaVuSans-97"/>
      <use x="429.931641" xlink:href="#DejaVuSans-102"/>
      <use x="465.136719" xlink:href="#DejaVuSans-108"/>
     </g>
    </g>
   </g>
  </g>
 </g>
 <defs>
  <clipPath id="p018926758a">
   <rect height="332.64" width="669.6" x="34.240625" y="7.2"/>
  </clipPath>
 </defs>
</svg>
