<?xml version="1.0" encoding="utf-8" standalone="no"?>
<!DOCTYPE svg PUBLIC "-//W3C//DTD SVG 1.1//EN"
  "http://www.w3.org/Graphics/SVG/1.1/DTD/svg11.dtd">
<!-- Created with matplotlib (https://matplotlib.org/) -->
<svg height="377.39625pt" version="1.1" viewBox="0 0 616.251562 377.39625" width="616.251562pt" xmlns="http://www.w3.org/2000/svg" xmlns:xlink="http://www.w3.org/1999/xlink">
 <defs>
  <style type="text/css">
*{stroke-linecap:butt;stroke-linejoin:round;}
  </style>
 </defs>
 <g id="figure_1">
  <g id="patch_1">
   <path d="M 0 377.39625 
L 616.251562 377.39625 
L 616.251562 0 
L 0 0 
z
" style="fill:#ffffff;"/>
  </g>
  <g id="axes_1">
   <g id="patch_2">
    <path d="M 43.78125 339.84 
L 601.78125 339.84 
L 601.78125 7.2 
L 43.78125 7.2 
z
" style="fill:#ffffff;"/>
   </g>
   <g id="PolyCollection_1">
    <path clip-path="url(#pb8d7c524f7)" d="M -167.44988 23.04 
L -167.44988 23.04 
L 404.012619 23.04 
L 404.012619 189.990663 
L 422.147275 189.990663 
L 422.147275 210.36676 
L 577.557892 210.36676 
L 577.557892 235.702583 
L 601.78125 235.702583 
L 601.78125 235.702583 
L 601.78125 57.270544 
L 601.78125 57.270544 
L 601.78125 57.270544 
L 577.557892 57.270544 
L 577.557892 40.187546 
L 422.147275 40.187546 
L 422.147275 27.702855 
L 404.012619 27.702855 
L 404.012619 23.04 
L -167.44988 23.04 
z
" style="fill:#1f77b4;fill-opacity:0.25;stroke:#1f77b4;stroke-opacity:0.25;"/>
   </g>
   <g id="PolyCollection_2">
    <path clip-path="url(#pb8d7c524f7)" d="M -167.44988 23.04 
L -167.44988 23.04 
L 542.92015 23.04 
L 542.92015 189.990663 
L 592.845808 189.990663 
L 592.845808 210.36676 
L 601.78125 210.36676 
L 601.78125 210.36676 
L 601.78125 40.187546 
L 601.78125 40.187546 
L 601.78125 40.187546 
L 592.845808 40.187546 
L 592.845808 27.702855 
L 542.92015 27.702855 
L 542.92015 23.04 
L -167.44988 23.04 
z
" style="fill:#1f77b4;fill-opacity:0.25;stroke:#1f77b4;stroke-opacity:0.25;"/>
   </g>
   <g id="PolyCollection_3">
    <path clip-path="url(#pb8d7c524f7)" d="M -167.44988 23.04 
L -167.44988 23.04 
L 349.238647 23.04 
L 349.238647 189.990663 
L 410.103987 189.990663 
L 410.103987 210.36676 
L 444.07031 210.36676 
L 444.07031 235.702583 
L 456.494561 235.702583 
L 456.494561 259.794493 
L 460.7587 259.794493 
L 460.7587 281.673749 
L 498.926657 281.673749 
L 498.926657 300.970805 
L 561.483204 300.970805 
L 561.483204 317.304593 
L 581.970633 317.304593 
L 581.970633 330.048021 
L 601.78125 330.048021 
L 601.78125 330.048021 
L 601.78125 189.450386 
L 601.78125 189.450386 
L 601.78125 189.450386 
L 581.970633 189.450386 
L 581.970633 156.77163 
L 561.483204 156.77163 
L 561.483204 127.519171 
L 498.926657 127.519171 
L 498.926657 101.234452 
L 460.7587 101.234452 
L 460.7587 77.776398 
L 456.494561 77.776398 
L 456.494561 57.270544 
L 444.07031 57.270544 
L 444.07031 40.187546 
L 410.103987 40.187546 
L 410.103987 27.702855 
L 349.238647 27.702855 
L 349.238647 23.04 
L -167.44988 23.04 
z
" style="fill:#ff7f0e;fill-opacity:0.25;stroke:#ff7f0e;stroke-opacity:0.25;"/>
   </g>
   <g id="PolyCollection_4">
    <path clip-path="url(#pb8d7c524f7)" d="M -167.44988 23.04 
L -167.44988 23.04 
L 460.514356 23.04 
L 460.514356 189.990663 
L 475.379292 189.990663 
L 475.379292 210.36676 
L 498.926657 210.36676 
L 498.926657 235.702583 
L 579.831337 235.702583 
L 579.831337 259.794493 
L 583.575795 259.794493 
L 583.575795 281.673749 
L 601.78125 281.673749 
L 601.78125 281.673749 
L 601.78125 101.234452 
L 601.78125 101.234452 
L 601.78125 101.234452 
L 583.575795 101.234452 
L 583.575795 77.776398 
L 579.831337 77.776398 
L 579.831337 57.270544 
L 498.926657 57.270544 
L 498.926657 40.187546 
L 475.379292 40.187546 
L 475.379292 27.702855 
L 460.514356 27.702855 
L 460.514356 23.04 
L -167.44988 23.04 
z
" style="fill:#ff7f0e;fill-opacity:0.25;stroke:#ff7f0e;stroke-opacity:0.25;"/>
   </g>
   <g id="PolyCollection_5">
    <path clip-path="url(#pb8d7c524f7)" d="M -167.44988 23.04 
L -167.44988 23.04 
L 420.660666 23.04 
L 420.660666 189.990663 
L 533.008973 189.990663 
L 533.008973 210.36676 
L 542.198985 210.36676 
L 542.198985 235.702583 
L 551.434451 235.702583 
L 551.434451 259.794493 
L 565.624283 259.794493 
L 565.624283 281.673749 
L 580.933139 281.673749 
L 580.933139 300.970805 
L 580.999477 300.970805 
L 580.999477 317.304593 
L 594.007359 317.304593 
L 594.007359 330.048021 
L 601.78125 330.048021 
L 601.78125 330.048021 
L 601.78125 189.450386 
L 601.78125 189.450386 
L 601.78125 189.450386 
L 594.007359 189.450386 
L 594.007359 156.77163 
L 580.999477 156.77163 
L 580.999477 127.519171 
L 580.933139 127.519171 
L 580.933139 101.234452 
L 565.624283 101.234452 
L 565.624283 77.776398 
L 551.434451 77.776398 
L 551.434451 57.270544 
L 542.198985 57.270544 
L 542.198985 40.187546 
L 533.008973 40.187546 
L 533.008973 27.702855 
L 420.660666 27.702855 
L 420.660666 23.04 
L -167.44988 23.04 
z
" style="fill:#2ca02c;fill-opacity:0.25;stroke:#2ca02c;stroke-opacity:0.25;"/>
   </g>
   <g id="PolyCollection_6">
    <path clip-path="url(#pb8d7c524f7)" d="M -167.44988 23.04 
L -167.44988 23.04 
L 524.072514 23.04 
L 524.072514 189.990663 
L 535.795383 189.990663 
L 535.795383 210.36676 
L 542.198985 210.36676 
L 542.198985 235.702583 
L 565.844431 235.702583 
L 565.844431 259.794493 
L 582.564234 259.794493 
L 582.564234 281.673749 
L 601.78125 281.673749 
L 601.78125 281.673749 
L 601.78125 101.234452 
L 601.78125 101.234452 
L 601.78125 101.234452 
L 582.564234 101.234452 
L 582.564234 77.776398 
L 565.844431 77.776398 
L 565.844431 57.270544 
L 542.198985 57.270544 
L 542.198985 40.187546 
L 535.795383 40.187546 
L 535.795383 27.702855 
L 524.072514 27.702855 
L 524.072514 23.04 
L -167.44988 23.04 
z
" style="fill:#2ca02c;fill-opacity:0.25;stroke:#2ca02c;stroke-opacity:0.25;"/>
   </g>
   <g id="PolyCollection_7">
    <path clip-path="url(#pb8d7c524f7)" d="M -167.44988 23.04 
L -167.44988 23.04 
L 125.348989 23.04 
L 125.348989 189.990663 
L 302.708436 189.990663 
L 302.708436 210.36676 
L 350.3273 210.36676 
L 350.3273 235.702583 
L 359.994537 235.702583 
L 359.994537 259.794493 
L 380.494399 259.794493 
L 380.494399 281.673749 
L 403.887994 281.673749 
L 403.887994 300.970805 
L 409.993491 300.970805 
L 409.993491 317.304593 
L 410.943215 317.304593 
L 410.943215 330.048021 
L 415.143007 330.048021 
L 415.143007 338.026809 
L 539.469971 338.026809 
L 539.469971 339.84 
L 539.469971 339.84 
L 539.469971 339.84 
L 539.469971 226.385221 
L 415.143007 226.385221 
L 415.143007 189.450386 
L 410.943215 189.450386 
L 410.943215 156.77163 
L 409.993491 156.77163 
L 409.993491 127.519171 
L 403.887994 127.519171 
L 403.887994 101.234452 
L 380.494399 101.234452 
L 380.494399 77.776398 
L 359.994537 77.776398 
L 359.994537 57.270544 
L 350.3273 57.270544 
L 350.3273 40.187546 
L 302.708436 40.187546 
L 302.708436 27.702855 
L 125.348989 27.702855 
L 125.348989 23.04 
L -167.44988 23.04 
z
" style="fill:#d62728;fill-opacity:0.25;stroke:#d62728;stroke-opacity:0.25;"/>
   </g>
   <g id="PolyCollection_8">
    <path clip-path="url(#pb8d7c524f7)" d="M -167.44988 23.04 
L -167.44988 23.04 
L 363.064138 23.04 
L 363.064138 189.990663 
L 467.666493 189.990663 
L 467.666493 210.36676 
L 498.446114 210.36676 
L 498.446114 235.702583 
L 499.613876 235.702583 
L 499.613876 259.794493 
L 516.208873 259.794493 
L 516.208873 281.673749 
L 537.74015 281.673749 
L 537.74015 300.970805 
L 569.864638 300.970805 
L 569.864638 317.304593 
L 577.078562 317.304593 
L 577.078562 330.048021 
L 580.446546 330.048021 
L 580.446546 338.026809 
L 601.78125 338.026809 
L 601.78125 338.026809 
L 601.78125 226.385221 
L 601.78125 226.385221 
L 601.78125 226.385221 
L 580.446546 226.385221 
L 580.446546 189.450386 
L 577.078562 189.450386 
L 577.078562 156.77163 
L 569.864638 156.77163 
L 569.864638 127.519171 
L 537.74015 127.519171 
L 537.74015 101.234452 
L 516.208873 101.234452 
L 516.208873 77.776398 
L 499.613876 77.776398 
L 499.613876 57.270544 
L 498.446114 57.270544 
L 498.446114 40.187546 
L 467.666493 40.187546 
L 467.666493 27.702855 
L 363.064138 27.702855 
L 363.064138 23.04 
L -167.44988 23.04 
z
" style="fill:#d62728;fill-opacity:0.25;stroke:#d62728;stroke-opacity:0.25;"/>
   </g>
   <g id="PolyCollection_9">
    <path clip-path="url(#pb8d7c524f7)" d="M -167.44988 23.04 
L -167.44988 23.04 
L 328.902838 23.04 
L 328.902838 189.990663 
L 394.426853 189.990663 
L 394.426853 210.36676 
L 400.357197 210.36676 
L 400.357197 235.702583 
L 437.077791 235.702583 
L 437.077791 259.794493 
L 450.69525 259.794493 
L 450.69525 281.673749 
L 465.807153 281.673749 
L 465.807153 300.970805 
L 488.565173 300.970805 
L 488.565173 317.304593 
L 503.558116 317.304593 
L 503.558116 330.048021 
L 519.402599 330.048021 
L 519.402599 338.026809 
L 545.322339 338.026809 
L 545.322339 339.84 
L 545.322339 339.84 
L 545.322339 339.84 
L 545.322339 226.385221 
L 519.402599 226.385221 
L 519.402599 189.450386 
L 503.558116 189.450386 
L 503.558116 156.77163 
L 488.565173 156.77163 
L 488.565173 127.519171 
L 465.807153 127.519171 
L 465.807153 101.234452 
L 450.69525 101.234452 
L 450.69525 77.776398 
L 437.077791 77.776398 
L 437.077791 57.270544 
L 400.357197 57.270544 
L 400.357197 40.187546 
L 394.426853 40.187546 
L 394.426853 27.702855 
L 328.902838 27.702855 
L 328.902838 23.04 
L -167.44988 23.04 
z
" style="fill:#9467bd;fill-opacity:0.25;stroke:#9467bd;stroke-opacity:0.25;"/>
   </g>
   <g id="PolyCollection_10">
    <path clip-path="url(#pb8d7c524f7)" d="M -167.44988 23.04 
L -167.44988 23.04 
L 334.105442 23.04 
L 334.105442 189.990663 
L 401.937673 189.990663 
L 401.937673 210.36676 
L 472.920516 210.36676 
L 472.920516 235.702583 
L 494.355132 235.702583 
L 494.355132 259.794493 
L 502.10278 259.794493 
L 502.10278 281.673749 
L 524.511296 281.673749 
L 524.511296 300.970805 
L 534.167444 300.970805 
L 534.167444 317.304593 
L 554.836469 317.304593 
L 554.836469 330.048021 
L 559.850917 330.048021 
L 559.850917 338.026809 
L 560.434043 338.026809 
L 560.434043 339.84 
L 560.434043 339.84 
L 560.434043 339.84 
L 560.434043 226.385221 
L 559.850917 226.385221 
L 559.850917 189.450386 
L 554.836469 189.450386 
L 554.836469 156.77163 
L 534.167444 156.77163 
L 534.167444 127.519171 
L 524.511296 127.519171 
L 524.511296 101.234452 
L 502.10278 101.234452 
L 502.10278 77.776398 
L 494.355132 77.776398 
L 494.355132 57.270544 
L 472.920516 57.270544 
L 472.920516 40.187546 
L 401.937673 40.187546 
L 401.937673 27.702855 
L 334.105442 27.702855 
L 334.105442 23.04 
L -167.44988 23.04 
z
" style="fill:#9467bd;fill-opacity:0.25;stroke:#9467bd;stroke-opacity:0.25;"/>
   </g>
   <g id="PolyCollection_11">
    <path clip-path="url(#pb8d7c524f7)" d="M -167.44988 23.04 
L -167.44988 23.04 
L 461.976278 23.04 
L 461.976278 189.990663 
L 504.372168 189.990663 
L 504.372168 210.36676 
L 568.707959 210.36676 
L 568.707959 235.702583 
L 601.78125 235.702583 
L 601.78125 235.702583 
L 601.78125 57.270544 
L 601.78125 57.270544 
L 601.78125 57.270544 
L 568.707959 57.270544 
L 568.707959 40.187546 
L 504.372168 40.187546 
L 504.372168 27.702855 
L 461.976278 27.702855 
L 461.976278 23.04 
L -167.44988 23.04 
z
" style="fill:#8c564b;fill-opacity:0.25;stroke:#8c564b;stroke-opacity:0.25;"/>
   </g>
   <g id="PolyCollection_12">
    <path clip-path="url(#pb8d7c524f7)" d="M -167.44988 23.04 
L -167.44988 23.04 
L 498.744587 23.04 
L 498.744587 189.990663 
L 576.560899 189.990663 
L 576.560899 210.36676 
L 601.78125 210.36676 
L 601.78125 210.36676 
L 601.78125 40.187546 
L 601.78125 40.187546 
L 601.78125 40.187546 
L 576.560899 40.187546 
L 576.560899 27.702855 
L 498.744587 27.702855 
L 498.744587 23.04 
L -167.44988 23.04 
z
" style="fill:#8c564b;fill-opacity:0.25;stroke:#8c564b;stroke-opacity:0.25;"/>
   </g>
   <g id="matplotlib.axis_1">
    <g id="xtick_1">
     <g id="line2d_1">
      <defs>
       <path d="M 0 0 
L 0 3.5 
" id="m7c6222233d" style="stroke:#000000;stroke-width:0.8;"/>
      </defs>
      <g>
       <use style="stroke:#000000;stroke-width:0.8;" x="134.589207" xlink:href="#m7c6222233d" y="339.84"/>
      </g>
     </g>
     <g id="text_1">
      <!-- 1m -->
      <defs>
       <path d="M 12.40625 8.296875 
L 28.515625 8.296875 
L 28.515625 63.921875 
L 10.984375 60.40625 
L 10.984375 69.390625 
L 28.421875 72.90625 
L 38.28125 72.90625 
L 38.28125 8.296875 
L 54.390625 8.296875 
L 54.390625 0 
L 12.40625 0 
z
" id="DejaVuSans-49"/>
       <path d="M 52 44.1875 
Q 55.375 50.25 60.0625 53.125 
Q 64.75 56 71.09375 56 
Q 79.640625 56 84.28125 50.015625 
Q 88.921875 44.046875 88.921875 33.015625 
L 88.921875 0 
L 79.890625 0 
L 79.890625 32.71875 
Q 79.890625 40.578125 77.09375 44.375 
Q 74.3125 48.1875 68.609375 48.1875 
Q 61.625 48.1875 57.5625 43.546875 
Q 53.515625 38.921875 53.515625 30.90625 
L 53.515625 0 
L 44.484375 0 
L 44.484375 32.71875 
Q 44.484375 40.625 41.703125 44.40625 
Q 38.921875 48.1875 33.109375 48.1875 
Q 26.21875 48.1875 22.15625 43.53125 
Q 18.109375 38.875 18.109375 30.90625 
L 18.109375 0 
L 9.078125 0 
L 9.078125 54.6875 
L 18.109375 54.6875 
L 18.109375 46.1875 
Q 21.1875 51.21875 25.484375 53.609375 
Q 29.78125 56 35.6875 56 
Q 41.65625 56 45.828125 52.96875 
Q 50 49.953125 52 44.1875 
z
" id="DejaVuSans-109"/>
      </defs>
      <g transform="translate(126.537645 354.438437)scale(0.1 -0.1)">
       <use xlink:href="#DejaVuSans-49"/>
       <use x="63.623047" xlink:href="#DejaVuSans-109"/>
      </g>
     </g>
    </g>
    <g id="xtick_2">
     <g id="line2d_2">
      <g>
       <use style="stroke:#000000;stroke-width:0.8;" x="169.71852" xlink:href="#m7c6222233d" y="339.84"/>
      </g>
     </g>
     <g id="text_2">
      <!-- 2m -->
      <defs>
       <path d="M 19.1875 8.296875 
L 53.609375 8.296875 
L 53.609375 0 
L 7.328125 0 
L 7.328125 8.296875 
Q 12.9375 14.109375 22.625 23.890625 
Q 32.328125 33.6875 34.8125 36.53125 
Q 39.546875 41.84375 41.421875 45.53125 
Q 43.3125 49.21875 43.3125 52.78125 
Q 43.3125 58.59375 39.234375 62.25 
Q 35.15625 65.921875 28.609375 65.921875 
Q 23.96875 65.921875 18.8125 64.3125 
Q 13.671875 62.703125 7.8125 59.421875 
L 7.8125 69.390625 
Q 13.765625 71.78125 18.9375 73 
Q 24.125 74.21875 28.421875 74.21875 
Q 39.75 74.21875 46.484375 68.546875 
Q 53.21875 62.890625 53.21875 53.421875 
Q 53.21875 48.921875 51.53125 44.890625 
Q 49.859375 40.875 45.40625 35.40625 
Q 44.1875 33.984375 37.640625 27.21875 
Q 31.109375 20.453125 19.1875 8.296875 
z
" id="DejaVuSans-50"/>
      </defs>
      <g transform="translate(161.666958 354.438437)scale(0.1 -0.1)">
       <use xlink:href="#DejaVuSans-50"/>
       <use x="63.623047" xlink:href="#DejaVuSans-109"/>
      </g>
     </g>
    </g>
    <g id="xtick_3">
     <g id="line2d_3">
      <g>
       <use style="stroke:#000000;stroke-width:0.8;" x="204.847833" xlink:href="#m7c6222233d" y="339.84"/>
      </g>
     </g>
     <g id="text_3">
      <!-- 4m -->
      <defs>
       <path d="M 37.796875 64.3125 
L 12.890625 25.390625 
L 37.796875 25.390625 
z
M 35.203125 72.90625 
L 47.609375 72.90625 
L 47.609375 25.390625 
L 58.015625 25.390625 
L 58.015625 17.1875 
L 47.609375 17.1875 
L 47.609375 0 
L 37.796875 0 
L 37.796875 17.1875 
L 4.890625 17.1875 
L 4.890625 26.703125 
z
" id="DejaVuSans-52"/>
      </defs>
      <g transform="translate(196.796271 354.438437)scale(0.1 -0.1)">
       <use xlink:href="#DejaVuSans-52"/>
       <use x="63.623047" xlink:href="#DejaVuSans-109"/>
      </g>
     </g>
    </g>
    <g id="xtick_4">
     <g id="line2d_4">
      <g>
       <use style="stroke:#000000;stroke-width:0.8;" x="239.977147" xlink:href="#m7c6222233d" y="339.84"/>
      </g>
     </g>
     <g id="text_4">
      <!-- 8m -->
      <defs>
       <path d="M 31.78125 34.625 
Q 24.75 34.625 20.71875 30.859375 
Q 16.703125 27.09375 16.703125 20.515625 
Q 16.703125 13.921875 20.71875 10.15625 
Q 24.75 6.390625 31.78125 6.390625 
Q 38.8125 6.390625 42.859375 10.171875 
Q 46.921875 13.96875 46.921875 20.515625 
Q 46.921875 27.09375 42.890625 30.859375 
Q 38.875 34.625 31.78125 34.625 
z
M 21.921875 38.8125 
Q 15.578125 40.375 12.03125 44.71875 
Q 8.5 49.078125 8.5 55.328125 
Q 8.5 64.0625 14.71875 69.140625 
Q 20.953125 74.21875 31.78125 74.21875 
Q 42.671875 74.21875 48.875 69.140625 
Q 55.078125 64.0625 55.078125 55.328125 
Q 55.078125 49.078125 51.53125 44.71875 
Q 48 40.375 41.703125 38.8125 
Q 48.828125 37.15625 52.796875 32.3125 
Q 56.78125 27.484375 56.78125 20.515625 
Q 56.78125 9.90625 50.3125 4.234375 
Q 43.84375 -1.421875 31.78125 -1.421875 
Q 19.734375 -1.421875 13.25 4.234375 
Q 6.78125 9.90625 6.78125 20.515625 
Q 6.78125 27.484375 10.78125 32.3125 
Q 14.796875 37.15625 21.921875 38.8125 
z
M 18.3125 54.390625 
Q 18.3125 48.734375 21.84375 45.5625 
Q 25.390625 42.390625 31.78125 42.390625 
Q 38.140625 42.390625 41.71875 45.5625 
Q 45.3125 48.734375 45.3125 54.390625 
Q 45.3125 60.0625 41.71875 63.234375 
Q 38.140625 66.40625 31.78125 66.40625 
Q 25.390625 66.40625 21.84375 63.234375 
Q 18.3125 60.0625 18.3125 54.390625 
z
" id="DejaVuSans-56"/>
      </defs>
      <g transform="translate(231.925584 354.438437)scale(0.1 -0.1)">
       <use xlink:href="#DejaVuSans-56"/>
       <use x="63.623047" xlink:href="#DejaVuSans-109"/>
      </g>
     </g>
    </g>
    <g id="xtick_5">
     <g id="line2d_5">
      <g>
       <use style="stroke:#000000;stroke-width:0.8;" x="271.83559" xlink:href="#m7c6222233d" y="339.84"/>
      </g>
     </g>
     <g id="text_5">
      <!-- 15m -->
      <defs>
       <path d="M 10.796875 72.90625 
L 49.515625 72.90625 
L 49.515625 64.59375 
L 19.828125 64.59375 
L 19.828125 46.734375 
Q 21.96875 47.46875 24.109375 47.828125 
Q 26.265625 48.1875 28.421875 48.1875 
Q 40.625 48.1875 47.75 41.5 
Q 54.890625 34.8125 54.890625 23.390625 
Q 54.890625 11.625 47.5625 5.09375 
Q 40.234375 -1.421875 26.90625 -1.421875 
Q 22.3125 -1.421875 17.546875 -0.640625 
Q 12.796875 0.140625 7.71875 1.703125 
L 7.71875 11.625 
Q 12.109375 9.234375 16.796875 8.0625 
Q 21.484375 6.890625 26.703125 6.890625 
Q 35.15625 6.890625 40.078125 11.328125 
Q 45.015625 15.765625 45.015625 23.390625 
Q 45.015625 31 40.078125 35.4375 
Q 35.15625 39.890625 26.703125 39.890625 
Q 22.75 39.890625 18.8125 39.015625 
Q 14.890625 38.140625 10.796875 36.28125 
z
" id="DejaVuSans-53"/>
      </defs>
      <g transform="translate(260.602778 354.438437)scale(0.1 -0.1)">
       <use xlink:href="#DejaVuSans-49"/>
       <use x="63.623047" xlink:href="#DejaVuSans-53"/>
       <use x="127.246094" xlink:href="#DejaVuSans-109"/>
      </g>
     </g>
    </g>
    <g id="xtick_6">
     <g id="line2d_6">
      <g>
       <use style="stroke:#000000;stroke-width:0.8;" x="306.964903" xlink:href="#m7c6222233d" y="339.84"/>
      </g>
     </g>
     <g id="text_6">
      <!-- 30m -->
      <defs>
       <path d="M 40.578125 39.3125 
Q 47.65625 37.796875 51.625 33 
Q 55.609375 28.21875 55.609375 21.1875 
Q 55.609375 10.40625 48.1875 4.484375 
Q 40.765625 -1.421875 27.09375 -1.421875 
Q 22.515625 -1.421875 17.65625 -0.515625 
Q 12.796875 0.390625 7.625 2.203125 
L 7.625 11.71875 
Q 11.71875 9.328125 16.59375 8.109375 
Q 21.484375 6.890625 26.8125 6.890625 
Q 36.078125 6.890625 40.9375 10.546875 
Q 45.796875 14.203125 45.796875 21.1875 
Q 45.796875 27.640625 41.28125 31.265625 
Q 36.765625 34.90625 28.71875 34.90625 
L 20.21875 34.90625 
L 20.21875 43.015625 
L 29.109375 43.015625 
Q 36.375 43.015625 40.234375 45.921875 
Q 44.09375 48.828125 44.09375 54.296875 
Q 44.09375 59.90625 40.109375 62.90625 
Q 36.140625 65.921875 28.71875 65.921875 
Q 24.65625 65.921875 20.015625 65.03125 
Q 15.375 64.15625 9.8125 62.3125 
L 9.8125 71.09375 
Q 15.4375 72.65625 20.34375 73.4375 
Q 25.25 74.21875 29.59375 74.21875 
Q 40.828125 74.21875 47.359375 69.109375 
Q 53.90625 64.015625 53.90625 55.328125 
Q 53.90625 49.265625 50.4375 45.09375 
Q 46.96875 40.921875 40.578125 39.3125 
z
" id="DejaVuSans-51"/>
       <path d="M 31.78125 66.40625 
Q 24.171875 66.40625 20.328125 58.90625 
Q 16.5 51.421875 16.5 36.375 
Q 16.5 21.390625 20.328125 13.890625 
Q 24.171875 6.390625 31.78125 6.390625 
Q 39.453125 6.390625 43.28125 13.890625 
Q 47.125 21.390625 47.125 36.375 
Q 47.125 51.421875 43.28125 58.90625 
Q 39.453125 66.40625 31.78125 66.40625 
z
M 31.78125 74.21875 
Q 44.046875 74.21875 50.515625 64.515625 
Q 56.984375 54.828125 56.984375 36.375 
Q 56.984375 17.96875 50.515625 8.265625 
Q 44.046875 -1.421875 31.78125 -1.421875 
Q 19.53125 -1.421875 13.0625 8.265625 
Q 6.59375 17.96875 6.59375 36.375 
Q 6.59375 54.828125 13.0625 64.515625 
Q 19.53125 74.21875 31.78125 74.21875 
z
" id="DejaVuSans-48"/>
      </defs>
      <g transform="translate(295.732091 354.438437)scale(0.1 -0.1)">
       <use xlink:href="#DejaVuSans-51"/>
       <use x="63.623047" xlink:href="#DejaVuSans-48"/>
       <use x="127.246094" xlink:href="#DejaVuSans-109"/>
      </g>
     </g>
    </g>
    <g id="xtick_7">
     <g id="line2d_7">
      <g>
       <use style="stroke:#000000;stroke-width:0.8;" x="342.094216" xlink:href="#m7c6222233d" y="339.84"/>
      </g>
     </g>
     <g id="text_7">
      <!-- 1h -->
      <defs>
       <path d="M 54.890625 33.015625 
L 54.890625 0 
L 45.90625 0 
L 45.90625 32.71875 
Q 45.90625 40.484375 42.875 44.328125 
Q 39.84375 48.1875 33.796875 48.1875 
Q 26.515625 48.1875 22.3125 43.546875 
Q 18.109375 38.921875 18.109375 30.90625 
L 18.109375 0 
L 9.078125 0 
L 9.078125 75.984375 
L 18.109375 75.984375 
L 18.109375 46.1875 
Q 21.34375 51.125 25.703125 53.5625 
Q 30.078125 56 35.796875 56 
Q 45.21875 56 50.046875 50.171875 
Q 54.890625 44.34375 54.890625 33.015625 
z
" id="DejaVuSans-104"/>
      </defs>
      <g transform="translate(335.744216 354.438437)scale(0.1 -0.1)">
       <use xlink:href="#DejaVuSans-49"/>
       <use x="63.623047" xlink:href="#DejaVuSans-104"/>
      </g>
     </g>
    </g>
    <g id="xtick_8">
     <g id="line2d_8">
      <g>
       <use style="stroke:#000000;stroke-width:0.8;" x="377.22353" xlink:href="#m7c6222233d" y="339.84"/>
      </g>
     </g>
     <g id="text_8">
      <!-- 2h -->
      <g transform="translate(370.87353 354.438437)scale(0.1 -0.1)">
       <use xlink:href="#DejaVuSans-50"/>
       <use x="63.623047" xlink:href="#DejaVuSans-104"/>
      </g>
     </g>
    </g>
    <g id="xtick_9">
     <g id="line2d_9">
      <g>
       <use style="stroke:#000000;stroke-width:0.8;" x="412.352843" xlink:href="#m7c6222233d" y="339.84"/>
      </g>
     </g>
     <g id="text_9">
      <!-- 4h -->
      <g transform="translate(406.002843 354.438437)scale(0.1 -0.1)">
       <use xlink:href="#DejaVuSans-52"/>
       <use x="63.623047" xlink:href="#DejaVuSans-104"/>
      </g>
     </g>
    </g>
    <g id="xtick_10">
     <g id="line2d_10">
      <g>
       <use style="stroke:#000000;stroke-width:0.8;" x="447.482156" xlink:href="#m7c6222233d" y="339.84"/>
      </g>
     </g>
     <g id="text_10">
      <!-- 8h -->
      <g transform="translate(441.132156 354.438437)scale(0.1 -0.1)">
       <use xlink:href="#DejaVuSans-56"/>
       <use x="63.623047" xlink:href="#DejaVuSans-104"/>
      </g>
     </g>
    </g>
    <g id="xtick_11">
     <g id="line2d_11">
      <g>
       <use style="stroke:#000000;stroke-width:0.8;" x="468.031487" xlink:href="#m7c6222233d" y="339.84"/>
      </g>
     </g>
     <g id="text_11">
      <!-- 12h -->
      <g transform="translate(458.500237 354.438437)scale(0.1 -0.1)">
       <use xlink:href="#DejaVuSans-49"/>
       <use x="63.623047" xlink:href="#DejaVuSans-50"/>
       <use x="127.246094" xlink:href="#DejaVuSans-104"/>
      </g>
     </g>
    </g>
    <g id="xtick_12">
     <g id="line2d_12">
      <g>
       <use style="stroke:#000000;stroke-width:0.8;" x="503.1608" xlink:href="#m7c6222233d" y="339.84"/>
      </g>
     </g>
     <g id="text_12">
      <!-- 1d -->
      <defs>
       <path d="M 45.40625 46.390625 
L 45.40625 75.984375 
L 54.390625 75.984375 
L 54.390625 0 
L 45.40625 0 
L 45.40625 8.203125 
Q 42.578125 3.328125 38.25 0.953125 
Q 33.9375 -1.421875 27.875 -1.421875 
Q 17.96875 -1.421875 11.734375 6.484375 
Q 5.515625 14.40625 5.515625 27.296875 
Q 5.515625 40.1875 11.734375 48.09375 
Q 17.96875 56 27.875 56 
Q 33.9375 56 38.25 53.625 
Q 42.578125 51.265625 45.40625 46.390625 
z
M 14.796875 27.296875 
Q 14.796875 17.390625 18.875 11.75 
Q 22.953125 6.109375 30.078125 6.109375 
Q 37.203125 6.109375 41.296875 11.75 
Q 45.40625 17.390625 45.40625 27.296875 
Q 45.40625 37.203125 41.296875 42.84375 
Q 37.203125 48.484375 30.078125 48.484375 
Q 22.953125 48.484375 18.875 42.84375 
Q 14.796875 37.203125 14.796875 27.296875 
z
" id="DejaVuSans-100"/>
      </defs>
      <g transform="translate(496.805331 354.438437)scale(0.1 -0.1)">
       <use xlink:href="#DejaVuSans-49"/>
       <use x="63.623047" xlink:href="#DejaVuSans-100"/>
      </g>
     </g>
    </g>
    <g id="xtick_13">
     <g id="line2d_13">
      <g>
       <use style="stroke:#000000;stroke-width:0.8;" x="538.290113" xlink:href="#m7c6222233d" y="339.84"/>
      </g>
     </g>
     <g id="text_13">
      <!-- 2d -->
      <g transform="translate(531.934644 354.438437)scale(0.1 -0.1)">
       <use xlink:href="#DejaVuSans-50"/>
       <use x="63.623047" xlink:href="#DejaVuSans-100"/>
      </g>
     </g>
    </g>
    <g id="xtick_14">
     <g id="line2d_14">
      <g>
       <use style="stroke:#000000;stroke-width:0.8;" x="573.419426" xlink:href="#m7c6222233d" y="339.84"/>
      </g>
     </g>
     <g id="text_14">
      <!-- 4d -->
      <g transform="translate(567.063957 354.438437)scale(0.1 -0.1)">
       <use xlink:href="#DejaVuSans-52"/>
       <use x="63.623047" xlink:href="#DejaVuSans-100"/>
      </g>
     </g>
    </g>
    <g id="xtick_15">
     <g id="line2d_15">
      <g>
       <use style="stroke:#000000;stroke-width:0.8;" x="601.78125" xlink:href="#m7c6222233d" y="339.84"/>
      </g>
     </g>
     <g id="text_15">
      <!-- 1w -->
      <defs>
       <path d="M 4.203125 54.6875 
L 13.1875 54.6875 
L 24.421875 12.015625 
L 35.59375 54.6875 
L 46.1875 54.6875 
L 57.421875 12.015625 
L 68.609375 54.6875 
L 77.59375 54.6875 
L 63.28125 0 
L 52.6875 0 
L 40.921875 44.828125 
L 29.109375 0 
L 18.5 0 
z
" id="DejaVuSans-119"/>
      </defs>
      <g transform="translate(594.510937 354.438437)scale(0.1 -0.1)">
       <use xlink:href="#DejaVuSans-49"/>
       <use x="63.623047" xlink:href="#DejaVuSans-119"/>
      </g>
     </g>
    </g>
    <g id="xtick_16">
     <g id="line2d_16">
      <defs>
       <path d="M 0 0 
L 0 2 
" id="m3c65edd239" style="stroke:#000000;stroke-width:0.6;"/>
      </defs>
      <g>
       <use style="stroke:#000000;stroke-width:0.6;" x="43.78125" xlink:href="#m3c65edd239" y="339.84"/>
      </g>
     </g>
    </g>
    <g id="xtick_17">
     <g id="line2d_17">
      <g>
       <use style="stroke:#000000;stroke-width:0.6;" x="160.478302" xlink:href="#m3c65edd239" y="339.84"/>
      </g>
     </g>
    </g>
    <g id="xtick_18">
     <g id="line2d_18">
      <g>
       <use style="stroke:#000000;stroke-width:0.6;" x="277.175354" xlink:href="#m3c65edd239" y="339.84"/>
      </g>
     </g>
    </g>
    <g id="xtick_19">
     <g id="line2d_19">
      <g>
       <use style="stroke:#000000;stroke-width:0.6;" x="393.872407" xlink:href="#m3c65edd239" y="339.84"/>
      </g>
     </g>
    </g>
    <g id="xtick_20">
     <g id="line2d_20">
      <g>
       <use style="stroke:#000000;stroke-width:0.6;" x="510.569459" xlink:href="#m3c65edd239" y="339.84"/>
      </g>
     </g>
    </g>
    <g id="text_16">
     <!-- Time -->
     <defs>
      <path d="M -0.296875 72.90625 
L 61.375 72.90625 
L 61.375 64.59375 
L 35.5 64.59375 
L 35.5 0 
L 25.59375 0 
L 25.59375 64.59375 
L -0.296875 64.59375 
z
" id="DejaVuSans-84"/>
      <path d="M 9.421875 54.6875 
L 18.40625 54.6875 
L 18.40625 0 
L 9.421875 0 
z
M 9.421875 75.984375 
L 18.40625 75.984375 
L 18.40625 64.59375 
L 9.421875 64.59375 
z
" id="DejaVuSans-105"/>
      <path d="M 56.203125 29.59375 
L 56.203125 25.203125 
L 14.890625 25.203125 
Q 15.484375 15.921875 20.484375 11.0625 
Q 25.484375 6.203125 34.421875 6.203125 
Q 39.59375 6.203125 44.453125 7.46875 
Q 49.3125 8.734375 54.109375 11.28125 
L 54.109375 2.78125 
Q 49.265625 0.734375 44.1875 -0.34375 
Q 39.109375 -1.421875 33.890625 -1.421875 
Q 20.796875 -1.421875 13.15625 6.1875 
Q 5.515625 13.8125 5.515625 26.8125 
Q 5.515625 40.234375 12.765625 48.109375 
Q 20.015625 56 32.328125 56 
Q 43.359375 56 49.78125 48.890625 
Q 56.203125 41.796875 56.203125 29.59375 
z
M 47.21875 32.234375 
Q 47.125 39.59375 43.09375 43.984375 
Q 39.0625 48.390625 32.421875 48.390625 
Q 24.90625 48.390625 20.390625 44.140625 
Q 15.875 39.890625 15.1875 32.171875 
z
" id="DejaVuSans-101"/>
     </defs>
     <g transform="translate(310.547656 368.116562)scale(0.1 -0.1)">
      <use xlink:href="#DejaVuSans-84"/>
      <use x="57.958984" xlink:href="#DejaVuSans-105"/>
      <use x="85.742188" xlink:href="#DejaVuSans-109"/>
      <use x="183.154297" xlink:href="#DejaVuSans-101"/>
     </g>
    </g>
   </g>
   <g id="matplotlib.axis_2">
    <g id="ytick_1">
     <g id="line2d_21">
      <defs>
       <path d="M 0 0 
L -3.5 0 
" id="m2d53cedbdb" style="stroke:#000000;stroke-width:0.8;"/>
      </defs>
      <g>
       <use style="stroke:#000000;stroke-width:0.8;" x="43.78125" xlink:href="#m2d53cedbdb" y="339.84"/>
      </g>
     </g>
     <g id="text_17">
      <!-- 0.0 -->
      <defs>
       <path d="M 10.6875 12.40625 
L 21 12.40625 
L 21 0 
L 10.6875 0 
z
" id="DejaVuSans-46"/>
      </defs>
      <g transform="translate(20.878125 343.639219)scale(0.1 -0.1)">
       <use xlink:href="#DejaVuSans-48"/>
       <use x="63.623047" xlink:href="#DejaVuSans-46"/>
       <use x="95.410156" xlink:href="#DejaVuSans-48"/>
      </g>
     </g>
    </g>
    <g id="ytick_2">
     <g id="line2d_22">
      <g>
       <use style="stroke:#000000;stroke-width:0.8;" x="43.78125" xlink:href="#m2d53cedbdb" y="276.48"/>
      </g>
     </g>
     <g id="text_18">
      <!-- 0.2 -->
      <g transform="translate(20.878125 280.279219)scale(0.1 -0.1)">
       <use xlink:href="#DejaVuSans-48"/>
       <use x="63.623047" xlink:href="#DejaVuSans-46"/>
       <use x="95.410156" xlink:href="#DejaVuSans-50"/>
      </g>
     </g>
    </g>
    <g id="ytick_3">
     <g id="line2d_23">
      <g>
       <use style="stroke:#000000;stroke-width:0.8;" x="43.78125" xlink:href="#m2d53cedbdb" y="213.12"/>
      </g>
     </g>
     <g id="text_19">
      <!-- 0.4 -->
      <g transform="translate(20.878125 216.919219)scale(0.1 -0.1)">
       <use xlink:href="#DejaVuSans-48"/>
       <use x="63.623047" xlink:href="#DejaVuSans-46"/>
       <use x="95.410156" xlink:href="#DejaVuSans-52"/>
      </g>
     </g>
    </g>
    <g id="ytick_4">
     <g id="line2d_24">
      <g>
       <use style="stroke:#000000;stroke-width:0.8;" x="43.78125" xlink:href="#m2d53cedbdb" y="149.76"/>
      </g>
     </g>
     <g id="text_20">
      <!-- 0.6 -->
      <defs>
       <path d="M 33.015625 40.375 
Q 26.375 40.375 22.484375 35.828125 
Q 18.609375 31.296875 18.609375 23.390625 
Q 18.609375 15.53125 22.484375 10.953125 
Q 26.375 6.390625 33.015625 6.390625 
Q 39.65625 6.390625 43.53125 10.953125 
Q 47.40625 15.53125 47.40625 23.390625 
Q 47.40625 31.296875 43.53125 35.828125 
Q 39.65625 40.375 33.015625 40.375 
z
M 52.59375 71.296875 
L 52.59375 62.3125 
Q 48.875 64.0625 45.09375 64.984375 
Q 41.3125 65.921875 37.59375 65.921875 
Q 27.828125 65.921875 22.671875 59.328125 
Q 17.53125 52.734375 16.796875 39.40625 
Q 19.671875 43.65625 24.015625 45.921875 
Q 28.375 48.1875 33.59375 48.1875 
Q 44.578125 48.1875 50.953125 41.515625 
Q 57.328125 34.859375 57.328125 23.390625 
Q 57.328125 12.15625 50.6875 5.359375 
Q 44.046875 -1.421875 33.015625 -1.421875 
Q 20.359375 -1.421875 13.671875 8.265625 
Q 6.984375 17.96875 6.984375 36.375 
Q 6.984375 53.65625 15.1875 63.9375 
Q 23.390625 74.21875 37.203125 74.21875 
Q 40.921875 74.21875 44.703125 73.484375 
Q 48.484375 72.75 52.59375 71.296875 
z
" id="DejaVuSans-54"/>
      </defs>
      <g transform="translate(20.878125 153.559219)scale(0.1 -0.1)">
       <use xlink:href="#DejaVuSans-48"/>
       <use x="63.623047" xlink:href="#DejaVuSans-46"/>
       <use x="95.410156" xlink:href="#DejaVuSans-54"/>
      </g>
     </g>
    </g>
    <g id="ytick_5">
     <g id="line2d_25">
      <g>
       <use style="stroke:#000000;stroke-width:0.8;" x="43.78125" xlink:href="#m2d53cedbdb" y="86.4"/>
      </g>
     </g>
     <g id="text_21">
      <!-- 0.8 -->
      <g transform="translate(20.878125 90.199219)scale(0.1 -0.1)">
       <use xlink:href="#DejaVuSans-48"/>
       <use x="63.623047" xlink:href="#DejaVuSans-46"/>
       <use x="95.410156" xlink:href="#DejaVuSans-56"/>
      </g>
     </g>
    </g>
    <g id="ytick_6">
     <g id="line2d_26">
      <g>
       <use style="stroke:#000000;stroke-width:0.8;" x="43.78125" xlink:href="#m2d53cedbdb" y="23.04"/>
      </g>
     </g>
     <g id="text_22">
      <!-- 1.0 -->
      <g transform="translate(20.878125 26.839219)scale(0.1 -0.1)">
       <use xlink:href="#DejaVuSans-49"/>
       <use x="63.623047" xlink:href="#DejaVuSans-46"/>
       <use x="95.410156" xlink:href="#DejaVuSans-48"/>
      </g>
     </g>
    </g>
    <g id="text_23">
     <!-- Survival Probability -->
     <defs>
      <path d="M 53.515625 70.515625 
L 53.515625 60.890625 
Q 47.90625 63.578125 42.921875 64.890625 
Q 37.9375 66.21875 33.296875 66.21875 
Q 25.25 66.21875 20.875 63.09375 
Q 16.5 59.96875 16.5 54.203125 
Q 16.5 49.359375 19.40625 46.890625 
Q 22.3125 44.4375 30.421875 42.921875 
L 36.375 41.703125 
Q 47.40625 39.59375 52.65625 34.296875 
Q 57.90625 29 57.90625 20.125 
Q 57.90625 9.515625 50.796875 4.046875 
Q 43.703125 -1.421875 29.984375 -1.421875 
Q 24.8125 -1.421875 18.96875 -0.25 
Q 13.140625 0.921875 6.890625 3.21875 
L 6.890625 13.375 
Q 12.890625 10.015625 18.65625 8.296875 
Q 24.421875 6.59375 29.984375 6.59375 
Q 38.421875 6.59375 43.015625 9.90625 
Q 47.609375 13.234375 47.609375 19.390625 
Q 47.609375 24.75 44.3125 27.78125 
Q 41.015625 30.8125 33.5 32.328125 
L 27.484375 33.5 
Q 16.453125 35.6875 11.515625 40.375 
Q 6.59375 45.0625 6.59375 53.421875 
Q 6.59375 63.09375 13.40625 68.65625 
Q 20.21875 74.21875 32.171875 74.21875 
Q 37.3125 74.21875 42.625 73.28125 
Q 47.953125 72.359375 53.515625 70.515625 
z
" id="DejaVuSans-83"/>
      <path d="M 8.5 21.578125 
L 8.5 54.6875 
L 17.484375 54.6875 
L 17.484375 21.921875 
Q 17.484375 14.15625 20.5 10.265625 
Q 23.53125 6.390625 29.59375 6.390625 
Q 36.859375 6.390625 41.078125 11.03125 
Q 45.3125 15.671875 45.3125 23.6875 
L 45.3125 54.6875 
L 54.296875 54.6875 
L 54.296875 0 
L 45.3125 0 
L 45.3125 8.40625 
Q 42.046875 3.421875 37.71875 1 
Q 33.40625 -1.421875 27.6875 -1.421875 
Q 18.265625 -1.421875 13.375 4.4375 
Q 8.5 10.296875 8.5 21.578125 
z
M 31.109375 56 
z
" id="DejaVuSans-117"/>
      <path d="M 41.109375 46.296875 
Q 39.59375 47.171875 37.8125 47.578125 
Q 36.03125 48 33.890625 48 
Q 26.265625 48 22.1875 43.046875 
Q 18.109375 38.09375 18.109375 28.8125 
L 18.109375 0 
L 9.078125 0 
L 9.078125 54.6875 
L 18.109375 54.6875 
L 18.109375 46.1875 
Q 20.953125 51.171875 25.484375 53.578125 
Q 30.03125 56 36.53125 56 
Q 37.453125 56 38.578125 55.875 
Q 39.703125 55.765625 41.0625 55.515625 
z
" id="DejaVuSans-114"/>
      <path d="M 2.984375 54.6875 
L 12.5 54.6875 
L 29.59375 8.796875 
L 46.6875 54.6875 
L 56.203125 54.6875 
L 35.6875 0 
L 23.484375 0 
z
" id="DejaVuSans-118"/>
      <path d="M 34.28125 27.484375 
Q 23.390625 27.484375 19.1875 25 
Q 14.984375 22.515625 14.984375 16.5 
Q 14.984375 11.71875 18.140625 8.90625 
Q 21.296875 6.109375 26.703125 6.109375 
Q 34.1875 6.109375 38.703125 11.40625 
Q 43.21875 16.703125 43.21875 25.484375 
L 43.21875 27.484375 
z
M 52.203125 31.203125 
L 52.203125 0 
L 43.21875 0 
L 43.21875 8.296875 
Q 40.140625 3.328125 35.546875 0.953125 
Q 30.953125 -1.421875 24.3125 -1.421875 
Q 15.921875 -1.421875 10.953125 3.296875 
Q 6 8.015625 6 15.921875 
Q 6 25.140625 12.171875 29.828125 
Q 18.359375 34.515625 30.609375 34.515625 
L 43.21875 34.515625 
L 43.21875 35.40625 
Q 43.21875 41.609375 39.140625 45 
Q 35.0625 48.390625 27.6875 48.390625 
Q 23 48.390625 18.546875 47.265625 
Q 14.109375 46.140625 10.015625 43.890625 
L 10.015625 52.203125 
Q 14.9375 54.109375 19.578125 55.046875 
Q 24.21875 56 28.609375 56 
Q 40.484375 56 46.34375 49.84375 
Q 52.203125 43.703125 52.203125 31.203125 
z
" id="DejaVuSans-97"/>
      <path d="M 9.421875 75.984375 
L 18.40625 75.984375 
L 18.40625 0 
L 9.421875 0 
z
" id="DejaVuSans-108"/>
      <path id="DejaVuSans-32"/>
      <path d="M 19.671875 64.796875 
L 19.671875 37.40625 
L 32.078125 37.40625 
Q 38.96875 37.40625 42.71875 40.96875 
Q 46.484375 44.53125 46.484375 51.125 
Q 46.484375 57.671875 42.71875 61.234375 
Q 38.96875 64.796875 32.078125 64.796875 
z
M 9.8125 72.90625 
L 32.078125 72.90625 
Q 44.34375 72.90625 50.609375 67.359375 
Q 56.890625 61.8125 56.890625 51.125 
Q 56.890625 40.328125 50.609375 34.8125 
Q 44.34375 29.296875 32.078125 29.296875 
L 19.671875 29.296875 
L 19.671875 0 
L 9.8125 0 
z
" id="DejaVuSans-80"/>
      <path d="M 30.609375 48.390625 
Q 23.390625 48.390625 19.1875 42.75 
Q 14.984375 37.109375 14.984375 27.296875 
Q 14.984375 17.484375 19.15625 11.84375 
Q 23.34375 6.203125 30.609375 6.203125 
Q 37.796875 6.203125 41.984375 11.859375 
Q 46.1875 17.53125 46.1875 27.296875 
Q 46.1875 37.015625 41.984375 42.703125 
Q 37.796875 48.390625 30.609375 48.390625 
z
M 30.609375 56 
Q 42.328125 56 49.015625 48.375 
Q 55.71875 40.765625 55.71875 27.296875 
Q 55.71875 13.875 49.015625 6.21875 
Q 42.328125 -1.421875 30.609375 -1.421875 
Q 18.84375 -1.421875 12.171875 6.21875 
Q 5.515625 13.875 5.515625 27.296875 
Q 5.515625 40.765625 12.171875 48.375 
Q 18.84375 56 30.609375 56 
z
" id="DejaVuSans-111"/>
      <path d="M 48.6875 27.296875 
Q 48.6875 37.203125 44.609375 42.84375 
Q 40.53125 48.484375 33.40625 48.484375 
Q 26.265625 48.484375 22.1875 42.84375 
Q 18.109375 37.203125 18.109375 27.296875 
Q 18.109375 17.390625 22.1875 11.75 
Q 26.265625 6.109375 33.40625 6.109375 
Q 40.53125 6.109375 44.609375 11.75 
Q 48.6875 17.390625 48.6875 27.296875 
z
M 18.109375 46.390625 
Q 20.953125 51.265625 25.265625 53.625 
Q 29.59375 56 35.59375 56 
Q 45.5625 56 51.78125 48.09375 
Q 58.015625 40.1875 58.015625 27.296875 
Q 58.015625 14.40625 51.78125 6.484375 
Q 45.5625 -1.421875 35.59375 -1.421875 
Q 29.59375 -1.421875 25.265625 0.953125 
Q 20.953125 3.328125 18.109375 8.203125 
L 18.109375 0 
L 9.078125 0 
L 9.078125 75.984375 
L 18.109375 75.984375 
z
" id="DejaVuSans-98"/>
      <path d="M 18.3125 70.21875 
L 18.3125 54.6875 
L 36.8125 54.6875 
L 36.8125 47.703125 
L 18.3125 47.703125 
L 18.3125 18.015625 
Q 18.3125 11.328125 20.140625 9.421875 
Q 21.96875 7.515625 27.59375 7.515625 
L 36.8125 7.515625 
L 36.8125 0 
L 27.59375 0 
Q 17.1875 0 13.234375 3.875 
Q 9.28125 7.765625 9.28125 18.015625 
L 9.28125 47.703125 
L 2.6875 47.703125 
L 2.6875 54.6875 
L 9.28125 54.6875 
L 9.28125 70.21875 
z
" id="DejaVuSans-116"/>
      <path d="M 32.171875 -5.078125 
Q 28.375 -14.84375 24.75 -17.8125 
Q 21.140625 -20.796875 15.09375 -20.796875 
L 7.90625 -20.796875 
L 7.90625 -13.28125 
L 13.1875 -13.28125 
Q 16.890625 -13.28125 18.9375 -11.515625 
Q 21 -9.765625 23.484375 -3.21875 
L 25.09375 0.875 
L 2.984375 54.6875 
L 12.5 54.6875 
L 29.59375 11.921875 
L 46.6875 54.6875 
L 56.203125 54.6875 
z
" id="DejaVuSans-121"/>
     </defs>
     <g transform="translate(14.798438 221.697344)rotate(-90)scale(0.1 -0.1)">
      <use xlink:href="#DejaVuSans-83"/>
      <use x="63.476562" xlink:href="#DejaVuSans-117"/>
      <use x="126.855469" xlink:href="#DejaVuSans-114"/>
      <use x="167.96875" xlink:href="#DejaVuSans-118"/>
      <use x="227.148438" xlink:href="#DejaVuSans-105"/>
      <use x="254.931641" xlink:href="#DejaVuSans-118"/>
      <use x="314.111328" xlink:href="#DejaVuSans-97"/>
      <use x="375.390625" xlink:href="#DejaVuSans-108"/>
      <use x="403.173828" xlink:href="#DejaVuSans-32"/>
      <use x="434.960938" xlink:href="#DejaVuSans-80"/>
      <use x="493.513672" xlink:href="#DejaVuSans-114"/>
      <use x="532.376953" xlink:href="#DejaVuSans-111"/>
      <use x="593.558594" xlink:href="#DejaVuSans-98"/>
      <use x="657.035156" xlink:href="#DejaVuSans-97"/>
      <use x="718.314453" xlink:href="#DejaVuSans-98"/>
      <use x="781.791016" xlink:href="#DejaVuSans-105"/>
      <use x="809.574219" xlink:href="#DejaVuSans-108"/>
      <use x="837.357422" xlink:href="#DejaVuSans-105"/>
      <use x="865.140625" xlink:href="#DejaVuSans-116"/>
      <use x="904.349609" xlink:href="#DejaVuSans-121"/>
     </g>
    </g>
   </g>
   <g id="line2d_27">
    <path clip-path="url(#pb8d7c524f7)" d="M -1 23.04 
L 404.012619 23.04 
L 404.012619 54.72 
L 422.147275 54.72 
L 422.147275 86.4 
L 577.557892 86.4 
L 577.557892 118.08 
L 601.78125 118.08 
L 601.78125 118.08 
" style="fill:none;stroke:#1f77b4;stroke-dasharray:1.5,2.475;stroke-dashoffset:0;stroke-width:1.5;"/>
    <defs>
     <path d="M 0 1.5 
C 0.397805 1.5 0.77937 1.341951 1.06066 1.06066 
C 1.341951 0.77937 1.5 0.397805 1.5 0 
C 1.5 -0.397805 1.341951 -0.77937 1.06066 -1.06066 
C 0.77937 -1.341951 0.397805 -1.5 0 -1.5 
C -0.397805 -1.5 -0.77937 -1.341951 -1.06066 -1.06066 
C -1.341951 -0.77937 -1.5 -0.397805 -1.5 0 
C -1.5 0.397805 -1.341951 0.77937 -1.06066 1.06066 
C -0.77937 1.341951 -0.397805 1.5 0 1.5 
z
" id="m674858cc22" style="stroke:#1f77b4;"/>
    </defs>
    <g clip-path="url(#pb8d7c524f7)">
     <use style="fill:#1f77b4;stroke:#1f77b4;" x="-1" xlink:href="#m674858cc22" y="32.267434"/>
     <use style="fill:#1f77b4;stroke:#1f77b4;" x="404.012619" xlink:href="#m674858cc22" y="54.72"/>
     <use style="fill:#1f77b4;stroke:#1f77b4;" x="422.147275" xlink:href="#m674858cc22" y="86.4"/>
     <use style="fill:#1f77b4;stroke:#1f77b4;" x="577.557892" xlink:href="#m674858cc22" y="118.08"/>
     <use style="fill:#1f77b4;stroke:#1f77b4;" x="601.78125" xlink:href="#m674858cc22" y="118.08"/>
    </g>
   </g>
   <g id="line2d_28">
    <path clip-path="url(#pb8d7c524f7)" d="M -1 23.04 
L 542.92015 23.04 
L 542.92015 54.72 
L 592.845808 54.72 
L 592.845808 86.4 
L 601.78125 86.4 
L 601.78125 86.4 
" style="fill:none;stroke:#1f77b4;stroke-linecap:square;stroke-width:1.5;"/>
    <defs>
     <path d="M 3 0 
L -3 -3 
L -3 3 
z
" id="m048cbdb04d" style="stroke:#1f77b4;stroke-linejoin:miter;"/>
    </defs>
    <g clip-path="url(#pb8d7c524f7)">
     <use style="fill:#1f77b4;stroke:#1f77b4;stroke-linejoin:miter;" x="-1" xlink:href="#m048cbdb04d" y="30.463078"/>
     <use style="fill:#1f77b4;stroke:#1f77b4;stroke-linejoin:miter;" x="542.92015" xlink:href="#m048cbdb04d" y="54.72"/>
     <use style="fill:#1f77b4;stroke:#1f77b4;stroke-linejoin:miter;" x="592.845808" xlink:href="#m048cbdb04d" y="86.4"/>
     <use style="fill:#1f77b4;stroke:#1f77b4;stroke-linejoin:miter;" x="601.78125" xlink:href="#m048cbdb04d" y="86.4"/>
    </g>
   </g>
   <g id="line2d_29">
    <path clip-path="url(#pb8d7c524f7)" d="M -1 23.04 
L 349.238647 23.04 
L 349.238647 54.72 
L 410.103987 54.72 
L 410.103987 86.4 
L 444.07031 86.4 
L 444.07031 118.08 
L 456.494561 118.08 
L 456.494561 149.76 
L 460.7587 149.76 
L 460.7587 181.44 
L 498.926657 181.44 
L 498.926657 213.12 
L 561.483204 213.12 
L 561.483204 244.8 
L 581.970633 244.8 
L 581.970633 276.48 
L 601.78125 276.48 
L 601.78125 276.48 
" style="fill:none;stroke:#ff7f0e;stroke-dasharray:1.5,2.475;stroke-dashoffset:0;stroke-width:1.5;"/>
    <defs>
     <path d="M 0 1.5 
C 0.397805 1.5 0.77937 1.341951 1.06066 1.06066 
C 1.341951 0.77937 1.5 0.397805 1.5 0 
C 1.5 -0.397805 1.341951 -0.77937 1.06066 -1.06066 
C 0.77937 -1.341951 0.397805 -1.5 0 -1.5 
C -0.397805 -1.5 -0.77937 -1.341951 -1.06066 -1.06066 
C -1.341951 -0.77937 -1.5 -0.397805 -1.5 0 
C -1.5 0.397805 -1.341951 0.77937 -1.06066 1.06066 
C -0.77937 1.341951 -0.397805 1.5 0 1.5 
z
" id="m2c8a1413bf" style="stroke:#ff7f0e;"/>
    </defs>
    <g clip-path="url(#pb8d7c524f7)">
     <use style="fill:#ff7f0e;stroke:#ff7f0e;" x="-1" xlink:href="#m2c8a1413bf" y="33.245631"/>
     <use style="fill:#ff7f0e;stroke:#ff7f0e;" x="349.238647" xlink:href="#m2c8a1413bf" y="54.72"/>
     <use style="fill:#ff7f0e;stroke:#ff7f0e;" x="410.103987" xlink:href="#m2c8a1413bf" y="86.4"/>
     <use style="fill:#ff7f0e;stroke:#ff7f0e;" x="444.07031" xlink:href="#m2c8a1413bf" y="118.08"/>
     <use style="fill:#ff7f0e;stroke:#ff7f0e;" x="456.494561" xlink:href="#m2c8a1413bf" y="149.76"/>
     <use style="fill:#ff7f0e;stroke:#ff7f0e;" x="460.7587" xlink:href="#m2c8a1413bf" y="181.44"/>
     <use style="fill:#ff7f0e;stroke:#ff7f0e;" x="498.926657" xlink:href="#m2c8a1413bf" y="213.12"/>
     <use style="fill:#ff7f0e;stroke:#ff7f0e;" x="561.483204" xlink:href="#m2c8a1413bf" y="244.8"/>
     <use style="fill:#ff7f0e;stroke:#ff7f0e;" x="581.970633" xlink:href="#m2c8a1413bf" y="276.48"/>
     <use style="fill:#ff7f0e;stroke:#ff7f0e;" x="601.78125" xlink:href="#m2c8a1413bf" y="276.48"/>
    </g>
   </g>
   <g id="line2d_30">
    <path clip-path="url(#pb8d7c524f7)" d="M -1 23.04 
L 460.514356 23.04 
L 460.514356 54.72 
L 475.379292 54.72 
L 475.379292 86.4 
L 498.926657 86.4 
L 498.926657 118.08 
L 579.831337 118.08 
L 579.831337 149.76 
L 583.575795 149.76 
L 583.575795 181.44 
L 601.78125 181.44 
L 601.78125 181.44 
" style="fill:none;stroke:#ff7f0e;stroke-linecap:square;stroke-width:1.5;"/>
    <defs>
     <path d="M 3 0 
L -3 -3 
L -3 3 
z
" id="m06f52e4a58" style="stroke:#ff7f0e;stroke-linejoin:miter;"/>
    </defs>
    <g clip-path="url(#pb8d7c524f7)">
     <use style="fill:#ff7f0e;stroke:#ff7f0e;stroke-linejoin:miter;" x="-1" xlink:href="#m06f52e4a58" y="31.437186"/>
     <use style="fill:#ff7f0e;stroke:#ff7f0e;stroke-linejoin:miter;" x="460.514356" xlink:href="#m06f52e4a58" y="54.72"/>
     <use style="fill:#ff7f0e;stroke:#ff7f0e;stroke-linejoin:miter;" x="475.379292" xlink:href="#m06f52e4a58" y="86.4"/>
     <use style="fill:#ff7f0e;stroke:#ff7f0e;stroke-linejoin:miter;" x="498.926657" xlink:href="#m06f52e4a58" y="118.08"/>
     <use style="fill:#ff7f0e;stroke:#ff7f0e;stroke-linejoin:miter;" x="579.831337" xlink:href="#m06f52e4a58" y="149.76"/>
     <use style="fill:#ff7f0e;stroke:#ff7f0e;stroke-linejoin:miter;" x="583.575795" xlink:href="#m06f52e4a58" y="181.44"/>
     <use style="fill:#ff7f0e;stroke:#ff7f0e;stroke-linejoin:miter;" x="601.78125" xlink:href="#m06f52e4a58" y="181.44"/>
    </g>
   </g>
   <g id="line2d_31">
    <path clip-path="url(#pb8d7c524f7)" d="M -1 23.04 
L 420.660666 23.04 
L 420.660666 54.72 
L 533.008973 54.72 
L 533.008973 86.4 
L 542.198985 86.4 
L 542.198985 118.08 
L 551.434451 118.08 
L 551.434451 149.76 
L 565.624283 149.76 
L 565.624283 181.44 
L 580.933139 181.44 
L 580.933139 213.12 
L 580.999477 213.12 
L 580.999477 244.8 
L 594.007359 244.8 
L 594.007359 276.48 
L 601.78125 276.48 
L 601.78125 276.48 
" style="fill:none;stroke:#2ca02c;stroke-dasharray:1.5,2.475;stroke-dashoffset:0;stroke-width:1.5;"/>
    <defs>
     <path d="M 0 1.5 
C 0.397805 1.5 0.77937 1.341951 1.06066 1.06066 
C 1.341951 0.77937 1.5 0.397805 1.5 0 
C 1.5 -0.397805 1.341951 -0.77937 1.06066 -1.06066 
C 0.77937 -1.341951 0.397805 -1.5 0 -1.5 
C -0.397805 -1.5 -0.77937 -1.341951 -1.06066 -1.06066 
C -1.341951 -0.77937 -1.5 -0.397805 -1.5 0 
C -1.5 0.397805 -1.341951 0.77937 -1.06066 1.06066 
C -0.77937 1.341951 -0.397805 1.5 0 1.5 
z
" id="m5ee9e089f2" style="stroke:#2ca02c;"/>
    </defs>
    <g clip-path="url(#pb8d7c524f7)">
     <use style="fill:#2ca02c;stroke:#2ca02c;" x="-1" xlink:href="#m5ee9e089f2" y="32.006226"/>
     <use style="fill:#2ca02c;stroke:#2ca02c;" x="420.660666" xlink:href="#m5ee9e089f2" y="54.72"/>
     <use style="fill:#2ca02c;stroke:#2ca02c;" x="533.008973" xlink:href="#m5ee9e089f2" y="86.4"/>
     <use style="fill:#2ca02c;stroke:#2ca02c;" x="542.198985" xlink:href="#m5ee9e089f2" y="118.08"/>
     <use style="fill:#2ca02c;stroke:#2ca02c;" x="551.434451" xlink:href="#m5ee9e089f2" y="149.76"/>
     <use style="fill:#2ca02c;stroke:#2ca02c;" x="565.624283" xlink:href="#m5ee9e089f2" y="181.44"/>
     <use style="fill:#2ca02c;stroke:#2ca02c;" x="580.933139" xlink:href="#m5ee9e089f2" y="213.12"/>
     <use style="fill:#2ca02c;stroke:#2ca02c;" x="580.999477" xlink:href="#m5ee9e089f2" y="244.8"/>
     <use style="fill:#2ca02c;stroke:#2ca02c;" x="594.007359" xlink:href="#m5ee9e089f2" y="276.48"/>
     <use style="fill:#2ca02c;stroke:#2ca02c;" x="601.78125" xlink:href="#m5ee9e089f2" y="276.48"/>
    </g>
   </g>
   <g id="line2d_32">
    <path clip-path="url(#pb8d7c524f7)" d="M -1 23.04 
L 524.072514 23.04 
L 524.072514 54.72 
L 535.795383 54.72 
L 535.795383 86.4 
L 542.198985 86.4 
L 542.198985 118.08 
L 565.844431 118.08 
L 565.844431 149.76 
L 582.564234 149.76 
L 582.564234 181.44 
L 601.78125 181.44 
L 601.78125 181.44 
" style="fill:none;stroke:#2ca02c;stroke-linecap:square;stroke-width:1.5;"/>
    <defs>
     <path d="M 3 0 
L -3 -3 
L -3 3 
z
" id="m2214fd867d" style="stroke:#2ca02c;stroke-linejoin:miter;"/>
    </defs>
    <g clip-path="url(#pb8d7c524f7)">
     <use style="fill:#2ca02c;stroke:#2ca02c;stroke-linejoin:miter;" x="-1" xlink:href="#m2214fd867d" y="30.665396"/>
     <use style="fill:#2ca02c;stroke:#2ca02c;stroke-linejoin:miter;" x="524.072514" xlink:href="#m2214fd867d" y="54.72"/>
     <use style="fill:#2ca02c;stroke:#2ca02c;stroke-linejoin:miter;" x="535.795383" xlink:href="#m2214fd867d" y="86.4"/>
     <use style="fill:#2ca02c;stroke:#2ca02c;stroke-linejoin:miter;" x="542.198985" xlink:href="#m2214fd867d" y="118.08"/>
     <use style="fill:#2ca02c;stroke:#2ca02c;stroke-linejoin:miter;" x="565.844431" xlink:href="#m2214fd867d" y="149.76"/>
     <use style="fill:#2ca02c;stroke:#2ca02c;stroke-linejoin:miter;" x="582.564234" xlink:href="#m2214fd867d" y="181.44"/>
     <use style="fill:#2ca02c;stroke:#2ca02c;stroke-linejoin:miter;" x="601.78125" xlink:href="#m2214fd867d" y="181.44"/>
    </g>
   </g>
   <g id="line2d_33">
    <path clip-path="url(#pb8d7c524f7)" d="M -1 23.04 
L 125.348989 23.04 
L 125.348989 54.72 
L 302.708436 54.72 
L 302.708436 86.4 
L 350.3273 86.4 
L 350.3273 118.08 
L 359.994537 118.08 
L 359.994537 149.76 
L 380.494399 149.76 
L 380.494399 181.44 
L 403.887994 181.44 
L 403.887994 213.12 
L 409.993491 213.12 
L 409.993491 244.8 
L 410.943215 244.8 
L 410.943215 276.48 
L 415.143007 276.48 
L 415.143007 308.16 
L 539.469971 308.16 
L 539.469971 339.84 
" style="fill:none;stroke:#d62728;stroke-dasharray:1.5,2.475;stroke-dashoffset:0;stroke-width:1.5;"/>
    <defs>
     <path d="M 0 1.5 
C 0.397805 1.5 0.77937 1.341951 1.06066 1.06066 
C 1.341951 0.77937 1.5 0.397805 1.5 0 
C 1.5 -0.397805 1.341951 -0.77937 1.06066 -1.06066 
C 0.77937 -1.341951 0.397805 -1.5 0 -1.5 
C -0.397805 -1.5 -0.77937 -1.341951 -1.06066 -1.06066 
C -1.341951 -0.77937 -1.5 -0.397805 -1.5 0 
C -1.5 0.397805 -1.341951 0.77937 -1.06066 1.06066 
C -0.77937 1.341951 -0.397805 1.5 0 1.5 
z
" id="m45a6fdd9d5" style="stroke:#d62728;"/>
    </defs>
    <g clip-path="url(#pb8d7c524f7)">
     <use style="fill:#d62728;stroke:#d62728;" x="-1" xlink:href="#m45a6fdd9d5" y="41.049401"/>
     <use style="fill:#d62728;stroke:#d62728;" x="125.348989" xlink:href="#m45a6fdd9d5" y="54.72"/>
     <use style="fill:#d62728;stroke:#d62728;" x="302.708436" xlink:href="#m45a6fdd9d5" y="86.4"/>
     <use style="fill:#d62728;stroke:#d62728;" x="350.3273" xlink:href="#m45a6fdd9d5" y="118.08"/>
     <use style="fill:#d62728;stroke:#d62728;" x="359.994537" xlink:href="#m45a6fdd9d5" y="149.76"/>
     <use style="fill:#d62728;stroke:#d62728;" x="380.494399" xlink:href="#m45a6fdd9d5" y="181.44"/>
     <use style="fill:#d62728;stroke:#d62728;" x="403.887994" xlink:href="#m45a6fdd9d5" y="213.12"/>
     <use style="fill:#d62728;stroke:#d62728;" x="409.993491" xlink:href="#m45a6fdd9d5" y="244.8"/>
     <use style="fill:#d62728;stroke:#d62728;" x="410.943215" xlink:href="#m45a6fdd9d5" y="276.48"/>
     <use style="fill:#d62728;stroke:#d62728;" x="415.143007" xlink:href="#m45a6fdd9d5" y="308.16"/>
     <use style="fill:#d62728;stroke:#d62728;" x="539.469971" xlink:href="#m45a6fdd9d5" y="339.84"/>
    </g>
   </g>
   <g id="line2d_34">
    <path clip-path="url(#pb8d7c524f7)" d="M -1 23.04 
L 363.064138 23.04 
L 363.064138 54.72 
L 467.666493 54.72 
L 467.666493 86.4 
L 498.446114 86.4 
L 498.446114 118.08 
L 499.613876 118.08 
L 499.613876 149.76 
L 516.208873 149.76 
L 516.208873 181.44 
L 537.74015 181.44 
L 537.74015 213.12 
L 569.864638 213.12 
L 569.864638 244.8 
L 577.078562 244.8 
L 577.078562 276.48 
L 580.446546 276.48 
L 580.446546 308.16 
L 601.78125 308.16 
L 601.78125 308.16 
" style="fill:none;stroke:#d62728;stroke-linecap:square;stroke-width:1.5;"/>
    <defs>
     <path d="M 3 0 
L -3 -3 
L -3 3 
z
" id="m66c531f38e" style="stroke:#d62728;stroke-linejoin:miter;"/>
    </defs>
    <g clip-path="url(#pb8d7c524f7)">
     <use style="fill:#d62728;stroke:#d62728;stroke-linejoin:miter;" x="-1" xlink:href="#m66c531f38e" y="32.979666"/>
     <use style="fill:#d62728;stroke:#d62728;stroke-linejoin:miter;" x="363.064138" xlink:href="#m66c531f38e" y="54.72"/>
     <use style="fill:#d62728;stroke:#d62728;stroke-linejoin:miter;" x="467.666493" xlink:href="#m66c531f38e" y="86.4"/>
     <use style="fill:#d62728;stroke:#d62728;stroke-linejoin:miter;" x="498.446114" xlink:href="#m66c531f38e" y="118.08"/>
     <use style="fill:#d62728;stroke:#d62728;stroke-linejoin:miter;" x="499.613876" xlink:href="#m66c531f38e" y="149.76"/>
     <use style="fill:#d62728;stroke:#d62728;stroke-linejoin:miter;" x="516.208873" xlink:href="#m66c531f38e" y="181.44"/>
     <use style="fill:#d62728;stroke:#d62728;stroke-linejoin:miter;" x="537.74015" xlink:href="#m66c531f38e" y="213.12"/>
     <use style="fill:#d62728;stroke:#d62728;stroke-linejoin:miter;" x="569.864638" xlink:href="#m66c531f38e" y="244.8"/>
     <use style="fill:#d62728;stroke:#d62728;stroke-linejoin:miter;" x="577.078562" xlink:href="#m66c531f38e" y="276.48"/>
     <use style="fill:#d62728;stroke:#d62728;stroke-linejoin:miter;" x="580.446546" xlink:href="#m66c531f38e" y="308.16"/>
     <use style="fill:#d62728;stroke:#d62728;stroke-linejoin:miter;" x="601.78125" xlink:href="#m66c531f38e" y="308.16"/>
    </g>
   </g>
   <g id="line2d_35">
    <path clip-path="url(#pb8d7c524f7)" d="M -1 23.04 
L 328.902838 23.04 
L 328.902838 54.72 
L 394.426853 54.72 
L 394.426853 86.4 
L 400.357197 86.4 
L 400.357197 118.08 
L 437.077791 118.08 
L 437.077791 149.76 
L 450.69525 149.76 
L 450.69525 181.44 
L 465.807153 181.44 
L 465.807153 213.12 
L 488.565173 213.12 
L 488.565173 244.8 
L 503.558116 244.8 
L 503.558116 276.48 
L 519.402599 276.48 
L 519.402599 308.16 
L 545.322339 308.16 
L 545.322339 339.84 
" style="fill:none;stroke:#9467bd;stroke-dasharray:1.5,2.475;stroke-dashoffset:0;stroke-width:1.5;"/>
    <defs>
     <path d="M 0 1.5 
C 0.397805 1.5 0.77937 1.341951 1.06066 1.06066 
C 1.341951 0.77937 1.5 0.397805 1.5 0 
C 1.5 -0.397805 1.341951 -0.77937 1.06066 -1.06066 
C 0.77937 -1.341951 0.397805 -1.5 0 -1.5 
C -0.397805 -1.5 -0.77937 -1.341951 -1.06066 -1.06066 
C -1.341951 -0.77937 -1.5 -0.397805 -1.5 0 
C -1.5 0.397805 -1.341951 0.77937 -1.06066 1.06066 
C -0.77937 1.341951 -0.397805 1.5 0 1.5 
z
" id="m14df0de781" style="stroke:#9467bd;"/>
    </defs>
    <g clip-path="url(#pb8d7c524f7)">
     <use style="fill:#9467bd;stroke:#9467bd;" x="-1" xlink:href="#m14df0de781" y="33.66376"/>
     <use style="fill:#9467bd;stroke:#9467bd;" x="328.902838" xlink:href="#m14df0de781" y="54.72"/>
     <use style="fill:#9467bd;stroke:#9467bd;" x="394.426853" xlink:href="#m14df0de781" y="86.4"/>
     <use style="fill:#9467bd;stroke:#9467bd;" x="400.357197" xlink:href="#m14df0de781" y="118.08"/>
     <use style="fill:#9467bd;stroke:#9467bd;" x="437.077791" xlink:href="#m14df0de781" y="149.76"/>
     <use style="fill:#9467bd;stroke:#9467bd;" x="450.69525" xlink:href="#m14df0de781" y="181.44"/>
     <use style="fill:#9467bd;stroke:#9467bd;" x="465.807153" xlink:href="#m14df0de781" y="213.12"/>
     <use style="fill:#9467bd;stroke:#9467bd;" x="488.565173" xlink:href="#m14df0de781" y="244.8"/>
     <use style="fill:#9467bd;stroke:#9467bd;" x="503.558116" xlink:href="#m14df0de781" y="276.48"/>
     <use style="fill:#9467bd;stroke:#9467bd;" x="519.402599" xlink:href="#m14df0de781" y="308.16"/>
     <use style="fill:#9467bd;stroke:#9467bd;" x="545.322339" xlink:href="#m14df0de781" y="339.84"/>
    </g>
   </g>
   <g id="line2d_36">
    <path clip-path="url(#pb8d7c524f7)" d="M -1 23.04 
L 334.105442 23.04 
L 334.105442 54.72 
L 401.937673 54.72 
L 401.937673 86.4 
L 472.920516 86.4 
L 472.920516 118.08 
L 494.355132 118.08 
L 494.355132 149.76 
L 502.10278 149.76 
L 502.10278 181.44 
L 524.511296 181.44 
L 524.511296 213.12 
L 534.167444 213.12 
L 534.167444 244.8 
L 554.836469 244.8 
L 554.836469 276.48 
L 559.850917 276.48 
L 559.850917 308.16 
L 560.434043 308.16 
L 560.434043 339.84 
" style="fill:none;stroke:#9467bd;stroke-linecap:square;stroke-width:1.5;"/>
    <defs>
     <path d="M 3 0 
L -3 -3 
L -3 3 
z
" id="m86805c8aa3" style="stroke:#9467bd;stroke-linejoin:miter;"/>
    </defs>
    <g clip-path="url(#pb8d7c524f7)">
     <use style="fill:#9467bd;stroke:#9467bd;stroke-linejoin:miter;" x="-1" xlink:href="#m86805c8aa3" y="33.55356"/>
     <use style="fill:#9467bd;stroke:#9467bd;stroke-linejoin:miter;" x="334.105442" xlink:href="#m86805c8aa3" y="54.72"/>
     <use style="fill:#9467bd;stroke:#9467bd;stroke-linejoin:miter;" x="401.937673" xlink:href="#m86805c8aa3" y="86.4"/>
     <use style="fill:#9467bd;stroke:#9467bd;stroke-linejoin:miter;" x="472.920516" xlink:href="#m86805c8aa3" y="118.08"/>
     <use style="fill:#9467bd;stroke:#9467bd;stroke-linejoin:miter;" x="494.355132" xlink:href="#m86805c8aa3" y="149.76"/>
     <use style="fill:#9467bd;stroke:#9467bd;stroke-linejoin:miter;" x="502.10278" xlink:href="#m86805c8aa3" y="181.44"/>
     <use style="fill:#9467bd;stroke:#9467bd;stroke-linejoin:miter;" x="524.511296" xlink:href="#m86805c8aa3" y="213.12"/>
     <use style="fill:#9467bd;stroke:#9467bd;stroke-linejoin:miter;" x="534.167444" xlink:href="#m86805c8aa3" y="244.8"/>
     <use style="fill:#9467bd;stroke:#9467bd;stroke-linejoin:miter;" x="554.836469" xlink:href="#m86805c8aa3" y="276.48"/>
     <use style="fill:#9467bd;stroke:#9467bd;stroke-linejoin:miter;" x="559.850917" xlink:href="#m86805c8aa3" y="308.16"/>
     <use style="fill:#9467bd;stroke:#9467bd;stroke-linejoin:miter;" x="560.434043" xlink:href="#m86805c8aa3" y="339.84"/>
    </g>
   </g>
   <g id="line2d_37">
    <path clip-path="url(#pb8d7c524f7)" d="M -1 23.04 
L 461.976278 23.04 
L 461.976278 54.72 
L 504.372168 54.72 
L 504.372168 86.4 
L 568.707959 86.4 
L 568.707959 118.08 
L 601.78125 118.08 
L 601.78125 118.08 
" style="fill:none;stroke:#8c564b;stroke-dasharray:1.5,2.475;stroke-dashoffset:0;stroke-width:1.5;"/>
    <defs>
     <path d="M 0 1.5 
C 0.397805 1.5 0.77937 1.341951 1.06066 1.06066 
C 1.341951 0.77937 1.5 0.397805 1.5 0 
C 1.5 -0.397805 1.341951 -0.77937 1.06066 -1.06066 
C 0.77937 -1.341951 0.397805 -1.5 0 -1.5 
C -0.397805 -1.5 -0.77937 -1.341951 -1.06066 -1.06066 
C -1.341951 -0.77937 -1.5 -0.397805 -1.5 0 
C -1.5 0.397805 -1.341951 0.77937 -1.06066 1.06066 
C -0.77937 1.341951 -0.397805 1.5 0 1.5 
z
" id="mec211fa047" style="stroke:#8c564b;"/>
    </defs>
    <g clip-path="url(#pb8d7c524f7)">
     <use style="fill:#8c564b;stroke:#8c564b;" x="-1" xlink:href="#mec211fa047" y="31.417682"/>
     <use style="fill:#8c564b;stroke:#8c564b;" x="461.976278" xlink:href="#mec211fa047" y="54.72"/>
     <use style="fill:#8c564b;stroke:#8c564b;" x="504.372168" xlink:href="#mec211fa047" y="86.4"/>
     <use style="fill:#8c564b;stroke:#8c564b;" x="568.707959" xlink:href="#mec211fa047" y="118.08"/>
     <use style="fill:#8c564b;stroke:#8c564b;" x="601.78125" xlink:href="#mec211fa047" y="118.08"/>
    </g>
   </g>
   <g id="line2d_38">
    <path clip-path="url(#pb8d7c524f7)" d="M -1 23.04 
L 498.744587 23.04 
L 498.744587 54.72 
L 576.560899 54.72 
L 576.560899 86.4 
L 601.78125 86.4 
L 601.78125 86.4 
" style="fill:none;stroke:#8c564b;stroke-linecap:square;stroke-width:1.5;"/>
    <defs>
     <path d="M 3 0 
L -3 -3 
L -3 3 
z
" id="mdbe9f8919b" style="stroke:#8c564b;stroke-linejoin:miter;"/>
    </defs>
    <g clip-path="url(#pb8d7c524f7)">
     <use style="fill:#8c564b;stroke:#8c564b;stroke-linejoin:miter;" x="-1" xlink:href="#mdbe9f8919b" y="30.955305"/>
     <use style="fill:#8c564b;stroke:#8c564b;stroke-linejoin:miter;" x="498.744587" xlink:href="#mdbe9f8919b" y="54.72"/>
     <use style="fill:#8c564b;stroke:#8c564b;stroke-linejoin:miter;" x="576.560899" xlink:href="#mdbe9f8919b" y="86.4"/>
     <use style="fill:#8c564b;stroke:#8c564b;stroke-linejoin:miter;" x="601.78125" xlink:href="#mdbe9f8919b" y="86.4"/>
    </g>
   </g>
   <g id="patch_3">
    <path d="M 43.78125 339.84 
L 43.78125 7.2 
" style="fill:none;stroke:#000000;stroke-linecap:square;stroke-linejoin:miter;stroke-width:0.8;"/>
   </g>
   <g id="patch_4">
    <path d="M 601.78125 339.84 
L 601.78125 7.2 
" style="fill:none;stroke:#000000;stroke-linecap:square;stroke-linejoin:miter;stroke-width:0.8;"/>
   </g>
   <g id="patch_5">
    <path d="M 43.78125 339.84 
L 601.78125 339.84 
" style="fill:none;stroke:#000000;stroke-linecap:square;stroke-linejoin:miter;stroke-width:0.8;"/>
   </g>
   <g id="patch_6">
    <path d="M 43.78125 7.2 
L 601.78125 7.2 
" style="fill:none;stroke:#000000;stroke-linecap:square;stroke-linejoin:miter;stroke-width:0.8;"/>
   </g>
  </g>
 </g>
 <defs>
  <clipPath id="pb8d7c524f7">
   <rect height="332.64" width="558" x="43.78125" y="7.2"/>
  </clipPath>
 </defs>
</svg>
